{
  "title" : "",
  "description" : "",
  "author" : "",
  "targetLoudness" : -18.0,
  "shouldApplyLoudnessNormalization" : true,
  "videoFormatFrameRate" : 60,
  "audioFormatSampleRate" : 44100,
  "width" : 1920.0,
  "height" : 1080.0,
  "version" : "3.0",
  "editRate" : 60,
  "authoringClientName" :  {
    "name" : "Camtasia",
    "platform" : "Windows",
    "version" : "19.0"
  },
  "sourceBin" : [
    {
      "id" : 1,
      "src" : "C:\\Users\\oneoffcoder\\git\\books\\sphinx\\scratch\\media\\scratch-2.1-motion-basic-moving.trec",
      "rect" : [0, 0, 1920, 1080],
      "lastMod" : "20191112T142947",
      "sourceTracks" : [
        {
          "range" : [0, 231],
          "type" : 0,
          "editRate" : 30,
          "trackRect" : [0, 0, 1920, 1080],
          "sampleRate" : 30,
          "bitDepth" : 0,
          "numChannels" : 0,
          "integratedLUFS" : 100.0,
          "peakLevel" : -1.0,
          "metaData" : "2b7b6a00-7a1f-11e2-83d0-0017f200be7f;2b7b6aef-7a1f-11e2-83d0-0017f200be7f;2b7b6af0-7a1f-11e2-83d0-0017f200be7f;2b7b6af1-7a1f-11e2-83d0-0017f200be7f;2b7b6af2-7a1f-11e2-83d0-0017f200be7f;2b7b6af3-7a1f-11e2-83d0-0017f200be7f;2b7b6af5-7a1f-11e2-83d0-0017f200be7f;2b7b6af6-7a1f-11e2-83d0-0017f200be7f;2b7b6af7-7a1f-11e2-83d0-0017f200be7f;2b7b6af8-7a1f-11e2-83d0-0017f200be7f;2b7b6af9-7a1f-11e2-83d0-0017f200be7f;2b7b6afa-7a1f-11e2-83d0-0017f200be7f;"
        },
        {
          "range" : [0, 337920],
          "type" : 2,
          "editRate" : 44100,
          "trackRect" : [0, 0, 0, 0],
          "sampleRate" : 44100,
          "bitDepth" : 16,
          "numChannels" : 2,
          "integratedLUFS" : 0.0,
          "peakLevel" : 0.0,
          "metaData" : ""
        }
      ]
    },
    {
      "id" : 2,
      "src" : "C:\\Users\\oneoffcoder\\git\\books\\sphinx\\scratch\\media\\scratch-2.2-motion-basic-rotation.trec",
      "rect" : [0, 0, 1920, 1080],
      "lastMod" : "20191112T143504",
      "sourceTracks" : [
        {
          "range" : [0, 248],
          "type" : 0,
          "editRate" : 30,
          "trackRect" : [0, 0, 1920, 1080],
          "sampleRate" : 30,
          "bitDepth" : 0,
          "numChannels" : 0,
          "integratedLUFS" : 100.0,
          "peakLevel" : -1.0,
          "metaData" : "2b7b6a00-7a1f-11e2-83d0-0017f200be7f;2b7b6aef-7a1f-11e2-83d0-0017f200be7f;2b7b6af0-7a1f-11e2-83d0-0017f200be7f;2b7b6af1-7a1f-11e2-83d0-0017f200be7f;2b7b6af2-7a1f-11e2-83d0-0017f200be7f;2b7b6af3-7a1f-11e2-83d0-0017f200be7f;2b7b6af5-7a1f-11e2-83d0-0017f200be7f;2b7b6af6-7a1f-11e2-83d0-0017f200be7f;2b7b6af7-7a1f-11e2-83d0-0017f200be7f;2b7b6af8-7a1f-11e2-83d0-0017f200be7f;2b7b6af9-7a1f-11e2-83d0-0017f200be7f;2b7b6afa-7a1f-11e2-83d0-0017f200be7f;"
        },
        {
          "range" : [0, 366592],
          "type" : 2,
          "editRate" : 44100,
          "trackRect" : [0, 0, 0, 0],
          "sampleRate" : 44100,
          "bitDepth" : 16,
          "numChannels" : 2,
          "integratedLUFS" : 0.0,
          "peakLevel" : 0.0,
          "metaData" : ""
        }
      ]
    },
    {
      "id" : 3,
      "src" : "C:\\Users\\oneoffcoder\\git\\books\\sphinx\\scratch\\media\\scratch-2.3-motion-moving-to-a-random-position.trec",
      "rect" : [0, 0, 1920, 1080],
      "lastMod" : "20191112T144519",
      "sourceTracks" : [
        {
          "range" : [0, 258],
          "type" : 0,
          "editRate" : 30,
          "trackRect" : [0, 0, 1920, 1080],
          "sampleRate" : 30,
          "bitDepth" : 0,
          "numChannels" : 0,
          "integratedLUFS" : 100.0,
          "peakLevel" : -1.0,
          "metaData" : "2b7b6a00-7a1f-11e2-83d0-0017f200be7f;2b7b6aef-7a1f-11e2-83d0-0017f200be7f;2b7b6af0-7a1f-11e2-83d0-0017f200be7f;2b7b6af1-7a1f-11e2-83d0-0017f200be7f;2b7b6af2-7a1f-11e2-83d0-0017f200be7f;2b7b6af3-7a1f-11e2-83d0-0017f200be7f;2b7b6af5-7a1f-11e2-83d0-0017f200be7f;2b7b6af6-7a1f-11e2-83d0-0017f200be7f;2b7b6af7-7a1f-11e2-83d0-0017f200be7f;2b7b6af8-7a1f-11e2-83d0-0017f200be7f;2b7b6af9-7a1f-11e2-83d0-0017f200be7f;2b7b6afa-7a1f-11e2-83d0-0017f200be7f;"
        },
        {
          "range" : [0, 378880],
          "type" : 2,
          "editRate" : 44100,
          "trackRect" : [0, 0, 0, 0],
          "sampleRate" : 44100,
          "bitDepth" : 16,
          "numChannels" : 2,
          "integratedLUFS" : 0.0,
          "peakLevel" : 0.0,
          "metaData" : ""
        }
      ]
    },
    {
      "id" : 4,
      "src" : "C:\\Users\\oneoffcoder\\git\\books\\sphinx\\scratch\\media\\scratch-2.4-motion-moving-to-the-mouse-pointer.trec",
      "rect" : [0, 0, 1920, 1080],
      "lastMod" : "20191112T144932",
      "sourceTracks" : [
        {
          "range" : [0, 329],
          "type" : 0,
          "editRate" : 30,
          "trackRect" : [0, 0, 1920, 1080],
          "sampleRate" : 30,
          "bitDepth" : 0,
          "numChannels" : 0,
          "integratedLUFS" : 100.0,
          "peakLevel" : -1.0,
          "metaData" : "2b7b6a00-7a1f-11e2-83d0-0017f200be7f;2b7b6aef-7a1f-11e2-83d0-0017f200be7f;2b7b6af0-7a1f-11e2-83d0-0017f200be7f;2b7b6af1-7a1f-11e2-83d0-0017f200be7f;2b7b6af2-7a1f-11e2-83d0-0017f200be7f;2b7b6af3-7a1f-11e2-83d0-0017f200be7f;2b7b6af5-7a1f-11e2-83d0-0017f200be7f;2b7b6af6-7a1f-11e2-83d0-0017f200be7f;2b7b6af7-7a1f-11e2-83d0-0017f200be7f;2b7b6af8-7a1f-11e2-83d0-0017f200be7f;2b7b6af9-7a1f-11e2-83d0-0017f200be7f;2b7b6afa-7a1f-11e2-83d0-0017f200be7f;"
        },
        {
          "range" : [0, 479232],
          "type" : 2,
          "editRate" : 44100,
          "trackRect" : [0, 0, 0, 0],
          "sampleRate" : 44100,
          "bitDepth" : 16,
          "numChannels" : 2,
          "integratedLUFS" : 0.0,
          "peakLevel" : 0.0,
          "metaData" : ""
        }
      ]
    },
    {
      "id" : 5,
      "src" : "C:\\Users\\oneoffcoder\\git\\books\\sphinx\\scratch\\media\\scratch-2.5-motion-moving-to-a-specific-x-and-y-coordinate.trec",
      "rect" : [0, 0, 1920, 1080],
      "lastMod" : "20191112T150315",
      "sourceTracks" : [
        {
          "range" : [0, 353],
          "type" : 0,
          "editRate" : 30,
          "trackRect" : [0, 0, 1920, 1080],
          "sampleRate" : 30,
          "bitDepth" : 0,
          "numChannels" : 0,
          "integratedLUFS" : 100.0,
          "peakLevel" : -1.0,
          "metaData" : "2b7b6a00-7a1f-11e2-83d0-0017f200be7f;2b7b6aef-7a1f-11e2-83d0-0017f200be7f;2b7b6af0-7a1f-11e2-83d0-0017f200be7f;2b7b6af1-7a1f-11e2-83d0-0017f200be7f;2b7b6af2-7a1f-11e2-83d0-0017f200be7f;2b7b6af3-7a1f-11e2-83d0-0017f200be7f;2b7b6af5-7a1f-11e2-83d0-0017f200be7f;2b7b6af6-7a1f-11e2-83d0-0017f200be7f;2b7b6af7-7a1f-11e2-83d0-0017f200be7f;2b7b6af8-7a1f-11e2-83d0-0017f200be7f;2b7b6af9-7a1f-11e2-83d0-0017f200be7f;2b7b6afa-7a1f-11e2-83d0-0017f200be7f;"
        },
        {
          "range" : [0, 516096],
          "type" : 2,
          "editRate" : 44100,
          "trackRect" : [0, 0, 0, 0],
          "sampleRate" : 44100,
          "bitDepth" : 16,
          "numChannels" : 2,
          "integratedLUFS" : 0.0,
          "peakLevel" : 0.0,
          "metaData" : ""
        }
      ]
    },
    {
      "id" : 6,
      "src" : "C:\\Users\\oneoffcoder\\git\\books\\sphinx\\scratch\\media\\scratch-2.6-motion-gliding.trec",
      "rect" : [0, 0, 1920, 1080],
      "lastMod" : "20191112T152058",
      "sourceTracks" : [
        {
          "range" : [0, 420],
          "type" : 0,
          "editRate" : 30,
          "trackRect" : [0, 0, 1920, 1080],
          "sampleRate" : 30,
          "bitDepth" : 0,
          "numChannels" : 0,
          "integratedLUFS" : 100.0,
          "peakLevel" : -1.0,
          "metaData" : "2b7b6a00-7a1f-11e2-83d0-0017f200be7f;2b7b6aef-7a1f-11e2-83d0-0017f200be7f;2b7b6af0-7a1f-11e2-83d0-0017f200be7f;2b7b6af1-7a1f-11e2-83d0-0017f200be7f;2b7b6af2-7a1f-11e2-83d0-0017f200be7f;2b7b6af3-7a1f-11e2-83d0-0017f200be7f;2b7b6af5-7a1f-11e2-83d0-0017f200be7f;2b7b6af6-7a1f-11e2-83d0-0017f200be7f;2b7b6af7-7a1f-11e2-83d0-0017f200be7f;2b7b6af8-7a1f-11e2-83d0-0017f200be7f;2b7b6af9-7a1f-11e2-83d0-0017f200be7f;2b7b6afa-7a1f-11e2-83d0-0017f200be7f;"
        },
        {
          "range" : [0, 613376],
          "type" : 2,
          "editRate" : 44100,
          "trackRect" : [0, 0, 0, 0],
          "sampleRate" : 44100,
          "bitDepth" : 16,
          "numChannels" : 2,
          "integratedLUFS" : 0.0,
          "peakLevel" : 0.0,
          "metaData" : ""
        }
      ]
    },
    {
      "id" : 7,
      "src" : "C:\\Users\\oneoffcoder\\git\\books\\sphinx\\scratch\\media\\scratch-2.7-motion-pointing.trec",
      "rect" : [0, 0, 1920, 1080],
      "lastMod" : "20191112T153125",
      "sourceTracks" : [
        {
          "range" : [0, 411],
          "type" : 0,
          "editRate" : 30,
          "trackRect" : [0, 0, 1920, 1080],
          "sampleRate" : 30,
          "bitDepth" : 0,
          "numChannels" : 0,
          "integratedLUFS" : 100.0,
          "peakLevel" : -1.0,
          "metaData" : "2b7b6a00-7a1f-11e2-83d0-0017f200be7f;2b7b6aef-7a1f-11e2-83d0-0017f200be7f;2b7b6af0-7a1f-11e2-83d0-0017f200be7f;2b7b6af1-7a1f-11e2-83d0-0017f200be7f;2b7b6af2-7a1f-11e2-83d0-0017f200be7f;2b7b6af3-7a1f-11e2-83d0-0017f200be7f;2b7b6af5-7a1f-11e2-83d0-0017f200be7f;2b7b6af6-7a1f-11e2-83d0-0017f200be7f;2b7b6af7-7a1f-11e2-83d0-0017f200be7f;2b7b6af8-7a1f-11e2-83d0-0017f200be7f;2b7b6af9-7a1f-11e2-83d0-0017f200be7f;2b7b6afa-7a1f-11e2-83d0-0017f200be7f;"
        },
        {
          "range" : [0, 601088],
          "type" : 2,
          "editRate" : 44100,
          "trackRect" : [0, 0, 0, 0],
          "sampleRate" : 44100,
          "bitDepth" : 16,
          "numChannels" : 2,
          "integratedLUFS" : 0.0,
          "peakLevel" : 0.0,
          "metaData" : ""
        }
      ]
    },
    {
      "id" : 8,
      "src" : "C:\\Users\\oneoffcoder\\git\\books\\sphinx\\scratch\\media\\scratch-2.8-motion-changing-x.trec",
      "rect" : [0, 0, 1920, 1080],
      "lastMod" : "20191112T153459",
      "sourceTracks" : [
        {
          "range" : [0, 491],
          "type" : 0,
          "editRate" : 30,
          "trackRect" : [0, 0, 1920, 1080],
          "sampleRate" : 30,
          "bitDepth" : 0,
          "numChannels" : 0,
          "integratedLUFS" : 100.0,
          "peakLevel" : -1.0,
          "metaData" : "2b7b6a00-7a1f-11e2-83d0-0017f200be7f;2b7b6aef-7a1f-11e2-83d0-0017f200be7f;2b7b6af0-7a1f-11e2-83d0-0017f200be7f;2b7b6af1-7a1f-11e2-83d0-0017f200be7f;2b7b6af2-7a1f-11e2-83d0-0017f200be7f;2b7b6af3-7a1f-11e2-83d0-0017f200be7f;2b7b6af5-7a1f-11e2-83d0-0017f200be7f;2b7b6af6-7a1f-11e2-83d0-0017f200be7f;2b7b6af7-7a1f-11e2-83d0-0017f200be7f;2b7b6af8-7a1f-11e2-83d0-0017f200be7f;2b7b6af9-7a1f-11e2-83d0-0017f200be7f;2b7b6afa-7a1f-11e2-83d0-0017f200be7f;"
        },
        {
          "range" : [0, 722944],
          "type" : 2,
          "editRate" : 44100,
          "trackRect" : [0, 0, 0, 0],
          "sampleRate" : 44100,
          "bitDepth" : 16,
          "numChannels" : 2,
          "integratedLUFS" : 0.0,
          "peakLevel" : 0.0,
          "metaData" : ""
        }
      ]
    },
    {
      "id" : 9,
      "src" : "C:\\Users\\oneoffcoder\\git\\books\\sphinx\\scratch\\media\\scratch-2.9-motion-changing-y.trec",
      "rect" : [0, 0, 1920, 1080],
      "lastMod" : "20191112T153715",
      "sourceTracks" : [
        {
          "range" : [0, 386],
          "type" : 0,
          "editRate" : 30,
          "trackRect" : [0, 0, 1920, 1080],
          "sampleRate" : 30,
          "bitDepth" : 0,
          "numChannels" : 0,
          "integratedLUFS" : 100.0,
          "peakLevel" : -1.0,
          "metaData" : "2b7b6a00-7a1f-11e2-83d0-0017f200be7f;2b7b6aef-7a1f-11e2-83d0-0017f200be7f;2b7b6af0-7a1f-11e2-83d0-0017f200be7f;2b7b6af1-7a1f-11e2-83d0-0017f200be7f;2b7b6af2-7a1f-11e2-83d0-0017f200be7f;2b7b6af3-7a1f-11e2-83d0-0017f200be7f;2b7b6af5-7a1f-11e2-83d0-0017f200be7f;2b7b6af6-7a1f-11e2-83d0-0017f200be7f;2b7b6af7-7a1f-11e2-83d0-0017f200be7f;2b7b6af8-7a1f-11e2-83d0-0017f200be7f;2b7b6af9-7a1f-11e2-83d0-0017f200be7f;2b7b6afa-7a1f-11e2-83d0-0017f200be7f;"
        },
        {
          "range" : [0, 565248],
          "type" : 2,
          "editRate" : 44100,
          "trackRect" : [0, 0, 0, 0],
          "sampleRate" : 44100,
          "bitDepth" : 16,
          "numChannels" : 2,
          "integratedLUFS" : 0.0,
          "peakLevel" : 0.0,
          "metaData" : ""
        }
      ]
    },
    {
      "id" : 10,
      "src" : "C:\\Users\\oneoffcoder\\git\\books\\sphinx\\scratch\\media\\scratch-2.10-motion-bouncing.trec",
      "rect" : [0, 0, 1920, 1080],
      "lastMod" : "20191112T154152",
      "sourceTracks" : [
        {
          "range" : [0, 265],
          "type" : 0,
          "editRate" : 30,
          "trackRect" : [0, 0, 1920, 1080],
          "sampleRate" : 30,
          "bitDepth" : 0,
          "numChannels" : 0,
          "integratedLUFS" : 100.0,
          "peakLevel" : -1.0,
          "metaData" : "2b7b6a00-7a1f-11e2-83d0-0017f200be7f;2b7b6aef-7a1f-11e2-83d0-0017f200be7f;2b7b6af0-7a1f-11e2-83d0-0017f200be7f;2b7b6af1-7a1f-11e2-83d0-0017f200be7f;2b7b6af2-7a1f-11e2-83d0-0017f200be7f;2b7b6af3-7a1f-11e2-83d0-0017f200be7f;2b7b6af5-7a1f-11e2-83d0-0017f200be7f;2b7b6af6-7a1f-11e2-83d0-0017f200be7f;2b7b6af7-7a1f-11e2-83d0-0017f200be7f;2b7b6af8-7a1f-11e2-83d0-0017f200be7f;2b7b6af9-7a1f-11e2-83d0-0017f200be7f;2b7b6afa-7a1f-11e2-83d0-0017f200be7f;"
        },
        {
          "range" : [0, 386048],
          "type" : 2,
          "editRate" : 44100,
          "trackRect" : [0, 0, 0, 0],
          "sampleRate" : 44100,
          "bitDepth" : 16,
          "numChannels" : 2,
          "integratedLUFS" : 0.0,
          "peakLevel" : 0.0,
          "metaData" : ""
        }
      ]
    },
    {
      "id" : 11,
      "src" : "C:\\Users\\oneoffcoder\\git\\books\\sphinx\\scratch\\media\\scratch-2.11-motion-rotation-styles.trec",
      "rect" : [0, 0, 1920, 1080],
      "lastMod" : "20191112T154614",
      "sourceTracks" : [
        {
          "range" : [0, 490],
          "type" : 0,
          "editRate" : 30,
          "trackRect" : [0, 0, 1920, 1080],
          "sampleRate" : 30,
          "bitDepth" : 0,
          "numChannels" : 0,
          "integratedLUFS" : 100.0,
          "peakLevel" : -1.0,
          "metaData" : "2b7b6a00-7a1f-11e2-83d0-0017f200be7f;2b7b6aef-7a1f-11e2-83d0-0017f200be7f;2b7b6af0-7a1f-11e2-83d0-0017f200be7f;2b7b6af1-7a1f-11e2-83d0-0017f200be7f;2b7b6af2-7a1f-11e2-83d0-0017f200be7f;2b7b6af3-7a1f-11e2-83d0-0017f200be7f;2b7b6af5-7a1f-11e2-83d0-0017f200be7f;2b7b6af6-7a1f-11e2-83d0-0017f200be7f;2b7b6af7-7a1f-11e2-83d0-0017f200be7f;2b7b6af8-7a1f-11e2-83d0-0017f200be7f;2b7b6af9-7a1f-11e2-83d0-0017f200be7f;2b7b6afa-7a1f-11e2-83d0-0017f200be7f;"
        },
        {
          "range" : [0, 718848],
          "type" : 2,
          "editRate" : 44100,
          "trackRect" : [0, 0, 0, 0],
          "sampleRate" : 44100,
          "bitDepth" : 16,
          "numChannels" : 2,
          "integratedLUFS" : 0.0,
          "peakLevel" : 0.0,
          "metaData" : ""
        }
      ]
    },
    {
      "id" : 12,
      "src" : "C:\\Users\\oneoffcoder\\git\\books\\sphinx\\scratch\\media\\scratch-3.1-looks-saying-something.trec",
      "rect" : [0, 0, 1920, 1080],
      "lastMod" : "20191112T052906",
      "sourceTracks" : [
        {
          "range" : [0, 344],
          "type" : 0,
          "editRate" : 30,
          "trackRect" : [0, 0, 1920, 1080],
          "sampleRate" : 30,
          "bitDepth" : 0,
          "numChannels" : 0,
          "integratedLUFS" : 100.0,
          "peakLevel" : -1.0,
          "metaData" : "2b7b6a00-7a1f-11e2-83d0-0017f200be7f;2b7b6aef-7a1f-11e2-83d0-0017f200be7f;2b7b6af0-7a1f-11e2-83d0-0017f200be7f;2b7b6af1-7a1f-11e2-83d0-0017f200be7f;2b7b6af2-7a1f-11e2-83d0-0017f200be7f;2b7b6af3-7a1f-11e2-83d0-0017f200be7f;2b7b6af5-7a1f-11e2-83d0-0017f200be7f;2b7b6af6-7a1f-11e2-83d0-0017f200be7f;2b7b6af7-7a1f-11e2-83d0-0017f200be7f;2b7b6af8-7a1f-11e2-83d0-0017f200be7f;2b7b6af9-7a1f-11e2-83d0-0017f200be7f;2b7b6afa-7a1f-11e2-83d0-0017f200be7f;"
        },
        {
          "range" : [0, 503808],
          "type" : 2,
          "editRate" : 44100,
          "trackRect" : [0, 0, 0, 0],
          "sampleRate" : 44100,
          "bitDepth" : 16,
          "numChannels" : 2,
          "integratedLUFS" : 0.0,
          "peakLevel" : 0.0,
          "metaData" : ""
        }
      ]
    },
    {
      "id" : 13,
      "src" : "C:\\Users\\oneoffcoder\\git\\books\\sphinx\\scratch\\media\\scratch-3.2-looks-thinking-something.trec",
      "rect" : [0, 0, 1920, 1080],
      "lastMod" : "20191112T053312",
      "sourceTracks" : [
        {
          "range" : [0, 363],
          "type" : 0,
          "editRate" : 30,
          "trackRect" : [0, 0, 1920, 1080],
          "sampleRate" : 30,
          "bitDepth" : 0,
          "numChannels" : 0,
          "integratedLUFS" : 100.0,
          "peakLevel" : -1.0,
          "metaData" : "2b7b6a00-7a1f-11e2-83d0-0017f200be7f;2b7b6aef-7a1f-11e2-83d0-0017f200be7f;2b7b6af0-7a1f-11e2-83d0-0017f200be7f;2b7b6af1-7a1f-11e2-83d0-0017f200be7f;2b7b6af2-7a1f-11e2-83d0-0017f200be7f;2b7b6af3-7a1f-11e2-83d0-0017f200be7f;2b7b6af5-7a1f-11e2-83d0-0017f200be7f;2b7b6af6-7a1f-11e2-83d0-0017f200be7f;2b7b6af7-7a1f-11e2-83d0-0017f200be7f;2b7b6af8-7a1f-11e2-83d0-0017f200be7f;2b7b6af9-7a1f-11e2-83d0-0017f200be7f;2b7b6afa-7a1f-11e2-83d0-0017f200be7f;"
        },
        {
          "range" : [0, 528384],
          "type" : 2,
          "editRate" : 44100,
          "trackRect" : [0, 0, 0, 0],
          "sampleRate" : 44100,
          "bitDepth" : 16,
          "numChannels" : 2,
          "integratedLUFS" : 0.0,
          "peakLevel" : 0.0,
          "metaData" : ""
        }
      ]
    },
    {
      "id" : 14,
      "src" : "C:\\Users\\oneoffcoder\\git\\books\\sphinx\\scratch\\media\\scratch-3.3-looks-changing-costume.trec",
      "rect" : [0, 0, 1920, 1080],
      "lastMod" : "20191112T053504",
      "sourceTracks" : [
        {
          "range" : [0, 365],
          "type" : 0,
          "editRate" : 30,
          "trackRect" : [0, 0, 1920, 1080],
          "sampleRate" : 30,
          "bitDepth" : 0,
          "numChannels" : 0,
          "integratedLUFS" : 100.0,
          "peakLevel" : -1.0,
          "metaData" : "2b7b6a00-7a1f-11e2-83d0-0017f200be7f;2b7b6aef-7a1f-11e2-83d0-0017f200be7f;2b7b6af0-7a1f-11e2-83d0-0017f200be7f;2b7b6af1-7a1f-11e2-83d0-0017f200be7f;2b7b6af2-7a1f-11e2-83d0-0017f200be7f;2b7b6af3-7a1f-11e2-83d0-0017f200be7f;2b7b6af5-7a1f-11e2-83d0-0017f200be7f;2b7b6af6-7a1f-11e2-83d0-0017f200be7f;2b7b6af7-7a1f-11e2-83d0-0017f200be7f;2b7b6af8-7a1f-11e2-83d0-0017f200be7f;2b7b6af9-7a1f-11e2-83d0-0017f200be7f;2b7b6afa-7a1f-11e2-83d0-0017f200be7f;"
        },
        {
          "range" : [0, 536576],
          "type" : 2,
          "editRate" : 44100,
          "trackRect" : [0, 0, 0, 0],
          "sampleRate" : 44100,
          "bitDepth" : 16,
          "numChannels" : 2,
          "integratedLUFS" : 0.0,
          "peakLevel" : 0.0,
          "metaData" : ""
        }
      ]
    },
    {
      "id" : 15,
      "src" : "C:\\Users\\oneoffcoder\\git\\books\\sphinx\\scratch\\media\\scratch-3.4-looks-changing-backdrop.trec",
      "rect" : [0, 0, 1920, 1080],
      "lastMod" : "20191112T163453",
      "sourceTracks" : [
        {
          "range" : [0, 226],
          "type" : 0,
          "editRate" : 30,
          "trackRect" : [0, 0, 1920, 1080],
          "sampleRate" : 30,
          "bitDepth" : 0,
          "numChannels" : 0,
          "integratedLUFS" : 100.0,
          "peakLevel" : -1.0,
          "metaData" : "2b7b6a00-7a1f-11e2-83d0-0017f200be7f;2b7b6aef-7a1f-11e2-83d0-0017f200be7f;2b7b6af0-7a1f-11e2-83d0-0017f200be7f;2b7b6af1-7a1f-11e2-83d0-0017f200be7f;2b7b6af2-7a1f-11e2-83d0-0017f200be7f;2b7b6af3-7a1f-11e2-83d0-0017f200be7f;2b7b6af5-7a1f-11e2-83d0-0017f200be7f;2b7b6af6-7a1f-11e2-83d0-0017f200be7f;2b7b6af7-7a1f-11e2-83d0-0017f200be7f;2b7b6af8-7a1f-11e2-83d0-0017f200be7f;2b7b6af9-7a1f-11e2-83d0-0017f200be7f;2b7b6afa-7a1f-11e2-83d0-0017f200be7f;"
        },
        {
          "range" : [0, 329728],
          "type" : 2,
          "editRate" : 44100,
          "trackRect" : [0, 0, 0, 0],
          "sampleRate" : 44100,
          "bitDepth" : 16,
          "numChannels" : 2,
          "integratedLUFS" : 0.0,
          "peakLevel" : 0.0,
          "metaData" : ""
        }
      ]
    },
    {
      "id" : 16,
      "src" : "C:\\Users\\oneoffcoder\\git\\books\\sphinx\\scratch\\media\\scratch-3.5-looks-changing-size.trec",
      "rect" : [0, 0, 1920, 1080],
      "lastMod" : "20191112T164125",
      "sourceTracks" : [
        {
          "range" : [0, 340],
          "type" : 0,
          "editRate" : 30,
          "trackRect" : [0, 0, 1920, 1080],
          "sampleRate" : 30,
          "bitDepth" : 0,
          "numChannels" : 0,
          "integratedLUFS" : 100.0,
          "peakLevel" : -1.0,
          "metaData" : "2b7b6a00-7a1f-11e2-83d0-0017f200be7f;2b7b6aef-7a1f-11e2-83d0-0017f200be7f;2b7b6af0-7a1f-11e2-83d0-0017f200be7f;2b7b6af1-7a1f-11e2-83d0-0017f200be7f;2b7b6af2-7a1f-11e2-83d0-0017f200be7f;2b7b6af3-7a1f-11e2-83d0-0017f200be7f;2b7b6af5-7a1f-11e2-83d0-0017f200be7f;2b7b6af6-7a1f-11e2-83d0-0017f200be7f;2b7b6af7-7a1f-11e2-83d0-0017f200be7f;2b7b6af8-7a1f-11e2-83d0-0017f200be7f;2b7b6af9-7a1f-11e2-83d0-0017f200be7f;2b7b6afa-7a1f-11e2-83d0-0017f200be7f;"
        },
        {
          "range" : [0, 499712],
          "type" : 2,
          "editRate" : 44100,
          "trackRect" : [0, 0, 0, 0],
          "sampleRate" : 44100,
          "bitDepth" : 16,
          "numChannels" : 2,
          "integratedLUFS" : 0.0,
          "peakLevel" : 0.0,
          "metaData" : ""
        }
      ]
    },
    {
      "id" : 17,
      "src" : "C:\\Users\\oneoffcoder\\git\\books\\sphinx\\scratch\\media\\scratch-3.6-looks-changing-color.trec",
      "rect" : [0, 0, 1920, 1080],
      "lastMod" : "20191112T164725",
      "sourceTracks" : [
        {
          "range" : [0, 394],
          "type" : 0,
          "editRate" : 30,
          "trackRect" : [0, 0, 1920, 1080],
          "sampleRate" : 30,
          "bitDepth" : 0,
          "numChannels" : 0,
          "integratedLUFS" : 100.0,
          "peakLevel" : -1.0,
          "metaData" : "2b7b6a00-7a1f-11e2-83d0-0017f200be7f;2b7b6aef-7a1f-11e2-83d0-0017f200be7f;2b7b6af0-7a1f-11e2-83d0-0017f200be7f;2b7b6af1-7a1f-11e2-83d0-0017f200be7f;2b7b6af2-7a1f-11e2-83d0-0017f200be7f;2b7b6af3-7a1f-11e2-83d0-0017f200be7f;2b7b6af5-7a1f-11e2-83d0-0017f200be7f;2b7b6af6-7a1f-11e2-83d0-0017f200be7f;2b7b6af7-7a1f-11e2-83d0-0017f200be7f;2b7b6af8-7a1f-11e2-83d0-0017f200be7f;2b7b6af9-7a1f-11e2-83d0-0017f200be7f;2b7b6afa-7a1f-11e2-83d0-0017f200be7f;"
        },
        {
          "range" : [0, 580608],
          "type" : 2,
          "editRate" : 44100,
          "trackRect" : [0, 0, 0, 0],
          "sampleRate" : 44100,
          "bitDepth" : 16,
          "numChannels" : 2,
          "integratedLUFS" : 0.0,
          "peakLevel" : 0.0,
          "metaData" : ""
        }
      ]
    },
    {
      "id" : 18,
      "src" : "C:\\Users\\oneoffcoder\\git\\books\\sphinx\\scratch\\media\\scratch-3.7-looks-showing-and-hiding.trec",
      "rect" : [0, 0, 1920, 1080],
      "lastMod" : "20191112T174148",
      "sourceTracks" : [
        {
          "range" : [0, 303],
          "type" : 0,
          "editRate" : 30,
          "trackRect" : [0, 0, 1920, 1080],
          "sampleRate" : 30,
          "bitDepth" : 0,
          "numChannels" : 0,
          "integratedLUFS" : 100.0,
          "peakLevel" : -1.0,
          "metaData" : "2b7b6a00-7a1f-11e2-83d0-0017f200be7f;2b7b6aef-7a1f-11e2-83d0-0017f200be7f;2b7b6af0-7a1f-11e2-83d0-0017f200be7f;2b7b6af1-7a1f-11e2-83d0-0017f200be7f;2b7b6af2-7a1f-11e2-83d0-0017f200be7f;2b7b6af3-7a1f-11e2-83d0-0017f200be7f;2b7b6af5-7a1f-11e2-83d0-0017f200be7f;2b7b6af6-7a1f-11e2-83d0-0017f200be7f;2b7b6af7-7a1f-11e2-83d0-0017f200be7f;2b7b6af8-7a1f-11e2-83d0-0017f200be7f;2b7b6af9-7a1f-11e2-83d0-0017f200be7f;2b7b6afa-7a1f-11e2-83d0-0017f200be7f;"
        },
        {
          "range" : [0, 447488],
          "type" : 2,
          "editRate" : 44100,
          "trackRect" : [0, 0, 0, 0],
          "sampleRate" : 44100,
          "bitDepth" : 16,
          "numChannels" : 2,
          "integratedLUFS" : 0.0,
          "peakLevel" : 0.0,
          "metaData" : ""
        }
      ]
    },
    {
      "id" : 19,
      "src" : "C:\\Users\\oneoffcoder\\git\\books\\sphinx\\scratch\\media\\scratch-3.8-looks-layers.trec",
      "rect" : [0, 0, 1920, 1080],
      "lastMod" : "20191112T180503",
      "sourceTracks" : [
        {
          "range" : [0, 231],
          "type" : 0,
          "editRate" : 30,
          "trackRect" : [0, 0, 1920, 1080],
          "sampleRate" : 30,
          "bitDepth" : 0,
          "numChannels" : 0,
          "integratedLUFS" : 100.0,
          "peakLevel" : -1.0,
          "metaData" : "2b7b6a00-7a1f-11e2-83d0-0017f200be7f;2b7b6aef-7a1f-11e2-83d0-0017f200be7f;2b7b6af0-7a1f-11e2-83d0-0017f200be7f;2b7b6af1-7a1f-11e2-83d0-0017f200be7f;2b7b6af2-7a1f-11e2-83d0-0017f200be7f;2b7b6af3-7a1f-11e2-83d0-0017f200be7f;2b7b6af5-7a1f-11e2-83d0-0017f200be7f;2b7b6af6-7a1f-11e2-83d0-0017f200be7f;2b7b6af7-7a1f-11e2-83d0-0017f200be7f;2b7b6af8-7a1f-11e2-83d0-0017f200be7f;2b7b6af9-7a1f-11e2-83d0-0017f200be7f;2b7b6afa-7a1f-11e2-83d0-0017f200be7f;"
        },
        {
          "range" : [0, 337920],
          "type" : 2,
          "editRate" : 44100,
          "trackRect" : [0, 0, 0, 0],
          "sampleRate" : 44100,
          "bitDepth" : 16,
          "numChannels" : 2,
          "integratedLUFS" : 0.0,
          "peakLevel" : 0.0,
          "metaData" : ""
        }
      ]
    },
    {
      "id" : 20,
      "src" : "C:\\Users\\oneoffcoder\\git\\books\\sphinx\\scratch\\media\\scratch-4.1-sound-playing-sound.trec",
      "rect" : [0, 0, 1920, 1080],
      "lastMod" : "20191113T014441",
      "sourceTracks" : [
        {
          "range" : [0, 297],
          "type" : 0,
          "editRate" : 30,
          "trackRect" : [0, 0, 1920, 1080],
          "sampleRate" : 29,
          "bitDepth" : 0,
          "numChannels" : 0,
          "integratedLUFS" : 100.0,
          "peakLevel" : -1.0,
          "metaData" : "2b7b6a00-7a1f-11e2-83d0-0017f200be7f;2b7b6aef-7a1f-11e2-83d0-0017f200be7f;2b7b6af0-7a1f-11e2-83d0-0017f200be7f;2b7b6af1-7a1f-11e2-83d0-0017f200be7f;2b7b6af2-7a1f-11e2-83d0-0017f200be7f;2b7b6af3-7a1f-11e2-83d0-0017f200be7f;2b7b6af5-7a1f-11e2-83d0-0017f200be7f;2b7b6af6-7a1f-11e2-83d0-0017f200be7f;2b7b6af7-7a1f-11e2-83d0-0017f200be7f;2b7b6af8-7a1f-11e2-83d0-0017f200be7f;2b7b6af9-7a1f-11e2-83d0-0017f200be7f;2b7b6afa-7a1f-11e2-83d0-0017f200be7f;"
        },
        {
          "range" : [0, 435200],
          "type" : 2,
          "editRate" : 44100,
          "trackRect" : [0, 0, 0, 0],
          "sampleRate" : 44100,
          "bitDepth" : 16,
          "numChannels" : 2,
          "integratedLUFS" : -16.2105984836609,
          "peakLevel" : 0.885772705078125,
          "metaData" : ""
        }
      ]
    },
    {
      "id" : 21,
      "src" : "C:\\Users\\oneoffcoder\\git\\books\\sphinx\\scratch\\media\\scratch-4.2-sound-changing-pitch-and-pan-effects.trec",
      "rect" : [0, 0, 1920, 1080],
      "lastMod" : "20191113T014441",
      "sourceTracks" : [
        {
          "range" : [0, 436],
          "type" : 0,
          "editRate" : 30,
          "trackRect" : [0, 0, 1920, 1080],
          "sampleRate" : 29,
          "bitDepth" : 0,
          "numChannels" : 0,
          "integratedLUFS" : 100.0,
          "peakLevel" : -1.0,
          "metaData" : "2b7b6a00-7a1f-11e2-83d0-0017f200be7f;2b7b6aef-7a1f-11e2-83d0-0017f200be7f;2b7b6af0-7a1f-11e2-83d0-0017f200be7f;2b7b6af1-7a1f-11e2-83d0-0017f200be7f;2b7b6af2-7a1f-11e2-83d0-0017f200be7f;2b7b6af3-7a1f-11e2-83d0-0017f200be7f;2b7b6af5-7a1f-11e2-83d0-0017f200be7f;2b7b6af6-7a1f-11e2-83d0-0017f200be7f;2b7b6af7-7a1f-11e2-83d0-0017f200be7f;2b7b6af8-7a1f-11e2-83d0-0017f200be7f;2b7b6af9-7a1f-11e2-83d0-0017f200be7f;2b7b6afa-7a1f-11e2-83d0-0017f200be7f;"
        },
        {
          "range" : [0, 642048],
          "type" : 2,
          "editRate" : 44100,
          "trackRect" : [0, 0, 0, 0],
          "sampleRate" : 44100,
          "bitDepth" : 16,
          "numChannels" : 2,
          "integratedLUFS" : -19.1532083726234,
          "peakLevel" : 0.862762451171875,
          "metaData" : ""
        }
      ]
    },
    {
      "id" : 22,
      "src" : "C:\\Users\\oneoffcoder\\git\\books\\sphinx\\scratch\\media\\scratch-4.3-sound-changing-volume.trec",
      "rect" : [0, 0, 1920, 1080],
      "lastMod" : "20191113T014441",
      "sourceTracks" : [
        {
          "range" : [0, 537],
          "type" : 0,
          "editRate" : 30,
          "trackRect" : [0, 0, 1920, 1080],
          "sampleRate" : 29,
          "bitDepth" : 0,
          "numChannels" : 0,
          "integratedLUFS" : 100.0,
          "peakLevel" : -1.0,
          "metaData" : "2b7b6a00-7a1f-11e2-83d0-0017f200be7f;2b7b6aef-7a1f-11e2-83d0-0017f200be7f;2b7b6af0-7a1f-11e2-83d0-0017f200be7f;2b7b6af1-7a1f-11e2-83d0-0017f200be7f;2b7b6af2-7a1f-11e2-83d0-0017f200be7f;2b7b6af3-7a1f-11e2-83d0-0017f200be7f;2b7b6af5-7a1f-11e2-83d0-0017f200be7f;2b7b6af6-7a1f-11e2-83d0-0017f200be7f;2b7b6af7-7a1f-11e2-83d0-0017f200be7f;2b7b6af8-7a1f-11e2-83d0-0017f200be7f;2b7b6af9-7a1f-11e2-83d0-0017f200be7f;2b7b6afa-7a1f-11e2-83d0-0017f200be7f;"
        },
        {
          "range" : [0, 787456],
          "type" : 2,
          "editRate" : 44100,
          "trackRect" : [0, 0, 0, 0],
          "sampleRate" : 44100,
          "bitDepth" : 16,
          "numChannels" : 2,
          "integratedLUFS" : -15.538619704582,
          "peakLevel" : 0.887786865234375,
          "metaData" : ""
        }
      ]
    },
    {
      "id" : 23,
      "src" : "C:\\Users\\oneoffcoder\\git\\books\\sphinx\\scratch\\media\\scratch-5.1-events-when-start-is-clicked-green-flag.trec",
      "rect" : [0, 0, 1920, 1080],
      "lastMod" : "20191112T183655",
      "sourceTracks" : [
        {
          "range" : [0, 346],
          "type" : 0,
          "editRate" : 30,
          "trackRect" : [0, 0, 1920, 1080],
          "sampleRate" : 30,
          "bitDepth" : 0,
          "numChannels" : 0,
          "integratedLUFS" : 100.0,
          "peakLevel" : -1.0,
          "metaData" : "2b7b6a00-7a1f-11e2-83d0-0017f200be7f;2b7b6aef-7a1f-11e2-83d0-0017f200be7f;2b7b6af0-7a1f-11e2-83d0-0017f200be7f;2b7b6af1-7a1f-11e2-83d0-0017f200be7f;2b7b6af2-7a1f-11e2-83d0-0017f200be7f;2b7b6af3-7a1f-11e2-83d0-0017f200be7f;2b7b6af5-7a1f-11e2-83d0-0017f200be7f;2b7b6af6-7a1f-11e2-83d0-0017f200be7f;2b7b6af7-7a1f-11e2-83d0-0017f200be7f;2b7b6af8-7a1f-11e2-83d0-0017f200be7f;2b7b6af9-7a1f-11e2-83d0-0017f200be7f;2b7b6afa-7a1f-11e2-83d0-0017f200be7f;"
        },
        {
          "range" : [0, 507904],
          "type" : 2,
          "editRate" : 44100,
          "trackRect" : [0, 0, 0, 0],
          "sampleRate" : 44100,
          "bitDepth" : 16,
          "numChannels" : 2,
          "integratedLUFS" : 0.0,
          "peakLevel" : 0.0,
          "metaData" : ""
        }
      ]
    },
    {
      "id" : 24,
      "src" : "C:\\Users\\oneoffcoder\\git\\books\\sphinx\\scratch\\media\\scratch-5.2-events-when-a-key-is-clicked.trec",
      "rect" : [0, 0, 1920, 1080],
      "lastMod" : "20191112T185203",
      "sourceTracks" : [
        {
          "range" : [0, 341],
          "type" : 0,
          "editRate" : 30,
          "trackRect" : [0, 0, 1920, 1080],
          "sampleRate" : 29,
          "bitDepth" : 0,
          "numChannels" : 0,
          "integratedLUFS" : 100.0,
          "peakLevel" : -1.0,
          "metaData" : "2b7b6a00-7a1f-11e2-83d0-0017f200be7f;2b7b6aef-7a1f-11e2-83d0-0017f200be7f;2b7b6af0-7a1f-11e2-83d0-0017f200be7f;2b7b6af1-7a1f-11e2-83d0-0017f200be7f;2b7b6af2-7a1f-11e2-83d0-0017f200be7f;2b7b6af3-7a1f-11e2-83d0-0017f200be7f;2b7b6af5-7a1f-11e2-83d0-0017f200be7f;2b7b6af6-7a1f-11e2-83d0-0017f200be7f;2b7b6af7-7a1f-11e2-83d0-0017f200be7f;2b7b6af8-7a1f-11e2-83d0-0017f200be7f;2b7b6af9-7a1f-11e2-83d0-0017f200be7f;2b7b6afa-7a1f-11e2-83d0-0017f200be7f;"
        },
        {
          "range" : [0, 499712],
          "type" : 2,
          "editRate" : 44100,
          "trackRect" : [0, 0, 0, 0],
          "sampleRate" : 44100,
          "bitDepth" : 16,
          "numChannels" : 2,
          "integratedLUFS" : 0.0,
          "peakLevel" : 0.0,
          "metaData" : ""
        }
      ]
    },
    {
      "id" : 25,
      "src" : "C:\\Users\\oneoffcoder\\git\\books\\sphinx\\scratch\\media\\scratch-5.3-when-sprite-is-clicked.trec",
      "rect" : [0, 0, 1920, 1080],
      "lastMod" : "20191112T185632",
      "sourceTracks" : [
        {
          "range" : [0, 180],
          "type" : 0,
          "editRate" : 30,
          "trackRect" : [0, 0, 1920, 1080],
          "sampleRate" : 30,
          "bitDepth" : 0,
          "numChannels" : 0,
          "integratedLUFS" : 100.0,
          "peakLevel" : -1.0,
          "metaData" : "2b7b6a00-7a1f-11e2-83d0-0017f200be7f;2b7b6aef-7a1f-11e2-83d0-0017f200be7f;2b7b6af0-7a1f-11e2-83d0-0017f200be7f;2b7b6af1-7a1f-11e2-83d0-0017f200be7f;2b7b6af2-7a1f-11e2-83d0-0017f200be7f;2b7b6af3-7a1f-11e2-83d0-0017f200be7f;2b7b6af5-7a1f-11e2-83d0-0017f200be7f;2b7b6af6-7a1f-11e2-83d0-0017f200be7f;2b7b6af7-7a1f-11e2-83d0-0017f200be7f;2b7b6af8-7a1f-11e2-83d0-0017f200be7f;2b7b6af9-7a1f-11e2-83d0-0017f200be7f;2b7b6afa-7a1f-11e2-83d0-0017f200be7f;"
        },
        {
          "range" : [0, 261120],
          "type" : 2,
          "editRate" : 44100,
          "trackRect" : [0, 0, 0, 0],
          "sampleRate" : 44100,
          "bitDepth" : 16,
          "numChannels" : 2,
          "integratedLUFS" : 0.0,
          "peakLevel" : 0.0,
          "metaData" : ""
        }
      ]
    },
    {
      "id" : 26,
      "src" : "C:\\Users\\oneoffcoder\\git\\books\\sphinx\\scratch\\media\\scratch-5.4-events-when-backdrop-switches.trec",
      "rect" : [0, 0, 1920, 1080],
      "lastMod" : "20191113T020841",
      "sourceTracks" : [
        {
          "range" : [0, 218],
          "type" : 0,
          "editRate" : 30,
          "trackRect" : [0, 0, 1920, 1080],
          "sampleRate" : 30,
          "bitDepth" : 0,
          "numChannels" : 0,
          "integratedLUFS" : 100.0,
          "peakLevel" : -1.0,
          "metaData" : "2b7b6a00-7a1f-11e2-83d0-0017f200be7f;2b7b6aef-7a1f-11e2-83d0-0017f200be7f;2b7b6af0-7a1f-11e2-83d0-0017f200be7f;2b7b6af1-7a1f-11e2-83d0-0017f200be7f;2b7b6af2-7a1f-11e2-83d0-0017f200be7f;2b7b6af3-7a1f-11e2-83d0-0017f200be7f;2b7b6af5-7a1f-11e2-83d0-0017f200be7f;2b7b6af6-7a1f-11e2-83d0-0017f200be7f;2b7b6af7-7a1f-11e2-83d0-0017f200be7f;2b7b6af8-7a1f-11e2-83d0-0017f200be7f;2b7b6af9-7a1f-11e2-83d0-0017f200be7f;2b7b6afa-7a1f-11e2-83d0-0017f200be7f;"
        },
        {
          "range" : [0, 317440],
          "type" : 2,
          "editRate" : 44100,
          "trackRect" : [0, 0, 0, 0],
          "sampleRate" : 44100,
          "bitDepth" : 16,
          "numChannels" : 2,
          "integratedLUFS" : -17.5466582170427,
          "peakLevel" : 0.999969482421875,
          "metaData" : ""
        }
      ]
    },
    {
      "id" : 27,
      "src" : "C:\\Users\\oneoffcoder\\git\\books\\sphinx\\scratch\\media\\scratch-5.5-events-when-loudness-exceeds.trec",
      "rect" : [0, 0, 1920, 1080],
      "lastMod" : "20191113T021412",
      "sourceTracks" : [
        {
          "range" : [0, 285],
          "type" : 0,
          "editRate" : 30,
          "trackRect" : [0, 0, 1920, 1080],
          "sampleRate" : 30,
          "bitDepth" : 0,
          "numChannels" : 0,
          "integratedLUFS" : 100.0,
          "peakLevel" : -1.0,
          "metaData" : "2b7b6a00-7a1f-11e2-83d0-0017f200be7f;2b7b6aef-7a1f-11e2-83d0-0017f200be7f;2b7b6af0-7a1f-11e2-83d0-0017f200be7f;2b7b6af1-7a1f-11e2-83d0-0017f200be7f;2b7b6af2-7a1f-11e2-83d0-0017f200be7f;2b7b6af3-7a1f-11e2-83d0-0017f200be7f;2b7b6af5-7a1f-11e2-83d0-0017f200be7f;2b7b6af6-7a1f-11e2-83d0-0017f200be7f;2b7b6af7-7a1f-11e2-83d0-0017f200be7f;2b7b6af8-7a1f-11e2-83d0-0017f200be7f;2b7b6af9-7a1f-11e2-83d0-0017f200be7f;2b7b6afa-7a1f-11e2-83d0-0017f200be7f;"
        },
        {
          "range" : [0, 414720],
          "type" : 2,
          "editRate" : 44100,
          "trackRect" : [0, 0, 0, 0],
          "sampleRate" : 44100,
          "bitDepth" : 16,
          "numChannels" : 2,
          "integratedLUFS" : 0.0,
          "peakLevel" : 0.0,
          "metaData" : ""
        }
      ]
    },
    {
      "id" : 28,
      "src" : "C:\\Users\\oneoffcoder\\git\\books\\sphinx\\scratch\\media\\scratch-5.6-events-when-timer-exceeds.trec",
      "rect" : [0, 0, 1920, 1080],
      "lastMod" : "20191113T021951",
      "sourceTracks" : [
        {
          "range" : [0, 472],
          "type" : 0,
          "editRate" : 30,
          "trackRect" : [0, 0, 1920, 1080],
          "sampleRate" : 30,
          "bitDepth" : 0,
          "numChannels" : 0,
          "integratedLUFS" : 100.0,
          "peakLevel" : -1.0,
          "metaData" : "2b7b6a00-7a1f-11e2-83d0-0017f200be7f;2b7b6aef-7a1f-11e2-83d0-0017f200be7f;2b7b6af0-7a1f-11e2-83d0-0017f200be7f;2b7b6af1-7a1f-11e2-83d0-0017f200be7f;2b7b6af2-7a1f-11e2-83d0-0017f200be7f;2b7b6af3-7a1f-11e2-83d0-0017f200be7f;2b7b6af5-7a1f-11e2-83d0-0017f200be7f;2b7b6af6-7a1f-11e2-83d0-0017f200be7f;2b7b6af7-7a1f-11e2-83d0-0017f200be7f;2b7b6af8-7a1f-11e2-83d0-0017f200be7f;2b7b6af9-7a1f-11e2-83d0-0017f200be7f;2b7b6afa-7a1f-11e2-83d0-0017f200be7f;"
        },
        {
          "range" : [0, 690176],
          "type" : 2,
          "editRate" : 44100,
          "trackRect" : [0, 0, 0, 0],
          "sampleRate" : 44100,
          "bitDepth" : 16,
          "numChannels" : 2,
          "integratedLUFS" : 0.0,
          "peakLevel" : 0.0,
          "metaData" : ""
        }
      ]
    },
    {
      "id" : 29,
      "src" : "C:\\Users\\oneoffcoder\\git\\books\\sphinx\\scratch\\media\\scratch-5.7-events-when-message-received.trec",
      "rect" : [0, 0, 1920, 1080],
      "lastMod" : "20191113T022855",
      "sourceTracks" : [
        {
          "range" : [0, 247],
          "type" : 0,
          "editRate" : 30,
          "trackRect" : [0, 0, 1920, 1080],
          "sampleRate" : 30,
          "bitDepth" : 0,
          "numChannels" : 0,
          "integratedLUFS" : 100.0,
          "peakLevel" : -1.0,
          "metaData" : "2b7b6a00-7a1f-11e2-83d0-0017f200be7f;2b7b6aef-7a1f-11e2-83d0-0017f200be7f;2b7b6af0-7a1f-11e2-83d0-0017f200be7f;2b7b6af1-7a1f-11e2-83d0-0017f200be7f;2b7b6af2-7a1f-11e2-83d0-0017f200be7f;2b7b6af3-7a1f-11e2-83d0-0017f200be7f;2b7b6af5-7a1f-11e2-83d0-0017f200be7f;2b7b6af6-7a1f-11e2-83d0-0017f200be7f;2b7b6af7-7a1f-11e2-83d0-0017f200be7f;2b7b6af8-7a1f-11e2-83d0-0017f200be7f;2b7b6af9-7a1f-11e2-83d0-0017f200be7f;2b7b6afa-7a1f-11e2-83d0-0017f200be7f;"
        },
        {
          "range" : [0, 362496],
          "type" : 2,
          "editRate" : 44100,
          "trackRect" : [0, 0, 0, 0],
          "sampleRate" : 44100,
          "bitDepth" : 16,
          "numChannels" : 2,
          "integratedLUFS" : 0.0,
          "peakLevel" : 0.0,
          "metaData" : ""
        }
      ]
    },
    {
      "id" : 30,
      "src" : "C:\\Users\\oneoffcoder\\git\\books\\sphinx\\scratch\\media\\scratch-6.1-control-waiting.trec",
      "rect" : [0, 0, 1920, 1080],
      "lastMod" : "20191113T024022",
      "sourceTracks" : [
        {
          "range" : [0, 326],
          "type" : 0,
          "editRate" : 30,
          "trackRect" : [0, 0, 1920, 1080],
          "sampleRate" : 30,
          "bitDepth" : 0,
          "numChannels" : 0,
          "integratedLUFS" : 100.0,
          "peakLevel" : -1.0,
          "metaData" : "2b7b6a00-7a1f-11e2-83d0-0017f200be7f;2b7b6aef-7a1f-11e2-83d0-0017f200be7f;2b7b6af0-7a1f-11e2-83d0-0017f200be7f;2b7b6af1-7a1f-11e2-83d0-0017f200be7f;2b7b6af2-7a1f-11e2-83d0-0017f200be7f;2b7b6af3-7a1f-11e2-83d0-0017f200be7f;2b7b6af5-7a1f-11e2-83d0-0017f200be7f;2b7b6af6-7a1f-11e2-83d0-0017f200be7f;2b7b6af7-7a1f-11e2-83d0-0017f200be7f;2b7b6af8-7a1f-11e2-83d0-0017f200be7f;2b7b6af9-7a1f-11e2-83d0-0017f200be7f;2b7b6afa-7a1f-11e2-83d0-0017f200be7f;"
        },
        {
          "range" : [0, 475136],
          "type" : 2,
          "editRate" : 44100,
          "trackRect" : [0, 0, 0, 0],
          "sampleRate" : 44100,
          "bitDepth" : 16,
          "numChannels" : 2,
          "integratedLUFS" : 0.0,
          "peakLevel" : 0.0,
          "metaData" : ""
        }
      ]
    },
    {
      "id" : 31,
      "src" : "C:\\Users\\oneoffcoder\\git\\books\\sphinx\\scratch\\media\\scratch-6.2-control-loops.trec",
      "rect" : [0, 0, 1920, 1080],
      "lastMod" : "20191113T024550",
      "sourceTracks" : [
        {
          "range" : [0, 725],
          "type" : 0,
          "editRate" : 30,
          "trackRect" : [0, 0, 1920, 1080],
          "sampleRate" : 30,
          "bitDepth" : 0,
          "numChannels" : 0,
          "integratedLUFS" : 100.0,
          "peakLevel" : -1.0,
          "metaData" : "2b7b6a00-7a1f-11e2-83d0-0017f200be7f;2b7b6aef-7a1f-11e2-83d0-0017f200be7f;2b7b6af0-7a1f-11e2-83d0-0017f200be7f;2b7b6af1-7a1f-11e2-83d0-0017f200be7f;2b7b6af2-7a1f-11e2-83d0-0017f200be7f;2b7b6af3-7a1f-11e2-83d0-0017f200be7f;2b7b6af5-7a1f-11e2-83d0-0017f200be7f;2b7b6af6-7a1f-11e2-83d0-0017f200be7f;2b7b6af7-7a1f-11e2-83d0-0017f200be7f;2b7b6af8-7a1f-11e2-83d0-0017f200be7f;2b7b6af9-7a1f-11e2-83d0-0017f200be7f;2b7b6afa-7a1f-11e2-83d0-0017f200be7f;"
        },
        {
          "range" : [0, 1062912],
          "type" : 2,
          "editRate" : 44100,
          "trackRect" : [0, 0, 0, 0],
          "sampleRate" : 44100,
          "bitDepth" : 16,
          "numChannels" : 2,
          "integratedLUFS" : 0.0,
          "peakLevel" : 0.0,
          "metaData" : ""
        }
      ]
    },
    {
      "id" : 32,
      "src" : "C:\\Users\\oneoffcoder\\git\\books\\sphinx\\scratch\\media\\scratch-6.3-control-conditionals.trec",
      "rect" : [0, 0, 1920, 1080],
      "lastMod" : "20191113T023228",
      "sourceTracks" : [
        {
          "range" : [0, 776],
          "type" : 0,
          "editRate" : 30,
          "trackRect" : [0, 0, 1920, 1080],
          "sampleRate" : 30,
          "bitDepth" : 0,
          "numChannels" : 0,
          "integratedLUFS" : 100.0,
          "peakLevel" : -1.0,
          "metaData" : "2b7b6a00-7a1f-11e2-83d0-0017f200be7f;2b7b6aef-7a1f-11e2-83d0-0017f200be7f;2b7b6af0-7a1f-11e2-83d0-0017f200be7f;2b7b6af1-7a1f-11e2-83d0-0017f200be7f;2b7b6af2-7a1f-11e2-83d0-0017f200be7f;2b7b6af3-7a1f-11e2-83d0-0017f200be7f;2b7b6af5-7a1f-11e2-83d0-0017f200be7f;2b7b6af6-7a1f-11e2-83d0-0017f200be7f;2b7b6af7-7a1f-11e2-83d0-0017f200be7f;2b7b6af8-7a1f-11e2-83d0-0017f200be7f;2b7b6af9-7a1f-11e2-83d0-0017f200be7f;2b7b6afa-7a1f-11e2-83d0-0017f200be7f;"
        },
        {
          "range" : [0, 1139712],
          "type" : 2,
          "editRate" : 44100,
          "trackRect" : [0, 0, 0, 0],
          "sampleRate" : 44100,
          "bitDepth" : 16,
          "numChannels" : 2,
          "integratedLUFS" : 0.0,
          "peakLevel" : 0.0,
          "metaData" : ""
        }
      ]
    },
    {
      "id" : 33,
      "src" : "C:\\Users\\oneoffcoder\\git\\books\\sphinx\\scratch\\media\\scratch-7.1-sensing-touching.trec",
      "rect" : [0, 0, 1920, 1080],
      "lastMod" : "20191113T025328",
      "sourceTracks" : [
        {
          "range" : [0, 409],
          "type" : 0,
          "editRate" : 30,
          "trackRect" : [0, 0, 1920, 1080],
          "sampleRate" : 30,
          "bitDepth" : 0,
          "numChannels" : 0,
          "integratedLUFS" : 100.0,
          "peakLevel" : -1.0,
          "metaData" : "2b7b6a00-7a1f-11e2-83d0-0017f200be7f;2b7b6aef-7a1f-11e2-83d0-0017f200be7f;2b7b6af0-7a1f-11e2-83d0-0017f200be7f;2b7b6af1-7a1f-11e2-83d0-0017f200be7f;2b7b6af2-7a1f-11e2-83d0-0017f200be7f;2b7b6af3-7a1f-11e2-83d0-0017f200be7f;2b7b6af5-7a1f-11e2-83d0-0017f200be7f;2b7b6af6-7a1f-11e2-83d0-0017f200be7f;2b7b6af7-7a1f-11e2-83d0-0017f200be7f;2b7b6af8-7a1f-11e2-83d0-0017f200be7f;2b7b6af9-7a1f-11e2-83d0-0017f200be7f;2b7b6afa-7a1f-11e2-83d0-0017f200be7f;"
        },
        {
          "range" : [0, 596992],
          "type" : 2,
          "editRate" : 44100,
          "trackRect" : [0, 0, 0, 0],
          "sampleRate" : 44100,
          "bitDepth" : 16,
          "numChannels" : 2,
          "integratedLUFS" : 0.0,
          "peakLevel" : 0.0,
          "metaData" : ""
        }
      ]
    },
    {
      "id" : 34,
      "src" : "C:\\Users\\oneoffcoder\\git\\books\\sphinx\\scratch\\media\\scratch-7.2-sensing-distance.trec",
      "rect" : [0, 0, 1920, 1080],
      "lastMod" : "20191113T025801",
      "sourceTracks" : [
        {
          "range" : [0, 631],
          "type" : 0,
          "editRate" : 30,
          "trackRect" : [0, 0, 1920, 1080],
          "sampleRate" : 30,
          "bitDepth" : 0,
          "numChannels" : 0,
          "integratedLUFS" : 100.0,
          "peakLevel" : -1.0,
          "metaData" : "2b7b6a00-7a1f-11e2-83d0-0017f200be7f;2b7b6aef-7a1f-11e2-83d0-0017f200be7f;2b7b6af0-7a1f-11e2-83d0-0017f200be7f;2b7b6af1-7a1f-11e2-83d0-0017f200be7f;2b7b6af2-7a1f-11e2-83d0-0017f200be7f;2b7b6af3-7a1f-11e2-83d0-0017f200be7f;2b7b6af5-7a1f-11e2-83d0-0017f200be7f;2b7b6af6-7a1f-11e2-83d0-0017f200be7f;2b7b6af7-7a1f-11e2-83d0-0017f200be7f;2b7b6af8-7a1f-11e2-83d0-0017f200be7f;2b7b6af9-7a1f-11e2-83d0-0017f200be7f;2b7b6afa-7a1f-11e2-83d0-0017f200be7f;"
        },
        {
          "range" : [0, 929792],
          "type" : 2,
          "editRate" : 44100,
          "trackRect" : [0, 0, 0, 0],
          "sampleRate" : 44100,
          "bitDepth" : 16,
          "numChannels" : 2,
          "integratedLUFS" : 0.0,
          "peakLevel" : 0.0,
          "metaData" : ""
        }
      ]
    },
    {
      "id" : 35,
      "src" : "C:\\Users\\oneoffcoder\\git\\books\\sphinx\\scratch\\media\\scratch-7.3-sensing-asking.trec",
      "rect" : [0, 0, 1920, 1080],
      "lastMod" : "20191113T030228",
      "sourceTracks" : [
        {
          "range" : [0, 82],
          "type" : 0,
          "editRate" : 30,
          "trackRect" : [0, 0, 1920, 1080],
          "sampleRate" : 30,
          "bitDepth" : 0,
          "numChannels" : 0,
          "integratedLUFS" : 100.0,
          "peakLevel" : -1.0,
          "metaData" : "2b7b6a00-7a1f-11e2-83d0-0017f200be7f;2b7b6aef-7a1f-11e2-83d0-0017f200be7f;2b7b6af0-7a1f-11e2-83d0-0017f200be7f;2b7b6af1-7a1f-11e2-83d0-0017f200be7f;2b7b6af2-7a1f-11e2-83d0-0017f200be7f;2b7b6af3-7a1f-11e2-83d0-0017f200be7f;2b7b6af5-7a1f-11e2-83d0-0017f200be7f;2b7b6af6-7a1f-11e2-83d0-0017f200be7f;2b7b6af7-7a1f-11e2-83d0-0017f200be7f;2b7b6af8-7a1f-11e2-83d0-0017f200be7f;2b7b6af9-7a1f-11e2-83d0-0017f200be7f;2b7b6afa-7a1f-11e2-83d0-0017f200be7f;"
        },
        {
          "range" : [0, 118784],
          "type" : 2,
          "editRate" : 44100,
          "trackRect" : [0, 0, 0, 0],
          "sampleRate" : 44100,
          "bitDepth" : 16,
          "numChannels" : 2,
          "integratedLUFS" : 0.0,
          "peakLevel" : 0.0,
          "metaData" : ""
        }
      ]
    },
    {
      "id" : 36,
      "src" : "C:\\Users\\oneoffcoder\\git\\books\\sphinx\\scratch\\media\\scratch-7.4-sensing-keys.trec",
      "rect" : [0, 0, 1920, 1080],
      "lastMod" : "20191113T030453",
      "sourceTracks" : [
        {
          "range" : [0, 397],
          "type" : 0,
          "editRate" : 30,
          "trackRect" : [0, 0, 1920, 1080],
          "sampleRate" : 30,
          "bitDepth" : 0,
          "numChannels" : 0,
          "integratedLUFS" : 100.0,
          "peakLevel" : -1.0,
          "metaData" : "2b7b6a00-7a1f-11e2-83d0-0017f200be7f;2b7b6aef-7a1f-11e2-83d0-0017f200be7f;2b7b6af0-7a1f-11e2-83d0-0017f200be7f;2b7b6af1-7a1f-11e2-83d0-0017f200be7f;2b7b6af2-7a1f-11e2-83d0-0017f200be7f;2b7b6af3-7a1f-11e2-83d0-0017f200be7f;2b7b6af5-7a1f-11e2-83d0-0017f200be7f;2b7b6af6-7a1f-11e2-83d0-0017f200be7f;2b7b6af7-7a1f-11e2-83d0-0017f200be7f;2b7b6af8-7a1f-11e2-83d0-0017f200be7f;2b7b6af9-7a1f-11e2-83d0-0017f200be7f;2b7b6afa-7a1f-11e2-83d0-0017f200be7f;"
        },
        {
          "range" : [0, 580608],
          "type" : 2,
          "editRate" : 44100,
          "trackRect" : [0, 0, 0, 0],
          "sampleRate" : 44100,
          "bitDepth" : 16,
          "numChannels" : 2,
          "integratedLUFS" : 0.0,
          "peakLevel" : 0.0,
          "metaData" : ""
        }
      ]
    },
    {
      "id" : 37,
      "src" : "C:\\Users\\oneoffcoder\\git\\books\\sphinx\\scratch\\media\\scratch-7.5-sensing-mouse.trec",
      "rect" : [0, 0, 1920, 1080],
      "lastMod" : "20191113T030725",
      "sourceTracks" : [
        {
          "range" : [0, 540],
          "type" : 0,
          "editRate" : 30,
          "trackRect" : [0, 0, 1920, 1080],
          "sampleRate" : 30,
          "bitDepth" : 0,
          "numChannels" : 0,
          "integratedLUFS" : 100.0,
          "peakLevel" : -1.0,
          "metaData" : "2b7b6a00-7a1f-11e2-83d0-0017f200be7f;2b7b6aef-7a1f-11e2-83d0-0017f200be7f;2b7b6af0-7a1f-11e2-83d0-0017f200be7f;2b7b6af1-7a1f-11e2-83d0-0017f200be7f;2b7b6af2-7a1f-11e2-83d0-0017f200be7f;2b7b6af3-7a1f-11e2-83d0-0017f200be7f;2b7b6af5-7a1f-11e2-83d0-0017f200be7f;2b7b6af6-7a1f-11e2-83d0-0017f200be7f;2b7b6af7-7a1f-11e2-83d0-0017f200be7f;2b7b6af8-7a1f-11e2-83d0-0017f200be7f;2b7b6af9-7a1f-11e2-83d0-0017f200be7f;2b7b6afa-7a1f-11e2-83d0-0017f200be7f;"
        },
        {
          "range" : [0, 791552],
          "type" : 2,
          "editRate" : 44100,
          "trackRect" : [0, 0, 0, 0],
          "sampleRate" : 44100,
          "bitDepth" : 16,
          "numChannels" : 2,
          "integratedLUFS" : 0.0,
          "peakLevel" : 0.0,
          "metaData" : ""
        }
      ]
    },
    {
      "id" : 38,
      "src" : "C:\\Users\\oneoffcoder\\git\\books\\sphinx\\scratch\\media\\scratch-7.7-sensing-timer.trec",
      "rect" : [0, 0, 1920, 1080],
      "lastMod" : "20191113T030934",
      "sourceTracks" : [
        {
          "range" : [0, 434],
          "type" : 0,
          "editRate" : 30,
          "trackRect" : [0, 0, 1920, 1080],
          "sampleRate" : 30,
          "bitDepth" : 0,
          "numChannels" : 0,
          "integratedLUFS" : 100.0,
          "peakLevel" : -1.0,
          "metaData" : "2b7b6a00-7a1f-11e2-83d0-0017f200be7f;2b7b6aef-7a1f-11e2-83d0-0017f200be7f;2b7b6af0-7a1f-11e2-83d0-0017f200be7f;2b7b6af1-7a1f-11e2-83d0-0017f200be7f;2b7b6af2-7a1f-11e2-83d0-0017f200be7f;2b7b6af3-7a1f-11e2-83d0-0017f200be7f;2b7b6af5-7a1f-11e2-83d0-0017f200be7f;2b7b6af6-7a1f-11e2-83d0-0017f200be7f;2b7b6af7-7a1f-11e2-83d0-0017f200be7f;2b7b6af8-7a1f-11e2-83d0-0017f200be7f;2b7b6af9-7a1f-11e2-83d0-0017f200be7f;2b7b6afa-7a1f-11e2-83d0-0017f200be7f;"
        },
        {
          "range" : [0, 637952],
          "type" : 2,
          "editRate" : 44100,
          "trackRect" : [0, 0, 0, 0],
          "sampleRate" : 44100,
          "bitDepth" : 16,
          "numChannels" : 2,
          "integratedLUFS" : 0.0,
          "peakLevel" : 0.0,
          "metaData" : ""
        }
      ]
    },
    {
      "id" : 39,
      "src" : "C:\\Users\\oneoffcoder\\git\\books\\sphinx\\scratch\\media\\scratch-7.8-sensing-stage.trec",
      "rect" : [0, 0, 1920, 1080],
      "lastMod" : "20191113T031420",
      "sourceTracks" : [
        {
          "range" : [0, 328],
          "type" : 0,
          "editRate" : 30,
          "trackRect" : [0, 0, 1920, 1080],
          "sampleRate" : 30,
          "bitDepth" : 0,
          "numChannels" : 0,
          "integratedLUFS" : 100.0,
          "peakLevel" : -1.0,
          "metaData" : "2b7b6a00-7a1f-11e2-83d0-0017f200be7f;2b7b6aef-7a1f-11e2-83d0-0017f200be7f;2b7b6af0-7a1f-11e2-83d0-0017f200be7f;2b7b6af1-7a1f-11e2-83d0-0017f200be7f;2b7b6af2-7a1f-11e2-83d0-0017f200be7f;2b7b6af3-7a1f-11e2-83d0-0017f200be7f;2b7b6af5-7a1f-11e2-83d0-0017f200be7f;2b7b6af6-7a1f-11e2-83d0-0017f200be7f;2b7b6af7-7a1f-11e2-83d0-0017f200be7f;2b7b6af8-7a1f-11e2-83d0-0017f200be7f;2b7b6af9-7a1f-11e2-83d0-0017f200be7f;2b7b6afa-7a1f-11e2-83d0-0017f200be7f;"
        },
        {
          "range" : [0, 483328],
          "type" : 2,
          "editRate" : 44100,
          "trackRect" : [0, 0, 0, 0],
          "sampleRate" : 44100,
          "bitDepth" : 16,
          "numChannels" : 2,
          "integratedLUFS" : 0.0,
          "peakLevel" : 0.0,
          "metaData" : ""
        }
      ]
    },
    {
      "id" : 40,
      "src" : "C:\\Users\\oneoffcoder\\git\\books\\sphinx\\scratch\\media\\scratch-8.1-operators-math.trec",
      "rect" : [0, 0, 1920, 1080],
      "lastMod" : "20191113T031748",
      "sourceTracks" : [
        {
          "range" : [0, 283],
          "type" : 0,
          "editRate" : 30,
          "trackRect" : [0, 0, 1920, 1080],
          "sampleRate" : 30,
          "bitDepth" : 0,
          "numChannels" : 0,
          "integratedLUFS" : 100.0,
          "peakLevel" : -1.0,
          "metaData" : "2b7b6a00-7a1f-11e2-83d0-0017f200be7f;2b7b6aef-7a1f-11e2-83d0-0017f200be7f;2b7b6af0-7a1f-11e2-83d0-0017f200be7f;2b7b6af1-7a1f-11e2-83d0-0017f200be7f;2b7b6af2-7a1f-11e2-83d0-0017f200be7f;2b7b6af3-7a1f-11e2-83d0-0017f200be7f;2b7b6af5-7a1f-11e2-83d0-0017f200be7f;2b7b6af6-7a1f-11e2-83d0-0017f200be7f;2b7b6af7-7a1f-11e2-83d0-0017f200be7f;2b7b6af8-7a1f-11e2-83d0-0017f200be7f;2b7b6af9-7a1f-11e2-83d0-0017f200be7f;2b7b6afa-7a1f-11e2-83d0-0017f200be7f;"
        },
        {
          "range" : [0, 414720],
          "type" : 2,
          "editRate" : 44100,
          "trackRect" : [0, 0, 0, 0],
          "sampleRate" : 44100,
          "bitDepth" : 16,
          "numChannels" : 2,
          "integratedLUFS" : 0.0,
          "peakLevel" : 0.0,
          "metaData" : ""
        }
      ]
    },
    {
      "id" : 41,
      "src" : "C:\\Users\\oneoffcoder\\git\\books\\sphinx\\scratch\\media\\scratch-8.2-operators-random.trec",
      "rect" : [0, 0, 1920, 1080],
      "lastMod" : "20191113T031924",
      "sourceTracks" : [
        {
          "range" : [0, 276],
          "type" : 0,
          "editRate" : 30,
          "trackRect" : [0, 0, 1920, 1080],
          "sampleRate" : 30,
          "bitDepth" : 0,
          "numChannels" : 0,
          "integratedLUFS" : 100.0,
          "peakLevel" : -1.0,
          "metaData" : "2b7b6a00-7a1f-11e2-83d0-0017f200be7f;2b7b6aef-7a1f-11e2-83d0-0017f200be7f;2b7b6af0-7a1f-11e2-83d0-0017f200be7f;2b7b6af1-7a1f-11e2-83d0-0017f200be7f;2b7b6af2-7a1f-11e2-83d0-0017f200be7f;2b7b6af3-7a1f-11e2-83d0-0017f200be7f;2b7b6af5-7a1f-11e2-83d0-0017f200be7f;2b7b6af6-7a1f-11e2-83d0-0017f200be7f;2b7b6af7-7a1f-11e2-83d0-0017f200be7f;2b7b6af8-7a1f-11e2-83d0-0017f200be7f;2b7b6af9-7a1f-11e2-83d0-0017f200be7f;2b7b6afa-7a1f-11e2-83d0-0017f200be7f;"
        },
        {
          "range" : [0, 402432],
          "type" : 2,
          "editRate" : 44100,
          "trackRect" : [0, 0, 0, 0],
          "sampleRate" : 44100,
          "bitDepth" : 16,
          "numChannels" : 2,
          "integratedLUFS" : 0.0,
          "peakLevel" : 0.0,
          "metaData" : ""
        }
      ]
    },
    {
      "id" : 42,
      "src" : "C:\\Users\\oneoffcoder\\git\\books\\sphinx\\scratch\\media\\scratch-8.3-operators-comparison.trec",
      "rect" : [0, 0, 1920, 1080],
      "lastMod" : "20191113T032132",
      "sourceTracks" : [
        {
          "range" : [0, 455],
          "type" : 0,
          "editRate" : 30,
          "trackRect" : [0, 0, 1920, 1080],
          "sampleRate" : 30,
          "bitDepth" : 0,
          "numChannels" : 0,
          "integratedLUFS" : 100.0,
          "peakLevel" : -1.0,
          "metaData" : "2b7b6a00-7a1f-11e2-83d0-0017f200be7f;2b7b6aef-7a1f-11e2-83d0-0017f200be7f;2b7b6af0-7a1f-11e2-83d0-0017f200be7f;2b7b6af1-7a1f-11e2-83d0-0017f200be7f;2b7b6af2-7a1f-11e2-83d0-0017f200be7f;2b7b6af3-7a1f-11e2-83d0-0017f200be7f;2b7b6af5-7a1f-11e2-83d0-0017f200be7f;2b7b6af6-7a1f-11e2-83d0-0017f200be7f;2b7b6af7-7a1f-11e2-83d0-0017f200be7f;2b7b6af8-7a1f-11e2-83d0-0017f200be7f;2b7b6af9-7a1f-11e2-83d0-0017f200be7f;2b7b6afa-7a1f-11e2-83d0-0017f200be7f;"
        },
        {
          "range" : [0, 669696],
          "type" : 2,
          "editRate" : 44100,
          "trackRect" : [0, 0, 0, 0],
          "sampleRate" : 44100,
          "bitDepth" : 16,
          "numChannels" : 2,
          "integratedLUFS" : 0.0,
          "peakLevel" : 0.0,
          "metaData" : ""
        }
      ]
    },
    {
      "id" : 43,
      "src" : "C:\\Users\\oneoffcoder\\git\\books\\sphinx\\scratch\\media\\scratch-8.4-operators-boolean.trec",
      "rect" : [0, 0, 1920, 1080],
      "lastMod" : "20191113T032353",
      "sourceTracks" : [
        {
          "range" : [0, 802],
          "type" : 0,
          "editRate" : 30,
          "trackRect" : [0, 0, 1920, 1080],
          "sampleRate" : 30,
          "bitDepth" : 0,
          "numChannels" : 0,
          "integratedLUFS" : 100.0,
          "peakLevel" : -1.0,
          "metaData" : "2b7b6a00-7a1f-11e2-83d0-0017f200be7f;2b7b6aef-7a1f-11e2-83d0-0017f200be7f;2b7b6af0-7a1f-11e2-83d0-0017f200be7f;2b7b6af1-7a1f-11e2-83d0-0017f200be7f;2b7b6af2-7a1f-11e2-83d0-0017f200be7f;2b7b6af3-7a1f-11e2-83d0-0017f200be7f;2b7b6af5-7a1f-11e2-83d0-0017f200be7f;2b7b6af6-7a1f-11e2-83d0-0017f200be7f;2b7b6af7-7a1f-11e2-83d0-0017f200be7f;2b7b6af8-7a1f-11e2-83d0-0017f200be7f;2b7b6af9-7a1f-11e2-83d0-0017f200be7f;2b7b6afa-7a1f-11e2-83d0-0017f200be7f;"
        },
        {
          "range" : [0, 1176576],
          "type" : 2,
          "editRate" : 44100,
          "trackRect" : [0, 0, 0, 0],
          "sampleRate" : 44100,
          "bitDepth" : 16,
          "numChannels" : 2,
          "integratedLUFS" : 0.0,
          "peakLevel" : 0.0,
          "metaData" : ""
        }
      ]
    },
    {
      "id" : 44,
      "src" : "C:\\Users\\oneoffcoder\\git\\books\\sphinx\\scratch\\media\\scratch-8.5-operators-string.trec",
      "rect" : [0, 0, 1920, 1080],
      "lastMod" : "20191113T032928",
      "sourceTracks" : [
        {
          "range" : [0, 299],
          "type" : 0,
          "editRate" : 30,
          "trackRect" : [0, 0, 1920, 1080],
          "sampleRate" : 30,
          "bitDepth" : 0,
          "numChannels" : 0,
          "integratedLUFS" : 100.0,
          "peakLevel" : -1.0,
          "metaData" : "2b7b6a00-7a1f-11e2-83d0-0017f200be7f;2b7b6aef-7a1f-11e2-83d0-0017f200be7f;2b7b6af0-7a1f-11e2-83d0-0017f200be7f;2b7b6af1-7a1f-11e2-83d0-0017f200be7f;2b7b6af2-7a1f-11e2-83d0-0017f200be7f;2b7b6af3-7a1f-11e2-83d0-0017f200be7f;2b7b6af5-7a1f-11e2-83d0-0017f200be7f;2b7b6af6-7a1f-11e2-83d0-0017f200be7f;2b7b6af7-7a1f-11e2-83d0-0017f200be7f;2b7b6af8-7a1f-11e2-83d0-0017f200be7f;2b7b6af9-7a1f-11e2-83d0-0017f200be7f;2b7b6afa-7a1f-11e2-83d0-0017f200be7f;"
        },
        {
          "range" : [0, 439296],
          "type" : 2,
          "editRate" : 44100,
          "trackRect" : [0, 0, 0, 0],
          "sampleRate" : 44100,
          "bitDepth" : 16,
          "numChannels" : 2,
          "integratedLUFS" : 0.0,
          "peakLevel" : 0.0,
          "metaData" : ""
        }
      ]
    },
    {
      "id" : 45,
      "src" : "C:\\Users\\oneoffcoder\\git\\books\\sphinx\\scratch\\media\\scratch-10-custom-blocks.trec",
      "rect" : [0, 0, 1920, 1080],
      "lastMod" : "20191113T033209",
      "sourceTracks" : [
        {
          "range" : [0, 596],
          "type" : 0,
          "editRate" : 30,
          "trackRect" : [0, 0, 1920, 1080],
          "sampleRate" : 30,
          "bitDepth" : 0,
          "numChannels" : 0,
          "integratedLUFS" : 100.0,
          "peakLevel" : -1.0,
          "metaData" : "2b7b6a00-7a1f-11e2-83d0-0017f200be7f;2b7b6aef-7a1f-11e2-83d0-0017f200be7f;2b7b6af0-7a1f-11e2-83d0-0017f200be7f;2b7b6af1-7a1f-11e2-83d0-0017f200be7f;2b7b6af2-7a1f-11e2-83d0-0017f200be7f;2b7b6af3-7a1f-11e2-83d0-0017f200be7f;2b7b6af5-7a1f-11e2-83d0-0017f200be7f;2b7b6af6-7a1f-11e2-83d0-0017f200be7f;2b7b6af7-7a1f-11e2-83d0-0017f200be7f;2b7b6af8-7a1f-11e2-83d0-0017f200be7f;2b7b6af9-7a1f-11e2-83d0-0017f200be7f;2b7b6afa-7a1f-11e2-83d0-0017f200be7f;"
        },
        {
          "range" : [0, 876544],
          "type" : 2,
          "editRate" : 44100,
          "trackRect" : [0, 0, 0, 0],
          "sampleRate" : 44100,
          "bitDepth" : 16,
          "numChannels" : 2,
          "integratedLUFS" : 0.0,
          "peakLevel" : 0.0,
          "metaData" : ""
        }
      ]
    },
    {
      "id" : 46,
      "src" : "C:\\Users\\oneoffcoder\\git\\books\\sphinx\\scratch\\media\\scratch-11-costumes.trec",
      "rect" : [0, 0, 1920, 1080],
      "lastMod" : "20191113T041924",
      "sourceTracks" : [
        {
          "range" : [0, 2310],
          "type" : 0,
          "editRate" : 30,
          "trackRect" : [0, 0, 1920, 1080],
          "sampleRate" : 29,
          "bitDepth" : 0,
          "numChannels" : 0,
          "integratedLUFS" : 100.0,
          "peakLevel" : -1.0,
          "metaData" : "2b7b6a00-7a1f-11e2-83d0-0017f200be7f;2b7b6aef-7a1f-11e2-83d0-0017f200be7f;2b7b6af0-7a1f-11e2-83d0-0017f200be7f;2b7b6af1-7a1f-11e2-83d0-0017f200be7f;2b7b6af2-7a1f-11e2-83d0-0017f200be7f;2b7b6af3-7a1f-11e2-83d0-0017f200be7f;2b7b6af5-7a1f-11e2-83d0-0017f200be7f;2b7b6af6-7a1f-11e2-83d0-0017f200be7f;2b7b6af7-7a1f-11e2-83d0-0017f200be7f;2b7b6af8-7a1f-11e2-83d0-0017f200be7f;2b7b6af9-7a1f-11e2-83d0-0017f200be7f;2b7b6afa-7a1f-11e2-83d0-0017f200be7f;"
        },
        {
          "range" : [0, 3393536],
          "type" : 2,
          "editRate" : 44100,
          "trackRect" : [0, 0, 0, 0],
          "sampleRate" : 44100,
          "bitDepth" : 16,
          "numChannels" : 2,
          "integratedLUFS" : 0.0,
          "peakLevel" : 0.0,
          "metaData" : ""
        }
      ]
    },
    {
      "id" : 47,
      "src" : "C:\\Users\\oneoffcoder\\git\\books\\sphinx\\scratch\\media\\scratch-12-sounds.trec",
      "rect" : [0, 0, 1920, 1080],
      "lastMod" : "20191113T042305",
      "sourceTracks" : [
        {
          "range" : [0, 1577],
          "type" : 0,
          "editRate" : 30,
          "trackRect" : [0, 0, 1920, 1080],
          "sampleRate" : 30,
          "bitDepth" : 0,
          "numChannels" : 0,
          "integratedLUFS" : 100.0,
          "peakLevel" : -1.0,
          "metaData" : "2b7b6a00-7a1f-11e2-83d0-0017f200be7f;2b7b6aef-7a1f-11e2-83d0-0017f200be7f;2b7b6af0-7a1f-11e2-83d0-0017f200be7f;2b7b6af1-7a1f-11e2-83d0-0017f200be7f;2b7b6af2-7a1f-11e2-83d0-0017f200be7f;2b7b6af3-7a1f-11e2-83d0-0017f200be7f;2b7b6af5-7a1f-11e2-83d0-0017f200be7f;2b7b6af6-7a1f-11e2-83d0-0017f200be7f;2b7b6af7-7a1f-11e2-83d0-0017f200be7f;2b7b6af8-7a1f-11e2-83d0-0017f200be7f;2b7b6af9-7a1f-11e2-83d0-0017f200be7f;2b7b6afa-7a1f-11e2-83d0-0017f200be7f;"
        },
        {
          "range" : [0, 2315264],
          "type" : 2,
          "editRate" : 44100,
          "trackRect" : [0, 0, 0, 0],
          "sampleRate" : 44100,
          "bitDepth" : 16,
          "numChannels" : 2,
          "integratedLUFS" : -15.8820668834063,
          "peakLevel" : 0.997589111328125,
          "metaData" : ""
        }
      ]
    },
    {
      "id" : 48,
      "src" : "C:\\Users\\oneoffcoder\\git\\books\\sphinx\\scratch\\media\\scratch-13-sprites.trec",
      "rect" : [0, 0, 1920, 1080],
      "lastMod" : "20191113T042638",
      "sourceTracks" : [
        {
          "range" : [0, 1405],
          "type" : 0,
          "editRate" : 30,
          "trackRect" : [0, 0, 1920, 1080],
          "sampleRate" : 29,
          "bitDepth" : 0,
          "numChannels" : 0,
          "integratedLUFS" : 100.0,
          "peakLevel" : -1.0,
          "metaData" : "2b7b6a00-7a1f-11e2-83d0-0017f200be7f;2b7b6aef-7a1f-11e2-83d0-0017f200be7f;2b7b6af0-7a1f-11e2-83d0-0017f200be7f;2b7b6af1-7a1f-11e2-83d0-0017f200be7f;2b7b6af2-7a1f-11e2-83d0-0017f200be7f;2b7b6af3-7a1f-11e2-83d0-0017f200be7f;2b7b6af5-7a1f-11e2-83d0-0017f200be7f;2b7b6af6-7a1f-11e2-83d0-0017f200be7f;2b7b6af7-7a1f-11e2-83d0-0017f200be7f;2b7b6af8-7a1f-11e2-83d0-0017f200be7f;2b7b6af9-7a1f-11e2-83d0-0017f200be7f;2b7b6afa-7a1f-11e2-83d0-0017f200be7f;"
        },
        {
          "range" : [0, 2064384],
          "type" : 2,
          "editRate" : 44100,
          "trackRect" : [0, 0, 0, 0],
          "sampleRate" : 44100,
          "bitDepth" : 16,
          "numChannels" : 2,
          "integratedLUFS" : 0.0,
          "peakLevel" : 0.0,
          "metaData" : ""
        }
      ]
    },
    {
      "id" : 49,
      "src" : "C:\\Users\\oneoffcoder\\git\\books\\sphinx\\scratch\\media\\scratch-14-backdrops.trec",
      "rect" : [0, 0, 1920, 1080],
      "lastMod" : "20191113T042845",
      "sourceTracks" : [
        {
          "range" : [0, 1108],
          "type" : 0,
          "editRate" : 30,
          "trackRect" : [0, 0, 1920, 1080],
          "sampleRate" : 30,
          "bitDepth" : 0,
          "numChannels" : 0,
          "integratedLUFS" : 100.0,
          "peakLevel" : -1.0,
          "metaData" : "2b7b6a00-7a1f-11e2-83d0-0017f200be7f;2b7b6aef-7a1f-11e2-83d0-0017f200be7f;2b7b6af0-7a1f-11e2-83d0-0017f200be7f;2b7b6af1-7a1f-11e2-83d0-0017f200be7f;2b7b6af2-7a1f-11e2-83d0-0017f200be7f;2b7b6af3-7a1f-11e2-83d0-0017f200be7f;2b7b6af5-7a1f-11e2-83d0-0017f200be7f;2b7b6af6-7a1f-11e2-83d0-0017f200be7f;2b7b6af7-7a1f-11e2-83d0-0017f200be7f;2b7b6af8-7a1f-11e2-83d0-0017f200be7f;2b7b6af9-7a1f-11e2-83d0-0017f200be7f;2b7b6afa-7a1f-11e2-83d0-0017f200be7f;"
        },
        {
          "range" : [0, 1630208],
          "type" : 2,
          "editRate" : 44100,
          "trackRect" : [0, 0, 0, 0],
          "sampleRate" : 44100,
          "bitDepth" : 16,
          "numChannels" : 2,
          "integratedLUFS" : 0.0,
          "peakLevel" : 0.0,
          "metaData" : ""
        }
      ]
    },
    {
      "id" : 50,
      "src" : "C:\\ProgramData\\TechSmith\\Camtasia Studio 19\\Library 4.0\\Camtasia Libraries\\Camtasia 2019\\Intros\\redtrianglescroll.asset\\Motion Graphics - Intro Clips - redtrianglescroll-91.mp4",
      "rect" : [0, 0, 1920, 1080],
      "lastMod" : "20190205T155848",
      "sourceTracks" : [
        {
          "range" : [0, 299999999],
          "type" : 0,
          "editRate" : 10000000,
          "trackRect" : [0, 0, 1920, 1080],
          "sampleRate" : "10000000/333333",
          "bitDepth" : 24,
          "numChannels" : 0,
          "integratedLUFS" : 100.0,
          "peakLevel" : -1.0,
          "metaData" : ""
        }
      ],
      "metadata" : {
        "assetLibraryId" : "26407124-0db0-4944-8dc6-d20020548c73"
      }
    },
    {
      "id" : 51,
      "src" : "C:\\ProgramData\\TechSmith\\Camtasia Studio 19\\Library 4.0\\Camtasia Libraries\\Camtasia 2019\\Intros\\squarepegs.asset\\Motion Graphics - Intro Clips - squarepegs-91.mp4",
      "rect" : [0, 0, 1920, 1080],
      "lastMod" : "20190205T155848",
      "sourceTracks" : [
        {
          "range" : [0, 73375110],
          "type" : 0,
          "editRate" : 10000000,
          "trackRect" : [0, 0, 1920, 1080],
          "sampleRate" : "10000000/333333",
          "bitDepth" : 24,
          "numChannels" : 0,
          "integratedLUFS" : 100.0,
          "peakLevel" : -1.0,
          "metaData" : ""
        },
        {
          "range" : [0, 73375110],
          "type" : 2,
          "editRate" : 10000000,
          "trackRect" : [0, 0, 0, 0],
          "sampleRate" : 44100,
          "bitDepth" : 16,
          "numChannels" : 2,
          "integratedLUFS" : 0.0,
          "peakLevel" : 0.0,
          "metaData" : ""
        }
      ],
      "metadata" : {
        "assetLibraryId" : "38ca7ca4-ff27-4c79-982a-8691aaf810ca"
      }
    },
    {
      "id" : 52,
      "src" : "C:\\ProgramData\\TechSmith\\Camtasia Studio 19\\Library 4.0\\Camtasia Libraries\\Camtasia 2019\\Motion Backgrounds\\laptopopen.asset\\Animated Backgrounds - laptopopen.mp4",
      "rect" : [0, 0, 1920, 1080],
      "lastMod" : "20180830T135426",
      "sourceTracks" : [
        {
          "range" : [0, 228999997],
          "type" : 0,
          "editRate" : 10000000,
          "trackRect" : [0, 0, 1920, 1080],
          "sampleRate" : "10000000/333333",
          "bitDepth" : 24,
          "numChannels" : 0,
          "integratedLUFS" : 100.0,
          "peakLevel" : -1.0,
          "metaData" : ""
        }
      ],
      "metadata" : {
        "assetLibraryId" : "1956a579-8cb6-4c4a-bfbf-1134da10119a"
      }
    },
    {
      "id" : 53,
      "src" : "C:\\ProgramData\\TechSmith\\Camtasia Studio 19\\Library 4.0\\Camtasia Libraries\\Camtasia 2019\\Motion Backgrounds\\triangledots.asset\\Animated Backgrounds - triangledots.mp4",
      "rect" : [0, 0, 1920, 1080],
      "lastMod" : "20180830T135426",
      "sourceTracks" : [
        {
          "range" : [0, 300309997],
          "type" : 0,
          "editRate" : 10000000,
          "trackRect" : [0, 0, 1920, 1080],
          "sampleRate" : "10000000/333677",
          "bitDepth" : 24,
          "numChannels" : 0,
          "integratedLUFS" : 100.0,
          "peakLevel" : -1.0,
          "metaData" : ""
        }
      ],
      "metadata" : {
        "assetLibraryId" : "7cc00578-1dd7-49d5-95d9-13c141e26153"
      }
    },
    {
      "id" : 54,
      "src" : "C:\\ProgramData\\TechSmith\\Camtasia Studio 19\\Library 4.0\\Camtasia Libraries\\Camtasia 2019\\Motion Backgrounds\\redtriangles.asset\\Animated Backgrounds - redtriangles.mp4",
      "rect" : [0, 0, 1920, 1080],
      "lastMod" : "20180830T135426",
      "sourceTracks" : [
        {
          "range" : [0, 299999999],
          "type" : 0,
          "editRate" : 10000000,
          "trackRect" : [0, 0, 1920, 1080],
          "sampleRate" : "10000000/333333",
          "bitDepth" : 24,
          "numChannels" : 0,
          "integratedLUFS" : 100.0,
          "peakLevel" : -1.0,
          "metaData" : ""
        }
      ],
      "metadata" : {
        "assetLibraryId" : "1e0ba447-b41a-4303-9e02-34944458bb32"
      }
    },
    {
      "id" : 55,
      "src" : "C:\\ProgramData\\TechSmith\\Camtasia Studio 19\\Library 4.0\\Camtasia Libraries\\Camtasia 2019\\Intros\\linewipe.asset\\Motion Graphics - Intro Clips - linewipe-91.png",
      "rect" : [0, 0, 1920, 1080],
      "lastMod" : "20190205T155848",
      "sourceTracks" : [
        {
          "range" : [0, 1],
          "type" : 1,
          "editRate" : 10000000,
          "trackRect" : [0, 0, 1920, 1080],
          "sampleRate" : 0,
          "bitDepth" : 32,
          "numChannels" : 0,
          "integratedLUFS" : 100.0,
          "peakLevel" : -1.0,
          "metaData" : ""
        }
      ],
      "metadata" : {
        "assetLibraryId" : "a492c94c-cb95-4254-b03b-3ad8fd84235f"
      }
    },
    {
      "id" : 56,
      "src" : "C:\\ProgramData\\TechSmith\\Camtasia Studio 19\\Library 4.0\\Camtasia Libraries\\Camtasia 2019\\Intros\\ripples.asset\\Motion Graphics - Intro Clips - ripples-91.png",
      "rect" : [0, 0, 1920, 1080],
      "lastMod" : "20190205T155848",
      "sourceTracks" : [
        {
          "range" : [0, 1],
          "type" : 1,
          "editRate" : 10000000,
          "trackRect" : [0, 0, 1920, 1080],
          "sampleRate" : 0,
          "bitDepth" : 32,
          "numChannels" : 0,
          "integratedLUFS" : 100.0,
          "peakLevel" : -1.0,
          "metaData" : ""
        }
      ],
      "metadata" : {
        "assetLibraryId" : "18fb3f9d-3033-4942-a70b-54b4d5735126"
      }
    },
    {
      "id" : 57,
      "src" : "C:\\ProgramData\\TechSmith\\Camtasia Studio 19\\Library 4.0\\Camtasia Libraries\\Camtasia 2019\\Intros\\State.asset\\Logo Placeholder.png",
      "rect" : [0, 0, 1024, 1024],
      "lastMod" : "20190205T155848",
      "sourceTracks" : [
        {
          "range" : [0, 1],
          "type" : 1,
          "editRate" : 10000000,
          "trackRect" : [0, 0, 1024, 1024],
          "sampleRate" : 0,
          "bitDepth" : 32,
          "numChannels" : 0,
          "integratedLUFS" : 100.0,
          "peakLevel" : -1.0,
          "metaData" : ""
        }
      ],
      "metadata" : {
        "assetLibraryId" : "4a5fe3b3-5ca8-479c-b3c2-4a05b35c0d53"
      }
    },
    {
      "id" : 58,
      "src" : "C:\\ProgramData\\TechSmith\\Camtasia Studio 19\\Library 4.0\\Camtasia Libraries\\Camtasia 2019\\Intros\\octagonbrigade.asset\\Motion Graphics - Intro Clips - hexagonbrigade-91.png",
      "rect" : [0, 0, 1920, 1080],
      "lastMod" : "20190205T155848",
      "sourceTracks" : [
        {
          "range" : [0, 1],
          "type" : 1,
          "editRate" : 10000000,
          "trackRect" : [0, 0, 1920, 1080],
          "sampleRate" : 0,
          "bitDepth" : 32,
          "numChannels" : 0,
          "integratedLUFS" : 100.0,
          "peakLevel" : -1.0,
          "metaData" : ""
        }
      ],
      "metadata" : {
        "assetLibraryId" : "4f027716-0414-4d31-86ae-356ecdf9ede7"
      }
    },
    {
      "id" : 59,
      "src" : "C:\\ProgramData\\TechSmith\\Camtasia Studio 19\\Library 4.0\\Camtasia Libraries\\Camtasia 2019\\Intros\\cornercircles.asset\\Motion Graphics - Intro Clips - cornercircles-91.png",
      "rect" : [0, 0, 1920, 1080],
      "lastMod" : "20190205T155848",
      "sourceTracks" : [
        {
          "range" : [0, 1],
          "type" : 1,
          "editRate" : 10000000,
          "trackRect" : [0, 0, 1920, 1080],
          "sampleRate" : 0,
          "bitDepth" : 32,
          "numChannels" : 0,
          "integratedLUFS" : 100.0,
          "peakLevel" : -1.0,
          "metaData" : ""
        }
      ],
      "metadata" : {
        "assetLibraryId" : "05e456fc-c276-4145-b106-981acab50f11"
      }
    },
    {
      "id" : 60,
      "src" : "C:\\ProgramData\\TechSmith\\Camtasia Studio 19\\Library 4.0\\Camtasia Libraries\\Camtasia 2019\\Intros\\tictactoe.asset\\Motion Graphics - Intro Clips - tictactoe-91.mp4",
      "rect" : [0, 0, 1920, 1080],
      "lastMod" : "20190205T155848",
      "sourceTracks" : [
        {
          "range" : [0, 88533332],
          "type" : 0,
          "editRate" : 10000000,
          "trackRect" : [0, 0, 1920, 1080],
          "sampleRate" : 25,
          "bitDepth" : 24,
          "numChannels" : 0,
          "integratedLUFS" : 100.0,
          "peakLevel" : -1.0,
          "metaData" : ""
        },
        {
          "range" : [0, 88533332],
          "type" : 2,
          "editRate" : 10000000,
          "trackRect" : [0, 0, 0, 0],
          "sampleRate" : 48000,
          "bitDepth" : 16,
          "numChannels" : 2,
          "integratedLUFS" : 0.0,
          "peakLevel" : 0.0,
          "metaData" : ""
        }
      ],
      "metadata" : {
        "assetLibraryId" : "cd17814c-c209-4bd1-839d-7ab43f483c21"
      }
    },
    {
      "id" : 61,
      "src" : "C:\\ProgramData\\TechSmith\\Camtasia Studio 19\\Library 4.0\\Camtasia Libraries\\Camtasia 2019\\Intros\\tictactoe.asset\\Motion Graphics - Intro Clips - tictactoe-91.png",
      "rect" : [0, 0, 512, 512],
      "lastMod" : "20190205T155848",
      "sourceTracks" : [
        {
          "range" : [0, 1],
          "type" : 1,
          "editRate" : 10000000,
          "trackRect" : [0, 0, 512, 512],
          "sampleRate" : 0,
          "bitDepth" : 32,
          "numChannels" : 0,
          "integratedLUFS" : 100.0,
          "peakLevel" : -1.0,
          "metaData" : ""
        }
      ],
      "metadata" : {
        "assetLibraryId" : "cd17814c-c209-4bd1-839d-7ab43f483c21"
      }
    },
    {
      "id" : 62,
      "src" : "C:\\ProgramData\\TechSmith\\Camtasia Studio 19\\Library 4.0\\Camtasia Libraries\\Camtasia 2019\\Music Tracks\\firefly.asset\\Music Tracks - firefly.mp3",
      "rect" : [0, 0, 0, 0],
      "lastMod" : "20180830T135426",
      "sourceTracks" : [
        {
          "range" : [0, 1458240000],
          "type" : 2,
          "editRate" : 10000000,
          "trackRect" : [0, 0, 0, 0],
          "sampleRate" : 48000,
          "bitDepth" : 0,
          "numChannels" : 2,
          "integratedLUFS" : -12.2962181599677,
          "peakLevel" : 1.09296011924744,
          "metaData" : ""
        }
      ],
      "metadata" : {
        "assetLibraryId" : "0c885071-fdb8-4246-bfe6-41eda076e682"
      }
    }
  ],
  "timeline" : {
    "id" : 63,
    "sceneTrack" : {
      "scenes" : [
        {
          "duration" : 969.633333333333,
          "title" : "",
          "type" : "",
          "csml" : {
            "tracks" : [
              {
                "trackIndex" : 0,
                "medias" : [
                  {
                    "id" : 64,
                    "_type" : "Group",
                    "parameters" : {
                      "translation0" : 1.45519152283669e-10,
                      "translation1" : 1.32331479107961e-10,
                      "volume" : 1.0
                    },
                    "tracks" : [
                      {
                        "trackIndex" : 0,
                        "medias" : [
                          {
                            "id" : 65,
                            "_type" : "Group",
                            "parameters" : {
                              "translation0" : -1.45519152283669e-10,
                              "translation1" : -1.32331479107961e-10,
                              "volume" : 1.0
                            },
                            "tracks" : [
                              {
                                "trackIndex" : 0,
                                "medias" : [
                                  {
                                    "id" : 66,
                                    "_type" : "Callout",
                                    "def" : {
                                      "kind" : "remix",
                                      "shape" : "shape-rectangle",
                                      "style" : "urban",
                                      "fill-color-blue" : 0.235294117647059,
                                      "fill-color-green" : 0.298039215686275,
                                      "fill-color-opacity" : 1.0,
                                      "fill-color-red" : 0.905882352941176,
                                      "height" : 1080.0000000002,
                                      "stroke-color-blue" : 0.777079198166942,
                                      "stroke-color-green" : 0.93090625,
                                      "stroke-color-opacity" : 1.0,
                                      "stroke-color-red" : 0.113700037136884,
                                      "stroke-width" : 0.0,
                                      "width" : 1920.00000000019,
                                      "horizontal-alignment" : "center",
                                      "stroke-style" : "solid",
                                      "vertical-alignment" : "center",
                                      "textAttributes" : {
                                        "type" : "textAttributeList",
                                        "keyframes" : [
                                          {
                                            "endTime" : 0,
                                            "time" : 0,
                                            "value" : null,
                                            "duration" : 0
                                          }
                                        ]
                                      }
                                    },
                                    "attributes" : {
                                      "autoRotateText" : true
                                    },
                                    "parameters" : {
                                      "translation0" : 2.43858266912866e-11,
                                      "translation1" : 1.125499693444e-11
                                    },
                                    "effects" : [

                                    ],
                                    "start" : 0,
                                    "duration" : 200,
                                    "mediaStart" : 0,
                                    "mediaDuration" : 200,
                                    "scalar" : 1,
                                    "metadata" : {
                                      "WinSubProjectDisplayName" : "",
                                      "clipSpeedAttribute" : false
                                    },
                                    "animationTracks" : {

                                    }
                                  }
                                ],
                                  "ident" : "",
                                  "audioMuted" : false,
                                  "videoHidden" : false,
                                  "magnetic" : false,
                                  "metadata" : {
                                    "IsLocked" : "False",
                                    "WinTrackHeight" : "0"
                                  }
                              },
                              {
                                "trackIndex" : 1,
                                "medias" : [
                                  {
                                    "id" : 67,
                                    "_type" : "Callout",
                                    "def" : {
                                      "kind" : "remix",
                                      "shape" : "shape-rectangle",
                                      "style" : "abstract",
                                      "fill-color-blue" : {
                                        "type" : "double",
                                        "defaultValue" : 0.556862745098039,
                                        "keyframes" : [
                                          {
                                            "endTime" : 64,
                                            "time" : 0,
                                            "value" : 0.556862745098039,
                                            "duration" : 64
                                          }
                                        ]
                                      },
                                      "fill-color-green" : {
                                        "type" : "double",
                                        "defaultValue" : 0.454901960784314,
                                        "keyframes" : [
                                          {
                                            "endTime" : 64,
                                            "time" : 0,
                                            "value" : 0.454901960784314,
                                            "duration" : 64
                                          }
                                        ]
                                      },
                                      "fill-color-opacity" : 1.0,
                                      "fill-color-red" : {
                                        "type" : "double",
                                        "defaultValue" : 0.235294117647059,
                                        "keyframes" : [
                                          {
                                            "endTime" : 64,
                                            "time" : 0,
                                            "value" : 0.235294117647059,
                                            "duration" : 64
                                          }
                                        ]
                                      },
                                      "height" : {
                                        "type" : "double",
                                        "defaultValue" : 6.95536632864869,
                                        "keyframes" : [
                                          {
                                            "endTime" : 64,
                                            "time" : 0,
                                            "value" : 784.000000000243,
                                            "duration" : 64
                                          }
                                        ]
                                      },
                                      "stroke-color-blue" : 1.0,
                                      "stroke-color-green" : 1.0,
                                      "stroke-color-opacity" : 1.0,
                                      "stroke-color-red" : 1.0,
                                      "stroke-width" : 0.0,
                                      "width" : {
                                        "type" : "double",
                                        "defaultValue" : 7.26449372104034,
                                        "keyframes" : [
                                          {
                                            "endTime" : 64,
                                            "time" : 0,
                                            "value" : 818.844444445516,
                                            "duration" : 64
                                          }
                                        ]
                                      },
                                      "horizontal-alignment" : "center",
                                      "stroke-style" : "solid",
                                      "vertical-alignment" : "center",
                                      "textAttributes" : {
                                        "type" : "textAttributeList",
                                        "keyframes" : [
                                          {
                                            "endTime" : 0,
                                            "time" : 0,
                                            "value" : null,
                                            "duration" : 0
                                          }
                                        ]
                                      }
                                    },
                                    "attributes" : {
                                      "autoRotateText" : true
                                    },
                                    "parameters" : {
                                      "translation0" : {
                                        "type" : "double",
                                        "defaultValue" : -6.11635186942294e-11,
                                        "keyframes" : [
                                          {
                                            "endTime" : 64,
                                            "time" : 0,
                                            "value" : -6.11635186942294e-11,
                                            "duration" : 64
                                          }
                                        ]
                                      },
                                      "translation1" : {
                                        "type" : "double",
                                        "defaultValue" : -7.98650034994353e-12,
                                        "keyframes" : [
                                          {
                                            "endTime" : 64,
                                            "time" : 0,
                                            "value" : -7.98650034994353e-12,
                                            "duration" : 64
                                          }
                                        ]
                                      },
                                      "rotation2" : {
                                        "type" : "double",
                                        "defaultValue" : 0.935769591402824,
                                        "keyframes" : [
                                          {
                                            "endTime" : 64,
                                            "time" : 0,
                                            "value" : 0.0,
                                            "duration" : 64
                                          }
                                        ]
                                      }
                                    },
                                    "effects" : [

                                    ],
                                    "start" : 20,
                                    "duration" : 74,
                                    "mediaStart" : 0,
                                    "mediaDuration" : 74,
                                    "scalar" : 1,
                                    "metadata" : {
                                      "WinSubProjectDisplayName" : "",
                                      "clipSpeedAttribute" : false
                                    },
                                    "animationTracks" : {
                                      "visual" : [
                                        {
                                          "endTime" : 64,
                                          "duration" : 64,
                                          "range" : [ 0, 64]
                                        }
                                      ]
                                    }
                                  }
                                ],
                                  "ident" : "",
                                  "audioMuted" : false,
                                  "videoHidden" : false,
                                  "magnetic" : false,
                                  "metadata" : {
                                    "IsLocked" : "False",
                                    "WinTrackHeight" : "0"
                                  }
                              },
                              {
                                "trackIndex" : 2,
                                "medias" : [
                                  {
                                    "id" : 68,
                                    "_type" : "Callout",
                                    "def" : {
                                      "kind" : "remix",
                                      "shape" : "shape-rectangle",
                                      "style" : "abstract",
                                      "fill-color-blue" : {
                                        "type" : "double",
                                        "defaultValue" : 0.235294117647059,
                                        "keyframes" : [
                                          {
                                            "endTime" : 50,
                                            "time" : 0,
                                            "value" : 0.235294117647059,
                                            "duration" : 50
                                          }
                                        ]
                                      },
                                      "fill-color-green" : {
                                        "type" : "double",
                                        "defaultValue" : 0.298039215686275,
                                        "keyframes" : [
                                          {
                                            "endTime" : 50,
                                            "time" : 0,
                                            "value" : 0.298039215686275,
                                            "duration" : 50
                                          }
                                        ]
                                      },
                                      "fill-color-opacity" : 1.0,
                                      "fill-color-red" : {
                                        "type" : "double",
                                        "defaultValue" : 0.905882352941176,
                                        "keyframes" : [
                                          {
                                            "endTime" : 50,
                                            "time" : 0,
                                            "value" : 0.905882352941176,
                                            "duration" : 50
                                          }
                                        ]
                                      },
                                      "height" : {
                                        "type" : "double",
                                        "defaultValue" : 6.95536632864869,
                                        "keyframes" : [
                                          {
                                            "endTime" : 50,
                                            "time" : 0,
                                            "value" : 1051.32817372388,
                                            "duration" : 50
                                          }
                                        ]
                                      },
                                      "stroke-color-blue" : {
                                        "type" : "double",
                                        "defaultValue" : 0.777079198166942,
                                        "keyframes" : [
                                          {
                                            "endTime" : 50,
                                            "time" : 0,
                                            "value" : 0.777079198166942,
                                            "duration" : 50
                                          }
                                        ]
                                      },
                                      "stroke-color-green" : {
                                        "type" : "double",
                                        "defaultValue" : 0.93090625,
                                        "keyframes" : [
                                          {
                                            "endTime" : 50,
                                            "time" : 0,
                                            "value" : 0.93090625,
                                            "duration" : 50
                                          }
                                        ]
                                      },
                                      "stroke-color-opacity" : 1.0,
                                      "stroke-color-red" : {
                                        "type" : "double",
                                        "defaultValue" : 0.113700037136884,
                                        "keyframes" : [
                                          {
                                            "endTime" : 50,
                                            "time" : 0,
                                            "value" : 0.113700037136884,
                                            "duration" : 50
                                          }
                                        ]
                                      },
                                      "stroke-width" : 0.0,
                                      "width" : {
                                        "type" : "double",
                                        "defaultValue" : 7.26449372104034,
                                        "keyframes" : [
                                          {
                                            "endTime" : 50,
                                            "time" : 0,
                                            "value" : 1098.05387033492,
                                            "duration" : 50
                                          }
                                        ]
                                      },
                                      "horizontal-alignment" : "center",
                                      "stroke-style" : "solid",
                                      "vertical-alignment" : "center",
                                      "textAttributes" : {
                                        "type" : "textAttributeList",
                                        "keyframes" : [
                                          {
                                            "endTime" : 0,
                                            "time" : 0,
                                            "value" : null,
                                            "duration" : 0
                                          }
                                        ]
                                      }
                                    },
                                    "attributes" : {
                                      "autoRotateText" : true
                                    },
                                    "parameters" : {
                                      "translation0" : {
                                        "type" : "double",
                                        "defaultValue" : -6.11635186942294e-11,
                                        "keyframes" : [
                                          {
                                            "endTime" : 50,
                                            "time" : 0,
                                            "value" : -6.11635186942294e-11,
                                            "duration" : 50
                                          }
                                        ]
                                      },
                                      "translation1" : {
                                        "type" : "double",
                                        "defaultValue" : -7.98650034994353e-12,
                                        "keyframes" : [
                                          {
                                            "endTime" : 50,
                                            "time" : 0,
                                            "value" : -7.98650034994353e-12,
                                            "duration" : 50
                                          }
                                        ]
                                      },
                                      "rotation2" : {
                                        "type" : "double",
                                        "defaultValue" : 0.935769591402824,
                                        "keyframes" : [
                                          {
                                            "endTime" : 50,
                                            "time" : 0,
                                            "value" : -0.255182390620909,
                                            "duration" : 50
                                          }
                                        ]
                                      }
                                    },
                                    "effects" : [

                                    ],
                                    "start" : 34,
                                    "duration" : 60,
                                    "mediaStart" : 0,
                                    "mediaDuration" : 60,
                                    "scalar" : 1,
                                    "metadata" : {
                                      "WinSubProjectDisplayName" : "",
                                      "clipSpeedAttribute" : false
                                    },
                                    "animationTracks" : {
                                      "visual" : [
                                        {
                                          "endTime" : 50,
                                          "duration" : 50,
                                          "range" : [ 0, 50]
                                        }
                                      ]
                                    }
                                  }
                                ],
                                  "ident" : "",
                                  "audioMuted" : false,
                                  "videoHidden" : false,
                                  "magnetic" : false,
                                  "metadata" : {
                                    "IsLocked" : "False",
                                    "WinTrackHeight" : "0"
                                  }
                              },
                              {
                                "trackIndex" : 3,
                                "medias" : [
                                  {
                                    "id" : 69,
                                    "_type" : "Callout",
                                    "def" : {
                                      "kind" : "remix",
                                      "shape" : "shape-ellipse",
                                      "style" : "bold",
                                      "fill-color-blue" : {
                                        "type" : "double",
                                        "defaultValue" : 0.235294117647059,
                                        "keyframes" : [
                                          {
                                            "endTime" : 42,
                                            "time" : 0,
                                            "value" : 0.235294117647059,
                                            "duration" : 42
                                          },
                                          {
                                            "endTime" : 50,
                                            "time" : 42,
                                            "value" : 0.235294117647059,
                                            "duration" : 8
                                          }
                                        ]
                                      },
                                      "fill-color-green" : {
                                        "type" : "double",
                                        "defaultValue" : 0.298039215686275,
                                        "keyframes" : [
                                          {
                                            "endTime" : 42,
                                            "time" : 0,
                                            "value" : 0.298039215686275,
                                            "duration" : 42
                                          },
                                          {
                                            "endTime" : 50,
                                            "time" : 42,
                                            "value" : 0.298039215686275,
                                            "duration" : 8
                                          }
                                        ]
                                      },
                                      "fill-color-opacity" : 1.0,
                                      "fill-color-red" : {
                                        "type" : "double",
                                        "defaultValue" : 0.905882352941176,
                                        "keyframes" : [
                                          {
                                            "endTime" : 42,
                                            "time" : 0,
                                            "value" : 0.905882352941176,
                                            "duration" : 42
                                          },
                                          {
                                            "endTime" : 50,
                                            "time" : 42,
                                            "value" : 0.905882352941176,
                                            "duration" : 8
                                          }
                                        ]
                                      },
                                      "height" : {
                                        "type" : "double",
                                        "defaultValue" : 12.000000000389,
                                        "keyframes" : [
                                          {
                                            "endTime" : 42,
                                            "time" : 0,
                                            "value" : 673.920000000227,
                                            "duration" : 42
                                          },
                                          {
                                            "endTime" : 50,
                                            "time" : 42,
                                            "value" : 800.000000000197,
                                            "duration" : 8
                                          }
                                        ]
                                      },
                                      "stroke-color-blue" : {
                                        "type" : "double",
                                        "defaultValue" : 0.777079198166942,
                                        "keyframes" : [
                                          {
                                            "endTime" : 42,
                                            "time" : 0,
                                            "value" : 0.777079198166942,
                                            "duration" : 42
                                          },
                                          {
                                            "endTime" : 50,
                                            "time" : 42,
                                            "value" : 0.777079198166942,
                                            "duration" : 8
                                          }
                                        ]
                                      },
                                      "stroke-color-green" : {
                                        "type" : "double",
                                        "defaultValue" : 0.93090625,
                                        "keyframes" : [
                                          {
                                            "endTime" : 42,
                                            "time" : 0,
                                            "value" : 0.93090625,
                                            "duration" : 42
                                          },
                                          {
                                            "endTime" : 50,
                                            "time" : 42,
                                            "value" : 0.93090625,
                                            "duration" : 8
                                          }
                                        ]
                                      },
                                      "stroke-color-opacity" : {
                                        "type" : "double",
                                        "defaultValue" : 1.0,
                                        "keyframes" : [
                                          {
                                            "endTime" : 42,
                                            "time" : 0,
                                            "value" : 1.0,
                                            "duration" : 42
                                          },
                                          {
                                            "endTime" : 50,
                                            "time" : 42,
                                            "value" : 0.0,
                                            "duration" : 8
                                          }
                                        ]
                                      },
                                      "stroke-color-red" : {
                                        "type" : "double",
                                        "defaultValue" : 0.113700037136884,
                                        "keyframes" : [
                                          {
                                            "endTime" : 42,
                                            "time" : 0,
                                            "value" : 0.113700037136884,
                                            "duration" : 42
                                          },
                                          {
                                            "endTime" : 50,
                                            "time" : 42,
                                            "value" : 0.113700037136884,
                                            "duration" : 8
                                          }
                                        ]
                                      },
                                      "stroke-width" : {
                                        "type" : "double",
                                        "defaultValue" : 3.2972282606003,
                                        "keyframes" : [
                                          {
                                            "endTime" : 42,
                                            "time" : 0,
                                            "value" : 13.2523923911482,
                                            "duration" : 42
                                          },
                                          {
                                            "endTime" : 50,
                                            "time" : 42,
                                            "value" : 15.1486141303002,
                                            "duration" : 8
                                          }
                                        ]
                                      },
                                      "width" : {
                                        "type" : "double",
                                        "defaultValue" : 12.000000000389,
                                        "keyframes" : [
                                          {
                                            "endTime" : 42,
                                            "time" : 0,
                                            "value" : 673.920000000227,
                                            "duration" : 42
                                          },
                                          {
                                            "endTime" : 50,
                                            "time" : 42,
                                            "value" : 800.000000000197,
                                            "duration" : 8
                                          }
                                        ]
                                      },
                                      "horizontal-alignment" : "center",
                                      "stroke-style" : "solid",
                                      "vertical-alignment" : "center",
                                      "textAttributes" : {
                                        "type" : "textAttributeList",
                                        "keyframes" : [
                                          {
                                            "endTime" : 0,
                                            "time" : 0,
                                            "value" : null,
                                            "duration" : 0
                                          }
                                        ]
                                      }
                                    },
                                    "attributes" : {
                                      "autoRotateText" : true
                                    },
                                    "parameters" : {
                                      "translation0" : {
                                        "type" : "double",
                                        "defaultValue" : 1.59104729391402e-10,
                                        "keyframes" : [
                                          {
                                            "endTime" : 42,
                                            "time" : 0,
                                            "value" : 1.59104729391402e-10,
                                            "duration" : 42
                                          },
                                          {
                                            "endTime" : 50,
                                            "time" : 42,
                                            "value" : 1.59104729391402e-10,
                                            "duration" : 8
                                          }
                                        ]
                                      },
                                      "translation1" : {
                                        "type" : "double",
                                        "defaultValue" : -6.55546728012268e-11,
                                        "keyframes" : [
                                          {
                                            "endTime" : 42,
                                            "time" : 0,
                                            "value" : -6.55546728012268e-11,
                                            "duration" : 42
                                          },
                                          {
                                            "endTime" : 50,
                                            "time" : 42,
                                            "value" : -6.55546728012268e-11,
                                            "duration" : 8
                                          }
                                        ]
                                      }
                                    },
                                    "effects" : [

                                    ],
                                    "start" : 52,
                                    "duration" : 60,
                                    "mediaStart" : 0,
                                    "mediaDuration" : 60,
                                    "scalar" : 1,
                                    "metadata" : {
                                      "WinSubProjectDisplayName" : "",
                                      "clipSpeedAttribute" : false
                                    },
                                    "animationTracks" : {
                                      "visual" : [
                                        {
                                          "endTime" : 42,
                                          "duration" : 42,
                                          "range" : [ 0, 42]
                                        },
                                        {
                                          "endTime" : 50,
                                          "duration" : 8,
                                          "range" : [ 42, 8]
                                        }
                                      ]
                                    }
                                  },
                                  {
                                    "id" : 70,
                                    "_type" : "Callout",
                                    "def" : {
                                      "kind" : "remix",
                                      "shape" : "shape-rectangle",
                                      "style" : "abstract",
                                      "fill-color-blue" : {
                                        "type" : "double",
                                        "defaultValue" : 0.725490196078431,
                                        "keyframes" : [
                                          {
                                            "endTime" : 42,
                                            "time" : 14,
                                            "value" : 0.725490196078431,
                                            "duration" : 28
                                          }
                                        ]
                                      },
                                      "fill-color-green" : {
                                        "type" : "double",
                                        "defaultValue" : 0.501960784313725,
                                        "keyframes" : [
                                          {
                                            "endTime" : 42,
                                            "time" : 14,
                                            "value" : 0.501960784313725,
                                            "duration" : 28
                                          }
                                        ]
                                      },
                                      "fill-color-opacity" : 1.0,
                                      "fill-color-red" : {
                                        "type" : "double",
                                        "defaultValue" : 0.16078431372549,
                                        "keyframes" : [
                                          {
                                            "endTime" : 42,
                                            "time" : 14,
                                            "value" : 0.16078431372549,
                                            "duration" : 28
                                          }
                                        ]
                                      },
                                      "height" : {
                                        "type" : "double",
                                        "defaultValue" : 1970.84482462071,
                                        "keyframes" : [
                                          {
                                            "endTime" : 42,
                                            "time" : 14,
                                            "value" : 2713.03609938265,
                                            "duration" : 28
                                          }
                                        ]
                                      },
                                      "stroke-color-blue" : 1.0,
                                      "stroke-color-green" : 1.0,
                                      "stroke-color-opacity" : 1.0,
                                      "stroke-color-red" : 1.0,
                                      "stroke-width" : 0.0,
                                      "width" : {
                                        "type" : "double",
                                        "defaultValue" : 6.44547658048049,
                                        "keyframes" : [
                                          {
                                            "endTime" : 42,
                                            "time" : 14,
                                            "value" : 2256.39114786797,
                                            "duration" : 28
                                          }
                                        ]
                                      },
                                      "horizontal-alignment" : "center",
                                      "stroke-style" : "solid",
                                      "vertical-alignment" : "center",
                                      "textAttributes" : {
                                        "type" : "textAttributeList",
                                        "keyframes" : [
                                          {
                                            "endTime" : 0,
                                            "time" : 0,
                                            "value" : null,
                                            "duration" : 0
                                          }
                                        ]
                                      }
                                    },
                                    "attributes" : {
                                      "autoRotateText" : true
                                    },
                                    "parameters" : {
                                      "translation0" : {
                                        "type" : "double",
                                        "defaultValue" : 1.45519152283669e-10,
                                        "keyframes" : [
                                          {
                                            "endTime" : 42,
                                            "time" : 14,
                                            "value" : 1.45519152283669e-10,
                                            "duration" : 28
                                          }
                                        ]
                                      },
                                      "translation1" : {
                                        "type" : "double",
                                        "defaultValue" : 1.32367006244749e-10,
                                        "keyframes" : [
                                          {
                                            "endTime" : 42,
                                            "time" : 14,
                                            "value" : 1.32367006244749e-10,
                                            "duration" : 28
                                          }
                                        ]
                                      },
                                      "rotation2" : {
                                        "type" : "double",
                                        "defaultValue" : -0.518985227673131,
                                        "keyframes" : [
                                          {
                                            "endTime" : 42,
                                            "time" : 14,
                                            "value" : -0.518985227673131,
                                            "duration" : 28
                                          }
                                        ]
                                      }
                                    },
                                    "effects" : [

                                    ],
                                    "start" : 168,
                                    "duration" : 36,
                                    "mediaStart" : 14,
                                    "mediaDuration" : 36,
                                    "scalar" : 1,
                                    "metadata" : {
                                      "WinSubProjectDisplayName" : "",
                                      "clipSpeedAttribute" : false
                                    },
                                    "animationTracks" : {
                                      "visual" : [
                                        {
                                          "endTime" : 42,
                                          "duration" : 28,
                                          "range" : [ 14, 28],
                                          "interp" : "linr"
                                        }
                                      ]
                                    }
                                  },
                                  {
                                    "id" : 71,
                                    "_type" : "Callout",
                                    "def" : {
                                      "kind" : "remix",
                                      "shape" : "shape-rectangle",
                                      "style" : "urban",
                                      "fill-color-blue" : 0.725490196078431,
                                      "fill-color-green" : 0.501960784313725,
                                      "fill-color-opacity" : 1.0,
                                      "fill-color-red" : 0.16078431372549,
                                      "height" : 1080.00000000011,
                                      "stroke-color-blue" : 1.0,
                                      "stroke-color-green" : 1.0,
                                      "stroke-color-opacity" : 1.0,
                                      "stroke-color-red" : 1.0,
                                      "stroke-width" : 0.0,
                                      "width" : 1920.00002629153,
                                      "fill-style" : "solid",
                                      "horizontal-alignment" : "center",
                                      "stroke-style" : "solid",
                                      "vertical-alignment" : "center",
                                      "textAttributes" : {
                                        "type" : "textAttributeList",
                                        "keyframes" : [
                                          {
                                            "endTime" : 0,
                                            "time" : 0,
                                            "value" : null,
                                            "duration" : 0
                                          }
                                        ]
                                      }
                                    },
                                    "attributes" : {
                                      "autoRotateText" : true
                                    },
                                    "parameters" : {
                                      "translation0" : 1.31458509144977e-05,
                                      "translation1" : 4.2348347051302e-11
                                    },
                                    "effects" : [
                                        {
                                          "effectName" : "DropShadow",
                                          "category" : "categoryVisualEffects",
                                          "parameters" : {
                                            "angle" : {
                                              "type" : "double",
                                              "defaultValue" : 5.49778714378214,
                                              "valueBounds" : {
                                                "minValue" : 0.0,
                                                "maxValue" : 0.0,
                                                "defaultValue" : 5.49778714378214
                                              },
                                              "uiHints" : {
                                                "userInterfaceType" : 0,
                                                "unitType" : 0
                                              }
                                            },
                                            "blur" : {
                                              "type" : "double",
                                              "defaultValue" : 10.0,
                                              "valueBounds" : {
                                                "minValue" : 0.0,
                                                "maxValue" : 50.0,
                                                "defaultValue" : 10.0
                                              },
                                              "uiHints" : {
                                                "userInterfaceType" : 0,
                                                "unitType" : 0
                                              }
                                            },
                                            "color-alpha" : {
                                              "type" : "double",
                                              "defaultValue" : 1.0,
                                              "valueBounds" : {
                                                "minValue" : 0.0,
                                                "maxValue" : 1.0,
                                                "defaultValue" : 1.0
                                              },
                                              "uiHints" : {
                                                "userInterfaceType" : 0,
                                                "unitType" : 0
                                              }
                                            },
                                            "color-blue" : {
                                              "type" : "double",
                                              "defaultValue" : 0.1216,
                                              "valueBounds" : {
                                                "minValue" : 0.0,
                                                "maxValue" : 1.0,
                                                "defaultValue" : 0.1216
                                              },
                                              "uiHints" : {
                                                "userInterfaceType" : 0,
                                                "unitType" : 0
                                              }
                                            },
                                            "color-green" : {
                                              "type" : "double",
                                              "defaultValue" : 0.1216,
                                              "valueBounds" : {
                                                "minValue" : 0.0,
                                                "maxValue" : 1.0,
                                                "defaultValue" : 0.1216
                                              },
                                              "uiHints" : {
                                                "userInterfaceType" : 0,
                                                "unitType" : 0
                                              }
                                            },
                                            "color-red" : {
                                              "type" : "double",
                                              "defaultValue" : 0.1216,
                                              "valueBounds" : {
                                                "minValue" : 0.0,
                                                "maxValue" : 1.0,
                                                "defaultValue" : 0.1216
                                              },
                                              "uiHints" : {
                                                "userInterfaceType" : 0,
                                                "unitType" : 0
                                              }
                                            },
                                            "enabled" : {
                                              "type" : "int",
                                              "valueBounds" : {
                                                "minValue" : 0,
                                                "maxValue" : 1,
                                                "defaultValue" : 1
                                              },
                                              "uiHints" : {
                                                "userInterfaceType" : 0,
                                                "unitType" : 0
                                              },
                                              "keyframes" : [
                                                {
                                                  "endTime" : 0,
                                                  "time" : 0,
                                                  "value" : 1,
                                                  "duration" : 0
                                                }
                                              ]
                                            },
                                            "offset" : {
                                              "type" : "double",
                                              "defaultValue" : 10.0,
                                              "valueBounds" : {
                                                "minValue" : 0.0,
                                                "maxValue" : 250.0,
                                                "defaultValue" : 10.0
                                              },
                                              "uiHints" : {
                                                "userInterfaceType" : 0,
                                                "unitType" : 0
                                              }
                                            },
                                            "opacity" : {
                                              "type" : "double",
                                              "defaultValue" : 0.4,
                                              "valueBounds" : {
                                                "minValue" : 0.0,
                                                "maxValue" : 1.0,
                                                "defaultValue" : 0.4
                                              },
                                              "uiHints" : {
                                                "userInterfaceType" : 0,
                                                "unitType" : 0
                                              }
                                            }
                                          }
                                        }
                                    ],
                                    "start" : 204,
                                    "duration" : 254,
                                    "mediaStart" : 0,
                                    "mediaDuration" : 254,
                                    "scalar" : 1,
                                    "metadata" : {
                                      "WinSubProjectDisplayName" : "",
                                      "clipSpeedAttribute" : false
                                    },
                                    "animationTracks" : {

                                    }
                                  }
                                ],
                                "transitions" : [
                                  {
                                    "name" : "Fade",
                                    "duration" : 60,
                                    "trivial" : false,
                                    "reverse" : false,
                                    "useAudioPreRoll" : false,
                                    "useVisualPreRoll" : true,
                                    "leftMedia" : 71
                                  }
                                ],
                                  "ident" : "",
                                  "audioMuted" : false,
                                  "videoHidden" : false,
                                  "magnetic" : false,
                                  "metadata" : {
                                    "IsLocked" : "False",
                                    "WinTrackHeight" : "0"
                                  }
                              },
                              {
                                "trackIndex" : 4,
                                "medias" : [
                                  {
                                    "id" : 72,
                                    "_type" : "Callout",
                                    "def" : {
                                      "kind" : "remix",
                                      "shape" : "shape-ellipse",
                                      "style" : "bold",
                                      "fill-color-blue" : {
                                        "type" : "double",
                                        "defaultValue" : 0.235294117647059,
                                        "keyframes" : [
                                          {
                                            "endTime" : 42,
                                            "time" : 0,
                                            "value" : 0.235294117647059,
                                            "duration" : 42
                                          },
                                          {
                                            "endTime" : 50,
                                            "time" : 42,
                                            "value" : 0.235294117647059,
                                            "duration" : 8
                                          }
                                        ]
                                      },
                                      "fill-color-green" : {
                                        "type" : "double",
                                        "defaultValue" : 0.298039215686275,
                                        "keyframes" : [
                                          {
                                            "endTime" : 42,
                                            "time" : 0,
                                            "value" : 0.298039215686275,
                                            "duration" : 42
                                          },
                                          {
                                            "endTime" : 50,
                                            "time" : 42,
                                            "value" : 0.298039215686275,
                                            "duration" : 8
                                          }
                                        ]
                                      },
                                      "fill-color-opacity" : 1.0,
                                      "fill-color-red" : {
                                        "type" : "double",
                                        "defaultValue" : 0.905882352941176,
                                        "keyframes" : [
                                          {
                                            "endTime" : 42,
                                            "time" : 0,
                                            "value" : 0.905882352941176,
                                            "duration" : 42
                                          },
                                          {
                                            "endTime" : 50,
                                            "time" : 42,
                                            "value" : 0.905882352941176,
                                            "duration" : 8
                                          }
                                        ]
                                      },
                                      "height" : {
                                        "type" : "double",
                                        "defaultValue" : 12.000000000389,
                                        "keyframes" : [
                                          {
                                            "endTime" : 42,
                                            "time" : 0,
                                            "value" : 673.920000000227,
                                            "duration" : 42
                                          },
                                          {
                                            "endTime" : 50,
                                            "time" : 42,
                                            "value" : 800.000000000197,
                                            "duration" : 8
                                          }
                                        ]
                                      },
                                      "stroke-color-blue" : {
                                        "type" : "double",
                                        "defaultValue" : 0.777079198166942,
                                        "keyframes" : [
                                          {
                                            "endTime" : 42,
                                            "time" : 0,
                                            "value" : 0.777079198166942,
                                            "duration" : 42
                                          },
                                          {
                                            "endTime" : 50,
                                            "time" : 42,
                                            "value" : 0.777079198166942,
                                            "duration" : 8
                                          }
                                        ]
                                      },
                                      "stroke-color-green" : {
                                        "type" : "double",
                                        "defaultValue" : 0.93090625,
                                        "keyframes" : [
                                          {
                                            "endTime" : 42,
                                            "time" : 0,
                                            "value" : 0.93090625,
                                            "duration" : 42
                                          },
                                          {
                                            "endTime" : 50,
                                            "time" : 42,
                                            "value" : 0.93090625,
                                            "duration" : 8
                                          }
                                        ]
                                      },
                                      "stroke-color-opacity" : {
                                        "type" : "double",
                                        "defaultValue" : 1.0,
                                        "keyframes" : [
                                          {
                                            "endTime" : 42,
                                            "time" : 0,
                                            "value" : 1.0,
                                            "duration" : 42
                                          },
                                          {
                                            "endTime" : 50,
                                            "time" : 42,
                                            "value" : 0.0,
                                            "duration" : 8
                                          }
                                        ]
                                      },
                                      "stroke-color-red" : {
                                        "type" : "double",
                                        "defaultValue" : 0.113700037136884,
                                        "keyframes" : [
                                          {
                                            "endTime" : 42,
                                            "time" : 0,
                                            "value" : 0.113700037136884,
                                            "duration" : 42
                                          },
                                          {
                                            "endTime" : 50,
                                            "time" : 42,
                                            "value" : 0.113700037136884,
                                            "duration" : 8
                                          }
                                        ]
                                      },
                                      "stroke-width" : {
                                        "type" : "double",
                                        "defaultValue" : 3.2972282606003,
                                        "keyframes" : [
                                          {
                                            "endTime" : 42,
                                            "time" : 0,
                                            "value" : 13.2523923911482,
                                            "duration" : 42
                                          },
                                          {
                                            "endTime" : 50,
                                            "time" : 42,
                                            "value" : 15.1486141303002,
                                            "duration" : 8
                                          }
                                        ]
                                      },
                                      "width" : {
                                        "type" : "double",
                                        "defaultValue" : 12.000000000389,
                                        "keyframes" : [
                                          {
                                            "endTime" : 42,
                                            "time" : 0,
                                            "value" : 673.920000000227,
                                            "duration" : 42
                                          },
                                          {
                                            "endTime" : 50,
                                            "time" : 42,
                                            "value" : 800.000000000197,
                                            "duration" : 8
                                          }
                                        ]
                                      },
                                      "horizontal-alignment" : "center",
                                      "stroke-style" : "solid",
                                      "vertical-alignment" : "center",
                                      "textAttributes" : {
                                        "type" : "textAttributeList",
                                        "keyframes" : [
                                          {
                                            "endTime" : 0,
                                            "time" : 0,
                                            "value" : null,
                                            "duration" : 0
                                          }
                                        ]
                                      }
                                    },
                                    "attributes" : {
                                      "autoRotateText" : true
                                    },
                                    "parameters" : {
                                      "translation0" : {
                                        "type" : "double",
                                        "defaultValue" : 1.59104729391402e-10,
                                        "keyframes" : [
                                          {
                                            "endTime" : 42,
                                            "time" : 0,
                                            "value" : 1.59104729391402e-10,
                                            "duration" : 42
                                          },
                                          {
                                            "endTime" : 50,
                                            "time" : 42,
                                            "value" : 1.59104729391402e-10,
                                            "duration" : 8
                                          }
                                        ]
                                      },
                                      "translation1" : {
                                        "type" : "double",
                                        "defaultValue" : -6.55546728012268e-11,
                                        "keyframes" : [
                                          {
                                            "endTime" : 42,
                                            "time" : 0,
                                            "value" : -6.55546728012268e-11,
                                            "duration" : 42
                                          },
                                          {
                                            "endTime" : 50,
                                            "time" : 42,
                                            "value" : -6.55546728012268e-11,
                                            "duration" : 8
                                          }
                                        ]
                                      }
                                    },
                                    "effects" : [

                                    ],
                                    "start" : 70,
                                    "duration" : 60,
                                    "mediaStart" : 0,
                                    "mediaDuration" : 60,
                                    "scalar" : 1,
                                    "metadata" : {
                                      "WinSubProjectDisplayName" : "",
                                      "clipSpeedAttribute" : false
                                    },
                                    "animationTracks" : {
                                      "visual" : [
                                        {
                                          "endTime" : 42,
                                          "duration" : 42,
                                          "range" : [ 0, 42]
                                        },
                                        {
                                          "endTime" : 50,
                                          "duration" : 8,
                                          "range" : [ 42, 8]
                                        }
                                      ]
                                    }
                                  },
                                  {
                                    "id" : 73,
                                    "_type" : "Callout",
                                    "def" : {
                                      "kind" : "remix",
                                      "shape" : "shape-rectangle",
                                      "style" : "urban",
                                      "fill-color-blue" : {
                                        "type" : "double",
                                        "defaultValue" : 1.0,
                                        "keyframes" : [
                                          {
                                            "endTime" : 20,
                                            "time" : 0,
                                            "value" : 1.0,
                                            "duration" : 20
                                          }
                                        ]
                                      },
                                      "fill-color-green" : {
                                        "type" : "double",
                                        "defaultValue" : 1.0,
                                        "keyframes" : [
                                          {
                                            "endTime" : 20,
                                            "time" : 0,
                                            "value" : 1.0,
                                            "duration" : 20
                                          }
                                        ]
                                      },
                                      "fill-color-opacity" : 1.0,
                                      "fill-color-red" : {
                                        "type" : "double",
                                        "defaultValue" : 1.0,
                                        "keyframes" : [
                                          {
                                            "endTime" : 20,
                                            "time" : 0,
                                            "value" : 1.0,
                                            "duration" : 20
                                          }
                                        ]
                                      },
                                      "height" : {
                                        "type" : "double",
                                        "defaultValue" : 6.861561236135,
                                        "keyframes" : [
                                          {
                                            "endTime" : 20,
                                            "time" : 0,
                                            "value" : 1314.7048957085,
                                            "duration" : 20
                                          }
                                        ]
                                      },
                                      "stroke-color-blue" : 1.0,
                                      "stroke-color-green" : 1.0,
                                      "stroke-color-opacity" : 1.0,
                                      "stroke-color-red" : 1.0,
                                      "stroke-width" : 0.0,
                                      "width" : 7.99999999997041,
                                      "horizontal-alignment" : "center",
                                      "stroke-style" : "solid",
                                      "vertical-alignment" : "center",
                                      "textAttributes" : {
                                        "type" : "textAttributeList",
                                        "keyframes" : [
                                          {
                                            "endTime" : 0,
                                            "time" : 0,
                                            "value" : null,
                                            "duration" : 0
                                          }
                                        ]
                                      }
                                    },
                                    "attributes" : {
                                      "autoRotateText" : true
                                    },
                                    "parameters" : {
                                      "translation0" : {
                                        "type" : "double",
                                        "defaultValue" : -1.00115471468598e-11,
                                        "keyframes" : [
                                          {
                                            "endTime" : 20,
                                            "time" : 0,
                                            "value" : -1.00115471468598e-11,
                                            "duration" : 20
                                          }
                                        ]
                                      },
                                      "translation1" : {
                                        "type" : "double",
                                        "defaultValue" : -3.00737212910462e-12,
                                        "keyframes" : [
                                          {
                                            "endTime" : 20,
                                            "time" : 0,
                                            "value" : -3.00737212910462e-12,
                                            "duration" : 20
                                          }
                                        ]
                                      },
                                      "rotation2" : {
                                        "type" : "double",
                                        "defaultValue" : -0.523598775598299,
                                        "keyframes" : [
                                          {
                                            "endTime" : 20,
                                            "time" : 0,
                                            "value" : -0.523598775598299,
                                            "duration" : 20
                                          }
                                        ]
                                      }
                                    },
                                    "effects" : [

                                    ],
                                    "start" : 130,
                                    "duration" : 22,
                                    "mediaStart" : 0,
                                    "mediaDuration" : 22,
                                    "scalar" : 1,
                                    "metadata" : {
                                      "WinSubProjectDisplayName" : "",
                                      "clipSpeedAttribute" : false
                                    },
                                    "animationTracks" : {
                                      "visual" : [
                                        {
                                          "endTime" : 20,
                                          "duration" : 20,
                                          "range" : [ 0, 20]
                                        }
                                      ]
                                    }
                                  },
                                  {
                                    "id" : 74,
                                    "_type" : "Callout",
                                    "def" : {
                                      "kind" : "remix",
                                      "shape" : "shape-rectangle",
                                      "style" : "urban",
                                      "fill-color-blue" : {
                                        "type" : "double",
                                        "defaultValue" : 1.0,
                                        "keyframes" : [
                                          {
                                            "endTime" : 20,
                                            "time" : 0,
                                            "value" : 1.0,
                                            "duration" : 20
                                          },
                                          {
                                            "endTime" : 66,
                                            "time" : 38,
                                            "value" : 1.0,
                                            "duration" : 28
                                          }
                                        ]
                                      },
                                      "fill-color-green" : {
                                        "type" : "double",
                                        "defaultValue" : 1.0,
                                        "keyframes" : [
                                          {
                                            "endTime" : 20,
                                            "time" : 0,
                                            "value" : 1.0,
                                            "duration" : 20
                                          },
                                          {
                                            "endTime" : 66,
                                            "time" : 38,
                                            "value" : 1.0,
                                            "duration" : 28
                                          }
                                        ]
                                      },
                                      "fill-color-opacity" : 1.0,
                                      "fill-color-red" : {
                                        "type" : "double",
                                        "defaultValue" : 1.0,
                                        "keyframes" : [
                                          {
                                            "endTime" : 20,
                                            "time" : 0,
                                            "value" : 1.0,
                                            "duration" : 20
                                          },
                                          {
                                            "endTime" : 66,
                                            "time" : 38,
                                            "value" : 1.0,
                                            "duration" : 28
                                          }
                                        ]
                                      },
                                      "height" : {
                                        "type" : "double",
                                        "defaultValue" : 6.861561236135,
                                        "keyframes" : [
                                          {
                                            "endTime" : 20,
                                            "time" : 0,
                                            "value" : 1314.7048957085,
                                            "duration" : 20
                                          }
                                        ]
                                      },
                                      "stroke-color-blue" : 1.0,
                                      "stroke-color-green" : 1.0,
                                      "stroke-color-opacity" : 1.0,
                                      "stroke-color-red" : 1.0,
                                      "stroke-width" : 0.0,
                                      "width" : 7.99999999997041,
                                      "horizontal-alignment" : "center",
                                      "stroke-style" : "solid",
                                      "vertical-alignment" : "center",
                                      "textAttributes" : {
                                        "type" : "textAttributeList",
                                        "keyframes" : [
                                          {
                                            "endTime" : 0,
                                            "time" : 0,
                                            "value" : null,
                                            "duration" : 0
                                          }
                                        ]
                                      }
                                    },
                                    "attributes" : {
                                      "autoRotateText" : true
                                    },
                                    "parameters" : {
                                      "translation0" : {
                                        "type" : "double",
                                        "defaultValue" : -1.00115471468598e-11,
                                        "keyframes" : [
                                          {
                                            "endTime" : 66,
                                            "time" : 38,
                                            "value" : -1300.00000000008,
                                            "duration" : 28
                                          }
                                        ]
                                      },
                                      "translation1" : {
                                        "type" : "double",
                                        "defaultValue" : -3.00737212910462e-12,
                                        "keyframes" : [
                                          {
                                            "endTime" : 20,
                                            "time" : 0,
                                            "value" : -3.00737212910462e-12,
                                            "duration" : 20
                                          },
                                          {
                                            "endTime" : 66,
                                            "time" : 38,
                                            "value" : -3.00737212910462e-12,
                                            "duration" : 28
                                          }
                                        ]
                                      },
                                      "rotation2" : {
                                        "type" : "double",
                                        "defaultValue" : -0.523598775598299,
                                        "keyframes" : [
                                          {
                                            "endTime" : 20,
                                            "time" : 0,
                                            "value" : -0.523598775598299,
                                            "duration" : 20
                                          },
                                          {
                                            "endTime" : 66,
                                            "time" : 38,
                                            "value" : -0.523598775598299,
                                            "duration" : 28
                                          }
                                        ]
                                      }
                                    },
                                    "effects" : [

                                    ],
                                    "start" : 152,
                                    "duration" : 48,
                                    "mediaStart" : 22,
                                    "mediaDuration" : 48,
                                    "scalar" : 1,
                                    "metadata" : {
                                      "WinSubProjectDisplayName" : "",
                                      "clipSpeedAttribute" : false
                                    },
                                    "animationTracks" : {
                                      "visual" : [
                                        {
                                          "endTime" : 20,
                                          "duration" : 20,
                                          "range" : [ 0, 20]
                                        },
                                        {
                                          "endTime" : 66,
                                          "duration" : 28,
                                          "range" : [ 38, 28],
                                          "interp" : "linr"
                                        }
                                      ]
                                    }
                                  }
                                ],
                                  "ident" : "",
                                  "audioMuted" : false,
                                  "videoHidden" : false,
                                  "magnetic" : false,
                                  "metadata" : {
                                    "IsLocked" : "False",
                                    "WinTrackHeight" : "0"
                                  }
                              },
                              {
                                "trackIndex" : 5,
                                "medias" : [
                                  {
                                    "id" : 75,
                                    "_type" : "Callout",
                                    "def" : {
                                      "kind" : "remix",
                                      "shape" : "shape-rectangle",
                                      "style" : "urban",
                                      "fill-color-blue" : {
                                        "type" : "double",
                                        "defaultValue" : 1.0,
                                        "keyframes" : [
                                          {
                                            "endTime" : 20,
                                            "time" : 0,
                                            "value" : 1.0,
                                            "duration" : 20
                                          },
                                          {
                                            "endTime" : 66,
                                            "time" : 38,
                                            "value" : 1.0,
                                            "duration" : 28
                                          }
                                        ]
                                      },
                                      "fill-color-green" : {
                                        "type" : "double",
                                        "defaultValue" : 1.0,
                                        "keyframes" : [
                                          {
                                            "endTime" : 20,
                                            "time" : 0,
                                            "value" : 1.0,
                                            "duration" : 20
                                          },
                                          {
                                            "endTime" : 66,
                                            "time" : 38,
                                            "value" : 1.0,
                                            "duration" : 28
                                          }
                                        ]
                                      },
                                      "fill-color-opacity" : 1.0,
                                      "fill-color-red" : {
                                        "type" : "double",
                                        "defaultValue" : 1.0,
                                        "keyframes" : [
                                          {
                                            "endTime" : 20,
                                            "time" : 0,
                                            "value" : 1.0,
                                            "duration" : 20
                                          },
                                          {
                                            "endTime" : 66,
                                            "time" : 38,
                                            "value" : 1.0,
                                            "duration" : 28
                                          }
                                        ]
                                      },
                                      "height" : {
                                        "type" : "double",
                                        "defaultValue" : 6.861561236135,
                                        "keyframes" : [
                                          {
                                            "endTime" : 20,
                                            "time" : 0,
                                            "value" : 1314.7048957085,
                                            "duration" : 20
                                          }
                                        ]
                                      },
                                      "stroke-color-blue" : 1.0,
                                      "stroke-color-green" : 1.0,
                                      "stroke-color-opacity" : 1.0,
                                      "stroke-color-red" : 1.0,
                                      "stroke-width" : 0.0,
                                      "width" : 7.99999999997041,
                                      "horizontal-alignment" : "center",
                                      "stroke-style" : "solid",
                                      "vertical-alignment" : "center",
                                      "textAttributes" : {
                                        "type" : "textAttributeList",
                                        "keyframes" : [
                                          {
                                            "endTime" : 0,
                                            "time" : 0,
                                            "value" : null,
                                            "duration" : 0
                                          }
                                        ]
                                      }
                                    },
                                    "attributes" : {
                                      "autoRotateText" : true
                                    },
                                    "parameters" : {
                                      "translation0" : {
                                        "type" : "double",
                                        "defaultValue" : -1.00115471468598e-11,
                                        "keyframes" : [
                                          {
                                            "endTime" : 66,
                                            "time" : 38,
                                            "value" : 1302.00000000006,
                                            "duration" : 28
                                          }
                                        ]
                                      },
                                      "translation1" : {
                                        "type" : "double",
                                        "defaultValue" : -3.00737212910462e-12,
                                        "keyframes" : [
                                          {
                                            "endTime" : 20,
                                            "time" : 0,
                                            "value" : -3.00737212910462e-12,
                                            "duration" : 20
                                          },
                                          {
                                            "endTime" : 66,
                                            "time" : 38,
                                            "value" : -3.00737212910462e-12,
                                            "duration" : 28
                                          }
                                        ]
                                      },
                                      "rotation2" : {
                                        "type" : "double",
                                        "defaultValue" : -0.523598775598299,
                                        "keyframes" : [
                                          {
                                            "endTime" : 20,
                                            "time" : 0,
                                            "value" : -0.523598775598299,
                                            "duration" : 20
                                          },
                                          {
                                            "endTime" : 66,
                                            "time" : 38,
                                            "value" : -0.523598775598299,
                                            "duration" : 28
                                          }
                                        ]
                                      }
                                    },
                                    "effects" : [

                                    ],
                                    "start" : 152,
                                    "duration" : 48,
                                    "mediaStart" : 22,
                                    "mediaDuration" : 48,
                                    "scalar" : 1,
                                    "metadata" : {
                                      "WinSubProjectDisplayName" : "",
                                      "clipSpeedAttribute" : false
                                    },
                                    "animationTracks" : {
                                      "visual" : [
                                        {
                                          "endTime" : 20,
                                          "duration" : 20,
                                          "range" : [ 0, 20]
                                        },
                                        {
                                          "endTime" : 66,
                                          "duration" : 28,
                                          "range" : [ 38, 28],
                                          "interp" : "linr"
                                        }
                                      ]
                                    }
                                  }
                                ],
                                  "ident" : "",
                                  "audioMuted" : false,
                                  "videoHidden" : false,
                                  "magnetic" : false,
                                  "metadata" : {
                                    "IsLocked" : "False",
                                    "WinTrackHeight" : "0"
                                  }
                              },
                              {
                                "trackIndex" : 6,
                                "medias" : [
                                  {
                                    "id" : 76,
                                    "_type" : "IMFile",
                                    "src" : 55,
                                    "trackNumber" : 0,
                                    "trimStartSum" : 0,
                                    "attributes" : {
                                      "ident" : "Lens-Shadow-001"
                                    },
                                    "parameters" : {
                                      "opacity" : 0.5
                                    },
                                    "effects" : [

                                    ],
                                    "start" : 0,
                                    "duration" : 458,
                                    "mediaStart" : 0,
                                    "mediaDuration" : 458,
                                    "scalar" : 1,
                                    "metadata" : {
                                      "WinSubProjectDisplayName" : "",
                                      "clipSpeedAttribute" : false
                                    },
                                    "animationTracks" : {

                                    }
                                  }
                                ],
                                "transitions" : [
                                  {
                                    "name" : "Fade",
                                    "duration" : 60,
                                    "trivial" : false,
                                    "reverse" : false,
                                    "useAudioPreRoll" : false,
                                    "useVisualPreRoll" : true,
                                    "leftMedia" : 76
                                  }
                                ],
                                  "ident" : "",
                                  "audioMuted" : false,
                                  "videoHidden" : false,
                                  "magnetic" : false,
                                  "metadata" : {
                                    "IsLocked" : "False",
                                    "WinTrackHeight" : "0"
                                  }
                              }
                            ],
                            "attributes" : {
                              "ident" : "Shapes",
                              "gain" : 1.0,
                              "mixToMono" : false
                            },
                            "effects" : [

                            ],
                            "start" : 0,
                            "duration" : 458,
                            "mediaStart" : 0.0,
                            "mediaDuration" : 458.0,
                            "scalar" : 1,
                            "metadata" : {
                              "IsGroupExpanded" : "False",
                              "WinSubProjectDisplayName" : "Shapes",
                              "clipSpeedAttribute" : false,
                              "effectApplied" : "none",
                              "isOpen" : false
                            },
                            "animationTracks" : {

                            }
                          }
                        ],
                          "ident" : "",
                          "audioMuted" : false,
                          "videoHidden" : false,
                          "magnetic" : false,
                          "metadata" : {
                            "IsLocked" : "False",
                            "WinTrackHeight" : "0"
                          }
                      },
                      {
                        "trackIndex" : 1,
                        "medias" : [
                          {
                            "id" : 77,
                            "_type" : "Callout",
                            "def" : {
                              "kind" : "remix",
                              "shape" : "text",
                              "style" : "basic",
                              "height" : 72.0000000001311,
                              "line-spacing" : 0.0,
                              "width" : 1153.09090909266,
                              "word-wrap" : 1.0,
                              "horizontal-alignment" : "center",
                              "resize-behavior" : "resizeText",
                              "text" : "scratch.oneoffcoder.com",
                              "vertical-alignment" : "center",
                              "font" : {
                                "color-blue" : 1.0,
                                "color-green" : 1.0,
                                "color-red" : 1.0,
                                "size" : 96.0,
                                "tracking" : 0.0,
                                "name" : "Montserrat",
                                "weight" : "Regular"
                              },
                              "textAttributes" : {
                                "type" : "textAttributeList",
                                "keyframes" : [
                                  {
                                    "endTime" : 0,
                                    "time" : 0,
                                    "value" : [{"name":"underline","rangeEnd":23,"rangeStart":0,"value":0,"valueType":"int"},{"name":"fontName","rangeEnd":23,"rangeStart":0,"value":"Montserrat","valueType":"string"},{"name":"fontItalic","rangeEnd":23,"rangeStart":0,"value":0,"valueType":"int"},{"name":"strikethrough","rangeEnd":23,"rangeStart":0,"value":0,"valueType":"int"},{"name":"fontSize","rangeEnd":23,"rangeStart":0,"value":51,"valueType":"double"},{"name":"kerning","rangeEnd":23,"rangeStart":0,"value":0,"valueType":"double"},{"name":"fgColor","rangeEnd":23,"rangeStart":0,"value":"(255,255,255,255)","valueType":"color"},{"name":"fontWeight","rangeEnd":23,"rangeStart":0,"value":400,"valueType":"int"}],
                                    "duration" : 0
                                  }
                                ]
                              }
                            },
                            "attributes" : {
                              "autoRotateText" : true
                            },
                            "parameters" : {
                              "translation0" : 0.454545453540789,
                              "translation1" : -123.000000000281
                            },
                            "effects" : [
                                {
                                  "_type" : "GenericBehaviorEffect",
                                  "effectName" : "pulsating",
                                  "start" : 0,
                                  "duration" : 220                                ,
                                  "in" : {
                                    "attributes" : {
                                      "name" : "grow",
                                      "type" : 1,
                                      "characterOrder" : 6,
                                      "offsetBetweenCharacters" : 2,
                                      "suggestedDurationPerCharacter" : 36,
                                      "overlapProportion" : "3/4",
                                      "movement" : 30,
                                      "springDamping" : 5.0,
                                      "springStiffness" : 50.0,
                                      "bounceBounciness" : 0.45
                                    }
                                  
                                  },
                                  "center" : {
                                    "attributes" : {
                                      "name" : "none",
                                      "type" : 1,
                                      "characterOrder" : 6,
                                      "offsetBetweenCharacters" : 0,
                                      "secondsPerLoop" : 1,
                                      "numberOfLoops" : -1,
                                      "delayBetweenLoops" : 0,
                                      "offsetBetweenCharacters" : 0
                                    }
                                  
                                  },
                                  "out" : {
                                    "attributes" : {
                                      "name" : "none",
                                      "type" : 1,
                                      "characterOrder" : 6,
                                      "offsetBetweenCharacters" : 0,
                                      "suggestedDurationPerCharacter" : 0,
                                      "overlapProportion" : 0,
                                      "movement" : -1,
                                      "springDamping" : 5.0,
                                      "springStiffness" : 50.0,
                                      "bounceBounciness" : 0.45
                                    }
                                  
                                  }
                                }
                            ],
                            "start" : 238,
                            "duration" : 220,
                            "mediaStart" : 0,
                            "mediaDuration" : 220,
                            "scalar" : 1,
                            "metadata" : {
                              "WinSubProjectDisplayName" : "",
                              "clipSpeedAttribute" : false,
                              "default-HAlign" : "center",
                              "default-LineSpace" : 0.0,
                              "default-VAlign" : "center",
                              "default-text-attributes" : "[{\"name\":\"fontName\",\"rangeEnd\":17,\"rangeStart\":0,\"value\":\"Montserrat\",\"valueType\":\"string\"},{\"name\":\"strikethrough\",\"rangeEnd\":17,\"rangeStart\":0,\"value\":0,\"valueType\":\"int\"},{\"name\":\"fgColor\",\"rangeEnd\":17,\"rangeStart\":0,\"value\":\"(255,255,255,255)\",\"valueType\":\"color\"},{\"name\":\"fontItalic\",\"rangeEnd\":17,\"rangeStart\":0,\"value\":0,\"valueType\":\"int\"},{\"name\":\"fontSize\",\"rangeEnd\":17,\"rangeStart\":0,\"value\":51,\"valueType\":\"double\"},{\"name\":\"fontWeight\",\"rangeEnd\":17,\"rangeStart\":0,\"value\":100,\"valueType\":\"int\"},{\"name\":\"underline\",\"rangeEnd\":17,\"rangeStart\":0,\"value\":0,\"valueType\":\"int\"}]",
                              "effectApplied" : "none"
                            },
                            "animationTracks" : {

                            }
                          }
                        ],
                        "transitions" : [
                          {
                            "name" : "Fade",
                            "duration" : 60,
                            "trivial" : false,
                            "reverse" : false,
                            "useAudioPreRoll" : false,
                            "useVisualPreRoll" : true,
                            "leftMedia" : 77
                          }
                        ],
                          "ident" : "",
                          "audioMuted" : false,
                          "videoHidden" : false,
                          "magnetic" : false,
                          "metadata" : {
                            "IsLocked" : "False",
                            "WinTrackHeight" : "1.03347310004105e-311"
                          }
                      },
                      {
                        "trackIndex" : 2,
                        "medias" : [
                          {
                            "id" : 78,
                            "_type" : "Callout",
                            "def" : {
                              "kind" : "remix",
                              "shape" : "text",
                              "style" : "basic",
                              "height" : 187.999999999995,
                              "line-spacing" : 0.0,
                              "width" : 1920.21538461358,
                              "word-wrap" : 1.0,
                              "horizontal-alignment" : "center",
                              "resize-behavior" : "resizeText",
                              "text" : "Scratch Programming",
                              "vertical-alignment" : "center",
                              "font" : {
                                "color-blue" : 1.0,
                                "color-green" : 1.0,
                                "color-red" : 1.0,
                                "size" : 96.0,
                                "tracking" : 0.0,
                                "name" : "Montserrat",
                                "weight" : "Regular"
                              },
                              "textAttributes" : {
                                "type" : "textAttributeList",
                                "keyframes" : [
                                  {
                                    "endTime" : 0,
                                    "time" : 0,
                                    "value" : [{"name":"fontWeight","rangeEnd":19,"rangeStart":0,"value":400,"valueType":"int"},{"name":"strikethrough","rangeEnd":19,"rangeStart":0,"value":0,"valueType":"int"},{"name":"kerning","rangeEnd":19,"rangeStart":0,"value":0,"valueType":"double"},{"name":"underline","rangeEnd":19,"rangeStart":0,"value":0,"valueType":"int"},{"name":"fontName","rangeEnd":19,"rangeStart":0,"value":"Montserrat","valueType":"string"},{"name":"fontSize","rangeEnd":19,"rangeStart":0,"value":151,"valueType":"double"},{"name":"fontItalic","rangeEnd":19,"rangeStart":0,"value":0,"valueType":"int"},{"name":"fgColor","rangeEnd":19,"rangeStart":0,"value":"(255,255,255,255)","valueType":"color"}],
                                    "duration" : 0
                                  }
                                ]
                              }
                            },
                            "attributes" : {
                              "autoRotateText" : true
                            },
                            "parameters" : {
                              "translation0" : 0.284641677673506,
                              "translation1" : 1.70459202308849e-11
                            },
                            "effects" : [
                                {
                                  "_type" : "GenericBehaviorEffect",
                                  "effectName" : "popUp",
                                  "start" : 4,
                                  "duration" : 282                                ,
                                  "in" : {
                                    "attributes" : {
                                      "name" : "hinge",
                                      "type" : 1,
                                      "characterOrder" : 6,
                                      "offsetBetweenCharacters" : 3,
                                      "suggestedDurationPerCharacter" : 147,
                                      "overlapProportion" : "1/3",
                                      "movement" : 30,
                                      "springDamping" : 5.0,
                                      "springStiffness" : 50.0,
                                      "bounceBounciness" : 0.45
                                    },
                                    "parameters" : {
                                      "direction" : {
                                        "type" : "int",
                                        "valueBounds" : {
                                          "minValue" : 0,
                                          "maxValue" : 3,
                                          "defaultValue" : 3
                                        },
                                        "uiHints" : {
                                          "userInterfaceType" : 2,
                                          "unitType" : 0
                                        },
                                        "keyframes" : [
                                          {
                                            "endTime" : 0,
                                            "time" : 0,
                                            "value" : 3,
                                            "duration" : 0
                                          }
                                        ]
                                      }
                                    }
                                  
                                  },
                                  "center" : {
                                    "attributes" : {
                                      "name" : "none",
                                      "type" : 1,
                                      "characterOrder" : 6,
                                      "offsetBetweenCharacters" : 0,
                                      "secondsPerLoop" : 1,
                                      "numberOfLoops" : -1,
                                      "delayBetweenLoops" : 0,
                                      "offsetBetweenCharacters" : 0
                                    }
                                  
                                  },
                                  "out" : {
                                    "attributes" : {
                                      "name" : "none",
                                      "type" : 1,
                                      "characterOrder" : 6,
                                      "offsetBetweenCharacters" : 0,
                                      "suggestedDurationPerCharacter" : 0,
                                      "overlapProportion" : 0,
                                      "movement" : -1,
                                      "springDamping" : 5.0,
                                      "springStiffness" : 50.0,
                                      "bounceBounciness" : 0.45
                                    }
                                  
                                  }
                                }
                            ],
                            "start" : 176,
                            "duration" : 282,
                            "mediaStart" : 4,
                            "mediaDuration" : 282,
                            "scalar" : 1,
                            "metadata" : {
                              "WinSubProjectDisplayName" : "",
                              "clipSpeedAttribute" : false,
                              "default-HAlign" : "center",
                              "default-LineSpace" : 0.0,
                              "default-VAlign" : "center",
                              "default-text-attributes" : "[{\"name\":\"fontSize\",\"rangeEnd\":9,\"rangeStart\":0,\"value\":151,\"valueType\":\"double\"},{\"name\":\"underline\",\"rangeEnd\":9,\"rangeStart\":0,\"value\":0,\"valueType\":\"int\"},{\"name\":\"fontWeight\",\"rangeEnd\":9,\"rangeStart\":0,\"value\":100,\"valueType\":\"int\"},{\"name\":\"strikethrough\",\"rangeEnd\":9,\"rangeStart\":0,\"value\":0,\"valueType\":\"int\"},{\"name\":\"fontItalic\",\"rangeEnd\":9,\"rangeStart\":0,\"value\":0,\"valueType\":\"int\"},{\"name\":\"fgColor\",\"rangeEnd\":9,\"rangeStart\":0,\"value\":\"(255,255,255,255)\",\"valueType\":\"color\"},{\"name\":\"fontName\",\"rangeEnd\":9,\"rangeStart\":0,\"value\":\"Montserrat\",\"valueType\":\"string\"}]",
                              "effectApplied" : "none"
                            },
                            "animationTracks" : {

                            }
                          }
                        ],
                        "transitions" : [
                          {
                            "name" : "Fade",
                            "duration" : 60,
                            "trivial" : false,
                            "reverse" : false,
                            "useAudioPreRoll" : false,
                            "useVisualPreRoll" : true,
                            "leftMedia" : 78
                          }
                        ],
                          "ident" : "",
                          "audioMuted" : false,
                          "videoHidden" : false,
                          "magnetic" : false,
                          "metadata" : {
                            "IsLocked" : "False",
                            "WinTrackHeight" : "1.03347310004105e-311"
                          }
                      },
                      {
                        "trackIndex" : 3,
                        "medias" : [
                          {
                            "id" : 79,
                            "_type" : "Callout",
                            "def" : {
                              "kind" : "remix",
                              "shape" : "text-rectangle",
                              "style" : "basic",
                              "fill-color-blue" : 0.235294117647059,
                              "fill-color-green" : 0.298039215686275,
                              "fill-color-opacity" : 1.0,
                              "fill-color-red" : 0.901960784313726,
                              "height" : 83.9999999998924,
                              "line-spacing" : 0.0,
                              "stroke-color-blue" : 0.777079198166942,
                              "stroke-color-green" : 0.93090625,
                              "stroke-color-opacity" : 1.0,
                              "stroke-color-red" : 0.113700037136884,
                              "stroke-width" : 0.0,
                              "width" : 732.000000000374,
                              "word-wrap" : 1.0,
                              "horizontal-alignment" : "left",
                              "resize-behavior" : "resizeText",
                              "stroke-style" : "solid",
                              "text" : "ONE-OFF CODER",
                              "vertical-alignment" : "center",
                              "font" : {
                                "color-blue" : 0.266666666666667,
                                "color-green" : 0.231372549019608,
                                "color-opacity" : 1.0,
                                "color-red" : 0.184313725490196,
                                "size" : 64.0,
                                "tracking" : 0.0,
                                "name" : "Montserrat",
                                "weight" : "Regular"
                              },
                              "textAttributes" : {
                                "type" : "textAttributeList",
                                "keyframes" : [
                                  {
                                    "endTime" : 0,
                                    "time" : 0,
                                    "value" : [{"name":"strikethrough","rangeEnd":13,"rangeStart":0,"value":0,"valueType":"int"},{"name":"fontWeight","rangeEnd":13,"rangeStart":0,"value":700,"valueType":"int"},{"name":"fontSize","rangeEnd":13,"rangeStart":0,"value":64,"valueType":"double"},{"name":"fontItalic","rangeEnd":13,"rangeStart":0,"value":0,"valueType":"int"},{"name":"kerning","rangeEnd":13,"rangeStart":0,"value":0,"valueType":"double"},{"name":"fontName","rangeEnd":13,"rangeStart":0,"value":"Montserrat","valueType":"string"},{"name":"underline","rangeEnd":13,"rangeStart":0,"value":0,"valueType":"int"},{"name":"fgColor","rangeEnd":13,"rangeStart":0,"value":"(255,255,255,255)","valueType":"color"}],
                                    "duration" : 0
                                  }
                                ]
                              }
                            },
                            "attributes" : {
                              "autoRotateText" : true
                            },
                            "parameters" : {
                              "translation0" : -80.999999999634,
                              "translation1" : 145.999999999818
                            },
                            "effects" : [

                            ],
                            "start" : 182,
                            "duration" : 276,
                            "mediaStart" : 0,
                            "mediaDuration" : 276,
                            "scalar" : 1,
                            "metadata" : {
                              "WinSubProjectDisplayName" : "",
                              "clipSpeedAttribute" : false,
                              "default-HAlign" : "left",
                              "default-LineSpace" : 0.0,
                              "default-VAlign" : "center",
                              "default-text-attributes" : "[{\"name\":\"fontName\",\"rangeEnd\":8,\"rangeStart\":0,\"value\":\"Montserrat\",\"valueType\":\"string\"},{\"name\":\"underline\",\"rangeEnd\":8,\"rangeStart\":0,\"value\":0,\"valueType\":\"int\"},{\"name\":\"fontItalic\",\"rangeEnd\":8,\"rangeStart\":0,\"value\":0,\"valueType\":\"int\"},{\"name\":\"fgColor\",\"rangeEnd\":8,\"rangeStart\":0,\"value\":\"(255,255,255,255)\",\"valueType\":\"color\"},{\"name\":\"fontSize\",\"rangeEnd\":8,\"rangeStart\":0,\"value\":64,\"valueType\":\"double\"},{\"name\":\"fontWeight\",\"rangeEnd\":8,\"rangeStart\":0,\"value\":700,\"valueType\":\"int\"},{\"name\":\"strikethrough\",\"rangeEnd\":8,\"rangeStart\":0,\"value\":0,\"valueType\":\"int\"}]",
                              "effectApplied" : "none"
                            },
                            "animationTracks" : {

                            }
                          }
                        ],
                        "transitions" : [
                          {
                            "name" : "Fade",
                            "duration" : 60,
                            "trivial" : false,
                            "reverse" : false,
                            "useAudioPreRoll" : false,
                            "useVisualPreRoll" : true,
                            "leftMedia" : 79
                          }
                        ],
                          "ident" : "",
                          "audioMuted" : false,
                          "videoHidden" : false,
                          "magnetic" : false,
                          "metadata" : {
                            "IsLocked" : "False",
                            "WinTrackHeight" : "1.03347310004105e-311"
                          }
                      }
                    ],
                    "attributes" : {
                      "ident" : "linewipe",
                      "gain" : 1.0,
                      "mixToMono" : false,
                      "assetProperties" : [
                        {
                          "type" : 0,
                          "name" : "Title",
                          "objects" : [ 78 ],
                          "themeMappings" :  {
                            "font-color" : "foreground-1",
                            "font-family" : "font-1"
                          }
                        },
                        {
                          "type" : 0,
                          "name" : "Subtitle",
                          "objects" : [ 79 ],
                          "themeMappings" :  {
                            "font-color" : "foreground-1",
                            "font-family" : "font-1"
                          }
                        },
                        {
                          "type" : 0,
                          "name" : "Subtitle 2",
                          "objects" : [ 77 ],
                          "themeMappings" :  {
                            "font-color" : "foreground-1",
                            "font-family" : "font-1"
                          }
                        },
                        {
                          "type" : 1,
                          "name" : "Color 1",
                          "objects" : [ 79, 66, 68, 69, 72 ],
                          "themeMappings" :  {
                            "fill" : "accent-1",
                            "outline" : "foreground-1"
                          }
                        },
                        {
                          "type" : 1,
                          "name" : "Color 2",
                          "objects" : [ 67, 70, 71 ],
                          "themeMappings" :  {
                            "fill" : "background-1"
                          }
                        }
                      ]
                    },
                    "effects" : [

                    ],
                    "start" : 0,
                    "duration" : 458,
                    "mediaStart" : 0.0,
                    "mediaDuration" : 458.0,
                    "scalar" : 1,
                    "metadata" : {
                      "AppliedThemeId" : "",
                      "IsGroupExpanded" : "False",
                      "WinSubProjectDisplayName" : "",
                      "clipSpeedAttribute" : false,
                      "effectApplied" : "none",
                      "isOpen" : false
                    },
                    "animationTracks" : {

                    }
                  },
                  {
                    "id" : 80,
                    "_type" : "Group",
                    "parameters" : {
                      "volume" : 1.0
                    },
                    "tracks" : [
                      {
                        "trackIndex" : 0,
                        "medias" : [
                          {
                            "id" : 81,
                            "_type" : "UnifiedMedia",
                            "video" : 
                                {
                                  "id" : 82,
                                  "_type" : "VMFile",
                                  "src" : 51,
                                  "trackNumber" : 0,
                                  "attributes" : {
                                    "ident" : "Movie"
                                  },
                                  "effects" : [

                                  ],
                                  "start" : 114,
                                  "duration" : 176,
                                  "mediaStart" : 114,
                                  "mediaDuration" : 176,
                                  "scalar" : 1,
                                  "animationTracks" : {

                                  }
                                },
                            "audio" : 
                                {
                                  "id" : 83,
                                  "_type" : "AMFile",
                                  "src" : 51,
                                  "trackNumber" : 1,
                                  "attributes" : {
                                    "ident" : "",
                                    "gain" : 1.0,
                                    "mixToMono" : false
                                  },
                                    "channelNumber" : "0,1",
                                  "effects" : [

                                  ],
                                  "start" : 114,
                                  "duration" : 176,
                                  "mediaStart" : 114,
                                  "mediaDuration" : 176,
                                  "scalar" : 1,
                                  "animationTracks" : {

                                  }
                                }
,
                            "start" : 114,
                            "duration" : 176,
                            "mediaStart" : 0,
                            "mediaDuration" : 438,
                            "scalar" : 1,
                            "metadata" : {
                              "WinSubProjectDisplayName" : "",
                              "clipSpeedAttribute" : false,
                              "effectApplied" : "none"
                            }
                          }
                        ],
                          "ident" : "",
                          "audioMuted" : false,
                          "videoHidden" : false,
                          "magnetic" : false,
                          "metadata" : {
                            "IsLocked" : "False",
                            "WinTrackHeight" : "0",
                            "trackHeight" : "48"
                          }
                      },
                      {
                        "trackIndex" : 1,
                        "medias" : [
                          {
                            "id" : 84,
                            "_type" : "Callout",
                            "def" : {
                              "kind" : "remix",
                              "shape" : "text",
                              "style" : "basic",
                              "height" : 78.4795300319492,
                              "line-spacing" : 0.0,
                              "width" : 583.0,
                              "word-wrap" : 1.0,
                              "horizontal-alignment" : "center",
                              "resize-behavior" : "resizeText",
                              "text" : "motion",
                              "vertical-alignment" : "center",
                              "font" : {
                                "color-blue" : 1.0,
                                "color-green" : 1.0,
                                "color-red" : 1.0,
                                "size" : 96.0,
                                "tracking" : 0.0,
                                "name" : "Montserrat",
                                "weight" : "Regular"
                              },
                              "textAttributes" : {
                                "type" : "textAttributeList",
                                "keyframes" : [
                                  {
                                    "endTime" : 0,
                                    "time" : 0,
                                    "value" : [{"name":"fontWeight","rangeEnd":6,"rangeStart":0,"value":400,"valueType":"int"},{"name":"fontItalic","rangeEnd":6,"rangeStart":0,"value":0,"valueType":"int"},{"name":"fontName","rangeEnd":6,"rangeStart":0,"value":"Montserrat","valueType":"string"},{"name":"fontSize","rangeEnd":6,"rangeStart":0,"value":55,"valueType":"double"},{"name":"fgColor","rangeEnd":6,"rangeStart":0,"value":"(239,231,195,255)","valueType":"color"},{"name":"strikethrough","rangeEnd":6,"rangeStart":0,"value":0,"valueType":"int"},{"name":"underline","rangeEnd":6,"rangeStart":0,"value":0,"valueType":"int"},{"name":"kerning","rangeEnd":6,"rangeStart":0,"value":0,"valueType":"double"}],
                                    "duration" : 0
                                  }
                                ]
                              }
                            },
                            "attributes" : {
                              "autoRotateText" : true
                            },
                            "parameters" : {
                              "translation0" : -1.77887982122371e-11,
                              "translation1" : -100.336673040374
                            },
                            "effects" : [
                                {
                                  "_type" : "GenericBehaviorEffect",
                                  "effectName" : "sliding",
                                  "start" : -18,
                                  "duration" : 80                                ,
                                  "in" : {
                                    "attributes" : {
                                      "name" : "sliding",
                                      "type" : 1,
                                      "characterOrder" : 0,
                                      "offsetBetweenCharacters" : 3,
                                      "suggestedDurationPerCharacter" : "999/50",
                                      "overlapProportion" : "11/20",
                                      "movement" : 16,
                                      "springDamping" : 5.0,
                                      "springStiffness" : 50.0,
                                      "bounceBounciness" : 0.45
                                    },
                                    "parameters" : {
                                      "direction" : {
                                        "type" : "int",
                                        "valueBounds" : {
                                          "minValue" : 0,
                                          "maxValue" : 3,
                                          "defaultValue" : 0
                                        },
                                        "uiHints" : {
                                          "userInterfaceType" : 2,
                                          "unitType" : 0
                                        },
                                        "keyframes" : [
                                          {
                                            "endTime" : 0,
                                            "time" : 0,
                                            "value" : 3,
                                            "duration" : 0
                                          }
                                        ]
                                      }
                                    }
                                  
                                  },
                                  "center" : {
                                    "attributes" : {
                                      "name" : "none",
                                      "type" : 1,
                                      "characterOrder" : 6,
                                      "offsetBetweenCharacters" : 0,
                                      "secondsPerLoop" : 1,
                                      "numberOfLoops" : -1,
                                      "delayBetweenLoops" : 0,
                                      "offsetBetweenCharacters" : 0
                                    }
                                  
                                  },
                                  "out" : {
                                    "attributes" : {
                                      "name" : "none",
                                      "type" : 1,
                                      "characterOrder" : 6,
                                      "offsetBetweenCharacters" : 0,
                                      "suggestedDurationPerCharacter" : 0,
                                      "overlapProportion" : 0,
                                      "movement" : -1,
                                      "springDamping" : 5.0,
                                      "springStiffness" : 50.0,
                                      "bounceBounciness" : 0.45
                                    }
                                  
                                  }
                                }
                            ],
                            "start" : 210,
                            "duration" : 80,
                            "mediaStart" : -18,
                            "mediaDuration" : 80,
                            "scalar" : 1,
                            "metadata" : {
                              "WinSubProjectDisplayName" : "",
                              "clipSpeedAttribute" : false,
                              "default-HAlign" : "center",
                              "default-LineSpace" : 0.0,
                              "default-VAlign" : "center",
                              "default-text-attributes" : "[{\"name\":\"strikethrough\",\"rangeEnd\":13,\"rangeStart\":0,\"value\":0,\"valueType\":\"int\"},{\"name\":\"fontWeight\",\"rangeEnd\":13,\"rangeStart\":0,\"value\":100,\"valueType\":\"int\"},{\"name\":\"fontSize\",\"rangeEnd\":13,\"rangeStart\":0,\"value\":55,\"valueType\":\"double\"},{\"name\":\"underline\",\"rangeEnd\":13,\"rangeStart\":0,\"value\":0,\"valueType\":\"int\"},{\"name\":\"fgColor\",\"rangeEnd\":13,\"rangeStart\":0,\"value\":\"(239,231,195,255)\",\"valueType\":\"color\"},{\"name\":\"fontItalic\",\"rangeEnd\":13,\"rangeStart\":0,\"value\":0,\"valueType\":\"int\"},{\"name\":\"fontName\",\"rangeEnd\":13,\"rangeStart\":0,\"value\":\"Montserrat\",\"valueType\":\"string\"}]",
                              "effectApplied" : "none"
                            },
                            "animationTracks" : {

                            }
                          }
                        ],
                          "ident" : "",
                          "audioMuted" : false,
                          "videoHidden" : false,
                          "magnetic" : false,
                          "metadata" : {
                            "IsLocked" : "False",
                            "WinTrackHeight" : "1.18064664215163e-311",
                            "trackHeight" : "48"
                          }
                      },
                      {
                        "trackIndex" : 2,
                        "medias" : [
                          {
                            "id" : 85,
                            "_type" : "Callout",
                            "def" : {
                              "kind" : "remix",
                              "shape" : "text",
                              "style" : "basic",
                              "height" : 122.714285714328,
                              "line-spacing" : 0.0,
                              "width" : 784.358937127961,
                              "word-wrap" : 1.0,
                              "horizontal-alignment" : "center",
                              "resize-behavior" : "resizeText",
                              "text" : "basic motion",
                              "vertical-alignment" : "center",
                              "font" : {
                                "color-blue" : 1.0,
                                "color-green" : 1.0,
                                "color-red" : 1.0,
                                "size" : 96.0,
                                "tracking" : 0.0,
                                "name" : "Montserrat",
                                "weight" : "Regular"
                              },
                              "textAttributes" : {
                                "type" : "textAttributeList",
                                "keyframes" : [
                                  {
                                    "endTime" : 0,
                                    "time" : 0,
                                    "value" : [{"name":"underline","rangeEnd":12,"rangeStart":0,"value":0,"valueType":"int"},{"name":"strikethrough","rangeEnd":12,"rangeStart":0,"value":0,"valueType":"int"},{"name":"fgColor","rangeEnd":12,"rangeStart":0,"value":"(241,230,195,255)","valueType":"color"},{"name":"fontSize","rangeEnd":12,"rangeStart":0,"value":96,"valueType":"double"},{"name":"kerning","rangeEnd":12,"rangeStart":0,"value":0,"valueType":"double"},{"name":"fontItalic","rangeEnd":12,"rangeStart":0,"value":0,"valueType":"int"},{"name":"fontWeight","rangeEnd":12,"rangeStart":0,"value":400,"valueType":"int"},{"name":"fontName","rangeEnd":12,"rangeStart":0,"value":"Montserrat","valueType":"string"}],
                                    "duration" : 0
                                  }
                                ]
                              }
                            },
                            "attributes" : {
                              "autoRotateText" : true
                            },
                            "parameters" : {
                              "translation0" : -6.01749673294018,
                              "translation1" : 19.14285714285
                            },
                            "effects" : [
                                {
                                  "_type" : "GenericBehaviorEffect",
                                  "effectName" : "scale",
                                  "start" : -52,
                                  "duration" : 176                                ,
                                  "in" : {
                                    "attributes" : {
                                      "name" : "grow",
                                      "type" : 1,
                                      "characterOrder" : 6,
                                      "offsetBetweenCharacters" : 2,
                                      "suggestedDurationPerCharacter" : "2333/25",
                                      "overlapProportion" : "3/4",
                                      "movement" : 30,
                                      "springDamping" : 5.0,
                                      "springStiffness" : 50.0,
                                      "bounceBounciness" : 0.45
                                    }
                                  
                                  },
                                  "center" : {
                                    "attributes" : {
                                      "name" : "none",
                                      "type" : 1,
                                      "characterOrder" : 6,
                                      "offsetBetweenCharacters" : 0,
                                      "secondsPerLoop" : 1,
                                      "numberOfLoops" : -1,
                                      "delayBetweenLoops" : 0,
                                      "offsetBetweenCharacters" : 0
                                    }
                                  
                                  },
                                  "out" : {
                                    "attributes" : {
                                      "name" : "none",
                                      "type" : 1,
                                      "characterOrder" : 6,
                                      "offsetBetweenCharacters" : 0,
                                      "suggestedDurationPerCharacter" : 0,
                                      "overlapProportion" : 0,
                                      "movement" : -1,
                                      "springDamping" : 5.0,
                                      "springStiffness" : 50.0,
                                      "bounceBounciness" : 0.45
                                    }
                                  
                                  }
                                },
                                {
                                  "effectName" : "DropShadow",
                                  "category" : "categoryVisualEffects",
                                  "parameters" : {
                                    "angle" : {
                                      "type" : "double",
                                      "defaultValue" : 4.71238898038469,
                                      "valueBounds" : {
                                        "minValue" : 0.0,
                                        "maxValue" : 0.0,
                                        "defaultValue" : 5.49778714378214
                                      },
                                      "uiHints" : {
                                        "userInterfaceType" : 0,
                                        "unitType" : 0
                                      }
                                    },
                                    "blur" : {
                                      "type" : "double",
                                      "defaultValue" : 3.33066907387547e-16,
                                      "valueBounds" : {
                                        "minValue" : 0.0,
                                        "maxValue" : 50.0,
                                        "defaultValue" : 10.0
                                      },
                                      "uiHints" : {
                                        "userInterfaceType" : 0,
                                        "unitType" : 0
                                      }
                                    },
                                    "color-alpha" : {
                                      "type" : "double",
                                      "defaultValue" : 1.0,
                                      "valueBounds" : {
                                        "minValue" : 0.0,
                                        "maxValue" : 1.0,
                                        "defaultValue" : 1.0
                                      },
                                      "uiHints" : {
                                        "userInterfaceType" : 0,
                                        "unitType" : 0
                                      }
                                    },
                                    "color-blue" : {
                                      "type" : "double",
                                      "defaultValue" : 0.1216,
                                      "valueBounds" : {
                                        "minValue" : 0.0,
                                        "maxValue" : 1.0,
                                        "defaultValue" : 0.1216
                                      },
                                      "uiHints" : {
                                        "userInterfaceType" : 0,
                                        "unitType" : 0
                                      }
                                    },
                                    "color-green" : {
                                      "type" : "double",
                                      "defaultValue" : 0.1216,
                                      "valueBounds" : {
                                        "minValue" : 0.0,
                                        "maxValue" : 1.0,
                                        "defaultValue" : 0.1216
                                      },
                                      "uiHints" : {
                                        "userInterfaceType" : 0,
                                        "unitType" : 0
                                      }
                                    },
                                    "color-red" : {
                                      "type" : "double",
                                      "defaultValue" : 0.1216,
                                      "valueBounds" : {
                                        "minValue" : 0.0,
                                        "maxValue" : 1.0,
                                        "defaultValue" : 0.1216
                                      },
                                      "uiHints" : {
                                        "userInterfaceType" : 0,
                                        "unitType" : 0
                                      }
                                    },
                                    "enabled" : {
                                      "type" : "int",
                                      "valueBounds" : {
                                        "minValue" : 0,
                                        "maxValue" : 1,
                                        "defaultValue" : 1
                                      },
                                      "uiHints" : {
                                        "userInterfaceType" : 0,
                                        "unitType" : 0
                                      },
                                      "keyframes" : [
                                        {
                                          "endTime" : 0,
                                          "time" : 0,
                                          "value" : 1,
                                          "duration" : 0
                                        }
                                      ]
                                    },
                                    "offset" : {
                                      "type" : "double",
                                      "defaultValue" : 10.0,
                                      "valueBounds" : {
                                        "minValue" : 0.0,
                                        "maxValue" : 250.0,
                                        "defaultValue" : 10.0
                                      },
                                      "uiHints" : {
                                        "userInterfaceType" : 0,
                                        "unitType" : 0
                                      }
                                    },
                                    "opacity" : {
                                      "type" : "double",
                                      "defaultValue" : 0.741666666666667,
                                      "valueBounds" : {
                                        "minValue" : 0.0,
                                        "maxValue" : 1.0,
                                        "defaultValue" : 0.4
                                      },
                                      "uiHints" : {
                                        "userInterfaceType" : 0,
                                        "unitType" : 0
                                      }
                                    }
                                  }
                                }
                            ],
                            "start" : 114,
                            "duration" : 176,
                            "mediaStart" : -52,
                            "mediaDuration" : 176,
                            "scalar" : 1,
                            "metadata" : {
                              "WinSubProjectDisplayName" : "",
                              "clipSpeedAttribute" : false,
                              "default-HAlign" : "center",
                              "default-LineSpace" : 0.0,
                              "default-VAlign" : "center",
                              "default-text-attributes" : "[{\"name\":\"fontItalic\",\"rangeEnd\":9,\"rangeStart\":0,\"value\":0,\"valueType\":\"int\"},{\"name\":\"fontSize\",\"rangeEnd\":9,\"rangeStart\":0,\"value\":96,\"valueType\":\"double\"},{\"name\":\"fontName\",\"rangeEnd\":9,\"rangeStart\":0,\"value\":\"Montserrat\",\"valueType\":\"string\"},{\"name\":\"underline\",\"rangeEnd\":9,\"rangeStart\":0,\"value\":0,\"valueType\":\"int\"},{\"name\":\"fontWeight\",\"rangeEnd\":9,\"rangeStart\":0,\"value\":100,\"valueType\":\"int\"},{\"name\":\"strikethrough\",\"rangeEnd\":9,\"rangeStart\":0,\"value\":0,\"valueType\":\"int\"},{\"name\":\"fgColor\",\"rangeEnd\":9,\"rangeStart\":0,\"value\":\"(241,230,195,255)\",\"valueType\":\"color\"}]",
                              "effectApplied" : "none"
                            },
                            "animationTracks" : {

                            }
                          }
                        ],
                          "ident" : "",
                          "audioMuted" : false,
                          "videoHidden" : false,
                          "magnetic" : false,
                          "metadata" : {
                            "IsLocked" : "False",
                            "WinTrackHeight" : "1.18064664215163e-311",
                            "trackHeight" : "48"
                          }
                      }
                    ],
                    "attributes" : {
                      "ident" : "squarepegs",
                      "gain" : 1.0,
                      "mixToMono" : false,
                      "assetProperties" : [
                        {
                          "type" : 0,
                          "name" : "Title",
                          "objects" : [ 85 ],
                          "themeMappings" :  {
                            "font-color" : "foreground-1",
                            "font-family" : "font-1"
                          }
                        },
                        {
                          "type" : 0,
                          "name" : "Subtitle",
                          "objects" : [ 84 ],
                          "themeMappings" :  {
                            "font-color" : "foreground-1",
                            "font-family" : "font-1"
                          }
                        }
                      ]
                    },
                    "effects" : [

                    ],
                    "start" : 458,
                    "duration" : 176,
                    "mediaStart" : 114.0,
                    "mediaDuration" : 176.0,
                    "scalar" : 1,
                    "metadata" : {
                      "IsGroupExpanded" : "False",
                      "WinSubProjectDisplayName" : "",
                      "clipSpeedAttribute" : false,
                      "effectApplied" : "none",
                      "isOpen" : false
                    },
                    "animationTracks" : {

                    }
                  },
                  {
                    "id" : 86,
                    "_type" : "UnifiedMedia",
                    "video" : 
                        {
                          "id" : 87,
                          "_type" : "ScreenVMFile",
                          "src" : 1,
                          "trackNumber" : 0,
                          "attributes" : {
                            "ident" : "scratch-2.1-motion-basic-moving"
                          },
                          "parameters" : {
                            "cursorScale" : {
                              "type" : "double",
                              "defaultValue" : 1.0,
                              "interp" : "linr"
                            },
                            "cursorOpacity" : {
                              "type" : "double",
                              "defaultValue" : 1.0,
                              "interp" : "linr"
                            }
                          },
                          "effects" : [

                          ],
                          "start" : 634,
                          "duration" : 460,
                          "mediaStart" : 0,
                          "mediaDuration" : 460,
                          "scalar" : 1,
                          "animationTracks" : {

                          }
                        },
                    "audio" : 
                        {
                          "id" : 88,
                          "_type" : "AMFile",
                          "src" : 1,
                          "trackNumber" : 1,
                          "attributes" : {
                            "ident" : "",
                            "gain" : 1.0,
                            "mixToMono" : false
                          },
                            "channelNumber" : "0,1",
                          "effects" : [

                          ],
                          "start" : 634,
                          "duration" : 460,
                          "mediaStart" : 0,
                          "mediaDuration" : 460,
                          "scalar" : 1,
                          "animationTracks" : {

                          }
                        }
,
                    "start" : 634,
                    "duration" : 460,
                    "mediaStart" : 0,
                    "mediaDuration" : 460,
                    "scalar" : 1,
                    "metadata" : {
                      "AutoAppliedSmartFocus" : "False",
                      "clipSpeedAttribute" : false
                    }
                  },
                  {
                    "id" : 89,
                    "_type" : "Group",
                    "parameters" : {
                      "volume" : 1.0
                    },
                    "tracks" : [
                      {
                        "trackIndex" : 0,
                        "medias" : [
                          {
                            "id" : 90,
                            "_type" : "UnifiedMedia",
                            "video" : 
                                {
                                  "id" : 91,
                                  "_type" : "VMFile",
                                  "src" : 51,
                                  "trackNumber" : 0,
                                  "attributes" : {
                                    "ident" : "Movie"
                                  },
                                  "effects" : [

                                  ],
                                  "start" : 114,
                                  "duration" : 176,
                                  "mediaStart" : 114,
                                  "mediaDuration" : 176,
                                  "scalar" : 1,
                                  "animationTracks" : {

                                  }
                                },
                            "audio" : 
                                {
                                  "id" : 92,
                                  "_type" : "AMFile",
                                  "src" : 51,
                                  "trackNumber" : 1,
                                  "attributes" : {
                                    "ident" : "",
                                    "gain" : 1.0,
                                    "mixToMono" : false
                                  },
                                    "channelNumber" : "0,1",
                                  "effects" : [

                                  ],
                                  "start" : 114,
                                  "duration" : 176,
                                  "mediaStart" : 114,
                                  "mediaDuration" : 176,
                                  "scalar" : 1,
                                  "animationTracks" : {

                                  }
                                }
,
                            "start" : 114,
                            "duration" : 176,
                            "mediaStart" : 0,
                            "mediaDuration" : 438,
                            "scalar" : 1,
                            "metadata" : {
                              "WinSubProjectDisplayName" : "",
                              "clipSpeedAttribute" : false,
                              "effectApplied" : "none"
                            }
                          }
                        ],
                          "ident" : "",
                          "audioMuted" : false,
                          "videoHidden" : false,
                          "magnetic" : false,
                          "metadata" : {
                            "IsLocked" : "False",
                            "WinTrackHeight" : "0",
                            "trackHeight" : "48"
                          }
                      },
                      {
                        "trackIndex" : 1,
                        "medias" : [
                          {
                            "id" : 93,
                            "_type" : "Callout",
                            "def" : {
                              "kind" : "remix",
                              "shape" : "text",
                              "style" : "basic",
                              "height" : 78.4795300319492,
                              "line-spacing" : 0.0,
                              "width" : 583.0,
                              "word-wrap" : 1.0,
                              "horizontal-alignment" : "center",
                              "resize-behavior" : "resizeText",
                              "text" : "motion",
                              "vertical-alignment" : "center",
                              "font" : {
                                "color-blue" : 1.0,
                                "color-green" : 1.0,
                                "color-red" : 1.0,
                                "size" : 96.0,
                                "tracking" : 0.0,
                                "name" : "Montserrat",
                                "weight" : "Regular"
                              },
                              "textAttributes" : {
                                "type" : "textAttributeList",
                                "keyframes" : [
                                  {
                                    "endTime" : 0,
                                    "time" : 0,
                                    "value" : [{"name":"fontWeight","rangeEnd":6,"rangeStart":0,"value":400,"valueType":"int"},{"name":"fontItalic","rangeEnd":6,"rangeStart":0,"value":0,"valueType":"int"},{"name":"fontName","rangeEnd":6,"rangeStart":0,"value":"Montserrat","valueType":"string"},{"name":"fontSize","rangeEnd":6,"rangeStart":0,"value":55,"valueType":"double"},{"name":"fgColor","rangeEnd":6,"rangeStart":0,"value":"(239,231,195,255)","valueType":"color"},{"name":"strikethrough","rangeEnd":6,"rangeStart":0,"value":0,"valueType":"int"},{"name":"underline","rangeEnd":6,"rangeStart":0,"value":0,"valueType":"int"},{"name":"kerning","rangeEnd":6,"rangeStart":0,"value":0,"valueType":"double"}],
                                    "duration" : 0
                                  }
                                ]
                              }
                            },
                            "attributes" : {
                              "autoRotateText" : true
                            },
                            "parameters" : {
                              "translation0" : -1.77887982122371e-11,
                              "translation1" : -100.336673040374
                            },
                            "effects" : [
                                {
                                  "_type" : "GenericBehaviorEffect",
                                  "effectName" : "sliding",
                                  "start" : -18,
                                  "duration" : 80                                ,
                                  "in" : {
                                    "attributes" : {
                                      "name" : "sliding",
                                      "type" : 1,
                                      "characterOrder" : 0,
                                      "offsetBetweenCharacters" : 3,
                                      "suggestedDurationPerCharacter" : "999/50",
                                      "overlapProportion" : "11/20",
                                      "movement" : 16,
                                      "springDamping" : 5.0,
                                      "springStiffness" : 50.0,
                                      "bounceBounciness" : 0.45
                                    },
                                    "parameters" : {
                                      "direction" : {
                                        "type" : "int",
                                        "valueBounds" : {
                                          "minValue" : 0,
                                          "maxValue" : 3,
                                          "defaultValue" : 0
                                        },
                                        "uiHints" : {
                                          "userInterfaceType" : 2,
                                          "unitType" : 0
                                        },
                                        "keyframes" : [
                                          {
                                            "endTime" : 0,
                                            "time" : 0,
                                            "value" : 3,
                                            "duration" : 0
                                          }
                                        ]
                                      }
                                    }
                                  
                                  },
                                  "center" : {
                                    "attributes" : {
                                      "name" : "none",
                                      "type" : 1,
                                      "characterOrder" : 6,
                                      "offsetBetweenCharacters" : 0,
                                      "secondsPerLoop" : 1,
                                      "numberOfLoops" : -1,
                                      "delayBetweenLoops" : 0,
                                      "offsetBetweenCharacters" : 0
                                    }
                                  
                                  },
                                  "out" : {
                                    "attributes" : {
                                      "name" : "none",
                                      "type" : 1,
                                      "characterOrder" : 6,
                                      "offsetBetweenCharacters" : 0,
                                      "suggestedDurationPerCharacter" : 0,
                                      "overlapProportion" : 0,
                                      "movement" : -1,
                                      "springDamping" : 5.0,
                                      "springStiffness" : 50.0,
                                      "bounceBounciness" : 0.45
                                    }
                                  
                                  }
                                }
                            ],
                            "start" : 210,
                            "duration" : 80,
                            "mediaStart" : -18,
                            "mediaDuration" : 80,
                            "scalar" : 1,
                            "metadata" : {
                              "WinSubProjectDisplayName" : "",
                              "clipSpeedAttribute" : false,
                              "default-HAlign" : "center",
                              "default-LineSpace" : 0.0,
                              "default-VAlign" : "center",
                              "default-text-attributes" : "[{\"name\":\"strikethrough\",\"rangeEnd\":13,\"rangeStart\":0,\"value\":0,\"valueType\":\"int\"},{\"name\":\"fontWeight\",\"rangeEnd\":13,\"rangeStart\":0,\"value\":100,\"valueType\":\"int\"},{\"name\":\"fontSize\",\"rangeEnd\":13,\"rangeStart\":0,\"value\":55,\"valueType\":\"double\"},{\"name\":\"underline\",\"rangeEnd\":13,\"rangeStart\":0,\"value\":0,\"valueType\":\"int\"},{\"name\":\"fgColor\",\"rangeEnd\":13,\"rangeStart\":0,\"value\":\"(239,231,195,255)\",\"valueType\":\"color\"},{\"name\":\"fontItalic\",\"rangeEnd\":13,\"rangeStart\":0,\"value\":0,\"valueType\":\"int\"},{\"name\":\"fontName\",\"rangeEnd\":13,\"rangeStart\":0,\"value\":\"Montserrat\",\"valueType\":\"string\"}]",
                              "effectApplied" : "none"
                            },
                            "animationTracks" : {

                            }
                          }
                        ],
                          "ident" : "",
                          "audioMuted" : false,
                          "videoHidden" : false,
                          "magnetic" : false,
                          "metadata" : {
                            "IsLocked" : "False",
                            "WinTrackHeight" : "1.18064664215163e-311",
                            "trackHeight" : "48"
                          }
                      },
                      {
                        "trackIndex" : 2,
                        "medias" : [
                          {
                            "id" : 94,
                            "_type" : "Callout",
                            "def" : {
                              "kind" : "remix",
                              "shape" : "text",
                              "style" : "basic",
                              "height" : 122.714285714328,
                              "line-spacing" : 0.0,
                              "width" : 784.358937127961,
                              "word-wrap" : 1.0,
                              "horizontal-alignment" : "center",
                              "resize-behavior" : "resizeText",
                              "text" : "basic rotation",
                              "vertical-alignment" : "center",
                              "font" : {
                                "color-blue" : 1.0,
                                "color-green" : 1.0,
                                "color-red" : 1.0,
                                "size" : 96.0,
                                "tracking" : 0.0,
                                "name" : "Montserrat",
                                "weight" : "Regular"
                              },
                              "textAttributes" : {
                                "type" : "textAttributeList",
                                "keyframes" : [
                                  {
                                    "endTime" : 0,
                                    "time" : 0,
                                    "value" : [{"name":"strikethrough","rangeEnd":14,"rangeStart":0,"value":0,"valueType":"int"},{"name":"fontName","rangeEnd":14,"rangeStart":0,"value":"Montserrat","valueType":"string"},{"name":"fontSize","rangeEnd":14,"rangeStart":0,"value":96,"valueType":"double"},{"name":"fgColor","rangeEnd":14,"rangeStart":0,"value":"(241,230,195,255)","valueType":"color"},{"name":"underline","rangeEnd":14,"rangeStart":0,"value":0,"valueType":"int"},{"name":"fontItalic","rangeEnd":14,"rangeStart":0,"value":0,"valueType":"int"},{"name":"kerning","rangeEnd":14,"rangeStart":0,"value":0,"valueType":"double"},{"name":"fontWeight","rangeEnd":14,"rangeStart":0,"value":400,"valueType":"int"}],
                                    "duration" : 0
                                  }
                                ]
                              }
                            },
                            "attributes" : {
                              "autoRotateText" : true
                            },
                            "parameters" : {
                              "translation0" : -6.01749673294018,
                              "translation1" : 19.14285714285
                            },
                            "effects" : [
                                {
                                  "_type" : "GenericBehaviorEffect",
                                  "effectName" : "scale",
                                  "start" : -52,
                                  "duration" : 176                                ,
                                  "in" : {
                                    "attributes" : {
                                      "name" : "grow",
                                      "type" : 1,
                                      "characterOrder" : 6,
                                      "offsetBetweenCharacters" : 2,
                                      "suggestedDurationPerCharacter" : "2333/25",
                                      "overlapProportion" : "3/4",
                                      "movement" : 30,
                                      "springDamping" : 5.0,
                                      "springStiffness" : 50.0,
                                      "bounceBounciness" : 0.45
                                    }
                                  
                                  },
                                  "center" : {
                                    "attributes" : {
                                      "name" : "none",
                                      "type" : 1,
                                      "characterOrder" : 6,
                                      "offsetBetweenCharacters" : 0,
                                      "secondsPerLoop" : 1,
                                      "numberOfLoops" : -1,
                                      "delayBetweenLoops" : 0,
                                      "offsetBetweenCharacters" : 0
                                    }
                                  
                                  },
                                  "out" : {
                                    "attributes" : {
                                      "name" : "none",
                                      "type" : 1,
                                      "characterOrder" : 6,
                                      "offsetBetweenCharacters" : 0,
                                      "suggestedDurationPerCharacter" : 0,
                                      "overlapProportion" : 0,
                                      "movement" : -1,
                                      "springDamping" : 5.0,
                                      "springStiffness" : 50.0,
                                      "bounceBounciness" : 0.45
                                    }
                                  
                                  }
                                },
                                {
                                  "effectName" : "DropShadow",
                                  "category" : "categoryVisualEffects",
                                  "parameters" : {
                                    "angle" : {
                                      "type" : "double",
                                      "defaultValue" : 4.71238898038469,
                                      "valueBounds" : {
                                        "minValue" : 0.0,
                                        "maxValue" : 0.0,
                                        "defaultValue" : 5.49778714378214
                                      },
                                      "uiHints" : {
                                        "userInterfaceType" : 0,
                                        "unitType" : 0
                                      }
                                    },
                                    "blur" : {
                                      "type" : "double",
                                      "defaultValue" : 3.33066907387547e-16,
                                      "valueBounds" : {
                                        "minValue" : 0.0,
                                        "maxValue" : 50.0,
                                        "defaultValue" : 10.0
                                      },
                                      "uiHints" : {
                                        "userInterfaceType" : 0,
                                        "unitType" : 0
                                      }
                                    },
                                    "color-alpha" : {
                                      "type" : "double",
                                      "defaultValue" : 1.0,
                                      "valueBounds" : {
                                        "minValue" : 0.0,
                                        "maxValue" : 1.0,
                                        "defaultValue" : 1.0
                                      },
                                      "uiHints" : {
                                        "userInterfaceType" : 0,
                                        "unitType" : 0
                                      }
                                    },
                                    "color-blue" : {
                                      "type" : "double",
                                      "defaultValue" : 0.1216,
                                      "valueBounds" : {
                                        "minValue" : 0.0,
                                        "maxValue" : 1.0,
                                        "defaultValue" : 0.1216
                                      },
                                      "uiHints" : {
                                        "userInterfaceType" : 0,
                                        "unitType" : 0
                                      }
                                    },
                                    "color-green" : {
                                      "type" : "double",
                                      "defaultValue" : 0.1216,
                                      "valueBounds" : {
                                        "minValue" : 0.0,
                                        "maxValue" : 1.0,
                                        "defaultValue" : 0.1216
                                      },
                                      "uiHints" : {
                                        "userInterfaceType" : 0,
                                        "unitType" : 0
                                      }
                                    },
                                    "color-red" : {
                                      "type" : "double",
                                      "defaultValue" : 0.1216,
                                      "valueBounds" : {
                                        "minValue" : 0.0,
                                        "maxValue" : 1.0,
                                        "defaultValue" : 0.1216
                                      },
                                      "uiHints" : {
                                        "userInterfaceType" : 0,
                                        "unitType" : 0
                                      }
                                    },
                                    "enabled" : {
                                      "type" : "int",
                                      "valueBounds" : {
                                        "minValue" : 0,
                                        "maxValue" : 1,
                                        "defaultValue" : 1
                                      },
                                      "uiHints" : {
                                        "userInterfaceType" : 0,
                                        "unitType" : 0
                                      },
                                      "keyframes" : [
                                        {
                                          "endTime" : 0,
                                          "time" : 0,
                                          "value" : 1,
                                          "duration" : 0
                                        }
                                      ]
                                    },
                                    "offset" : {
                                      "type" : "double",
                                      "defaultValue" : 10.0,
                                      "valueBounds" : {
                                        "minValue" : 0.0,
                                        "maxValue" : 250.0,
                                        "defaultValue" : 10.0
                                      },
                                      "uiHints" : {
                                        "userInterfaceType" : 0,
                                        "unitType" : 0
                                      }
                                    },
                                    "opacity" : {
                                      "type" : "double",
                                      "defaultValue" : 0.741666666666667,
                                      "valueBounds" : {
                                        "minValue" : 0.0,
                                        "maxValue" : 1.0,
                                        "defaultValue" : 0.4
                                      },
                                      "uiHints" : {
                                        "userInterfaceType" : 0,
                                        "unitType" : 0
                                      }
                                    }
                                  }
                                }
                            ],
                            "start" : 114,
                            "duration" : 176,
                            "mediaStart" : -52,
                            "mediaDuration" : 176,
                            "scalar" : 1,
                            "metadata" : {
                              "WinSubProjectDisplayName" : "",
                              "clipSpeedAttribute" : false,
                              "default-HAlign" : "center",
                              "default-LineSpace" : 0.0,
                              "default-VAlign" : "center",
                              "default-text-attributes" : "[{\"name\":\"fontItalic\",\"rangeEnd\":9,\"rangeStart\":0,\"value\":0,\"valueType\":\"int\"},{\"name\":\"fontSize\",\"rangeEnd\":9,\"rangeStart\":0,\"value\":96,\"valueType\":\"double\"},{\"name\":\"fontName\",\"rangeEnd\":9,\"rangeStart\":0,\"value\":\"Montserrat\",\"valueType\":\"string\"},{\"name\":\"underline\",\"rangeEnd\":9,\"rangeStart\":0,\"value\":0,\"valueType\":\"int\"},{\"name\":\"fontWeight\",\"rangeEnd\":9,\"rangeStart\":0,\"value\":100,\"valueType\":\"int\"},{\"name\":\"strikethrough\",\"rangeEnd\":9,\"rangeStart\":0,\"value\":0,\"valueType\":\"int\"},{\"name\":\"fgColor\",\"rangeEnd\":9,\"rangeStart\":0,\"value\":\"(241,230,195,255)\",\"valueType\":\"color\"}]",
                              "effectApplied" : "none"
                            },
                            "animationTracks" : {

                            }
                          }
                        ],
                          "ident" : "",
                          "audioMuted" : false,
                          "videoHidden" : false,
                          "magnetic" : false,
                          "metadata" : {
                            "IsLocked" : "False",
                            "WinTrackHeight" : "1.18064664215163e-311",
                            "trackHeight" : "48"
                          }
                      }
                    ],
                    "attributes" : {
                      "ident" : "squarepegs",
                      "gain" : 1.0,
                      "mixToMono" : false,
                      "assetProperties" : [
                        {
                          "type" : 0,
                          "name" : "Title",
                          "objects" : [ 94 ],
                          "themeMappings" :  {
                            "font-color" : "foreground-1",
                            "font-family" : "font-1"
                          }
                        },
                        {
                          "type" : 0,
                          "name" : "Subtitle",
                          "objects" : [ 93 ],
                          "themeMappings" :  {
                            "font-color" : "foreground-1",
                            "font-family" : "font-1"
                          }
                        }
                      ]
                    },
                    "effects" : [

                    ],
                    "start" : 1094,
                    "duration" : 176,
                    "mediaStart" : 114.0,
                    "mediaDuration" : 176.0,
                    "scalar" : 1,
                    "metadata" : {
                      "IsGroupExpanded" : "False",
                      "WinSubProjectDisplayName" : "",
                      "clipSpeedAttribute" : false,
                      "effectApplied" : "none",
                      "isOpen" : false
                    },
                    "animationTracks" : {

                    }
                  },
                  {
                    "id" : 95,
                    "_type" : "UnifiedMedia",
                    "video" : 
                        {
                          "id" : 96,
                          "_type" : "ScreenVMFile",
                          "src" : 2,
                          "trackNumber" : 0,
                          "attributes" : {
                            "ident" : "scratch-2.2-motion-basic-rotation"
                          },
                          "parameters" : {
                            "cursorScale" : {
                              "type" : "double",
                              "defaultValue" : 1.0,
                              "interp" : "linr"
                            },
                            "cursorOpacity" : {
                              "type" : "double",
                              "defaultValue" : 1.0,
                              "interp" : "linr"
                            }
                          },
                          "effects" : [

                          ],
                          "start" : 1270,
                          "duration" : 496,
                          "mediaStart" : 0,
                          "mediaDuration" : 496,
                          "scalar" : 1,
                          "animationTracks" : {

                          }
                        },
                    "audio" : 
                        {
                          "id" : 97,
                          "_type" : "AMFile",
                          "src" : 2,
                          "trackNumber" : 1,
                          "attributes" : {
                            "ident" : "",
                            "gain" : 1.0,
                            "mixToMono" : false
                          },
                            "channelNumber" : "0,1",
                          "effects" : [

                          ],
                          "start" : 1270,
                          "duration" : 496,
                          "mediaStart" : 0,
                          "mediaDuration" : 496,
                          "scalar" : 1,
                          "animationTracks" : {

                          }
                        }
,
                    "start" : 1270,
                    "duration" : 496,
                    "mediaStart" : 0,
                    "mediaDuration" : 496,
                    "scalar" : 1,
                    "metadata" : {
                      "AutoAppliedSmartFocus" : "False",
                      "clipSpeedAttribute" : false
                    }
                  },
                  {
                    "id" : 98,
                    "_type" : "Group",
                    "parameters" : {
                      "volume" : 1.0
                    },
                    "tracks" : [
                      {
                        "trackIndex" : 0,
                        "medias" : [
                          {
                            "id" : 99,
                            "_type" : "UnifiedMedia",
                            "video" : 
                                {
                                  "id" : 100,
                                  "_type" : "VMFile",
                                  "src" : 51,
                                  "trackNumber" : 0,
                                  "attributes" : {
                                    "ident" : "Movie"
                                  },
                                  "effects" : [

                                  ],
                                  "start" : 114,
                                  "duration" : 176,
                                  "mediaStart" : 114,
                                  "mediaDuration" : 176,
                                  "scalar" : 1,
                                  "animationTracks" : {

                                  }
                                },
                            "audio" : 
                                {
                                  "id" : 101,
                                  "_type" : "AMFile",
                                  "src" : 51,
                                  "trackNumber" : 1,
                                  "attributes" : {
                                    "ident" : "",
                                    "gain" : 1.0,
                                    "mixToMono" : false
                                  },
                                    "channelNumber" : "0,1",
                                  "effects" : [

                                  ],
                                  "start" : 114,
                                  "duration" : 176,
                                  "mediaStart" : 114,
                                  "mediaDuration" : 176,
                                  "scalar" : 1,
                                  "animationTracks" : {

                                  }
                                }
,
                            "start" : 114,
                            "duration" : 176,
                            "mediaStart" : 0,
                            "mediaDuration" : 438,
                            "scalar" : 1,
                            "metadata" : {
                              "WinSubProjectDisplayName" : "",
                              "clipSpeedAttribute" : false,
                              "effectApplied" : "none"
                            }
                          }
                        ],
                          "ident" : "",
                          "audioMuted" : false,
                          "videoHidden" : false,
                          "magnetic" : false,
                          "metadata" : {
                            "IsLocked" : "False",
                            "WinTrackHeight" : "0",
                            "trackHeight" : "48"
                          }
                      },
                      {
                        "trackIndex" : 1,
                        "medias" : [
                          {
                            "id" : 102,
                            "_type" : "Callout",
                            "def" : {
                              "kind" : "remix",
                              "shape" : "text",
                              "style" : "basic",
                              "height" : 78.4795300319492,
                              "line-spacing" : 0.0,
                              "width" : 583.0,
                              "word-wrap" : 1.0,
                              "horizontal-alignment" : "center",
                              "resize-behavior" : "resizeText",
                              "text" : "motion",
                              "vertical-alignment" : "center",
                              "font" : {
                                "color-blue" : 1.0,
                                "color-green" : 1.0,
                                "color-red" : 1.0,
                                "size" : 96.0,
                                "tracking" : 0.0,
                                "name" : "Montserrat",
                                "weight" : "Regular"
                              },
                              "textAttributes" : {
                                "type" : "textAttributeList",
                                "keyframes" : [
                                  {
                                    "endTime" : 0,
                                    "time" : 0,
                                    "value" : [{"name":"fontWeight","rangeEnd":6,"rangeStart":0,"value":400,"valueType":"int"},{"name":"fontItalic","rangeEnd":6,"rangeStart":0,"value":0,"valueType":"int"},{"name":"fontName","rangeEnd":6,"rangeStart":0,"value":"Montserrat","valueType":"string"},{"name":"fontSize","rangeEnd":6,"rangeStart":0,"value":55,"valueType":"double"},{"name":"fgColor","rangeEnd":6,"rangeStart":0,"value":"(239,231,195,255)","valueType":"color"},{"name":"strikethrough","rangeEnd":6,"rangeStart":0,"value":0,"valueType":"int"},{"name":"underline","rangeEnd":6,"rangeStart":0,"value":0,"valueType":"int"},{"name":"kerning","rangeEnd":6,"rangeStart":0,"value":0,"valueType":"double"}],
                                    "duration" : 0
                                  }
                                ]
                              }
                            },
                            "attributes" : {
                              "autoRotateText" : true
                            },
                            "parameters" : {
                              "translation0" : -1.77887982122371e-11,
                              "translation1" : -100.336673040374
                            },
                            "effects" : [
                                {
                                  "_type" : "GenericBehaviorEffect",
                                  "effectName" : "sliding",
                                  "start" : -18,
                                  "duration" : 80                                ,
                                  "in" : {
                                    "attributes" : {
                                      "name" : "sliding",
                                      "type" : 1,
                                      "characterOrder" : 0,
                                      "offsetBetweenCharacters" : 3,
                                      "suggestedDurationPerCharacter" : "999/50",
                                      "overlapProportion" : "11/20",
                                      "movement" : 16,
                                      "springDamping" : 5.0,
                                      "springStiffness" : 50.0,
                                      "bounceBounciness" : 0.45
                                    },
                                    "parameters" : {
                                      "direction" : {
                                        "type" : "int",
                                        "valueBounds" : {
                                          "minValue" : 0,
                                          "maxValue" : 3,
                                          "defaultValue" : 0
                                        },
                                        "uiHints" : {
                                          "userInterfaceType" : 2,
                                          "unitType" : 0
                                        },
                                        "keyframes" : [
                                          {
                                            "endTime" : 0,
                                            "time" : 0,
                                            "value" : 3,
                                            "duration" : 0
                                          }
                                        ]
                                      }
                                    }
                                  
                                  },
                                  "center" : {
                                    "attributes" : {
                                      "name" : "none",
                                      "type" : 1,
                                      "characterOrder" : 6,
                                      "offsetBetweenCharacters" : 0,
                                      "secondsPerLoop" : 1,
                                      "numberOfLoops" : -1,
                                      "delayBetweenLoops" : 0,
                                      "offsetBetweenCharacters" : 0
                                    }
                                  
                                  },
                                  "out" : {
                                    "attributes" : {
                                      "name" : "none",
                                      "type" : 1,
                                      "characterOrder" : 6,
                                      "offsetBetweenCharacters" : 0,
                                      "suggestedDurationPerCharacter" : 0,
                                      "overlapProportion" : 0,
                                      "movement" : -1,
                                      "springDamping" : 5.0,
                                      "springStiffness" : 50.0,
                                      "bounceBounciness" : 0.45
                                    }
                                  
                                  }
                                }
                            ],
                            "start" : 210,
                            "duration" : 80,
                            "mediaStart" : -18,
                            "mediaDuration" : 80,
                            "scalar" : 1,
                            "metadata" : {
                              "WinSubProjectDisplayName" : "",
                              "clipSpeedAttribute" : false,
                              "default-HAlign" : "center",
                              "default-LineSpace" : 0.0,
                              "default-VAlign" : "center",
                              "default-text-attributes" : "[{\"name\":\"strikethrough\",\"rangeEnd\":13,\"rangeStart\":0,\"value\":0,\"valueType\":\"int\"},{\"name\":\"fontWeight\",\"rangeEnd\":13,\"rangeStart\":0,\"value\":100,\"valueType\":\"int\"},{\"name\":\"fontSize\",\"rangeEnd\":13,\"rangeStart\":0,\"value\":55,\"valueType\":\"double\"},{\"name\":\"underline\",\"rangeEnd\":13,\"rangeStart\":0,\"value\":0,\"valueType\":\"int\"},{\"name\":\"fgColor\",\"rangeEnd\":13,\"rangeStart\":0,\"value\":\"(239,231,195,255)\",\"valueType\":\"color\"},{\"name\":\"fontItalic\",\"rangeEnd\":13,\"rangeStart\":0,\"value\":0,\"valueType\":\"int\"},{\"name\":\"fontName\",\"rangeEnd\":13,\"rangeStart\":0,\"value\":\"Montserrat\",\"valueType\":\"string\"}]",
                              "effectApplied" : "none"
                            },
                            "animationTracks" : {

                            }
                          }
                        ],
                          "ident" : "",
                          "audioMuted" : false,
                          "videoHidden" : false,
                          "magnetic" : false,
                          "metadata" : {
                            "IsLocked" : "False",
                            "WinTrackHeight" : "1.18064664215163e-311",
                            "trackHeight" : "48"
                          }
                      },
                      {
                        "trackIndex" : 2,
                        "medias" : [
                          {
                            "id" : 103,
                            "_type" : "Callout",
                            "def" : {
                              "kind" : "remix",
                              "shape" : "text",
                              "style" : "basic",
                              "height" : 177.714285714305,
                              "line-spacing" : 0.0,
                              "width" : 904.358937127979,
                              "word-wrap" : 1.0,
                              "horizontal-alignment" : "center",
                              "resize-behavior" : "resizeText",
                              "text" : "moving to a random position",
                              "vertical-alignment" : "center",
                              "font" : {
                                "color-blue" : 1.0,
                                "color-green" : 1.0,
                                "color-red" : 1.0,
                                "size" : 96.0,
                                "tracking" : 0.0,
                                "name" : "Montserrat",
                                "weight" : "Regular"
                              },
                              "textAttributes" : {
                                "type" : "textAttributeList",
                                "keyframes" : [
                                  {
                                    "endTime" : 0,
                                    "time" : 0,
                                    "value" : [{"name":"fgColor","rangeEnd":27,"rangeStart":0,"value":"(241,230,195,255)","valueType":"color"},{"name":"kerning","rangeEnd":27,"rangeStart":0,"value":0,"valueType":"double"},{"name":"fontSize","rangeEnd":27,"rangeStart":0,"value":96,"valueType":"double"},{"name":"strikethrough","rangeEnd":27,"rangeStart":0,"value":0,"valueType":"int"},{"name":"underline","rangeEnd":27,"rangeStart":0,"value":0,"valueType":"int"},{"name":"fontWeight","rangeEnd":27,"rangeStart":0,"value":400,"valueType":"int"},{"name":"fontItalic","rangeEnd":27,"rangeStart":0,"value":0,"valueType":"int"},{"name":"fontName","rangeEnd":27,"rangeStart":0,"value":"Montserrat","valueType":"string"}],
                                    "duration" : 0
                                  }
                                ]
                              }
                            },
                            "attributes" : {
                              "autoRotateText" : true
                            },
                            "parameters" : {
                              "translation0" : 0.320531435861056,
                              "translation1" : 27.642853721879
                            },
                            "effects" : [
                                {
                                  "_type" : "GenericBehaviorEffect",
                                  "effectName" : "scale",
                                  "start" : -52,
                                  "duration" : 176                                ,
                                  "in" : {
                                    "attributes" : {
                                      "name" : "grow",
                                      "type" : 1,
                                      "characterOrder" : 6,
                                      "offsetBetweenCharacters" : 2,
                                      "suggestedDurationPerCharacter" : "2333/25",
                                      "overlapProportion" : "3/4",
                                      "movement" : 30,
                                      "springDamping" : 5.0,
                                      "springStiffness" : 50.0,
                                      "bounceBounciness" : 0.45
                                    }
                                  
                                  },
                                  "center" : {
                                    "attributes" : {
                                      "name" : "none",
                                      "type" : 1,
                                      "characterOrder" : 6,
                                      "offsetBetweenCharacters" : 0,
                                      "secondsPerLoop" : 1,
                                      "numberOfLoops" : -1,
                                      "delayBetweenLoops" : 0,
                                      "offsetBetweenCharacters" : 0
                                    }
                                  
                                  },
                                  "out" : {
                                    "attributes" : {
                                      "name" : "none",
                                      "type" : 1,
                                      "characterOrder" : 6,
                                      "offsetBetweenCharacters" : 0,
                                      "suggestedDurationPerCharacter" : 0,
                                      "overlapProportion" : 0,
                                      "movement" : -1,
                                      "springDamping" : 5.0,
                                      "springStiffness" : 50.0,
                                      "bounceBounciness" : 0.45
                                    }
                                  
                                  }
                                },
                                {
                                  "effectName" : "DropShadow",
                                  "category" : "categoryVisualEffects",
                                  "parameters" : {
                                    "angle" : {
                                      "type" : "double",
                                      "defaultValue" : 4.71238898038469,
                                      "valueBounds" : {
                                        "minValue" : 0.0,
                                        "maxValue" : 0.0,
                                        "defaultValue" : 5.49778714378214
                                      },
                                      "uiHints" : {
                                        "userInterfaceType" : 0,
                                        "unitType" : 0
                                      }
                                    },
                                    "blur" : {
                                      "type" : "double",
                                      "defaultValue" : 3.33066907387547e-16,
                                      "valueBounds" : {
                                        "minValue" : 0.0,
                                        "maxValue" : 50.0,
                                        "defaultValue" : 10.0
                                      },
                                      "uiHints" : {
                                        "userInterfaceType" : 0,
                                        "unitType" : 0
                                      }
                                    },
                                    "color-alpha" : {
                                      "type" : "double",
                                      "defaultValue" : 1.0,
                                      "valueBounds" : {
                                        "minValue" : 0.0,
                                        "maxValue" : 1.0,
                                        "defaultValue" : 1.0
                                      },
                                      "uiHints" : {
                                        "userInterfaceType" : 0,
                                        "unitType" : 0
                                      }
                                    },
                                    "color-blue" : {
                                      "type" : "double",
                                      "defaultValue" : 0.1216,
                                      "valueBounds" : {
                                        "minValue" : 0.0,
                                        "maxValue" : 1.0,
                                        "defaultValue" : 0.1216
                                      },
                                      "uiHints" : {
                                        "userInterfaceType" : 0,
                                        "unitType" : 0
                                      }
                                    },
                                    "color-green" : {
                                      "type" : "double",
                                      "defaultValue" : 0.1216,
                                      "valueBounds" : {
                                        "minValue" : 0.0,
                                        "maxValue" : 1.0,
                                        "defaultValue" : 0.1216
                                      },
                                      "uiHints" : {
                                        "userInterfaceType" : 0,
                                        "unitType" : 0
                                      }
                                    },
                                    "color-red" : {
                                      "type" : "double",
                                      "defaultValue" : 0.1216,
                                      "valueBounds" : {
                                        "minValue" : 0.0,
                                        "maxValue" : 1.0,
                                        "defaultValue" : 0.1216
                                      },
                                      "uiHints" : {
                                        "userInterfaceType" : 0,
                                        "unitType" : 0
                                      }
                                    },
                                    "enabled" : {
                                      "type" : "int",
                                      "valueBounds" : {
                                        "minValue" : 0,
                                        "maxValue" : 1,
                                        "defaultValue" : 1
                                      },
                                      "uiHints" : {
                                        "userInterfaceType" : 0,
                                        "unitType" : 0
                                      },
                                      "keyframes" : [
                                        {
                                          "endTime" : 0,
                                          "time" : 0,
                                          "value" : 1,
                                          "duration" : 0
                                        }
                                      ]
                                    },
                                    "offset" : {
                                      "type" : "double",
                                      "defaultValue" : 10.0,
                                      "valueBounds" : {
                                        "minValue" : 0.0,
                                        "maxValue" : 250.0,
                                        "defaultValue" : 10.0
                                      },
                                      "uiHints" : {
                                        "userInterfaceType" : 0,
                                        "unitType" : 0
                                      }
                                    },
                                    "opacity" : {
                                      "type" : "double",
                                      "defaultValue" : 0.741666666666667,
                                      "valueBounds" : {
                                        "minValue" : 0.0,
                                        "maxValue" : 1.0,
                                        "defaultValue" : 0.4
                                      },
                                      "uiHints" : {
                                        "userInterfaceType" : 0,
                                        "unitType" : 0
                                      }
                                    }
                                  }
                                }
                            ],
                            "start" : 114,
                            "duration" : 176,
                            "mediaStart" : -52,
                            "mediaDuration" : 176,
                            "scalar" : 1,
                            "metadata" : {
                              "WinSubProjectDisplayName" : "",
                              "clipSpeedAttribute" : false,
                              "default-HAlign" : "center",
                              "default-LineSpace" : 0.0,
                              "default-VAlign" : "center",
                              "default-text-attributes" : "[{\"name\":\"fontItalic\",\"rangeEnd\":9,\"rangeStart\":0,\"value\":0,\"valueType\":\"int\"},{\"name\":\"fontSize\",\"rangeEnd\":9,\"rangeStart\":0,\"value\":96,\"valueType\":\"double\"},{\"name\":\"fontName\",\"rangeEnd\":9,\"rangeStart\":0,\"value\":\"Montserrat\",\"valueType\":\"string\"},{\"name\":\"underline\",\"rangeEnd\":9,\"rangeStart\":0,\"value\":0,\"valueType\":\"int\"},{\"name\":\"fontWeight\",\"rangeEnd\":9,\"rangeStart\":0,\"value\":100,\"valueType\":\"int\"},{\"name\":\"strikethrough\",\"rangeEnd\":9,\"rangeStart\":0,\"value\":0,\"valueType\":\"int\"},{\"name\":\"fgColor\",\"rangeEnd\":9,\"rangeStart\":0,\"value\":\"(241,230,195,255)\",\"valueType\":\"color\"}]",
                              "default-translation0" : -66.0174967329584,
                              "default-translation1" : 46.64285714285,
                              "effectApplied" : "none"
                            },
                            "animationTracks" : {

                            }
                          }
                        ],
                          "ident" : "",
                          "audioMuted" : false,
                          "videoHidden" : false,
                          "magnetic" : false,
                          "metadata" : {
                            "IsLocked" : "False",
                            "WinTrackHeight" : "1.18064664215163e-311",
                            "trackHeight" : "48"
                          }
                      }
                    ],
                    "attributes" : {
                      "ident" : "squarepegs",
                      "gain" : 1.0,
                      "mixToMono" : false,
                      "assetProperties" : [
                        {
                          "type" : 0,
                          "name" : "Title",
                          "objects" : [ 103 ],
                          "themeMappings" :  {
                            "font-color" : "foreground-1",
                            "font-family" : "font-1"
                          }
                        },
                        {
                          "type" : 0,
                          "name" : "Subtitle",
                          "objects" : [ 102 ],
                          "themeMappings" :  {
                            "font-color" : "foreground-1",
                            "font-family" : "font-1"
                          }
                        }
                      ]
                    },
                    "effects" : [

                    ],
                    "start" : 1766,
                    "duration" : 176,
                    "mediaStart" : 114.0,
                    "mediaDuration" : 176.0,
                    "scalar" : 1,
                    "metadata" : {
                      "IsGroupExpanded" : "False",
                      "WinSubProjectDisplayName" : "",
                      "clipSpeedAttribute" : false,
                      "effectApplied" : "none",
                      "isOpen" : false
                    },
                    "animationTracks" : {

                    }
                  },
                  {
                    "id" : 104,
                    "_type" : "UnifiedMedia",
                    "video" : 
                        {
                          "id" : 105,
                          "_type" : "ScreenVMFile",
                          "src" : 3,
                          "trackNumber" : 0,
                          "attributes" : {
                            "ident" : "scratch-2.3-motion-moving-to-a-random-position"
                          },
                          "parameters" : {
                            "cursorScale" : {
                              "type" : "double",
                              "defaultValue" : 1.0,
                              "interp" : "linr"
                            },
                            "cursorOpacity" : {
                              "type" : "double",
                              "defaultValue" : 1.0,
                              "interp" : "linr"
                            }
                          },
                          "effects" : [

                          ],
                          "start" : 1942,
                          "duration" : 516,
                          "mediaStart" : 0,
                          "mediaDuration" : 516,
                          "scalar" : 1,
                          "animationTracks" : {

                          }
                        },
                    "audio" : 
                        {
                          "id" : 106,
                          "_type" : "AMFile",
                          "src" : 3,
                          "trackNumber" : 1,
                          "attributes" : {
                            "ident" : "",
                            "gain" : 1.0,
                            "mixToMono" : false
                          },
                            "channelNumber" : "0,1",
                          "effects" : [

                          ],
                          "start" : 1942,
                          "duration" : 516,
                          "mediaStart" : 0,
                          "mediaDuration" : 516,
                          "scalar" : 1,
                          "animationTracks" : {

                          }
                        }
,
                    "start" : 1942,
                    "duration" : 516,
                    "mediaStart" : 0,
                    "mediaDuration" : 516,
                    "scalar" : 1,
                    "metadata" : {
                      "AutoAppliedSmartFocus" : "False",
                      "clipSpeedAttribute" : false
                    }
                  },
                  {
                    "id" : 107,
                    "_type" : "Group",
                    "parameters" : {
                      "volume" : 1.0
                    },
                    "tracks" : [
                      {
                        "trackIndex" : 0,
                        "medias" : [
                          {
                            "id" : 108,
                            "_type" : "UnifiedMedia",
                            "video" : 
                                {
                                  "id" : 109,
                                  "_type" : "VMFile",
                                  "src" : 51,
                                  "trackNumber" : 0,
                                  "attributes" : {
                                    "ident" : "Movie"
                                  },
                                  "effects" : [

                                  ],
                                  "start" : 114,
                                  "duration" : 176,
                                  "mediaStart" : 114,
                                  "mediaDuration" : 176,
                                  "scalar" : 1,
                                  "animationTracks" : {

                                  }
                                },
                            "audio" : 
                                {
                                  "id" : 110,
                                  "_type" : "AMFile",
                                  "src" : 51,
                                  "trackNumber" : 1,
                                  "attributes" : {
                                    "ident" : "",
                                    "gain" : 1.0,
                                    "mixToMono" : false
                                  },
                                    "channelNumber" : "0,1",
                                  "effects" : [

                                  ],
                                  "start" : 114,
                                  "duration" : 176,
                                  "mediaStart" : 114,
                                  "mediaDuration" : 176,
                                  "scalar" : 1,
                                  "animationTracks" : {

                                  }
                                }
,
                            "start" : 114,
                            "duration" : 176,
                            "mediaStart" : 0,
                            "mediaDuration" : 438,
                            "scalar" : 1,
                            "metadata" : {
                              "WinSubProjectDisplayName" : "",
                              "clipSpeedAttribute" : false,
                              "effectApplied" : "none"
                            }
                          }
                        ],
                          "ident" : "",
                          "audioMuted" : false,
                          "videoHidden" : false,
                          "magnetic" : false,
                          "metadata" : {
                            "IsLocked" : "False",
                            "WinTrackHeight" : "0",
                            "trackHeight" : "48"
                          }
                      },
                      {
                        "trackIndex" : 1,
                        "medias" : [
                          {
                            "id" : 111,
                            "_type" : "Callout",
                            "def" : {
                              "kind" : "remix",
                              "shape" : "text",
                              "style" : "basic",
                              "height" : 78.4795300319492,
                              "line-spacing" : 0.0,
                              "width" : 583.0,
                              "word-wrap" : 1.0,
                              "horizontal-alignment" : "center",
                              "resize-behavior" : "resizeText",
                              "text" : "motion",
                              "vertical-alignment" : "center",
                              "font" : {
                                "color-blue" : 1.0,
                                "color-green" : 1.0,
                                "color-red" : 1.0,
                                "size" : 96.0,
                                "tracking" : 0.0,
                                "name" : "Montserrat",
                                "weight" : "Regular"
                              },
                              "textAttributes" : {
                                "type" : "textAttributeList",
                                "keyframes" : [
                                  {
                                    "endTime" : 0,
                                    "time" : 0,
                                    "value" : [{"name":"fontWeight","rangeEnd":6,"rangeStart":0,"value":400,"valueType":"int"},{"name":"fontItalic","rangeEnd":6,"rangeStart":0,"value":0,"valueType":"int"},{"name":"fontName","rangeEnd":6,"rangeStart":0,"value":"Montserrat","valueType":"string"},{"name":"fontSize","rangeEnd":6,"rangeStart":0,"value":55,"valueType":"double"},{"name":"fgColor","rangeEnd":6,"rangeStart":0,"value":"(239,231,195,255)","valueType":"color"},{"name":"strikethrough","rangeEnd":6,"rangeStart":0,"value":0,"valueType":"int"},{"name":"underline","rangeEnd":6,"rangeStart":0,"value":0,"valueType":"int"},{"name":"kerning","rangeEnd":6,"rangeStart":0,"value":0,"valueType":"double"}],
                                    "duration" : 0
                                  }
                                ]
                              }
                            },
                            "attributes" : {
                              "autoRotateText" : true
                            },
                            "parameters" : {
                              "translation0" : -1.77887982122371e-11,
                              "translation1" : -100.336673040374
                            },
                            "effects" : [
                                {
                                  "_type" : "GenericBehaviorEffect",
                                  "effectName" : "sliding",
                                  "start" : -18,
                                  "duration" : 80                                ,
                                  "in" : {
                                    "attributes" : {
                                      "name" : "sliding",
                                      "type" : 1,
                                      "characterOrder" : 0,
                                      "offsetBetweenCharacters" : 3,
                                      "suggestedDurationPerCharacter" : "999/50",
                                      "overlapProportion" : "11/20",
                                      "movement" : 16,
                                      "springDamping" : 5.0,
                                      "springStiffness" : 50.0,
                                      "bounceBounciness" : 0.45
                                    },
                                    "parameters" : {
                                      "direction" : {
                                        "type" : "int",
                                        "valueBounds" : {
                                          "minValue" : 0,
                                          "maxValue" : 3,
                                          "defaultValue" : 0
                                        },
                                        "uiHints" : {
                                          "userInterfaceType" : 2,
                                          "unitType" : 0
                                        },
                                        "keyframes" : [
                                          {
                                            "endTime" : 0,
                                            "time" : 0,
                                            "value" : 3,
                                            "duration" : 0
                                          }
                                        ]
                                      }
                                    }
                                  
                                  },
                                  "center" : {
                                    "attributes" : {
                                      "name" : "none",
                                      "type" : 1,
                                      "characterOrder" : 6,
                                      "offsetBetweenCharacters" : 0,
                                      "secondsPerLoop" : 1,
                                      "numberOfLoops" : -1,
                                      "delayBetweenLoops" : 0,
                                      "offsetBetweenCharacters" : 0
                                    }
                                  
                                  },
                                  "out" : {
                                    "attributes" : {
                                      "name" : "none",
                                      "type" : 1,
                                      "characterOrder" : 6,
                                      "offsetBetweenCharacters" : 0,
                                      "suggestedDurationPerCharacter" : 0,
                                      "overlapProportion" : 0,
                                      "movement" : -1,
                                      "springDamping" : 5.0,
                                      "springStiffness" : 50.0,
                                      "bounceBounciness" : 0.45
                                    }
                                  
                                  }
                                }
                            ],
                            "start" : 210,
                            "duration" : 80,
                            "mediaStart" : -18,
                            "mediaDuration" : 80,
                            "scalar" : 1,
                            "metadata" : {
                              "WinSubProjectDisplayName" : "",
                              "clipSpeedAttribute" : false,
                              "default-HAlign" : "center",
                              "default-LineSpace" : 0.0,
                              "default-VAlign" : "center",
                              "default-text-attributes" : "[{\"name\":\"strikethrough\",\"rangeEnd\":13,\"rangeStart\":0,\"value\":0,\"valueType\":\"int\"},{\"name\":\"fontWeight\",\"rangeEnd\":13,\"rangeStart\":0,\"value\":100,\"valueType\":\"int\"},{\"name\":\"fontSize\",\"rangeEnd\":13,\"rangeStart\":0,\"value\":55,\"valueType\":\"double\"},{\"name\":\"underline\",\"rangeEnd\":13,\"rangeStart\":0,\"value\":0,\"valueType\":\"int\"},{\"name\":\"fgColor\",\"rangeEnd\":13,\"rangeStart\":0,\"value\":\"(239,231,195,255)\",\"valueType\":\"color\"},{\"name\":\"fontItalic\",\"rangeEnd\":13,\"rangeStart\":0,\"value\":0,\"valueType\":\"int\"},{\"name\":\"fontName\",\"rangeEnd\":13,\"rangeStart\":0,\"value\":\"Montserrat\",\"valueType\":\"string\"}]",
                              "effectApplied" : "none"
                            },
                            "animationTracks" : {

                            }
                          }
                        ],
                          "ident" : "",
                          "audioMuted" : false,
                          "videoHidden" : false,
                          "magnetic" : false,
                          "metadata" : {
                            "IsLocked" : "False",
                            "WinTrackHeight" : "1.18064664215163e-311",
                            "trackHeight" : "48"
                          }
                      },
                      {
                        "trackIndex" : 2,
                        "medias" : [
                          {
                            "id" : 112,
                            "_type" : "Callout",
                            "def" : {
                              "kind" : "remix",
                              "shape" : "text",
                              "style" : "basic",
                              "height" : 177.714285714305,
                              "line-spacing" : 0.0,
                              "width" : 904.358937127979,
                              "word-wrap" : 1.0,
                              "horizontal-alignment" : "center",
                              "resize-behavior" : "resizeText",
                              "text" : "moving to the mouse pointer",
                              "vertical-alignment" : "center",
                              "font" : {
                                "color-blue" : 1.0,
                                "color-green" : 1.0,
                                "color-red" : 1.0,
                                "size" : 96.0,
                                "tracking" : 0.0,
                                "name" : "Montserrat",
                                "weight" : "Regular"
                              },
                              "textAttributes" : {
                                "type" : "textAttributeList",
                                "keyframes" : [
                                  {
                                    "endTime" : 0,
                                    "time" : 0,
                                    "value" : [{"name":"fontSize","rangeEnd":27,"rangeStart":0,"value":96,"valueType":"double"},{"name":"fgColor","rangeEnd":27,"rangeStart":0,"value":"(241,230,195,255)","valueType":"color"},{"name":"fontName","rangeEnd":27,"rangeStart":0,"value":"Montserrat","valueType":"string"},{"name":"kerning","rangeEnd":27,"rangeStart":0,"value":0,"valueType":"double"},{"name":"fontItalic","rangeEnd":27,"rangeStart":0,"value":0,"valueType":"int"},{"name":"underline","rangeEnd":27,"rangeStart":0,"value":0,"valueType":"int"},{"name":"strikethrough","rangeEnd":27,"rangeStart":0,"value":0,"valueType":"int"},{"name":"fontWeight","rangeEnd":27,"rangeStart":0,"value":400,"valueType":"int"}],
                                    "duration" : 0
                                  }
                                ]
                              }
                            },
                            "attributes" : {
                              "autoRotateText" : true
                            },
                            "parameters" : {
                              "translation0" : 0.320531435861056,
                              "translation1" : 27.642853721879
                            },
                            "effects" : [
                                {
                                  "_type" : "GenericBehaviorEffect",
                                  "effectName" : "scale",
                                  "start" : -52,
                                  "duration" : 176                                ,
                                  "in" : {
                                    "attributes" : {
                                      "name" : "grow",
                                      "type" : 1,
                                      "characterOrder" : 6,
                                      "offsetBetweenCharacters" : 2,
                                      "suggestedDurationPerCharacter" : "2333/25",
                                      "overlapProportion" : "3/4",
                                      "movement" : 30,
                                      "springDamping" : 5.0,
                                      "springStiffness" : 50.0,
                                      "bounceBounciness" : 0.45
                                    }
                                  
                                  },
                                  "center" : {
                                    "attributes" : {
                                      "name" : "none",
                                      "type" : 1,
                                      "characterOrder" : 6,
                                      "offsetBetweenCharacters" : 0,
                                      "secondsPerLoop" : 1,
                                      "numberOfLoops" : -1,
                                      "delayBetweenLoops" : 0,
                                      "offsetBetweenCharacters" : 0
                                    }
                                  
                                  },
                                  "out" : {
                                    "attributes" : {
                                      "name" : "none",
                                      "type" : 1,
                                      "characterOrder" : 6,
                                      "offsetBetweenCharacters" : 0,
                                      "suggestedDurationPerCharacter" : 0,
                                      "overlapProportion" : 0,
                                      "movement" : -1,
                                      "springDamping" : 5.0,
                                      "springStiffness" : 50.0,
                                      "bounceBounciness" : 0.45
                                    }
                                  
                                  }
                                },
                                {
                                  "effectName" : "DropShadow",
                                  "category" : "categoryVisualEffects",
                                  "parameters" : {
                                    "angle" : {
                                      "type" : "double",
                                      "defaultValue" : 4.71238898038469,
                                      "valueBounds" : {
                                        "minValue" : 0.0,
                                        "maxValue" : 0.0,
                                        "defaultValue" : 5.49778714378214
                                      },
                                      "uiHints" : {
                                        "userInterfaceType" : 0,
                                        "unitType" : 0
                                      }
                                    },
                                    "blur" : {
                                      "type" : "double",
                                      "defaultValue" : 3.33066907387547e-16,
                                      "valueBounds" : {
                                        "minValue" : 0.0,
                                        "maxValue" : 50.0,
                                        "defaultValue" : 10.0
                                      },
                                      "uiHints" : {
                                        "userInterfaceType" : 0,
                                        "unitType" : 0
                                      }
                                    },
                                    "color-alpha" : {
                                      "type" : "double",
                                      "defaultValue" : 1.0,
                                      "valueBounds" : {
                                        "minValue" : 0.0,
                                        "maxValue" : 1.0,
                                        "defaultValue" : 1.0
                                      },
                                      "uiHints" : {
                                        "userInterfaceType" : 0,
                                        "unitType" : 0
                                      }
                                    },
                                    "color-blue" : {
                                      "type" : "double",
                                      "defaultValue" : 0.1216,
                                      "valueBounds" : {
                                        "minValue" : 0.0,
                                        "maxValue" : 1.0,
                                        "defaultValue" : 0.1216
                                      },
                                      "uiHints" : {
                                        "userInterfaceType" : 0,
                                        "unitType" : 0
                                      }
                                    },
                                    "color-green" : {
                                      "type" : "double",
                                      "defaultValue" : 0.1216,
                                      "valueBounds" : {
                                        "minValue" : 0.0,
                                        "maxValue" : 1.0,
                                        "defaultValue" : 0.1216
                                      },
                                      "uiHints" : {
                                        "userInterfaceType" : 0,
                                        "unitType" : 0
                                      }
                                    },
                                    "color-red" : {
                                      "type" : "double",
                                      "defaultValue" : 0.1216,
                                      "valueBounds" : {
                                        "minValue" : 0.0,
                                        "maxValue" : 1.0,
                                        "defaultValue" : 0.1216
                                      },
                                      "uiHints" : {
                                        "userInterfaceType" : 0,
                                        "unitType" : 0
                                      }
                                    },
                                    "enabled" : {
                                      "type" : "int",
                                      "valueBounds" : {
                                        "minValue" : 0,
                                        "maxValue" : 1,
                                        "defaultValue" : 1
                                      },
                                      "uiHints" : {
                                        "userInterfaceType" : 0,
                                        "unitType" : 0
                                      },
                                      "keyframes" : [
                                        {
                                          "endTime" : 0,
                                          "time" : 0,
                                          "value" : 1,
                                          "duration" : 0
                                        }
                                      ]
                                    },
                                    "offset" : {
                                      "type" : "double",
                                      "defaultValue" : 10.0,
                                      "valueBounds" : {
                                        "minValue" : 0.0,
                                        "maxValue" : 250.0,
                                        "defaultValue" : 10.0
                                      },
                                      "uiHints" : {
                                        "userInterfaceType" : 0,
                                        "unitType" : 0
                                      }
                                    },
                                    "opacity" : {
                                      "type" : "double",
                                      "defaultValue" : 0.741666666666667,
                                      "valueBounds" : {
                                        "minValue" : 0.0,
                                        "maxValue" : 1.0,
                                        "defaultValue" : 0.4
                                      },
                                      "uiHints" : {
                                        "userInterfaceType" : 0,
                                        "unitType" : 0
                                      }
                                    }
                                  }
                                }
                            ],
                            "start" : 114,
                            "duration" : 176,
                            "mediaStart" : -52,
                            "mediaDuration" : 176,
                            "scalar" : 1,
                            "metadata" : {
                              "WinSubProjectDisplayName" : "",
                              "clipSpeedAttribute" : false,
                              "default-HAlign" : "center",
                              "default-LineSpace" : 0.0,
                              "default-VAlign" : "center",
                              "default-text-attributes" : "[{\"name\":\"fontItalic\",\"rangeEnd\":9,\"rangeStart\":0,\"value\":0,\"valueType\":\"int\"},{\"name\":\"fontSize\",\"rangeEnd\":9,\"rangeStart\":0,\"value\":96,\"valueType\":\"double\"},{\"name\":\"fontName\",\"rangeEnd\":9,\"rangeStart\":0,\"value\":\"Montserrat\",\"valueType\":\"string\"},{\"name\":\"underline\",\"rangeEnd\":9,\"rangeStart\":0,\"value\":0,\"valueType\":\"int\"},{\"name\":\"fontWeight\",\"rangeEnd\":9,\"rangeStart\":0,\"value\":100,\"valueType\":\"int\"},{\"name\":\"strikethrough\",\"rangeEnd\":9,\"rangeStart\":0,\"value\":0,\"valueType\":\"int\"},{\"name\":\"fgColor\",\"rangeEnd\":9,\"rangeStart\":0,\"value\":\"(241,230,195,255)\",\"valueType\":\"color\"}]",
                              "default-translation0" : -66.0174967329584,
                              "default-translation1" : 46.64285714285,
                              "effectApplied" : "none"
                            },
                            "animationTracks" : {

                            }
                          }
                        ],
                          "ident" : "",
                          "audioMuted" : false,
                          "videoHidden" : false,
                          "magnetic" : false,
                          "metadata" : {
                            "IsLocked" : "False",
                            "WinTrackHeight" : "1.18064664215163e-311",
                            "trackHeight" : "48"
                          }
                      }
                    ],
                    "attributes" : {
                      "ident" : "squarepegs",
                      "gain" : 1.0,
                      "mixToMono" : false,
                      "assetProperties" : [
                        {
                          "type" : 0,
                          "name" : "Title",
                          "objects" : [ 112 ],
                          "themeMappings" :  {
                            "font-color" : "foreground-1",
                            "font-family" : "font-1"
                          }
                        },
                        {
                          "type" : 0,
                          "name" : "Subtitle",
                          "objects" : [ 111 ],
                          "themeMappings" :  {
                            "font-color" : "foreground-1",
                            "font-family" : "font-1"
                          }
                        }
                      ]
                    },
                    "effects" : [

                    ],
                    "start" : 2458,
                    "duration" : 176,
                    "mediaStart" : 114.0,
                    "mediaDuration" : 176.0,
                    "scalar" : 1,
                    "metadata" : {
                      "IsGroupExpanded" : "False",
                      "WinSubProjectDisplayName" : "",
                      "clipSpeedAttribute" : false,
                      "effectApplied" : "none",
                      "isOpen" : false
                    },
                    "animationTracks" : {

                    }
                  },
                  {
                    "id" : 113,
                    "_type" : "UnifiedMedia",
                    "video" : 
                        {
                          "id" : 114,
                          "_type" : "ScreenVMFile",
                          "src" : 4,
                          "trackNumber" : 0,
                          "attributes" : {
                            "ident" : "scratch-2.4-motion-moving-to-the-mouse-pointer"
                          },
                          "parameters" : {
                            "cursorScale" : {
                              "type" : "double",
                              "defaultValue" : 1.0,
                              "interp" : "linr"
                            },
                            "cursorOpacity" : {
                              "type" : "double",
                              "defaultValue" : 1.0,
                              "interp" : "linr"
                            }
                          },
                          "effects" : [

                          ],
                          "start" : 2634,
                          "duration" : 652,
                          "mediaStart" : 0,
                          "mediaDuration" : 652,
                          "scalar" : 1,
                          "animationTracks" : {

                          }
                        },
                    "audio" : 
                        {
                          "id" : 115,
                          "_type" : "AMFile",
                          "src" : 4,
                          "trackNumber" : 1,
                          "attributes" : {
                            "ident" : "",
                            "gain" : 1.0,
                            "mixToMono" : false
                          },
                            "channelNumber" : "0,1",
                          "effects" : [

                          ],
                          "start" : 2634,
                          "duration" : 652,
                          "mediaStart" : 0,
                          "mediaDuration" : 652,
                          "scalar" : 1,
                          "animationTracks" : {

                          }
                        }
,
                    "start" : 2634,
                    "duration" : 652,
                    "mediaStart" : 0,
                    "mediaDuration" : 652,
                    "scalar" : 1,
                    "metadata" : {
                      "AutoAppliedSmartFocus" : "False",
                      "clipSpeedAttribute" : false
                    }
                  },
                  {
                    "id" : 116,
                    "_type" : "Group",
                    "parameters" : {
                      "volume" : 1.0
                    },
                    "tracks" : [
                      {
                        "trackIndex" : 0,
                        "medias" : [
                          {
                            "id" : 117,
                            "_type" : "UnifiedMedia",
                            "video" : 
                                {
                                  "id" : 118,
                                  "_type" : "VMFile",
                                  "src" : 51,
                                  "trackNumber" : 0,
                                  "attributes" : {
                                    "ident" : "Movie"
                                  },
                                  "effects" : [

                                  ],
                                  "start" : 114,
                                  "duration" : 176,
                                  "mediaStart" : 114,
                                  "mediaDuration" : 176,
                                  "scalar" : 1,
                                  "animationTracks" : {

                                  }
                                },
                            "audio" : 
                                {
                                  "id" : 119,
                                  "_type" : "AMFile",
                                  "src" : 51,
                                  "trackNumber" : 1,
                                  "attributes" : {
                                    "ident" : "",
                                    "gain" : 1.0,
                                    "mixToMono" : false
                                  },
                                    "channelNumber" : "0,1",
                                  "effects" : [

                                  ],
                                  "start" : 114,
                                  "duration" : 176,
                                  "mediaStart" : 114,
                                  "mediaDuration" : 176,
                                  "scalar" : 1,
                                  "animationTracks" : {

                                  }
                                }
,
                            "start" : 114,
                            "duration" : 176,
                            "mediaStart" : 0,
                            "mediaDuration" : 438,
                            "scalar" : 1,
                            "metadata" : {
                              "WinSubProjectDisplayName" : "",
                              "clipSpeedAttribute" : false,
                              "effectApplied" : "none"
                            }
                          }
                        ],
                          "ident" : "",
                          "audioMuted" : false,
                          "videoHidden" : false,
                          "magnetic" : false,
                          "metadata" : {
                            "IsLocked" : "False",
                            "WinTrackHeight" : "0",
                            "trackHeight" : "48"
                          }
                      },
                      {
                        "trackIndex" : 1,
                        "medias" : [
                          {
                            "id" : 120,
                            "_type" : "Callout",
                            "def" : {
                              "kind" : "remix",
                              "shape" : "text",
                              "style" : "basic",
                              "height" : 78.4795300319492,
                              "line-spacing" : 0.0,
                              "width" : 583.0,
                              "word-wrap" : 1.0,
                              "horizontal-alignment" : "center",
                              "resize-behavior" : "resizeText",
                              "text" : "motion",
                              "vertical-alignment" : "center",
                              "font" : {
                                "color-blue" : 1.0,
                                "color-green" : 1.0,
                                "color-red" : 1.0,
                                "size" : 96.0,
                                "tracking" : 0.0,
                                "name" : "Montserrat",
                                "weight" : "Regular"
                              },
                              "textAttributes" : {
                                "type" : "textAttributeList",
                                "keyframes" : [
                                  {
                                    "endTime" : 0,
                                    "time" : 0,
                                    "value" : [{"name":"fontWeight","rangeEnd":6,"rangeStart":0,"value":400,"valueType":"int"},{"name":"fontItalic","rangeEnd":6,"rangeStart":0,"value":0,"valueType":"int"},{"name":"fontName","rangeEnd":6,"rangeStart":0,"value":"Montserrat","valueType":"string"},{"name":"fontSize","rangeEnd":6,"rangeStart":0,"value":55,"valueType":"double"},{"name":"fgColor","rangeEnd":6,"rangeStart":0,"value":"(239,231,195,255)","valueType":"color"},{"name":"strikethrough","rangeEnd":6,"rangeStart":0,"value":0,"valueType":"int"},{"name":"underline","rangeEnd":6,"rangeStart":0,"value":0,"valueType":"int"},{"name":"kerning","rangeEnd":6,"rangeStart":0,"value":0,"valueType":"double"}],
                                    "duration" : 0
                                  }
                                ]
                              }
                            },
                            "attributes" : {
                              "autoRotateText" : true
                            },
                            "parameters" : {
                              "translation0" : -1.77887982122371e-11,
                              "translation1" : -100.336673040374
                            },
                            "effects" : [
                                {
                                  "_type" : "GenericBehaviorEffect",
                                  "effectName" : "sliding",
                                  "start" : -18,
                                  "duration" : 80                                ,
                                  "in" : {
                                    "attributes" : {
                                      "name" : "sliding",
                                      "type" : 1,
                                      "characterOrder" : 0,
                                      "offsetBetweenCharacters" : 3,
                                      "suggestedDurationPerCharacter" : "999/50",
                                      "overlapProportion" : "11/20",
                                      "movement" : 16,
                                      "springDamping" : 5.0,
                                      "springStiffness" : 50.0,
                                      "bounceBounciness" : 0.45
                                    },
                                    "parameters" : {
                                      "direction" : {
                                        "type" : "int",
                                        "valueBounds" : {
                                          "minValue" : 0,
                                          "maxValue" : 3,
                                          "defaultValue" : 0
                                        },
                                        "uiHints" : {
                                          "userInterfaceType" : 2,
                                          "unitType" : 0
                                        },
                                        "keyframes" : [
                                          {
                                            "endTime" : 0,
                                            "time" : 0,
                                            "value" : 3,
                                            "duration" : 0
                                          }
                                        ]
                                      }
                                    }
                                  
                                  },
                                  "center" : {
                                    "attributes" : {
                                      "name" : "none",
                                      "type" : 1,
                                      "characterOrder" : 6,
                                      "offsetBetweenCharacters" : 0,
                                      "secondsPerLoop" : 1,
                                      "numberOfLoops" : -1,
                                      "delayBetweenLoops" : 0,
                                      "offsetBetweenCharacters" : 0
                                    }
                                  
                                  },
                                  "out" : {
                                    "attributes" : {
                                      "name" : "none",
                                      "type" : 1,
                                      "characterOrder" : 6,
                                      "offsetBetweenCharacters" : 0,
                                      "suggestedDurationPerCharacter" : 0,
                                      "overlapProportion" : 0,
                                      "movement" : -1,
                                      "springDamping" : 5.0,
                                      "springStiffness" : 50.0,
                                      "bounceBounciness" : 0.45
                                    }
                                  
                                  }
                                }
                            ],
                            "start" : 210,
                            "duration" : 80,
                            "mediaStart" : -18,
                            "mediaDuration" : 80,
                            "scalar" : 1,
                            "metadata" : {
                              "WinSubProjectDisplayName" : "",
                              "clipSpeedAttribute" : false,
                              "default-HAlign" : "center",
                              "default-LineSpace" : 0.0,
                              "default-VAlign" : "center",
                              "default-text-attributes" : "[{\"name\":\"strikethrough\",\"rangeEnd\":13,\"rangeStart\":0,\"value\":0,\"valueType\":\"int\"},{\"name\":\"fontWeight\",\"rangeEnd\":13,\"rangeStart\":0,\"value\":100,\"valueType\":\"int\"},{\"name\":\"fontSize\",\"rangeEnd\":13,\"rangeStart\":0,\"value\":55,\"valueType\":\"double\"},{\"name\":\"underline\",\"rangeEnd\":13,\"rangeStart\":0,\"value\":0,\"valueType\":\"int\"},{\"name\":\"fgColor\",\"rangeEnd\":13,\"rangeStart\":0,\"value\":\"(239,231,195,255)\",\"valueType\":\"color\"},{\"name\":\"fontItalic\",\"rangeEnd\":13,\"rangeStart\":0,\"value\":0,\"valueType\":\"int\"},{\"name\":\"fontName\",\"rangeEnd\":13,\"rangeStart\":0,\"value\":\"Montserrat\",\"valueType\":\"string\"}]",
                              "effectApplied" : "none"
                            },
                            "animationTracks" : {

                            }
                          }
                        ],
                          "ident" : "",
                          "audioMuted" : false,
                          "videoHidden" : false,
                          "magnetic" : false,
                          "metadata" : {
                            "IsLocked" : "False",
                            "WinTrackHeight" : "1.18064664215163e-311",
                            "trackHeight" : "48"
                          }
                      },
                      {
                        "trackIndex" : 2,
                        "medias" : [
                          {
                            "id" : 121,
                            "_type" : "Callout",
                            "def" : {
                              "kind" : "remix",
                              "shape" : "text",
                              "style" : "basic",
                              "height" : 177.714285714305,
                              "line-spacing" : 0.0,
                              "width" : 904.358937127979,
                              "word-wrap" : 1.0,
                              "horizontal-alignment" : "center",
                              "resize-behavior" : "resizeText",
                              "text" : "moving to a specific x and y coordinate",
                              "vertical-alignment" : "center",
                              "font" : {
                                "color-blue" : 1.0,
                                "color-green" : 1.0,
                                "color-red" : 1.0,
                                "size" : 96.0,
                                "tracking" : 0.0,
                                "name" : "Montserrat",
                                "weight" : "Regular"
                              },
                              "textAttributes" : {
                                "type" : "textAttributeList",
                                "keyframes" : [
                                  {
                                    "endTime" : 0,
                                    "time" : 0,
                                    "value" : [{"name":"fontSize","rangeEnd":39,"rangeStart":0,"value":96,"valueType":"double"},{"name":"fontItalic","rangeEnd":39,"rangeStart":0,"value":0,"valueType":"int"},{"name":"fontName","rangeEnd":39,"rangeStart":0,"value":"Montserrat","valueType":"string"},{"name":"fgColor","rangeEnd":39,"rangeStart":0,"value":"(241,230,195,255)","valueType":"color"},{"name":"strikethrough","rangeEnd":39,"rangeStart":0,"value":0,"valueType":"int"},{"name":"underline","rangeEnd":39,"rangeStart":0,"value":0,"valueType":"int"},{"name":"kerning","rangeEnd":39,"rangeStart":0,"value":0,"valueType":"double"},{"name":"fontWeight","rangeEnd":39,"rangeStart":0,"value":400,"valueType":"int"}],
                                    "duration" : 0
                                  }
                                ]
                              }
                            },
                            "attributes" : {
                              "autoRotateText" : true
                            },
                            "parameters" : {
                              "translation0" : 0.320531435861056,
                              "translation1" : 27.642853721879
                            },
                            "effects" : [
                                {
                                  "_type" : "GenericBehaviorEffect",
                                  "effectName" : "scale",
                                  "start" : -52,
                                  "duration" : 176                                ,
                                  "in" : {
                                    "attributes" : {
                                      "name" : "grow",
                                      "type" : 1,
                                      "characterOrder" : 6,
                                      "offsetBetweenCharacters" : 2,
                                      "suggestedDurationPerCharacter" : "2333/25",
                                      "overlapProportion" : "3/4",
                                      "movement" : 30,
                                      "springDamping" : 5.0,
                                      "springStiffness" : 50.0,
                                      "bounceBounciness" : 0.45
                                    }
                                  
                                  },
                                  "center" : {
                                    "attributes" : {
                                      "name" : "none",
                                      "type" : 1,
                                      "characterOrder" : 6,
                                      "offsetBetweenCharacters" : 0,
                                      "secondsPerLoop" : 1,
                                      "numberOfLoops" : -1,
                                      "delayBetweenLoops" : 0,
                                      "offsetBetweenCharacters" : 0
                                    }
                                  
                                  },
                                  "out" : {
                                    "attributes" : {
                                      "name" : "none",
                                      "type" : 1,
                                      "characterOrder" : 6,
                                      "offsetBetweenCharacters" : 0,
                                      "suggestedDurationPerCharacter" : 0,
                                      "overlapProportion" : 0,
                                      "movement" : -1,
                                      "springDamping" : 5.0,
                                      "springStiffness" : 50.0,
                                      "bounceBounciness" : 0.45
                                    }
                                  
                                  }
                                },
                                {
                                  "effectName" : "DropShadow",
                                  "category" : "categoryVisualEffects",
                                  "parameters" : {
                                    "angle" : {
                                      "type" : "double",
                                      "defaultValue" : 4.71238898038469,
                                      "valueBounds" : {
                                        "minValue" : 0.0,
                                        "maxValue" : 0.0,
                                        "defaultValue" : 5.49778714378214
                                      },
                                      "uiHints" : {
                                        "userInterfaceType" : 0,
                                        "unitType" : 0
                                      }
                                    },
                                    "blur" : {
                                      "type" : "double",
                                      "defaultValue" : 3.33066907387547e-16,
                                      "valueBounds" : {
                                        "minValue" : 0.0,
                                        "maxValue" : 50.0,
                                        "defaultValue" : 10.0
                                      },
                                      "uiHints" : {
                                        "userInterfaceType" : 0,
                                        "unitType" : 0
                                      }
                                    },
                                    "color-alpha" : {
                                      "type" : "double",
                                      "defaultValue" : 1.0,
                                      "valueBounds" : {
                                        "minValue" : 0.0,
                                        "maxValue" : 1.0,
                                        "defaultValue" : 1.0
                                      },
                                      "uiHints" : {
                                        "userInterfaceType" : 0,
                                        "unitType" : 0
                                      }
                                    },
                                    "color-blue" : {
                                      "type" : "double",
                                      "defaultValue" : 0.1216,
                                      "valueBounds" : {
                                        "minValue" : 0.0,
                                        "maxValue" : 1.0,
                                        "defaultValue" : 0.1216
                                      },
                                      "uiHints" : {
                                        "userInterfaceType" : 0,
                                        "unitType" : 0
                                      }
                                    },
                                    "color-green" : {
                                      "type" : "double",
                                      "defaultValue" : 0.1216,
                                      "valueBounds" : {
                                        "minValue" : 0.0,
                                        "maxValue" : 1.0,
                                        "defaultValue" : 0.1216
                                      },
                                      "uiHints" : {
                                        "userInterfaceType" : 0,
                                        "unitType" : 0
                                      }
                                    },
                                    "color-red" : {
                                      "type" : "double",
                                      "defaultValue" : 0.1216,
                                      "valueBounds" : {
                                        "minValue" : 0.0,
                                        "maxValue" : 1.0,
                                        "defaultValue" : 0.1216
                                      },
                                      "uiHints" : {
                                        "userInterfaceType" : 0,
                                        "unitType" : 0
                                      }
                                    },
                                    "enabled" : {
                                      "type" : "int",
                                      "valueBounds" : {
                                        "minValue" : 0,
                                        "maxValue" : 1,
                                        "defaultValue" : 1
                                      },
                                      "uiHints" : {
                                        "userInterfaceType" : 0,
                                        "unitType" : 0
                                      },
                                      "keyframes" : [
                                        {
                                          "endTime" : 0,
                                          "time" : 0,
                                          "value" : 1,
                                          "duration" : 0
                                        }
                                      ]
                                    },
                                    "offset" : {
                                      "type" : "double",
                                      "defaultValue" : 10.0,
                                      "valueBounds" : {
                                        "minValue" : 0.0,
                                        "maxValue" : 250.0,
                                        "defaultValue" : 10.0
                                      },
                                      "uiHints" : {
                                        "userInterfaceType" : 0,
                                        "unitType" : 0
                                      }
                                    },
                                    "opacity" : {
                                      "type" : "double",
                                      "defaultValue" : 0.741666666666667,
                                      "valueBounds" : {
                                        "minValue" : 0.0,
                                        "maxValue" : 1.0,
                                        "defaultValue" : 0.4
                                      },
                                      "uiHints" : {
                                        "userInterfaceType" : 0,
                                        "unitType" : 0
                                      }
                                    }
                                  }
                                }
                            ],
                            "start" : 114,
                            "duration" : 176,
                            "mediaStart" : -52,
                            "mediaDuration" : 176,
                            "scalar" : 1,
                            "metadata" : {
                              "WinSubProjectDisplayName" : "",
                              "clipSpeedAttribute" : false,
                              "default-HAlign" : "center",
                              "default-LineSpace" : 0.0,
                              "default-VAlign" : "center",
                              "default-text-attributes" : "[{\"name\":\"fontItalic\",\"rangeEnd\":9,\"rangeStart\":0,\"value\":0,\"valueType\":\"int\"},{\"name\":\"fontSize\",\"rangeEnd\":9,\"rangeStart\":0,\"value\":96,\"valueType\":\"double\"},{\"name\":\"fontName\",\"rangeEnd\":9,\"rangeStart\":0,\"value\":\"Montserrat\",\"valueType\":\"string\"},{\"name\":\"underline\",\"rangeEnd\":9,\"rangeStart\":0,\"value\":0,\"valueType\":\"int\"},{\"name\":\"fontWeight\",\"rangeEnd\":9,\"rangeStart\":0,\"value\":100,\"valueType\":\"int\"},{\"name\":\"strikethrough\",\"rangeEnd\":9,\"rangeStart\":0,\"value\":0,\"valueType\":\"int\"},{\"name\":\"fgColor\",\"rangeEnd\":9,\"rangeStart\":0,\"value\":\"(241,230,195,255)\",\"valueType\":\"color\"}]",
                              "default-translation0" : -66.0174967329584,
                              "default-translation1" : 46.64285714285,
                              "effectApplied" : "none"
                            },
                            "animationTracks" : {

                            }
                          }
                        ],
                          "ident" : "",
                          "audioMuted" : false,
                          "videoHidden" : false,
                          "magnetic" : false,
                          "metadata" : {
                            "IsLocked" : "False",
                            "WinTrackHeight" : "1.18064664215163e-311",
                            "trackHeight" : "48"
                          }
                      }
                    ],
                    "attributes" : {
                      "ident" : "squarepegs",
                      "gain" : 1.0,
                      "mixToMono" : false,
                      "assetProperties" : [
                        {
                          "type" : 0,
                          "name" : "Title",
                          "objects" : [ 121 ],
                          "themeMappings" :  {
                            "font-color" : "foreground-1",
                            "font-family" : "font-1"
                          }
                        },
                        {
                          "type" : 0,
                          "name" : "Subtitle",
                          "objects" : [ 120 ],
                          "themeMappings" :  {
                            "font-color" : "foreground-1",
                            "font-family" : "font-1"
                          }
                        }
                      ]
                    },
                    "effects" : [

                    ],
                    "start" : 3286,
                    "duration" : 176,
                    "mediaStart" : 114.0,
                    "mediaDuration" : 176.0,
                    "scalar" : 1,
                    "metadata" : {
                      "IsGroupExpanded" : "False",
                      "WinSubProjectDisplayName" : "",
                      "clipSpeedAttribute" : false,
                      "effectApplied" : "none",
                      "isOpen" : false
                    },
                    "animationTracks" : {

                    }
                  },
                  {
                    "id" : 122,
                    "_type" : "UnifiedMedia",
                    "video" : 
                        {
                          "id" : 123,
                          "_type" : "ScreenVMFile",
                          "src" : 5,
                          "trackNumber" : 0,
                          "attributes" : {
                            "ident" : "scratch-2.5-motion-moving-to-a-specific-x-and-y-coordinate"
                          },
                          "parameters" : {
                            "cursorScale" : {
                              "type" : "double",
                              "defaultValue" : 1.0,
                              "interp" : "linr"
                            },
                            "cursorOpacity" : {
                              "type" : "double",
                              "defaultValue" : 1.0,
                              "interp" : "linr"
                            }
                          },
                          "effects" : [

                          ],
                          "start" : 3462,
                          "duration" : 702,
                          "mediaStart" : 0,
                          "mediaDuration" : 702,
                          "scalar" : 1,
                          "animationTracks" : {

                          }
                        },
                    "audio" : 
                        {
                          "id" : 124,
                          "_type" : "AMFile",
                          "src" : 5,
                          "trackNumber" : 1,
                          "attributes" : {
                            "ident" : "",
                            "gain" : 1.0,
                            "mixToMono" : false
                          },
                            "channelNumber" : "0,1",
                          "effects" : [

                          ],
                          "start" : 3462,
                          "duration" : 702,
                          "mediaStart" : 0,
                          "mediaDuration" : 702,
                          "scalar" : 1,
                          "animationTracks" : {

                          }
                        }
,
                    "start" : 3462,
                    "duration" : 702,
                    "mediaStart" : 0,
                    "mediaDuration" : 702,
                    "scalar" : 1,
                    "metadata" : {
                      "AutoAppliedSmartFocus" : "False",
                      "clipSpeedAttribute" : false
                    }
                  },
                  {
                    "id" : 125,
                    "_type" : "Group",
                    "parameters" : {
                      "volume" : 1.0
                    },
                    "tracks" : [
                      {
                        "trackIndex" : 0,
                        "medias" : [
                          {
                            "id" : 126,
                            "_type" : "UnifiedMedia",
                            "video" : 
                                {
                                  "id" : 127,
                                  "_type" : "VMFile",
                                  "src" : 51,
                                  "trackNumber" : 0,
                                  "attributes" : {
                                    "ident" : "Movie"
                                  },
                                  "effects" : [

                                  ],
                                  "start" : 114,
                                  "duration" : 176,
                                  "mediaStart" : 114,
                                  "mediaDuration" : 176,
                                  "scalar" : 1,
                                  "animationTracks" : {

                                  }
                                },
                            "audio" : 
                                {
                                  "id" : 128,
                                  "_type" : "AMFile",
                                  "src" : 51,
                                  "trackNumber" : 1,
                                  "attributes" : {
                                    "ident" : "",
                                    "gain" : 1.0,
                                    "mixToMono" : false
                                  },
                                    "channelNumber" : "0,1",
                                  "effects" : [

                                  ],
                                  "start" : 114,
                                  "duration" : 176,
                                  "mediaStart" : 114,
                                  "mediaDuration" : 176,
                                  "scalar" : 1,
                                  "animationTracks" : {

                                  }
                                }
,
                            "start" : 114,
                            "duration" : 176,
                            "mediaStart" : 0,
                            "mediaDuration" : 438,
                            "scalar" : 1,
                            "metadata" : {
                              "WinSubProjectDisplayName" : "",
                              "clipSpeedAttribute" : false,
                              "effectApplied" : "none"
                            }
                          }
                        ],
                          "ident" : "",
                          "audioMuted" : false,
                          "videoHidden" : false,
                          "magnetic" : false,
                          "metadata" : {
                            "IsLocked" : "False",
                            "WinTrackHeight" : "0",
                            "trackHeight" : "48"
                          }
                      },
                      {
                        "trackIndex" : 1,
                        "medias" : [
                          {
                            "id" : 129,
                            "_type" : "Callout",
                            "def" : {
                              "kind" : "remix",
                              "shape" : "text",
                              "style" : "basic",
                              "height" : 78.4795300319492,
                              "line-spacing" : 0.0,
                              "width" : 583.0,
                              "word-wrap" : 1.0,
                              "horizontal-alignment" : "center",
                              "resize-behavior" : "resizeText",
                              "text" : "motion",
                              "vertical-alignment" : "center",
                              "font" : {
                                "color-blue" : 1.0,
                                "color-green" : 1.0,
                                "color-red" : 1.0,
                                "size" : 96.0,
                                "tracking" : 0.0,
                                "name" : "Montserrat",
                                "weight" : "Regular"
                              },
                              "textAttributes" : {
                                "type" : "textAttributeList",
                                "keyframes" : [
                                  {
                                    "endTime" : 0,
                                    "time" : 0,
                                    "value" : [{"name":"fontWeight","rangeEnd":6,"rangeStart":0,"value":400,"valueType":"int"},{"name":"fontItalic","rangeEnd":6,"rangeStart":0,"value":0,"valueType":"int"},{"name":"fontName","rangeEnd":6,"rangeStart":0,"value":"Montserrat","valueType":"string"},{"name":"fontSize","rangeEnd":6,"rangeStart":0,"value":55,"valueType":"double"},{"name":"fgColor","rangeEnd":6,"rangeStart":0,"value":"(239,231,195,255)","valueType":"color"},{"name":"strikethrough","rangeEnd":6,"rangeStart":0,"value":0,"valueType":"int"},{"name":"underline","rangeEnd":6,"rangeStart":0,"value":0,"valueType":"int"},{"name":"kerning","rangeEnd":6,"rangeStart":0,"value":0,"valueType":"double"}],
                                    "duration" : 0
                                  }
                                ]
                              }
                            },
                            "attributes" : {
                              "autoRotateText" : true
                            },
                            "parameters" : {
                              "translation0" : -1.77887982122371e-11,
                              "translation1" : -100.336673040374
                            },
                            "effects" : [
                                {
                                  "_type" : "GenericBehaviorEffect",
                                  "effectName" : "sliding",
                                  "start" : -18,
                                  "duration" : 80                                ,
                                  "in" : {
                                    "attributes" : {
                                      "name" : "sliding",
                                      "type" : 1,
                                      "characterOrder" : 0,
                                      "offsetBetweenCharacters" : 3,
                                      "suggestedDurationPerCharacter" : "999/50",
                                      "overlapProportion" : "11/20",
                                      "movement" : 16,
                                      "springDamping" : 5.0,
                                      "springStiffness" : 50.0,
                                      "bounceBounciness" : 0.45
                                    },
                                    "parameters" : {
                                      "direction" : {
                                        "type" : "int",
                                        "valueBounds" : {
                                          "minValue" : 0,
                                          "maxValue" : 3,
                                          "defaultValue" : 0
                                        },
                                        "uiHints" : {
                                          "userInterfaceType" : 2,
                                          "unitType" : 0
                                        },
                                        "keyframes" : [
                                          {
                                            "endTime" : 0,
                                            "time" : 0,
                                            "value" : 3,
                                            "duration" : 0
                                          }
                                        ]
                                      }
                                    }
                                  
                                  },
                                  "center" : {
                                    "attributes" : {
                                      "name" : "none",
                                      "type" : 1,
                                      "characterOrder" : 6,
                                      "offsetBetweenCharacters" : 0,
                                      "secondsPerLoop" : 1,
                                      "numberOfLoops" : -1,
                                      "delayBetweenLoops" : 0,
                                      "offsetBetweenCharacters" : 0
                                    }
                                  
                                  },
                                  "out" : {
                                    "attributes" : {
                                      "name" : "none",
                                      "type" : 1,
                                      "characterOrder" : 6,
                                      "offsetBetweenCharacters" : 0,
                                      "suggestedDurationPerCharacter" : 0,
                                      "overlapProportion" : 0,
                                      "movement" : -1,
                                      "springDamping" : 5.0,
                                      "springStiffness" : 50.0,
                                      "bounceBounciness" : 0.45
                                    }
                                  
                                  }
                                }
                            ],
                            "start" : 210,
                            "duration" : 80,
                            "mediaStart" : -18,
                            "mediaDuration" : 80,
                            "scalar" : 1,
                            "metadata" : {
                              "WinSubProjectDisplayName" : "",
                              "clipSpeedAttribute" : false,
                              "default-HAlign" : "center",
                              "default-LineSpace" : 0.0,
                              "default-VAlign" : "center",
                              "default-text-attributes" : "[{\"name\":\"strikethrough\",\"rangeEnd\":13,\"rangeStart\":0,\"value\":0,\"valueType\":\"int\"},{\"name\":\"fontWeight\",\"rangeEnd\":13,\"rangeStart\":0,\"value\":100,\"valueType\":\"int\"},{\"name\":\"fontSize\",\"rangeEnd\":13,\"rangeStart\":0,\"value\":55,\"valueType\":\"double\"},{\"name\":\"underline\",\"rangeEnd\":13,\"rangeStart\":0,\"value\":0,\"valueType\":\"int\"},{\"name\":\"fgColor\",\"rangeEnd\":13,\"rangeStart\":0,\"value\":\"(239,231,195,255)\",\"valueType\":\"color\"},{\"name\":\"fontItalic\",\"rangeEnd\":13,\"rangeStart\":0,\"value\":0,\"valueType\":\"int\"},{\"name\":\"fontName\",\"rangeEnd\":13,\"rangeStart\":0,\"value\":\"Montserrat\",\"valueType\":\"string\"}]",
                              "effectApplied" : "none"
                            },
                            "animationTracks" : {

                            }
                          }
                        ],
                          "ident" : "",
                          "audioMuted" : false,
                          "videoHidden" : false,
                          "magnetic" : false,
                          "metadata" : {
                            "IsLocked" : "False",
                            "WinTrackHeight" : "1.18064664215163e-311",
                            "trackHeight" : "48"
                          }
                      },
                      {
                        "trackIndex" : 2,
                        "medias" : [
                          {
                            "id" : 130,
                            "_type" : "Callout",
                            "def" : {
                              "kind" : "remix",
                              "shape" : "text",
                              "style" : "basic",
                              "height" : 177.714285714305,
                              "line-spacing" : 0.0,
                              "width" : 904.358937127979,
                              "word-wrap" : 1.0,
                              "horizontal-alignment" : "center",
                              "resize-behavior" : "resizeText",
                              "text" : "gliding",
                              "vertical-alignment" : "center",
                              "font" : {
                                "color-blue" : 1.0,
                                "color-green" : 1.0,
                                "color-red" : 1.0,
                                "size" : 96.0,
                                "tracking" : 0.0,
                                "name" : "Montserrat",
                                "weight" : "Regular"
                              },
                              "textAttributes" : {
                                "type" : "textAttributeList",
                                "keyframes" : [
                                  {
                                    "endTime" : 0,
                                    "time" : 0,
                                    "value" : [{"name":"kerning","rangeEnd":7,"rangeStart":0,"value":0,"valueType":"double"},{"name":"fontName","rangeEnd":7,"rangeStart":0,"value":"Montserrat","valueType":"string"},{"name":"fgColor","rangeEnd":7,"rangeStart":0,"value":"(241,230,195,255)","valueType":"color"},{"name":"fontSize","rangeEnd":7,"rangeStart":0,"value":96,"valueType":"double"},{"name":"underline","rangeEnd":7,"rangeStart":0,"value":0,"valueType":"int"},{"name":"strikethrough","rangeEnd":7,"rangeStart":0,"value":0,"valueType":"int"},{"name":"fontWeight","rangeEnd":7,"rangeStart":0,"value":400,"valueType":"int"},{"name":"fontItalic","rangeEnd":7,"rangeStart":0,"value":0,"valueType":"int"}],
                                    "duration" : 0
                                  }
                                ]
                              }
                            },
                            "attributes" : {
                              "autoRotateText" : true
                            },
                            "parameters" : {
                              "translation0" : 0.320531435861056,
                              "translation1" : 27.642853721879
                            },
                            "effects" : [
                                {
                                  "_type" : "GenericBehaviorEffect",
                                  "effectName" : "scale",
                                  "start" : -52,
                                  "duration" : 176                                ,
                                  "in" : {
                                    "attributes" : {
                                      "name" : "grow",
                                      "type" : 1,
                                      "characterOrder" : 6,
                                      "offsetBetweenCharacters" : 2,
                                      "suggestedDurationPerCharacter" : "2333/25",
                                      "overlapProportion" : "3/4",
                                      "movement" : 30,
                                      "springDamping" : 5.0,
                                      "springStiffness" : 50.0,
                                      "bounceBounciness" : 0.45
                                    }
                                  
                                  },
                                  "center" : {
                                    "attributes" : {
                                      "name" : "none",
                                      "type" : 1,
                                      "characterOrder" : 6,
                                      "offsetBetweenCharacters" : 0,
                                      "secondsPerLoop" : 1,
                                      "numberOfLoops" : -1,
                                      "delayBetweenLoops" : 0,
                                      "offsetBetweenCharacters" : 0
                                    }
                                  
                                  },
                                  "out" : {
                                    "attributes" : {
                                      "name" : "none",
                                      "type" : 1,
                                      "characterOrder" : 6,
                                      "offsetBetweenCharacters" : 0,
                                      "suggestedDurationPerCharacter" : 0,
                                      "overlapProportion" : 0,
                                      "movement" : -1,
                                      "springDamping" : 5.0,
                                      "springStiffness" : 50.0,
                                      "bounceBounciness" : 0.45
                                    }
                                  
                                  }
                                },
                                {
                                  "effectName" : "DropShadow",
                                  "category" : "categoryVisualEffects",
                                  "parameters" : {
                                    "angle" : {
                                      "type" : "double",
                                      "defaultValue" : 4.71238898038469,
                                      "valueBounds" : {
                                        "minValue" : 0.0,
                                        "maxValue" : 0.0,
                                        "defaultValue" : 5.49778714378214
                                      },
                                      "uiHints" : {
                                        "userInterfaceType" : 0,
                                        "unitType" : 0
                                      }
                                    },
                                    "blur" : {
                                      "type" : "double",
                                      "defaultValue" : 3.33066907387547e-16,
                                      "valueBounds" : {
                                        "minValue" : 0.0,
                                        "maxValue" : 50.0,
                                        "defaultValue" : 10.0
                                      },
                                      "uiHints" : {
                                        "userInterfaceType" : 0,
                                        "unitType" : 0
                                      }
                                    },
                                    "color-alpha" : {
                                      "type" : "double",
                                      "defaultValue" : 1.0,
                                      "valueBounds" : {
                                        "minValue" : 0.0,
                                        "maxValue" : 1.0,
                                        "defaultValue" : 1.0
                                      },
                                      "uiHints" : {
                                        "userInterfaceType" : 0,
                                        "unitType" : 0
                                      }
                                    },
                                    "color-blue" : {
                                      "type" : "double",
                                      "defaultValue" : 0.1216,
                                      "valueBounds" : {
                                        "minValue" : 0.0,
                                        "maxValue" : 1.0,
                                        "defaultValue" : 0.1216
                                      },
                                      "uiHints" : {
                                        "userInterfaceType" : 0,
                                        "unitType" : 0
                                      }
                                    },
                                    "color-green" : {
                                      "type" : "double",
                                      "defaultValue" : 0.1216,
                                      "valueBounds" : {
                                        "minValue" : 0.0,
                                        "maxValue" : 1.0,
                                        "defaultValue" : 0.1216
                                      },
                                      "uiHints" : {
                                        "userInterfaceType" : 0,
                                        "unitType" : 0
                                      }
                                    },
                                    "color-red" : {
                                      "type" : "double",
                                      "defaultValue" : 0.1216,
                                      "valueBounds" : {
                                        "minValue" : 0.0,
                                        "maxValue" : 1.0,
                                        "defaultValue" : 0.1216
                                      },
                                      "uiHints" : {
                                        "userInterfaceType" : 0,
                                        "unitType" : 0
                                      }
                                    },
                                    "enabled" : {
                                      "type" : "int",
                                      "valueBounds" : {
                                        "minValue" : 0,
                                        "maxValue" : 1,
                                        "defaultValue" : 1
                                      },
                                      "uiHints" : {
                                        "userInterfaceType" : 0,
                                        "unitType" : 0
                                      },
                                      "keyframes" : [
                                        {
                                          "endTime" : 0,
                                          "time" : 0,
                                          "value" : 1,
                                          "duration" : 0
                                        }
                                      ]
                                    },
                                    "offset" : {
                                      "type" : "double",
                                      "defaultValue" : 10.0,
                                      "valueBounds" : {
                                        "minValue" : 0.0,
                                        "maxValue" : 250.0,
                                        "defaultValue" : 10.0
                                      },
                                      "uiHints" : {
                                        "userInterfaceType" : 0,
                                        "unitType" : 0
                                      }
                                    },
                                    "opacity" : {
                                      "type" : "double",
                                      "defaultValue" : 0.741666666666667,
                                      "valueBounds" : {
                                        "minValue" : 0.0,
                                        "maxValue" : 1.0,
                                        "defaultValue" : 0.4
                                      },
                                      "uiHints" : {
                                        "userInterfaceType" : 0,
                                        "unitType" : 0
                                      }
                                    }
                                  }
                                }
                            ],
                            "start" : 114,
                            "duration" : 176,
                            "mediaStart" : -52,
                            "mediaDuration" : 176,
                            "scalar" : 1,
                            "metadata" : {
                              "WinSubProjectDisplayName" : "",
                              "clipSpeedAttribute" : false,
                              "default-HAlign" : "center",
                              "default-LineSpace" : 0.0,
                              "default-VAlign" : "center",
                              "default-text-attributes" : "[{\"name\":\"fontItalic\",\"rangeEnd\":9,\"rangeStart\":0,\"value\":0,\"valueType\":\"int\"},{\"name\":\"fontSize\",\"rangeEnd\":9,\"rangeStart\":0,\"value\":96,\"valueType\":\"double\"},{\"name\":\"fontName\",\"rangeEnd\":9,\"rangeStart\":0,\"value\":\"Montserrat\",\"valueType\":\"string\"},{\"name\":\"underline\",\"rangeEnd\":9,\"rangeStart\":0,\"value\":0,\"valueType\":\"int\"},{\"name\":\"fontWeight\",\"rangeEnd\":9,\"rangeStart\":0,\"value\":100,\"valueType\":\"int\"},{\"name\":\"strikethrough\",\"rangeEnd\":9,\"rangeStart\":0,\"value\":0,\"valueType\":\"int\"},{\"name\":\"fgColor\",\"rangeEnd\":9,\"rangeStart\":0,\"value\":\"(241,230,195,255)\",\"valueType\":\"color\"}]",
                              "default-translation0" : -66.0174967329584,
                              "default-translation1" : 46.64285714285,
                              "effectApplied" : "none"
                            },
                            "animationTracks" : {

                            }
                          }
                        ],
                          "ident" : "",
                          "audioMuted" : false,
                          "videoHidden" : false,
                          "magnetic" : false,
                          "metadata" : {
                            "IsLocked" : "False",
                            "WinTrackHeight" : "1.18064664215163e-311",
                            "trackHeight" : "48"
                          }
                      }
                    ],
                    "attributes" : {
                      "ident" : "squarepegs",
                      "gain" : 1.0,
                      "mixToMono" : false,
                      "assetProperties" : [
                        {
                          "type" : 0,
                          "name" : "Title",
                          "objects" : [ 130 ],
                          "themeMappings" :  {
                            "font-color" : "foreground-1",
                            "font-family" : "font-1"
                          }
                        },
                        {
                          "type" : 0,
                          "name" : "Subtitle",
                          "objects" : [ 129 ],
                          "themeMappings" :  {
                            "font-color" : "foreground-1",
                            "font-family" : "font-1"
                          }
                        }
                      ]
                    },
                    "effects" : [

                    ],
                    "start" : 4164,
                    "duration" : 176,
                    "mediaStart" : 114.0,
                    "mediaDuration" : 176.0,
                    "scalar" : 1,
                    "metadata" : {
                      "IsGroupExpanded" : "False",
                      "WinSubProjectDisplayName" : "",
                      "clipSpeedAttribute" : false,
                      "effectApplied" : "none",
                      "isOpen" : false
                    },
                    "animationTracks" : {

                    }
                  },
                  {
                    "id" : 131,
                    "_type" : "UnifiedMedia",
                    "video" : 
                        {
                          "id" : 132,
                          "_type" : "ScreenVMFile",
                          "src" : 6,
                          "trackNumber" : 0,
                          "attributes" : {
                            "ident" : "scratch-2.6-motion-gliding"
                          },
                          "parameters" : {
                            "cursorScale" : {
                              "type" : "double",
                              "defaultValue" : 1.0,
                              "interp" : "linr"
                            },
                            "cursorOpacity" : {
                              "type" : "double",
                              "defaultValue" : 1.0,
                              "interp" : "linr"
                            }
                          },
                          "effects" : [

                          ],
                          "start" : 4340,
                          "duration" : 834,
                          "mediaStart" : 0,
                          "mediaDuration" : 834,
                          "scalar" : 1,
                          "animationTracks" : {

                          }
                        },
                    "audio" : 
                        {
                          "id" : 133,
                          "_type" : "AMFile",
                          "src" : 6,
                          "trackNumber" : 1,
                          "attributes" : {
                            "ident" : "",
                            "gain" : 1.0,
                            "mixToMono" : false
                          },
                            "channelNumber" : "0,1",
                          "effects" : [

                          ],
                          "start" : 4340,
                          "duration" : 834,
                          "mediaStart" : 0,
                          "mediaDuration" : 834,
                          "scalar" : 1,
                          "animationTracks" : {

                          }
                        }
,
                    "start" : 4340,
                    "duration" : 834,
                    "mediaStart" : 0,
                    "mediaDuration" : 834,
                    "scalar" : 1,
                    "metadata" : {
                      "AutoAppliedSmartFocus" : "False",
                      "clipSpeedAttribute" : false
                    }
                  },
                  {
                    "id" : 134,
                    "_type" : "Group",
                    "parameters" : {
                      "volume" : 1.0
                    },
                    "tracks" : [
                      {
                        "trackIndex" : 0,
                        "medias" : [
                          {
                            "id" : 135,
                            "_type" : "UnifiedMedia",
                            "video" : 
                                {
                                  "id" : 136,
                                  "_type" : "VMFile",
                                  "src" : 51,
                                  "trackNumber" : 0,
                                  "attributes" : {
                                    "ident" : "Movie"
                                  },
                                  "effects" : [

                                  ],
                                  "start" : 114,
                                  "duration" : 176,
                                  "mediaStart" : 114,
                                  "mediaDuration" : 176,
                                  "scalar" : 1,
                                  "animationTracks" : {

                                  }
                                },
                            "audio" : 
                                {
                                  "id" : 137,
                                  "_type" : "AMFile",
                                  "src" : 51,
                                  "trackNumber" : 1,
                                  "attributes" : {
                                    "ident" : "",
                                    "gain" : 1.0,
                                    "mixToMono" : false
                                  },
                                    "channelNumber" : "0,1",
                                  "effects" : [

                                  ],
                                  "start" : 114,
                                  "duration" : 176,
                                  "mediaStart" : 114,
                                  "mediaDuration" : 176,
                                  "scalar" : 1,
                                  "animationTracks" : {

                                  }
                                }
,
                            "start" : 114,
                            "duration" : 176,
                            "mediaStart" : 0,
                            "mediaDuration" : 438,
                            "scalar" : 1,
                            "metadata" : {
                              "WinSubProjectDisplayName" : "",
                              "clipSpeedAttribute" : false,
                              "effectApplied" : "none"
                            }
                          }
                        ],
                          "ident" : "",
                          "audioMuted" : false,
                          "videoHidden" : false,
                          "magnetic" : false,
                          "metadata" : {
                            "IsLocked" : "False",
                            "WinTrackHeight" : "0",
                            "trackHeight" : "48"
                          }
                      },
                      {
                        "trackIndex" : 1,
                        "medias" : [
                          {
                            "id" : 138,
                            "_type" : "Callout",
                            "def" : {
                              "kind" : "remix",
                              "shape" : "text",
                              "style" : "basic",
                              "height" : 78.4795300319492,
                              "line-spacing" : 0.0,
                              "width" : 583.0,
                              "word-wrap" : 1.0,
                              "horizontal-alignment" : "center",
                              "resize-behavior" : "resizeText",
                              "text" : "motion",
                              "vertical-alignment" : "center",
                              "font" : {
                                "color-blue" : 1.0,
                                "color-green" : 1.0,
                                "color-red" : 1.0,
                                "size" : 96.0,
                                "tracking" : 0.0,
                                "name" : "Montserrat",
                                "weight" : "Regular"
                              },
                              "textAttributes" : {
                                "type" : "textAttributeList",
                                "keyframes" : [
                                  {
                                    "endTime" : 0,
                                    "time" : 0,
                                    "value" : [{"name":"fontWeight","rangeEnd":6,"rangeStart":0,"value":400,"valueType":"int"},{"name":"fontItalic","rangeEnd":6,"rangeStart":0,"value":0,"valueType":"int"},{"name":"fontName","rangeEnd":6,"rangeStart":0,"value":"Montserrat","valueType":"string"},{"name":"fontSize","rangeEnd":6,"rangeStart":0,"value":55,"valueType":"double"},{"name":"fgColor","rangeEnd":6,"rangeStart":0,"value":"(239,231,195,255)","valueType":"color"},{"name":"strikethrough","rangeEnd":6,"rangeStart":0,"value":0,"valueType":"int"},{"name":"underline","rangeEnd":6,"rangeStart":0,"value":0,"valueType":"int"},{"name":"kerning","rangeEnd":6,"rangeStart":0,"value":0,"valueType":"double"}],
                                    "duration" : 0
                                  }
                                ]
                              }
                            },
                            "attributes" : {
                              "autoRotateText" : true
                            },
                            "parameters" : {
                              "translation0" : -1.77887982122371e-11,
                              "translation1" : -100.336673040374
                            },
                            "effects" : [
                                {
                                  "_type" : "GenericBehaviorEffect",
                                  "effectName" : "sliding",
                                  "start" : -18,
                                  "duration" : 80                                ,
                                  "in" : {
                                    "attributes" : {
                                      "name" : "sliding",
                                      "type" : 1,
                                      "characterOrder" : 0,
                                      "offsetBetweenCharacters" : 3,
                                      "suggestedDurationPerCharacter" : "999/50",
                                      "overlapProportion" : "11/20",
                                      "movement" : 16,
                                      "springDamping" : 5.0,
                                      "springStiffness" : 50.0,
                                      "bounceBounciness" : 0.45
                                    },
                                    "parameters" : {
                                      "direction" : {
                                        "type" : "int",
                                        "valueBounds" : {
                                          "minValue" : 0,
                                          "maxValue" : 3,
                                          "defaultValue" : 0
                                        },
                                        "uiHints" : {
                                          "userInterfaceType" : 2,
                                          "unitType" : 0
                                        },
                                        "keyframes" : [
                                          {
                                            "endTime" : 0,
                                            "time" : 0,
                                            "value" : 3,
                                            "duration" : 0
                                          }
                                        ]
                                      }
                                    }
                                  
                                  },
                                  "center" : {
                                    "attributes" : {
                                      "name" : "none",
                                      "type" : 1,
                                      "characterOrder" : 6,
                                      "offsetBetweenCharacters" : 0,
                                      "secondsPerLoop" : 1,
                                      "numberOfLoops" : -1,
                                      "delayBetweenLoops" : 0,
                                      "offsetBetweenCharacters" : 0
                                    }
                                  
                                  },
                                  "out" : {
                                    "attributes" : {
                                      "name" : "none",
                                      "type" : 1,
                                      "characterOrder" : 6,
                                      "offsetBetweenCharacters" : 0,
                                      "suggestedDurationPerCharacter" : 0,
                                      "overlapProportion" : 0,
                                      "movement" : -1,
                                      "springDamping" : 5.0,
                                      "springStiffness" : 50.0,
                                      "bounceBounciness" : 0.45
                                    }
                                  
                                  }
                                }
                            ],
                            "start" : 210,
                            "duration" : 80,
                            "mediaStart" : -18,
                            "mediaDuration" : 80,
                            "scalar" : 1,
                            "metadata" : {
                              "WinSubProjectDisplayName" : "",
                              "clipSpeedAttribute" : false,
                              "default-HAlign" : "center",
                              "default-LineSpace" : 0.0,
                              "default-VAlign" : "center",
                              "default-text-attributes" : "[{\"name\":\"strikethrough\",\"rangeEnd\":13,\"rangeStart\":0,\"value\":0,\"valueType\":\"int\"},{\"name\":\"fontWeight\",\"rangeEnd\":13,\"rangeStart\":0,\"value\":100,\"valueType\":\"int\"},{\"name\":\"fontSize\",\"rangeEnd\":13,\"rangeStart\":0,\"value\":55,\"valueType\":\"double\"},{\"name\":\"underline\",\"rangeEnd\":13,\"rangeStart\":0,\"value\":0,\"valueType\":\"int\"},{\"name\":\"fgColor\",\"rangeEnd\":13,\"rangeStart\":0,\"value\":\"(239,231,195,255)\",\"valueType\":\"color\"},{\"name\":\"fontItalic\",\"rangeEnd\":13,\"rangeStart\":0,\"value\":0,\"valueType\":\"int\"},{\"name\":\"fontName\",\"rangeEnd\":13,\"rangeStart\":0,\"value\":\"Montserrat\",\"valueType\":\"string\"}]",
                              "effectApplied" : "none"
                            },
                            "animationTracks" : {

                            }
                          }
                        ],
                          "ident" : "",
                          "audioMuted" : false,
                          "videoHidden" : false,
                          "magnetic" : false,
                          "metadata" : {
                            "IsLocked" : "False",
                            "WinTrackHeight" : "1.18064664215163e-311",
                            "trackHeight" : "48"
                          }
                      },
                      {
                        "trackIndex" : 2,
                        "medias" : [
                          {
                            "id" : 139,
                            "_type" : "Callout",
                            "def" : {
                              "kind" : "remix",
                              "shape" : "text",
                              "style" : "basic",
                              "height" : 177.714285714305,
                              "line-spacing" : 0.0,
                              "width" : 904.358937127979,
                              "word-wrap" : 1.0,
                              "horizontal-alignment" : "center",
                              "resize-behavior" : "resizeText",
                              "text" : "pointing",
                              "vertical-alignment" : "center",
                              "font" : {
                                "color-blue" : 1.0,
                                "color-green" : 1.0,
                                "color-red" : 1.0,
                                "size" : 96.0,
                                "tracking" : 0.0,
                                "name" : "Montserrat",
                                "weight" : "Regular"
                              },
                              "textAttributes" : {
                                "type" : "textAttributeList",
                                "keyframes" : [
                                  {
                                    "endTime" : 0,
                                    "time" : 0,
                                    "value" : [{"name":"kerning","rangeEnd":8,"rangeStart":0,"value":0,"valueType":"double"},{"name":"fgColor","rangeEnd":8,"rangeStart":0,"value":"(241,230,195,255)","valueType":"color"},{"name":"underline","rangeEnd":8,"rangeStart":0,"value":0,"valueType":"int"},{"name":"strikethrough","rangeEnd":8,"rangeStart":0,"value":0,"valueType":"int"},{"name":"fontWeight","rangeEnd":8,"rangeStart":0,"value":400,"valueType":"int"},{"name":"fontSize","rangeEnd":8,"rangeStart":0,"value":96,"valueType":"double"},{"name":"fontItalic","rangeEnd":8,"rangeStart":0,"value":0,"valueType":"int"},{"name":"fontName","rangeEnd":8,"rangeStart":0,"value":"Montserrat","valueType":"string"}],
                                    "duration" : 0
                                  }
                                ]
                              }
                            },
                            "attributes" : {
                              "autoRotateText" : true
                            },
                            "parameters" : {
                              "translation0" : 0.320531435861056,
                              "translation1" : 27.642853721879
                            },
                            "effects" : [
                                {
                                  "_type" : "GenericBehaviorEffect",
                                  "effectName" : "scale",
                                  "start" : -52,
                                  "duration" : 176                                ,
                                  "in" : {
                                    "attributes" : {
                                      "name" : "grow",
                                      "type" : 1,
                                      "characterOrder" : 6,
                                      "offsetBetweenCharacters" : 2,
                                      "suggestedDurationPerCharacter" : "2333/25",
                                      "overlapProportion" : "3/4",
                                      "movement" : 30,
                                      "springDamping" : 5.0,
                                      "springStiffness" : 50.0,
                                      "bounceBounciness" : 0.45
                                    }
                                  
                                  },
                                  "center" : {
                                    "attributes" : {
                                      "name" : "none",
                                      "type" : 1,
                                      "characterOrder" : 6,
                                      "offsetBetweenCharacters" : 0,
                                      "secondsPerLoop" : 1,
                                      "numberOfLoops" : -1,
                                      "delayBetweenLoops" : 0,
                                      "offsetBetweenCharacters" : 0
                                    }
                                  
                                  },
                                  "out" : {
                                    "attributes" : {
                                      "name" : "none",
                                      "type" : 1,
                                      "characterOrder" : 6,
                                      "offsetBetweenCharacters" : 0,
                                      "suggestedDurationPerCharacter" : 0,
                                      "overlapProportion" : 0,
                                      "movement" : -1,
                                      "springDamping" : 5.0,
                                      "springStiffness" : 50.0,
                                      "bounceBounciness" : 0.45
                                    }
                                  
                                  }
                                },
                                {
                                  "effectName" : "DropShadow",
                                  "category" : "categoryVisualEffects",
                                  "parameters" : {
                                    "angle" : {
                                      "type" : "double",
                                      "defaultValue" : 4.71238898038469,
                                      "valueBounds" : {
                                        "minValue" : 0.0,
                                        "maxValue" : 0.0,
                                        "defaultValue" : 5.49778714378214
                                      },
                                      "uiHints" : {
                                        "userInterfaceType" : 0,
                                        "unitType" : 0
                                      }
                                    },
                                    "blur" : {
                                      "type" : "double",
                                      "defaultValue" : 3.33066907387547e-16,
                                      "valueBounds" : {
                                        "minValue" : 0.0,
                                        "maxValue" : 50.0,
                                        "defaultValue" : 10.0
                                      },
                                      "uiHints" : {
                                        "userInterfaceType" : 0,
                                        "unitType" : 0
                                      }
                                    },
                                    "color-alpha" : {
                                      "type" : "double",
                                      "defaultValue" : 1.0,
                                      "valueBounds" : {
                                        "minValue" : 0.0,
                                        "maxValue" : 1.0,
                                        "defaultValue" : 1.0
                                      },
                                      "uiHints" : {
                                        "userInterfaceType" : 0,
                                        "unitType" : 0
                                      }
                                    },
                                    "color-blue" : {
                                      "type" : "double",
                                      "defaultValue" : 0.1216,
                                      "valueBounds" : {
                                        "minValue" : 0.0,
                                        "maxValue" : 1.0,
                                        "defaultValue" : 0.1216
                                      },
                                      "uiHints" : {
                                        "userInterfaceType" : 0,
                                        "unitType" : 0
                                      }
                                    },
                                    "color-green" : {
                                      "type" : "double",
                                      "defaultValue" : 0.1216,
                                      "valueBounds" : {
                                        "minValue" : 0.0,
                                        "maxValue" : 1.0,
                                        "defaultValue" : 0.1216
                                      },
                                      "uiHints" : {
                                        "userInterfaceType" : 0,
                                        "unitType" : 0
                                      }
                                    },
                                    "color-red" : {
                                      "type" : "double",
                                      "defaultValue" : 0.1216,
                                      "valueBounds" : {
                                        "minValue" : 0.0,
                                        "maxValue" : 1.0,
                                        "defaultValue" : 0.1216
                                      },
                                      "uiHints" : {
                                        "userInterfaceType" : 0,
                                        "unitType" : 0
                                      }
                                    },
                                    "enabled" : {
                                      "type" : "int",
                                      "valueBounds" : {
                                        "minValue" : 0,
                                        "maxValue" : 1,
                                        "defaultValue" : 1
                                      },
                                      "uiHints" : {
                                        "userInterfaceType" : 0,
                                        "unitType" : 0
                                      },
                                      "keyframes" : [
                                        {
                                          "endTime" : 0,
                                          "time" : 0,
                                          "value" : 1,
                                          "duration" : 0
                                        }
                                      ]
                                    },
                                    "offset" : {
                                      "type" : "double",
                                      "defaultValue" : 10.0,
                                      "valueBounds" : {
                                        "minValue" : 0.0,
                                        "maxValue" : 250.0,
                                        "defaultValue" : 10.0
                                      },
                                      "uiHints" : {
                                        "userInterfaceType" : 0,
                                        "unitType" : 0
                                      }
                                    },
                                    "opacity" : {
                                      "type" : "double",
                                      "defaultValue" : 0.741666666666667,
                                      "valueBounds" : {
                                        "minValue" : 0.0,
                                        "maxValue" : 1.0,
                                        "defaultValue" : 0.4
                                      },
                                      "uiHints" : {
                                        "userInterfaceType" : 0,
                                        "unitType" : 0
                                      }
                                    }
                                  }
                                }
                            ],
                            "start" : 114,
                            "duration" : 176,
                            "mediaStart" : -52,
                            "mediaDuration" : 176,
                            "scalar" : 1,
                            "metadata" : {
                              "WinSubProjectDisplayName" : "",
                              "clipSpeedAttribute" : false,
                              "default-HAlign" : "center",
                              "default-LineSpace" : 0.0,
                              "default-VAlign" : "center",
                              "default-text-attributes" : "[{\"name\":\"fontItalic\",\"rangeEnd\":9,\"rangeStart\":0,\"value\":0,\"valueType\":\"int\"},{\"name\":\"fontSize\",\"rangeEnd\":9,\"rangeStart\":0,\"value\":96,\"valueType\":\"double\"},{\"name\":\"fontName\",\"rangeEnd\":9,\"rangeStart\":0,\"value\":\"Montserrat\",\"valueType\":\"string\"},{\"name\":\"underline\",\"rangeEnd\":9,\"rangeStart\":0,\"value\":0,\"valueType\":\"int\"},{\"name\":\"fontWeight\",\"rangeEnd\":9,\"rangeStart\":0,\"value\":100,\"valueType\":\"int\"},{\"name\":\"strikethrough\",\"rangeEnd\":9,\"rangeStart\":0,\"value\":0,\"valueType\":\"int\"},{\"name\":\"fgColor\",\"rangeEnd\":9,\"rangeStart\":0,\"value\":\"(241,230,195,255)\",\"valueType\":\"color\"}]",
                              "default-translation0" : -66.0174967329584,
                              "default-translation1" : 46.64285714285,
                              "effectApplied" : "none"
                            },
                            "animationTracks" : {

                            }
                          }
                        ],
                          "ident" : "",
                          "audioMuted" : false,
                          "videoHidden" : false,
                          "magnetic" : false,
                          "metadata" : {
                            "IsLocked" : "False",
                            "WinTrackHeight" : "1.18064664215163e-311",
                            "trackHeight" : "48"
                          }
                      }
                    ],
                    "attributes" : {
                      "ident" : "squarepegs",
                      "gain" : 1.0,
                      "mixToMono" : false,
                      "assetProperties" : [
                        {
                          "type" : 0,
                          "name" : "Title",
                          "objects" : [ 139 ],
                          "themeMappings" :  {
                            "font-color" : "foreground-1",
                            "font-family" : "font-1"
                          }
                        },
                        {
                          "type" : 0,
                          "name" : "Subtitle",
                          "objects" : [ 138 ],
                          "themeMappings" :  {
                            "font-color" : "foreground-1",
                            "font-family" : "font-1"
                          }
                        }
                      ]
                    },
                    "effects" : [

                    ],
                    "start" : 5174,
                    "duration" : 176,
                    "mediaStart" : 114.0,
                    "mediaDuration" : 176.0,
                    "scalar" : 1,
                    "metadata" : {
                      "IsGroupExpanded" : "False",
                      "WinSubProjectDisplayName" : "",
                      "clipSpeedAttribute" : false,
                      "effectApplied" : "none",
                      "isOpen" : false
                    },
                    "animationTracks" : {

                    }
                  },
                  {
                    "id" : 140,
                    "_type" : "UnifiedMedia",
                    "video" : 
                        {
                          "id" : 141,
                          "_type" : "ScreenVMFile",
                          "src" : 7,
                          "trackNumber" : 0,
                          "attributes" : {
                            "ident" : "scratch-2.7-motion-pointing"
                          },
                          "parameters" : {
                            "cursorScale" : {
                              "type" : "double",
                              "defaultValue" : 1.0,
                              "interp" : "linr"
                            },
                            "cursorOpacity" : {
                              "type" : "double",
                              "defaultValue" : 1.0,
                              "interp" : "linr"
                            }
                          },
                          "effects" : [

                          ],
                          "start" : 5350,
                          "duration" : 818,
                          "mediaStart" : 0,
                          "mediaDuration" : 818,
                          "scalar" : 1,
                          "animationTracks" : {

                          }
                        },
                    "audio" : 
                        {
                          "id" : 142,
                          "_type" : "AMFile",
                          "src" : 7,
                          "trackNumber" : 1,
                          "attributes" : {
                            "ident" : "",
                            "gain" : 1.0,
                            "mixToMono" : false
                          },
                            "channelNumber" : "0,1",
                          "effects" : [

                          ],
                          "start" : 5350,
                          "duration" : 818,
                          "mediaStart" : 0,
                          "mediaDuration" : 818,
                          "scalar" : 1,
                          "animationTracks" : {

                          }
                        }
,
                    "start" : 5350,
                    "duration" : 818,
                    "mediaStart" : 0,
                    "mediaDuration" : 818,
                    "scalar" : 1,
                    "metadata" : {
                      "AutoAppliedSmartFocus" : "False",
                      "clipSpeedAttribute" : false
                    }
                  },
                  {
                    "id" : 143,
                    "_type" : "Group",
                    "parameters" : {
                      "volume" : 1.0
                    },
                    "tracks" : [
                      {
                        "trackIndex" : 0,
                        "medias" : [
                          {
                            "id" : 144,
                            "_type" : "UnifiedMedia",
                            "video" : 
                                {
                                  "id" : 145,
                                  "_type" : "VMFile",
                                  "src" : 51,
                                  "trackNumber" : 0,
                                  "attributes" : {
                                    "ident" : "Movie"
                                  },
                                  "effects" : [

                                  ],
                                  "start" : 114,
                                  "duration" : 176,
                                  "mediaStart" : 114,
                                  "mediaDuration" : 176,
                                  "scalar" : 1,
                                  "animationTracks" : {

                                  }
                                },
                            "audio" : 
                                {
                                  "id" : 146,
                                  "_type" : "AMFile",
                                  "src" : 51,
                                  "trackNumber" : 1,
                                  "attributes" : {
                                    "ident" : "",
                                    "gain" : 1.0,
                                    "mixToMono" : false
                                  },
                                    "channelNumber" : "0,1",
                                  "effects" : [

                                  ],
                                  "start" : 114,
                                  "duration" : 176,
                                  "mediaStart" : 114,
                                  "mediaDuration" : 176,
                                  "scalar" : 1,
                                  "animationTracks" : {

                                  }
                                }
,
                            "start" : 114,
                            "duration" : 176,
                            "mediaStart" : 0,
                            "mediaDuration" : 438,
                            "scalar" : 1,
                            "metadata" : {
                              "WinSubProjectDisplayName" : "",
                              "clipSpeedAttribute" : false,
                              "effectApplied" : "none"
                            }
                          }
                        ],
                          "ident" : "",
                          "audioMuted" : false,
                          "videoHidden" : false,
                          "magnetic" : false,
                          "metadata" : {
                            "IsLocked" : "False",
                            "WinTrackHeight" : "0",
                            "trackHeight" : "48"
                          }
                      },
                      {
                        "trackIndex" : 1,
                        "medias" : [
                          {
                            "id" : 147,
                            "_type" : "Callout",
                            "def" : {
                              "kind" : "remix",
                              "shape" : "text",
                              "style" : "basic",
                              "height" : 78.4795300319492,
                              "line-spacing" : 0.0,
                              "width" : 583.0,
                              "word-wrap" : 1.0,
                              "horizontal-alignment" : "center",
                              "resize-behavior" : "resizeText",
                              "text" : "motion",
                              "vertical-alignment" : "center",
                              "font" : {
                                "color-blue" : 1.0,
                                "color-green" : 1.0,
                                "color-red" : 1.0,
                                "size" : 96.0,
                                "tracking" : 0.0,
                                "name" : "Montserrat",
                                "weight" : "Regular"
                              },
                              "textAttributes" : {
                                "type" : "textAttributeList",
                                "keyframes" : [
                                  {
                                    "endTime" : 0,
                                    "time" : 0,
                                    "value" : [{"name":"fontWeight","rangeEnd":6,"rangeStart":0,"value":400,"valueType":"int"},{"name":"fontItalic","rangeEnd":6,"rangeStart":0,"value":0,"valueType":"int"},{"name":"fontName","rangeEnd":6,"rangeStart":0,"value":"Montserrat","valueType":"string"},{"name":"fontSize","rangeEnd":6,"rangeStart":0,"value":55,"valueType":"double"},{"name":"fgColor","rangeEnd":6,"rangeStart":0,"value":"(239,231,195,255)","valueType":"color"},{"name":"strikethrough","rangeEnd":6,"rangeStart":0,"value":0,"valueType":"int"},{"name":"underline","rangeEnd":6,"rangeStart":0,"value":0,"valueType":"int"},{"name":"kerning","rangeEnd":6,"rangeStart":0,"value":0,"valueType":"double"}],
                                    "duration" : 0
                                  }
                                ]
                              }
                            },
                            "attributes" : {
                              "autoRotateText" : true
                            },
                            "parameters" : {
                              "translation0" : -1.77887982122371e-11,
                              "translation1" : -100.336673040374
                            },
                            "effects" : [
                                {
                                  "_type" : "GenericBehaviorEffect",
                                  "effectName" : "sliding",
                                  "start" : -18,
                                  "duration" : 80                                ,
                                  "in" : {
                                    "attributes" : {
                                      "name" : "sliding",
                                      "type" : 1,
                                      "characterOrder" : 0,
                                      "offsetBetweenCharacters" : 3,
                                      "suggestedDurationPerCharacter" : "999/50",
                                      "overlapProportion" : "11/20",
                                      "movement" : 16,
                                      "springDamping" : 5.0,
                                      "springStiffness" : 50.0,
                                      "bounceBounciness" : 0.45
                                    },
                                    "parameters" : {
                                      "direction" : {
                                        "type" : "int",
                                        "valueBounds" : {
                                          "minValue" : 0,
                                          "maxValue" : 3,
                                          "defaultValue" : 0
                                        },
                                        "uiHints" : {
                                          "userInterfaceType" : 2,
                                          "unitType" : 0
                                        },
                                        "keyframes" : [
                                          {
                                            "endTime" : 0,
                                            "time" : 0,
                                            "value" : 3,
                                            "duration" : 0
                                          }
                                        ]
                                      }
                                    }
                                  
                                  },
                                  "center" : {
                                    "attributes" : {
                                      "name" : "none",
                                      "type" : 1,
                                      "characterOrder" : 6,
                                      "offsetBetweenCharacters" : 0,
                                      "secondsPerLoop" : 1,
                                      "numberOfLoops" : -1,
                                      "delayBetweenLoops" : 0,
                                      "offsetBetweenCharacters" : 0
                                    }
                                  
                                  },
                                  "out" : {
                                    "attributes" : {
                                      "name" : "none",
                                      "type" : 1,
                                      "characterOrder" : 6,
                                      "offsetBetweenCharacters" : 0,
                                      "suggestedDurationPerCharacter" : 0,
                                      "overlapProportion" : 0,
                                      "movement" : -1,
                                      "springDamping" : 5.0,
                                      "springStiffness" : 50.0,
                                      "bounceBounciness" : 0.45
                                    }
                                  
                                  }
                                }
                            ],
                            "start" : 210,
                            "duration" : 80,
                            "mediaStart" : -18,
                            "mediaDuration" : 80,
                            "scalar" : 1,
                            "metadata" : {
                              "WinSubProjectDisplayName" : "",
                              "clipSpeedAttribute" : false,
                              "default-HAlign" : "center",
                              "default-LineSpace" : 0.0,
                              "default-VAlign" : "center",
                              "default-text-attributes" : "[{\"name\":\"strikethrough\",\"rangeEnd\":13,\"rangeStart\":0,\"value\":0,\"valueType\":\"int\"},{\"name\":\"fontWeight\",\"rangeEnd\":13,\"rangeStart\":0,\"value\":100,\"valueType\":\"int\"},{\"name\":\"fontSize\",\"rangeEnd\":13,\"rangeStart\":0,\"value\":55,\"valueType\":\"double\"},{\"name\":\"underline\",\"rangeEnd\":13,\"rangeStart\":0,\"value\":0,\"valueType\":\"int\"},{\"name\":\"fgColor\",\"rangeEnd\":13,\"rangeStart\":0,\"value\":\"(239,231,195,255)\",\"valueType\":\"color\"},{\"name\":\"fontItalic\",\"rangeEnd\":13,\"rangeStart\":0,\"value\":0,\"valueType\":\"int\"},{\"name\":\"fontName\",\"rangeEnd\":13,\"rangeStart\":0,\"value\":\"Montserrat\",\"valueType\":\"string\"}]",
                              "effectApplied" : "none"
                            },
                            "animationTracks" : {

                            }
                          }
                        ],
                          "ident" : "",
                          "audioMuted" : false,
                          "videoHidden" : false,
                          "magnetic" : false,
                          "metadata" : {
                            "IsLocked" : "False",
                            "WinTrackHeight" : "1.18064664215163e-311",
                            "trackHeight" : "48"
                          }
                      },
                      {
                        "trackIndex" : 2,
                        "medias" : [
                          {
                            "id" : 148,
                            "_type" : "Callout",
                            "def" : {
                              "kind" : "remix",
                              "shape" : "text",
                              "style" : "basic",
                              "height" : 177.714285714305,
                              "line-spacing" : 0.0,
                              "width" : 904.358937127979,
                              "word-wrap" : 1.0,
                              "horizontal-alignment" : "center",
                              "resize-behavior" : "resizeText",
                              "text" : "changing x",
                              "vertical-alignment" : "center",
                              "font" : {
                                "color-blue" : 1.0,
                                "color-green" : 1.0,
                                "color-red" : 1.0,
                                "size" : 96.0,
                                "tracking" : 0.0,
                                "name" : "Montserrat",
                                "weight" : "Regular"
                              },
                              "textAttributes" : {
                                "type" : "textAttributeList",
                                "keyframes" : [
                                  {
                                    "endTime" : 0,
                                    "time" : 0,
                                    "value" : [{"name":"fgColor","rangeEnd":10,"rangeStart":0,"value":"(241,230,195,255)","valueType":"color"},{"name":"fontSize","rangeEnd":10,"rangeStart":0,"value":96,"valueType":"double"},{"name":"underline","rangeEnd":10,"rangeStart":0,"value":0,"valueType":"int"},{"name":"kerning","rangeEnd":10,"rangeStart":0,"value":0,"valueType":"double"},{"name":"fontItalic","rangeEnd":10,"rangeStart":0,"value":0,"valueType":"int"},{"name":"fontName","rangeEnd":10,"rangeStart":0,"value":"Montserrat","valueType":"string"},{"name":"fontWeight","rangeEnd":10,"rangeStart":0,"value":400,"valueType":"int"},{"name":"strikethrough","rangeEnd":10,"rangeStart":0,"value":0,"valueType":"int"}],
                                    "duration" : 0
                                  }
                                ]
                              }
                            },
                            "attributes" : {
                              "autoRotateText" : true
                            },
                            "parameters" : {
                              "translation0" : 0.320531435861056,
                              "translation1" : 27.642853721879
                            },
                            "effects" : [
                                {
                                  "_type" : "GenericBehaviorEffect",
                                  "effectName" : "scale",
                                  "start" : -52,
                                  "duration" : 176                                ,
                                  "in" : {
                                    "attributes" : {
                                      "name" : "grow",
                                      "type" : 1,
                                      "characterOrder" : 6,
                                      "offsetBetweenCharacters" : 2,
                                      "suggestedDurationPerCharacter" : "2333/25",
                                      "overlapProportion" : "3/4",
                                      "movement" : 30,
                                      "springDamping" : 5.0,
                                      "springStiffness" : 50.0,
                                      "bounceBounciness" : 0.45
                                    }
                                  
                                  },
                                  "center" : {
                                    "attributes" : {
                                      "name" : "none",
                                      "type" : 1,
                                      "characterOrder" : 6,
                                      "offsetBetweenCharacters" : 0,
                                      "secondsPerLoop" : 1,
                                      "numberOfLoops" : -1,
                                      "delayBetweenLoops" : 0,
                                      "offsetBetweenCharacters" : 0
                                    }
                                  
                                  },
                                  "out" : {
                                    "attributes" : {
                                      "name" : "none",
                                      "type" : 1,
                                      "characterOrder" : 6,
                                      "offsetBetweenCharacters" : 0,
                                      "suggestedDurationPerCharacter" : 0,
                                      "overlapProportion" : 0,
                                      "movement" : -1,
                                      "springDamping" : 5.0,
                                      "springStiffness" : 50.0,
                                      "bounceBounciness" : 0.45
                                    }
                                  
                                  }
                                },
                                {
                                  "effectName" : "DropShadow",
                                  "category" : "categoryVisualEffects",
                                  "parameters" : {
                                    "angle" : {
                                      "type" : "double",
                                      "defaultValue" : 4.71238898038469,
                                      "valueBounds" : {
                                        "minValue" : 0.0,
                                        "maxValue" : 0.0,
                                        "defaultValue" : 5.49778714378214
                                      },
                                      "uiHints" : {
                                        "userInterfaceType" : 0,
                                        "unitType" : 0
                                      }
                                    },
                                    "blur" : {
                                      "type" : "double",
                                      "defaultValue" : 3.33066907387547e-16,
                                      "valueBounds" : {
                                        "minValue" : 0.0,
                                        "maxValue" : 50.0,
                                        "defaultValue" : 10.0
                                      },
                                      "uiHints" : {
                                        "userInterfaceType" : 0,
                                        "unitType" : 0
                                      }
                                    },
                                    "color-alpha" : {
                                      "type" : "double",
                                      "defaultValue" : 1.0,
                                      "valueBounds" : {
                                        "minValue" : 0.0,
                                        "maxValue" : 1.0,
                                        "defaultValue" : 1.0
                                      },
                                      "uiHints" : {
                                        "userInterfaceType" : 0,
                                        "unitType" : 0
                                      }
                                    },
                                    "color-blue" : {
                                      "type" : "double",
                                      "defaultValue" : 0.1216,
                                      "valueBounds" : {
                                        "minValue" : 0.0,
                                        "maxValue" : 1.0,
                                        "defaultValue" : 0.1216
                                      },
                                      "uiHints" : {
                                        "userInterfaceType" : 0,
                                        "unitType" : 0
                                      }
                                    },
                                    "color-green" : {
                                      "type" : "double",
                                      "defaultValue" : 0.1216,
                                      "valueBounds" : {
                                        "minValue" : 0.0,
                                        "maxValue" : 1.0,
                                        "defaultValue" : 0.1216
                                      },
                                      "uiHints" : {
                                        "userInterfaceType" : 0,
                                        "unitType" : 0
                                      }
                                    },
                                    "color-red" : {
                                      "type" : "double",
                                      "defaultValue" : 0.1216,
                                      "valueBounds" : {
                                        "minValue" : 0.0,
                                        "maxValue" : 1.0,
                                        "defaultValue" : 0.1216
                                      },
                                      "uiHints" : {
                                        "userInterfaceType" : 0,
                                        "unitType" : 0
                                      }
                                    },
                                    "enabled" : {
                                      "type" : "int",
                                      "valueBounds" : {
                                        "minValue" : 0,
                                        "maxValue" : 1,
                                        "defaultValue" : 1
                                      },
                                      "uiHints" : {
                                        "userInterfaceType" : 0,
                                        "unitType" : 0
                                      },
                                      "keyframes" : [
                                        {
                                          "endTime" : 0,
                                          "time" : 0,
                                          "value" : 1,
                                          "duration" : 0
                                        }
                                      ]
                                    },
                                    "offset" : {
                                      "type" : "double",
                                      "defaultValue" : 10.0,
                                      "valueBounds" : {
                                        "minValue" : 0.0,
                                        "maxValue" : 250.0,
                                        "defaultValue" : 10.0
                                      },
                                      "uiHints" : {
                                        "userInterfaceType" : 0,
                                        "unitType" : 0
                                      }
                                    },
                                    "opacity" : {
                                      "type" : "double",
                                      "defaultValue" : 0.741666666666667,
                                      "valueBounds" : {
                                        "minValue" : 0.0,
                                        "maxValue" : 1.0,
                                        "defaultValue" : 0.4
                                      },
                                      "uiHints" : {
                                        "userInterfaceType" : 0,
                                        "unitType" : 0
                                      }
                                    }
                                  }
                                }
                            ],
                            "start" : 114,
                            "duration" : 176,
                            "mediaStart" : -52,
                            "mediaDuration" : 176,
                            "scalar" : 1,
                            "metadata" : {
                              "WinSubProjectDisplayName" : "",
                              "clipSpeedAttribute" : false,
                              "default-HAlign" : "center",
                              "default-LineSpace" : 0.0,
                              "default-VAlign" : "center",
                              "default-text-attributes" : "[{\"name\":\"fontItalic\",\"rangeEnd\":9,\"rangeStart\":0,\"value\":0,\"valueType\":\"int\"},{\"name\":\"fontSize\",\"rangeEnd\":9,\"rangeStart\":0,\"value\":96,\"valueType\":\"double\"},{\"name\":\"fontName\",\"rangeEnd\":9,\"rangeStart\":0,\"value\":\"Montserrat\",\"valueType\":\"string\"},{\"name\":\"underline\",\"rangeEnd\":9,\"rangeStart\":0,\"value\":0,\"valueType\":\"int\"},{\"name\":\"fontWeight\",\"rangeEnd\":9,\"rangeStart\":0,\"value\":100,\"valueType\":\"int\"},{\"name\":\"strikethrough\",\"rangeEnd\":9,\"rangeStart\":0,\"value\":0,\"valueType\":\"int\"},{\"name\":\"fgColor\",\"rangeEnd\":9,\"rangeStart\":0,\"value\":\"(241,230,195,255)\",\"valueType\":\"color\"}]",
                              "default-translation0" : -66.0174967329584,
                              "default-translation1" : 46.64285714285,
                              "effectApplied" : "none"
                            },
                            "animationTracks" : {

                            }
                          }
                        ],
                          "ident" : "",
                          "audioMuted" : false,
                          "videoHidden" : false,
                          "magnetic" : false,
                          "metadata" : {
                            "IsLocked" : "False",
                            "WinTrackHeight" : "1.18064664215163e-311",
                            "trackHeight" : "48"
                          }
                      }
                    ],
                    "attributes" : {
                      "ident" : "squarepegs",
                      "gain" : 1.0,
                      "mixToMono" : false,
                      "assetProperties" : [
                        {
                          "type" : 0,
                          "name" : "Title",
                          "objects" : [ 148 ],
                          "themeMappings" :  {
                            "font-color" : "foreground-1",
                            "font-family" : "font-1"
                          }
                        },
                        {
                          "type" : 0,
                          "name" : "Subtitle",
                          "objects" : [ 147 ],
                          "themeMappings" :  {
                            "font-color" : "foreground-1",
                            "font-family" : "font-1"
                          }
                        }
                      ]
                    },
                    "effects" : [

                    ],
                    "start" : 6168,
                    "duration" : 176,
                    "mediaStart" : 114.0,
                    "mediaDuration" : 176.0,
                    "scalar" : 1,
                    "metadata" : {
                      "IsGroupExpanded" : "False",
                      "WinSubProjectDisplayName" : "",
                      "clipSpeedAttribute" : false,
                      "effectApplied" : "none",
                      "isOpen" : false
                    },
                    "animationTracks" : {

                    }
                  },
                  {
                    "id" : 149,
                    "_type" : "UnifiedMedia",
                    "video" : 
                        {
                          "id" : 150,
                          "_type" : "ScreenVMFile",
                          "src" : 8,
                          "trackNumber" : 0,
                          "attributes" : {
                            "ident" : "scratch-2.8-motion-changing-x"
                          },
                          "parameters" : {
                            "cursorScale" : {
                              "type" : "double",
                              "defaultValue" : 1.0,
                              "interp" : "linr"
                            },
                            "cursorOpacity" : {
                              "type" : "double",
                              "defaultValue" : 1.0,
                              "interp" : "linr"
                            }
                          },
                          "effects" : [

                          ],
                          "start" : 6344,
                          "duration" : 982,
                          "mediaStart" : 0,
                          "mediaDuration" : 982,
                          "scalar" : 1,
                          "animationTracks" : {

                          }
                        },
                    "audio" : 
                        {
                          "id" : 151,
                          "_type" : "AMFile",
                          "src" : 8,
                          "trackNumber" : 1,
                          "attributes" : {
                            "ident" : "",
                            "gain" : 1.0,
                            "mixToMono" : false
                          },
                            "channelNumber" : "0,1",
                          "effects" : [

                          ],
                          "start" : 6344,
                          "duration" : 982,
                          "mediaStart" : 0,
                          "mediaDuration" : 982,
                          "scalar" : 1,
                          "animationTracks" : {

                          }
                        }
,
                    "start" : 6344,
                    "duration" : 982,
                    "mediaStart" : 0,
                    "mediaDuration" : 982,
                    "scalar" : 1,
                    "metadata" : {
                      "AutoAppliedSmartFocus" : "False",
                      "clipSpeedAttribute" : false
                    }
                  },
                  {
                    "id" : 152,
                    "_type" : "Group",
                    "parameters" : {
                      "volume" : 1.0
                    },
                    "tracks" : [
                      {
                        "trackIndex" : 0,
                        "medias" : [
                          {
                            "id" : 153,
                            "_type" : "UnifiedMedia",
                            "video" : 
                                {
                                  "id" : 154,
                                  "_type" : "VMFile",
                                  "src" : 51,
                                  "trackNumber" : 0,
                                  "attributes" : {
                                    "ident" : "Movie"
                                  },
                                  "effects" : [

                                  ],
                                  "start" : 114,
                                  "duration" : 176,
                                  "mediaStart" : 114,
                                  "mediaDuration" : 176,
                                  "scalar" : 1,
                                  "animationTracks" : {

                                  }
                                },
                            "audio" : 
                                {
                                  "id" : 155,
                                  "_type" : "AMFile",
                                  "src" : 51,
                                  "trackNumber" : 1,
                                  "attributes" : {
                                    "ident" : "",
                                    "gain" : 1.0,
                                    "mixToMono" : false
                                  },
                                    "channelNumber" : "0,1",
                                  "effects" : [

                                  ],
                                  "start" : 114,
                                  "duration" : 176,
                                  "mediaStart" : 114,
                                  "mediaDuration" : 176,
                                  "scalar" : 1,
                                  "animationTracks" : {

                                  }
                                }
,
                            "start" : 114,
                            "duration" : 176,
                            "mediaStart" : 0,
                            "mediaDuration" : 438,
                            "scalar" : 1,
                            "metadata" : {
                              "WinSubProjectDisplayName" : "",
                              "clipSpeedAttribute" : false,
                              "effectApplied" : "none"
                            }
                          }
                        ],
                          "ident" : "",
                          "audioMuted" : false,
                          "videoHidden" : false,
                          "magnetic" : false,
                          "metadata" : {
                            "IsLocked" : "False",
                            "WinTrackHeight" : "0",
                            "trackHeight" : "48"
                          }
                      },
                      {
                        "trackIndex" : 1,
                        "medias" : [
                          {
                            "id" : 156,
                            "_type" : "Callout",
                            "def" : {
                              "kind" : "remix",
                              "shape" : "text",
                              "style" : "basic",
                              "height" : 78.4795300319492,
                              "line-spacing" : 0.0,
                              "width" : 583.0,
                              "word-wrap" : 1.0,
                              "horizontal-alignment" : "center",
                              "resize-behavior" : "resizeText",
                              "text" : "motion",
                              "vertical-alignment" : "center",
                              "font" : {
                                "color-blue" : 1.0,
                                "color-green" : 1.0,
                                "color-red" : 1.0,
                                "size" : 96.0,
                                "tracking" : 0.0,
                                "name" : "Montserrat",
                                "weight" : "Regular"
                              },
                              "textAttributes" : {
                                "type" : "textAttributeList",
                                "keyframes" : [
                                  {
                                    "endTime" : 0,
                                    "time" : 0,
                                    "value" : [{"name":"fontWeight","rangeEnd":6,"rangeStart":0,"value":400,"valueType":"int"},{"name":"fontItalic","rangeEnd":6,"rangeStart":0,"value":0,"valueType":"int"},{"name":"fontName","rangeEnd":6,"rangeStart":0,"value":"Montserrat","valueType":"string"},{"name":"fontSize","rangeEnd":6,"rangeStart":0,"value":55,"valueType":"double"},{"name":"fgColor","rangeEnd":6,"rangeStart":0,"value":"(239,231,195,255)","valueType":"color"},{"name":"strikethrough","rangeEnd":6,"rangeStart":0,"value":0,"valueType":"int"},{"name":"underline","rangeEnd":6,"rangeStart":0,"value":0,"valueType":"int"},{"name":"kerning","rangeEnd":6,"rangeStart":0,"value":0,"valueType":"double"}],
                                    "duration" : 0
                                  }
                                ]
                              }
                            },
                            "attributes" : {
                              "autoRotateText" : true
                            },
                            "parameters" : {
                              "translation0" : -1.77887982122371e-11,
                              "translation1" : -100.336673040374
                            },
                            "effects" : [
                                {
                                  "_type" : "GenericBehaviorEffect",
                                  "effectName" : "sliding",
                                  "start" : -18,
                                  "duration" : 80                                ,
                                  "in" : {
                                    "attributes" : {
                                      "name" : "sliding",
                                      "type" : 1,
                                      "characterOrder" : 0,
                                      "offsetBetweenCharacters" : 3,
                                      "suggestedDurationPerCharacter" : "999/50",
                                      "overlapProportion" : "11/20",
                                      "movement" : 16,
                                      "springDamping" : 5.0,
                                      "springStiffness" : 50.0,
                                      "bounceBounciness" : 0.45
                                    },
                                    "parameters" : {
                                      "direction" : {
                                        "type" : "int",
                                        "valueBounds" : {
                                          "minValue" : 0,
                                          "maxValue" : 3,
                                          "defaultValue" : 0
                                        },
                                        "uiHints" : {
                                          "userInterfaceType" : 2,
                                          "unitType" : 0
                                        },
                                        "keyframes" : [
                                          {
                                            "endTime" : 0,
                                            "time" : 0,
                                            "value" : 3,
                                            "duration" : 0
                                          }
                                        ]
                                      }
                                    }
                                  
                                  },
                                  "center" : {
                                    "attributes" : {
                                      "name" : "none",
                                      "type" : 1,
                                      "characterOrder" : 6,
                                      "offsetBetweenCharacters" : 0,
                                      "secondsPerLoop" : 1,
                                      "numberOfLoops" : -1,
                                      "delayBetweenLoops" : 0,
                                      "offsetBetweenCharacters" : 0
                                    }
                                  
                                  },
                                  "out" : {
                                    "attributes" : {
                                      "name" : "none",
                                      "type" : 1,
                                      "characterOrder" : 6,
                                      "offsetBetweenCharacters" : 0,
                                      "suggestedDurationPerCharacter" : 0,
                                      "overlapProportion" : 0,
                                      "movement" : -1,
                                      "springDamping" : 5.0,
                                      "springStiffness" : 50.0,
                                      "bounceBounciness" : 0.45
                                    }
                                  
                                  }
                                }
                            ],
                            "start" : 210,
                            "duration" : 80,
                            "mediaStart" : -18,
                            "mediaDuration" : 80,
                            "scalar" : 1,
                            "metadata" : {
                              "WinSubProjectDisplayName" : "",
                              "clipSpeedAttribute" : false,
                              "default-HAlign" : "center",
                              "default-LineSpace" : 0.0,
                              "default-VAlign" : "center",
                              "default-text-attributes" : "[{\"name\":\"strikethrough\",\"rangeEnd\":13,\"rangeStart\":0,\"value\":0,\"valueType\":\"int\"},{\"name\":\"fontWeight\",\"rangeEnd\":13,\"rangeStart\":0,\"value\":100,\"valueType\":\"int\"},{\"name\":\"fontSize\",\"rangeEnd\":13,\"rangeStart\":0,\"value\":55,\"valueType\":\"double\"},{\"name\":\"underline\",\"rangeEnd\":13,\"rangeStart\":0,\"value\":0,\"valueType\":\"int\"},{\"name\":\"fgColor\",\"rangeEnd\":13,\"rangeStart\":0,\"value\":\"(239,231,195,255)\",\"valueType\":\"color\"},{\"name\":\"fontItalic\",\"rangeEnd\":13,\"rangeStart\":0,\"value\":0,\"valueType\":\"int\"},{\"name\":\"fontName\",\"rangeEnd\":13,\"rangeStart\":0,\"value\":\"Montserrat\",\"valueType\":\"string\"}]",
                              "effectApplied" : "none"
                            },
                            "animationTracks" : {

                            }
                          }
                        ],
                          "ident" : "",
                          "audioMuted" : false,
                          "videoHidden" : false,
                          "magnetic" : false,
                          "metadata" : {
                            "IsLocked" : "False",
                            "WinTrackHeight" : "1.18064664215163e-311",
                            "trackHeight" : "48"
                          }
                      },
                      {
                        "trackIndex" : 2,
                        "medias" : [
                          {
                            "id" : 157,
                            "_type" : "Callout",
                            "def" : {
                              "kind" : "remix",
                              "shape" : "text",
                              "style" : "basic",
                              "height" : 177.714285714305,
                              "line-spacing" : 0.0,
                              "width" : 904.358937127979,
                              "word-wrap" : 1.0,
                              "horizontal-alignment" : "center",
                              "resize-behavior" : "resizeText",
                              "text" : "changing y",
                              "vertical-alignment" : "center",
                              "font" : {
                                "color-blue" : 1.0,
                                "color-green" : 1.0,
                                "color-red" : 1.0,
                                "size" : 96.0,
                                "tracking" : 0.0,
                                "name" : "Montserrat",
                                "weight" : "Regular"
                              },
                              "textAttributes" : {
                                "type" : "textAttributeList",
                                "keyframes" : [
                                  {
                                    "endTime" : 0,
                                    "time" : 0,
                                    "value" : [{"name":"fgColor","rangeEnd":10,"rangeStart":0,"value":"(241,230,195,255)","valueType":"color"},{"name":"fontWeight","rangeEnd":10,"rangeStart":0,"value":400,"valueType":"int"},{"name":"underline","rangeEnd":10,"rangeStart":0,"value":0,"valueType":"int"},{"name":"fontItalic","rangeEnd":10,"rangeStart":0,"value":0,"valueType":"int"},{"name":"fontName","rangeEnd":10,"rangeStart":0,"value":"Montserrat","valueType":"string"},{"name":"kerning","rangeEnd":10,"rangeStart":0,"value":0,"valueType":"double"},{"name":"strikethrough","rangeEnd":10,"rangeStart":0,"value":0,"valueType":"int"},{"name":"fontSize","rangeEnd":10,"rangeStart":0,"value":96,"valueType":"double"}],
                                    "duration" : 0
                                  }
                                ]
                              }
                            },
                            "attributes" : {
                              "autoRotateText" : true
                            },
                            "parameters" : {
                              "translation0" : 0.320531435861056,
                              "translation1" : 27.642853721879
                            },
                            "effects" : [
                                {
                                  "_type" : "GenericBehaviorEffect",
                                  "effectName" : "scale",
                                  "start" : -52,
                                  "duration" : 176                                ,
                                  "in" : {
                                    "attributes" : {
                                      "name" : "grow",
                                      "type" : 1,
                                      "characterOrder" : 6,
                                      "offsetBetweenCharacters" : 2,
                                      "suggestedDurationPerCharacter" : "2333/25",
                                      "overlapProportion" : "3/4",
                                      "movement" : 30,
                                      "springDamping" : 5.0,
                                      "springStiffness" : 50.0,
                                      "bounceBounciness" : 0.45
                                    }
                                  
                                  },
                                  "center" : {
                                    "attributes" : {
                                      "name" : "none",
                                      "type" : 1,
                                      "characterOrder" : 6,
                                      "offsetBetweenCharacters" : 0,
                                      "secondsPerLoop" : 1,
                                      "numberOfLoops" : -1,
                                      "delayBetweenLoops" : 0,
                                      "offsetBetweenCharacters" : 0
                                    }
                                  
                                  },
                                  "out" : {
                                    "attributes" : {
                                      "name" : "none",
                                      "type" : 1,
                                      "characterOrder" : 6,
                                      "offsetBetweenCharacters" : 0,
                                      "suggestedDurationPerCharacter" : 0,
                                      "overlapProportion" : 0,
                                      "movement" : -1,
                                      "springDamping" : 5.0,
                                      "springStiffness" : 50.0,
                                      "bounceBounciness" : 0.45
                                    }
                                  
                                  }
                                },
                                {
                                  "effectName" : "DropShadow",
                                  "category" : "categoryVisualEffects",
                                  "parameters" : {
                                    "angle" : {
                                      "type" : "double",
                                      "defaultValue" : 4.71238898038469,
                                      "valueBounds" : {
                                        "minValue" : 0.0,
                                        "maxValue" : 0.0,
                                        "defaultValue" : 5.49778714378214
                                      },
                                      "uiHints" : {
                                        "userInterfaceType" : 0,
                                        "unitType" : 0
                                      }
                                    },
                                    "blur" : {
                                      "type" : "double",
                                      "defaultValue" : 3.33066907387547e-16,
                                      "valueBounds" : {
                                        "minValue" : 0.0,
                                        "maxValue" : 50.0,
                                        "defaultValue" : 10.0
                                      },
                                      "uiHints" : {
                                        "userInterfaceType" : 0,
                                        "unitType" : 0
                                      }
                                    },
                                    "color-alpha" : {
                                      "type" : "double",
                                      "defaultValue" : 1.0,
                                      "valueBounds" : {
                                        "minValue" : 0.0,
                                        "maxValue" : 1.0,
                                        "defaultValue" : 1.0
                                      },
                                      "uiHints" : {
                                        "userInterfaceType" : 0,
                                        "unitType" : 0
                                      }
                                    },
                                    "color-blue" : {
                                      "type" : "double",
                                      "defaultValue" : 0.1216,
                                      "valueBounds" : {
                                        "minValue" : 0.0,
                                        "maxValue" : 1.0,
                                        "defaultValue" : 0.1216
                                      },
                                      "uiHints" : {
                                        "userInterfaceType" : 0,
                                        "unitType" : 0
                                      }
                                    },
                                    "color-green" : {
                                      "type" : "double",
                                      "defaultValue" : 0.1216,
                                      "valueBounds" : {
                                        "minValue" : 0.0,
                                        "maxValue" : 1.0,
                                        "defaultValue" : 0.1216
                                      },
                                      "uiHints" : {
                                        "userInterfaceType" : 0,
                                        "unitType" : 0
                                      }
                                    },
                                    "color-red" : {
                                      "type" : "double",
                                      "defaultValue" : 0.1216,
                                      "valueBounds" : {
                                        "minValue" : 0.0,
                                        "maxValue" : 1.0,
                                        "defaultValue" : 0.1216
                                      },
                                      "uiHints" : {
                                        "userInterfaceType" : 0,
                                        "unitType" : 0
                                      }
                                    },
                                    "enabled" : {
                                      "type" : "int",
                                      "valueBounds" : {
                                        "minValue" : 0,
                                        "maxValue" : 1,
                                        "defaultValue" : 1
                                      },
                                      "uiHints" : {
                                        "userInterfaceType" : 0,
                                        "unitType" : 0
                                      },
                                      "keyframes" : [
                                        {
                                          "endTime" : 0,
                                          "time" : 0,
                                          "value" : 1,
                                          "duration" : 0
                                        }
                                      ]
                                    },
                                    "offset" : {
                                      "type" : "double",
                                      "defaultValue" : 10.0,
                                      "valueBounds" : {
                                        "minValue" : 0.0,
                                        "maxValue" : 250.0,
                                        "defaultValue" : 10.0
                                      },
                                      "uiHints" : {
                                        "userInterfaceType" : 0,
                                        "unitType" : 0
                                      }
                                    },
                                    "opacity" : {
                                      "type" : "double",
                                      "defaultValue" : 0.741666666666667,
                                      "valueBounds" : {
                                        "minValue" : 0.0,
                                        "maxValue" : 1.0,
                                        "defaultValue" : 0.4
                                      },
                                      "uiHints" : {
                                        "userInterfaceType" : 0,
                                        "unitType" : 0
                                      }
                                    }
                                  }
                                }
                            ],
                            "start" : 114,
                            "duration" : 176,
                            "mediaStart" : -52,
                            "mediaDuration" : 176,
                            "scalar" : 1,
                            "metadata" : {
                              "WinSubProjectDisplayName" : "",
                              "clipSpeedAttribute" : false,
                              "default-HAlign" : "center",
                              "default-LineSpace" : 0.0,
                              "default-VAlign" : "center",
                              "default-text-attributes" : "[{\"name\":\"fontItalic\",\"rangeEnd\":9,\"rangeStart\":0,\"value\":0,\"valueType\":\"int\"},{\"name\":\"fontSize\",\"rangeEnd\":9,\"rangeStart\":0,\"value\":96,\"valueType\":\"double\"},{\"name\":\"fontName\",\"rangeEnd\":9,\"rangeStart\":0,\"value\":\"Montserrat\",\"valueType\":\"string\"},{\"name\":\"underline\",\"rangeEnd\":9,\"rangeStart\":0,\"value\":0,\"valueType\":\"int\"},{\"name\":\"fontWeight\",\"rangeEnd\":9,\"rangeStart\":0,\"value\":100,\"valueType\":\"int\"},{\"name\":\"strikethrough\",\"rangeEnd\":9,\"rangeStart\":0,\"value\":0,\"valueType\":\"int\"},{\"name\":\"fgColor\",\"rangeEnd\":9,\"rangeStart\":0,\"value\":\"(241,230,195,255)\",\"valueType\":\"color\"}]",
                              "default-translation0" : -66.0174967329584,
                              "default-translation1" : 46.64285714285,
                              "effectApplied" : "none"
                            },
                            "animationTracks" : {

                            }
                          }
                        ],
                          "ident" : "",
                          "audioMuted" : false,
                          "videoHidden" : false,
                          "magnetic" : false,
                          "metadata" : {
                            "IsLocked" : "False",
                            "WinTrackHeight" : "1.18064664215163e-311",
                            "trackHeight" : "48"
                          }
                      }
                    ],
                    "attributes" : {
                      "ident" : "squarepegs",
                      "gain" : 1.0,
                      "mixToMono" : false,
                      "assetProperties" : [
                        {
                          "type" : 0,
                          "name" : "Title",
                          "objects" : [ 157 ],
                          "themeMappings" :  {
                            "font-color" : "foreground-1",
                            "font-family" : "font-1"
                          }
                        },
                        {
                          "type" : 0,
                          "name" : "Subtitle",
                          "objects" : [ 156 ],
                          "themeMappings" :  {
                            "font-color" : "foreground-1",
                            "font-family" : "font-1"
                          }
                        }
                      ]
                    },
                    "effects" : [

                    ],
                    "start" : 7326,
                    "duration" : 176,
                    "mediaStart" : 114.0,
                    "mediaDuration" : 176.0,
                    "scalar" : 1,
                    "metadata" : {
                      "IsGroupExpanded" : "False",
                      "WinSubProjectDisplayName" : "",
                      "clipSpeedAttribute" : false,
                      "effectApplied" : "none",
                      "isOpen" : false
                    },
                    "animationTracks" : {

                    }
                  },
                  {
                    "id" : 158,
                    "_type" : "UnifiedMedia",
                    "video" : 
                        {
                          "id" : 159,
                          "_type" : "ScreenVMFile",
                          "src" : 9,
                          "trackNumber" : 0,
                          "attributes" : {
                            "ident" : "scratch-2.9-motion-changing-y"
                          },
                          "parameters" : {
                            "cursorScale" : {
                              "type" : "double",
                              "defaultValue" : 1.0,
                              "interp" : "linr"
                            },
                            "cursorOpacity" : {
                              "type" : "double",
                              "defaultValue" : 1.0,
                              "interp" : "linr"
                            }
                          },
                          "effects" : [

                          ],
                          "start" : 7502,
                          "duration" : 770,
                          "mediaStart" : 0,
                          "mediaDuration" : 770,
                          "scalar" : 1,
                          "animationTracks" : {

                          }
                        },
                    "audio" : 
                        {
                          "id" : 160,
                          "_type" : "AMFile",
                          "src" : 9,
                          "trackNumber" : 1,
                          "attributes" : {
                            "ident" : "",
                            "gain" : 1.0,
                            "mixToMono" : false
                          },
                            "channelNumber" : "0,1",
                          "effects" : [

                          ],
                          "start" : 7502,
                          "duration" : 770,
                          "mediaStart" : 0,
                          "mediaDuration" : 770,
                          "scalar" : 1,
                          "animationTracks" : {

                          }
                        }
,
                    "start" : 7502,
                    "duration" : 770,
                    "mediaStart" : 0,
                    "mediaDuration" : 770,
                    "scalar" : 1,
                    "metadata" : {
                      "AutoAppliedSmartFocus" : "False",
                      "clipSpeedAttribute" : false
                    }
                  },
                  {
                    "id" : 161,
                    "_type" : "Group",
                    "parameters" : {
                      "volume" : 1.0
                    },
                    "tracks" : [
                      {
                        "trackIndex" : 0,
                        "medias" : [
                          {
                            "id" : 162,
                            "_type" : "UnifiedMedia",
                            "video" : 
                                {
                                  "id" : 163,
                                  "_type" : "VMFile",
                                  "src" : 51,
                                  "trackNumber" : 0,
                                  "attributes" : {
                                    "ident" : "Movie"
                                  },
                                  "effects" : [

                                  ],
                                  "start" : 114,
                                  "duration" : 176,
                                  "mediaStart" : 114,
                                  "mediaDuration" : 176,
                                  "scalar" : 1,
                                  "animationTracks" : {

                                  }
                                },
                            "audio" : 
                                {
                                  "id" : 164,
                                  "_type" : "AMFile",
                                  "src" : 51,
                                  "trackNumber" : 1,
                                  "attributes" : {
                                    "ident" : "",
                                    "gain" : 1.0,
                                    "mixToMono" : false
                                  },
                                    "channelNumber" : "0,1",
                                  "effects" : [

                                  ],
                                  "start" : 114,
                                  "duration" : 176,
                                  "mediaStart" : 114,
                                  "mediaDuration" : 176,
                                  "scalar" : 1,
                                  "animationTracks" : {

                                  }
                                }
,
                            "start" : 114,
                            "duration" : 176,
                            "mediaStart" : 0,
                            "mediaDuration" : 438,
                            "scalar" : 1,
                            "metadata" : {
                              "WinSubProjectDisplayName" : "",
                              "clipSpeedAttribute" : false,
                              "effectApplied" : "none"
                            }
                          }
                        ],
                          "ident" : "",
                          "audioMuted" : false,
                          "videoHidden" : false,
                          "magnetic" : false,
                          "metadata" : {
                            "IsLocked" : "False",
                            "WinTrackHeight" : "0",
                            "trackHeight" : "48"
                          }
                      },
                      {
                        "trackIndex" : 1,
                        "medias" : [
                          {
                            "id" : 165,
                            "_type" : "Callout",
                            "def" : {
                              "kind" : "remix",
                              "shape" : "text",
                              "style" : "basic",
                              "height" : 78.4795300319492,
                              "line-spacing" : 0.0,
                              "width" : 583.0,
                              "word-wrap" : 1.0,
                              "horizontal-alignment" : "center",
                              "resize-behavior" : "resizeText",
                              "text" : "motion",
                              "vertical-alignment" : "center",
                              "font" : {
                                "color-blue" : 1.0,
                                "color-green" : 1.0,
                                "color-red" : 1.0,
                                "size" : 96.0,
                                "tracking" : 0.0,
                                "name" : "Montserrat",
                                "weight" : "Regular"
                              },
                              "textAttributes" : {
                                "type" : "textAttributeList",
                                "keyframes" : [
                                  {
                                    "endTime" : 0,
                                    "time" : 0,
                                    "value" : [{"name":"fontWeight","rangeEnd":6,"rangeStart":0,"value":400,"valueType":"int"},{"name":"fontItalic","rangeEnd":6,"rangeStart":0,"value":0,"valueType":"int"},{"name":"fontName","rangeEnd":6,"rangeStart":0,"value":"Montserrat","valueType":"string"},{"name":"fontSize","rangeEnd":6,"rangeStart":0,"value":55,"valueType":"double"},{"name":"fgColor","rangeEnd":6,"rangeStart":0,"value":"(239,231,195,255)","valueType":"color"},{"name":"strikethrough","rangeEnd":6,"rangeStart":0,"value":0,"valueType":"int"},{"name":"underline","rangeEnd":6,"rangeStart":0,"value":0,"valueType":"int"},{"name":"kerning","rangeEnd":6,"rangeStart":0,"value":0,"valueType":"double"}],
                                    "duration" : 0
                                  }
                                ]
                              }
                            },
                            "attributes" : {
                              "autoRotateText" : true
                            },
                            "parameters" : {
                              "translation0" : -1.77887982122371e-11,
                              "translation1" : -100.336673040374
                            },
                            "effects" : [
                                {
                                  "_type" : "GenericBehaviorEffect",
                                  "effectName" : "sliding",
                                  "start" : -18,
                                  "duration" : 80                                ,
                                  "in" : {
                                    "attributes" : {
                                      "name" : "sliding",
                                      "type" : 1,
                                      "characterOrder" : 0,
                                      "offsetBetweenCharacters" : 3,
                                      "suggestedDurationPerCharacter" : "999/50",
                                      "overlapProportion" : "11/20",
                                      "movement" : 16,
                                      "springDamping" : 5.0,
                                      "springStiffness" : 50.0,
                                      "bounceBounciness" : 0.45
                                    },
                                    "parameters" : {
                                      "direction" : {
                                        "type" : "int",
                                        "valueBounds" : {
                                          "minValue" : 0,
                                          "maxValue" : 3,
                                          "defaultValue" : 0
                                        },
                                        "uiHints" : {
                                          "userInterfaceType" : 2,
                                          "unitType" : 0
                                        },
                                        "keyframes" : [
                                          {
                                            "endTime" : 0,
                                            "time" : 0,
                                            "value" : 3,
                                            "duration" : 0
                                          }
                                        ]
                                      }
                                    }
                                  
                                  },
                                  "center" : {
                                    "attributes" : {
                                      "name" : "none",
                                      "type" : 1,
                                      "characterOrder" : 6,
                                      "offsetBetweenCharacters" : 0,
                                      "secondsPerLoop" : 1,
                                      "numberOfLoops" : -1,
                                      "delayBetweenLoops" : 0,
                                      "offsetBetweenCharacters" : 0
                                    }
                                  
                                  },
                                  "out" : {
                                    "attributes" : {
                                      "name" : "none",
                                      "type" : 1,
                                      "characterOrder" : 6,
                                      "offsetBetweenCharacters" : 0,
                                      "suggestedDurationPerCharacter" : 0,
                                      "overlapProportion" : 0,
                                      "movement" : -1,
                                      "springDamping" : 5.0,
                                      "springStiffness" : 50.0,
                                      "bounceBounciness" : 0.45
                                    }
                                  
                                  }
                                }
                            ],
                            "start" : 210,
                            "duration" : 80,
                            "mediaStart" : -18,
                            "mediaDuration" : 80,
                            "scalar" : 1,
                            "metadata" : {
                              "WinSubProjectDisplayName" : "",
                              "clipSpeedAttribute" : false,
                              "default-HAlign" : "center",
                              "default-LineSpace" : 0.0,
                              "default-VAlign" : "center",
                              "default-text-attributes" : "[{\"name\":\"strikethrough\",\"rangeEnd\":13,\"rangeStart\":0,\"value\":0,\"valueType\":\"int\"},{\"name\":\"fontWeight\",\"rangeEnd\":13,\"rangeStart\":0,\"value\":100,\"valueType\":\"int\"},{\"name\":\"fontSize\",\"rangeEnd\":13,\"rangeStart\":0,\"value\":55,\"valueType\":\"double\"},{\"name\":\"underline\",\"rangeEnd\":13,\"rangeStart\":0,\"value\":0,\"valueType\":\"int\"},{\"name\":\"fgColor\",\"rangeEnd\":13,\"rangeStart\":0,\"value\":\"(239,231,195,255)\",\"valueType\":\"color\"},{\"name\":\"fontItalic\",\"rangeEnd\":13,\"rangeStart\":0,\"value\":0,\"valueType\":\"int\"},{\"name\":\"fontName\",\"rangeEnd\":13,\"rangeStart\":0,\"value\":\"Montserrat\",\"valueType\":\"string\"}]",
                              "effectApplied" : "none"
                            },
                            "animationTracks" : {

                            }
                          }
                        ],
                          "ident" : "",
                          "audioMuted" : false,
                          "videoHidden" : false,
                          "magnetic" : false,
                          "metadata" : {
                            "IsLocked" : "False",
                            "WinTrackHeight" : "1.18064664215163e-311",
                            "trackHeight" : "48"
                          }
                      },
                      {
                        "trackIndex" : 2,
                        "medias" : [
                          {
                            "id" : 166,
                            "_type" : "Callout",
                            "def" : {
                              "kind" : "remix",
                              "shape" : "text",
                              "style" : "basic",
                              "height" : 177.714285714305,
                              "line-spacing" : 0.0,
                              "width" : 904.358937127979,
                              "word-wrap" : 1.0,
                              "horizontal-alignment" : "center",
                              "resize-behavior" : "resizeText",
                              "text" : "bouncing",
                              "vertical-alignment" : "center",
                              "font" : {
                                "color-blue" : 1.0,
                                "color-green" : 1.0,
                                "color-red" : 1.0,
                                "size" : 96.0,
                                "tracking" : 0.0,
                                "name" : "Montserrat",
                                "weight" : "Regular"
                              },
                              "textAttributes" : {
                                "type" : "textAttributeList",
                                "keyframes" : [
                                  {
                                    "endTime" : 0,
                                    "time" : 0,
                                    "value" : [{"name":"underline","rangeEnd":8,"rangeStart":0,"value":0,"valueType":"int"},{"name":"strikethrough","rangeEnd":8,"rangeStart":0,"value":0,"valueType":"int"},{"name":"fontItalic","rangeEnd":8,"rangeStart":0,"value":0,"valueType":"int"},{"name":"kerning","rangeEnd":8,"rangeStart":0,"value":0,"valueType":"double"},{"name":"fgColor","rangeEnd":8,"rangeStart":0,"value":"(241,230,195,255)","valueType":"color"},{"name":"fontSize","rangeEnd":8,"rangeStart":0,"value":96,"valueType":"double"},{"name":"fontWeight","rangeEnd":8,"rangeStart":0,"value":400,"valueType":"int"},{"name":"fontName","rangeEnd":8,"rangeStart":0,"value":"Montserrat","valueType":"string"}],
                                    "duration" : 0
                                  }
                                ]
                              }
                            },
                            "attributes" : {
                              "autoRotateText" : true
                            },
                            "parameters" : {
                              "translation0" : 0.320531435861056,
                              "translation1" : 27.642853721879
                            },
                            "effects" : [
                                {
                                  "_type" : "GenericBehaviorEffect",
                                  "effectName" : "scale",
                                  "start" : -52,
                                  "duration" : 176                                ,
                                  "in" : {
                                    "attributes" : {
                                      "name" : "grow",
                                      "type" : 1,
                                      "characterOrder" : 6,
                                      "offsetBetweenCharacters" : 2,
                                      "suggestedDurationPerCharacter" : "2333/25",
                                      "overlapProportion" : "3/4",
                                      "movement" : 30,
                                      "springDamping" : 5.0,
                                      "springStiffness" : 50.0,
                                      "bounceBounciness" : 0.45
                                    }
                                  
                                  },
                                  "center" : {
                                    "attributes" : {
                                      "name" : "none",
                                      "type" : 1,
                                      "characterOrder" : 6,
                                      "offsetBetweenCharacters" : 0,
                                      "secondsPerLoop" : 1,
                                      "numberOfLoops" : -1,
                                      "delayBetweenLoops" : 0,
                                      "offsetBetweenCharacters" : 0
                                    }
                                  
                                  },
                                  "out" : {
                                    "attributes" : {
                                      "name" : "none",
                                      "type" : 1,
                                      "characterOrder" : 6,
                                      "offsetBetweenCharacters" : 0,
                                      "suggestedDurationPerCharacter" : 0,
                                      "overlapProportion" : 0,
                                      "movement" : -1,
                                      "springDamping" : 5.0,
                                      "springStiffness" : 50.0,
                                      "bounceBounciness" : 0.45
                                    }
                                  
                                  }
                                },
                                {
                                  "effectName" : "DropShadow",
                                  "category" : "categoryVisualEffects",
                                  "parameters" : {
                                    "angle" : {
                                      "type" : "double",
                                      "defaultValue" : 4.71238898038469,
                                      "valueBounds" : {
                                        "minValue" : 0.0,
                                        "maxValue" : 0.0,
                                        "defaultValue" : 5.49778714378214
                                      },
                                      "uiHints" : {
                                        "userInterfaceType" : 0,
                                        "unitType" : 0
                                      }
                                    },
                                    "blur" : {
                                      "type" : "double",
                                      "defaultValue" : 3.33066907387547e-16,
                                      "valueBounds" : {
                                        "minValue" : 0.0,
                                        "maxValue" : 50.0,
                                        "defaultValue" : 10.0
                                      },
                                      "uiHints" : {
                                        "userInterfaceType" : 0,
                                        "unitType" : 0
                                      }
                                    },
                                    "color-alpha" : {
                                      "type" : "double",
                                      "defaultValue" : 1.0,
                                      "valueBounds" : {
                                        "minValue" : 0.0,
                                        "maxValue" : 1.0,
                                        "defaultValue" : 1.0
                                      },
                                      "uiHints" : {
                                        "userInterfaceType" : 0,
                                        "unitType" : 0
                                      }
                                    },
                                    "color-blue" : {
                                      "type" : "double",
                                      "defaultValue" : 0.1216,
                                      "valueBounds" : {
                                        "minValue" : 0.0,
                                        "maxValue" : 1.0,
                                        "defaultValue" : 0.1216
                                      },
                                      "uiHints" : {
                                        "userInterfaceType" : 0,
                                        "unitType" : 0
                                      }
                                    },
                                    "color-green" : {
                                      "type" : "double",
                                      "defaultValue" : 0.1216,
                                      "valueBounds" : {
                                        "minValue" : 0.0,
                                        "maxValue" : 1.0,
                                        "defaultValue" : 0.1216
                                      },
                                      "uiHints" : {
                                        "userInterfaceType" : 0,
                                        "unitType" : 0
                                      }
                                    },
                                    "color-red" : {
                                      "type" : "double",
                                      "defaultValue" : 0.1216,
                                      "valueBounds" : {
                                        "minValue" : 0.0,
                                        "maxValue" : 1.0,
                                        "defaultValue" : 0.1216
                                      },
                                      "uiHints" : {
                                        "userInterfaceType" : 0,
                                        "unitType" : 0
                                      }
                                    },
                                    "enabled" : {
                                      "type" : "int",
                                      "valueBounds" : {
                                        "minValue" : 0,
                                        "maxValue" : 1,
                                        "defaultValue" : 1
                                      },
                                      "uiHints" : {
                                        "userInterfaceType" : 0,
                                        "unitType" : 0
                                      },
                                      "keyframes" : [
                                        {
                                          "endTime" : 0,
                                          "time" : 0,
                                          "value" : 1,
                                          "duration" : 0
                                        }
                                      ]
                                    },
                                    "offset" : {
                                      "type" : "double",
                                      "defaultValue" : 10.0,
                                      "valueBounds" : {
                                        "minValue" : 0.0,
                                        "maxValue" : 250.0,
                                        "defaultValue" : 10.0
                                      },
                                      "uiHints" : {
                                        "userInterfaceType" : 0,
                                        "unitType" : 0
                                      }
                                    },
                                    "opacity" : {
                                      "type" : "double",
                                      "defaultValue" : 0.741666666666667,
                                      "valueBounds" : {
                                        "minValue" : 0.0,
                                        "maxValue" : 1.0,
                                        "defaultValue" : 0.4
                                      },
                                      "uiHints" : {
                                        "userInterfaceType" : 0,
                                        "unitType" : 0
                                      }
                                    }
                                  }
                                }
                            ],
                            "start" : 114,
                            "duration" : 176,
                            "mediaStart" : -52,
                            "mediaDuration" : 176,
                            "scalar" : 1,
                            "metadata" : {
                              "WinSubProjectDisplayName" : "",
                              "clipSpeedAttribute" : false,
                              "default-HAlign" : "center",
                              "default-LineSpace" : 0.0,
                              "default-VAlign" : "center",
                              "default-text-attributes" : "[{\"name\":\"fontItalic\",\"rangeEnd\":9,\"rangeStart\":0,\"value\":0,\"valueType\":\"int\"},{\"name\":\"fontSize\",\"rangeEnd\":9,\"rangeStart\":0,\"value\":96,\"valueType\":\"double\"},{\"name\":\"fontName\",\"rangeEnd\":9,\"rangeStart\":0,\"value\":\"Montserrat\",\"valueType\":\"string\"},{\"name\":\"underline\",\"rangeEnd\":9,\"rangeStart\":0,\"value\":0,\"valueType\":\"int\"},{\"name\":\"fontWeight\",\"rangeEnd\":9,\"rangeStart\":0,\"value\":100,\"valueType\":\"int\"},{\"name\":\"strikethrough\",\"rangeEnd\":9,\"rangeStart\":0,\"value\":0,\"valueType\":\"int\"},{\"name\":\"fgColor\",\"rangeEnd\":9,\"rangeStart\":0,\"value\":\"(241,230,195,255)\",\"valueType\":\"color\"}]",
                              "default-translation0" : -66.0174967329584,
                              "default-translation1" : 46.64285714285,
                              "effectApplied" : "none"
                            },
                            "animationTracks" : {

                            }
                          }
                        ],
                          "ident" : "",
                          "audioMuted" : false,
                          "videoHidden" : false,
                          "magnetic" : false,
                          "metadata" : {
                            "IsLocked" : "False",
                            "WinTrackHeight" : "1.18064664215163e-311",
                            "trackHeight" : "48"
                          }
                      }
                    ],
                    "attributes" : {
                      "ident" : "squarepegs",
                      "gain" : 1.0,
                      "mixToMono" : false,
                      "assetProperties" : [
                        {
                          "type" : 0,
                          "name" : "Title",
                          "objects" : [ 166 ],
                          "themeMappings" :  {
                            "font-color" : "foreground-1",
                            "font-family" : "font-1"
                          }
                        },
                        {
                          "type" : 0,
                          "name" : "Subtitle",
                          "objects" : [ 165 ],
                          "themeMappings" :  {
                            "font-color" : "foreground-1",
                            "font-family" : "font-1"
                          }
                        }
                      ]
                    },
                    "effects" : [

                    ],
                    "start" : 8272,
                    "duration" : 176,
                    "mediaStart" : 114.0,
                    "mediaDuration" : 176.0,
                    "scalar" : 1,
                    "metadata" : {
                      "IsGroupExpanded" : "False",
                      "WinSubProjectDisplayName" : "",
                      "clipSpeedAttribute" : false,
                      "effectApplied" : "none",
                      "isOpen" : false
                    },
                    "animationTracks" : {

                    }
                  },
                  {
                    "id" : 167,
                    "_type" : "UnifiedMedia",
                    "video" : 
                        {
                          "id" : 168,
                          "_type" : "ScreenVMFile",
                          "src" : 10,
                          "trackNumber" : 0,
                          "attributes" : {
                            "ident" : "scratch-2.10-motion-bouncing"
                          },
                          "parameters" : {
                            "cursorScale" : {
                              "type" : "double",
                              "defaultValue" : 1.0,
                              "interp" : "linr"
                            },
                            "cursorOpacity" : {
                              "type" : "double",
                              "defaultValue" : 1.0,
                              "interp" : "linr"
                            }
                          },
                          "effects" : [

                          ],
                          "start" : 8448,
                          "duration" : 526,
                          "mediaStart" : 0,
                          "mediaDuration" : 526,
                          "scalar" : 1,
                          "animationTracks" : {

                          }
                        },
                    "audio" : 
                        {
                          "id" : 169,
                          "_type" : "AMFile",
                          "src" : 10,
                          "trackNumber" : 1,
                          "attributes" : {
                            "ident" : "",
                            "gain" : 1.0,
                            "mixToMono" : false
                          },
                            "channelNumber" : "0,1",
                          "effects" : [

                          ],
                          "start" : 8448,
                          "duration" : 526,
                          "mediaStart" : 0,
                          "mediaDuration" : 526,
                          "scalar" : 1,
                          "animationTracks" : {

                          }
                        }
,
                    "start" : 8448,
                    "duration" : 526,
                    "mediaStart" : 0,
                    "mediaDuration" : 526,
                    "scalar" : 1,
                    "metadata" : {
                      "AutoAppliedSmartFocus" : "False",
                      "clipSpeedAttribute" : false
                    }
                  },
                  {
                    "id" : 170,
                    "_type" : "Group",
                    "parameters" : {
                      "volume" : 1.0
                    },
                    "tracks" : [
                      {
                        "trackIndex" : 0,
                        "medias" : [
                          {
                            "id" : 171,
                            "_type" : "UnifiedMedia",
                            "video" : 
                                {
                                  "id" : 172,
                                  "_type" : "VMFile",
                                  "src" : 51,
                                  "trackNumber" : 0,
                                  "attributes" : {
                                    "ident" : "Movie"
                                  },
                                  "effects" : [

                                  ],
                                  "start" : 114,
                                  "duration" : 176,
                                  "mediaStart" : 114,
                                  "mediaDuration" : 176,
                                  "scalar" : 1,
                                  "animationTracks" : {

                                  }
                                },
                            "audio" : 
                                {
                                  "id" : 173,
                                  "_type" : "AMFile",
                                  "src" : 51,
                                  "trackNumber" : 1,
                                  "attributes" : {
                                    "ident" : "",
                                    "gain" : 1.0,
                                    "mixToMono" : false
                                  },
                                    "channelNumber" : "0,1",
                                  "effects" : [

                                  ],
                                  "start" : 114,
                                  "duration" : 176,
                                  "mediaStart" : 114,
                                  "mediaDuration" : 176,
                                  "scalar" : 1,
                                  "animationTracks" : {

                                  }
                                }
,
                            "start" : 114,
                            "duration" : 176,
                            "mediaStart" : 0,
                            "mediaDuration" : 438,
                            "scalar" : 1,
                            "metadata" : {
                              "WinSubProjectDisplayName" : "",
                              "clipSpeedAttribute" : false,
                              "effectApplied" : "none"
                            }
                          }
                        ],
                          "ident" : "",
                          "audioMuted" : false,
                          "videoHidden" : false,
                          "magnetic" : false,
                          "metadata" : {
                            "IsLocked" : "False",
                            "WinTrackHeight" : "0",
                            "trackHeight" : "48"
                          }
                      },
                      {
                        "trackIndex" : 1,
                        "medias" : [
                          {
                            "id" : 174,
                            "_type" : "Callout",
                            "def" : {
                              "kind" : "remix",
                              "shape" : "text",
                              "style" : "basic",
                              "height" : 78.4795300319492,
                              "line-spacing" : 0.0,
                              "width" : 583.0,
                              "word-wrap" : 1.0,
                              "horizontal-alignment" : "center",
                              "resize-behavior" : "resizeText",
                              "text" : "motion",
                              "vertical-alignment" : "center",
                              "font" : {
                                "color-blue" : 1.0,
                                "color-green" : 1.0,
                                "color-red" : 1.0,
                                "size" : 96.0,
                                "tracking" : 0.0,
                                "name" : "Montserrat",
                                "weight" : "Regular"
                              },
                              "textAttributes" : {
                                "type" : "textAttributeList",
                                "keyframes" : [
                                  {
                                    "endTime" : 0,
                                    "time" : 0,
                                    "value" : [{"name":"fontWeight","rangeEnd":6,"rangeStart":0,"value":400,"valueType":"int"},{"name":"fontItalic","rangeEnd":6,"rangeStart":0,"value":0,"valueType":"int"},{"name":"fontName","rangeEnd":6,"rangeStart":0,"value":"Montserrat","valueType":"string"},{"name":"fontSize","rangeEnd":6,"rangeStart":0,"value":55,"valueType":"double"},{"name":"fgColor","rangeEnd":6,"rangeStart":0,"value":"(239,231,195,255)","valueType":"color"},{"name":"strikethrough","rangeEnd":6,"rangeStart":0,"value":0,"valueType":"int"},{"name":"underline","rangeEnd":6,"rangeStart":0,"value":0,"valueType":"int"},{"name":"kerning","rangeEnd":6,"rangeStart":0,"value":0,"valueType":"double"}],
                                    "duration" : 0
                                  }
                                ]
                              }
                            },
                            "attributes" : {
                              "autoRotateText" : true
                            },
                            "parameters" : {
                              "translation0" : -1.77887982122371e-11,
                              "translation1" : -100.336673040374
                            },
                            "effects" : [
                                {
                                  "_type" : "GenericBehaviorEffect",
                                  "effectName" : "sliding",
                                  "start" : -18,
                                  "duration" : 80                                ,
                                  "in" : {
                                    "attributes" : {
                                      "name" : "sliding",
                                      "type" : 1,
                                      "characterOrder" : 0,
                                      "offsetBetweenCharacters" : 3,
                                      "suggestedDurationPerCharacter" : "999/50",
                                      "overlapProportion" : "11/20",
                                      "movement" : 16,
                                      "springDamping" : 5.0,
                                      "springStiffness" : 50.0,
                                      "bounceBounciness" : 0.45
                                    },
                                    "parameters" : {
                                      "direction" : {
                                        "type" : "int",
                                        "valueBounds" : {
                                          "minValue" : 0,
                                          "maxValue" : 3,
                                          "defaultValue" : 0
                                        },
                                        "uiHints" : {
                                          "userInterfaceType" : 2,
                                          "unitType" : 0
                                        },
                                        "keyframes" : [
                                          {
                                            "endTime" : 0,
                                            "time" : 0,
                                            "value" : 3,
                                            "duration" : 0
                                          }
                                        ]
                                      }
                                    }
                                  
                                  },
                                  "center" : {
                                    "attributes" : {
                                      "name" : "none",
                                      "type" : 1,
                                      "characterOrder" : 6,
                                      "offsetBetweenCharacters" : 0,
                                      "secondsPerLoop" : 1,
                                      "numberOfLoops" : -1,
                                      "delayBetweenLoops" : 0,
                                      "offsetBetweenCharacters" : 0
                                    }
                                  
                                  },
                                  "out" : {
                                    "attributes" : {
                                      "name" : "none",
                                      "type" : 1,
                                      "characterOrder" : 6,
                                      "offsetBetweenCharacters" : 0,
                                      "suggestedDurationPerCharacter" : 0,
                                      "overlapProportion" : 0,
                                      "movement" : -1,
                                      "springDamping" : 5.0,
                                      "springStiffness" : 50.0,
                                      "bounceBounciness" : 0.45
                                    }
                                  
                                  }
                                }
                            ],
                            "start" : 210,
                            "duration" : 80,
                            "mediaStart" : -18,
                            "mediaDuration" : 80,
                            "scalar" : 1,
                            "metadata" : {
                              "WinSubProjectDisplayName" : "",
                              "clipSpeedAttribute" : false,
                              "default-HAlign" : "center",
                              "default-LineSpace" : 0.0,
                              "default-VAlign" : "center",
                              "default-text-attributes" : "[{\"name\":\"strikethrough\",\"rangeEnd\":13,\"rangeStart\":0,\"value\":0,\"valueType\":\"int\"},{\"name\":\"fontWeight\",\"rangeEnd\":13,\"rangeStart\":0,\"value\":100,\"valueType\":\"int\"},{\"name\":\"fontSize\",\"rangeEnd\":13,\"rangeStart\":0,\"value\":55,\"valueType\":\"double\"},{\"name\":\"underline\",\"rangeEnd\":13,\"rangeStart\":0,\"value\":0,\"valueType\":\"int\"},{\"name\":\"fgColor\",\"rangeEnd\":13,\"rangeStart\":0,\"value\":\"(239,231,195,255)\",\"valueType\":\"color\"},{\"name\":\"fontItalic\",\"rangeEnd\":13,\"rangeStart\":0,\"value\":0,\"valueType\":\"int\"},{\"name\":\"fontName\",\"rangeEnd\":13,\"rangeStart\":0,\"value\":\"Montserrat\",\"valueType\":\"string\"}]",
                              "effectApplied" : "none"
                            },
                            "animationTracks" : {

                            }
                          }
                        ],
                          "ident" : "",
                          "audioMuted" : false,
                          "videoHidden" : false,
                          "magnetic" : false,
                          "metadata" : {
                            "IsLocked" : "False",
                            "WinTrackHeight" : "1.18064664215163e-311",
                            "trackHeight" : "48"
                          }
                      },
                      {
                        "trackIndex" : 2,
                        "medias" : [
                          {
                            "id" : 175,
                            "_type" : "Callout",
                            "def" : {
                              "kind" : "remix",
                              "shape" : "text",
                              "style" : "basic",
                              "height" : 177.714285714305,
                              "line-spacing" : 0.0,
                              "width" : 904.358937127979,
                              "word-wrap" : 1.0,
                              "horizontal-alignment" : "center",
                              "resize-behavior" : "resizeText",
                              "text" : "rotation styles",
                              "vertical-alignment" : "center",
                              "font" : {
                                "color-blue" : 1.0,
                                "color-green" : 1.0,
                                "color-red" : 1.0,
                                "size" : 96.0,
                                "tracking" : 0.0,
                                "name" : "Montserrat",
                                "weight" : "Regular"
                              },
                              "textAttributes" : {
                                "type" : "textAttributeList",
                                "keyframes" : [
                                  {
                                    "endTime" : 0,
                                    "time" : 0,
                                    "value" : [{"name":"underline","rangeEnd":15,"rangeStart":0,"value":0,"valueType":"int"},{"name":"fontSize","rangeEnd":15,"rangeStart":0,"value":96,"valueType":"double"},{"name":"strikethrough","rangeEnd":15,"rangeStart":0,"value":0,"valueType":"int"},{"name":"fgColor","rangeEnd":15,"rangeStart":0,"value":"(241,230,195,255)","valueType":"color"},{"name":"fontWeight","rangeEnd":15,"rangeStart":0,"value":400,"valueType":"int"},{"name":"kerning","rangeEnd":15,"rangeStart":0,"value":0,"valueType":"double"},{"name":"fontName","rangeEnd":15,"rangeStart":0,"value":"Montserrat","valueType":"string"},{"name":"fontItalic","rangeEnd":15,"rangeStart":0,"value":0,"valueType":"int"}],
                                    "duration" : 0
                                  }
                                ]
                              }
                            },
                            "attributes" : {
                              "autoRotateText" : true
                            },
                            "parameters" : {
                              "translation0" : 0.320531435861056,
                              "translation1" : 27.642853721879
                            },
                            "effects" : [
                                {
                                  "_type" : "GenericBehaviorEffect",
                                  "effectName" : "scale",
                                  "start" : -52,
                                  "duration" : 176                                ,
                                  "in" : {
                                    "attributes" : {
                                      "name" : "grow",
                                      "type" : 1,
                                      "characterOrder" : 6,
                                      "offsetBetweenCharacters" : 2,
                                      "suggestedDurationPerCharacter" : "2333/25",
                                      "overlapProportion" : "3/4",
                                      "movement" : 30,
                                      "springDamping" : 5.0,
                                      "springStiffness" : 50.0,
                                      "bounceBounciness" : 0.45
                                    }
                                  
                                  },
                                  "center" : {
                                    "attributes" : {
                                      "name" : "none",
                                      "type" : 1,
                                      "characterOrder" : 6,
                                      "offsetBetweenCharacters" : 0,
                                      "secondsPerLoop" : 1,
                                      "numberOfLoops" : -1,
                                      "delayBetweenLoops" : 0,
                                      "offsetBetweenCharacters" : 0
                                    }
                                  
                                  },
                                  "out" : {
                                    "attributes" : {
                                      "name" : "none",
                                      "type" : 1,
                                      "characterOrder" : 6,
                                      "offsetBetweenCharacters" : 0,
                                      "suggestedDurationPerCharacter" : 0,
                                      "overlapProportion" : 0,
                                      "movement" : -1,
                                      "springDamping" : 5.0,
                                      "springStiffness" : 50.0,
                                      "bounceBounciness" : 0.45
                                    }
                                  
                                  }
                                },
                                {
                                  "effectName" : "DropShadow",
                                  "category" : "categoryVisualEffects",
                                  "parameters" : {
                                    "angle" : {
                                      "type" : "double",
                                      "defaultValue" : 4.71238898038469,
                                      "valueBounds" : {
                                        "minValue" : 0.0,
                                        "maxValue" : 0.0,
                                        "defaultValue" : 5.49778714378214
                                      },
                                      "uiHints" : {
                                        "userInterfaceType" : 0,
                                        "unitType" : 0
                                      }
                                    },
                                    "blur" : {
                                      "type" : "double",
                                      "defaultValue" : 3.33066907387547e-16,
                                      "valueBounds" : {
                                        "minValue" : 0.0,
                                        "maxValue" : 50.0,
                                        "defaultValue" : 10.0
                                      },
                                      "uiHints" : {
                                        "userInterfaceType" : 0,
                                        "unitType" : 0
                                      }
                                    },
                                    "color-alpha" : {
                                      "type" : "double",
                                      "defaultValue" : 1.0,
                                      "valueBounds" : {
                                        "minValue" : 0.0,
                                        "maxValue" : 1.0,
                                        "defaultValue" : 1.0
                                      },
                                      "uiHints" : {
                                        "userInterfaceType" : 0,
                                        "unitType" : 0
                                      }
                                    },
                                    "color-blue" : {
                                      "type" : "double",
                                      "defaultValue" : 0.1216,
                                      "valueBounds" : {
                                        "minValue" : 0.0,
                                        "maxValue" : 1.0,
                                        "defaultValue" : 0.1216
                                      },
                                      "uiHints" : {
                                        "userInterfaceType" : 0,
                                        "unitType" : 0
                                      }
                                    },
                                    "color-green" : {
                                      "type" : "double",
                                      "defaultValue" : 0.1216,
                                      "valueBounds" : {
                                        "minValue" : 0.0,
                                        "maxValue" : 1.0,
                                        "defaultValue" : 0.1216
                                      },
                                      "uiHints" : {
                                        "userInterfaceType" : 0,
                                        "unitType" : 0
                                      }
                                    },
                                    "color-red" : {
                                      "type" : "double",
                                      "defaultValue" : 0.1216,
                                      "valueBounds" : {
                                        "minValue" : 0.0,
                                        "maxValue" : 1.0,
                                        "defaultValue" : 0.1216
                                      },
                                      "uiHints" : {
                                        "userInterfaceType" : 0,
                                        "unitType" : 0
                                      }
                                    },
                                    "enabled" : {
                                      "type" : "int",
                                      "valueBounds" : {
                                        "minValue" : 0,
                                        "maxValue" : 1,
                                        "defaultValue" : 1
                                      },
                                      "uiHints" : {
                                        "userInterfaceType" : 0,
                                        "unitType" : 0
                                      },
                                      "keyframes" : [
                                        {
                                          "endTime" : 0,
                                          "time" : 0,
                                          "value" : 1,
                                          "duration" : 0
                                        }
                                      ]
                                    },
                                    "offset" : {
                                      "type" : "double",
                                      "defaultValue" : 10.0,
                                      "valueBounds" : {
                                        "minValue" : 0.0,
                                        "maxValue" : 250.0,
                                        "defaultValue" : 10.0
                                      },
                                      "uiHints" : {
                                        "userInterfaceType" : 0,
                                        "unitType" : 0
                                      }
                                    },
                                    "opacity" : {
                                      "type" : "double",
                                      "defaultValue" : 0.741666666666667,
                                      "valueBounds" : {
                                        "minValue" : 0.0,
                                        "maxValue" : 1.0,
                                        "defaultValue" : 0.4
                                      },
                                      "uiHints" : {
                                        "userInterfaceType" : 0,
                                        "unitType" : 0
                                      }
                                    }
                                  }
                                }
                            ],
                            "start" : 114,
                            "duration" : 176,
                            "mediaStart" : -52,
                            "mediaDuration" : 176,
                            "scalar" : 1,
                            "metadata" : {
                              "WinSubProjectDisplayName" : "",
                              "clipSpeedAttribute" : false,
                              "default-HAlign" : "center",
                              "default-LineSpace" : 0.0,
                              "default-VAlign" : "center",
                              "default-text-attributes" : "[{\"name\":\"fontItalic\",\"rangeEnd\":9,\"rangeStart\":0,\"value\":0,\"valueType\":\"int\"},{\"name\":\"fontSize\",\"rangeEnd\":9,\"rangeStart\":0,\"value\":96,\"valueType\":\"double\"},{\"name\":\"fontName\",\"rangeEnd\":9,\"rangeStart\":0,\"value\":\"Montserrat\",\"valueType\":\"string\"},{\"name\":\"underline\",\"rangeEnd\":9,\"rangeStart\":0,\"value\":0,\"valueType\":\"int\"},{\"name\":\"fontWeight\",\"rangeEnd\":9,\"rangeStart\":0,\"value\":100,\"valueType\":\"int\"},{\"name\":\"strikethrough\",\"rangeEnd\":9,\"rangeStart\":0,\"value\":0,\"valueType\":\"int\"},{\"name\":\"fgColor\",\"rangeEnd\":9,\"rangeStart\":0,\"value\":\"(241,230,195,255)\",\"valueType\":\"color\"}]",
                              "default-translation0" : -66.0174967329584,
                              "default-translation1" : 46.64285714285,
                              "effectApplied" : "none"
                            },
                            "animationTracks" : {

                            }
                          }
                        ],
                          "ident" : "",
                          "audioMuted" : false,
                          "videoHidden" : false,
                          "magnetic" : false,
                          "metadata" : {
                            "IsLocked" : "False",
                            "WinTrackHeight" : "1.18064664215163e-311",
                            "trackHeight" : "48"
                          }
                      }
                    ],
                    "attributes" : {
                      "ident" : "squarepegs",
                      "gain" : 1.0,
                      "mixToMono" : false,
                      "assetProperties" : [
                        {
                          "type" : 0,
                          "name" : "Title",
                          "objects" : [ 175 ],
                          "themeMappings" :  {
                            "font-color" : "foreground-1",
                            "font-family" : "font-1"
                          }
                        },
                        {
                          "type" : 0,
                          "name" : "Subtitle",
                          "objects" : [ 174 ],
                          "themeMappings" :  {
                            "font-color" : "foreground-1",
                            "font-family" : "font-1"
                          }
                        }
                      ]
                    },
                    "effects" : [

                    ],
                    "start" : 8974,
                    "duration" : 176,
                    "mediaStart" : 114.0,
                    "mediaDuration" : 176.0,
                    "scalar" : 1,
                    "metadata" : {
                      "IsGroupExpanded" : "False",
                      "WinSubProjectDisplayName" : "",
                      "clipSpeedAttribute" : false,
                      "effectApplied" : "none",
                      "isOpen" : false
                    },
                    "animationTracks" : {

                    }
                  },
                  {
                    "id" : 176,
                    "_type" : "UnifiedMedia",
                    "video" : 
                        {
                          "id" : 177,
                          "_type" : "ScreenVMFile",
                          "src" : 11,
                          "trackNumber" : 0,
                          "attributes" : {
                            "ident" : "scratch-2.11-motion-rotation-styles"
                          },
                          "parameters" : {
                            "cursorScale" : {
                              "type" : "double",
                              "defaultValue" : 1.0,
                              "interp" : "linr"
                            },
                            "cursorOpacity" : {
                              "type" : "double",
                              "defaultValue" : 1.0,
                              "interp" : "linr"
                            }
                          },
                          "effects" : [

                          ],
                          "start" : 9150,
                          "duration" : 978,
                          "mediaStart" : 0,
                          "mediaDuration" : 978,
                          "scalar" : 1,
                          "animationTracks" : {

                          }
                        },
                    "audio" : 
                        {
                          "id" : 178,
                          "_type" : "AMFile",
                          "src" : 11,
                          "trackNumber" : 1,
                          "attributes" : {
                            "ident" : "",
                            "gain" : 1.0,
                            "mixToMono" : false
                          },
                            "channelNumber" : "0,1",
                          "effects" : [

                          ],
                          "start" : 9150,
                          "duration" : 978,
                          "mediaStart" : 0,
                          "mediaDuration" : 978,
                          "scalar" : 1,
                          "animationTracks" : {

                          }
                        }
,
                    "start" : 9150,
                    "duration" : 978,
                    "mediaStart" : 0,
                    "mediaDuration" : 978,
                    "scalar" : 1,
                    "metadata" : {
                      "AutoAppliedSmartFocus" : "False",
                      "clipSpeedAttribute" : false
                    }
                  },
                  {
                    "id" : 179,
                    "_type" : "Group",
                    "parameters" : {
                      "translation0" : 1.21531229524408e-10,
                      "translation1" : 62.3420348343093,
                      "volume" : 1.0
                    },
                    "tracks" : [
                      {
                        "trackIndex" : 0,
                        "medias" : [
                          {
                            "id" : 180,
                            "_type" : "Callout",
                            "def" : {
                              "kind" : "remix",
                              "shape" : "shape-rectangle",
                              "style" : "urban",
                              "fill-color-blue" : {
                                "type" : "double",
                                "defaultValue" : 1.0,
                                "keyframes" : [
                                  {
                                    "endTime" : 56,
                                    "time" : 18,
                                    "value" : 1.0,
                                    "duration" : 38
                                  },
                                  {
                                    "endTime" : 92,
                                    "time" : 56,
                                    "value" : 0.149019607843137,
                                    "duration" : 36
                                  },
                                  {
                                    "endTime" : 174,
                                    "time" : 116,
                                    "value" : 0.149019607843137,
                                    "duration" : 58
                                  }
                                ]
                              },
                              "fill-color-green" : {
                                "type" : "double",
                                "defaultValue" : 1.0,
                                "keyframes" : [
                                  {
                                    "endTime" : 56,
                                    "time" : 18,
                                    "value" : 1.0,
                                    "duration" : 38
                                  },
                                  {
                                    "endTime" : 92,
                                    "time" : 56,
                                    "value" : 0.96078431372549,
                                    "duration" : 36
                                  },
                                  {
                                    "endTime" : 174,
                                    "time" : 116,
                                    "value" : 0.96078431372549,
                                    "duration" : 58
                                  }
                                ]
                              },
                              "fill-color-opacity" : 1.0,
                              "fill-color-red" : {
                                "type" : "double",
                                "defaultValue" : 1.0,
                                "keyframes" : [
                                  {
                                    "endTime" : 56,
                                    "time" : 18,
                                    "value" : 1.0,
                                    "duration" : 38
                                  },
                                  {
                                    "endTime" : 92,
                                    "time" : 56,
                                    "value" : 0.933333333333333,
                                    "duration" : 36
                                  },
                                  {
                                    "endTime" : 174,
                                    "time" : 116,
                                    "value" : 0.933333333333333,
                                    "duration" : 58
                                  }
                                ]
                              },
                              "height" : {
                                "type" : "double",
                                "defaultValue" : 10.8510761260468,
                                "keyframes" : [
                                  {
                                    "endTime" : 56,
                                    "time" : 18,
                                    "value" : 24.9687231850678,
                                    "duration" : 38
                                  },
                                  {
                                    "endTime" : 92,
                                    "time" : 56,
                                    "value" : 1281.28323719656,
                                    "duration" : 36
                                  },
                                  {
                                    "endTime" : 174,
                                    "time" : 116,
                                    "value" : 1347.6353898526,
                                    "duration" : 58
                                  }
                                ]
                              },
                              "stroke-color-blue" : 1.0,
                              "stroke-color-green" : 1.0,
                              "stroke-color-opacity" : 1.0,
                              "stroke-color-red" : 1.0,
                              "stroke-width" : 0.0,
                              "width" : {
                                "type" : "double",
                                "defaultValue" : 6.88782755517832,
                                "keyframes" : [
                                  {
                                    "endTime" : 56,
                                    "time" : 18,
                                    "value" : 67.9394975592671,
                                    "duration" : 38
                                  },
                                  {
                                    "endTime" : 92,
                                    "time" : 56,
                                    "value" : 67.9394975592671,
                                    "duration" : 36
                                  },
                                  {
                                    "endTime" : 174,
                                    "time" : 116,
                                    "value" : 68.0763125888445,
                                    "duration" : 58
                                  }
                                ]
                              },
                              "fill-style" : "solid",
                              "horizontal-alignment" : "center",
                              "stroke-style" : "solid",
                              "vertical-alignment" : "center",
                              "textAttributes" : {
                                "type" : "textAttributeList",
                                "keyframes" : [
                                  {
                                    "endTime" : 0,
                                    "time" : 0,
                                    "value" : null,
                                    "duration" : 0
                                  }
                                ]
                              }
                            },
                            "attributes" : {
                              "autoRotateText" : true
                            },
                            "parameters" : {
                              "translation0" : {
                                "type" : "double",
                                "defaultValue" : -1.21547438780567e-10,
                                "keyframes" : [
                                  {
                                    "endTime" : 56,
                                    "time" : 18,
                                    "value" : -1.21547438780567e-10,
                                    "duration" : 38
                                  },
                                  {
                                    "endTime" : 92,
                                    "time" : 56,
                                    "value" : 0.0541990816513973,
                                    "duration" : 36
                                  },
                                  {
                                    "endTime" : 174,
                                    "time" : 116,
                                    "value" : -1.67577274979808e-14,
                                    "duration" : 58
                                  }
                                ]
                              },
                              "translation1" : {
                                "type" : "double",
                                "defaultValue" : -96.3117858166865,
                                "keyframes" : [
                                  {
                                    "endTime" : 56,
                                    "time" : 18,
                                    "value" : -96.3117858166865,
                                    "duration" : 38
                                  },
                                  {
                                    "endTime" : 92,
                                    "time" : 56,
                                    "value" : -96.3117858166865,
                                    "duration" : 36
                                  },
                                  {
                                    "endTime" : 174,
                                    "time" : 116,
                                    "value" : -658.65796581331,
                                    "duration" : 58
                                  }
                                ]
                              },
                              "rotation2" : {
                                "type" : "double",
                                "defaultValue" : 0.0,
                                "keyframes" : [
                                  {
                                    "endTime" : 56,
                                    "time" : 18,
                                    "value" : -1.5707963267949,
                                    "duration" : 38
                                  }
                                ]
                              }
                            },
                            "effects" : [

                            ],
                            "start" : -30,
                            "duration" : 210,
                            "mediaStart" : -12,
                            "mediaDuration" : 210,
                            "scalar" : 1,
                            "metadata" : {
                              "WinSubProjectDisplayName" : "",
                              "clipSpeedAttribute" : false
                            },
                            "animationTracks" : {
                              "visual" : [
                                {
                                  "endTime" : 56,
                                  "duration" : 38,
                                  "range" : [ 18, 38],
                                  "interp" : "eioe"
                                },
                                {
                                  "endTime" : 92,
                                  "duration" : 36,
                                  "range" : [ 56, 36],
                                  "interp" : "eioe"
                                },
                                {
                                  "endTime" : 174,
                                  "duration" : 58,
                                  "range" : [ 116, 58]
                                }
                              ]
                            }
                          }
                        ],
                          "ident" : "",
                          "audioMuted" : false,
                          "videoHidden" : false,
                          "magnetic" : false,
                          "metadata" : {
                            "IsLocked" : "False",
                            "WinTrackHeight" : "0"
                          }
                      },
                      {
                        "trackIndex" : 1,
                        "medias" : [
                          {
                            "id" : 181,
                            "_type" : "Callout",
                            "def" : {
                              "kind" : "remix",
                              "shape" : "shape-rectangle",
                              "style" : "urban",
                              "fill-color-blue" : {
                                "type" : "double",
                                "defaultValue" : 1.0,
                                "keyframes" : [
                                  {
                                    "endTime" : 54,
                                    "time" : 18,
                                    "value" : 0.149019607843137,
                                    "duration" : 36
                                  },
                                  {
                                    "endTime" : 136,
                                    "time" : 78,
                                    "value" : 1.0,
                                    "duration" : 58
                                  }
                                ]
                              },
                              "fill-color-green" : {
                                "type" : "double",
                                "defaultValue" : 1.0,
                                "keyframes" : [
                                  {
                                    "endTime" : 54,
                                    "time" : 18,
                                    "value" : 0.96078431372549,
                                    "duration" : 36
                                  },
                                  {
                                    "endTime" : 136,
                                    "time" : 78,
                                    "value" : 1.0,
                                    "duration" : 58
                                  }
                                ]
                              },
                              "fill-color-opacity" : 1.0,
                              "fill-color-red" : {
                                "type" : "double",
                                "defaultValue" : 1.0,
                                "keyframes" : [
                                  {
                                    "endTime" : 54,
                                    "time" : 18,
                                    "value" : 0.933333333333333,
                                    "duration" : 36
                                  },
                                  {
                                    "endTime" : 136,
                                    "time" : 78,
                                    "value" : 1.0,
                                    "duration" : 58
                                  }
                                ]
                              },
                              "height" : {
                                "type" : "double",
                                "defaultValue" : 10.8510761260468,
                                "keyframes" : [
                                  {
                                    "endTime" : 54,
                                    "time" : 18,
                                    "value" : 10.8510761260468,
                                    "duration" : 36
                                  },
                                  {
                                    "endTime" : 136,
                                    "time" : 78,
                                    "value" : 10.8510761260468,
                                    "duration" : 58
                                  }
                                ]
                              },
                              "stroke-color-blue" : 1.0,
                              "stroke-color-green" : 1.0,
                              "stroke-color-opacity" : 1.0,
                              "stroke-color-red" : 1.0,
                              "stroke-width" : 0.0,
                              "width" : {
                                "type" : "double",
                                "defaultValue" : 6.88782755517832,
                                "keyframes" : [
                                  {
                                    "endTime" : 54,
                                    "time" : 18,
                                    "value" : 1281.28316541273,
                                    "duration" : 36
                                  },
                                  {
                                    "endTime" : 136,
                                    "time" : 78,
                                    "value" : 1302.87700103543,
                                    "duration" : 58
                                  }
                                ]
                              },
                              "fill-style" : "solid",
                              "horizontal-alignment" : "center",
                              "stroke-style" : "solid",
                              "vertical-alignment" : "center",
                              "textAttributes" : {
                                "type" : "textAttributeList",
                                "keyframes" : [
                                  {
                                    "endTime" : 0,
                                    "time" : 0,
                                    "value" : null,
                                    "duration" : 0
                                  }
                                ]
                              }
                            },
                            "attributes" : {
                              "autoRotateText" : true
                            },
                            "parameters" : {
                              "translation0" : {
                                "type" : "double",
                                "defaultValue" : -1.21547438780567e-10,
                                "keyframes" : [
                                  {
                                    "endTime" : 54,
                                    "time" : 18,
                                    "value" : -0.0541988189824127,
                                    "duration" : 36
                                  },
                                  {
                                    "endTime" : 136,
                                    "time" : 78,
                                    "value" : -1.21547438780567e-10,
                                    "duration" : 58
                                  }
                                ]
                              },
                              "translation1" : {
                                "type" : "double",
                                "defaultValue" : 78.8579651656907,
                                "keyframes" : [
                                  {
                                    "endTime" : 54,
                                    "time" : 18,
                                    "value" : 78.8936575656383,
                                    "duration" : 36
                                  },
                                  {
                                    "endTime" : 136,
                                    "time" : 78,
                                    "value" : 694.705445748916,
                                    "duration" : 58
                                  }
                                ]
                              }
                            },
                            "effects" : [

                            ],
                            "start" : 38,
                            "duration" : 142,
                            "mediaStart" : 18,
                            "mediaDuration" : 142,
                            "scalar" : 1,
                            "metadata" : {
                              "WinSubProjectDisplayName" : "",
                              "clipSpeedAttribute" : false
                            },
                            "animationTracks" : {
                              "visual" : [
                                {
                                  "endTime" : 54,
                                  "duration" : 36,
                                  "range" : [ 18, 36],
                                  "interp" : "eioe"
                                },
                                {
                                  "endTime" : 136,
                                  "duration" : 58,
                                  "range" : [ 78, 58],
                                  "interp" : "eioe"
                                }
                              ]
                            }
                          }
                        ],
                          "ident" : "",
                          "audioMuted" : false,
                          "videoHidden" : false,
                          "magnetic" : false,
                          "metadata" : {
                            "IsLocked" : "False",
                            "WinTrackHeight" : "6.39079466327898e-312"
                          }
                      },
                      {
                        "trackIndex" : 2,
                        "medias" : [
                          {
                            "id" : 182,
                            "_type" : "Callout",
                            "def" : {
                              "kind" : "remix",
                              "shape" : "text",
                              "style" : "abstract",
                              "height" : 180.630981445261,
                              "line-spacing" : 0.0,
                              "width" : 1281.17482864961,
                              "word-wrap" : 1.0,
                              "horizontal-alignment" : "center",
                              "resize-behavior" : "resizeText",
                              "text" : "saying something",
                              "vertical-alignment" : "center",
                              "font" : {
                                "color-blue" : 1.0,
                                "color-green" : 1.0,
                                "color-red" : 1.0,
                                "size" : 96.0,
                                "tracking" : 0.0,
                                "name" : "Lato",
                                "weight" : "Regular"
                              },
                              "textAttributes" : {
                                "type" : "textAttributeList",
                                "keyframes" : [
                                  {
                                    "endTime" : 0,
                                    "time" : 0,
                                    "value" : [{"name":"strikethrough","rangeEnd":16,"rangeStart":0,"value":0,"valueType":"int"},{"name":"underline","rangeEnd":16,"rangeStart":0,"value":0,"valueType":"int"},{"name":"kerning","rangeEnd":16,"rangeStart":0,"value":0,"valueType":"double"},{"name":"fgColor","rangeEnd":16,"rangeStart":0,"value":"(255,255,255,255)","valueType":"color"},{"name":"fontSize","rangeEnd":16,"rangeStart":0,"value":128,"valueType":"double"},{"name":"fontWeight","rangeEnd":16,"rangeStart":0,"value":400,"valueType":"int"},{"name":"fontName","rangeEnd":16,"rangeStart":0,"value":"Montserrat","valueType":"string"},{"name":"fontItalic","rangeEnd":16,"rangeStart":0,"value":0,"valueType":"int"}],
                                    "duration" : 0
                                  }
                                ]
                              }
                            },
                            "attributes" : {
                              "autoRotateText" : true
                            },
                            "parameters" : {
                              "translation0" : {
                                "type" : "double",
                                "defaultValue" : 0.412585675275182,
                                "keyframes" : [
                                  {
                                    "endTime" : 152,
                                    "time" : 94,
                                    "value" : 11.2636728451827,
                                    "duration" : 58
                                  }
                                ]
                              },
                              "translation1" : {
                                "type" : "double",
                                "defaultValue" : -5.81178581660322,
                                "keyframes" : [
                                  {
                                    "endTime" : 152,
                                    "time" : 94,
                                    "value" : 610.000002366703,
                                    "duration" : 58
                                  }
                                ]
                              }
                            },
                            "effects" : [
                                {
                                  "_type" : "GenericBehaviorEffect",
                                  "effectName" : "popUp",
                                  "start" : 34,
                                  "duration" : 142                                ,
                                  "in" : {
                                    "attributes" : {
                                      "name" : "reveal",
                                      "type" : 1,
                                      "characterOrder" : 6,
                                      "offsetBetweenCharacters" : 3,
                                      "suggestedDurationPerCharacter" : 44,
                                      "overlapProportion" : 0,
                                      "movement" : 16,
                                      "springDamping" : 5.0,
                                      "springStiffness" : 50.0,
                                      "bounceBounciness" : 0.45
                                    },
                                    "parameters" : {
                                      "direction" : {
                                        "type" : "int",
                                        "valueBounds" : {
                                          "minValue" : 0,
                                          "maxValue" : 3,
                                          "defaultValue" : 0
                                        },
                                        "uiHints" : {
                                          "userInterfaceType" : 2,
                                          "unitType" : 0
                                        },
                                        "keyframes" : [
                                          {
                                            "endTime" : 0,
                                            "time" : 0,
                                            "value" : 2,
                                            "duration" : 0
                                          }
                                        ]
                                      }
                                    }
                                  
                                  },
                                  "center" : {
                                    "attributes" : {
                                      "name" : "none",
                                      "type" : 1,
                                      "characterOrder" : 6,
                                      "offsetBetweenCharacters" : 0,
                                      "secondsPerLoop" : 1,
                                      "numberOfLoops" : -1,
                                      "delayBetweenLoops" : 0,
                                      "offsetBetweenCharacters" : 0
                                    }
                                  
                                  },
                                  "out" : {
                                    "attributes" : {
                                      "name" : "none",
                                      "type" : 1,
                                      "characterOrder" : 6,
                                      "offsetBetweenCharacters" : 0,
                                      "suggestedDurationPerCharacter" : 0,
                                      "overlapProportion" : 0,
                                      "movement" : -1,
                                      "springDamping" : 5.0,
                                      "springStiffness" : 50.0,
                                      "bounceBounciness" : 0.45
                                    }
                                  
                                  }
                                }
                            ],
                            "start" : 38,
                            "duration" : 142,
                            "mediaStart" : 34,
                            "mediaDuration" : 142,
                            "scalar" : 1,
                            "metadata" : {
                              "WinSubProjectDisplayName" : "",
                              "clipSpeedAttribute" : false,
                              "default-HAlign" : "center",
                              "default-LineSpace" : 0.0,
                              "default-VAlign" : "center",
                              "default-text-attributes" : "[{\"name\":\"fontName\",\"rangeEnd\":15,\"rangeStart\":0,\"value\":\"Montserrat\",\"valueType\":\"string\"},{\"name\":\"fgColor\",\"rangeEnd\":15,\"rangeStart\":0,\"value\":\"(255,255,255,255)\",\"valueType\":\"color\"},{\"name\":\"underline\",\"rangeEnd\":15,\"rangeStart\":0,\"value\":0,\"valueType\":\"int\"},{\"name\":\"strikethrough\",\"rangeEnd\":15,\"rangeStart\":0,\"value\":0,\"valueType\":\"int\"},{\"name\":\"fontSize\",\"rangeEnd\":15,\"rangeStart\":0,\"value\":128,\"valueType\":\"double\"},{\"name\":\"fontItalic\",\"rangeEnd\":15,\"rangeStart\":0,\"value\":0,\"valueType\":\"int\"},{\"name\":\"fontWeight\",\"rangeEnd\":15,\"rangeStart\":0,\"value\":100,\"valueType\":\"int\"}]"
                            },
                            "animationTracks" : {
                              "visual" : [
                                {
                                  "endTime" : 152,
                                  "duration" : 58,
                                  "range" : [ 94, 58],
                                  "interp" : "eioe"
                                }
                              ]
                            }
                          }
                        ],
                          "ident" : "",
                          "audioMuted" : false,
                          "videoHidden" : false,
                          "magnetic" : false,
                          "metadata" : {
                            "IsLocked" : "False",
                            "WinTrackHeight" : "6.39079466327898e-312"
                          }
                      },
                      {
                        "trackIndex" : 3,
                        "medias" : [
                          {
                            "id" : 183,
                            "_type" : "Callout",
                            "def" : {
                              "kind" : "remix",
                              "shape" : "text",
                              "style" : "abstract",
                              "height" : 83.6840731068824,
                              "line-spacing" : 0.0,
                              "width" : 1281.28322521409,
                              "word-wrap" : 1.0,
                              "horizontal-alignment" : "center",
                              "resize-behavior" : "resizeText",
                              "text" : "looks",
                              "vertical-alignment" : "center",
                              "font" : {
                                "color-blue" : 1.0,
                                "color-green" : 1.0,
                                "color-red" : 1.0,
                                "size" : 96.0,
                                "tracking" : 0.0,
                                "name" : "Lato",
                                "weight" : "Regular"
                              },
                              "textAttributes" : {
                                "type" : "textAttributeList",
                                "keyframes" : [
                                  {
                                    "endTime" : 0,
                                    "time" : 0,
                                    "value" : [{"name":"fontWeight","rangeEnd":5,"rangeStart":0,"value":400,"valueType":"int"},{"name":"fontItalic","rangeEnd":5,"rangeStart":0,"value":0,"valueType":"int"},{"name":"fontName","rangeEnd":5,"rangeStart":0,"value":"Montserrat","valueType":"string"},{"name":"fontSize","rangeEnd":5,"rangeStart":0,"value":60,"valueType":"double"},{"name":"kerning","rangeEnd":5,"rangeStart":0,"value":0,"valueType":"double"},{"name":"fgColor","rangeEnd":5,"rangeStart":0,"value":"(0,0,0,255)","valueType":"color"},{"name":"underline","rangeEnd":5,"rangeStart":0,"value":0,"valueType":"int"},{"name":"strikethrough","rangeEnd":5,"rangeStart":0,"value":0,"valueType":"int"}],
                                    "duration" : 0
                                  }
                                ]
                              }
                            },
                            "attributes" : {
                              "autoRotateText" : true
                            },
                            "parameters" : {
                              "translation0" : {
                                "type" : "double",
                                "defaultValue" : 0.304200155246711,
                                "keyframes" : [
                                  {
                                    "endTime" : 110,
                                    "time" : 52,
                                    "value" : -1.86383482943485,
                                    "duration" : 58
                                  }
                                ]
                              },
                              "translation1" : {
                                "type" : "double",
                                "defaultValue" : -96.1538223700724,
                                "keyframes" : [
                                  {
                                    "endTime" : 110,
                                    "time" : 52,
                                    "value" : -658.500002366703,
                                    "duration" : 58
                                  }
                                ]
                              }
                            },
                            "effects" : [
                                {
                                  "_type" : "GenericBehaviorEffect",
                                  "effectName" : "popUp",
                                  "start" : 0,
                                  "duration" : 138                                ,
                                  "in" : {
                                    "attributes" : {
                                      "name" : "reveal",
                                      "type" : 1,
                                      "characterOrder" : 7,
                                      "offsetBetweenCharacters" : 3,
                                      "suggestedDurationPerCharacter" : 44,
                                      "overlapProportion" : 0,
                                      "movement" : 16,
                                      "springDamping" : 5.0,
                                      "springStiffness" : 50.0,
                                      "bounceBounciness" : 0.45
                                    },
                                    "parameters" : {
                                      "direction" : {
                                        "type" : "int",
                                        "valueBounds" : {
                                          "minValue" : 0,
                                          "maxValue" : 3,
                                          "defaultValue" : 0
                                        },
                                        "uiHints" : {
                                          "userInterfaceType" : 2,
                                          "unitType" : 0
                                        },
                                        "keyframes" : [
                                          {
                                            "endTime" : 0,
                                            "time" : 0,
                                            "value" : 0,
                                            "duration" : 0
                                          }
                                        ]
                                      }
                                    }
                                  
                                  },
                                  "center" : {
                                    "attributes" : {
                                      "name" : "none",
                                      "type" : 1,
                                      "characterOrder" : 6,
                                      "offsetBetweenCharacters" : 0,
                                      "secondsPerLoop" : 1,
                                      "numberOfLoops" : -1,
                                      "delayBetweenLoops" : 0,
                                      "offsetBetweenCharacters" : 0
                                    }
                                  
                                  },
                                  "out" : {
                                    "attributes" : {
                                      "name" : "none",
                                      "type" : 1,
                                      "characterOrder" : 6,
                                      "offsetBetweenCharacters" : 0,
                                      "suggestedDurationPerCharacter" : 0,
                                      "overlapProportion" : 0,
                                      "movement" : -1,
                                      "springDamping" : 5.0,
                                      "springStiffness" : 50.0,
                                      "bounceBounciness" : 0.45
                                    }
                                  
                                  }
                                }
                            ],
                            "start" : 42,
                            "duration" : 138,
                            "mediaStart" : 0,
                            "mediaDuration" : 138,
                            "scalar" : 1,
                            "metadata" : {
                              "WinSubProjectDisplayName" : "",
                              "clipSpeedAttribute" : false,
                              "default-HAlign" : "center",
                              "default-LineSpace" : 0.0,
                              "default-VAlign" : "center",
                              "default-text-attributes" : "[{\"name\":\"fontName\",\"rangeEnd\":17,\"rangeStart\":0,\"value\":\"Montserrat\",\"valueType\":\"string\"},{\"name\":\"strikethrough\",\"rangeEnd\":17,\"rangeStart\":0,\"value\":0,\"valueType\":\"int\"},{\"name\":\"fontWeight\",\"rangeEnd\":17,\"rangeStart\":0,\"value\":100,\"valueType\":\"int\"},{\"name\":\"fontSize\",\"rangeEnd\":17,\"rangeStart\":0,\"value\":60,\"valueType\":\"double\"},{\"name\":\"fontItalic\",\"rangeEnd\":17,\"rangeStart\":0,\"value\":0,\"valueType\":\"int\"},{\"name\":\"fgColor\",\"rangeEnd\":17,\"rangeStart\":0,\"value\":\"(0,0,0,255)\",\"valueType\":\"color\"},{\"name\":\"underline\",\"rangeEnd\":17,\"rangeStart\":0,\"value\":0,\"valueType\":\"int\"}]",
                              "default-translation0" : 0.358387392787593
                            },
                            "animationTracks" : {
                              "visual" : [
                                {
                                  "endTime" : 110,
                                  "duration" : 58,
                                  "range" : [ 52, 58],
                                  "interp" : "eioe"
                                }
                              ]
                            }
                          }
                        ],
                          "ident" : "",
                          "audioMuted" : false,
                          "videoHidden" : false,
                          "magnetic" : false,
                          "metadata" : {
                            "IsLocked" : "False",
                            "WinTrackHeight" : "6.39079466327898e-312"
                          }
                      }
                    ],
                    "attributes" : {
                      "ident" : "Simple Bright Title 3",
                      "gain" : 1.0,
                      "mixToMono" : false,
                      "assetProperties" : [
                        {
                          "type" : 0,
                          "name" : "Title",
                          "objects" : [ 182 ],
                          "themeMappings" :  {
                            "font-color" : "foreground-1",
                            "font-family" : "font-1"
                          }
                        },
                        {
                          "type" : 0,
                          "name" : "Subtitle",
                          "objects" : [ 183 ],
                          "themeMappings" :  {
                            "font-color" : "background-1",
                            "font-family" : "font-1"
                          }
                        },
                        {
                          "type" : 1,
                          "name" : "Color 1",
                          "objects" : [ 180, 181 ],
                          "themeMappings" :  {
                            "fill" : "accent-1"
                          }
                        }
                      ]
                    },
                    "effects" : [

                    ],
                    "start" : 10128,
                    "duration" : 210,
                    "mediaStart" : -30.0,
                    "mediaDuration" : 210.0,
                    "scalar" : 1,
                    "metadata" : {
                      "AppliedThemeId" : "",
                      "IsGroupExpanded" : "False",
                      "WinSubProjectDisplayName" : "Simple Bright Title 3",
                      "clipSpeedAttribute" : false,
                      "effectApplied" : "none",
                      "isOpen" : false
                    },
                    "animationTracks" : {

                    }
                  },
                  {
                    "id" : 184,
                    "_type" : "UnifiedMedia",
                    "video" : 
                        {
                          "id" : 185,
                          "_type" : "ScreenVMFile",
                          "src" : 12,
                          "trackNumber" : 0,
                          "attributes" : {
                            "ident" : "scratch-3.1-looks-saying-something"
                          },
                          "parameters" : {
                            "cursorScale" : {
                              "type" : "double",
                              "defaultValue" : 1.0,
                              "interp" : "linr"
                            },
                            "cursorOpacity" : {
                              "type" : "double",
                              "defaultValue" : 1.0,
                              "interp" : "linr"
                            }
                          },
                          "effects" : [

                          ],
                          "start" : 10338,
                          "duration" : 686,
                          "mediaStart" : 0,
                          "mediaDuration" : 686,
                          "scalar" : 1,
                          "animationTracks" : {

                          }
                        },
                    "audio" : 
                        {
                          "id" : 186,
                          "_type" : "AMFile",
                          "src" : 12,
                          "trackNumber" : 1,
                          "attributes" : {
                            "ident" : "",
                            "gain" : 1.0,
                            "mixToMono" : false
                          },
                            "channelNumber" : "0,1",
                          "effects" : [

                          ],
                          "start" : 10338,
                          "duration" : 686,
                          "mediaStart" : 0,
                          "mediaDuration" : 686,
                          "scalar" : 1,
                          "animationTracks" : {

                          }
                        }
,
                    "start" : 10338,
                    "duration" : 686,
                    "mediaStart" : 0,
                    "mediaDuration" : 686,
                    "scalar" : 1,
                    "metadata" : {
                      "AutoAppliedSmartFocus" : "False",
                      "clipSpeedAttribute" : false
                    }
                  },
                  {
                    "id" : 187,
                    "_type" : "Group",
                    "parameters" : {
                      "translation0" : 1.21531229524408e-10,
                      "translation1" : 62.3420348343093,
                      "volume" : 1.0
                    },
                    "tracks" : [
                      {
                        "trackIndex" : 0,
                        "medias" : [
                          {
                            "id" : 188,
                            "_type" : "Callout",
                            "def" : {
                              "kind" : "remix",
                              "shape" : "shape-rectangle",
                              "style" : "urban",
                              "fill-color-blue" : {
                                "type" : "double",
                                "defaultValue" : 1.0,
                                "keyframes" : [
                                  {
                                    "endTime" : 56,
                                    "time" : 18,
                                    "value" : 1.0,
                                    "duration" : 38
                                  },
                                  {
                                    "endTime" : 92,
                                    "time" : 56,
                                    "value" : 0.149019607843137,
                                    "duration" : 36
                                  },
                                  {
                                    "endTime" : 174,
                                    "time" : 116,
                                    "value" : 0.149019607843137,
                                    "duration" : 58
                                  }
                                ]
                              },
                              "fill-color-green" : {
                                "type" : "double",
                                "defaultValue" : 1.0,
                                "keyframes" : [
                                  {
                                    "endTime" : 56,
                                    "time" : 18,
                                    "value" : 1.0,
                                    "duration" : 38
                                  },
                                  {
                                    "endTime" : 92,
                                    "time" : 56,
                                    "value" : 0.96078431372549,
                                    "duration" : 36
                                  },
                                  {
                                    "endTime" : 174,
                                    "time" : 116,
                                    "value" : 0.96078431372549,
                                    "duration" : 58
                                  }
                                ]
                              },
                              "fill-color-opacity" : 1.0,
                              "fill-color-red" : {
                                "type" : "double",
                                "defaultValue" : 1.0,
                                "keyframes" : [
                                  {
                                    "endTime" : 56,
                                    "time" : 18,
                                    "value" : 1.0,
                                    "duration" : 38
                                  },
                                  {
                                    "endTime" : 92,
                                    "time" : 56,
                                    "value" : 0.933333333333333,
                                    "duration" : 36
                                  },
                                  {
                                    "endTime" : 174,
                                    "time" : 116,
                                    "value" : 0.933333333333333,
                                    "duration" : 58
                                  }
                                ]
                              },
                              "height" : {
                                "type" : "double",
                                "defaultValue" : 10.8510761260468,
                                "keyframes" : [
                                  {
                                    "endTime" : 56,
                                    "time" : 18,
                                    "value" : 24.9687231850678,
                                    "duration" : 38
                                  },
                                  {
                                    "endTime" : 92,
                                    "time" : 56,
                                    "value" : 1281.28323719656,
                                    "duration" : 36
                                  },
                                  {
                                    "endTime" : 174,
                                    "time" : 116,
                                    "value" : 1347.6353898526,
                                    "duration" : 58
                                  }
                                ]
                              },
                              "stroke-color-blue" : 1.0,
                              "stroke-color-green" : 1.0,
                              "stroke-color-opacity" : 1.0,
                              "stroke-color-red" : 1.0,
                              "stroke-width" : 0.0,
                              "width" : {
                                "type" : "double",
                                "defaultValue" : 6.88782755517832,
                                "keyframes" : [
                                  {
                                    "endTime" : 56,
                                    "time" : 18,
                                    "value" : 67.9394975592671,
                                    "duration" : 38
                                  },
                                  {
                                    "endTime" : 92,
                                    "time" : 56,
                                    "value" : 67.9394975592671,
                                    "duration" : 36
                                  },
                                  {
                                    "endTime" : 174,
                                    "time" : 116,
                                    "value" : 68.0763125888445,
                                    "duration" : 58
                                  }
                                ]
                              },
                              "fill-style" : "solid",
                              "horizontal-alignment" : "center",
                              "stroke-style" : "solid",
                              "vertical-alignment" : "center",
                              "textAttributes" : {
                                "type" : "textAttributeList",
                                "keyframes" : [
                                  {
                                    "endTime" : 0,
                                    "time" : 0,
                                    "value" : null,
                                    "duration" : 0
                                  }
                                ]
                              }
                            },
                            "attributes" : {
                              "autoRotateText" : true
                            },
                            "parameters" : {
                              "translation0" : {
                                "type" : "double",
                                "defaultValue" : -1.21547438780567e-10,
                                "keyframes" : [
                                  {
                                    "endTime" : 56,
                                    "time" : 18,
                                    "value" : -1.21547438780567e-10,
                                    "duration" : 38
                                  },
                                  {
                                    "endTime" : 92,
                                    "time" : 56,
                                    "value" : 0.0541990816513973,
                                    "duration" : 36
                                  },
                                  {
                                    "endTime" : 174,
                                    "time" : 116,
                                    "value" : -1.67577274979808e-14,
                                    "duration" : 58
                                  }
                                ]
                              },
                              "translation1" : {
                                "type" : "double",
                                "defaultValue" : -96.3117858166865,
                                "keyframes" : [
                                  {
                                    "endTime" : 56,
                                    "time" : 18,
                                    "value" : -96.3117858166865,
                                    "duration" : 38
                                  },
                                  {
                                    "endTime" : 92,
                                    "time" : 56,
                                    "value" : -96.3117858166865,
                                    "duration" : 36
                                  },
                                  {
                                    "endTime" : 174,
                                    "time" : 116,
                                    "value" : -658.65796581331,
                                    "duration" : 58
                                  }
                                ]
                              },
                              "rotation2" : {
                                "type" : "double",
                                "defaultValue" : 0.0,
                                "keyframes" : [
                                  {
                                    "endTime" : 56,
                                    "time" : 18,
                                    "value" : -1.5707963267949,
                                    "duration" : 38
                                  }
                                ]
                              }
                            },
                            "effects" : [

                            ],
                            "start" : -30,
                            "duration" : 210,
                            "mediaStart" : -12,
                            "mediaDuration" : 210,
                            "scalar" : 1,
                            "metadata" : {
                              "WinSubProjectDisplayName" : "",
                              "clipSpeedAttribute" : false
                            },
                            "animationTracks" : {
                              "visual" : [
                                {
                                  "endTime" : 56,
                                  "duration" : 38,
                                  "range" : [ 18, 38],
                                  "interp" : "eioe"
                                },
                                {
                                  "endTime" : 92,
                                  "duration" : 36,
                                  "range" : [ 56, 36],
                                  "interp" : "eioe"
                                },
                                {
                                  "endTime" : 174,
                                  "duration" : 58,
                                  "range" : [ 116, 58]
                                }
                              ]
                            }
                          }
                        ],
                          "ident" : "",
                          "audioMuted" : false,
                          "videoHidden" : false,
                          "magnetic" : false,
                          "metadata" : {
                            "IsLocked" : "False",
                            "WinTrackHeight" : "0"
                          }
                      },
                      {
                        "trackIndex" : 1,
                        "medias" : [
                          {
                            "id" : 189,
                            "_type" : "Callout",
                            "def" : {
                              "kind" : "remix",
                              "shape" : "shape-rectangle",
                              "style" : "urban",
                              "fill-color-blue" : {
                                "type" : "double",
                                "defaultValue" : 1.0,
                                "keyframes" : [
                                  {
                                    "endTime" : 54,
                                    "time" : 18,
                                    "value" : 0.149019607843137,
                                    "duration" : 36
                                  },
                                  {
                                    "endTime" : 136,
                                    "time" : 78,
                                    "value" : 1.0,
                                    "duration" : 58
                                  }
                                ]
                              },
                              "fill-color-green" : {
                                "type" : "double",
                                "defaultValue" : 1.0,
                                "keyframes" : [
                                  {
                                    "endTime" : 54,
                                    "time" : 18,
                                    "value" : 0.96078431372549,
                                    "duration" : 36
                                  },
                                  {
                                    "endTime" : 136,
                                    "time" : 78,
                                    "value" : 1.0,
                                    "duration" : 58
                                  }
                                ]
                              },
                              "fill-color-opacity" : 1.0,
                              "fill-color-red" : {
                                "type" : "double",
                                "defaultValue" : 1.0,
                                "keyframes" : [
                                  {
                                    "endTime" : 54,
                                    "time" : 18,
                                    "value" : 0.933333333333333,
                                    "duration" : 36
                                  },
                                  {
                                    "endTime" : 136,
                                    "time" : 78,
                                    "value" : 1.0,
                                    "duration" : 58
                                  }
                                ]
                              },
                              "height" : {
                                "type" : "double",
                                "defaultValue" : 10.8510761260468,
                                "keyframes" : [
                                  {
                                    "endTime" : 54,
                                    "time" : 18,
                                    "value" : 10.8510761260468,
                                    "duration" : 36
                                  },
                                  {
                                    "endTime" : 136,
                                    "time" : 78,
                                    "value" : 10.8510761260468,
                                    "duration" : 58
                                  }
                                ]
                              },
                              "stroke-color-blue" : 1.0,
                              "stroke-color-green" : 1.0,
                              "stroke-color-opacity" : 1.0,
                              "stroke-color-red" : 1.0,
                              "stroke-width" : 0.0,
                              "width" : {
                                "type" : "double",
                                "defaultValue" : 6.88782755517832,
                                "keyframes" : [
                                  {
                                    "endTime" : 54,
                                    "time" : 18,
                                    "value" : 1281.28316541273,
                                    "duration" : 36
                                  },
                                  {
                                    "endTime" : 136,
                                    "time" : 78,
                                    "value" : 1302.87700103543,
                                    "duration" : 58
                                  }
                                ]
                              },
                              "fill-style" : "solid",
                              "horizontal-alignment" : "center",
                              "stroke-style" : "solid",
                              "vertical-alignment" : "center",
                              "textAttributes" : {
                                "type" : "textAttributeList",
                                "keyframes" : [
                                  {
                                    "endTime" : 0,
                                    "time" : 0,
                                    "value" : null,
                                    "duration" : 0
                                  }
                                ]
                              }
                            },
                            "attributes" : {
                              "autoRotateText" : true
                            },
                            "parameters" : {
                              "translation0" : {
                                "type" : "double",
                                "defaultValue" : -1.21547438780567e-10,
                                "keyframes" : [
                                  {
                                    "endTime" : 54,
                                    "time" : 18,
                                    "value" : -0.0541988189824127,
                                    "duration" : 36
                                  },
                                  {
                                    "endTime" : 136,
                                    "time" : 78,
                                    "value" : -1.21547438780567e-10,
                                    "duration" : 58
                                  }
                                ]
                              },
                              "translation1" : {
                                "type" : "double",
                                "defaultValue" : 78.8579651656907,
                                "keyframes" : [
                                  {
                                    "endTime" : 54,
                                    "time" : 18,
                                    "value" : 78.8936575656383,
                                    "duration" : 36
                                  },
                                  {
                                    "endTime" : 136,
                                    "time" : 78,
                                    "value" : 694.705445748916,
                                    "duration" : 58
                                  }
                                ]
                              }
                            },
                            "effects" : [

                            ],
                            "start" : 38,
                            "duration" : 142,
                            "mediaStart" : 18,
                            "mediaDuration" : 142,
                            "scalar" : 1,
                            "metadata" : {
                              "WinSubProjectDisplayName" : "",
                              "clipSpeedAttribute" : false
                            },
                            "animationTracks" : {
                              "visual" : [
                                {
                                  "endTime" : 54,
                                  "duration" : 36,
                                  "range" : [ 18, 36],
                                  "interp" : "eioe"
                                },
                                {
                                  "endTime" : 136,
                                  "duration" : 58,
                                  "range" : [ 78, 58],
                                  "interp" : "eioe"
                                }
                              ]
                            }
                          }
                        ],
                          "ident" : "",
                          "audioMuted" : false,
                          "videoHidden" : false,
                          "magnetic" : false,
                          "metadata" : {
                            "IsLocked" : "False",
                            "WinTrackHeight" : "6.39079466327898e-312"
                          }
                      },
                      {
                        "trackIndex" : 2,
                        "medias" : [
                          {
                            "id" : 190,
                            "_type" : "Callout",
                            "def" : {
                              "kind" : "remix",
                              "shape" : "text",
                              "style" : "abstract",
                              "height" : 180.630981445261,
                              "line-spacing" : 0.0,
                              "width" : 1281.17482864961,
                              "word-wrap" : 1.0,
                              "horizontal-alignment" : "center",
                              "resize-behavior" : "resizeText",
                              "text" : "thinking something",
                              "vertical-alignment" : "center",
                              "font" : {
                                "color-blue" : 1.0,
                                "color-green" : 1.0,
                                "color-red" : 1.0,
                                "size" : 96.0,
                                "tracking" : 0.0,
                                "name" : "Lato",
                                "weight" : "Regular"
                              },
                              "textAttributes" : {
                                "type" : "textAttributeList",
                                "keyframes" : [
                                  {
                                    "endTime" : 0,
                                    "time" : 0,
                                    "value" : [{"name":"underline","rangeEnd":18,"rangeStart":0,"value":0,"valueType":"int"},{"name":"fontName","rangeEnd":18,"rangeStart":0,"value":"Montserrat","valueType":"string"},{"name":"fgColor","rangeEnd":18,"rangeStart":0,"value":"(255,255,255,255)","valueType":"color"},{"name":"fontSize","rangeEnd":18,"rangeStart":0,"value":128,"valueType":"double"},{"name":"kerning","rangeEnd":18,"rangeStart":0,"value":0,"valueType":"double"},{"name":"fontWeight","rangeEnd":18,"rangeStart":0,"value":400,"valueType":"int"},{"name":"fontItalic","rangeEnd":18,"rangeStart":0,"value":0,"valueType":"int"},{"name":"strikethrough","rangeEnd":18,"rangeStart":0,"value":0,"valueType":"int"}],
                                    "duration" : 0
                                  }
                                ]
                              }
                            },
                            "attributes" : {
                              "autoRotateText" : true
                            },
                            "parameters" : {
                              "translation0" : {
                                "type" : "double",
                                "defaultValue" : 0.412585675275182,
                                "keyframes" : [
                                  {
                                    "endTime" : 152,
                                    "time" : 94,
                                    "value" : 11.2636728451827,
                                    "duration" : 58
                                  }
                                ]
                              },
                              "translation1" : {
                                "type" : "double",
                                "defaultValue" : -5.81178581660322,
                                "keyframes" : [
                                  {
                                    "endTime" : 152,
                                    "time" : 94,
                                    "value" : 610.000002366703,
                                    "duration" : 58
                                  }
                                ]
                              }
                            },
                            "effects" : [
                                {
                                  "_type" : "GenericBehaviorEffect",
                                  "effectName" : "popUp",
                                  "start" : 34,
                                  "duration" : 142                                ,
                                  "in" : {
                                    "attributes" : {
                                      "name" : "reveal",
                                      "type" : 1,
                                      "characterOrder" : 6,
                                      "offsetBetweenCharacters" : 3,
                                      "suggestedDurationPerCharacter" : 44,
                                      "overlapProportion" : 0,
                                      "movement" : 16,
                                      "springDamping" : 5.0,
                                      "springStiffness" : 50.0,
                                      "bounceBounciness" : 0.45
                                    },
                                    "parameters" : {
                                      "direction" : {
                                        "type" : "int",
                                        "valueBounds" : {
                                          "minValue" : 0,
                                          "maxValue" : 3,
                                          "defaultValue" : 0
                                        },
                                        "uiHints" : {
                                          "userInterfaceType" : 2,
                                          "unitType" : 0
                                        },
                                        "keyframes" : [
                                          {
                                            "endTime" : 0,
                                            "time" : 0,
                                            "value" : 2,
                                            "duration" : 0
                                          }
                                        ]
                                      }
                                    }
                                  
                                  },
                                  "center" : {
                                    "attributes" : {
                                      "name" : "none",
                                      "type" : 1,
                                      "characterOrder" : 6,
                                      "offsetBetweenCharacters" : 0,
                                      "secondsPerLoop" : 1,
                                      "numberOfLoops" : -1,
                                      "delayBetweenLoops" : 0,
                                      "offsetBetweenCharacters" : 0
                                    }
                                  
                                  },
                                  "out" : {
                                    "attributes" : {
                                      "name" : "none",
                                      "type" : 1,
                                      "characterOrder" : 6,
                                      "offsetBetweenCharacters" : 0,
                                      "suggestedDurationPerCharacter" : 0,
                                      "overlapProportion" : 0,
                                      "movement" : -1,
                                      "springDamping" : 5.0,
                                      "springStiffness" : 50.0,
                                      "bounceBounciness" : 0.45
                                    }
                                  
                                  }
                                }
                            ],
                            "start" : 38,
                            "duration" : 142,
                            "mediaStart" : 34,
                            "mediaDuration" : 142,
                            "scalar" : 1,
                            "metadata" : {
                              "WinSubProjectDisplayName" : "",
                              "clipSpeedAttribute" : false,
                              "default-HAlign" : "center",
                              "default-LineSpace" : 0.0,
                              "default-VAlign" : "center",
                              "default-text-attributes" : "[{\"name\":\"fontName\",\"rangeEnd\":15,\"rangeStart\":0,\"value\":\"Montserrat\",\"valueType\":\"string\"},{\"name\":\"fgColor\",\"rangeEnd\":15,\"rangeStart\":0,\"value\":\"(255,255,255,255)\",\"valueType\":\"color\"},{\"name\":\"underline\",\"rangeEnd\":15,\"rangeStart\":0,\"value\":0,\"valueType\":\"int\"},{\"name\":\"strikethrough\",\"rangeEnd\":15,\"rangeStart\":0,\"value\":0,\"valueType\":\"int\"},{\"name\":\"fontSize\",\"rangeEnd\":15,\"rangeStart\":0,\"value\":128,\"valueType\":\"double\"},{\"name\":\"fontItalic\",\"rangeEnd\":15,\"rangeStart\":0,\"value\":0,\"valueType\":\"int\"},{\"name\":\"fontWeight\",\"rangeEnd\":15,\"rangeStart\":0,\"value\":100,\"valueType\":\"int\"}]"
                            },
                            "animationTracks" : {
                              "visual" : [
                                {
                                  "endTime" : 152,
                                  "duration" : 58,
                                  "range" : [ 94, 58],
                                  "interp" : "eioe"
                                }
                              ]
                            }
                          }
                        ],
                          "ident" : "",
                          "audioMuted" : false,
                          "videoHidden" : false,
                          "magnetic" : false,
                          "metadata" : {
                            "IsLocked" : "False",
                            "WinTrackHeight" : "6.39079466327898e-312"
                          }
                      },
                      {
                        "trackIndex" : 3,
                        "medias" : [
                          {
                            "id" : 191,
                            "_type" : "Callout",
                            "def" : {
                              "kind" : "remix",
                              "shape" : "text",
                              "style" : "abstract",
                              "height" : 83.6840731068824,
                              "line-spacing" : 0.0,
                              "width" : 1281.28322521409,
                              "word-wrap" : 1.0,
                              "horizontal-alignment" : "center",
                              "resize-behavior" : "resizeText",
                              "text" : "looks",
                              "vertical-alignment" : "center",
                              "font" : {
                                "color-blue" : 1.0,
                                "color-green" : 1.0,
                                "color-red" : 1.0,
                                "size" : 96.0,
                                "tracking" : 0.0,
                                "name" : "Lato",
                                "weight" : "Regular"
                              },
                              "textAttributes" : {
                                "type" : "textAttributeList",
                                "keyframes" : [
                                  {
                                    "endTime" : 0,
                                    "time" : 0,
                                    "value" : [{"name":"fontWeight","rangeEnd":5,"rangeStart":0,"value":400,"valueType":"int"},{"name":"fontItalic","rangeEnd":5,"rangeStart":0,"value":0,"valueType":"int"},{"name":"fontName","rangeEnd":5,"rangeStart":0,"value":"Montserrat","valueType":"string"},{"name":"fontSize","rangeEnd":5,"rangeStart":0,"value":60,"valueType":"double"},{"name":"kerning","rangeEnd":5,"rangeStart":0,"value":0,"valueType":"double"},{"name":"fgColor","rangeEnd":5,"rangeStart":0,"value":"(0,0,0,255)","valueType":"color"},{"name":"underline","rangeEnd":5,"rangeStart":0,"value":0,"valueType":"int"},{"name":"strikethrough","rangeEnd":5,"rangeStart":0,"value":0,"valueType":"int"}],
                                    "duration" : 0
                                  }
                                ]
                              }
                            },
                            "attributes" : {
                              "autoRotateText" : true
                            },
                            "parameters" : {
                              "translation0" : {
                                "type" : "double",
                                "defaultValue" : 0.304200155246711,
                                "keyframes" : [
                                  {
                                    "endTime" : 110,
                                    "time" : 52,
                                    "value" : -1.86383482943485,
                                    "duration" : 58
                                  }
                                ]
                              },
                              "translation1" : {
                                "type" : "double",
                                "defaultValue" : -96.1538223700724,
                                "keyframes" : [
                                  {
                                    "endTime" : 110,
                                    "time" : 52,
                                    "value" : -658.500002366703,
                                    "duration" : 58
                                  }
                                ]
                              }
                            },
                            "effects" : [
                                {
                                  "_type" : "GenericBehaviorEffect",
                                  "effectName" : "popUp",
                                  "start" : 0,
                                  "duration" : 138                                ,
                                  "in" : {
                                    "attributes" : {
                                      "name" : "reveal",
                                      "type" : 1,
                                      "characterOrder" : 7,
                                      "offsetBetweenCharacters" : 3,
                                      "suggestedDurationPerCharacter" : 44,
                                      "overlapProportion" : 0,
                                      "movement" : 16,
                                      "springDamping" : 5.0,
                                      "springStiffness" : 50.0,
                                      "bounceBounciness" : 0.45
                                    },
                                    "parameters" : {
                                      "direction" : {
                                        "type" : "int",
                                        "valueBounds" : {
                                          "minValue" : 0,
                                          "maxValue" : 3,
                                          "defaultValue" : 0
                                        },
                                        "uiHints" : {
                                          "userInterfaceType" : 2,
                                          "unitType" : 0
                                        },
                                        "keyframes" : [
                                          {
                                            "endTime" : 0,
                                            "time" : 0,
                                            "value" : 0,
                                            "duration" : 0
                                          }
                                        ]
                                      }
                                    }
                                  
                                  },
                                  "center" : {
                                    "attributes" : {
                                      "name" : "none",
                                      "type" : 1,
                                      "characterOrder" : 6,
                                      "offsetBetweenCharacters" : 0,
                                      "secondsPerLoop" : 1,
                                      "numberOfLoops" : -1,
                                      "delayBetweenLoops" : 0,
                                      "offsetBetweenCharacters" : 0
                                    }
                                  
                                  },
                                  "out" : {
                                    "attributes" : {
                                      "name" : "none",
                                      "type" : 1,
                                      "characterOrder" : 6,
                                      "offsetBetweenCharacters" : 0,
                                      "suggestedDurationPerCharacter" : 0,
                                      "overlapProportion" : 0,
                                      "movement" : -1,
                                      "springDamping" : 5.0,
                                      "springStiffness" : 50.0,
                                      "bounceBounciness" : 0.45
                                    }
                                  
                                  }
                                }
                            ],
                            "start" : 42,
                            "duration" : 138,
                            "mediaStart" : 0,
                            "mediaDuration" : 138,
                            "scalar" : 1,
                            "metadata" : {
                              "WinSubProjectDisplayName" : "",
                              "clipSpeedAttribute" : false,
                              "default-HAlign" : "center",
                              "default-LineSpace" : 0.0,
                              "default-VAlign" : "center",
                              "default-text-attributes" : "[{\"name\":\"fontName\",\"rangeEnd\":17,\"rangeStart\":0,\"value\":\"Montserrat\",\"valueType\":\"string\"},{\"name\":\"strikethrough\",\"rangeEnd\":17,\"rangeStart\":0,\"value\":0,\"valueType\":\"int\"},{\"name\":\"fontWeight\",\"rangeEnd\":17,\"rangeStart\":0,\"value\":100,\"valueType\":\"int\"},{\"name\":\"fontSize\",\"rangeEnd\":17,\"rangeStart\":0,\"value\":60,\"valueType\":\"double\"},{\"name\":\"fontItalic\",\"rangeEnd\":17,\"rangeStart\":0,\"value\":0,\"valueType\":\"int\"},{\"name\":\"fgColor\",\"rangeEnd\":17,\"rangeStart\":0,\"value\":\"(0,0,0,255)\",\"valueType\":\"color\"},{\"name\":\"underline\",\"rangeEnd\":17,\"rangeStart\":0,\"value\":0,\"valueType\":\"int\"}]",
                              "default-translation0" : 0.358387392787593
                            },
                            "animationTracks" : {
                              "visual" : [
                                {
                                  "endTime" : 110,
                                  "duration" : 58,
                                  "range" : [ 52, 58],
                                  "interp" : "eioe"
                                }
                              ]
                            }
                          }
                        ],
                          "ident" : "",
                          "audioMuted" : false,
                          "videoHidden" : false,
                          "magnetic" : false,
                          "metadata" : {
                            "IsLocked" : "False",
                            "WinTrackHeight" : "6.39079466327898e-312"
                          }
                      }
                    ],
                    "attributes" : {
                      "ident" : "Simple Bright Title 3",
                      "gain" : 1.0,
                      "mixToMono" : false,
                      "assetProperties" : [
                        {
                          "type" : 0,
                          "name" : "Title",
                          "objects" : [ 190 ],
                          "themeMappings" :  {
                            "font-color" : "foreground-1",
                            "font-family" : "font-1"
                          }
                        },
                        {
                          "type" : 0,
                          "name" : "Subtitle",
                          "objects" : [ 191 ],
                          "themeMappings" :  {
                            "font-color" : "background-1",
                            "font-family" : "font-1"
                          }
                        },
                        {
                          "type" : 1,
                          "name" : "Color 1",
                          "objects" : [ 188, 189 ],
                          "themeMappings" :  {
                            "fill" : "accent-1"
                          }
                        }
                      ]
                    },
                    "effects" : [

                    ],
                    "start" : 11024,
                    "duration" : 210,
                    "mediaStart" : -30.0,
                    "mediaDuration" : 210.0,
                    "scalar" : 1,
                    "metadata" : {
                      "AppliedThemeId" : "",
                      "IsGroupExpanded" : "False",
                      "WinSubProjectDisplayName" : "Simple Bright Title 3",
                      "clipSpeedAttribute" : false,
                      "effectApplied" : "none",
                      "isOpen" : false
                    },
                    "animationTracks" : {

                    }
                  },
                  {
                    "id" : 192,
                    "_type" : "UnifiedMedia",
                    "video" : 
                        {
                          "id" : 193,
                          "_type" : "ScreenVMFile",
                          "src" : 13,
                          "trackNumber" : 0,
                          "attributes" : {
                            "ident" : "scratch-3.2-looks-thinking-something"
                          },
                          "parameters" : {
                            "cursorScale" : {
                              "type" : "double",
                              "defaultValue" : 1.0,
                              "interp" : "linr"
                            },
                            "cursorOpacity" : {
                              "type" : "double",
                              "defaultValue" : 1.0,
                              "interp" : "linr"
                            }
                          },
                          "effects" : [

                          ],
                          "start" : 11234,
                          "duration" : 718,
                          "mediaStart" : 0,
                          "mediaDuration" : 718,
                          "scalar" : 1,
                          "animationTracks" : {

                          }
                        },
                    "audio" : 
                        {
                          "id" : 194,
                          "_type" : "AMFile",
                          "src" : 13,
                          "trackNumber" : 1,
                          "attributes" : {
                            "ident" : "",
                            "gain" : 1.0,
                            "mixToMono" : false
                          },
                            "channelNumber" : "0,1",
                          "effects" : [

                          ],
                          "start" : 11234,
                          "duration" : 718,
                          "mediaStart" : 0,
                          "mediaDuration" : 718,
                          "scalar" : 1,
                          "animationTracks" : {

                          }
                        }
,
                    "start" : 11234,
                    "duration" : 718,
                    "mediaStart" : 0,
                    "mediaDuration" : 718,
                    "scalar" : 1,
                    "metadata" : {
                      "AutoAppliedSmartFocus" : "False",
                      "clipSpeedAttribute" : false
                    }
                  },
                  {
                    "id" : 195,
                    "_type" : "Group",
                    "parameters" : {
                      "translation0" : 1.21531229524408e-10,
                      "translation1" : 60.6753681676271,
                      "volume" : 1.0
                    },
                    "tracks" : [
                      {
                        "trackIndex" : 0,
                        "medias" : [
                          {
                            "id" : 196,
                            "_type" : "Callout",
                            "def" : {
                              "kind" : "remix",
                              "shape" : "shape-rectangle",
                              "style" : "urban",
                              "fill-color-blue" : {
                                "type" : "double",
                                "defaultValue" : 1.0,
                                "keyframes" : [
                                  {
                                    "endTime" : 56,
                                    "time" : 18,
                                    "value" : 1.0,
                                    "duration" : 38
                                  },
                                  {
                                    "endTime" : 92,
                                    "time" : 56,
                                    "value" : 0.149019607843137,
                                    "duration" : 36
                                  },
                                  {
                                    "endTime" : 174,
                                    "time" : 116,
                                    "value" : 0.149019607843137,
                                    "duration" : 58
                                  }
                                ]
                              },
                              "fill-color-green" : {
                                "type" : "double",
                                "defaultValue" : 1.0,
                                "keyframes" : [
                                  {
                                    "endTime" : 56,
                                    "time" : 18,
                                    "value" : 1.0,
                                    "duration" : 38
                                  },
                                  {
                                    "endTime" : 92,
                                    "time" : 56,
                                    "value" : 0.96078431372549,
                                    "duration" : 36
                                  },
                                  {
                                    "endTime" : 174,
                                    "time" : 116,
                                    "value" : 0.96078431372549,
                                    "duration" : 58
                                  }
                                ]
                              },
                              "fill-color-opacity" : 1.0,
                              "fill-color-red" : {
                                "type" : "double",
                                "defaultValue" : 1.0,
                                "keyframes" : [
                                  {
                                    "endTime" : 56,
                                    "time" : 18,
                                    "value" : 1.0,
                                    "duration" : 38
                                  },
                                  {
                                    "endTime" : 92,
                                    "time" : 56,
                                    "value" : 0.933333333333333,
                                    "duration" : 36
                                  },
                                  {
                                    "endTime" : 174,
                                    "time" : 116,
                                    "value" : 0.933333333333333,
                                    "duration" : 58
                                  }
                                ]
                              },
                              "height" : {
                                "type" : "double",
                                "defaultValue" : 10.8510761260468,
                                "keyframes" : [
                                  {
                                    "endTime" : 56,
                                    "time" : 18,
                                    "value" : 24.9687231850678,
                                    "duration" : 38
                                  },
                                  {
                                    "endTime" : 92,
                                    "time" : 56,
                                    "value" : 1281.28323719656,
                                    "duration" : 36
                                  },
                                  {
                                    "endTime" : 174,
                                    "time" : 116,
                                    "value" : 1347.6353898526,
                                    "duration" : 58
                                  }
                                ]
                              },
                              "stroke-color-blue" : 1.0,
                              "stroke-color-green" : 1.0,
                              "stroke-color-opacity" : 1.0,
                              "stroke-color-red" : 1.0,
                              "stroke-width" : 0.0,
                              "width" : {
                                "type" : "double",
                                "defaultValue" : 6.88782755517832,
                                "keyframes" : [
                                  {
                                    "endTime" : 56,
                                    "time" : 18,
                                    "value" : 67.9394975592671,
                                    "duration" : 38
                                  },
                                  {
                                    "endTime" : 92,
                                    "time" : 56,
                                    "value" : 67.9394975592671,
                                    "duration" : 36
                                  },
                                  {
                                    "endTime" : 174,
                                    "time" : 116,
                                    "value" : 68.0763125888445,
                                    "duration" : 58
                                  }
                                ]
                              },
                              "fill-style" : "solid",
                              "horizontal-alignment" : "center",
                              "stroke-style" : "solid",
                              "vertical-alignment" : "center",
                              "textAttributes" : {
                                "type" : "textAttributeList",
                                "keyframes" : [
                                  {
                                    "endTime" : 0,
                                    "time" : 0,
                                    "value" : null,
                                    "duration" : 0
                                  }
                                ]
                              }
                            },
                            "attributes" : {
                              "autoRotateText" : true
                            },
                            "parameters" : {
                              "translation0" : {
                                "type" : "double",
                                "defaultValue" : -1.21547438780567e-10,
                                "keyframes" : [
                                  {
                                    "endTime" : 56,
                                    "time" : 18,
                                    "value" : -1.21547438780567e-10,
                                    "duration" : 38
                                  },
                                  {
                                    "endTime" : 92,
                                    "time" : 56,
                                    "value" : 0.0541990816513973,
                                    "duration" : 36
                                  },
                                  {
                                    "endTime" : 174,
                                    "time" : 116,
                                    "value" : -1.67577274979808e-14,
                                    "duration" : 58
                                  }
                                ]
                              },
                              "translation1" : {
                                "type" : "double",
                                "defaultValue" : -96.3117858166865,
                                "keyframes" : [
                                  {
                                    "endTime" : 56,
                                    "time" : 18,
                                    "value" : -96.3117858166865,
                                    "duration" : 38
                                  },
                                  {
                                    "endTime" : 92,
                                    "time" : 56,
                                    "value" : -96.3117858166865,
                                    "duration" : 36
                                  },
                                  {
                                    "endTime" : 174,
                                    "time" : 116,
                                    "value" : -658.65796581331,
                                    "duration" : 58
                                  }
                                ]
                              },
                              "rotation2" : {
                                "type" : "double",
                                "defaultValue" : 0.0,
                                "keyframes" : [
                                  {
                                    "endTime" : 56,
                                    "time" : 18,
                                    "value" : -1.5707963267949,
                                    "duration" : 38
                                  }
                                ]
                              }
                            },
                            "effects" : [

                            ],
                            "start" : -30,
                            "duration" : 210,
                            "mediaStart" : -12,
                            "mediaDuration" : 210,
                            "scalar" : 1,
                            "metadata" : {
                              "WinSubProjectDisplayName" : "",
                              "clipSpeedAttribute" : false
                            },
                            "animationTracks" : {
                              "visual" : [
                                {
                                  "endTime" : 56,
                                  "duration" : 38,
                                  "range" : [ 18, 38],
                                  "interp" : "eioe"
                                },
                                {
                                  "endTime" : 92,
                                  "duration" : 36,
                                  "range" : [ 56, 36],
                                  "interp" : "eioe"
                                },
                                {
                                  "endTime" : 174,
                                  "duration" : 58,
                                  "range" : [ 116, 58]
                                }
                              ]
                            }
                          }
                        ],
                          "ident" : "",
                          "audioMuted" : false,
                          "videoHidden" : false,
                          "magnetic" : false,
                          "metadata" : {
                            "IsLocked" : "False",
                            "WinTrackHeight" : "0"
                          }
                      },
                      {
                        "trackIndex" : 1,
                        "medias" : [
                          {
                            "id" : 197,
                            "_type" : "Callout",
                            "def" : {
                              "kind" : "remix",
                              "shape" : "shape-rectangle",
                              "style" : "urban",
                              "fill-color-blue" : {
                                "type" : "double",
                                "defaultValue" : 1.0,
                                "keyframes" : [
                                  {
                                    "endTime" : 54,
                                    "time" : 18,
                                    "value" : 0.149019607843137,
                                    "duration" : 36
                                  },
                                  {
                                    "endTime" : 136,
                                    "time" : 78,
                                    "value" : 1.0,
                                    "duration" : 58
                                  }
                                ]
                              },
                              "fill-color-green" : {
                                "type" : "double",
                                "defaultValue" : 1.0,
                                "keyframes" : [
                                  {
                                    "endTime" : 54,
                                    "time" : 18,
                                    "value" : 0.96078431372549,
                                    "duration" : 36
                                  },
                                  {
                                    "endTime" : 136,
                                    "time" : 78,
                                    "value" : 1.0,
                                    "duration" : 58
                                  }
                                ]
                              },
                              "fill-color-opacity" : 1.0,
                              "fill-color-red" : {
                                "type" : "double",
                                "defaultValue" : 1.0,
                                "keyframes" : [
                                  {
                                    "endTime" : 54,
                                    "time" : 18,
                                    "value" : 0.933333333333333,
                                    "duration" : 36
                                  },
                                  {
                                    "endTime" : 136,
                                    "time" : 78,
                                    "value" : 1.0,
                                    "duration" : 58
                                  }
                                ]
                              },
                              "height" : {
                                "type" : "double",
                                "defaultValue" : 10.8510761260468,
                                "keyframes" : [
                                  {
                                    "endTime" : 54,
                                    "time" : 18,
                                    "value" : 10.8510761260468,
                                    "duration" : 36
                                  },
                                  {
                                    "endTime" : 136,
                                    "time" : 78,
                                    "value" : 10.8510761260468,
                                    "duration" : 58
                                  }
                                ]
                              },
                              "stroke-color-blue" : 1.0,
                              "stroke-color-green" : 1.0,
                              "stroke-color-opacity" : 1.0,
                              "stroke-color-red" : 1.0,
                              "stroke-width" : 0.0,
                              "width" : {
                                "type" : "double",
                                "defaultValue" : 6.88782755517832,
                                "keyframes" : [
                                  {
                                    "endTime" : 54,
                                    "time" : 18,
                                    "value" : 1281.28316541273,
                                    "duration" : 36
                                  },
                                  {
                                    "endTime" : 136,
                                    "time" : 78,
                                    "value" : 1302.87700103543,
                                    "duration" : 58
                                  }
                                ]
                              },
                              "fill-style" : "solid",
                              "horizontal-alignment" : "center",
                              "stroke-style" : "solid",
                              "vertical-alignment" : "center",
                              "textAttributes" : {
                                "type" : "textAttributeList",
                                "keyframes" : [
                                  {
                                    "endTime" : 0,
                                    "time" : 0,
                                    "value" : null,
                                    "duration" : 0
                                  }
                                ]
                              }
                            },
                            "attributes" : {
                              "autoRotateText" : true
                            },
                            "parameters" : {
                              "translation0" : {
                                "type" : "double",
                                "defaultValue" : -1.21547438780567e-10,
                                "keyframes" : [
                                  {
                                    "endTime" : 54,
                                    "time" : 18,
                                    "value" : -0.0541988189824127,
                                    "duration" : 36
                                  },
                                  {
                                    "endTime" : 136,
                                    "time" : 78,
                                    "value" : -1.21547438780567e-10,
                                    "duration" : 58
                                  }
                                ]
                              },
                              "translation1" : {
                                "type" : "double",
                                "defaultValue" : 78.8579651656907,
                                "keyframes" : [
                                  {
                                    "endTime" : 54,
                                    "time" : 18,
                                    "value" : 78.8936575656383,
                                    "duration" : 36
                                  },
                                  {
                                    "endTime" : 136,
                                    "time" : 78,
                                    "value" : 694.705445748916,
                                    "duration" : 58
                                  }
                                ]
                              }
                            },
                            "effects" : [

                            ],
                            "start" : 38,
                            "duration" : 142,
                            "mediaStart" : 18,
                            "mediaDuration" : 142,
                            "scalar" : 1,
                            "metadata" : {
                              "WinSubProjectDisplayName" : "",
                              "clipSpeedAttribute" : false
                            },
                            "animationTracks" : {
                              "visual" : [
                                {
                                  "endTime" : 54,
                                  "duration" : 36,
                                  "range" : [ 18, 36],
                                  "interp" : "eioe"
                                },
                                {
                                  "endTime" : 136,
                                  "duration" : 58,
                                  "range" : [ 78, 58],
                                  "interp" : "eioe"
                                }
                              ]
                            }
                          }
                        ],
                          "ident" : "",
                          "audioMuted" : false,
                          "videoHidden" : false,
                          "magnetic" : false,
                          "metadata" : {
                            "IsLocked" : "False",
                            "WinTrackHeight" : "6.39079466327898e-312"
                          }
                      },
                      {
                        "trackIndex" : 2,
                        "medias" : [
                          {
                            "id" : 198,
                            "_type" : "Callout",
                            "def" : {
                              "kind" : "remix",
                              "shape" : "text",
                              "style" : "abstract",
                              "height" : 180.630981445261,
                              "line-spacing" : 0.0,
                              "width" : 1281.17482864961,
                              "word-wrap" : 1.0,
                              "horizontal-alignment" : "center",
                              "resize-behavior" : "resizeText",
                              "text" : "changing costume",
                              "vertical-alignment" : "center",
                              "font" : {
                                "color-blue" : 1.0,
                                "color-green" : 1.0,
                                "color-red" : 1.0,
                                "size" : 96.0,
                                "tracking" : 0.0,
                                "name" : "Lato",
                                "weight" : "Regular"
                              },
                              "textAttributes" : {
                                "type" : "textAttributeList",
                                "keyframes" : [
                                  {
                                    "endTime" : 0,
                                    "time" : 0,
                                    "value" : [{"name":"fontItalic","rangeEnd":16,"rangeStart":0,"value":0,"valueType":"int"},{"name":"fontWeight","rangeEnd":16,"rangeStart":0,"value":400,"valueType":"int"},{"name":"fontSize","rangeEnd":16,"rangeStart":0,"value":128,"valueType":"double"},{"name":"strikethrough","rangeEnd":16,"rangeStart":0,"value":0,"valueType":"int"},{"name":"fontName","rangeEnd":16,"rangeStart":0,"value":"Montserrat","valueType":"string"},{"name":"underline","rangeEnd":16,"rangeStart":0,"value":0,"valueType":"int"},{"name":"kerning","rangeEnd":16,"rangeStart":0,"value":0,"valueType":"double"},{"name":"fgColor","rangeEnd":16,"rangeStart":0,"value":"(255,255,255,255)","valueType":"color"}],
                                    "duration" : 0
                                  }
                                ]
                              }
                            },
                            "attributes" : {
                              "autoRotateText" : true
                            },
                            "parameters" : {
                              "translation0" : {
                                "type" : "double",
                                "defaultValue" : 0.412585675275182,
                                "keyframes" : [
                                  {
                                    "endTime" : 152,
                                    "time" : 94,
                                    "value" : 11.2636728451827,
                                    "duration" : 58
                                  }
                                ]
                              },
                              "translation1" : {
                                "type" : "double",
                                "defaultValue" : -5.81178581660322,
                                "keyframes" : [
                                  {
                                    "endTime" : 152,
                                    "time" : 94,
                                    "value" : 610.000002366703,
                                    "duration" : 58
                                  }
                                ]
                              }
                            },
                            "effects" : [
                                {
                                  "_type" : "GenericBehaviorEffect",
                                  "effectName" : "popUp",
                                  "start" : 34,
                                  "duration" : 142                                ,
                                  "in" : {
                                    "attributes" : {
                                      "name" : "reveal",
                                      "type" : 1,
                                      "characterOrder" : 6,
                                      "offsetBetweenCharacters" : 3,
                                      "suggestedDurationPerCharacter" : 44,
                                      "overlapProportion" : 0,
                                      "movement" : 16,
                                      "springDamping" : 5.0,
                                      "springStiffness" : 50.0,
                                      "bounceBounciness" : 0.45
                                    },
                                    "parameters" : {
                                      "direction" : {
                                        "type" : "int",
                                        "valueBounds" : {
                                          "minValue" : 0,
                                          "maxValue" : 3,
                                          "defaultValue" : 0
                                        },
                                        "uiHints" : {
                                          "userInterfaceType" : 2,
                                          "unitType" : 0
                                        },
                                        "keyframes" : [
                                          {
                                            "endTime" : 0,
                                            "time" : 0,
                                            "value" : 2,
                                            "duration" : 0
                                          }
                                        ]
                                      }
                                    }
                                  
                                  },
                                  "center" : {
                                    "attributes" : {
                                      "name" : "none",
                                      "type" : 1,
                                      "characterOrder" : 6,
                                      "offsetBetweenCharacters" : 0,
                                      "secondsPerLoop" : 1,
                                      "numberOfLoops" : -1,
                                      "delayBetweenLoops" : 0,
                                      "offsetBetweenCharacters" : 0
                                    }
                                  
                                  },
                                  "out" : {
                                    "attributes" : {
                                      "name" : "none",
                                      "type" : 1,
                                      "characterOrder" : 6,
                                      "offsetBetweenCharacters" : 0,
                                      "suggestedDurationPerCharacter" : 0,
                                      "overlapProportion" : 0,
                                      "movement" : -1,
                                      "springDamping" : 5.0,
                                      "springStiffness" : 50.0,
                                      "bounceBounciness" : 0.45
                                    }
                                  
                                  }
                                }
                            ],
                            "start" : 38,
                            "duration" : 142,
                            "mediaStart" : 34,
                            "mediaDuration" : 142,
                            "scalar" : 1,
                            "metadata" : {
                              "WinSubProjectDisplayName" : "",
                              "clipSpeedAttribute" : false,
                              "default-HAlign" : "center",
                              "default-LineSpace" : 0.0,
                              "default-VAlign" : "center",
                              "default-text-attributes" : "[{\"name\":\"fontName\",\"rangeEnd\":15,\"rangeStart\":0,\"value\":\"Montserrat\",\"valueType\":\"string\"},{\"name\":\"fgColor\",\"rangeEnd\":15,\"rangeStart\":0,\"value\":\"(255,255,255,255)\",\"valueType\":\"color\"},{\"name\":\"underline\",\"rangeEnd\":15,\"rangeStart\":0,\"value\":0,\"valueType\":\"int\"},{\"name\":\"strikethrough\",\"rangeEnd\":15,\"rangeStart\":0,\"value\":0,\"valueType\":\"int\"},{\"name\":\"fontSize\",\"rangeEnd\":15,\"rangeStart\":0,\"value\":128,\"valueType\":\"double\"},{\"name\":\"fontItalic\",\"rangeEnd\":15,\"rangeStart\":0,\"value\":0,\"valueType\":\"int\"},{\"name\":\"fontWeight\",\"rangeEnd\":15,\"rangeStart\":0,\"value\":100,\"valueType\":\"int\"}]"
                            },
                            "animationTracks" : {
                              "visual" : [
                                {
                                  "endTime" : 152,
                                  "duration" : 58,
                                  "range" : [ 94, 58],
                                  "interp" : "eioe"
                                }
                              ]
                            }
                          }
                        ],
                          "ident" : "",
                          "audioMuted" : false,
                          "videoHidden" : false,
                          "magnetic" : false,
                          "metadata" : {
                            "IsLocked" : "False",
                            "WinTrackHeight" : "6.39079466327898e-312"
                          }
                      },
                      {
                        "trackIndex" : 3,
                        "medias" : [
                          {
                            "id" : 199,
                            "_type" : "Callout",
                            "def" : {
                              "kind" : "remix",
                              "shape" : "text",
                              "style" : "abstract",
                              "height" : 83.6840731068824,
                              "line-spacing" : 0.0,
                              "width" : 1281.28322521409,
                              "word-wrap" : 1.0,
                              "horizontal-alignment" : "center",
                              "resize-behavior" : "resizeText",
                              "text" : "looks",
                              "vertical-alignment" : "center",
                              "font" : {
                                "color-blue" : 1.0,
                                "color-green" : 1.0,
                                "color-red" : 1.0,
                                "size" : 96.0,
                                "tracking" : 0.0,
                                "name" : "Lato",
                                "weight" : "Regular"
                              },
                              "textAttributes" : {
                                "type" : "textAttributeList",
                                "keyframes" : [
                                  {
                                    "endTime" : 0,
                                    "time" : 0,
                                    "value" : [{"name":"fontWeight","rangeEnd":5,"rangeStart":0,"value":400,"valueType":"int"},{"name":"fontItalic","rangeEnd":5,"rangeStart":0,"value":0,"valueType":"int"},{"name":"fontName","rangeEnd":5,"rangeStart":0,"value":"Montserrat","valueType":"string"},{"name":"fontSize","rangeEnd":5,"rangeStart":0,"value":60,"valueType":"double"},{"name":"kerning","rangeEnd":5,"rangeStart":0,"value":0,"valueType":"double"},{"name":"fgColor","rangeEnd":5,"rangeStart":0,"value":"(0,0,0,255)","valueType":"color"},{"name":"underline","rangeEnd":5,"rangeStart":0,"value":0,"valueType":"int"},{"name":"strikethrough","rangeEnd":5,"rangeStart":0,"value":0,"valueType":"int"}],
                                    "duration" : 0
                                  }
                                ]
                              }
                            },
                            "attributes" : {
                              "autoRotateText" : true
                            },
                            "parameters" : {
                              "translation0" : {
                                "type" : "double",
                                "defaultValue" : 0.304200155246711,
                                "keyframes" : [
                                  {
                                    "endTime" : 110,
                                    "time" : 52,
                                    "value" : -1.86383482943485,
                                    "duration" : 58
                                  }
                                ]
                              },
                              "translation1" : {
                                "type" : "double",
                                "defaultValue" : -96.1538223700724,
                                "keyframes" : [
                                  {
                                    "endTime" : 110,
                                    "time" : 52,
                                    "value" : -658.500002366703,
                                    "duration" : 58
                                  }
                                ]
                              }
                            },
                            "effects" : [
                                {
                                  "_type" : "GenericBehaviorEffect",
                                  "effectName" : "popUp",
                                  "start" : 0,
                                  "duration" : 138                                ,
                                  "in" : {
                                    "attributes" : {
                                      "name" : "reveal",
                                      "type" : 1,
                                      "characterOrder" : 7,
                                      "offsetBetweenCharacters" : 3,
                                      "suggestedDurationPerCharacter" : 44,
                                      "overlapProportion" : 0,
                                      "movement" : 16,
                                      "springDamping" : 5.0,
                                      "springStiffness" : 50.0,
                                      "bounceBounciness" : 0.45
                                    },
                                    "parameters" : {
                                      "direction" : {
                                        "type" : "int",
                                        "valueBounds" : {
                                          "minValue" : 0,
                                          "maxValue" : 3,
                                          "defaultValue" : 0
                                        },
                                        "uiHints" : {
                                          "userInterfaceType" : 2,
                                          "unitType" : 0
                                        },
                                        "keyframes" : [
                                          {
                                            "endTime" : 0,
                                            "time" : 0,
                                            "value" : 0,
                                            "duration" : 0
                                          }
                                        ]
                                      }
                                    }
                                  
                                  },
                                  "center" : {
                                    "attributes" : {
                                      "name" : "none",
                                      "type" : 1,
                                      "characterOrder" : 6,
                                      "offsetBetweenCharacters" : 0,
                                      "secondsPerLoop" : 1,
                                      "numberOfLoops" : -1,
                                      "delayBetweenLoops" : 0,
                                      "offsetBetweenCharacters" : 0
                                    }
                                  
                                  },
                                  "out" : {
                                    "attributes" : {
                                      "name" : "none",
                                      "type" : 1,
                                      "characterOrder" : 6,
                                      "offsetBetweenCharacters" : 0,
                                      "suggestedDurationPerCharacter" : 0,
                                      "overlapProportion" : 0,
                                      "movement" : -1,
                                      "springDamping" : 5.0,
                                      "springStiffness" : 50.0,
                                      "bounceBounciness" : 0.45
                                    }
                                  
                                  }
                                }
                            ],
                            "start" : 42,
                            "duration" : 138,
                            "mediaStart" : 0,
                            "mediaDuration" : 138,
                            "scalar" : 1,
                            "metadata" : {
                              "WinSubProjectDisplayName" : "",
                              "clipSpeedAttribute" : false,
                              "default-HAlign" : "center",
                              "default-LineSpace" : 0.0,
                              "default-VAlign" : "center",
                              "default-text-attributes" : "[{\"name\":\"fontName\",\"rangeEnd\":17,\"rangeStart\":0,\"value\":\"Montserrat\",\"valueType\":\"string\"},{\"name\":\"strikethrough\",\"rangeEnd\":17,\"rangeStart\":0,\"value\":0,\"valueType\":\"int\"},{\"name\":\"fontWeight\",\"rangeEnd\":17,\"rangeStart\":0,\"value\":100,\"valueType\":\"int\"},{\"name\":\"fontSize\",\"rangeEnd\":17,\"rangeStart\":0,\"value\":60,\"valueType\":\"double\"},{\"name\":\"fontItalic\",\"rangeEnd\":17,\"rangeStart\":0,\"value\":0,\"valueType\":\"int\"},{\"name\":\"fgColor\",\"rangeEnd\":17,\"rangeStart\":0,\"value\":\"(0,0,0,255)\",\"valueType\":\"color\"},{\"name\":\"underline\",\"rangeEnd\":17,\"rangeStart\":0,\"value\":0,\"valueType\":\"int\"}]",
                              "default-translation0" : 0.358387392787593
                            },
                            "animationTracks" : {
                              "visual" : [
                                {
                                  "endTime" : 110,
                                  "duration" : 58,
                                  "range" : [ 52, 58],
                                  "interp" : "eioe"
                                }
                              ]
                            }
                          }
                        ],
                          "ident" : "",
                          "audioMuted" : false,
                          "videoHidden" : false,
                          "magnetic" : false,
                          "metadata" : {
                            "IsLocked" : "False",
                            "WinTrackHeight" : "6.39079466327898e-312"
                          }
                      }
                    ],
                    "attributes" : {
                      "ident" : "Simple Bright Title 3",
                      "gain" : 1.0,
                      "mixToMono" : false,
                      "assetProperties" : [
                        {
                          "type" : 0,
                          "name" : "Title",
                          "objects" : [ 198 ],
                          "themeMappings" :  {
                            "font-color" : "foreground-1",
                            "font-family" : "font-1"
                          }
                        },
                        {
                          "type" : 0,
                          "name" : "Subtitle",
                          "objects" : [ 199 ],
                          "themeMappings" :  {
                            "font-color" : "background-1",
                            "font-family" : "font-1"
                          }
                        },
                        {
                          "type" : 1,
                          "name" : "Color 1",
                          "objects" : [ 196, 197 ],
                          "themeMappings" :  {
                            "fill" : "accent-1"
                          }
                        }
                      ]
                    },
                    "effects" : [

                    ],
                    "start" : 11952,
                    "duration" : 210,
                    "mediaStart" : -30.0,
                    "mediaDuration" : 210.0,
                    "scalar" : 1,
                    "metadata" : {
                      "AppliedThemeId" : "",
                      "IsGroupExpanded" : "False",
                      "WinSubProjectDisplayName" : "Simple Bright Title 3",
                      "clipSpeedAttribute" : false,
                      "default-translation1" : 62.3420348343093,
                      "effectApplied" : "none",
                      "isOpen" : false
                    },
                    "animationTracks" : {

                    }
                  },
                  {
                    "id" : 200,
                    "_type" : "UnifiedMedia",
                    "video" : 
                        {
                          "id" : 201,
                          "_type" : "ScreenVMFile",
                          "src" : 14,
                          "trackNumber" : 0,
                          "attributes" : {
                            "ident" : "scratch-3.3-looks-changing-costume"
                          },
                          "parameters" : {
                            "cursorScale" : {
                              "type" : "double",
                              "defaultValue" : 1.0,
                              "interp" : "linr"
                            },
                            "cursorOpacity" : {
                              "type" : "double",
                              "defaultValue" : 1.0,
                              "interp" : "linr"
                            }
                          },
                          "effects" : [

                          ],
                          "start" : 12162,
                          "duration" : 730,
                          "mediaStart" : 0,
                          "mediaDuration" : 730,
                          "scalar" : 1,
                          "animationTracks" : {

                          }
                        },
                    "audio" : 
                        {
                          "id" : 202,
                          "_type" : "AMFile",
                          "src" : 14,
                          "trackNumber" : 1,
                          "attributes" : {
                            "ident" : "",
                            "gain" : 1.0,
                            "mixToMono" : false
                          },
                            "channelNumber" : "0,1",
                          "effects" : [

                          ],
                          "start" : 12162,
                          "duration" : 730,
                          "mediaStart" : 0,
                          "mediaDuration" : 730,
                          "scalar" : 1,
                          "animationTracks" : {

                          }
                        }
,
                    "start" : 12162,
                    "duration" : 730,
                    "mediaStart" : 0,
                    "mediaDuration" : 730,
                    "scalar" : 1,
                    "metadata" : {
                      "AutoAppliedSmartFocus" : "False",
                      "clipSpeedAttribute" : false
                    }
                  },
                  {
                    "id" : 203,
                    "_type" : "Group",
                    "parameters" : {
                      "translation0" : 1.21531229524408e-10,
                      "translation1" : 62.3420348343093,
                      "volume" : 1.0
                    },
                    "tracks" : [
                      {
                        "trackIndex" : 0,
                        "medias" : [
                          {
                            "id" : 204,
                            "_type" : "Callout",
                            "def" : {
                              "kind" : "remix",
                              "shape" : "shape-rectangle",
                              "style" : "urban",
                              "fill-color-blue" : {
                                "type" : "double",
                                "defaultValue" : 1.0,
                                "keyframes" : [
                                  {
                                    "endTime" : 56,
                                    "time" : 18,
                                    "value" : 1.0,
                                    "duration" : 38
                                  },
                                  {
                                    "endTime" : 92,
                                    "time" : 56,
                                    "value" : 0.149019607843137,
                                    "duration" : 36
                                  },
                                  {
                                    "endTime" : 174,
                                    "time" : 116,
                                    "value" : 0.149019607843137,
                                    "duration" : 58
                                  }
                                ]
                              },
                              "fill-color-green" : {
                                "type" : "double",
                                "defaultValue" : 1.0,
                                "keyframes" : [
                                  {
                                    "endTime" : 56,
                                    "time" : 18,
                                    "value" : 1.0,
                                    "duration" : 38
                                  },
                                  {
                                    "endTime" : 92,
                                    "time" : 56,
                                    "value" : 0.96078431372549,
                                    "duration" : 36
                                  },
                                  {
                                    "endTime" : 174,
                                    "time" : 116,
                                    "value" : 0.96078431372549,
                                    "duration" : 58
                                  }
                                ]
                              },
                              "fill-color-opacity" : 1.0,
                              "fill-color-red" : {
                                "type" : "double",
                                "defaultValue" : 1.0,
                                "keyframes" : [
                                  {
                                    "endTime" : 56,
                                    "time" : 18,
                                    "value" : 1.0,
                                    "duration" : 38
                                  },
                                  {
                                    "endTime" : 92,
                                    "time" : 56,
                                    "value" : 0.933333333333333,
                                    "duration" : 36
                                  },
                                  {
                                    "endTime" : 174,
                                    "time" : 116,
                                    "value" : 0.933333333333333,
                                    "duration" : 58
                                  }
                                ]
                              },
                              "height" : {
                                "type" : "double",
                                "defaultValue" : 10.8510761260468,
                                "keyframes" : [
                                  {
                                    "endTime" : 56,
                                    "time" : 18,
                                    "value" : 24.9687231850678,
                                    "duration" : 38
                                  },
                                  {
                                    "endTime" : 92,
                                    "time" : 56,
                                    "value" : 1281.28323719656,
                                    "duration" : 36
                                  },
                                  {
                                    "endTime" : 174,
                                    "time" : 116,
                                    "value" : 1347.6353898526,
                                    "duration" : 58
                                  }
                                ]
                              },
                              "stroke-color-blue" : 1.0,
                              "stroke-color-green" : 1.0,
                              "stroke-color-opacity" : 1.0,
                              "stroke-color-red" : 1.0,
                              "stroke-width" : 0.0,
                              "width" : {
                                "type" : "double",
                                "defaultValue" : 6.88782755517832,
                                "keyframes" : [
                                  {
                                    "endTime" : 56,
                                    "time" : 18,
                                    "value" : 67.9394975592671,
                                    "duration" : 38
                                  },
                                  {
                                    "endTime" : 92,
                                    "time" : 56,
                                    "value" : 67.9394975592671,
                                    "duration" : 36
                                  },
                                  {
                                    "endTime" : 174,
                                    "time" : 116,
                                    "value" : 68.0763125888445,
                                    "duration" : 58
                                  }
                                ]
                              },
                              "fill-style" : "solid",
                              "horizontal-alignment" : "center",
                              "stroke-style" : "solid",
                              "vertical-alignment" : "center",
                              "textAttributes" : {
                                "type" : "textAttributeList",
                                "keyframes" : [
                                  {
                                    "endTime" : 0,
                                    "time" : 0,
                                    "value" : null,
                                    "duration" : 0
                                  }
                                ]
                              }
                            },
                            "attributes" : {
                              "autoRotateText" : true
                            },
                            "parameters" : {
                              "translation0" : {
                                "type" : "double",
                                "defaultValue" : -1.21547438780567e-10,
                                "keyframes" : [
                                  {
                                    "endTime" : 56,
                                    "time" : 18,
                                    "value" : -1.21547438780567e-10,
                                    "duration" : 38
                                  },
                                  {
                                    "endTime" : 92,
                                    "time" : 56,
                                    "value" : 0.0541990816513973,
                                    "duration" : 36
                                  },
                                  {
                                    "endTime" : 174,
                                    "time" : 116,
                                    "value" : -1.67577274979808e-14,
                                    "duration" : 58
                                  }
                                ]
                              },
                              "translation1" : {
                                "type" : "double",
                                "defaultValue" : -96.3117858166865,
                                "keyframes" : [
                                  {
                                    "endTime" : 56,
                                    "time" : 18,
                                    "value" : -96.3117858166865,
                                    "duration" : 38
                                  },
                                  {
                                    "endTime" : 92,
                                    "time" : 56,
                                    "value" : -96.3117858166865,
                                    "duration" : 36
                                  },
                                  {
                                    "endTime" : 174,
                                    "time" : 116,
                                    "value" : -658.65796581331,
                                    "duration" : 58
                                  }
                                ]
                              },
                              "rotation2" : {
                                "type" : "double",
                                "defaultValue" : 0.0,
                                "keyframes" : [
                                  {
                                    "endTime" : 56,
                                    "time" : 18,
                                    "value" : -1.5707963267949,
                                    "duration" : 38
                                  }
                                ]
                              }
                            },
                            "effects" : [

                            ],
                            "start" : -30,
                            "duration" : 210,
                            "mediaStart" : -12,
                            "mediaDuration" : 210,
                            "scalar" : 1,
                            "metadata" : {
                              "WinSubProjectDisplayName" : "",
                              "clipSpeedAttribute" : false
                            },
                            "animationTracks" : {
                              "visual" : [
                                {
                                  "endTime" : 56,
                                  "duration" : 38,
                                  "range" : [ 18, 38],
                                  "interp" : "eioe"
                                },
                                {
                                  "endTime" : 92,
                                  "duration" : 36,
                                  "range" : [ 56, 36],
                                  "interp" : "eioe"
                                },
                                {
                                  "endTime" : 174,
                                  "duration" : 58,
                                  "range" : [ 116, 58]
                                }
                              ]
                            }
                          }
                        ],
                          "ident" : "",
                          "audioMuted" : false,
                          "videoHidden" : false,
                          "magnetic" : false,
                          "metadata" : {
                            "IsLocked" : "False",
                            "WinTrackHeight" : "0"
                          }
                      },
                      {
                        "trackIndex" : 1,
                        "medias" : [
                          {
                            "id" : 205,
                            "_type" : "Callout",
                            "def" : {
                              "kind" : "remix",
                              "shape" : "shape-rectangle",
                              "style" : "urban",
                              "fill-color-blue" : {
                                "type" : "double",
                                "defaultValue" : 1.0,
                                "keyframes" : [
                                  {
                                    "endTime" : 54,
                                    "time" : 18,
                                    "value" : 0.149019607843137,
                                    "duration" : 36
                                  },
                                  {
                                    "endTime" : 136,
                                    "time" : 78,
                                    "value" : 1.0,
                                    "duration" : 58
                                  }
                                ]
                              },
                              "fill-color-green" : {
                                "type" : "double",
                                "defaultValue" : 1.0,
                                "keyframes" : [
                                  {
                                    "endTime" : 54,
                                    "time" : 18,
                                    "value" : 0.96078431372549,
                                    "duration" : 36
                                  },
                                  {
                                    "endTime" : 136,
                                    "time" : 78,
                                    "value" : 1.0,
                                    "duration" : 58
                                  }
                                ]
                              },
                              "fill-color-opacity" : 1.0,
                              "fill-color-red" : {
                                "type" : "double",
                                "defaultValue" : 1.0,
                                "keyframes" : [
                                  {
                                    "endTime" : 54,
                                    "time" : 18,
                                    "value" : 0.933333333333333,
                                    "duration" : 36
                                  },
                                  {
                                    "endTime" : 136,
                                    "time" : 78,
                                    "value" : 1.0,
                                    "duration" : 58
                                  }
                                ]
                              },
                              "height" : {
                                "type" : "double",
                                "defaultValue" : 10.8510761260468,
                                "keyframes" : [
                                  {
                                    "endTime" : 54,
                                    "time" : 18,
                                    "value" : 10.8510761260468,
                                    "duration" : 36
                                  },
                                  {
                                    "endTime" : 136,
                                    "time" : 78,
                                    "value" : 10.8510761260468,
                                    "duration" : 58
                                  }
                                ]
                              },
                              "stroke-color-blue" : 1.0,
                              "stroke-color-green" : 1.0,
                              "stroke-color-opacity" : 1.0,
                              "stroke-color-red" : 1.0,
                              "stroke-width" : 0.0,
                              "width" : {
                                "type" : "double",
                                "defaultValue" : 6.88782755517832,
                                "keyframes" : [
                                  {
                                    "endTime" : 54,
                                    "time" : 18,
                                    "value" : 1281.28316541273,
                                    "duration" : 36
                                  },
                                  {
                                    "endTime" : 136,
                                    "time" : 78,
                                    "value" : 1302.87700103543,
                                    "duration" : 58
                                  }
                                ]
                              },
                              "fill-style" : "solid",
                              "horizontal-alignment" : "center",
                              "stroke-style" : "solid",
                              "vertical-alignment" : "center",
                              "textAttributes" : {
                                "type" : "textAttributeList",
                                "keyframes" : [
                                  {
                                    "endTime" : 0,
                                    "time" : 0,
                                    "value" : null,
                                    "duration" : 0
                                  }
                                ]
                              }
                            },
                            "attributes" : {
                              "autoRotateText" : true
                            },
                            "parameters" : {
                              "translation0" : {
                                "type" : "double",
                                "defaultValue" : -1.21547438780567e-10,
                                "keyframes" : [
                                  {
                                    "endTime" : 54,
                                    "time" : 18,
                                    "value" : -0.0541988189824127,
                                    "duration" : 36
                                  },
                                  {
                                    "endTime" : 136,
                                    "time" : 78,
                                    "value" : -1.21547438780567e-10,
                                    "duration" : 58
                                  }
                                ]
                              },
                              "translation1" : {
                                "type" : "double",
                                "defaultValue" : 78.8579651656907,
                                "keyframes" : [
                                  {
                                    "endTime" : 54,
                                    "time" : 18,
                                    "value" : 78.8936575656383,
                                    "duration" : 36
                                  },
                                  {
                                    "endTime" : 136,
                                    "time" : 78,
                                    "value" : 694.705445748916,
                                    "duration" : 58
                                  }
                                ]
                              }
                            },
                            "effects" : [

                            ],
                            "start" : 38,
                            "duration" : 142,
                            "mediaStart" : 18,
                            "mediaDuration" : 142,
                            "scalar" : 1,
                            "metadata" : {
                              "WinSubProjectDisplayName" : "",
                              "clipSpeedAttribute" : false
                            },
                            "animationTracks" : {
                              "visual" : [
                                {
                                  "endTime" : 54,
                                  "duration" : 36,
                                  "range" : [ 18, 36],
                                  "interp" : "eioe"
                                },
                                {
                                  "endTime" : 136,
                                  "duration" : 58,
                                  "range" : [ 78, 58],
                                  "interp" : "eioe"
                                }
                              ]
                            }
                          }
                        ],
                          "ident" : "",
                          "audioMuted" : false,
                          "videoHidden" : false,
                          "magnetic" : false,
                          "metadata" : {
                            "IsLocked" : "False",
                            "WinTrackHeight" : "6.39079466327898e-312"
                          }
                      },
                      {
                        "trackIndex" : 2,
                        "medias" : [
                          {
                            "id" : 206,
                            "_type" : "Callout",
                            "def" : {
                              "kind" : "remix",
                              "shape" : "text",
                              "style" : "abstract",
                              "height" : 180.630981445261,
                              "line-spacing" : 0.0,
                              "width" : 1281.17482864961,
                              "word-wrap" : 1.0,
                              "horizontal-alignment" : "center",
                              "resize-behavior" : "resizeText",
                              "text" : "changing backdrop",
                              "vertical-alignment" : "center",
                              "font" : {
                                "color-blue" : 1.0,
                                "color-green" : 1.0,
                                "color-red" : 1.0,
                                "size" : 96.0,
                                "tracking" : 0.0,
                                "name" : "Lato",
                                "weight" : "Regular"
                              },
                              "textAttributes" : {
                                "type" : "textAttributeList",
                                "keyframes" : [
                                  {
                                    "endTime" : 0,
                                    "time" : 0,
                                    "value" : [{"name":"strikethrough","rangeEnd":17,"rangeStart":0,"value":0,"valueType":"int"},{"name":"fontWeight","rangeEnd":17,"rangeStart":0,"value":400,"valueType":"int"},{"name":"fontItalic","rangeEnd":17,"rangeStart":0,"value":0,"valueType":"int"},{"name":"underline","rangeEnd":17,"rangeStart":0,"value":0,"valueType":"int"},{"name":"kerning","rangeEnd":17,"rangeStart":0,"value":0,"valueType":"double"},{"name":"fontName","rangeEnd":17,"rangeStart":0,"value":"Montserrat","valueType":"string"},{"name":"fontSize","rangeEnd":17,"rangeStart":0,"value":128,"valueType":"double"},{"name":"fgColor","rangeEnd":17,"rangeStart":0,"value":"(255,255,255,255)","valueType":"color"}],
                                    "duration" : 0
                                  }
                                ]
                              }
                            },
                            "attributes" : {
                              "autoRotateText" : true
                            },
                            "parameters" : {
                              "translation0" : {
                                "type" : "double",
                                "defaultValue" : 0.412585675275182,
                                "keyframes" : [
                                  {
                                    "endTime" : 152,
                                    "time" : 94,
                                    "value" : 11.2636728451827,
                                    "duration" : 58
                                  }
                                ]
                              },
                              "translation1" : {
                                "type" : "double",
                                "defaultValue" : -5.81178581660322,
                                "keyframes" : [
                                  {
                                    "endTime" : 152,
                                    "time" : 94,
                                    "value" : 610.000002366703,
                                    "duration" : 58
                                  }
                                ]
                              }
                            },
                            "effects" : [
                                {
                                  "_type" : "GenericBehaviorEffect",
                                  "effectName" : "popUp",
                                  "start" : 34,
                                  "duration" : 142                                ,
                                  "in" : {
                                    "attributes" : {
                                      "name" : "reveal",
                                      "type" : 1,
                                      "characterOrder" : 6,
                                      "offsetBetweenCharacters" : 3,
                                      "suggestedDurationPerCharacter" : 44,
                                      "overlapProportion" : 0,
                                      "movement" : 16,
                                      "springDamping" : 5.0,
                                      "springStiffness" : 50.0,
                                      "bounceBounciness" : 0.45
                                    },
                                    "parameters" : {
                                      "direction" : {
                                        "type" : "int",
                                        "valueBounds" : {
                                          "minValue" : 0,
                                          "maxValue" : 3,
                                          "defaultValue" : 0
                                        },
                                        "uiHints" : {
                                          "userInterfaceType" : 2,
                                          "unitType" : 0
                                        },
                                        "keyframes" : [
                                          {
                                            "endTime" : 0,
                                            "time" : 0,
                                            "value" : 2,
                                            "duration" : 0
                                          }
                                        ]
                                      }
                                    }
                                  
                                  },
                                  "center" : {
                                    "attributes" : {
                                      "name" : "none",
                                      "type" : 1,
                                      "characterOrder" : 6,
                                      "offsetBetweenCharacters" : 0,
                                      "secondsPerLoop" : 1,
                                      "numberOfLoops" : -1,
                                      "delayBetweenLoops" : 0,
                                      "offsetBetweenCharacters" : 0
                                    }
                                  
                                  },
                                  "out" : {
                                    "attributes" : {
                                      "name" : "none",
                                      "type" : 1,
                                      "characterOrder" : 6,
                                      "offsetBetweenCharacters" : 0,
                                      "suggestedDurationPerCharacter" : 0,
                                      "overlapProportion" : 0,
                                      "movement" : -1,
                                      "springDamping" : 5.0,
                                      "springStiffness" : 50.0,
                                      "bounceBounciness" : 0.45
                                    }
                                  
                                  }
                                }
                            ],
                            "start" : 38,
                            "duration" : 142,
                            "mediaStart" : 34,
                            "mediaDuration" : 142,
                            "scalar" : 1,
                            "metadata" : {
                              "WinSubProjectDisplayName" : "",
                              "clipSpeedAttribute" : false,
                              "default-HAlign" : "center",
                              "default-LineSpace" : 0.0,
                              "default-VAlign" : "center",
                              "default-text-attributes" : "[{\"name\":\"fontName\",\"rangeEnd\":15,\"rangeStart\":0,\"value\":\"Montserrat\",\"valueType\":\"string\"},{\"name\":\"fgColor\",\"rangeEnd\":15,\"rangeStart\":0,\"value\":\"(255,255,255,255)\",\"valueType\":\"color\"},{\"name\":\"underline\",\"rangeEnd\":15,\"rangeStart\":0,\"value\":0,\"valueType\":\"int\"},{\"name\":\"strikethrough\",\"rangeEnd\":15,\"rangeStart\":0,\"value\":0,\"valueType\":\"int\"},{\"name\":\"fontSize\",\"rangeEnd\":15,\"rangeStart\":0,\"value\":128,\"valueType\":\"double\"},{\"name\":\"fontItalic\",\"rangeEnd\":15,\"rangeStart\":0,\"value\":0,\"valueType\":\"int\"},{\"name\":\"fontWeight\",\"rangeEnd\":15,\"rangeStart\":0,\"value\":100,\"valueType\":\"int\"}]"
                            },
                            "animationTracks" : {
                              "visual" : [
                                {
                                  "endTime" : 152,
                                  "duration" : 58,
                                  "range" : [ 94, 58],
                                  "interp" : "eioe"
                                }
                              ]
                            }
                          }
                        ],
                          "ident" : "",
                          "audioMuted" : false,
                          "videoHidden" : false,
                          "magnetic" : false,
                          "metadata" : {
                            "IsLocked" : "False",
                            "WinTrackHeight" : "6.39079466327898e-312"
                          }
                      },
                      {
                        "trackIndex" : 3,
                        "medias" : [
                          {
                            "id" : 207,
                            "_type" : "Callout",
                            "def" : {
                              "kind" : "remix",
                              "shape" : "text",
                              "style" : "abstract",
                              "height" : 83.6840731068824,
                              "line-spacing" : 0.0,
                              "width" : 1281.28322521409,
                              "word-wrap" : 1.0,
                              "horizontal-alignment" : "center",
                              "resize-behavior" : "resizeText",
                              "text" : "looks",
                              "vertical-alignment" : "center",
                              "font" : {
                                "color-blue" : 1.0,
                                "color-green" : 1.0,
                                "color-red" : 1.0,
                                "size" : 96.0,
                                "tracking" : 0.0,
                                "name" : "Lato",
                                "weight" : "Regular"
                              },
                              "textAttributes" : {
                                "type" : "textAttributeList",
                                "keyframes" : [
                                  {
                                    "endTime" : 0,
                                    "time" : 0,
                                    "value" : [{"name":"fontWeight","rangeEnd":5,"rangeStart":0,"value":400,"valueType":"int"},{"name":"fontItalic","rangeEnd":5,"rangeStart":0,"value":0,"valueType":"int"},{"name":"fontName","rangeEnd":5,"rangeStart":0,"value":"Montserrat","valueType":"string"},{"name":"fontSize","rangeEnd":5,"rangeStart":0,"value":60,"valueType":"double"},{"name":"kerning","rangeEnd":5,"rangeStart":0,"value":0,"valueType":"double"},{"name":"fgColor","rangeEnd":5,"rangeStart":0,"value":"(0,0,0,255)","valueType":"color"},{"name":"underline","rangeEnd":5,"rangeStart":0,"value":0,"valueType":"int"},{"name":"strikethrough","rangeEnd":5,"rangeStart":0,"value":0,"valueType":"int"}],
                                    "duration" : 0
                                  }
                                ]
                              }
                            },
                            "attributes" : {
                              "autoRotateText" : true
                            },
                            "parameters" : {
                              "translation0" : {
                                "type" : "double",
                                "defaultValue" : 0.304200155246711,
                                "keyframes" : [
                                  {
                                    "endTime" : 110,
                                    "time" : 52,
                                    "value" : -1.86383482943485,
                                    "duration" : 58
                                  }
                                ]
                              },
                              "translation1" : {
                                "type" : "double",
                                "defaultValue" : -96.1538223700724,
                                "keyframes" : [
                                  {
                                    "endTime" : 110,
                                    "time" : 52,
                                    "value" : -658.500002366703,
                                    "duration" : 58
                                  }
                                ]
                              }
                            },
                            "effects" : [
                                {
                                  "_type" : "GenericBehaviorEffect",
                                  "effectName" : "popUp",
                                  "start" : 0,
                                  "duration" : 138                                ,
                                  "in" : {
                                    "attributes" : {
                                      "name" : "reveal",
                                      "type" : 1,
                                      "characterOrder" : 7,
                                      "offsetBetweenCharacters" : 3,
                                      "suggestedDurationPerCharacter" : 44,
                                      "overlapProportion" : 0,
                                      "movement" : 16,
                                      "springDamping" : 5.0,
                                      "springStiffness" : 50.0,
                                      "bounceBounciness" : 0.45
                                    },
                                    "parameters" : {
                                      "direction" : {
                                        "type" : "int",
                                        "valueBounds" : {
                                          "minValue" : 0,
                                          "maxValue" : 3,
                                          "defaultValue" : 0
                                        },
                                        "uiHints" : {
                                          "userInterfaceType" : 2,
                                          "unitType" : 0
                                        },
                                        "keyframes" : [
                                          {
                                            "endTime" : 0,
                                            "time" : 0,
                                            "value" : 0,
                                            "duration" : 0
                                          }
                                        ]
                                      }
                                    }
                                  
                                  },
                                  "center" : {
                                    "attributes" : {
                                      "name" : "none",
                                      "type" : 1,
                                      "characterOrder" : 6,
                                      "offsetBetweenCharacters" : 0,
                                      "secondsPerLoop" : 1,
                                      "numberOfLoops" : -1,
                                      "delayBetweenLoops" : 0,
                                      "offsetBetweenCharacters" : 0
                                    }
                                  
                                  },
                                  "out" : {
                                    "attributes" : {
                                      "name" : "none",
                                      "type" : 1,
                                      "characterOrder" : 6,
                                      "offsetBetweenCharacters" : 0,
                                      "suggestedDurationPerCharacter" : 0,
                                      "overlapProportion" : 0,
                                      "movement" : -1,
                                      "springDamping" : 5.0,
                                      "springStiffness" : 50.0,
                                      "bounceBounciness" : 0.45
                                    }
                                  
                                  }
                                }
                            ],
                            "start" : 42,
                            "duration" : 138,
                            "mediaStart" : 0,
                            "mediaDuration" : 138,
                            "scalar" : 1,
                            "metadata" : {
                              "WinSubProjectDisplayName" : "",
                              "clipSpeedAttribute" : false,
                              "default-HAlign" : "center",
                              "default-LineSpace" : 0.0,
                              "default-VAlign" : "center",
                              "default-text-attributes" : "[{\"name\":\"fontName\",\"rangeEnd\":17,\"rangeStart\":0,\"value\":\"Montserrat\",\"valueType\":\"string\"},{\"name\":\"strikethrough\",\"rangeEnd\":17,\"rangeStart\":0,\"value\":0,\"valueType\":\"int\"},{\"name\":\"fontWeight\",\"rangeEnd\":17,\"rangeStart\":0,\"value\":100,\"valueType\":\"int\"},{\"name\":\"fontSize\",\"rangeEnd\":17,\"rangeStart\":0,\"value\":60,\"valueType\":\"double\"},{\"name\":\"fontItalic\",\"rangeEnd\":17,\"rangeStart\":0,\"value\":0,\"valueType\":\"int\"},{\"name\":\"fgColor\",\"rangeEnd\":17,\"rangeStart\":0,\"value\":\"(0,0,0,255)\",\"valueType\":\"color\"},{\"name\":\"underline\",\"rangeEnd\":17,\"rangeStart\":0,\"value\":0,\"valueType\":\"int\"}]",
                              "default-translation0" : 0.358387392787593
                            },
                            "animationTracks" : {
                              "visual" : [
                                {
                                  "endTime" : 110,
                                  "duration" : 58,
                                  "range" : [ 52, 58],
                                  "interp" : "eioe"
                                }
                              ]
                            }
                          }
                        ],
                          "ident" : "",
                          "audioMuted" : false,
                          "videoHidden" : false,
                          "magnetic" : false,
                          "metadata" : {
                            "IsLocked" : "False",
                            "WinTrackHeight" : "6.39079466327898e-312"
                          }
                      }
                    ],
                    "attributes" : {
                      "ident" : "Simple Bright Title 3",
                      "gain" : 1.0,
                      "mixToMono" : false,
                      "assetProperties" : [
                        {
                          "type" : 0,
                          "name" : "Title",
                          "objects" : [ 206 ],
                          "themeMappings" :  {
                            "font-color" : "foreground-1",
                            "font-family" : "font-1"
                          }
                        },
                        {
                          "type" : 0,
                          "name" : "Subtitle",
                          "objects" : [ 207 ],
                          "themeMappings" :  {
                            "font-color" : "background-1",
                            "font-family" : "font-1"
                          }
                        },
                        {
                          "type" : 1,
                          "name" : "Color 1",
                          "objects" : [ 204, 205 ],
                          "themeMappings" :  {
                            "fill" : "accent-1"
                          }
                        }
                      ]
                    },
                    "effects" : [

                    ],
                    "start" : 12892,
                    "duration" : 210,
                    "mediaStart" : -30.0,
                    "mediaDuration" : 210.0,
                    "scalar" : 1,
                    "metadata" : {
                      "AppliedThemeId" : "",
                      "IsGroupExpanded" : "False",
                      "WinSubProjectDisplayName" : "Simple Bright Title 3",
                      "clipSpeedAttribute" : false,
                      "effectApplied" : "none",
                      "isOpen" : false
                    },
                    "animationTracks" : {

                    }
                  },
                  {
                    "id" : 208,
                    "_type" : "UnifiedMedia",
                    "video" : 
                        {
                          "id" : 209,
                          "_type" : "ScreenVMFile",
                          "src" : 15,
                          "trackNumber" : 0,
                          "attributes" : {
                            "ident" : "scratch-3.4-looks-changing-backdrop"
                          },
                          "parameters" : {
                            "cursorScale" : {
                              "type" : "double",
                              "defaultValue" : 1.0,
                              "interp" : "linr"
                            },
                            "cursorOpacity" : {
                              "type" : "double",
                              "defaultValue" : 1.0,
                              "interp" : "linr"
                            }
                          },
                          "effects" : [

                          ],
                          "start" : 13102,
                          "duration" : 448,
                          "mediaStart" : 0,
                          "mediaDuration" : 448,
                          "scalar" : 1,
                          "animationTracks" : {

                          }
                        },
                    "audio" : 
                        {
                          "id" : 210,
                          "_type" : "AMFile",
                          "src" : 15,
                          "trackNumber" : 1,
                          "attributes" : {
                            "ident" : "",
                            "gain" : 1.0,
                            "mixToMono" : false
                          },
                            "channelNumber" : "0,1",
                          "effects" : [

                          ],
                          "start" : 13102,
                          "duration" : 448,
                          "mediaStart" : 0,
                          "mediaDuration" : 448,
                          "scalar" : 1,
                          "animationTracks" : {

                          }
                        }
,
                    "start" : 13102,
                    "duration" : 448,
                    "mediaStart" : 0,
                    "mediaDuration" : 448,
                    "scalar" : 1,
                    "metadata" : {
                      "AutoAppliedSmartFocus" : "False",
                      "clipSpeedAttribute" : false
                    }
                  },
                  {
                    "id" : 211,
                    "_type" : "Group",
                    "parameters" : {
                      "translation0" : 1.21531229524408e-10,
                      "translation1" : 62.3420348343093,
                      "volume" : 1.0
                    },
                    "tracks" : [
                      {
                        "trackIndex" : 0,
                        "medias" : [
                          {
                            "id" : 212,
                            "_type" : "Callout",
                            "def" : {
                              "kind" : "remix",
                              "shape" : "shape-rectangle",
                              "style" : "urban",
                              "fill-color-blue" : {
                                "type" : "double",
                                "defaultValue" : 1.0,
                                "keyframes" : [
                                  {
                                    "endTime" : 56,
                                    "time" : 18,
                                    "value" : 1.0,
                                    "duration" : 38
                                  },
                                  {
                                    "endTime" : 92,
                                    "time" : 56,
                                    "value" : 0.149019607843137,
                                    "duration" : 36
                                  },
                                  {
                                    "endTime" : 174,
                                    "time" : 116,
                                    "value" : 0.149019607843137,
                                    "duration" : 58
                                  }
                                ]
                              },
                              "fill-color-green" : {
                                "type" : "double",
                                "defaultValue" : 1.0,
                                "keyframes" : [
                                  {
                                    "endTime" : 56,
                                    "time" : 18,
                                    "value" : 1.0,
                                    "duration" : 38
                                  },
                                  {
                                    "endTime" : 92,
                                    "time" : 56,
                                    "value" : 0.96078431372549,
                                    "duration" : 36
                                  },
                                  {
                                    "endTime" : 174,
                                    "time" : 116,
                                    "value" : 0.96078431372549,
                                    "duration" : 58
                                  }
                                ]
                              },
                              "fill-color-opacity" : 1.0,
                              "fill-color-red" : {
                                "type" : "double",
                                "defaultValue" : 1.0,
                                "keyframes" : [
                                  {
                                    "endTime" : 56,
                                    "time" : 18,
                                    "value" : 1.0,
                                    "duration" : 38
                                  },
                                  {
                                    "endTime" : 92,
                                    "time" : 56,
                                    "value" : 0.933333333333333,
                                    "duration" : 36
                                  },
                                  {
                                    "endTime" : 174,
                                    "time" : 116,
                                    "value" : 0.933333333333333,
                                    "duration" : 58
                                  }
                                ]
                              },
                              "height" : {
                                "type" : "double",
                                "defaultValue" : 10.8510761260468,
                                "keyframes" : [
                                  {
                                    "endTime" : 56,
                                    "time" : 18,
                                    "value" : 24.9687231850678,
                                    "duration" : 38
                                  },
                                  {
                                    "endTime" : 92,
                                    "time" : 56,
                                    "value" : 1281.28323719656,
                                    "duration" : 36
                                  },
                                  {
                                    "endTime" : 174,
                                    "time" : 116,
                                    "value" : 1347.6353898526,
                                    "duration" : 58
                                  }
                                ]
                              },
                              "stroke-color-blue" : 1.0,
                              "stroke-color-green" : 1.0,
                              "stroke-color-opacity" : 1.0,
                              "stroke-color-red" : 1.0,
                              "stroke-width" : 0.0,
                              "width" : {
                                "type" : "double",
                                "defaultValue" : 6.88782755517832,
                                "keyframes" : [
                                  {
                                    "endTime" : 56,
                                    "time" : 18,
                                    "value" : 67.9394975592671,
                                    "duration" : 38
                                  },
                                  {
                                    "endTime" : 92,
                                    "time" : 56,
                                    "value" : 67.9394975592671,
                                    "duration" : 36
                                  },
                                  {
                                    "endTime" : 174,
                                    "time" : 116,
                                    "value" : 68.0763125888445,
                                    "duration" : 58
                                  }
                                ]
                              },
                              "fill-style" : "solid",
                              "horizontal-alignment" : "center",
                              "stroke-style" : "solid",
                              "vertical-alignment" : "center",
                              "textAttributes" : {
                                "type" : "textAttributeList",
                                "keyframes" : [
                                  {
                                    "endTime" : 0,
                                    "time" : 0,
                                    "value" : null,
                                    "duration" : 0
                                  }
                                ]
                              }
                            },
                            "attributes" : {
                              "autoRotateText" : true
                            },
                            "parameters" : {
                              "translation0" : {
                                "type" : "double",
                                "defaultValue" : -1.21547438780567e-10,
                                "keyframes" : [
                                  {
                                    "endTime" : 56,
                                    "time" : 18,
                                    "value" : -1.21547438780567e-10,
                                    "duration" : 38
                                  },
                                  {
                                    "endTime" : 92,
                                    "time" : 56,
                                    "value" : 0.0541990816513973,
                                    "duration" : 36
                                  },
                                  {
                                    "endTime" : 174,
                                    "time" : 116,
                                    "value" : -1.67577274979808e-14,
                                    "duration" : 58
                                  }
                                ]
                              },
                              "translation1" : {
                                "type" : "double",
                                "defaultValue" : -96.3117858166865,
                                "keyframes" : [
                                  {
                                    "endTime" : 56,
                                    "time" : 18,
                                    "value" : -96.3117858166865,
                                    "duration" : 38
                                  },
                                  {
                                    "endTime" : 92,
                                    "time" : 56,
                                    "value" : -96.3117858166865,
                                    "duration" : 36
                                  },
                                  {
                                    "endTime" : 174,
                                    "time" : 116,
                                    "value" : -658.65796581331,
                                    "duration" : 58
                                  }
                                ]
                              },
                              "rotation2" : {
                                "type" : "double",
                                "defaultValue" : 0.0,
                                "keyframes" : [
                                  {
                                    "endTime" : 56,
                                    "time" : 18,
                                    "value" : -1.5707963267949,
                                    "duration" : 38
                                  }
                                ]
                              }
                            },
                            "effects" : [

                            ],
                            "start" : -30,
                            "duration" : 210,
                            "mediaStart" : -12,
                            "mediaDuration" : 210,
                            "scalar" : 1,
                            "metadata" : {
                              "WinSubProjectDisplayName" : "",
                              "clipSpeedAttribute" : false
                            },
                            "animationTracks" : {
                              "visual" : [
                                {
                                  "endTime" : 56,
                                  "duration" : 38,
                                  "range" : [ 18, 38],
                                  "interp" : "eioe"
                                },
                                {
                                  "endTime" : 92,
                                  "duration" : 36,
                                  "range" : [ 56, 36],
                                  "interp" : "eioe"
                                },
                                {
                                  "endTime" : 174,
                                  "duration" : 58,
                                  "range" : [ 116, 58]
                                }
                              ]
                            }
                          }
                        ],
                          "ident" : "",
                          "audioMuted" : false,
                          "videoHidden" : false,
                          "magnetic" : false,
                          "metadata" : {
                            "IsLocked" : "False",
                            "WinTrackHeight" : "0"
                          }
                      },
                      {
                        "trackIndex" : 1,
                        "medias" : [
                          {
                            "id" : 213,
                            "_type" : "Callout",
                            "def" : {
                              "kind" : "remix",
                              "shape" : "shape-rectangle",
                              "style" : "urban",
                              "fill-color-blue" : {
                                "type" : "double",
                                "defaultValue" : 1.0,
                                "keyframes" : [
                                  {
                                    "endTime" : 54,
                                    "time" : 18,
                                    "value" : 0.149019607843137,
                                    "duration" : 36
                                  },
                                  {
                                    "endTime" : 136,
                                    "time" : 78,
                                    "value" : 1.0,
                                    "duration" : 58
                                  }
                                ]
                              },
                              "fill-color-green" : {
                                "type" : "double",
                                "defaultValue" : 1.0,
                                "keyframes" : [
                                  {
                                    "endTime" : 54,
                                    "time" : 18,
                                    "value" : 0.96078431372549,
                                    "duration" : 36
                                  },
                                  {
                                    "endTime" : 136,
                                    "time" : 78,
                                    "value" : 1.0,
                                    "duration" : 58
                                  }
                                ]
                              },
                              "fill-color-opacity" : 1.0,
                              "fill-color-red" : {
                                "type" : "double",
                                "defaultValue" : 1.0,
                                "keyframes" : [
                                  {
                                    "endTime" : 54,
                                    "time" : 18,
                                    "value" : 0.933333333333333,
                                    "duration" : 36
                                  },
                                  {
                                    "endTime" : 136,
                                    "time" : 78,
                                    "value" : 1.0,
                                    "duration" : 58
                                  }
                                ]
                              },
                              "height" : {
                                "type" : "double",
                                "defaultValue" : 10.8510761260468,
                                "keyframes" : [
                                  {
                                    "endTime" : 54,
                                    "time" : 18,
                                    "value" : 10.8510761260468,
                                    "duration" : 36
                                  },
                                  {
                                    "endTime" : 136,
                                    "time" : 78,
                                    "value" : 10.8510761260468,
                                    "duration" : 58
                                  }
                                ]
                              },
                              "stroke-color-blue" : 1.0,
                              "stroke-color-green" : 1.0,
                              "stroke-color-opacity" : 1.0,
                              "stroke-color-red" : 1.0,
                              "stroke-width" : 0.0,
                              "width" : {
                                "type" : "double",
                                "defaultValue" : 6.88782755517832,
                                "keyframes" : [
                                  {
                                    "endTime" : 54,
                                    "time" : 18,
                                    "value" : 1281.28316541273,
                                    "duration" : 36
                                  },
                                  {
                                    "endTime" : 136,
                                    "time" : 78,
                                    "value" : 1302.87700103543,
                                    "duration" : 58
                                  }
                                ]
                              },
                              "fill-style" : "solid",
                              "horizontal-alignment" : "center",
                              "stroke-style" : "solid",
                              "vertical-alignment" : "center",
                              "textAttributes" : {
                                "type" : "textAttributeList",
                                "keyframes" : [
                                  {
                                    "endTime" : 0,
                                    "time" : 0,
                                    "value" : null,
                                    "duration" : 0
                                  }
                                ]
                              }
                            },
                            "attributes" : {
                              "autoRotateText" : true
                            },
                            "parameters" : {
                              "translation0" : {
                                "type" : "double",
                                "defaultValue" : -1.21547438780567e-10,
                                "keyframes" : [
                                  {
                                    "endTime" : 54,
                                    "time" : 18,
                                    "value" : -0.0541988189824127,
                                    "duration" : 36
                                  },
                                  {
                                    "endTime" : 136,
                                    "time" : 78,
                                    "value" : -1.21547438780567e-10,
                                    "duration" : 58
                                  }
                                ]
                              },
                              "translation1" : {
                                "type" : "double",
                                "defaultValue" : 78.8579651656907,
                                "keyframes" : [
                                  {
                                    "endTime" : 54,
                                    "time" : 18,
                                    "value" : 78.8936575656383,
                                    "duration" : 36
                                  },
                                  {
                                    "endTime" : 136,
                                    "time" : 78,
                                    "value" : 694.705445748916,
                                    "duration" : 58
                                  }
                                ]
                              }
                            },
                            "effects" : [

                            ],
                            "start" : 38,
                            "duration" : 142,
                            "mediaStart" : 18,
                            "mediaDuration" : 142,
                            "scalar" : 1,
                            "metadata" : {
                              "WinSubProjectDisplayName" : "",
                              "clipSpeedAttribute" : false
                            },
                            "animationTracks" : {
                              "visual" : [
                                {
                                  "endTime" : 54,
                                  "duration" : 36,
                                  "range" : [ 18, 36],
                                  "interp" : "eioe"
                                },
                                {
                                  "endTime" : 136,
                                  "duration" : 58,
                                  "range" : [ 78, 58],
                                  "interp" : "eioe"
                                }
                              ]
                            }
                          }
                        ],
                          "ident" : "",
                          "audioMuted" : false,
                          "videoHidden" : false,
                          "magnetic" : false,
                          "metadata" : {
                            "IsLocked" : "False",
                            "WinTrackHeight" : "6.39079466327898e-312"
                          }
                      },
                      {
                        "trackIndex" : 2,
                        "medias" : [
                          {
                            "id" : 214,
                            "_type" : "Callout",
                            "def" : {
                              "kind" : "remix",
                              "shape" : "text",
                              "style" : "abstract",
                              "height" : 180.630981445261,
                              "line-spacing" : 0.0,
                              "width" : 1281.17482864961,
                              "word-wrap" : 1.0,
                              "horizontal-alignment" : "center",
                              "resize-behavior" : "resizeText",
                              "text" : "changing size",
                              "vertical-alignment" : "center",
                              "font" : {
                                "color-blue" : 1.0,
                                "color-green" : 1.0,
                                "color-red" : 1.0,
                                "size" : 96.0,
                                "tracking" : 0.0,
                                "name" : "Lato",
                                "weight" : "Regular"
                              },
                              "textAttributes" : {
                                "type" : "textAttributeList",
                                "keyframes" : [
                                  {
                                    "endTime" : 0,
                                    "time" : 0,
                                    "value" : [{"name":"fontWeight","rangeEnd":13,"rangeStart":0,"value":400,"valueType":"int"},{"name":"kerning","rangeEnd":13,"rangeStart":0,"value":0,"valueType":"double"},{"name":"strikethrough","rangeEnd":13,"rangeStart":0,"value":0,"valueType":"int"},{"name":"underline","rangeEnd":13,"rangeStart":0,"value":0,"valueType":"int"},{"name":"fgColor","rangeEnd":13,"rangeStart":0,"value":"(255,255,255,255)","valueType":"color"},{"name":"fontName","rangeEnd":13,"rangeStart":0,"value":"Montserrat","valueType":"string"},{"name":"fontSize","rangeEnd":13,"rangeStart":0,"value":128,"valueType":"double"},{"name":"fontItalic","rangeEnd":13,"rangeStart":0,"value":0,"valueType":"int"}],
                                    "duration" : 0
                                  }
                                ]
                              }
                            },
                            "attributes" : {
                              "autoRotateText" : true
                            },
                            "parameters" : {
                              "translation0" : {
                                "type" : "double",
                                "defaultValue" : 0.412585675275182,
                                "keyframes" : [
                                  {
                                    "endTime" : 152,
                                    "time" : 94,
                                    "value" : 11.2636728451827,
                                    "duration" : 58
                                  }
                                ]
                              },
                              "translation1" : {
                                "type" : "double",
                                "defaultValue" : -5.81178581660322,
                                "keyframes" : [
                                  {
                                    "endTime" : 152,
                                    "time" : 94,
                                    "value" : 610.000002366703,
                                    "duration" : 58
                                  }
                                ]
                              }
                            },
                            "effects" : [
                                {
                                  "_type" : "GenericBehaviorEffect",
                                  "effectName" : "popUp",
                                  "start" : 34,
                                  "duration" : 142                                ,
                                  "in" : {
                                    "attributes" : {
                                      "name" : "reveal",
                                      "type" : 1,
                                      "characterOrder" : 6,
                                      "offsetBetweenCharacters" : 3,
                                      "suggestedDurationPerCharacter" : 44,
                                      "overlapProportion" : 0,
                                      "movement" : 16,
                                      "springDamping" : 5.0,
                                      "springStiffness" : 50.0,
                                      "bounceBounciness" : 0.45
                                    },
                                    "parameters" : {
                                      "direction" : {
                                        "type" : "int",
                                        "valueBounds" : {
                                          "minValue" : 0,
                                          "maxValue" : 3,
                                          "defaultValue" : 0
                                        },
                                        "uiHints" : {
                                          "userInterfaceType" : 2,
                                          "unitType" : 0
                                        },
                                        "keyframes" : [
                                          {
                                            "endTime" : 0,
                                            "time" : 0,
                                            "value" : 2,
                                            "duration" : 0
                                          }
                                        ]
                                      }
                                    }
                                  
                                  },
                                  "center" : {
                                    "attributes" : {
                                      "name" : "none",
                                      "type" : 1,
                                      "characterOrder" : 6,
                                      "offsetBetweenCharacters" : 0,
                                      "secondsPerLoop" : 1,
                                      "numberOfLoops" : -1,
                                      "delayBetweenLoops" : 0,
                                      "offsetBetweenCharacters" : 0
                                    }
                                  
                                  },
                                  "out" : {
                                    "attributes" : {
                                      "name" : "none",
                                      "type" : 1,
                                      "characterOrder" : 6,
                                      "offsetBetweenCharacters" : 0,
                                      "suggestedDurationPerCharacter" : 0,
                                      "overlapProportion" : 0,
                                      "movement" : -1,
                                      "springDamping" : 5.0,
                                      "springStiffness" : 50.0,
                                      "bounceBounciness" : 0.45
                                    }
                                  
                                  }
                                }
                            ],
                            "start" : 38,
                            "duration" : 142,
                            "mediaStart" : 34,
                            "mediaDuration" : 142,
                            "scalar" : 1,
                            "metadata" : {
                              "WinSubProjectDisplayName" : "",
                              "clipSpeedAttribute" : false,
                              "default-HAlign" : "center",
                              "default-LineSpace" : 0.0,
                              "default-VAlign" : "center",
                              "default-text-attributes" : "[{\"name\":\"fontName\",\"rangeEnd\":15,\"rangeStart\":0,\"value\":\"Montserrat\",\"valueType\":\"string\"},{\"name\":\"fgColor\",\"rangeEnd\":15,\"rangeStart\":0,\"value\":\"(255,255,255,255)\",\"valueType\":\"color\"},{\"name\":\"underline\",\"rangeEnd\":15,\"rangeStart\":0,\"value\":0,\"valueType\":\"int\"},{\"name\":\"strikethrough\",\"rangeEnd\":15,\"rangeStart\":0,\"value\":0,\"valueType\":\"int\"},{\"name\":\"fontSize\",\"rangeEnd\":15,\"rangeStart\":0,\"value\":128,\"valueType\":\"double\"},{\"name\":\"fontItalic\",\"rangeEnd\":15,\"rangeStart\":0,\"value\":0,\"valueType\":\"int\"},{\"name\":\"fontWeight\",\"rangeEnd\":15,\"rangeStart\":0,\"value\":100,\"valueType\":\"int\"}]"
                            },
                            "animationTracks" : {
                              "visual" : [
                                {
                                  "endTime" : 152,
                                  "duration" : 58,
                                  "range" : [ 94, 58],
                                  "interp" : "eioe"
                                }
                              ]
                            }
                          }
                        ],
                          "ident" : "",
                          "audioMuted" : false,
                          "videoHidden" : false,
                          "magnetic" : false,
                          "metadata" : {
                            "IsLocked" : "False",
                            "WinTrackHeight" : "6.39079466327898e-312"
                          }
                      },
                      {
                        "trackIndex" : 3,
                        "medias" : [
                          {
                            "id" : 215,
                            "_type" : "Callout",
                            "def" : {
                              "kind" : "remix",
                              "shape" : "text",
                              "style" : "abstract",
                              "height" : 83.6840731068824,
                              "line-spacing" : 0.0,
                              "width" : 1281.28322521409,
                              "word-wrap" : 1.0,
                              "horizontal-alignment" : "center",
                              "resize-behavior" : "resizeText",
                              "text" : "looks",
                              "vertical-alignment" : "center",
                              "font" : {
                                "color-blue" : 1.0,
                                "color-green" : 1.0,
                                "color-red" : 1.0,
                                "size" : 96.0,
                                "tracking" : 0.0,
                                "name" : "Lato",
                                "weight" : "Regular"
                              },
                              "textAttributes" : {
                                "type" : "textAttributeList",
                                "keyframes" : [
                                  {
                                    "endTime" : 0,
                                    "time" : 0,
                                    "value" : [{"name":"fontWeight","rangeEnd":5,"rangeStart":0,"value":400,"valueType":"int"},{"name":"fontItalic","rangeEnd":5,"rangeStart":0,"value":0,"valueType":"int"},{"name":"fontName","rangeEnd":5,"rangeStart":0,"value":"Montserrat","valueType":"string"},{"name":"fontSize","rangeEnd":5,"rangeStart":0,"value":60,"valueType":"double"},{"name":"kerning","rangeEnd":5,"rangeStart":0,"value":0,"valueType":"double"},{"name":"fgColor","rangeEnd":5,"rangeStart":0,"value":"(0,0,0,255)","valueType":"color"},{"name":"underline","rangeEnd":5,"rangeStart":0,"value":0,"valueType":"int"},{"name":"strikethrough","rangeEnd":5,"rangeStart":0,"value":0,"valueType":"int"}],
                                    "duration" : 0
                                  }
                                ]
                              }
                            },
                            "attributes" : {
                              "autoRotateText" : true
                            },
                            "parameters" : {
                              "translation0" : {
                                "type" : "double",
                                "defaultValue" : 0.304200155246711,
                                "keyframes" : [
                                  {
                                    "endTime" : 110,
                                    "time" : 52,
                                    "value" : -1.86383482943485,
                                    "duration" : 58
                                  }
                                ]
                              },
                              "translation1" : {
                                "type" : "double",
                                "defaultValue" : -96.1538223700724,
                                "keyframes" : [
                                  {
                                    "endTime" : 110,
                                    "time" : 52,
                                    "value" : -658.500002366703,
                                    "duration" : 58
                                  }
                                ]
                              }
                            },
                            "effects" : [
                                {
                                  "_type" : "GenericBehaviorEffect",
                                  "effectName" : "popUp",
                                  "start" : 0,
                                  "duration" : 138                                ,
                                  "in" : {
                                    "attributes" : {
                                      "name" : "reveal",
                                      "type" : 1,
                                      "characterOrder" : 7,
                                      "offsetBetweenCharacters" : 3,
                                      "suggestedDurationPerCharacter" : 44,
                                      "overlapProportion" : 0,
                                      "movement" : 16,
                                      "springDamping" : 5.0,
                                      "springStiffness" : 50.0,
                                      "bounceBounciness" : 0.45
                                    },
                                    "parameters" : {
                                      "direction" : {
                                        "type" : "int",
                                        "valueBounds" : {
                                          "minValue" : 0,
                                          "maxValue" : 3,
                                          "defaultValue" : 0
                                        },
                                        "uiHints" : {
                                          "userInterfaceType" : 2,
                                          "unitType" : 0
                                        },
                                        "keyframes" : [
                                          {
                                            "endTime" : 0,
                                            "time" : 0,
                                            "value" : 0,
                                            "duration" : 0
                                          }
                                        ]
                                      }
                                    }
                                  
                                  },
                                  "center" : {
                                    "attributes" : {
                                      "name" : "none",
                                      "type" : 1,
                                      "characterOrder" : 6,
                                      "offsetBetweenCharacters" : 0,
                                      "secondsPerLoop" : 1,
                                      "numberOfLoops" : -1,
                                      "delayBetweenLoops" : 0,
                                      "offsetBetweenCharacters" : 0
                                    }
                                  
                                  },
                                  "out" : {
                                    "attributes" : {
                                      "name" : "none",
                                      "type" : 1,
                                      "characterOrder" : 6,
                                      "offsetBetweenCharacters" : 0,
                                      "suggestedDurationPerCharacter" : 0,
                                      "overlapProportion" : 0,
                                      "movement" : -1,
                                      "springDamping" : 5.0,
                                      "springStiffness" : 50.0,
                                      "bounceBounciness" : 0.45
                                    }
                                  
                                  }
                                }
                            ],
                            "start" : 42,
                            "duration" : 138,
                            "mediaStart" : 0,
                            "mediaDuration" : 138,
                            "scalar" : 1,
                            "metadata" : {
                              "WinSubProjectDisplayName" : "",
                              "clipSpeedAttribute" : false,
                              "default-HAlign" : "center",
                              "default-LineSpace" : 0.0,
                              "default-VAlign" : "center",
                              "default-text-attributes" : "[{\"name\":\"fontName\",\"rangeEnd\":17,\"rangeStart\":0,\"value\":\"Montserrat\",\"valueType\":\"string\"},{\"name\":\"strikethrough\",\"rangeEnd\":17,\"rangeStart\":0,\"value\":0,\"valueType\":\"int\"},{\"name\":\"fontWeight\",\"rangeEnd\":17,\"rangeStart\":0,\"value\":100,\"valueType\":\"int\"},{\"name\":\"fontSize\",\"rangeEnd\":17,\"rangeStart\":0,\"value\":60,\"valueType\":\"double\"},{\"name\":\"fontItalic\",\"rangeEnd\":17,\"rangeStart\":0,\"value\":0,\"valueType\":\"int\"},{\"name\":\"fgColor\",\"rangeEnd\":17,\"rangeStart\":0,\"value\":\"(0,0,0,255)\",\"valueType\":\"color\"},{\"name\":\"underline\",\"rangeEnd\":17,\"rangeStart\":0,\"value\":0,\"valueType\":\"int\"}]",
                              "default-translation0" : 0.358387392787593
                            },
                            "animationTracks" : {
                              "visual" : [
                                {
                                  "endTime" : 110,
                                  "duration" : 58,
                                  "range" : [ 52, 58],
                                  "interp" : "eioe"
                                }
                              ]
                            }
                          }
                        ],
                          "ident" : "",
                          "audioMuted" : false,
                          "videoHidden" : false,
                          "magnetic" : false,
                          "metadata" : {
                            "IsLocked" : "False",
                            "WinTrackHeight" : "6.39079466327898e-312"
                          }
                      }
                    ],
                    "attributes" : {
                      "ident" : "Simple Bright Title 3",
                      "gain" : 1.0,
                      "mixToMono" : false,
                      "assetProperties" : [
                        {
                          "type" : 0,
                          "name" : "Title",
                          "objects" : [ 214 ],
                          "themeMappings" :  {
                            "font-color" : "foreground-1",
                            "font-family" : "font-1"
                          }
                        },
                        {
                          "type" : 0,
                          "name" : "Subtitle",
                          "objects" : [ 215 ],
                          "themeMappings" :  {
                            "font-color" : "background-1",
                            "font-family" : "font-1"
                          }
                        },
                        {
                          "type" : 1,
                          "name" : "Color 1",
                          "objects" : [ 212, 213 ],
                          "themeMappings" :  {
                            "fill" : "accent-1"
                          }
                        }
                      ]
                    },
                    "effects" : [

                    ],
                    "start" : 13550,
                    "duration" : 210,
                    "mediaStart" : -30.0,
                    "mediaDuration" : 210.0,
                    "scalar" : 1,
                    "metadata" : {
                      "AppliedThemeId" : "",
                      "IsGroupExpanded" : "False",
                      "WinSubProjectDisplayName" : "Simple Bright Title 3",
                      "clipSpeedAttribute" : false,
                      "effectApplied" : "none",
                      "isOpen" : false
                    },
                    "animationTracks" : {

                    }
                  },
                  {
                    "id" : 216,
                    "_type" : "UnifiedMedia",
                    "video" : 
                        {
                          "id" : 217,
                          "_type" : "ScreenVMFile",
                          "src" : 16,
                          "trackNumber" : 0,
                          "attributes" : {
                            "ident" : "scratch-3.5-looks-changing-size"
                          },
                          "parameters" : {
                            "cursorScale" : {
                              "type" : "double",
                              "defaultValue" : 1.0,
                              "interp" : "linr"
                            },
                            "cursorOpacity" : {
                              "type" : "double",
                              "defaultValue" : 1.0,
                              "interp" : "linr"
                            }
                          },
                          "effects" : [

                          ],
                          "start" : 13760,
                          "duration" : 680,
                          "mediaStart" : 0,
                          "mediaDuration" : 680,
                          "scalar" : 1,
                          "animationTracks" : {

                          }
                        },
                    "audio" : 
                        {
                          "id" : 218,
                          "_type" : "AMFile",
                          "src" : 16,
                          "trackNumber" : 1,
                          "attributes" : {
                            "ident" : "",
                            "gain" : 1.0,
                            "mixToMono" : false
                          },
                            "channelNumber" : "0,1",
                          "effects" : [

                          ],
                          "start" : 13760,
                          "duration" : 680,
                          "mediaStart" : 0,
                          "mediaDuration" : 680,
                          "scalar" : 1,
                          "animationTracks" : {

                          }
                        }
,
                    "start" : 13760,
                    "duration" : 680,
                    "mediaStart" : 0,
                    "mediaDuration" : 680,
                    "scalar" : 1,
                    "metadata" : {
                      "AutoAppliedSmartFocus" : "False",
                      "clipSpeedAttribute" : false
                    }
                  },
                  {
                    "id" : 219,
                    "_type" : "Group",
                    "parameters" : {
                      "translation0" : 1.21531229524408e-10,
                      "translation1" : 62.3420348343093,
                      "volume" : 1.0
                    },
                    "tracks" : [
                      {
                        "trackIndex" : 0,
                        "medias" : [
                          {
                            "id" : 220,
                            "_type" : "Callout",
                            "def" : {
                              "kind" : "remix",
                              "shape" : "shape-rectangle",
                              "style" : "urban",
                              "fill-color-blue" : {
                                "type" : "double",
                                "defaultValue" : 1.0,
                                "keyframes" : [
                                  {
                                    "endTime" : 56,
                                    "time" : 18,
                                    "value" : 1.0,
                                    "duration" : 38
                                  },
                                  {
                                    "endTime" : 92,
                                    "time" : 56,
                                    "value" : 0.149019607843137,
                                    "duration" : 36
                                  },
                                  {
                                    "endTime" : 174,
                                    "time" : 116,
                                    "value" : 0.149019607843137,
                                    "duration" : 58
                                  }
                                ]
                              },
                              "fill-color-green" : {
                                "type" : "double",
                                "defaultValue" : 1.0,
                                "keyframes" : [
                                  {
                                    "endTime" : 56,
                                    "time" : 18,
                                    "value" : 1.0,
                                    "duration" : 38
                                  },
                                  {
                                    "endTime" : 92,
                                    "time" : 56,
                                    "value" : 0.96078431372549,
                                    "duration" : 36
                                  },
                                  {
                                    "endTime" : 174,
                                    "time" : 116,
                                    "value" : 0.96078431372549,
                                    "duration" : 58
                                  }
                                ]
                              },
                              "fill-color-opacity" : 1.0,
                              "fill-color-red" : {
                                "type" : "double",
                                "defaultValue" : 1.0,
                                "keyframes" : [
                                  {
                                    "endTime" : 56,
                                    "time" : 18,
                                    "value" : 1.0,
                                    "duration" : 38
                                  },
                                  {
                                    "endTime" : 92,
                                    "time" : 56,
                                    "value" : 0.933333333333333,
                                    "duration" : 36
                                  },
                                  {
                                    "endTime" : 174,
                                    "time" : 116,
                                    "value" : 0.933333333333333,
                                    "duration" : 58
                                  }
                                ]
                              },
                              "height" : {
                                "type" : "double",
                                "defaultValue" : 10.8510761260468,
                                "keyframes" : [
                                  {
                                    "endTime" : 56,
                                    "time" : 18,
                                    "value" : 24.9687231850678,
                                    "duration" : 38
                                  },
                                  {
                                    "endTime" : 92,
                                    "time" : 56,
                                    "value" : 1281.28323719656,
                                    "duration" : 36
                                  },
                                  {
                                    "endTime" : 174,
                                    "time" : 116,
                                    "value" : 1347.6353898526,
                                    "duration" : 58
                                  }
                                ]
                              },
                              "stroke-color-blue" : 1.0,
                              "stroke-color-green" : 1.0,
                              "stroke-color-opacity" : 1.0,
                              "stroke-color-red" : 1.0,
                              "stroke-width" : 0.0,
                              "width" : {
                                "type" : "double",
                                "defaultValue" : 6.88782755517832,
                                "keyframes" : [
                                  {
                                    "endTime" : 56,
                                    "time" : 18,
                                    "value" : 67.9394975592671,
                                    "duration" : 38
                                  },
                                  {
                                    "endTime" : 92,
                                    "time" : 56,
                                    "value" : 67.9394975592671,
                                    "duration" : 36
                                  },
                                  {
                                    "endTime" : 174,
                                    "time" : 116,
                                    "value" : 68.0763125888445,
                                    "duration" : 58
                                  }
                                ]
                              },
                              "fill-style" : "solid",
                              "horizontal-alignment" : "center",
                              "stroke-style" : "solid",
                              "vertical-alignment" : "center",
                              "textAttributes" : {
                                "type" : "textAttributeList",
                                "keyframes" : [
                                  {
                                    "endTime" : 0,
                                    "time" : 0,
                                    "value" : null,
                                    "duration" : 0
                                  }
                                ]
                              }
                            },
                            "attributes" : {
                              "autoRotateText" : true
                            },
                            "parameters" : {
                              "translation0" : {
                                "type" : "double",
                                "defaultValue" : -1.21547438780567e-10,
                                "keyframes" : [
                                  {
                                    "endTime" : 56,
                                    "time" : 18,
                                    "value" : -1.21547438780567e-10,
                                    "duration" : 38
                                  },
                                  {
                                    "endTime" : 92,
                                    "time" : 56,
                                    "value" : 0.0541990816513973,
                                    "duration" : 36
                                  },
                                  {
                                    "endTime" : 174,
                                    "time" : 116,
                                    "value" : -1.67577274979808e-14,
                                    "duration" : 58
                                  }
                                ]
                              },
                              "translation1" : {
                                "type" : "double",
                                "defaultValue" : -96.3117858166865,
                                "keyframes" : [
                                  {
                                    "endTime" : 56,
                                    "time" : 18,
                                    "value" : -96.3117858166865,
                                    "duration" : 38
                                  },
                                  {
                                    "endTime" : 92,
                                    "time" : 56,
                                    "value" : -96.3117858166865,
                                    "duration" : 36
                                  },
                                  {
                                    "endTime" : 174,
                                    "time" : 116,
                                    "value" : -658.65796581331,
                                    "duration" : 58
                                  }
                                ]
                              },
                              "rotation2" : {
                                "type" : "double",
                                "defaultValue" : 0.0,
                                "keyframes" : [
                                  {
                                    "endTime" : 56,
                                    "time" : 18,
                                    "value" : -1.5707963267949,
                                    "duration" : 38
                                  }
                                ]
                              }
                            },
                            "effects" : [

                            ],
                            "start" : -30,
                            "duration" : 210,
                            "mediaStart" : -12,
                            "mediaDuration" : 210,
                            "scalar" : 1,
                            "metadata" : {
                              "WinSubProjectDisplayName" : "",
                              "clipSpeedAttribute" : false
                            },
                            "animationTracks" : {
                              "visual" : [
                                {
                                  "endTime" : 56,
                                  "duration" : 38,
                                  "range" : [ 18, 38],
                                  "interp" : "eioe"
                                },
                                {
                                  "endTime" : 92,
                                  "duration" : 36,
                                  "range" : [ 56, 36],
                                  "interp" : "eioe"
                                },
                                {
                                  "endTime" : 174,
                                  "duration" : 58,
                                  "range" : [ 116, 58]
                                }
                              ]
                            }
                          }
                        ],
                          "ident" : "",
                          "audioMuted" : false,
                          "videoHidden" : false,
                          "magnetic" : false,
                          "metadata" : {
                            "IsLocked" : "False",
                            "WinTrackHeight" : "0"
                          }
                      },
                      {
                        "trackIndex" : 1,
                        "medias" : [
                          {
                            "id" : 221,
                            "_type" : "Callout",
                            "def" : {
                              "kind" : "remix",
                              "shape" : "shape-rectangle",
                              "style" : "urban",
                              "fill-color-blue" : {
                                "type" : "double",
                                "defaultValue" : 1.0,
                                "keyframes" : [
                                  {
                                    "endTime" : 54,
                                    "time" : 18,
                                    "value" : 0.149019607843137,
                                    "duration" : 36
                                  },
                                  {
                                    "endTime" : 136,
                                    "time" : 78,
                                    "value" : 1.0,
                                    "duration" : 58
                                  }
                                ]
                              },
                              "fill-color-green" : {
                                "type" : "double",
                                "defaultValue" : 1.0,
                                "keyframes" : [
                                  {
                                    "endTime" : 54,
                                    "time" : 18,
                                    "value" : 0.96078431372549,
                                    "duration" : 36
                                  },
                                  {
                                    "endTime" : 136,
                                    "time" : 78,
                                    "value" : 1.0,
                                    "duration" : 58
                                  }
                                ]
                              },
                              "fill-color-opacity" : 1.0,
                              "fill-color-red" : {
                                "type" : "double",
                                "defaultValue" : 1.0,
                                "keyframes" : [
                                  {
                                    "endTime" : 54,
                                    "time" : 18,
                                    "value" : 0.933333333333333,
                                    "duration" : 36
                                  },
                                  {
                                    "endTime" : 136,
                                    "time" : 78,
                                    "value" : 1.0,
                                    "duration" : 58
                                  }
                                ]
                              },
                              "height" : {
                                "type" : "double",
                                "defaultValue" : 10.8510761260468,
                                "keyframes" : [
                                  {
                                    "endTime" : 54,
                                    "time" : 18,
                                    "value" : 10.8510761260468,
                                    "duration" : 36
                                  },
                                  {
                                    "endTime" : 136,
                                    "time" : 78,
                                    "value" : 10.8510761260468,
                                    "duration" : 58
                                  }
                                ]
                              },
                              "stroke-color-blue" : 1.0,
                              "stroke-color-green" : 1.0,
                              "stroke-color-opacity" : 1.0,
                              "stroke-color-red" : 1.0,
                              "stroke-width" : 0.0,
                              "width" : {
                                "type" : "double",
                                "defaultValue" : 6.88782755517832,
                                "keyframes" : [
                                  {
                                    "endTime" : 54,
                                    "time" : 18,
                                    "value" : 1281.28316541273,
                                    "duration" : 36
                                  },
                                  {
                                    "endTime" : 136,
                                    "time" : 78,
                                    "value" : 1302.87700103543,
                                    "duration" : 58
                                  }
                                ]
                              },
                              "fill-style" : "solid",
                              "horizontal-alignment" : "center",
                              "stroke-style" : "solid",
                              "vertical-alignment" : "center",
                              "textAttributes" : {
                                "type" : "textAttributeList",
                                "keyframes" : [
                                  {
                                    "endTime" : 0,
                                    "time" : 0,
                                    "value" : null,
                                    "duration" : 0
                                  }
                                ]
                              }
                            },
                            "attributes" : {
                              "autoRotateText" : true
                            },
                            "parameters" : {
                              "translation0" : {
                                "type" : "double",
                                "defaultValue" : -1.21547438780567e-10,
                                "keyframes" : [
                                  {
                                    "endTime" : 54,
                                    "time" : 18,
                                    "value" : -0.0541988189824127,
                                    "duration" : 36
                                  },
                                  {
                                    "endTime" : 136,
                                    "time" : 78,
                                    "value" : -1.21547438780567e-10,
                                    "duration" : 58
                                  }
                                ]
                              },
                              "translation1" : {
                                "type" : "double",
                                "defaultValue" : 78.8579651656907,
                                "keyframes" : [
                                  {
                                    "endTime" : 54,
                                    "time" : 18,
                                    "value" : 78.8936575656383,
                                    "duration" : 36
                                  },
                                  {
                                    "endTime" : 136,
                                    "time" : 78,
                                    "value" : 694.705445748916,
                                    "duration" : 58
                                  }
                                ]
                              }
                            },
                            "effects" : [

                            ],
                            "start" : 38,
                            "duration" : 142,
                            "mediaStart" : 18,
                            "mediaDuration" : 142,
                            "scalar" : 1,
                            "metadata" : {
                              "WinSubProjectDisplayName" : "",
                              "clipSpeedAttribute" : false
                            },
                            "animationTracks" : {
                              "visual" : [
                                {
                                  "endTime" : 54,
                                  "duration" : 36,
                                  "range" : [ 18, 36],
                                  "interp" : "eioe"
                                },
                                {
                                  "endTime" : 136,
                                  "duration" : 58,
                                  "range" : [ 78, 58],
                                  "interp" : "eioe"
                                }
                              ]
                            }
                          }
                        ],
                          "ident" : "",
                          "audioMuted" : false,
                          "videoHidden" : false,
                          "magnetic" : false,
                          "metadata" : {
                            "IsLocked" : "False",
                            "WinTrackHeight" : "6.39079466327898e-312"
                          }
                      },
                      {
                        "trackIndex" : 2,
                        "medias" : [
                          {
                            "id" : 222,
                            "_type" : "Callout",
                            "def" : {
                              "kind" : "remix",
                              "shape" : "text",
                              "style" : "abstract",
                              "height" : 180.630981445261,
                              "line-spacing" : 0.0,
                              "width" : 1281.17482864961,
                              "word-wrap" : 1.0,
                              "horizontal-alignment" : "center",
                              "resize-behavior" : "resizeText",
                              "text" : "changing color",
                              "vertical-alignment" : "center",
                              "font" : {
                                "color-blue" : 1.0,
                                "color-green" : 1.0,
                                "color-red" : 1.0,
                                "size" : 96.0,
                                "tracking" : 0.0,
                                "name" : "Lato",
                                "weight" : "Regular"
                              },
                              "textAttributes" : {
                                "type" : "textAttributeList",
                                "keyframes" : [
                                  {
                                    "endTime" : 0,
                                    "time" : 0,
                                    "value" : [{"name":"fgColor","rangeEnd":14,"rangeStart":0,"value":"(255,255,255,255)","valueType":"color"},{"name":"fontSize","rangeEnd":14,"rangeStart":0,"value":128,"valueType":"double"},{"name":"kerning","rangeEnd":14,"rangeStart":0,"value":0,"valueType":"double"},{"name":"strikethrough","rangeEnd":14,"rangeStart":0,"value":0,"valueType":"int"},{"name":"fontItalic","rangeEnd":14,"rangeStart":0,"value":0,"valueType":"int"},{"name":"fontWeight","rangeEnd":14,"rangeStart":0,"value":400,"valueType":"int"},{"name":"underline","rangeEnd":14,"rangeStart":0,"value":0,"valueType":"int"},{"name":"fontName","rangeEnd":14,"rangeStart":0,"value":"Montserrat","valueType":"string"}],
                                    "duration" : 0
                                  }
                                ]
                              }
                            },
                            "attributes" : {
                              "autoRotateText" : true
                            },
                            "parameters" : {
                              "translation0" : {
                                "type" : "double",
                                "defaultValue" : 0.412585675275182,
                                "keyframes" : [
                                  {
                                    "endTime" : 152,
                                    "time" : 94,
                                    "value" : 11.2636728451827,
                                    "duration" : 58
                                  }
                                ]
                              },
                              "translation1" : {
                                "type" : "double",
                                "defaultValue" : -5.81178581660322,
                                "keyframes" : [
                                  {
                                    "endTime" : 152,
                                    "time" : 94,
                                    "value" : 610.000002366703,
                                    "duration" : 58
                                  }
                                ]
                              }
                            },
                            "effects" : [
                                {
                                  "_type" : "GenericBehaviorEffect",
                                  "effectName" : "popUp",
                                  "start" : 34,
                                  "duration" : 142                                ,
                                  "in" : {
                                    "attributes" : {
                                      "name" : "reveal",
                                      "type" : 1,
                                      "characterOrder" : 6,
                                      "offsetBetweenCharacters" : 3,
                                      "suggestedDurationPerCharacter" : 44,
                                      "overlapProportion" : 0,
                                      "movement" : 16,
                                      "springDamping" : 5.0,
                                      "springStiffness" : 50.0,
                                      "bounceBounciness" : 0.45
                                    },
                                    "parameters" : {
                                      "direction" : {
                                        "type" : "int",
                                        "valueBounds" : {
                                          "minValue" : 0,
                                          "maxValue" : 3,
                                          "defaultValue" : 0
                                        },
                                        "uiHints" : {
                                          "userInterfaceType" : 2,
                                          "unitType" : 0
                                        },
                                        "keyframes" : [
                                          {
                                            "endTime" : 0,
                                            "time" : 0,
                                            "value" : 2,
                                            "duration" : 0
                                          }
                                        ]
                                      }
                                    }
                                  
                                  },
                                  "center" : {
                                    "attributes" : {
                                      "name" : "none",
                                      "type" : 1,
                                      "characterOrder" : 6,
                                      "offsetBetweenCharacters" : 0,
                                      "secondsPerLoop" : 1,
                                      "numberOfLoops" : -1,
                                      "delayBetweenLoops" : 0,
                                      "offsetBetweenCharacters" : 0
                                    }
                                  
                                  },
                                  "out" : {
                                    "attributes" : {
                                      "name" : "none",
                                      "type" : 1,
                                      "characterOrder" : 6,
                                      "offsetBetweenCharacters" : 0,
                                      "suggestedDurationPerCharacter" : 0,
                                      "overlapProportion" : 0,
                                      "movement" : -1,
                                      "springDamping" : 5.0,
                                      "springStiffness" : 50.0,
                                      "bounceBounciness" : 0.45
                                    }
                                  
                                  }
                                }
                            ],
                            "start" : 38,
                            "duration" : 142,
                            "mediaStart" : 34,
                            "mediaDuration" : 142,
                            "scalar" : 1,
                            "metadata" : {
                              "WinSubProjectDisplayName" : "",
                              "clipSpeedAttribute" : false,
                              "default-HAlign" : "center",
                              "default-LineSpace" : 0.0,
                              "default-VAlign" : "center",
                              "default-text-attributes" : "[{\"name\":\"fontName\",\"rangeEnd\":15,\"rangeStart\":0,\"value\":\"Montserrat\",\"valueType\":\"string\"},{\"name\":\"fgColor\",\"rangeEnd\":15,\"rangeStart\":0,\"value\":\"(255,255,255,255)\",\"valueType\":\"color\"},{\"name\":\"underline\",\"rangeEnd\":15,\"rangeStart\":0,\"value\":0,\"valueType\":\"int\"},{\"name\":\"strikethrough\",\"rangeEnd\":15,\"rangeStart\":0,\"value\":0,\"valueType\":\"int\"},{\"name\":\"fontSize\",\"rangeEnd\":15,\"rangeStart\":0,\"value\":128,\"valueType\":\"double\"},{\"name\":\"fontItalic\",\"rangeEnd\":15,\"rangeStart\":0,\"value\":0,\"valueType\":\"int\"},{\"name\":\"fontWeight\",\"rangeEnd\":15,\"rangeStart\":0,\"value\":100,\"valueType\":\"int\"}]"
                            },
                            "animationTracks" : {
                              "visual" : [
                                {
                                  "endTime" : 152,
                                  "duration" : 58,
                                  "range" : [ 94, 58],
                                  "interp" : "eioe"
                                }
                              ]
                            }
                          }
                        ],
                          "ident" : "",
                          "audioMuted" : false,
                          "videoHidden" : false,
                          "magnetic" : false,
                          "metadata" : {
                            "IsLocked" : "False",
                            "WinTrackHeight" : "6.39079466327898e-312"
                          }
                      },
                      {
                        "trackIndex" : 3,
                        "medias" : [
                          {
                            "id" : 223,
                            "_type" : "Callout",
                            "def" : {
                              "kind" : "remix",
                              "shape" : "text",
                              "style" : "abstract",
                              "height" : 83.6840731068824,
                              "line-spacing" : 0.0,
                              "width" : 1281.28322521409,
                              "word-wrap" : 1.0,
                              "horizontal-alignment" : "center",
                              "resize-behavior" : "resizeText",
                              "text" : "looks",
                              "vertical-alignment" : "center",
                              "font" : {
                                "color-blue" : 1.0,
                                "color-green" : 1.0,
                                "color-red" : 1.0,
                                "size" : 96.0,
                                "tracking" : 0.0,
                                "name" : "Lato",
                                "weight" : "Regular"
                              },
                              "textAttributes" : {
                                "type" : "textAttributeList",
                                "keyframes" : [
                                  {
                                    "endTime" : 0,
                                    "time" : 0,
                                    "value" : [{"name":"fontWeight","rangeEnd":5,"rangeStart":0,"value":400,"valueType":"int"},{"name":"fontItalic","rangeEnd":5,"rangeStart":0,"value":0,"valueType":"int"},{"name":"fontName","rangeEnd":5,"rangeStart":0,"value":"Montserrat","valueType":"string"},{"name":"fontSize","rangeEnd":5,"rangeStart":0,"value":60,"valueType":"double"},{"name":"kerning","rangeEnd":5,"rangeStart":0,"value":0,"valueType":"double"},{"name":"fgColor","rangeEnd":5,"rangeStart":0,"value":"(0,0,0,255)","valueType":"color"},{"name":"underline","rangeEnd":5,"rangeStart":0,"value":0,"valueType":"int"},{"name":"strikethrough","rangeEnd":5,"rangeStart":0,"value":0,"valueType":"int"}],
                                    "duration" : 0
                                  }
                                ]
                              }
                            },
                            "attributes" : {
                              "autoRotateText" : true
                            },
                            "parameters" : {
                              "translation0" : {
                                "type" : "double",
                                "defaultValue" : 0.304200155246711,
                                "keyframes" : [
                                  {
                                    "endTime" : 110,
                                    "time" : 52,
                                    "value" : -1.86383482943485,
                                    "duration" : 58
                                  }
                                ]
                              },
                              "translation1" : {
                                "type" : "double",
                                "defaultValue" : -96.1538223700724,
                                "keyframes" : [
                                  {
                                    "endTime" : 110,
                                    "time" : 52,
                                    "value" : -658.500002366703,
                                    "duration" : 58
                                  }
                                ]
                              }
                            },
                            "effects" : [
                                {
                                  "_type" : "GenericBehaviorEffect",
                                  "effectName" : "popUp",
                                  "start" : 0,
                                  "duration" : 138                                ,
                                  "in" : {
                                    "attributes" : {
                                      "name" : "reveal",
                                      "type" : 1,
                                      "characterOrder" : 7,
                                      "offsetBetweenCharacters" : 3,
                                      "suggestedDurationPerCharacter" : 44,
                                      "overlapProportion" : 0,
                                      "movement" : 16,
                                      "springDamping" : 5.0,
                                      "springStiffness" : 50.0,
                                      "bounceBounciness" : 0.45
                                    },
                                    "parameters" : {
                                      "direction" : {
                                        "type" : "int",
                                        "valueBounds" : {
                                          "minValue" : 0,
                                          "maxValue" : 3,
                                          "defaultValue" : 0
                                        },
                                        "uiHints" : {
                                          "userInterfaceType" : 2,
                                          "unitType" : 0
                                        },
                                        "keyframes" : [
                                          {
                                            "endTime" : 0,
                                            "time" : 0,
                                            "value" : 0,
                                            "duration" : 0
                                          }
                                        ]
                                      }
                                    }
                                  
                                  },
                                  "center" : {
                                    "attributes" : {
                                      "name" : "none",
                                      "type" : 1,
                                      "characterOrder" : 6,
                                      "offsetBetweenCharacters" : 0,
                                      "secondsPerLoop" : 1,
                                      "numberOfLoops" : -1,
                                      "delayBetweenLoops" : 0,
                                      "offsetBetweenCharacters" : 0
                                    }
                                  
                                  },
                                  "out" : {
                                    "attributes" : {
                                      "name" : "none",
                                      "type" : 1,
                                      "characterOrder" : 6,
                                      "offsetBetweenCharacters" : 0,
                                      "suggestedDurationPerCharacter" : 0,
                                      "overlapProportion" : 0,
                                      "movement" : -1,
                                      "springDamping" : 5.0,
                                      "springStiffness" : 50.0,
                                      "bounceBounciness" : 0.45
                                    }
                                  
                                  }
                                }
                            ],
                            "start" : 42,
                            "duration" : 138,
                            "mediaStart" : 0,
                            "mediaDuration" : 138,
                            "scalar" : 1,
                            "metadata" : {
                              "WinSubProjectDisplayName" : "",
                              "clipSpeedAttribute" : false,
                              "default-HAlign" : "center",
                              "default-LineSpace" : 0.0,
                              "default-VAlign" : "center",
                              "default-text-attributes" : "[{\"name\":\"fontName\",\"rangeEnd\":17,\"rangeStart\":0,\"value\":\"Montserrat\",\"valueType\":\"string\"},{\"name\":\"strikethrough\",\"rangeEnd\":17,\"rangeStart\":0,\"value\":0,\"valueType\":\"int\"},{\"name\":\"fontWeight\",\"rangeEnd\":17,\"rangeStart\":0,\"value\":100,\"valueType\":\"int\"},{\"name\":\"fontSize\",\"rangeEnd\":17,\"rangeStart\":0,\"value\":60,\"valueType\":\"double\"},{\"name\":\"fontItalic\",\"rangeEnd\":17,\"rangeStart\":0,\"value\":0,\"valueType\":\"int\"},{\"name\":\"fgColor\",\"rangeEnd\":17,\"rangeStart\":0,\"value\":\"(0,0,0,255)\",\"valueType\":\"color\"},{\"name\":\"underline\",\"rangeEnd\":17,\"rangeStart\":0,\"value\":0,\"valueType\":\"int\"}]",
                              "default-translation0" : 0.358387392787593
                            },
                            "animationTracks" : {
                              "visual" : [
                                {
                                  "endTime" : 110,
                                  "duration" : 58,
                                  "range" : [ 52, 58],
                                  "interp" : "eioe"
                                }
                              ]
                            }
                          }
                        ],
                          "ident" : "",
                          "audioMuted" : false,
                          "videoHidden" : false,
                          "magnetic" : false,
                          "metadata" : {
                            "IsLocked" : "False",
                            "WinTrackHeight" : "6.39079466327898e-312"
                          }
                      }
                    ],
                    "attributes" : {
                      "ident" : "Simple Bright Title 3",
                      "gain" : 1.0,
                      "mixToMono" : false,
                      "assetProperties" : [
                        {
                          "type" : 0,
                          "name" : "Title",
                          "objects" : [ 222 ],
                          "themeMappings" :  {
                            "font-color" : "foreground-1",
                            "font-family" : "font-1"
                          }
                        },
                        {
                          "type" : 0,
                          "name" : "Subtitle",
                          "objects" : [ 223 ],
                          "themeMappings" :  {
                            "font-color" : "background-1",
                            "font-family" : "font-1"
                          }
                        },
                        {
                          "type" : 1,
                          "name" : "Color 1",
                          "objects" : [ 220, 221 ],
                          "themeMappings" :  {
                            "fill" : "accent-1"
                          }
                        }
                      ]
                    },
                    "effects" : [

                    ],
                    "start" : 14440,
                    "duration" : 210,
                    "mediaStart" : -30.0,
                    "mediaDuration" : 210.0,
                    "scalar" : 1,
                    "metadata" : {
                      "AppliedThemeId" : "",
                      "IsGroupExpanded" : "False",
                      "WinSubProjectDisplayName" : "Simple Bright Title 3",
                      "clipSpeedAttribute" : false,
                      "effectApplied" : "none",
                      "isOpen" : false
                    },
                    "animationTracks" : {

                    }
                  },
                  {
                    "id" : 224,
                    "_type" : "UnifiedMedia",
                    "video" : 
                        {
                          "id" : 225,
                          "_type" : "ScreenVMFile",
                          "src" : 17,
                          "trackNumber" : 0,
                          "attributes" : {
                            "ident" : "scratch-3.6-looks-changing-color"
                          },
                          "parameters" : {
                            "cursorScale" : {
                              "type" : "double",
                              "defaultValue" : 1.0,
                              "interp" : "linr"
                            },
                            "cursorOpacity" : {
                              "type" : "double",
                              "defaultValue" : 1.0,
                              "interp" : "linr"
                            }
                          },
                          "effects" : [

                          ],
                          "start" : 14650,
                          "duration" : 788,
                          "mediaStart" : 0,
                          "mediaDuration" : 788,
                          "scalar" : 1,
                          "animationTracks" : {

                          }
                        },
                    "audio" : 
                        {
                          "id" : 226,
                          "_type" : "AMFile",
                          "src" : 17,
                          "trackNumber" : 1,
                          "attributes" : {
                            "ident" : "",
                            "gain" : 1.0,
                            "mixToMono" : false
                          },
                            "channelNumber" : "0,1",
                          "effects" : [

                          ],
                          "start" : 14650,
                          "duration" : 788,
                          "mediaStart" : 0,
                          "mediaDuration" : 788,
                          "scalar" : 1,
                          "animationTracks" : {

                          }
                        }
,
                    "start" : 14650,
                    "duration" : 788,
                    "mediaStart" : 0,
                    "mediaDuration" : 788,
                    "scalar" : 1,
                    "metadata" : {
                      "AutoAppliedSmartFocus" : "False",
                      "clipSpeedAttribute" : false
                    }
                  },
                  {
                    "id" : 227,
                    "_type" : "Group",
                    "parameters" : {
                      "translation0" : 1.21531229524408e-10,
                      "translation1" : 62.3420348343093,
                      "volume" : 1.0
                    },
                    "tracks" : [
                      {
                        "trackIndex" : 0,
                        "medias" : [
                          {
                            "id" : 228,
                            "_type" : "Callout",
                            "def" : {
                              "kind" : "remix",
                              "shape" : "shape-rectangle",
                              "style" : "urban",
                              "fill-color-blue" : {
                                "type" : "double",
                                "defaultValue" : 1.0,
                                "keyframes" : [
                                  {
                                    "endTime" : 56,
                                    "time" : 18,
                                    "value" : 1.0,
                                    "duration" : 38
                                  },
                                  {
                                    "endTime" : 92,
                                    "time" : 56,
                                    "value" : 0.149019607843137,
                                    "duration" : 36
                                  },
                                  {
                                    "endTime" : 174,
                                    "time" : 116,
                                    "value" : 0.149019607843137,
                                    "duration" : 58
                                  }
                                ]
                              },
                              "fill-color-green" : {
                                "type" : "double",
                                "defaultValue" : 1.0,
                                "keyframes" : [
                                  {
                                    "endTime" : 56,
                                    "time" : 18,
                                    "value" : 1.0,
                                    "duration" : 38
                                  },
                                  {
                                    "endTime" : 92,
                                    "time" : 56,
                                    "value" : 0.96078431372549,
                                    "duration" : 36
                                  },
                                  {
                                    "endTime" : 174,
                                    "time" : 116,
                                    "value" : 0.96078431372549,
                                    "duration" : 58
                                  }
                                ]
                              },
                              "fill-color-opacity" : 1.0,
                              "fill-color-red" : {
                                "type" : "double",
                                "defaultValue" : 1.0,
                                "keyframes" : [
                                  {
                                    "endTime" : 56,
                                    "time" : 18,
                                    "value" : 1.0,
                                    "duration" : 38
                                  },
                                  {
                                    "endTime" : 92,
                                    "time" : 56,
                                    "value" : 0.933333333333333,
                                    "duration" : 36
                                  },
                                  {
                                    "endTime" : 174,
                                    "time" : 116,
                                    "value" : 0.933333333333333,
                                    "duration" : 58
                                  }
                                ]
                              },
                              "height" : {
                                "type" : "double",
                                "defaultValue" : 10.8510761260468,
                                "keyframes" : [
                                  {
                                    "endTime" : 56,
                                    "time" : 18,
                                    "value" : 24.9687231850678,
                                    "duration" : 38
                                  },
                                  {
                                    "endTime" : 92,
                                    "time" : 56,
                                    "value" : 1281.28323719656,
                                    "duration" : 36
                                  },
                                  {
                                    "endTime" : 174,
                                    "time" : 116,
                                    "value" : 1347.6353898526,
                                    "duration" : 58
                                  }
                                ]
                              },
                              "stroke-color-blue" : 1.0,
                              "stroke-color-green" : 1.0,
                              "stroke-color-opacity" : 1.0,
                              "stroke-color-red" : 1.0,
                              "stroke-width" : 0.0,
                              "width" : {
                                "type" : "double",
                                "defaultValue" : 6.88782755517832,
                                "keyframes" : [
                                  {
                                    "endTime" : 56,
                                    "time" : 18,
                                    "value" : 67.9394975592671,
                                    "duration" : 38
                                  },
                                  {
                                    "endTime" : 92,
                                    "time" : 56,
                                    "value" : 67.9394975592671,
                                    "duration" : 36
                                  },
                                  {
                                    "endTime" : 174,
                                    "time" : 116,
                                    "value" : 68.0763125888445,
                                    "duration" : 58
                                  }
                                ]
                              },
                              "fill-style" : "solid",
                              "horizontal-alignment" : "center",
                              "stroke-style" : "solid",
                              "vertical-alignment" : "center",
                              "textAttributes" : {
                                "type" : "textAttributeList",
                                "keyframes" : [
                                  {
                                    "endTime" : 0,
                                    "time" : 0,
                                    "value" : null,
                                    "duration" : 0
                                  }
                                ]
                              }
                            },
                            "attributes" : {
                              "autoRotateText" : true
                            },
                            "parameters" : {
                              "translation0" : {
                                "type" : "double",
                                "defaultValue" : -1.21547438780567e-10,
                                "keyframes" : [
                                  {
                                    "endTime" : 56,
                                    "time" : 18,
                                    "value" : -1.21547438780567e-10,
                                    "duration" : 38
                                  },
                                  {
                                    "endTime" : 92,
                                    "time" : 56,
                                    "value" : 0.0541990816513973,
                                    "duration" : 36
                                  },
                                  {
                                    "endTime" : 174,
                                    "time" : 116,
                                    "value" : -1.67577274979808e-14,
                                    "duration" : 58
                                  }
                                ]
                              },
                              "translation1" : {
                                "type" : "double",
                                "defaultValue" : -96.3117858166865,
                                "keyframes" : [
                                  {
                                    "endTime" : 56,
                                    "time" : 18,
                                    "value" : -96.3117858166865,
                                    "duration" : 38
                                  },
                                  {
                                    "endTime" : 92,
                                    "time" : 56,
                                    "value" : -96.3117858166865,
                                    "duration" : 36
                                  },
                                  {
                                    "endTime" : 174,
                                    "time" : 116,
                                    "value" : -658.65796581331,
                                    "duration" : 58
                                  }
                                ]
                              },
                              "rotation2" : {
                                "type" : "double",
                                "defaultValue" : 0.0,
                                "keyframes" : [
                                  {
                                    "endTime" : 56,
                                    "time" : 18,
                                    "value" : -1.5707963267949,
                                    "duration" : 38
                                  }
                                ]
                              }
                            },
                            "effects" : [

                            ],
                            "start" : -30,
                            "duration" : 210,
                            "mediaStart" : -12,
                            "mediaDuration" : 210,
                            "scalar" : 1,
                            "metadata" : {
                              "WinSubProjectDisplayName" : "",
                              "clipSpeedAttribute" : false
                            },
                            "animationTracks" : {
                              "visual" : [
                                {
                                  "endTime" : 56,
                                  "duration" : 38,
                                  "range" : [ 18, 38],
                                  "interp" : "eioe"
                                },
                                {
                                  "endTime" : 92,
                                  "duration" : 36,
                                  "range" : [ 56, 36],
                                  "interp" : "eioe"
                                },
                                {
                                  "endTime" : 174,
                                  "duration" : 58,
                                  "range" : [ 116, 58]
                                }
                              ]
                            }
                          }
                        ],
                          "ident" : "",
                          "audioMuted" : false,
                          "videoHidden" : false,
                          "magnetic" : false,
                          "metadata" : {
                            "IsLocked" : "False",
                            "WinTrackHeight" : "0"
                          }
                      },
                      {
                        "trackIndex" : 1,
                        "medias" : [
                          {
                            "id" : 229,
                            "_type" : "Callout",
                            "def" : {
                              "kind" : "remix",
                              "shape" : "shape-rectangle",
                              "style" : "urban",
                              "fill-color-blue" : {
                                "type" : "double",
                                "defaultValue" : 1.0,
                                "keyframes" : [
                                  {
                                    "endTime" : 54,
                                    "time" : 18,
                                    "value" : 0.149019607843137,
                                    "duration" : 36
                                  },
                                  {
                                    "endTime" : 136,
                                    "time" : 78,
                                    "value" : 1.0,
                                    "duration" : 58
                                  }
                                ]
                              },
                              "fill-color-green" : {
                                "type" : "double",
                                "defaultValue" : 1.0,
                                "keyframes" : [
                                  {
                                    "endTime" : 54,
                                    "time" : 18,
                                    "value" : 0.96078431372549,
                                    "duration" : 36
                                  },
                                  {
                                    "endTime" : 136,
                                    "time" : 78,
                                    "value" : 1.0,
                                    "duration" : 58
                                  }
                                ]
                              },
                              "fill-color-opacity" : 1.0,
                              "fill-color-red" : {
                                "type" : "double",
                                "defaultValue" : 1.0,
                                "keyframes" : [
                                  {
                                    "endTime" : 54,
                                    "time" : 18,
                                    "value" : 0.933333333333333,
                                    "duration" : 36
                                  },
                                  {
                                    "endTime" : 136,
                                    "time" : 78,
                                    "value" : 1.0,
                                    "duration" : 58
                                  }
                                ]
                              },
                              "height" : {
                                "type" : "double",
                                "defaultValue" : 10.8510761260468,
                                "keyframes" : [
                                  {
                                    "endTime" : 54,
                                    "time" : 18,
                                    "value" : 10.8510761260468,
                                    "duration" : 36
                                  },
                                  {
                                    "endTime" : 136,
                                    "time" : 78,
                                    "value" : 10.8510761260468,
                                    "duration" : 58
                                  }
                                ]
                              },
                              "stroke-color-blue" : 1.0,
                              "stroke-color-green" : 1.0,
                              "stroke-color-opacity" : 1.0,
                              "stroke-color-red" : 1.0,
                              "stroke-width" : 0.0,
                              "width" : {
                                "type" : "double",
                                "defaultValue" : 6.88782755517832,
                                "keyframes" : [
                                  {
                                    "endTime" : 54,
                                    "time" : 18,
                                    "value" : 1281.28316541273,
                                    "duration" : 36
                                  },
                                  {
                                    "endTime" : 136,
                                    "time" : 78,
                                    "value" : 1302.87700103543,
                                    "duration" : 58
                                  }
                                ]
                              },
                              "fill-style" : "solid",
                              "horizontal-alignment" : "center",
                              "stroke-style" : "solid",
                              "vertical-alignment" : "center",
                              "textAttributes" : {
                                "type" : "textAttributeList",
                                "keyframes" : [
                                  {
                                    "endTime" : 0,
                                    "time" : 0,
                                    "value" : null,
                                    "duration" : 0
                                  }
                                ]
                              }
                            },
                            "attributes" : {
                              "autoRotateText" : true
                            },
                            "parameters" : {
                              "translation0" : {
                                "type" : "double",
                                "defaultValue" : -1.21547438780567e-10,
                                "keyframes" : [
                                  {
                                    "endTime" : 54,
                                    "time" : 18,
                                    "value" : -0.0541988189824127,
                                    "duration" : 36
                                  },
                                  {
                                    "endTime" : 136,
                                    "time" : 78,
                                    "value" : -1.21547438780567e-10,
                                    "duration" : 58
                                  }
                                ]
                              },
                              "translation1" : {
                                "type" : "double",
                                "defaultValue" : 78.8579651656907,
                                "keyframes" : [
                                  {
                                    "endTime" : 54,
                                    "time" : 18,
                                    "value" : 78.8936575656383,
                                    "duration" : 36
                                  },
                                  {
                                    "endTime" : 136,
                                    "time" : 78,
                                    "value" : 694.705445748916,
                                    "duration" : 58
                                  }
                                ]
                              }
                            },
                            "effects" : [

                            ],
                            "start" : 38,
                            "duration" : 142,
                            "mediaStart" : 18,
                            "mediaDuration" : 142,
                            "scalar" : 1,
                            "metadata" : {
                              "WinSubProjectDisplayName" : "",
                              "clipSpeedAttribute" : false
                            },
                            "animationTracks" : {
                              "visual" : [
                                {
                                  "endTime" : 54,
                                  "duration" : 36,
                                  "range" : [ 18, 36],
                                  "interp" : "eioe"
                                },
                                {
                                  "endTime" : 136,
                                  "duration" : 58,
                                  "range" : [ 78, 58],
                                  "interp" : "eioe"
                                }
                              ]
                            }
                          }
                        ],
                          "ident" : "",
                          "audioMuted" : false,
                          "videoHidden" : false,
                          "magnetic" : false,
                          "metadata" : {
                            "IsLocked" : "False",
                            "WinTrackHeight" : "6.39079466327898e-312"
                          }
                      },
                      {
                        "trackIndex" : 2,
                        "medias" : [
                          {
                            "id" : 230,
                            "_type" : "Callout",
                            "def" : {
                              "kind" : "remix",
                              "shape" : "text",
                              "style" : "abstract",
                              "height" : 180.630981445261,
                              "line-spacing" : 0.0,
                              "width" : 1281.17482864961,
                              "word-wrap" : 1.0,
                              "horizontal-alignment" : "center",
                              "resize-behavior" : "resizeText",
                              "text" : "showing and hiding",
                              "vertical-alignment" : "center",
                              "font" : {
                                "color-blue" : 1.0,
                                "color-green" : 1.0,
                                "color-red" : 1.0,
                                "size" : 96.0,
                                "tracking" : 0.0,
                                "name" : "Lato",
                                "weight" : "Regular"
                              },
                              "textAttributes" : {
                                "type" : "textAttributeList",
                                "keyframes" : [
                                  {
                                    "endTime" : 0,
                                    "time" : 0,
                                    "value" : [{"name":"underline","rangeEnd":18,"rangeStart":0,"value":0,"valueType":"int"},{"name":"strikethrough","rangeEnd":18,"rangeStart":0,"value":0,"valueType":"int"},{"name":"fgColor","rangeEnd":18,"rangeStart":0,"value":"(255,255,255,255)","valueType":"color"},{"name":"fontWeight","rangeEnd":18,"rangeStart":0,"value":400,"valueType":"int"},{"name":"kerning","rangeEnd":18,"rangeStart":0,"value":0,"valueType":"double"},{"name":"fontItalic","rangeEnd":18,"rangeStart":0,"value":0,"valueType":"int"},{"name":"fontSize","rangeEnd":18,"rangeStart":0,"value":128,"valueType":"double"},{"name":"fontName","rangeEnd":18,"rangeStart":0,"value":"Montserrat","valueType":"string"}],
                                    "duration" : 0
                                  }
                                ]
                              }
                            },
                            "attributes" : {
                              "autoRotateText" : true
                            },
                            "parameters" : {
                              "translation0" : {
                                "type" : "double",
                                "defaultValue" : 0.412585675275182,
                                "keyframes" : [
                                  {
                                    "endTime" : 152,
                                    "time" : 94,
                                    "value" : 11.2636728451827,
                                    "duration" : 58
                                  }
                                ]
                              },
                              "translation1" : {
                                "type" : "double",
                                "defaultValue" : -5.81178581660322,
                                "keyframes" : [
                                  {
                                    "endTime" : 152,
                                    "time" : 94,
                                    "value" : 610.000002366703,
                                    "duration" : 58
                                  }
                                ]
                              }
                            },
                            "effects" : [
                                {
                                  "_type" : "GenericBehaviorEffect",
                                  "effectName" : "popUp",
                                  "start" : 34,
                                  "duration" : 142                                ,
                                  "in" : {
                                    "attributes" : {
                                      "name" : "reveal",
                                      "type" : 1,
                                      "characterOrder" : 6,
                                      "offsetBetweenCharacters" : 3,
                                      "suggestedDurationPerCharacter" : 44,
                                      "overlapProportion" : 0,
                                      "movement" : 16,
                                      "springDamping" : 5.0,
                                      "springStiffness" : 50.0,
                                      "bounceBounciness" : 0.45
                                    },
                                    "parameters" : {
                                      "direction" : {
                                        "type" : "int",
                                        "valueBounds" : {
                                          "minValue" : 0,
                                          "maxValue" : 3,
                                          "defaultValue" : 0
                                        },
                                        "uiHints" : {
                                          "userInterfaceType" : 2,
                                          "unitType" : 0
                                        },
                                        "keyframes" : [
                                          {
                                            "endTime" : 0,
                                            "time" : 0,
                                            "value" : 2,
                                            "duration" : 0
                                          }
                                        ]
                                      }
                                    }
                                  
                                  },
                                  "center" : {
                                    "attributes" : {
                                      "name" : "none",
                                      "type" : 1,
                                      "characterOrder" : 6,
                                      "offsetBetweenCharacters" : 0,
                                      "secondsPerLoop" : 1,
                                      "numberOfLoops" : -1,
                                      "delayBetweenLoops" : 0,
                                      "offsetBetweenCharacters" : 0
                                    }
                                  
                                  },
                                  "out" : {
                                    "attributes" : {
                                      "name" : "none",
                                      "type" : 1,
                                      "characterOrder" : 6,
                                      "offsetBetweenCharacters" : 0,
                                      "suggestedDurationPerCharacter" : 0,
                                      "overlapProportion" : 0,
                                      "movement" : -1,
                                      "springDamping" : 5.0,
                                      "springStiffness" : 50.0,
                                      "bounceBounciness" : 0.45
                                    }
                                  
                                  }
                                }
                            ],
                            "start" : 38,
                            "duration" : 142,
                            "mediaStart" : 34,
                            "mediaDuration" : 142,
                            "scalar" : 1,
                            "metadata" : {
                              "WinSubProjectDisplayName" : "",
                              "clipSpeedAttribute" : false,
                              "default-HAlign" : "center",
                              "default-LineSpace" : 0.0,
                              "default-VAlign" : "center",
                              "default-text-attributes" : "[{\"name\":\"fontName\",\"rangeEnd\":15,\"rangeStart\":0,\"value\":\"Montserrat\",\"valueType\":\"string\"},{\"name\":\"fgColor\",\"rangeEnd\":15,\"rangeStart\":0,\"value\":\"(255,255,255,255)\",\"valueType\":\"color\"},{\"name\":\"underline\",\"rangeEnd\":15,\"rangeStart\":0,\"value\":0,\"valueType\":\"int\"},{\"name\":\"strikethrough\",\"rangeEnd\":15,\"rangeStart\":0,\"value\":0,\"valueType\":\"int\"},{\"name\":\"fontSize\",\"rangeEnd\":15,\"rangeStart\":0,\"value\":128,\"valueType\":\"double\"},{\"name\":\"fontItalic\",\"rangeEnd\":15,\"rangeStart\":0,\"value\":0,\"valueType\":\"int\"},{\"name\":\"fontWeight\",\"rangeEnd\":15,\"rangeStart\":0,\"value\":100,\"valueType\":\"int\"}]"
                            },
                            "animationTracks" : {
                              "visual" : [
                                {
                                  "endTime" : 152,
                                  "duration" : 58,
                                  "range" : [ 94, 58],
                                  "interp" : "eioe"
                                }
                              ]
                            }
                          }
                        ],
                          "ident" : "",
                          "audioMuted" : false,
                          "videoHidden" : false,
                          "magnetic" : false,
                          "metadata" : {
                            "IsLocked" : "False",
                            "WinTrackHeight" : "6.39079466327898e-312"
                          }
                      },
                      {
                        "trackIndex" : 3,
                        "medias" : [
                          {
                            "id" : 231,
                            "_type" : "Callout",
                            "def" : {
                              "kind" : "remix",
                              "shape" : "text",
                              "style" : "abstract",
                              "height" : 83.6840731068824,
                              "line-spacing" : 0.0,
                              "width" : 1281.28322521409,
                              "word-wrap" : 1.0,
                              "horizontal-alignment" : "center",
                              "resize-behavior" : "resizeText",
                              "text" : "looks",
                              "vertical-alignment" : "center",
                              "font" : {
                                "color-blue" : 1.0,
                                "color-green" : 1.0,
                                "color-red" : 1.0,
                                "size" : 96.0,
                                "tracking" : 0.0,
                                "name" : "Lato",
                                "weight" : "Regular"
                              },
                              "textAttributes" : {
                                "type" : "textAttributeList",
                                "keyframes" : [
                                  {
                                    "endTime" : 0,
                                    "time" : 0,
                                    "value" : [{"name":"fontWeight","rangeEnd":5,"rangeStart":0,"value":400,"valueType":"int"},{"name":"fontItalic","rangeEnd":5,"rangeStart":0,"value":0,"valueType":"int"},{"name":"fontName","rangeEnd":5,"rangeStart":0,"value":"Montserrat","valueType":"string"},{"name":"fontSize","rangeEnd":5,"rangeStart":0,"value":60,"valueType":"double"},{"name":"kerning","rangeEnd":5,"rangeStart":0,"value":0,"valueType":"double"},{"name":"fgColor","rangeEnd":5,"rangeStart":0,"value":"(0,0,0,255)","valueType":"color"},{"name":"underline","rangeEnd":5,"rangeStart":0,"value":0,"valueType":"int"},{"name":"strikethrough","rangeEnd":5,"rangeStart":0,"value":0,"valueType":"int"}],
                                    "duration" : 0
                                  }
                                ]
                              }
                            },
                            "attributes" : {
                              "autoRotateText" : true
                            },
                            "parameters" : {
                              "translation0" : {
                                "type" : "double",
                                "defaultValue" : 0.304200155246711,
                                "keyframes" : [
                                  {
                                    "endTime" : 110,
                                    "time" : 52,
                                    "value" : -1.86383482943485,
                                    "duration" : 58
                                  }
                                ]
                              },
                              "translation1" : {
                                "type" : "double",
                                "defaultValue" : -96.1538223700724,
                                "keyframes" : [
                                  {
                                    "endTime" : 110,
                                    "time" : 52,
                                    "value" : -658.500002366703,
                                    "duration" : 58
                                  }
                                ]
                              }
                            },
                            "effects" : [
                                {
                                  "_type" : "GenericBehaviorEffect",
                                  "effectName" : "popUp",
                                  "start" : 0,
                                  "duration" : 138                                ,
                                  "in" : {
                                    "attributes" : {
                                      "name" : "reveal",
                                      "type" : 1,
                                      "characterOrder" : 7,
                                      "offsetBetweenCharacters" : 3,
                                      "suggestedDurationPerCharacter" : 44,
                                      "overlapProportion" : 0,
                                      "movement" : 16,
                                      "springDamping" : 5.0,
                                      "springStiffness" : 50.0,
                                      "bounceBounciness" : 0.45
                                    },
                                    "parameters" : {
                                      "direction" : {
                                        "type" : "int",
                                        "valueBounds" : {
                                          "minValue" : 0,
                                          "maxValue" : 3,
                                          "defaultValue" : 0
                                        },
                                        "uiHints" : {
                                          "userInterfaceType" : 2,
                                          "unitType" : 0
                                        },
                                        "keyframes" : [
                                          {
                                            "endTime" : 0,
                                            "time" : 0,
                                            "value" : 0,
                                            "duration" : 0
                                          }
                                        ]
                                      }
                                    }
                                  
                                  },
                                  "center" : {
                                    "attributes" : {
                                      "name" : "none",
                                      "type" : 1,
                                      "characterOrder" : 6,
                                      "offsetBetweenCharacters" : 0,
                                      "secondsPerLoop" : 1,
                                      "numberOfLoops" : -1,
                                      "delayBetweenLoops" : 0,
                                      "offsetBetweenCharacters" : 0
                                    }
                                  
                                  },
                                  "out" : {
                                    "attributes" : {
                                      "name" : "none",
                                      "type" : 1,
                                      "characterOrder" : 6,
                                      "offsetBetweenCharacters" : 0,
                                      "suggestedDurationPerCharacter" : 0,
                                      "overlapProportion" : 0,
                                      "movement" : -1,
                                      "springDamping" : 5.0,
                                      "springStiffness" : 50.0,
                                      "bounceBounciness" : 0.45
                                    }
                                  
                                  }
                                }
                            ],
                            "start" : 42,
                            "duration" : 138,
                            "mediaStart" : 0,
                            "mediaDuration" : 138,
                            "scalar" : 1,
                            "metadata" : {
                              "WinSubProjectDisplayName" : "",
                              "clipSpeedAttribute" : false,
                              "default-HAlign" : "center",
                              "default-LineSpace" : 0.0,
                              "default-VAlign" : "center",
                              "default-text-attributes" : "[{\"name\":\"fontName\",\"rangeEnd\":17,\"rangeStart\":0,\"value\":\"Montserrat\",\"valueType\":\"string\"},{\"name\":\"strikethrough\",\"rangeEnd\":17,\"rangeStart\":0,\"value\":0,\"valueType\":\"int\"},{\"name\":\"fontWeight\",\"rangeEnd\":17,\"rangeStart\":0,\"value\":100,\"valueType\":\"int\"},{\"name\":\"fontSize\",\"rangeEnd\":17,\"rangeStart\":0,\"value\":60,\"valueType\":\"double\"},{\"name\":\"fontItalic\",\"rangeEnd\":17,\"rangeStart\":0,\"value\":0,\"valueType\":\"int\"},{\"name\":\"fgColor\",\"rangeEnd\":17,\"rangeStart\":0,\"value\":\"(0,0,0,255)\",\"valueType\":\"color\"},{\"name\":\"underline\",\"rangeEnd\":17,\"rangeStart\":0,\"value\":0,\"valueType\":\"int\"}]",
                              "default-translation0" : 0.358387392787593
                            },
                            "animationTracks" : {
                              "visual" : [
                                {
                                  "endTime" : 110,
                                  "duration" : 58,
                                  "range" : [ 52, 58],
                                  "interp" : "eioe"
                                }
                              ]
                            }
                          }
                        ],
                          "ident" : "",
                          "audioMuted" : false,
                          "videoHidden" : false,
                          "magnetic" : false,
                          "metadata" : {
                            "IsLocked" : "False",
                            "WinTrackHeight" : "6.39079466327898e-312"
                          }
                      }
                    ],
                    "attributes" : {
                      "ident" : "Simple Bright Title 3",
                      "gain" : 1.0,
                      "mixToMono" : false,
                      "assetProperties" : [
                        {
                          "type" : 0,
                          "name" : "Title",
                          "objects" : [ 230 ],
                          "themeMappings" :  {
                            "font-color" : "foreground-1",
                            "font-family" : "font-1"
                          }
                        },
                        {
                          "type" : 0,
                          "name" : "Subtitle",
                          "objects" : [ 231 ],
                          "themeMappings" :  {
                            "font-color" : "background-1",
                            "font-family" : "font-1"
                          }
                        },
                        {
                          "type" : 1,
                          "name" : "Color 1",
                          "objects" : [ 228, 229 ],
                          "themeMappings" :  {
                            "fill" : "accent-1"
                          }
                        }
                      ]
                    },
                    "effects" : [

                    ],
                    "start" : 15438,
                    "duration" : 210,
                    "mediaStart" : -30.0,
                    "mediaDuration" : 210.0,
                    "scalar" : 1,
                    "metadata" : {
                      "AppliedThemeId" : "",
                      "IsGroupExpanded" : "False",
                      "WinSubProjectDisplayName" : "Simple Bright Title 3",
                      "clipSpeedAttribute" : false,
                      "effectApplied" : "none",
                      "isOpen" : false
                    },
                    "animationTracks" : {

                    }
                  },
                  {
                    "id" : 232,
                    "_type" : "UnifiedMedia",
                    "video" : 
                        {
                          "id" : 233,
                          "_type" : "ScreenVMFile",
                          "src" : 18,
                          "trackNumber" : 0,
                          "attributes" : {
                            "ident" : "scratch-3.7-looks-showing-and-hiding"
                          },
                          "parameters" : {
                            "cursorScale" : {
                              "type" : "double",
                              "defaultValue" : 1.0,
                              "interp" : "linr"
                            },
                            "cursorOpacity" : {
                              "type" : "double",
                              "defaultValue" : 1.0,
                              "interp" : "linr"
                            }
                          },
                          "effects" : [

                          ],
                          "start" : 15648,
                          "duration" : 606,
                          "mediaStart" : 0,
                          "mediaDuration" : 606,
                          "scalar" : 1,
                          "animationTracks" : {

                          }
                        },
                    "audio" : 
                        {
                          "id" : 234,
                          "_type" : "AMFile",
                          "src" : 18,
                          "trackNumber" : 1,
                          "attributes" : {
                            "ident" : "",
                            "gain" : 1.0,
                            "mixToMono" : false
                          },
                            "channelNumber" : "0,1",
                          "effects" : [

                          ],
                          "start" : 15648,
                          "duration" : 606,
                          "mediaStart" : 0,
                          "mediaDuration" : 606,
                          "scalar" : 1,
                          "animationTracks" : {

                          }
                        }
,
                    "start" : 15648,
                    "duration" : 606,
                    "mediaStart" : 0,
                    "mediaDuration" : 606,
                    "scalar" : 1,
                    "metadata" : {
                      "AutoAppliedSmartFocus" : "False",
                      "clipSpeedAttribute" : false
                    }
                  },
                  {
                    "id" : 235,
                    "_type" : "Group",
                    "parameters" : {
                      "translation0" : 1.21531229524408e-10,
                      "translation1" : 62.3420348343093,
                      "volume" : 1.0
                    },
                    "tracks" : [
                      {
                        "trackIndex" : 0,
                        "medias" : [
                          {
                            "id" : 236,
                            "_type" : "Callout",
                            "def" : {
                              "kind" : "remix",
                              "shape" : "shape-rectangle",
                              "style" : "urban",
                              "fill-color-blue" : {
                                "type" : "double",
                                "defaultValue" : 1.0,
                                "keyframes" : [
                                  {
                                    "endTime" : 56,
                                    "time" : 18,
                                    "value" : 1.0,
                                    "duration" : 38
                                  },
                                  {
                                    "endTime" : 92,
                                    "time" : 56,
                                    "value" : 0.149019607843137,
                                    "duration" : 36
                                  },
                                  {
                                    "endTime" : 174,
                                    "time" : 116,
                                    "value" : 0.149019607843137,
                                    "duration" : 58
                                  }
                                ]
                              },
                              "fill-color-green" : {
                                "type" : "double",
                                "defaultValue" : 1.0,
                                "keyframes" : [
                                  {
                                    "endTime" : 56,
                                    "time" : 18,
                                    "value" : 1.0,
                                    "duration" : 38
                                  },
                                  {
                                    "endTime" : 92,
                                    "time" : 56,
                                    "value" : 0.96078431372549,
                                    "duration" : 36
                                  },
                                  {
                                    "endTime" : 174,
                                    "time" : 116,
                                    "value" : 0.96078431372549,
                                    "duration" : 58
                                  }
                                ]
                              },
                              "fill-color-opacity" : 1.0,
                              "fill-color-red" : {
                                "type" : "double",
                                "defaultValue" : 1.0,
                                "keyframes" : [
                                  {
                                    "endTime" : 56,
                                    "time" : 18,
                                    "value" : 1.0,
                                    "duration" : 38
                                  },
                                  {
                                    "endTime" : 92,
                                    "time" : 56,
                                    "value" : 0.933333333333333,
                                    "duration" : 36
                                  },
                                  {
                                    "endTime" : 174,
                                    "time" : 116,
                                    "value" : 0.933333333333333,
                                    "duration" : 58
                                  }
                                ]
                              },
                              "height" : {
                                "type" : "double",
                                "defaultValue" : 10.8510761260468,
                                "keyframes" : [
                                  {
                                    "endTime" : 56,
                                    "time" : 18,
                                    "value" : 24.9687231850678,
                                    "duration" : 38
                                  },
                                  {
                                    "endTime" : 92,
                                    "time" : 56,
                                    "value" : 1281.28323719656,
                                    "duration" : 36
                                  },
                                  {
                                    "endTime" : 174,
                                    "time" : 116,
                                    "value" : 1347.6353898526,
                                    "duration" : 58
                                  }
                                ]
                              },
                              "stroke-color-blue" : 1.0,
                              "stroke-color-green" : 1.0,
                              "stroke-color-opacity" : 1.0,
                              "stroke-color-red" : 1.0,
                              "stroke-width" : 0.0,
                              "width" : {
                                "type" : "double",
                                "defaultValue" : 6.88782755517832,
                                "keyframes" : [
                                  {
                                    "endTime" : 56,
                                    "time" : 18,
                                    "value" : 67.9394975592671,
                                    "duration" : 38
                                  },
                                  {
                                    "endTime" : 92,
                                    "time" : 56,
                                    "value" : 67.9394975592671,
                                    "duration" : 36
                                  },
                                  {
                                    "endTime" : 174,
                                    "time" : 116,
                                    "value" : 68.0763125888445,
                                    "duration" : 58
                                  }
                                ]
                              },
                              "fill-style" : "solid",
                              "horizontal-alignment" : "center",
                              "stroke-style" : "solid",
                              "vertical-alignment" : "center",
                              "textAttributes" : {
                                "type" : "textAttributeList",
                                "keyframes" : [
                                  {
                                    "endTime" : 0,
                                    "time" : 0,
                                    "value" : null,
                                    "duration" : 0
                                  }
                                ]
                              }
                            },
                            "attributes" : {
                              "autoRotateText" : true
                            },
                            "parameters" : {
                              "translation0" : {
                                "type" : "double",
                                "defaultValue" : -1.21547438780567e-10,
                                "keyframes" : [
                                  {
                                    "endTime" : 56,
                                    "time" : 18,
                                    "value" : -1.21547438780567e-10,
                                    "duration" : 38
                                  },
                                  {
                                    "endTime" : 92,
                                    "time" : 56,
                                    "value" : 0.0541990816513973,
                                    "duration" : 36
                                  },
                                  {
                                    "endTime" : 174,
                                    "time" : 116,
                                    "value" : -1.67577274979808e-14,
                                    "duration" : 58
                                  }
                                ]
                              },
                              "translation1" : {
                                "type" : "double",
                                "defaultValue" : -96.3117858166865,
                                "keyframes" : [
                                  {
                                    "endTime" : 56,
                                    "time" : 18,
                                    "value" : -96.3117858166865,
                                    "duration" : 38
                                  },
                                  {
                                    "endTime" : 92,
                                    "time" : 56,
                                    "value" : -96.3117858166865,
                                    "duration" : 36
                                  },
                                  {
                                    "endTime" : 174,
                                    "time" : 116,
                                    "value" : -658.65796581331,
                                    "duration" : 58
                                  }
                                ]
                              },
                              "rotation2" : {
                                "type" : "double",
                                "defaultValue" : 0.0,
                                "keyframes" : [
                                  {
                                    "endTime" : 56,
                                    "time" : 18,
                                    "value" : -1.5707963267949,
                                    "duration" : 38
                                  }
                                ]
                              }
                            },
                            "effects" : [

                            ],
                            "start" : -30,
                            "duration" : 210,
                            "mediaStart" : -12,
                            "mediaDuration" : 210,
                            "scalar" : 1,
                            "metadata" : {
                              "WinSubProjectDisplayName" : "",
                              "clipSpeedAttribute" : false
                            },
                            "animationTracks" : {
                              "visual" : [
                                {
                                  "endTime" : 56,
                                  "duration" : 38,
                                  "range" : [ 18, 38],
                                  "interp" : "eioe"
                                },
                                {
                                  "endTime" : 92,
                                  "duration" : 36,
                                  "range" : [ 56, 36],
                                  "interp" : "eioe"
                                },
                                {
                                  "endTime" : 174,
                                  "duration" : 58,
                                  "range" : [ 116, 58]
                                }
                              ]
                            }
                          }
                        ],
                          "ident" : "",
                          "audioMuted" : false,
                          "videoHidden" : false,
                          "magnetic" : false,
                          "metadata" : {
                            "IsLocked" : "False",
                            "WinTrackHeight" : "0"
                          }
                      },
                      {
                        "trackIndex" : 1,
                        "medias" : [
                          {
                            "id" : 237,
                            "_type" : "Callout",
                            "def" : {
                              "kind" : "remix",
                              "shape" : "shape-rectangle",
                              "style" : "urban",
                              "fill-color-blue" : {
                                "type" : "double",
                                "defaultValue" : 1.0,
                                "keyframes" : [
                                  {
                                    "endTime" : 54,
                                    "time" : 18,
                                    "value" : 0.149019607843137,
                                    "duration" : 36
                                  },
                                  {
                                    "endTime" : 136,
                                    "time" : 78,
                                    "value" : 1.0,
                                    "duration" : 58
                                  }
                                ]
                              },
                              "fill-color-green" : {
                                "type" : "double",
                                "defaultValue" : 1.0,
                                "keyframes" : [
                                  {
                                    "endTime" : 54,
                                    "time" : 18,
                                    "value" : 0.96078431372549,
                                    "duration" : 36
                                  },
                                  {
                                    "endTime" : 136,
                                    "time" : 78,
                                    "value" : 1.0,
                                    "duration" : 58
                                  }
                                ]
                              },
                              "fill-color-opacity" : 1.0,
                              "fill-color-red" : {
                                "type" : "double",
                                "defaultValue" : 1.0,
                                "keyframes" : [
                                  {
                                    "endTime" : 54,
                                    "time" : 18,
                                    "value" : 0.933333333333333,
                                    "duration" : 36
                                  },
                                  {
                                    "endTime" : 136,
                                    "time" : 78,
                                    "value" : 1.0,
                                    "duration" : 58
                                  }
                                ]
                              },
                              "height" : {
                                "type" : "double",
                                "defaultValue" : 10.8510761260468,
                                "keyframes" : [
                                  {
                                    "endTime" : 54,
                                    "time" : 18,
                                    "value" : 10.8510761260468,
                                    "duration" : 36
                                  },
                                  {
                                    "endTime" : 136,
                                    "time" : 78,
                                    "value" : 10.8510761260468,
                                    "duration" : 58
                                  }
                                ]
                              },
                              "stroke-color-blue" : 1.0,
                              "stroke-color-green" : 1.0,
                              "stroke-color-opacity" : 1.0,
                              "stroke-color-red" : 1.0,
                              "stroke-width" : 0.0,
                              "width" : {
                                "type" : "double",
                                "defaultValue" : 6.88782755517832,
                                "keyframes" : [
                                  {
                                    "endTime" : 54,
                                    "time" : 18,
                                    "value" : 1281.28316541273,
                                    "duration" : 36
                                  },
                                  {
                                    "endTime" : 136,
                                    "time" : 78,
                                    "value" : 1302.87700103543,
                                    "duration" : 58
                                  }
                                ]
                              },
                              "fill-style" : "solid",
                              "horizontal-alignment" : "center",
                              "stroke-style" : "solid",
                              "vertical-alignment" : "center",
                              "textAttributes" : {
                                "type" : "textAttributeList",
                                "keyframes" : [
                                  {
                                    "endTime" : 0,
                                    "time" : 0,
                                    "value" : null,
                                    "duration" : 0
                                  }
                                ]
                              }
                            },
                            "attributes" : {
                              "autoRotateText" : true
                            },
                            "parameters" : {
                              "translation0" : {
                                "type" : "double",
                                "defaultValue" : -1.21547438780567e-10,
                                "keyframes" : [
                                  {
                                    "endTime" : 54,
                                    "time" : 18,
                                    "value" : -0.0541988189824127,
                                    "duration" : 36
                                  },
                                  {
                                    "endTime" : 136,
                                    "time" : 78,
                                    "value" : -1.21547438780567e-10,
                                    "duration" : 58
                                  }
                                ]
                              },
                              "translation1" : {
                                "type" : "double",
                                "defaultValue" : 78.8579651656907,
                                "keyframes" : [
                                  {
                                    "endTime" : 54,
                                    "time" : 18,
                                    "value" : 78.8936575656383,
                                    "duration" : 36
                                  },
                                  {
                                    "endTime" : 136,
                                    "time" : 78,
                                    "value" : 694.705445748916,
                                    "duration" : 58
                                  }
                                ]
                              }
                            },
                            "effects" : [

                            ],
                            "start" : 38,
                            "duration" : 142,
                            "mediaStart" : 18,
                            "mediaDuration" : 142,
                            "scalar" : 1,
                            "metadata" : {
                              "WinSubProjectDisplayName" : "",
                              "clipSpeedAttribute" : false
                            },
                            "animationTracks" : {
                              "visual" : [
                                {
                                  "endTime" : 54,
                                  "duration" : 36,
                                  "range" : [ 18, 36],
                                  "interp" : "eioe"
                                },
                                {
                                  "endTime" : 136,
                                  "duration" : 58,
                                  "range" : [ 78, 58],
                                  "interp" : "eioe"
                                }
                              ]
                            }
                          }
                        ],
                          "ident" : "",
                          "audioMuted" : false,
                          "videoHidden" : false,
                          "magnetic" : false,
                          "metadata" : {
                            "IsLocked" : "False",
                            "WinTrackHeight" : "6.39079466327898e-312"
                          }
                      },
                      {
                        "trackIndex" : 2,
                        "medias" : [
                          {
                            "id" : 238,
                            "_type" : "Callout",
                            "def" : {
                              "kind" : "remix",
                              "shape" : "text",
                              "style" : "abstract",
                              "height" : 180.630981445261,
                              "line-spacing" : 0.0,
                              "width" : 1281.17482864961,
                              "word-wrap" : 1.0,
                              "horizontal-alignment" : "center",
                              "resize-behavior" : "resizeText",
                              "text" : "layers",
                              "vertical-alignment" : "center",
                              "font" : {
                                "color-blue" : 1.0,
                                "color-green" : 1.0,
                                "color-red" : 1.0,
                                "size" : 96.0,
                                "tracking" : 0.0,
                                "name" : "Lato",
                                "weight" : "Regular"
                              },
                              "textAttributes" : {
                                "type" : "textAttributeList",
                                "keyframes" : [
                                  {
                                    "endTime" : 0,
                                    "time" : 0,
                                    "value" : [{"name":"strikethrough","rangeEnd":6,"rangeStart":0,"value":0,"valueType":"int"},{"name":"fontItalic","rangeEnd":6,"rangeStart":0,"value":0,"valueType":"int"},{"name":"fontName","rangeEnd":6,"rangeStart":0,"value":"Montserrat","valueType":"string"},{"name":"fontSize","rangeEnd":6,"rangeStart":0,"value":128,"valueType":"double"},{"name":"underline","rangeEnd":6,"rangeStart":0,"value":0,"valueType":"int"},{"name":"kerning","rangeEnd":6,"rangeStart":0,"value":0,"valueType":"double"},{"name":"fgColor","rangeEnd":6,"rangeStart":0,"value":"(255,255,255,255)","valueType":"color"},{"name":"fontWeight","rangeEnd":6,"rangeStart":0,"value":400,"valueType":"int"}],
                                    "duration" : 0
                                  }
                                ]
                              }
                            },
                            "attributes" : {
                              "autoRotateText" : true
                            },
                            "parameters" : {
                              "translation0" : {
                                "type" : "double",
                                "defaultValue" : 0.412585675275182,
                                "keyframes" : [
                                  {
                                    "endTime" : 152,
                                    "time" : 94,
                                    "value" : 11.2636728451827,
                                    "duration" : 58
                                  }
                                ]
                              },
                              "translation1" : {
                                "type" : "double",
                                "defaultValue" : -5.81178581660322,
                                "keyframes" : [
                                  {
                                    "endTime" : 152,
                                    "time" : 94,
                                    "value" : 610.000002366703,
                                    "duration" : 58
                                  }
                                ]
                              }
                            },
                            "effects" : [
                                {
                                  "_type" : "GenericBehaviorEffect",
                                  "effectName" : "popUp",
                                  "start" : 34,
                                  "duration" : 142                                ,
                                  "in" : {
                                    "attributes" : {
                                      "name" : "reveal",
                                      "type" : 1,
                                      "characterOrder" : 6,
                                      "offsetBetweenCharacters" : 3,
                                      "suggestedDurationPerCharacter" : 44,
                                      "overlapProportion" : 0,
                                      "movement" : 16,
                                      "springDamping" : 5.0,
                                      "springStiffness" : 50.0,
                                      "bounceBounciness" : 0.45
                                    },
                                    "parameters" : {
                                      "direction" : {
                                        "type" : "int",
                                        "valueBounds" : {
                                          "minValue" : 0,
                                          "maxValue" : 3,
                                          "defaultValue" : 0
                                        },
                                        "uiHints" : {
                                          "userInterfaceType" : 2,
                                          "unitType" : 0
                                        },
                                        "keyframes" : [
                                          {
                                            "endTime" : 0,
                                            "time" : 0,
                                            "value" : 2,
                                            "duration" : 0
                                          }
                                        ]
                                      }
                                    }
                                  
                                  },
                                  "center" : {
                                    "attributes" : {
                                      "name" : "none",
                                      "type" : 1,
                                      "characterOrder" : 6,
                                      "offsetBetweenCharacters" : 0,
                                      "secondsPerLoop" : 1,
                                      "numberOfLoops" : -1,
                                      "delayBetweenLoops" : 0,
                                      "offsetBetweenCharacters" : 0
                                    }
                                  
                                  },
                                  "out" : {
                                    "attributes" : {
                                      "name" : "none",
                                      "type" : 1,
                                      "characterOrder" : 6,
                                      "offsetBetweenCharacters" : 0,
                                      "suggestedDurationPerCharacter" : 0,
                                      "overlapProportion" : 0,
                                      "movement" : -1,
                                      "springDamping" : 5.0,
                                      "springStiffness" : 50.0,
                                      "bounceBounciness" : 0.45
                                    }
                                  
                                  }
                                }
                            ],
                            "start" : 38,
                            "duration" : 142,
                            "mediaStart" : 34,
                            "mediaDuration" : 142,
                            "scalar" : 1,
                            "metadata" : {
                              "WinSubProjectDisplayName" : "",
                              "clipSpeedAttribute" : false,
                              "default-HAlign" : "center",
                              "default-LineSpace" : 0.0,
                              "default-VAlign" : "center",
                              "default-text-attributes" : "[{\"name\":\"fontName\",\"rangeEnd\":15,\"rangeStart\":0,\"value\":\"Montserrat\",\"valueType\":\"string\"},{\"name\":\"fgColor\",\"rangeEnd\":15,\"rangeStart\":0,\"value\":\"(255,255,255,255)\",\"valueType\":\"color\"},{\"name\":\"underline\",\"rangeEnd\":15,\"rangeStart\":0,\"value\":0,\"valueType\":\"int\"},{\"name\":\"strikethrough\",\"rangeEnd\":15,\"rangeStart\":0,\"value\":0,\"valueType\":\"int\"},{\"name\":\"fontSize\",\"rangeEnd\":15,\"rangeStart\":0,\"value\":128,\"valueType\":\"double\"},{\"name\":\"fontItalic\",\"rangeEnd\":15,\"rangeStart\":0,\"value\":0,\"valueType\":\"int\"},{\"name\":\"fontWeight\",\"rangeEnd\":15,\"rangeStart\":0,\"value\":100,\"valueType\":\"int\"}]"
                            },
                            "animationTracks" : {
                              "visual" : [
                                {
                                  "endTime" : 152,
                                  "duration" : 58,
                                  "range" : [ 94, 58],
                                  "interp" : "eioe"
                                }
                              ]
                            }
                          }
                        ],
                          "ident" : "",
                          "audioMuted" : false,
                          "videoHidden" : false,
                          "magnetic" : false,
                          "metadata" : {
                            "IsLocked" : "False",
                            "WinTrackHeight" : "6.39079466327898e-312"
                          }
                      },
                      {
                        "trackIndex" : 3,
                        "medias" : [
                          {
                            "id" : 239,
                            "_type" : "Callout",
                            "def" : {
                              "kind" : "remix",
                              "shape" : "text",
                              "style" : "abstract",
                              "height" : 83.6840731068824,
                              "line-spacing" : 0.0,
                              "width" : 1281.28322521409,
                              "word-wrap" : 1.0,
                              "horizontal-alignment" : "center",
                              "resize-behavior" : "resizeText",
                              "text" : "looks",
                              "vertical-alignment" : "center",
                              "font" : {
                                "color-blue" : 1.0,
                                "color-green" : 1.0,
                                "color-red" : 1.0,
                                "size" : 96.0,
                                "tracking" : 0.0,
                                "name" : "Lato",
                                "weight" : "Regular"
                              },
                              "textAttributes" : {
                                "type" : "textAttributeList",
                                "keyframes" : [
                                  {
                                    "endTime" : 0,
                                    "time" : 0,
                                    "value" : [{"name":"fontWeight","rangeEnd":5,"rangeStart":0,"value":400,"valueType":"int"},{"name":"fontItalic","rangeEnd":5,"rangeStart":0,"value":0,"valueType":"int"},{"name":"fontName","rangeEnd":5,"rangeStart":0,"value":"Montserrat","valueType":"string"},{"name":"fontSize","rangeEnd":5,"rangeStart":0,"value":60,"valueType":"double"},{"name":"kerning","rangeEnd":5,"rangeStart":0,"value":0,"valueType":"double"},{"name":"fgColor","rangeEnd":5,"rangeStart":0,"value":"(0,0,0,255)","valueType":"color"},{"name":"underline","rangeEnd":5,"rangeStart":0,"value":0,"valueType":"int"},{"name":"strikethrough","rangeEnd":5,"rangeStart":0,"value":0,"valueType":"int"}],
                                    "duration" : 0
                                  }
                                ]
                              }
                            },
                            "attributes" : {
                              "autoRotateText" : true
                            },
                            "parameters" : {
                              "translation0" : {
                                "type" : "double",
                                "defaultValue" : 0.304200155246711,
                                "keyframes" : [
                                  {
                                    "endTime" : 110,
                                    "time" : 52,
                                    "value" : -1.86383482943485,
                                    "duration" : 58
                                  }
                                ]
                              },
                              "translation1" : {
                                "type" : "double",
                                "defaultValue" : -96.1538223700724,
                                "keyframes" : [
                                  {
                                    "endTime" : 110,
                                    "time" : 52,
                                    "value" : -658.500002366703,
                                    "duration" : 58
                                  }
                                ]
                              }
                            },
                            "effects" : [
                                {
                                  "_type" : "GenericBehaviorEffect",
                                  "effectName" : "popUp",
                                  "start" : 0,
                                  "duration" : 138                                ,
                                  "in" : {
                                    "attributes" : {
                                      "name" : "reveal",
                                      "type" : 1,
                                      "characterOrder" : 7,
                                      "offsetBetweenCharacters" : 3,
                                      "suggestedDurationPerCharacter" : 44,
                                      "overlapProportion" : 0,
                                      "movement" : 16,
                                      "springDamping" : 5.0,
                                      "springStiffness" : 50.0,
                                      "bounceBounciness" : 0.45
                                    },
                                    "parameters" : {
                                      "direction" : {
                                        "type" : "int",
                                        "valueBounds" : {
                                          "minValue" : 0,
                                          "maxValue" : 3,
                                          "defaultValue" : 0
                                        },
                                        "uiHints" : {
                                          "userInterfaceType" : 2,
                                          "unitType" : 0
                                        },
                                        "keyframes" : [
                                          {
                                            "endTime" : 0,
                                            "time" : 0,
                                            "value" : 0,
                                            "duration" : 0
                                          }
                                        ]
                                      }
                                    }
                                  
                                  },
                                  "center" : {
                                    "attributes" : {
                                      "name" : "none",
                                      "type" : 1,
                                      "characterOrder" : 6,
                                      "offsetBetweenCharacters" : 0,
                                      "secondsPerLoop" : 1,
                                      "numberOfLoops" : -1,
                                      "delayBetweenLoops" : 0,
                                      "offsetBetweenCharacters" : 0
                                    }
                                  
                                  },
                                  "out" : {
                                    "attributes" : {
                                      "name" : "none",
                                      "type" : 1,
                                      "characterOrder" : 6,
                                      "offsetBetweenCharacters" : 0,
                                      "suggestedDurationPerCharacter" : 0,
                                      "overlapProportion" : 0,
                                      "movement" : -1,
                                      "springDamping" : 5.0,
                                      "springStiffness" : 50.0,
                                      "bounceBounciness" : 0.45
                                    }
                                  
                                  }
                                }
                            ],
                            "start" : 42,
                            "duration" : 138,
                            "mediaStart" : 0,
                            "mediaDuration" : 138,
                            "scalar" : 1,
                            "metadata" : {
                              "WinSubProjectDisplayName" : "",
                              "clipSpeedAttribute" : false,
                              "default-HAlign" : "center",
                              "default-LineSpace" : 0.0,
                              "default-VAlign" : "center",
                              "default-text-attributes" : "[{\"name\":\"fontName\",\"rangeEnd\":17,\"rangeStart\":0,\"value\":\"Montserrat\",\"valueType\":\"string\"},{\"name\":\"strikethrough\",\"rangeEnd\":17,\"rangeStart\":0,\"value\":0,\"valueType\":\"int\"},{\"name\":\"fontWeight\",\"rangeEnd\":17,\"rangeStart\":0,\"value\":100,\"valueType\":\"int\"},{\"name\":\"fontSize\",\"rangeEnd\":17,\"rangeStart\":0,\"value\":60,\"valueType\":\"double\"},{\"name\":\"fontItalic\",\"rangeEnd\":17,\"rangeStart\":0,\"value\":0,\"valueType\":\"int\"},{\"name\":\"fgColor\",\"rangeEnd\":17,\"rangeStart\":0,\"value\":\"(0,0,0,255)\",\"valueType\":\"color\"},{\"name\":\"underline\",\"rangeEnd\":17,\"rangeStart\":0,\"value\":0,\"valueType\":\"int\"}]",
                              "default-translation0" : 0.358387392787593
                            },
                            "animationTracks" : {
                              "visual" : [
                                {
                                  "endTime" : 110,
                                  "duration" : 58,
                                  "range" : [ 52, 58],
                                  "interp" : "eioe"
                                }
                              ]
                            }
                          }
                        ],
                          "ident" : "",
                          "audioMuted" : false,
                          "videoHidden" : false,
                          "magnetic" : false,
                          "metadata" : {
                            "IsLocked" : "False",
                            "WinTrackHeight" : "6.39079466327898e-312"
                          }
                      }
                    ],
                    "attributes" : {
                      "ident" : "Simple Bright Title 3",
                      "gain" : 1.0,
                      "mixToMono" : false,
                      "assetProperties" : [
                        {
                          "type" : 0,
                          "name" : "Title",
                          "objects" : [ 238 ],
                          "themeMappings" :  {
                            "font-color" : "foreground-1",
                            "font-family" : "font-1"
                          }
                        },
                        {
                          "type" : 0,
                          "name" : "Subtitle",
                          "objects" : [ 239 ],
                          "themeMappings" :  {
                            "font-color" : "background-1",
                            "font-family" : "font-1"
                          }
                        },
                        {
                          "type" : 1,
                          "name" : "Color 1",
                          "objects" : [ 236, 237 ],
                          "themeMappings" :  {
                            "fill" : "accent-1"
                          }
                        }
                      ]
                    },
                    "effects" : [

                    ],
                    "start" : 16254,
                    "duration" : 210,
                    "mediaStart" : -30.0,
                    "mediaDuration" : 210.0,
                    "scalar" : 1,
                    "metadata" : {
                      "AppliedThemeId" : "",
                      "IsGroupExpanded" : "False",
                      "WinSubProjectDisplayName" : "Simple Bright Title 3",
                      "clipSpeedAttribute" : false,
                      "effectApplied" : "none",
                      "isOpen" : false
                    },
                    "animationTracks" : {

                    }
                  },
                  {
                    "id" : 240,
                    "_type" : "UnifiedMedia",
                    "video" : 
                        {
                          "id" : 241,
                          "_type" : "ScreenVMFile",
                          "src" : 19,
                          "trackNumber" : 0,
                          "attributes" : {
                            "ident" : "scratch-3.8-looks-layers"
                          },
                          "parameters" : {
                            "cursorScale" : {
                              "type" : "double",
                              "defaultValue" : 1.0,
                              "interp" : "linr"
                            },
                            "cursorOpacity" : {
                              "type" : "double",
                              "defaultValue" : 1.0,
                              "interp" : "linr"
                            }
                          },
                          "effects" : [

                          ],
                          "start" : 16464,
                          "duration" : 460,
                          "mediaStart" : 0,
                          "mediaDuration" : 460,
                          "scalar" : 1,
                          "animationTracks" : {

                          }
                        },
                    "audio" : 
                        {
                          "id" : 242,
                          "_type" : "AMFile",
                          "src" : 19,
                          "trackNumber" : 1,
                          "attributes" : {
                            "ident" : "",
                            "gain" : 1.0,
                            "mixToMono" : false
                          },
                            "channelNumber" : "0,1",
                          "effects" : [

                          ],
                          "start" : 16464,
                          "duration" : 460,
                          "mediaStart" : 0,
                          "mediaDuration" : 460,
                          "scalar" : 1,
                          "animationTracks" : {

                          }
                        }
,
                    "start" : 16464,
                    "duration" : 460,
                    "mediaStart" : 0,
                    "mediaDuration" : 460,
                    "scalar" : 1,
                    "metadata" : {
                      "AutoAppliedSmartFocus" : "False",
                      "clipSpeedAttribute" : false
                    }
                  },
                  {
                    "id" : 243,
                    "_type" : "Group",
                    "parameters" : {
                      "volume" : 1.0
                    },
                    "tracks" : [
                      {
                        "trackIndex" : 0,
                        "medias" : [
                          {
                            "id" : 244,
                            "_type" : "UnifiedMedia",
                            "video" : 
                                {
                                  "id" : 245,
                                  "_type" : "VMFile",
                                  "src" : 51,
                                  "trackNumber" : 0,
                                  "attributes" : {
                                    "ident" : "Movie"
                                  },
                                  "effects" : [

                                  ],
                                  "start" : 114,
                                  "duration" : 176,
                                  "mediaStart" : 114,
                                  "mediaDuration" : 176,
                                  "scalar" : 1,
                                  "animationTracks" : {

                                  }
                                },
                            "audio" : 
                                {
                                  "id" : 246,
                                  "_type" : "AMFile",
                                  "src" : 51,
                                  "trackNumber" : 1,
                                  "attributes" : {
                                    "ident" : "",
                                    "gain" : 1.0,
                                    "mixToMono" : false
                                  },
                                    "channelNumber" : "0,1",
                                  "effects" : [

                                  ],
                                  "start" : 114,
                                  "duration" : 176,
                                  "mediaStart" : 114,
                                  "mediaDuration" : 176,
                                  "scalar" : 1,
                                  "animationTracks" : {

                                  }
                                }
,
                            "start" : 114,
                            "duration" : 176,
                            "mediaStart" : 0,
                            "mediaDuration" : 438,
                            "scalar" : 1,
                            "metadata" : {
                              "WinSubProjectDisplayName" : "",
                              "clipSpeedAttribute" : false,
                              "effectApplied" : "none"
                            }
                          }
                        ],
                          "ident" : "",
                          "audioMuted" : false,
                          "videoHidden" : false,
                          "magnetic" : false,
                          "metadata" : {
                            "IsLocked" : "False",
                            "WinTrackHeight" : "0",
                            "trackHeight" : "48"
                          }
                      },
                      {
                        "trackIndex" : 1,
                        "medias" : [
                          {
                            "id" : 247,
                            "_type" : "Callout",
                            "def" : {
                              "kind" : "remix",
                              "shape" : "text",
                              "style" : "basic",
                              "height" : 78.4795300319492,
                              "line-spacing" : 0.0,
                              "width" : 583.0,
                              "word-wrap" : 1.0,
                              "horizontal-alignment" : "center",
                              "resize-behavior" : "resizeText",
                              "text" : "motion",
                              "vertical-alignment" : "center",
                              "font" : {
                                "color-blue" : 1.0,
                                "color-green" : 1.0,
                                "color-red" : 1.0,
                                "size" : 96.0,
                                "tracking" : 0.0,
                                "name" : "Montserrat",
                                "weight" : "Regular"
                              },
                              "textAttributes" : {
                                "type" : "textAttributeList",
                                "keyframes" : [
                                  {
                                    "endTime" : 0,
                                    "time" : 0,
                                    "value" : [{"name":"fontWeight","rangeEnd":6,"rangeStart":0,"value":400,"valueType":"int"},{"name":"fontItalic","rangeEnd":6,"rangeStart":0,"value":0,"valueType":"int"},{"name":"fontName","rangeEnd":6,"rangeStart":0,"value":"Montserrat","valueType":"string"},{"name":"fontSize","rangeEnd":6,"rangeStart":0,"value":55,"valueType":"double"},{"name":"fgColor","rangeEnd":6,"rangeStart":0,"value":"(239,231,195,255)","valueType":"color"},{"name":"strikethrough","rangeEnd":6,"rangeStart":0,"value":0,"valueType":"int"},{"name":"underline","rangeEnd":6,"rangeStart":0,"value":0,"valueType":"int"},{"name":"kerning","rangeEnd":6,"rangeStart":0,"value":0,"valueType":"double"}],
                                    "duration" : 0
                                  }
                                ]
                              }
                            },
                            "attributes" : {
                              "autoRotateText" : true
                            },
                            "parameters" : {
                              "translation0" : -1.77887982122371e-11,
                              "translation1" : -100.336673040374
                            },
                            "effects" : [
                                {
                                  "_type" : "GenericBehaviorEffect",
                                  "effectName" : "sliding",
                                  "start" : -18,
                                  "duration" : 80                                ,
                                  "in" : {
                                    "attributes" : {
                                      "name" : "sliding",
                                      "type" : 1,
                                      "characterOrder" : 0,
                                      "offsetBetweenCharacters" : 3,
                                      "suggestedDurationPerCharacter" : "999/50",
                                      "overlapProportion" : "11/20",
                                      "movement" : 16,
                                      "springDamping" : 5.0,
                                      "springStiffness" : 50.0,
                                      "bounceBounciness" : 0.45
                                    },
                                    "parameters" : {
                                      "direction" : {
                                        "type" : "int",
                                        "valueBounds" : {
                                          "minValue" : 0,
                                          "maxValue" : 3,
                                          "defaultValue" : 0
                                        },
                                        "uiHints" : {
                                          "userInterfaceType" : 2,
                                          "unitType" : 0
                                        },
                                        "keyframes" : [
                                          {
                                            "endTime" : 0,
                                            "time" : 0,
                                            "value" : 3,
                                            "duration" : 0
                                          }
                                        ]
                                      }
                                    }
                                  
                                  },
                                  "center" : {
                                    "attributes" : {
                                      "name" : "none",
                                      "type" : 1,
                                      "characterOrder" : 6,
                                      "offsetBetweenCharacters" : 0,
                                      "secondsPerLoop" : 1,
                                      "numberOfLoops" : -1,
                                      "delayBetweenLoops" : 0,
                                      "offsetBetweenCharacters" : 0
                                    }
                                  
                                  },
                                  "out" : {
                                    "attributes" : {
                                      "name" : "none",
                                      "type" : 1,
                                      "characterOrder" : 6,
                                      "offsetBetweenCharacters" : 0,
                                      "suggestedDurationPerCharacter" : 0,
                                      "overlapProportion" : 0,
                                      "movement" : -1,
                                      "springDamping" : 5.0,
                                      "springStiffness" : 50.0,
                                      "bounceBounciness" : 0.45
                                    }
                                  
                                  }
                                }
                            ],
                            "start" : 210,
                            "duration" : 80,
                            "mediaStart" : -18,
                            "mediaDuration" : 80,
                            "scalar" : 1,
                            "metadata" : {
                              "WinSubProjectDisplayName" : "",
                              "clipSpeedAttribute" : false,
                              "default-HAlign" : "center",
                              "default-LineSpace" : 0.0,
                              "default-VAlign" : "center",
                              "default-text-attributes" : "[{\"name\":\"strikethrough\",\"rangeEnd\":13,\"rangeStart\":0,\"value\":0,\"valueType\":\"int\"},{\"name\":\"fontWeight\",\"rangeEnd\":13,\"rangeStart\":0,\"value\":100,\"valueType\":\"int\"},{\"name\":\"fontSize\",\"rangeEnd\":13,\"rangeStart\":0,\"value\":55,\"valueType\":\"double\"},{\"name\":\"underline\",\"rangeEnd\":13,\"rangeStart\":0,\"value\":0,\"valueType\":\"int\"},{\"name\":\"fgColor\",\"rangeEnd\":13,\"rangeStart\":0,\"value\":\"(239,231,195,255)\",\"valueType\":\"color\"},{\"name\":\"fontItalic\",\"rangeEnd\":13,\"rangeStart\":0,\"value\":0,\"valueType\":\"int\"},{\"name\":\"fontName\",\"rangeEnd\":13,\"rangeStart\":0,\"value\":\"Montserrat\",\"valueType\":\"string\"}]",
                              "effectApplied" : "none"
                            },
                            "animationTracks" : {

                            }
                          }
                        ],
                          "ident" : "",
                          "audioMuted" : false,
                          "videoHidden" : false,
                          "magnetic" : false,
                          "metadata" : {
                            "IsLocked" : "False",
                            "WinTrackHeight" : "1.18064664215163e-311",
                            "trackHeight" : "48"
                          }
                      },
                      {
                        "trackIndex" : 2,
                        "medias" : [
                          {
                            "id" : 248,
                            "_type" : "Callout",
                            "def" : {
                              "kind" : "remix",
                              "shape" : "text",
                              "style" : "basic",
                              "height" : 177.714285714305,
                              "line-spacing" : 0.0,
                              "width" : 904.358937127979,
                              "word-wrap" : 1.0,
                              "horizontal-alignment" : "center",
                              "resize-behavior" : "resizeText",
                              "text" : "playing sound",
                              "vertical-alignment" : "center",
                              "font" : {
                                "color-blue" : 1.0,
                                "color-green" : 1.0,
                                "color-red" : 1.0,
                                "size" : 96.0,
                                "tracking" : 0.0,
                                "name" : "Montserrat",
                                "weight" : "Regular"
                              },
                              "textAttributes" : {
                                "type" : "textAttributeList",
                                "keyframes" : [
                                  {
                                    "endTime" : 0,
                                    "time" : 0,
                                    "value" : [{"name":"fontWeight","rangeEnd":13,"rangeStart":0,"value":400,"valueType":"int"},{"name":"kerning","rangeEnd":13,"rangeStart":0,"value":0,"valueType":"double"},{"name":"fontItalic","rangeEnd":13,"rangeStart":0,"value":0,"valueType":"int"},{"name":"strikethrough","rangeEnd":13,"rangeStart":0,"value":0,"valueType":"int"},{"name":"underline","rangeEnd":13,"rangeStart":0,"value":0,"valueType":"int"},{"name":"fontSize","rangeEnd":13,"rangeStart":0,"value":96,"valueType":"double"},{"name":"fontName","rangeEnd":13,"rangeStart":0,"value":"Montserrat","valueType":"string"},{"name":"fgColor","rangeEnd":13,"rangeStart":0,"value":"(241,230,195,255)","valueType":"color"}],
                                    "duration" : 0
                                  }
                                ]
                              }
                            },
                            "attributes" : {
                              "autoRotateText" : true
                            },
                            "parameters" : {
                              "translation0" : 0.320531435861056,
                              "translation1" : 27.642853721879
                            },
                            "effects" : [
                                {
                                  "_type" : "GenericBehaviorEffect",
                                  "effectName" : "scale",
                                  "start" : -52,
                                  "duration" : 176                                ,
                                  "in" : {
                                    "attributes" : {
                                      "name" : "grow",
                                      "type" : 1,
                                      "characterOrder" : 6,
                                      "offsetBetweenCharacters" : 2,
                                      "suggestedDurationPerCharacter" : "2333/25",
                                      "overlapProportion" : "3/4",
                                      "movement" : 30,
                                      "springDamping" : 5.0,
                                      "springStiffness" : 50.0,
                                      "bounceBounciness" : 0.45
                                    }
                                  
                                  },
                                  "center" : {
                                    "attributes" : {
                                      "name" : "none",
                                      "type" : 1,
                                      "characterOrder" : 6,
                                      "offsetBetweenCharacters" : 0,
                                      "secondsPerLoop" : 1,
                                      "numberOfLoops" : -1,
                                      "delayBetweenLoops" : 0,
                                      "offsetBetweenCharacters" : 0
                                    }
                                  
                                  },
                                  "out" : {
                                    "attributes" : {
                                      "name" : "none",
                                      "type" : 1,
                                      "characterOrder" : 6,
                                      "offsetBetweenCharacters" : 0,
                                      "suggestedDurationPerCharacter" : 0,
                                      "overlapProportion" : 0,
                                      "movement" : -1,
                                      "springDamping" : 5.0,
                                      "springStiffness" : 50.0,
                                      "bounceBounciness" : 0.45
                                    }
                                  
                                  }
                                },
                                {
                                  "effectName" : "DropShadow",
                                  "category" : "categoryVisualEffects",
                                  "parameters" : {
                                    "angle" : {
                                      "type" : "double",
                                      "defaultValue" : 4.71238898038469,
                                      "valueBounds" : {
                                        "minValue" : 0.0,
                                        "maxValue" : 0.0,
                                        "defaultValue" : 5.49778714378214
                                      },
                                      "uiHints" : {
                                        "userInterfaceType" : 0,
                                        "unitType" : 0
                                      }
                                    },
                                    "blur" : {
                                      "type" : "double",
                                      "defaultValue" : 3.33066907387547e-16,
                                      "valueBounds" : {
                                        "minValue" : 0.0,
                                        "maxValue" : 50.0,
                                        "defaultValue" : 10.0
                                      },
                                      "uiHints" : {
                                        "userInterfaceType" : 0,
                                        "unitType" : 0
                                      }
                                    },
                                    "color-alpha" : {
                                      "type" : "double",
                                      "defaultValue" : 1.0,
                                      "valueBounds" : {
                                        "minValue" : 0.0,
                                        "maxValue" : 1.0,
                                        "defaultValue" : 1.0
                                      },
                                      "uiHints" : {
                                        "userInterfaceType" : 0,
                                        "unitType" : 0
                                      }
                                    },
                                    "color-blue" : {
                                      "type" : "double",
                                      "defaultValue" : 0.1216,
                                      "valueBounds" : {
                                        "minValue" : 0.0,
                                        "maxValue" : 1.0,
                                        "defaultValue" : 0.1216
                                      },
                                      "uiHints" : {
                                        "userInterfaceType" : 0,
                                        "unitType" : 0
                                      }
                                    },
                                    "color-green" : {
                                      "type" : "double",
                                      "defaultValue" : 0.1216,
                                      "valueBounds" : {
                                        "minValue" : 0.0,
                                        "maxValue" : 1.0,
                                        "defaultValue" : 0.1216
                                      },
                                      "uiHints" : {
                                        "userInterfaceType" : 0,
                                        "unitType" : 0
                                      }
                                    },
                                    "color-red" : {
                                      "type" : "double",
                                      "defaultValue" : 0.1216,
                                      "valueBounds" : {
                                        "minValue" : 0.0,
                                        "maxValue" : 1.0,
                                        "defaultValue" : 0.1216
                                      },
                                      "uiHints" : {
                                        "userInterfaceType" : 0,
                                        "unitType" : 0
                                      }
                                    },
                                    "enabled" : {
                                      "type" : "int",
                                      "valueBounds" : {
                                        "minValue" : 0,
                                        "maxValue" : 1,
                                        "defaultValue" : 1
                                      },
                                      "uiHints" : {
                                        "userInterfaceType" : 0,
                                        "unitType" : 0
                                      },
                                      "keyframes" : [
                                        {
                                          "endTime" : 0,
                                          "time" : 0,
                                          "value" : 1,
                                          "duration" : 0
                                        }
                                      ]
                                    },
                                    "offset" : {
                                      "type" : "double",
                                      "defaultValue" : 10.0,
                                      "valueBounds" : {
                                        "minValue" : 0.0,
                                        "maxValue" : 250.0,
                                        "defaultValue" : 10.0
                                      },
                                      "uiHints" : {
                                        "userInterfaceType" : 0,
                                        "unitType" : 0
                                      }
                                    },
                                    "opacity" : {
                                      "type" : "double",
                                      "defaultValue" : 0.741666666666667,
                                      "valueBounds" : {
                                        "minValue" : 0.0,
                                        "maxValue" : 1.0,
                                        "defaultValue" : 0.4
                                      },
                                      "uiHints" : {
                                        "userInterfaceType" : 0,
                                        "unitType" : 0
                                      }
                                    }
                                  }
                                }
                            ],
                            "start" : 114,
                            "duration" : 176,
                            "mediaStart" : -52,
                            "mediaDuration" : 176,
                            "scalar" : 1,
                            "metadata" : {
                              "WinSubProjectDisplayName" : "",
                              "clipSpeedAttribute" : false,
                              "default-HAlign" : "center",
                              "default-LineSpace" : 0.0,
                              "default-VAlign" : "center",
                              "default-text-attributes" : "[{\"name\":\"fontItalic\",\"rangeEnd\":9,\"rangeStart\":0,\"value\":0,\"valueType\":\"int\"},{\"name\":\"fontSize\",\"rangeEnd\":9,\"rangeStart\":0,\"value\":96,\"valueType\":\"double\"},{\"name\":\"fontName\",\"rangeEnd\":9,\"rangeStart\":0,\"value\":\"Montserrat\",\"valueType\":\"string\"},{\"name\":\"underline\",\"rangeEnd\":9,\"rangeStart\":0,\"value\":0,\"valueType\":\"int\"},{\"name\":\"fontWeight\",\"rangeEnd\":9,\"rangeStart\":0,\"value\":100,\"valueType\":\"int\"},{\"name\":\"strikethrough\",\"rangeEnd\":9,\"rangeStart\":0,\"value\":0,\"valueType\":\"int\"},{\"name\":\"fgColor\",\"rangeEnd\":9,\"rangeStart\":0,\"value\":\"(241,230,195,255)\",\"valueType\":\"color\"}]",
                              "default-translation0" : -66.0174967329584,
                              "default-translation1" : 46.64285714285,
                              "effectApplied" : "none"
                            },
                            "animationTracks" : {

                            }
                          }
                        ],
                          "ident" : "",
                          "audioMuted" : false,
                          "videoHidden" : false,
                          "magnetic" : false,
                          "metadata" : {
                            "IsLocked" : "False",
                            "WinTrackHeight" : "1.18064664215163e-311",
                            "trackHeight" : "48"
                          }
                      }
                    ],
                    "attributes" : {
                      "ident" : "squarepegs",
                      "gain" : 1.0,
                      "mixToMono" : false,
                      "assetProperties" : [
                        {
                          "type" : 0,
                          "name" : "Title",
                          "objects" : [ 248 ],
                          "themeMappings" :  {
                            "font-color" : "foreground-1",
                            "font-family" : "font-1"
                          }
                        },
                        {
                          "type" : 0,
                          "name" : "Subtitle",
                          "objects" : [ 247 ],
                          "themeMappings" :  {
                            "font-color" : "foreground-1",
                            "font-family" : "font-1"
                          }
                        }
                      ]
                    },
                    "effects" : [

                    ],
                    "start" : 16924,
                    "duration" : 176,
                    "mediaStart" : 114.0,
                    "mediaDuration" : 176.0,
                    "scalar" : 1,
                    "metadata" : {
                      "IsGroupExpanded" : "False",
                      "WinSubProjectDisplayName" : "",
                      "clipSpeedAttribute" : false,
                      "effectApplied" : "none",
                      "isOpen" : false
                    },
                    "animationTracks" : {

                    }
                  },
                  {
                    "id" : 249,
                    "_type" : "UnifiedMedia",
                    "video" : 
                        {
                          "id" : 250,
                          "_type" : "ScreenVMFile",
                          "src" : 20,
                          "trackNumber" : 0,
                          "attributes" : {
                            "ident" : "scratch-4.1-sound-playing-sound"
                          },
                          "parameters" : {
                            "cursorScale" : {
                              "type" : "double",
                              "defaultValue" : 1.0,
                              "interp" : "linr"
                            },
                            "cursorOpacity" : {
                              "type" : "double",
                              "defaultValue" : 1.0,
                              "interp" : "linr"
                            }
                          },
                          "effects" : [

                          ],
                          "start" : 17100,
                          "duration" : 592,
                          "mediaStart" : 0,
                          "mediaDuration" : 592,
                          "scalar" : 1,
                          "animationTracks" : {

                          }
                        },
                    "audio" : 
                        {
                          "id" : 251,
                          "_type" : "AMFile",
                          "src" : 20,
                          "trackNumber" : 1,
                          "attributes" : {
                            "ident" : "",
                            "gain" : 1.0,
                            "mixToMono" : false
                          },
                            "channelNumber" : "0,1",
                          "effects" : [

                          ],
                          "start" : 17100,
                          "duration" : 592,
                          "mediaStart" : 0,
                          "mediaDuration" : 592,
                          "scalar" : 1,
                          "animationTracks" : {

                          }
                        }
,
                    "start" : 17100,
                    "duration" : 592,
                    "mediaStart" : 0,
                    "mediaDuration" : 592,
                    "scalar" : 1,
                    "metadata" : {
                      "AutoAppliedSmartFocus" : "False",
                      "clipSpeedAttribute" : false
                    }
                  },
                  {
                    "id" : 252,
                    "_type" : "Group",
                    "parameters" : {
                      "volume" : 1.0
                    },
                    "tracks" : [
                      {
                        "trackIndex" : 0,
                        "medias" : [
                          {
                            "id" : 253,
                            "_type" : "UnifiedMedia",
                            "video" : 
                                {
                                  "id" : 254,
                                  "_type" : "VMFile",
                                  "src" : 51,
                                  "trackNumber" : 0,
                                  "attributes" : {
                                    "ident" : "Movie"
                                  },
                                  "effects" : [

                                  ],
                                  "start" : 114,
                                  "duration" : 176,
                                  "mediaStart" : 114,
                                  "mediaDuration" : 176,
                                  "scalar" : 1,
                                  "animationTracks" : {

                                  }
                                },
                            "audio" : 
                                {
                                  "id" : 255,
                                  "_type" : "AMFile",
                                  "src" : 51,
                                  "trackNumber" : 1,
                                  "attributes" : {
                                    "ident" : "",
                                    "gain" : 1.0,
                                    "mixToMono" : false
                                  },
                                    "channelNumber" : "0,1",
                                  "effects" : [

                                  ],
                                  "start" : 114,
                                  "duration" : 176,
                                  "mediaStart" : 114,
                                  "mediaDuration" : 176,
                                  "scalar" : 1,
                                  "animationTracks" : {

                                  }
                                }
,
                            "start" : 114,
                            "duration" : 176,
                            "mediaStart" : 0,
                            "mediaDuration" : 438,
                            "scalar" : 1,
                            "metadata" : {
                              "WinSubProjectDisplayName" : "",
                              "clipSpeedAttribute" : false,
                              "effectApplied" : "none"
                            }
                          }
                        ],
                          "ident" : "",
                          "audioMuted" : false,
                          "videoHidden" : false,
                          "magnetic" : false,
                          "metadata" : {
                            "IsLocked" : "False",
                            "WinTrackHeight" : "0",
                            "trackHeight" : "48"
                          }
                      },
                      {
                        "trackIndex" : 1,
                        "medias" : [
                          {
                            "id" : 256,
                            "_type" : "Callout",
                            "def" : {
                              "kind" : "remix",
                              "shape" : "text",
                              "style" : "basic",
                              "height" : 78.4795300319492,
                              "line-spacing" : 0.0,
                              "width" : 583.0,
                              "word-wrap" : 1.0,
                              "horizontal-alignment" : "center",
                              "resize-behavior" : "resizeText",
                              "text" : "motion",
                              "vertical-alignment" : "center",
                              "font" : {
                                "color-blue" : 1.0,
                                "color-green" : 1.0,
                                "color-red" : 1.0,
                                "size" : 96.0,
                                "tracking" : 0.0,
                                "name" : "Montserrat",
                                "weight" : "Regular"
                              },
                              "textAttributes" : {
                                "type" : "textAttributeList",
                                "keyframes" : [
                                  {
                                    "endTime" : 0,
                                    "time" : 0,
                                    "value" : [{"name":"fontWeight","rangeEnd":6,"rangeStart":0,"value":400,"valueType":"int"},{"name":"fontItalic","rangeEnd":6,"rangeStart":0,"value":0,"valueType":"int"},{"name":"fontName","rangeEnd":6,"rangeStart":0,"value":"Montserrat","valueType":"string"},{"name":"fontSize","rangeEnd":6,"rangeStart":0,"value":55,"valueType":"double"},{"name":"fgColor","rangeEnd":6,"rangeStart":0,"value":"(239,231,195,255)","valueType":"color"},{"name":"strikethrough","rangeEnd":6,"rangeStart":0,"value":0,"valueType":"int"},{"name":"underline","rangeEnd":6,"rangeStart":0,"value":0,"valueType":"int"},{"name":"kerning","rangeEnd":6,"rangeStart":0,"value":0,"valueType":"double"}],
                                    "duration" : 0
                                  }
                                ]
                              }
                            },
                            "attributes" : {
                              "autoRotateText" : true
                            },
                            "parameters" : {
                              "translation0" : -1.77887982122371e-11,
                              "translation1" : -100.336673040374
                            },
                            "effects" : [
                                {
                                  "_type" : "GenericBehaviorEffect",
                                  "effectName" : "sliding",
                                  "start" : -18,
                                  "duration" : 80                                ,
                                  "in" : {
                                    "attributes" : {
                                      "name" : "sliding",
                                      "type" : 1,
                                      "characterOrder" : 0,
                                      "offsetBetweenCharacters" : 3,
                                      "suggestedDurationPerCharacter" : "999/50",
                                      "overlapProportion" : "11/20",
                                      "movement" : 16,
                                      "springDamping" : 5.0,
                                      "springStiffness" : 50.0,
                                      "bounceBounciness" : 0.45
                                    },
                                    "parameters" : {
                                      "direction" : {
                                        "type" : "int",
                                        "valueBounds" : {
                                          "minValue" : 0,
                                          "maxValue" : 3,
                                          "defaultValue" : 0
                                        },
                                        "uiHints" : {
                                          "userInterfaceType" : 2,
                                          "unitType" : 0
                                        },
                                        "keyframes" : [
                                          {
                                            "endTime" : 0,
                                            "time" : 0,
                                            "value" : 3,
                                            "duration" : 0
                                          }
                                        ]
                                      }
                                    }
                                  
                                  },
                                  "center" : {
                                    "attributes" : {
                                      "name" : "none",
                                      "type" : 1,
                                      "characterOrder" : 6,
                                      "offsetBetweenCharacters" : 0,
                                      "secondsPerLoop" : 1,
                                      "numberOfLoops" : -1,
                                      "delayBetweenLoops" : 0,
                                      "offsetBetweenCharacters" : 0
                                    }
                                  
                                  },
                                  "out" : {
                                    "attributes" : {
                                      "name" : "none",
                                      "type" : 1,
                                      "characterOrder" : 6,
                                      "offsetBetweenCharacters" : 0,
                                      "suggestedDurationPerCharacter" : 0,
                                      "overlapProportion" : 0,
                                      "movement" : -1,
                                      "springDamping" : 5.0,
                                      "springStiffness" : 50.0,
                                      "bounceBounciness" : 0.45
                                    }
                                  
                                  }
                                }
                            ],
                            "start" : 210,
                            "duration" : 80,
                            "mediaStart" : -18,
                            "mediaDuration" : 80,
                            "scalar" : 1,
                            "metadata" : {
                              "WinSubProjectDisplayName" : "",
                              "clipSpeedAttribute" : false,
                              "default-HAlign" : "center",
                              "default-LineSpace" : 0.0,
                              "default-VAlign" : "center",
                              "default-text-attributes" : "[{\"name\":\"strikethrough\",\"rangeEnd\":13,\"rangeStart\":0,\"value\":0,\"valueType\":\"int\"},{\"name\":\"fontWeight\",\"rangeEnd\":13,\"rangeStart\":0,\"value\":100,\"valueType\":\"int\"},{\"name\":\"fontSize\",\"rangeEnd\":13,\"rangeStart\":0,\"value\":55,\"valueType\":\"double\"},{\"name\":\"underline\",\"rangeEnd\":13,\"rangeStart\":0,\"value\":0,\"valueType\":\"int\"},{\"name\":\"fgColor\",\"rangeEnd\":13,\"rangeStart\":0,\"value\":\"(239,231,195,255)\",\"valueType\":\"color\"},{\"name\":\"fontItalic\",\"rangeEnd\":13,\"rangeStart\":0,\"value\":0,\"valueType\":\"int\"},{\"name\":\"fontName\",\"rangeEnd\":13,\"rangeStart\":0,\"value\":\"Montserrat\",\"valueType\":\"string\"}]",
                              "effectApplied" : "none"
                            },
                            "animationTracks" : {

                            }
                          }
                        ],
                          "ident" : "",
                          "audioMuted" : false,
                          "videoHidden" : false,
                          "magnetic" : false,
                          "metadata" : {
                            "IsLocked" : "False",
                            "WinTrackHeight" : "1.18064664215163e-311",
                            "trackHeight" : "48"
                          }
                      },
                      {
                        "trackIndex" : 2,
                        "medias" : [
                          {
                            "id" : 257,
                            "_type" : "Callout",
                            "def" : {
                              "kind" : "remix",
                              "shape" : "text",
                              "style" : "basic",
                              "height" : 177.714285714305,
                              "line-spacing" : 0.0,
                              "width" : 904.358937127979,
                              "word-wrap" : 1.0,
                              "horizontal-alignment" : "center",
                              "resize-behavior" : "resizeText",
                              "text" : "changing pitch and pan effects",
                              "vertical-alignment" : "center",
                              "font" : {
                                "color-blue" : 1.0,
                                "color-green" : 1.0,
                                "color-red" : 1.0,
                                "size" : 96.0,
                                "tracking" : 0.0,
                                "name" : "Montserrat",
                                "weight" : "Regular"
                              },
                              "textAttributes" : {
                                "type" : "textAttributeList",
                                "keyframes" : [
                                  {
                                    "endTime" : 0,
                                    "time" : 0,
                                    "value" : [{"name":"fontName","rangeEnd":30,"rangeStart":0,"value":"Montserrat","valueType":"string"},{"name":"fgColor","rangeEnd":30,"rangeStart":0,"value":"(241,230,195,255)","valueType":"color"},{"name":"kerning","rangeEnd":30,"rangeStart":0,"value":0,"valueType":"double"},{"name":"fontSize","rangeEnd":30,"rangeStart":0,"value":96,"valueType":"double"},{"name":"fontWeight","rangeEnd":30,"rangeStart":0,"value":400,"valueType":"int"},{"name":"fontItalic","rangeEnd":30,"rangeStart":0,"value":0,"valueType":"int"},{"name":"underline","rangeEnd":30,"rangeStart":0,"value":0,"valueType":"int"},{"name":"strikethrough","rangeEnd":30,"rangeStart":0,"value":0,"valueType":"int"}],
                                    "duration" : 0
                                  }
                                ]
                              }
                            },
                            "attributes" : {
                              "autoRotateText" : true
                            },
                            "parameters" : {
                              "translation0" : 0.320531435861056,
                              "translation1" : 27.642853721879
                            },
                            "effects" : [
                                {
                                  "_type" : "GenericBehaviorEffect",
                                  "effectName" : "scale",
                                  "start" : -52,
                                  "duration" : 176                                ,
                                  "in" : {
                                    "attributes" : {
                                      "name" : "grow",
                                      "type" : 1,
                                      "characterOrder" : 6,
                                      "offsetBetweenCharacters" : 2,
                                      "suggestedDurationPerCharacter" : "2333/25",
                                      "overlapProportion" : "3/4",
                                      "movement" : 30,
                                      "springDamping" : 5.0,
                                      "springStiffness" : 50.0,
                                      "bounceBounciness" : 0.45
                                    }
                                  
                                  },
                                  "center" : {
                                    "attributes" : {
                                      "name" : "none",
                                      "type" : 1,
                                      "characterOrder" : 6,
                                      "offsetBetweenCharacters" : 0,
                                      "secondsPerLoop" : 1,
                                      "numberOfLoops" : -1,
                                      "delayBetweenLoops" : 0,
                                      "offsetBetweenCharacters" : 0
                                    }
                                  
                                  },
                                  "out" : {
                                    "attributes" : {
                                      "name" : "none",
                                      "type" : 1,
                                      "characterOrder" : 6,
                                      "offsetBetweenCharacters" : 0,
                                      "suggestedDurationPerCharacter" : 0,
                                      "overlapProportion" : 0,
                                      "movement" : -1,
                                      "springDamping" : 5.0,
                                      "springStiffness" : 50.0,
                                      "bounceBounciness" : 0.45
                                    }
                                  
                                  }
                                },
                                {
                                  "effectName" : "DropShadow",
                                  "category" : "categoryVisualEffects",
                                  "parameters" : {
                                    "angle" : {
                                      "type" : "double",
                                      "defaultValue" : 4.71238898038469,
                                      "valueBounds" : {
                                        "minValue" : 0.0,
                                        "maxValue" : 0.0,
                                        "defaultValue" : 5.49778714378214
                                      },
                                      "uiHints" : {
                                        "userInterfaceType" : 0,
                                        "unitType" : 0
                                      }
                                    },
                                    "blur" : {
                                      "type" : "double",
                                      "defaultValue" : 3.33066907387547e-16,
                                      "valueBounds" : {
                                        "minValue" : 0.0,
                                        "maxValue" : 50.0,
                                        "defaultValue" : 10.0
                                      },
                                      "uiHints" : {
                                        "userInterfaceType" : 0,
                                        "unitType" : 0
                                      }
                                    },
                                    "color-alpha" : {
                                      "type" : "double",
                                      "defaultValue" : 1.0,
                                      "valueBounds" : {
                                        "minValue" : 0.0,
                                        "maxValue" : 1.0,
                                        "defaultValue" : 1.0
                                      },
                                      "uiHints" : {
                                        "userInterfaceType" : 0,
                                        "unitType" : 0
                                      }
                                    },
                                    "color-blue" : {
                                      "type" : "double",
                                      "defaultValue" : 0.1216,
                                      "valueBounds" : {
                                        "minValue" : 0.0,
                                        "maxValue" : 1.0,
                                        "defaultValue" : 0.1216
                                      },
                                      "uiHints" : {
                                        "userInterfaceType" : 0,
                                        "unitType" : 0
                                      }
                                    },
                                    "color-green" : {
                                      "type" : "double",
                                      "defaultValue" : 0.1216,
                                      "valueBounds" : {
                                        "minValue" : 0.0,
                                        "maxValue" : 1.0,
                                        "defaultValue" : 0.1216
                                      },
                                      "uiHints" : {
                                        "userInterfaceType" : 0,
                                        "unitType" : 0
                                      }
                                    },
                                    "color-red" : {
                                      "type" : "double",
                                      "defaultValue" : 0.1216,
                                      "valueBounds" : {
                                        "minValue" : 0.0,
                                        "maxValue" : 1.0,
                                        "defaultValue" : 0.1216
                                      },
                                      "uiHints" : {
                                        "userInterfaceType" : 0,
                                        "unitType" : 0
                                      }
                                    },
                                    "enabled" : {
                                      "type" : "int",
                                      "valueBounds" : {
                                        "minValue" : 0,
                                        "maxValue" : 1,
                                        "defaultValue" : 1
                                      },
                                      "uiHints" : {
                                        "userInterfaceType" : 0,
                                        "unitType" : 0
                                      },
                                      "keyframes" : [
                                        {
                                          "endTime" : 0,
                                          "time" : 0,
                                          "value" : 1,
                                          "duration" : 0
                                        }
                                      ]
                                    },
                                    "offset" : {
                                      "type" : "double",
                                      "defaultValue" : 10.0,
                                      "valueBounds" : {
                                        "minValue" : 0.0,
                                        "maxValue" : 250.0,
                                        "defaultValue" : 10.0
                                      },
                                      "uiHints" : {
                                        "userInterfaceType" : 0,
                                        "unitType" : 0
                                      }
                                    },
                                    "opacity" : {
                                      "type" : "double",
                                      "defaultValue" : 0.741666666666667,
                                      "valueBounds" : {
                                        "minValue" : 0.0,
                                        "maxValue" : 1.0,
                                        "defaultValue" : 0.4
                                      },
                                      "uiHints" : {
                                        "userInterfaceType" : 0,
                                        "unitType" : 0
                                      }
                                    }
                                  }
                                }
                            ],
                            "start" : 114,
                            "duration" : 176,
                            "mediaStart" : -52,
                            "mediaDuration" : 176,
                            "scalar" : 1,
                            "metadata" : {
                              "WinSubProjectDisplayName" : "",
                              "clipSpeedAttribute" : false,
                              "default-HAlign" : "center",
                              "default-LineSpace" : 0.0,
                              "default-VAlign" : "center",
                              "default-text-attributes" : "[{\"name\":\"fontItalic\",\"rangeEnd\":9,\"rangeStart\":0,\"value\":0,\"valueType\":\"int\"},{\"name\":\"fontSize\",\"rangeEnd\":9,\"rangeStart\":0,\"value\":96,\"valueType\":\"double\"},{\"name\":\"fontName\",\"rangeEnd\":9,\"rangeStart\":0,\"value\":\"Montserrat\",\"valueType\":\"string\"},{\"name\":\"underline\",\"rangeEnd\":9,\"rangeStart\":0,\"value\":0,\"valueType\":\"int\"},{\"name\":\"fontWeight\",\"rangeEnd\":9,\"rangeStart\":0,\"value\":100,\"valueType\":\"int\"},{\"name\":\"strikethrough\",\"rangeEnd\":9,\"rangeStart\":0,\"value\":0,\"valueType\":\"int\"},{\"name\":\"fgColor\",\"rangeEnd\":9,\"rangeStart\":0,\"value\":\"(241,230,195,255)\",\"valueType\":\"color\"}]",
                              "default-translation0" : -66.0174967329584,
                              "default-translation1" : 46.64285714285,
                              "effectApplied" : "none"
                            },
                            "animationTracks" : {

                            }
                          }
                        ],
                          "ident" : "",
                          "audioMuted" : false,
                          "videoHidden" : false,
                          "magnetic" : false,
                          "metadata" : {
                            "IsLocked" : "False",
                            "WinTrackHeight" : "1.18064664215163e-311",
                            "trackHeight" : "48"
                          }
                      }
                    ],
                    "attributes" : {
                      "ident" : "squarepegs",
                      "gain" : 1.0,
                      "mixToMono" : false,
                      "assetProperties" : [
                        {
                          "type" : 0,
                          "name" : "Title",
                          "objects" : [ 257 ],
                          "themeMappings" :  {
                            "font-color" : "foreground-1",
                            "font-family" : "font-1"
                          }
                        },
                        {
                          "type" : 0,
                          "name" : "Subtitle",
                          "objects" : [ 256 ],
                          "themeMappings" :  {
                            "font-color" : "foreground-1",
                            "font-family" : "font-1"
                          }
                        }
                      ]
                    },
                    "effects" : [

                    ],
                    "start" : 17692,
                    "duration" : 176,
                    "mediaStart" : 114.0,
                    "mediaDuration" : 176.0,
                    "scalar" : 1,
                    "metadata" : {
                      "IsGroupExpanded" : "False",
                      "WinSubProjectDisplayName" : "",
                      "clipSpeedAttribute" : false,
                      "effectApplied" : "none",
                      "isOpen" : false
                    },
                    "animationTracks" : {

                    }
                  },
                  {
                    "id" : 258,
                    "_type" : "UnifiedMedia",
                    "video" : 
                        {
                          "id" : 259,
                          "_type" : "ScreenVMFile",
                          "src" : 21,
                          "trackNumber" : 0,
                          "attributes" : {
                            "ident" : "scratch-4.2-sound-changing-pitch-and-pan-effects"
                          },
                          "parameters" : {
                            "cursorScale" : {
                              "type" : "double",
                              "defaultValue" : 1.0,
                              "interp" : "linr"
                            },
                            "cursorOpacity" : {
                              "type" : "double",
                              "defaultValue" : 1.0,
                              "interp" : "linr"
                            }
                          },
                          "effects" : [

                          ],
                          "start" : 17868,
                          "duration" : 872,
                          "mediaStart" : 0,
                          "mediaDuration" : 872,
                          "scalar" : 1,
                          "animationTracks" : {

                          }
                        },
                    "audio" : 
                        {
                          "id" : 260,
                          "_type" : "AMFile",
                          "src" : 21,
                          "trackNumber" : 1,
                          "attributes" : {
                            "ident" : "",
                            "gain" : 1.0,
                            "mixToMono" : false
                          },
                            "channelNumber" : "0,1",
                          "effects" : [

                          ],
                          "start" : 17868,
                          "duration" : 872,
                          "mediaStart" : 0,
                          "mediaDuration" : 872,
                          "scalar" : 1,
                          "animationTracks" : {

                          }
                        }
,
                    "start" : 17868,
                    "duration" : 872,
                    "mediaStart" : 0,
                    "mediaDuration" : 872,
                    "scalar" : 1,
                    "metadata" : {
                      "AutoAppliedSmartFocus" : "False",
                      "clipSpeedAttribute" : false
                    }
                  },
                  {
                    "id" : 261,
                    "_type" : "Group",
                    "parameters" : {
                      "volume" : 1.0
                    },
                    "tracks" : [
                      {
                        "trackIndex" : 0,
                        "medias" : [
                          {
                            "id" : 262,
                            "_type" : "UnifiedMedia",
                            "video" : 
                                {
                                  "id" : 263,
                                  "_type" : "VMFile",
                                  "src" : 51,
                                  "trackNumber" : 0,
                                  "attributes" : {
                                    "ident" : "Movie"
                                  },
                                  "effects" : [

                                  ],
                                  "start" : 114,
                                  "duration" : 176,
                                  "mediaStart" : 114,
                                  "mediaDuration" : 176,
                                  "scalar" : 1,
                                  "animationTracks" : {

                                  }
                                },
                            "audio" : 
                                {
                                  "id" : 264,
                                  "_type" : "AMFile",
                                  "src" : 51,
                                  "trackNumber" : 1,
                                  "attributes" : {
                                    "ident" : "",
                                    "gain" : 1.0,
                                    "mixToMono" : false
                                  },
                                    "channelNumber" : "0,1",
                                  "effects" : [

                                  ],
                                  "start" : 114,
                                  "duration" : 176,
                                  "mediaStart" : 114,
                                  "mediaDuration" : 176,
                                  "scalar" : 1,
                                  "animationTracks" : {

                                  }
                                }
,
                            "start" : 114,
                            "duration" : 176,
                            "mediaStart" : 0,
                            "mediaDuration" : 438,
                            "scalar" : 1,
                            "metadata" : {
                              "WinSubProjectDisplayName" : "",
                              "clipSpeedAttribute" : false,
                              "effectApplied" : "none"
                            }
                          }
                        ],
                          "ident" : "",
                          "audioMuted" : false,
                          "videoHidden" : false,
                          "magnetic" : false,
                          "metadata" : {
                            "IsLocked" : "False",
                            "WinTrackHeight" : "0",
                            "trackHeight" : "48"
                          }
                      },
                      {
                        "trackIndex" : 1,
                        "medias" : [
                          {
                            "id" : 265,
                            "_type" : "Callout",
                            "def" : {
                              "kind" : "remix",
                              "shape" : "text",
                              "style" : "basic",
                              "height" : 78.4795300319492,
                              "line-spacing" : 0.0,
                              "width" : 583.0,
                              "word-wrap" : 1.0,
                              "horizontal-alignment" : "center",
                              "resize-behavior" : "resizeText",
                              "text" : "motion",
                              "vertical-alignment" : "center",
                              "font" : {
                                "color-blue" : 1.0,
                                "color-green" : 1.0,
                                "color-red" : 1.0,
                                "size" : 96.0,
                                "tracking" : 0.0,
                                "name" : "Montserrat",
                                "weight" : "Regular"
                              },
                              "textAttributes" : {
                                "type" : "textAttributeList",
                                "keyframes" : [
                                  {
                                    "endTime" : 0,
                                    "time" : 0,
                                    "value" : [{"name":"fontWeight","rangeEnd":6,"rangeStart":0,"value":400,"valueType":"int"},{"name":"fontItalic","rangeEnd":6,"rangeStart":0,"value":0,"valueType":"int"},{"name":"fontName","rangeEnd":6,"rangeStart":0,"value":"Montserrat","valueType":"string"},{"name":"fontSize","rangeEnd":6,"rangeStart":0,"value":55,"valueType":"double"},{"name":"fgColor","rangeEnd":6,"rangeStart":0,"value":"(239,231,195,255)","valueType":"color"},{"name":"strikethrough","rangeEnd":6,"rangeStart":0,"value":0,"valueType":"int"},{"name":"underline","rangeEnd":6,"rangeStart":0,"value":0,"valueType":"int"},{"name":"kerning","rangeEnd":6,"rangeStart":0,"value":0,"valueType":"double"}],
                                    "duration" : 0
                                  }
                                ]
                              }
                            },
                            "attributes" : {
                              "autoRotateText" : true
                            },
                            "parameters" : {
                              "translation0" : -1.77887982122371e-11,
                              "translation1" : -100.336673040374
                            },
                            "effects" : [
                                {
                                  "_type" : "GenericBehaviorEffect",
                                  "effectName" : "sliding",
                                  "start" : -18,
                                  "duration" : 80                                ,
                                  "in" : {
                                    "attributes" : {
                                      "name" : "sliding",
                                      "type" : 1,
                                      "characterOrder" : 0,
                                      "offsetBetweenCharacters" : 3,
                                      "suggestedDurationPerCharacter" : "999/50",
                                      "overlapProportion" : "11/20",
                                      "movement" : 16,
                                      "springDamping" : 5.0,
                                      "springStiffness" : 50.0,
                                      "bounceBounciness" : 0.45
                                    },
                                    "parameters" : {
                                      "direction" : {
                                        "type" : "int",
                                        "valueBounds" : {
                                          "minValue" : 0,
                                          "maxValue" : 3,
                                          "defaultValue" : 0
                                        },
                                        "uiHints" : {
                                          "userInterfaceType" : 2,
                                          "unitType" : 0
                                        },
                                        "keyframes" : [
                                          {
                                            "endTime" : 0,
                                            "time" : 0,
                                            "value" : 3,
                                            "duration" : 0
                                          }
                                        ]
                                      }
                                    }
                                  
                                  },
                                  "center" : {
                                    "attributes" : {
                                      "name" : "none",
                                      "type" : 1,
                                      "characterOrder" : 6,
                                      "offsetBetweenCharacters" : 0,
                                      "secondsPerLoop" : 1,
                                      "numberOfLoops" : -1,
                                      "delayBetweenLoops" : 0,
                                      "offsetBetweenCharacters" : 0
                                    }
                                  
                                  },
                                  "out" : {
                                    "attributes" : {
                                      "name" : "none",
                                      "type" : 1,
                                      "characterOrder" : 6,
                                      "offsetBetweenCharacters" : 0,
                                      "suggestedDurationPerCharacter" : 0,
                                      "overlapProportion" : 0,
                                      "movement" : -1,
                                      "springDamping" : 5.0,
                                      "springStiffness" : 50.0,
                                      "bounceBounciness" : 0.45
                                    }
                                  
                                  }
                                }
                            ],
                            "start" : 210,
                            "duration" : 80,
                            "mediaStart" : -18,
                            "mediaDuration" : 80,
                            "scalar" : 1,
                            "metadata" : {
                              "WinSubProjectDisplayName" : "",
                              "clipSpeedAttribute" : false,
                              "default-HAlign" : "center",
                              "default-LineSpace" : 0.0,
                              "default-VAlign" : "center",
                              "default-text-attributes" : "[{\"name\":\"strikethrough\",\"rangeEnd\":13,\"rangeStart\":0,\"value\":0,\"valueType\":\"int\"},{\"name\":\"fontWeight\",\"rangeEnd\":13,\"rangeStart\":0,\"value\":100,\"valueType\":\"int\"},{\"name\":\"fontSize\",\"rangeEnd\":13,\"rangeStart\":0,\"value\":55,\"valueType\":\"double\"},{\"name\":\"underline\",\"rangeEnd\":13,\"rangeStart\":0,\"value\":0,\"valueType\":\"int\"},{\"name\":\"fgColor\",\"rangeEnd\":13,\"rangeStart\":0,\"value\":\"(239,231,195,255)\",\"valueType\":\"color\"},{\"name\":\"fontItalic\",\"rangeEnd\":13,\"rangeStart\":0,\"value\":0,\"valueType\":\"int\"},{\"name\":\"fontName\",\"rangeEnd\":13,\"rangeStart\":0,\"value\":\"Montserrat\",\"valueType\":\"string\"}]",
                              "effectApplied" : "none"
                            },
                            "animationTracks" : {

                            }
                          }
                        ],
                          "ident" : "",
                          "audioMuted" : false,
                          "videoHidden" : false,
                          "magnetic" : false,
                          "metadata" : {
                            "IsLocked" : "False",
                            "WinTrackHeight" : "1.18064664215163e-311",
                            "trackHeight" : "48"
                          }
                      },
                      {
                        "trackIndex" : 2,
                        "medias" : [
                          {
                            "id" : 266,
                            "_type" : "Callout",
                            "def" : {
                              "kind" : "remix",
                              "shape" : "text",
                              "style" : "basic",
                              "height" : 177.714285714305,
                              "line-spacing" : 0.0,
                              "width" : 904.358937127979,
                              "word-wrap" : 1.0,
                              "horizontal-alignment" : "center",
                              "resize-behavior" : "resizeText",
                              "text" : "changing volume",
                              "vertical-alignment" : "center",
                              "font" : {
                                "color-blue" : 1.0,
                                "color-green" : 1.0,
                                "color-red" : 1.0,
                                "size" : 96.0,
                                "tracking" : 0.0,
                                "name" : "Montserrat",
                                "weight" : "Regular"
                              },
                              "textAttributes" : {
                                "type" : "textAttributeList",
                                "keyframes" : [
                                  {
                                    "endTime" : 0,
                                    "time" : 0,
                                    "value" : [{"name":"strikethrough","rangeEnd":15,"rangeStart":0,"value":0,"valueType":"int"},{"name":"fontSize","rangeEnd":15,"rangeStart":0,"value":96,"valueType":"double"},{"name":"underline","rangeEnd":15,"rangeStart":0,"value":0,"valueType":"int"},{"name":"kerning","rangeEnd":15,"rangeStart":0,"value":0,"valueType":"double"},{"name":"fontWeight","rangeEnd":15,"rangeStart":0,"value":400,"valueType":"int"},{"name":"fontName","rangeEnd":15,"rangeStart":0,"value":"Montserrat","valueType":"string"},{"name":"fontItalic","rangeEnd":15,"rangeStart":0,"value":0,"valueType":"int"},{"name":"fgColor","rangeEnd":15,"rangeStart":0,"value":"(241,230,195,255)","valueType":"color"}],
                                    "duration" : 0
                                  }
                                ]
                              }
                            },
                            "attributes" : {
                              "autoRotateText" : true
                            },
                            "parameters" : {
                              "translation0" : 0.320531435861056,
                              "translation1" : 27.642853721879
                            },
                            "effects" : [
                                {
                                  "_type" : "GenericBehaviorEffect",
                                  "effectName" : "scale",
                                  "start" : -52,
                                  "duration" : 176                                ,
                                  "in" : {
                                    "attributes" : {
                                      "name" : "grow",
                                      "type" : 1,
                                      "characterOrder" : 6,
                                      "offsetBetweenCharacters" : 2,
                                      "suggestedDurationPerCharacter" : "2333/25",
                                      "overlapProportion" : "3/4",
                                      "movement" : 30,
                                      "springDamping" : 5.0,
                                      "springStiffness" : 50.0,
                                      "bounceBounciness" : 0.45
                                    }
                                  
                                  },
                                  "center" : {
                                    "attributes" : {
                                      "name" : "none",
                                      "type" : 1,
                                      "characterOrder" : 6,
                                      "offsetBetweenCharacters" : 0,
                                      "secondsPerLoop" : 1,
                                      "numberOfLoops" : -1,
                                      "delayBetweenLoops" : 0,
                                      "offsetBetweenCharacters" : 0
                                    }
                                  
                                  },
                                  "out" : {
                                    "attributes" : {
                                      "name" : "none",
                                      "type" : 1,
                                      "characterOrder" : 6,
                                      "offsetBetweenCharacters" : 0,
                                      "suggestedDurationPerCharacter" : 0,
                                      "overlapProportion" : 0,
                                      "movement" : -1,
                                      "springDamping" : 5.0,
                                      "springStiffness" : 50.0,
                                      "bounceBounciness" : 0.45
                                    }
                                  
                                  }
                                },
                                {
                                  "effectName" : "DropShadow",
                                  "category" : "categoryVisualEffects",
                                  "parameters" : {
                                    "angle" : {
                                      "type" : "double",
                                      "defaultValue" : 4.71238898038469,
                                      "valueBounds" : {
                                        "minValue" : 0.0,
                                        "maxValue" : 0.0,
                                        "defaultValue" : 5.49778714378214
                                      },
                                      "uiHints" : {
                                        "userInterfaceType" : 0,
                                        "unitType" : 0
                                      }
                                    },
                                    "blur" : {
                                      "type" : "double",
                                      "defaultValue" : 3.33066907387547e-16,
                                      "valueBounds" : {
                                        "minValue" : 0.0,
                                        "maxValue" : 50.0,
                                        "defaultValue" : 10.0
                                      },
                                      "uiHints" : {
                                        "userInterfaceType" : 0,
                                        "unitType" : 0
                                      }
                                    },
                                    "color-alpha" : {
                                      "type" : "double",
                                      "defaultValue" : 1.0,
                                      "valueBounds" : {
                                        "minValue" : 0.0,
                                        "maxValue" : 1.0,
                                        "defaultValue" : 1.0
                                      },
                                      "uiHints" : {
                                        "userInterfaceType" : 0,
                                        "unitType" : 0
                                      }
                                    },
                                    "color-blue" : {
                                      "type" : "double",
                                      "defaultValue" : 0.1216,
                                      "valueBounds" : {
                                        "minValue" : 0.0,
                                        "maxValue" : 1.0,
                                        "defaultValue" : 0.1216
                                      },
                                      "uiHints" : {
                                        "userInterfaceType" : 0,
                                        "unitType" : 0
                                      }
                                    },
                                    "color-green" : {
                                      "type" : "double",
                                      "defaultValue" : 0.1216,
                                      "valueBounds" : {
                                        "minValue" : 0.0,
                                        "maxValue" : 1.0,
                                        "defaultValue" : 0.1216
                                      },
                                      "uiHints" : {
                                        "userInterfaceType" : 0,
                                        "unitType" : 0
                                      }
                                    },
                                    "color-red" : {
                                      "type" : "double",
                                      "defaultValue" : 0.1216,
                                      "valueBounds" : {
                                        "minValue" : 0.0,
                                        "maxValue" : 1.0,
                                        "defaultValue" : 0.1216
                                      },
                                      "uiHints" : {
                                        "userInterfaceType" : 0,
                                        "unitType" : 0
                                      }
                                    },
                                    "enabled" : {
                                      "type" : "int",
                                      "valueBounds" : {
                                        "minValue" : 0,
                                        "maxValue" : 1,
                                        "defaultValue" : 1
                                      },
                                      "uiHints" : {
                                        "userInterfaceType" : 0,
                                        "unitType" : 0
                                      },
                                      "keyframes" : [
                                        {
                                          "endTime" : 0,
                                          "time" : 0,
                                          "value" : 1,
                                          "duration" : 0
                                        }
                                      ]
                                    },
                                    "offset" : {
                                      "type" : "double",
                                      "defaultValue" : 10.0,
                                      "valueBounds" : {
                                        "minValue" : 0.0,
                                        "maxValue" : 250.0,
                                        "defaultValue" : 10.0
                                      },
                                      "uiHints" : {
                                        "userInterfaceType" : 0,
                                        "unitType" : 0
                                      }
                                    },
                                    "opacity" : {
                                      "type" : "double",
                                      "defaultValue" : 0.741666666666667,
                                      "valueBounds" : {
                                        "minValue" : 0.0,
                                        "maxValue" : 1.0,
                                        "defaultValue" : 0.4
                                      },
                                      "uiHints" : {
                                        "userInterfaceType" : 0,
                                        "unitType" : 0
                                      }
                                    }
                                  }
                                }
                            ],
                            "start" : 114,
                            "duration" : 176,
                            "mediaStart" : -52,
                            "mediaDuration" : 176,
                            "scalar" : 1,
                            "metadata" : {
                              "WinSubProjectDisplayName" : "",
                              "clipSpeedAttribute" : false,
                              "default-HAlign" : "center",
                              "default-LineSpace" : 0.0,
                              "default-VAlign" : "center",
                              "default-text-attributes" : "[{\"name\":\"fontItalic\",\"rangeEnd\":9,\"rangeStart\":0,\"value\":0,\"valueType\":\"int\"},{\"name\":\"fontSize\",\"rangeEnd\":9,\"rangeStart\":0,\"value\":96,\"valueType\":\"double\"},{\"name\":\"fontName\",\"rangeEnd\":9,\"rangeStart\":0,\"value\":\"Montserrat\",\"valueType\":\"string\"},{\"name\":\"underline\",\"rangeEnd\":9,\"rangeStart\":0,\"value\":0,\"valueType\":\"int\"},{\"name\":\"fontWeight\",\"rangeEnd\":9,\"rangeStart\":0,\"value\":100,\"valueType\":\"int\"},{\"name\":\"strikethrough\",\"rangeEnd\":9,\"rangeStart\":0,\"value\":0,\"valueType\":\"int\"},{\"name\":\"fgColor\",\"rangeEnd\":9,\"rangeStart\":0,\"value\":\"(241,230,195,255)\",\"valueType\":\"color\"}]",
                              "default-translation0" : -66.0174967329584,
                              "default-translation1" : 46.64285714285,
                              "effectApplied" : "none"
                            },
                            "animationTracks" : {

                            }
                          }
                        ],
                          "ident" : "",
                          "audioMuted" : false,
                          "videoHidden" : false,
                          "magnetic" : false,
                          "metadata" : {
                            "IsLocked" : "False",
                            "WinTrackHeight" : "1.18064664215163e-311",
                            "trackHeight" : "48"
                          }
                      }
                    ],
                    "attributes" : {
                      "ident" : "squarepegs",
                      "gain" : 1.0,
                      "mixToMono" : false,
                      "assetProperties" : [
                        {
                          "type" : 0,
                          "name" : "Title",
                          "objects" : [ 266 ],
                          "themeMappings" :  {
                            "font-color" : "foreground-1",
                            "font-family" : "font-1"
                          }
                        },
                        {
                          "type" : 0,
                          "name" : "Subtitle",
                          "objects" : [ 265 ],
                          "themeMappings" :  {
                            "font-color" : "foreground-1",
                            "font-family" : "font-1"
                          }
                        }
                      ]
                    },
                    "effects" : [

                    ],
                    "start" : 18740,
                    "duration" : 176,
                    "mediaStart" : 114.0,
                    "mediaDuration" : 176.0,
                    "scalar" : 1,
                    "metadata" : {
                      "IsGroupExpanded" : "False",
                      "WinSubProjectDisplayName" : "",
                      "clipSpeedAttribute" : false,
                      "effectApplied" : "none",
                      "isOpen" : false
                    },
                    "animationTracks" : {

                    }
                  },
                  {
                    "id" : 267,
                    "_type" : "UnifiedMedia",
                    "video" : 
                        {
                          "id" : 268,
                          "_type" : "ScreenVMFile",
                          "src" : 22,
                          "trackNumber" : 0,
                          "attributes" : {
                            "ident" : "scratch-4.3-sound-changing-volume"
                          },
                          "parameters" : {
                            "cursorScale" : {
                              "type" : "double",
                              "defaultValue" : 1.0,
                              "interp" : "linr"
                            },
                            "cursorOpacity" : {
                              "type" : "double",
                              "defaultValue" : 1.0,
                              "interp" : "linr"
                            }
                          },
                          "effects" : [

                          ],
                          "start" : 18916,
                          "duration" : 1072,
                          "mediaStart" : 0,
                          "mediaDuration" : 1072,
                          "scalar" : 1,
                          "animationTracks" : {

                          }
                        },
                    "audio" : 
                        {
                          "id" : 269,
                          "_type" : "AMFile",
                          "src" : 22,
                          "trackNumber" : 1,
                          "attributes" : {
                            "ident" : "",
                            "gain" : 1.0,
                            "mixToMono" : false
                          },
                            "channelNumber" : "0,1",
                          "effects" : [

                          ],
                          "start" : 18916,
                          "duration" : 1072,
                          "mediaStart" : 0,
                          "mediaDuration" : 1072,
                          "scalar" : 1,
                          "animationTracks" : {

                          }
                        }
,
                    "start" : 18916,
                    "duration" : 1072,
                    "mediaStart" : 0,
                    "mediaDuration" : 1072,
                    "scalar" : 1,
                    "metadata" : {
                      "AutoAppliedSmartFocus" : "False",
                      "clipSpeedAttribute" : false
                    }
                  },
                  {
                    "id" : 270,
                    "_type" : "Group",
                    "parameters" : {
                      "translation0" : 1.21531229524408e-10,
                      "translation1" : 64.0087015009919,
                      "volume" : 1.0
                    },
                    "tracks" : [
                      {
                        "trackIndex" : 0,
                        "medias" : [
                          {
                            "id" : 271,
                            "_type" : "Callout",
                            "def" : {
                              "kind" : "remix",
                              "shape" : "shape-rectangle",
                              "style" : "urban",
                              "fill-color-blue" : {
                                "type" : "double",
                                "defaultValue" : 1.0,
                                "keyframes" : [
                                  {
                                    "endTime" : 56,
                                    "time" : 18,
                                    "value" : 1.0,
                                    "duration" : 38
                                  },
                                  {
                                    "endTime" : 92,
                                    "time" : 56,
                                    "value" : 0.149019607843137,
                                    "duration" : 36
                                  },
                                  {
                                    "endTime" : 174,
                                    "time" : 116,
                                    "value" : 0.149019607843137,
                                    "duration" : 58
                                  }
                                ]
                              },
                              "fill-color-green" : {
                                "type" : "double",
                                "defaultValue" : 1.0,
                                "keyframes" : [
                                  {
                                    "endTime" : 56,
                                    "time" : 18,
                                    "value" : 1.0,
                                    "duration" : 38
                                  },
                                  {
                                    "endTime" : 92,
                                    "time" : 56,
                                    "value" : 0.96078431372549,
                                    "duration" : 36
                                  },
                                  {
                                    "endTime" : 174,
                                    "time" : 116,
                                    "value" : 0.96078431372549,
                                    "duration" : 58
                                  }
                                ]
                              },
                              "fill-color-opacity" : 1.0,
                              "fill-color-red" : {
                                "type" : "double",
                                "defaultValue" : 1.0,
                                "keyframes" : [
                                  {
                                    "endTime" : 56,
                                    "time" : 18,
                                    "value" : 1.0,
                                    "duration" : 38
                                  },
                                  {
                                    "endTime" : 92,
                                    "time" : 56,
                                    "value" : 0.933333333333333,
                                    "duration" : 36
                                  },
                                  {
                                    "endTime" : 174,
                                    "time" : 116,
                                    "value" : 0.933333333333333,
                                    "duration" : 58
                                  }
                                ]
                              },
                              "height" : {
                                "type" : "double",
                                "defaultValue" : 10.8510761260468,
                                "keyframes" : [
                                  {
                                    "endTime" : 56,
                                    "time" : 18,
                                    "value" : 24.9687231850678,
                                    "duration" : 38
                                  },
                                  {
                                    "endTime" : 92,
                                    "time" : 56,
                                    "value" : 1281.28323719656,
                                    "duration" : 36
                                  },
                                  {
                                    "endTime" : 174,
                                    "time" : 116,
                                    "value" : 1347.6353898526,
                                    "duration" : 58
                                  }
                                ]
                              },
                              "stroke-color-blue" : 1.0,
                              "stroke-color-green" : 1.0,
                              "stroke-color-opacity" : 1.0,
                              "stroke-color-red" : 1.0,
                              "stroke-width" : 0.0,
                              "width" : {
                                "type" : "double",
                                "defaultValue" : 6.88782755517832,
                                "keyframes" : [
                                  {
                                    "endTime" : 56,
                                    "time" : 18,
                                    "value" : 67.9394975592671,
                                    "duration" : 38
                                  },
                                  {
                                    "endTime" : 92,
                                    "time" : 56,
                                    "value" : 67.9394975592671,
                                    "duration" : 36
                                  },
                                  {
                                    "endTime" : 174,
                                    "time" : 116,
                                    "value" : 68.0763125888445,
                                    "duration" : 58
                                  }
                                ]
                              },
                              "fill-style" : "solid",
                              "horizontal-alignment" : "center",
                              "stroke-style" : "solid",
                              "vertical-alignment" : "center",
                              "textAttributes" : {
                                "type" : "textAttributeList",
                                "keyframes" : [
                                  {
                                    "endTime" : 0,
                                    "time" : 0,
                                    "value" : null,
                                    "duration" : 0
                                  }
                                ]
                              }
                            },
                            "attributes" : {
                              "autoRotateText" : true
                            },
                            "parameters" : {
                              "translation0" : {
                                "type" : "double",
                                "defaultValue" : -1.21547438780567e-10,
                                "keyframes" : [
                                  {
                                    "endTime" : 56,
                                    "time" : 18,
                                    "value" : -1.21547438780567e-10,
                                    "duration" : 38
                                  },
                                  {
                                    "endTime" : 92,
                                    "time" : 56,
                                    "value" : 0.0541990816513973,
                                    "duration" : 36
                                  },
                                  {
                                    "endTime" : 174,
                                    "time" : 116,
                                    "value" : -1.67577274979808e-14,
                                    "duration" : 58
                                  }
                                ]
                              },
                              "translation1" : {
                                "type" : "double",
                                "defaultValue" : -96.3117858166865,
                                "keyframes" : [
                                  {
                                    "endTime" : 56,
                                    "time" : 18,
                                    "value" : -96.3117858166865,
                                    "duration" : 38
                                  },
                                  {
                                    "endTime" : 92,
                                    "time" : 56,
                                    "value" : -96.3117858166865,
                                    "duration" : 36
                                  },
                                  {
                                    "endTime" : 174,
                                    "time" : 116,
                                    "value" : -658.65796581331,
                                    "duration" : 58
                                  }
                                ]
                              },
                              "rotation2" : {
                                "type" : "double",
                                "defaultValue" : 0.0,
                                "keyframes" : [
                                  {
                                    "endTime" : 56,
                                    "time" : 18,
                                    "value" : -1.5707963267949,
                                    "duration" : 38
                                  }
                                ]
                              }
                            },
                            "effects" : [

                            ],
                            "start" : -30,
                            "duration" : 210,
                            "mediaStart" : -12,
                            "mediaDuration" : 210,
                            "scalar" : 1,
                            "metadata" : {
                              "WinSubProjectDisplayName" : "",
                              "clipSpeedAttribute" : false
                            },
                            "animationTracks" : {
                              "visual" : [
                                {
                                  "endTime" : 56,
                                  "duration" : 38,
                                  "range" : [ 18, 38],
                                  "interp" : "eioe"
                                },
                                {
                                  "endTime" : 92,
                                  "duration" : 36,
                                  "range" : [ 56, 36],
                                  "interp" : "eioe"
                                },
                                {
                                  "endTime" : 174,
                                  "duration" : 58,
                                  "range" : [ 116, 58]
                                }
                              ]
                            }
                          }
                        ],
                          "ident" : "",
                          "audioMuted" : false,
                          "videoHidden" : false,
                          "magnetic" : false,
                          "metadata" : {
                            "IsLocked" : "False",
                            "WinTrackHeight" : "0"
                          }
                      },
                      {
                        "trackIndex" : 1,
                        "medias" : [
                          {
                            "id" : 272,
                            "_type" : "Callout",
                            "def" : {
                              "kind" : "remix",
                              "shape" : "shape-rectangle",
                              "style" : "urban",
                              "fill-color-blue" : {
                                "type" : "double",
                                "defaultValue" : 1.0,
                                "keyframes" : [
                                  {
                                    "endTime" : 54,
                                    "time" : 18,
                                    "value" : 0.149019607843137,
                                    "duration" : 36
                                  },
                                  {
                                    "endTime" : 136,
                                    "time" : 78,
                                    "value" : 1.0,
                                    "duration" : 58
                                  }
                                ]
                              },
                              "fill-color-green" : {
                                "type" : "double",
                                "defaultValue" : 1.0,
                                "keyframes" : [
                                  {
                                    "endTime" : 54,
                                    "time" : 18,
                                    "value" : 0.96078431372549,
                                    "duration" : 36
                                  },
                                  {
                                    "endTime" : 136,
                                    "time" : 78,
                                    "value" : 1.0,
                                    "duration" : 58
                                  }
                                ]
                              },
                              "fill-color-opacity" : 1.0,
                              "fill-color-red" : {
                                "type" : "double",
                                "defaultValue" : 1.0,
                                "keyframes" : [
                                  {
                                    "endTime" : 54,
                                    "time" : 18,
                                    "value" : 0.933333333333333,
                                    "duration" : 36
                                  },
                                  {
                                    "endTime" : 136,
                                    "time" : 78,
                                    "value" : 1.0,
                                    "duration" : 58
                                  }
                                ]
                              },
                              "height" : {
                                "type" : "double",
                                "defaultValue" : 10.8510761260468,
                                "keyframes" : [
                                  {
                                    "endTime" : 54,
                                    "time" : 18,
                                    "value" : 10.8510761260468,
                                    "duration" : 36
                                  },
                                  {
                                    "endTime" : 136,
                                    "time" : 78,
                                    "value" : 10.8510761260468,
                                    "duration" : 58
                                  }
                                ]
                              },
                              "stroke-color-blue" : 1.0,
                              "stroke-color-green" : 1.0,
                              "stroke-color-opacity" : 1.0,
                              "stroke-color-red" : 1.0,
                              "stroke-width" : 0.0,
                              "width" : {
                                "type" : "double",
                                "defaultValue" : 6.88782755517832,
                                "keyframes" : [
                                  {
                                    "endTime" : 54,
                                    "time" : 18,
                                    "value" : 1281.28316541273,
                                    "duration" : 36
                                  },
                                  {
                                    "endTime" : 136,
                                    "time" : 78,
                                    "value" : 1302.87700103543,
                                    "duration" : 58
                                  }
                                ]
                              },
                              "fill-style" : "solid",
                              "horizontal-alignment" : "center",
                              "stroke-style" : "solid",
                              "vertical-alignment" : "center",
                              "textAttributes" : {
                                "type" : "textAttributeList",
                                "keyframes" : [
                                  {
                                    "endTime" : 0,
                                    "time" : 0,
                                    "value" : null,
                                    "duration" : 0
                                  }
                                ]
                              }
                            },
                            "attributes" : {
                              "autoRotateText" : true
                            },
                            "parameters" : {
                              "translation0" : {
                                "type" : "double",
                                "defaultValue" : -1.21547438780567e-10,
                                "keyframes" : [
                                  {
                                    "endTime" : 54,
                                    "time" : 18,
                                    "value" : -0.0541988189824127,
                                    "duration" : 36
                                  },
                                  {
                                    "endTime" : 136,
                                    "time" : 78,
                                    "value" : -1.21547438780567e-10,
                                    "duration" : 58
                                  }
                                ]
                              },
                              "translation1" : {
                                "type" : "double",
                                "defaultValue" : 78.8579651656907,
                                "keyframes" : [
                                  {
                                    "endTime" : 54,
                                    "time" : 18,
                                    "value" : 78.8936575656383,
                                    "duration" : 36
                                  },
                                  {
                                    "endTime" : 136,
                                    "time" : 78,
                                    "value" : 694.705445748916,
                                    "duration" : 58
                                  }
                                ]
                              }
                            },
                            "effects" : [

                            ],
                            "start" : 38,
                            "duration" : 142,
                            "mediaStart" : 18,
                            "mediaDuration" : 142,
                            "scalar" : 1,
                            "metadata" : {
                              "WinSubProjectDisplayName" : "",
                              "clipSpeedAttribute" : false
                            },
                            "animationTracks" : {
                              "visual" : [
                                {
                                  "endTime" : 54,
                                  "duration" : 36,
                                  "range" : [ 18, 36],
                                  "interp" : "eioe"
                                },
                                {
                                  "endTime" : 136,
                                  "duration" : 58,
                                  "range" : [ 78, 58],
                                  "interp" : "eioe"
                                }
                              ]
                            }
                          }
                        ],
                          "ident" : "",
                          "audioMuted" : false,
                          "videoHidden" : false,
                          "magnetic" : false,
                          "metadata" : {
                            "IsLocked" : "False",
                            "WinTrackHeight" : "6.39079466327898e-312"
                          }
                      },
                      {
                        "trackIndex" : 2,
                        "medias" : [
                          {
                            "id" : 273,
                            "_type" : "Callout",
                            "def" : {
                              "kind" : "remix",
                              "shape" : "text",
                              "style" : "abstract",
                              "height" : 180.630981445261,
                              "line-spacing" : 0.0,
                              "width" : 1281.17482864961,
                              "word-wrap" : 1.0,
                              "horizontal-alignment" : "center",
                              "resize-behavior" : "resizeText",
                              "text" : "when start is click",
                              "vertical-alignment" : "center",
                              "font" : {
                                "color-blue" : 1.0,
                                "color-green" : 1.0,
                                "color-red" : 1.0,
                                "size" : 96.0,
                                "tracking" : 0.0,
                                "name" : "Lato",
                                "weight" : "Regular"
                              },
                              "textAttributes" : {
                                "type" : "textAttributeList",
                                "keyframes" : [
                                  {
                                    "endTime" : 0,
                                    "time" : 0,
                                    "value" : [{"name":"fontWeight","rangeEnd":19,"rangeStart":0,"value":400,"valueType":"int"},{"name":"fontItalic","rangeEnd":19,"rangeStart":0,"value":0,"valueType":"int"},{"name":"underline","rangeEnd":19,"rangeStart":0,"value":0,"valueType":"int"},{"name":"strikethrough","rangeEnd":19,"rangeStart":0,"value":0,"valueType":"int"},{"name":"fgColor","rangeEnd":19,"rangeStart":0,"value":"(255,255,255,255)","valueType":"color"},{"name":"fontName","rangeEnd":19,"rangeStart":0,"value":"Montserrat","valueType":"string"},{"name":"fontSize","rangeEnd":19,"rangeStart":0,"value":128,"valueType":"double"},{"name":"kerning","rangeEnd":19,"rangeStart":0,"value":0,"valueType":"double"}],
                                    "duration" : 0
                                  }
                                ]
                              }
                            },
                            "attributes" : {
                              "autoRotateText" : true
                            },
                            "parameters" : {
                              "translation0" : {
                                "type" : "double",
                                "defaultValue" : 0.412585675275182,
                                "keyframes" : [
                                  {
                                    "endTime" : 108,
                                    "time" : 94,
                                    "value" : 1.67701942743932,
                                    "duration" : 14
                                  },
                                  {
                                    "endTime" : 152,
                                    "time" : 108,
                                    "value" : 11.2636728451827,
                                    "duration" : 44
                                  }
                                ]
                              },
                              "translation1" : {
                                "type" : "double",
                                "defaultValue" : -5.81178581660322,
                                "keyframes" : [
                                  {
                                    "endTime" : 108,
                                    "time" : 94,
                                    "value" : 65.9474950894182,
                                    "duration" : 14
                                  },
                                  {
                                    "endTime" : 152,
                                    "time" : 108,
                                    "value" : 610.000002366703,
                                    "duration" : 44
                                  }
                                ]
                              }
                            },
                            "effects" : [
                                {
                                  "_type" : "GenericBehaviorEffect",
                                  "effectName" : "popUp",
                                  "start" : 34,
                                  "duration" : 142                                ,
                                  "in" : {
                                    "attributes" : {
                                      "name" : "reveal",
                                      "type" : 1,
                                      "characterOrder" : 6,
                                      "offsetBetweenCharacters" : 3,
                                      "suggestedDurationPerCharacter" : 44,
                                      "overlapProportion" : 0,
                                      "movement" : 16,
                                      "springDamping" : 5.0,
                                      "springStiffness" : 50.0,
                                      "bounceBounciness" : 0.45
                                    },
                                    "parameters" : {
                                      "direction" : {
                                        "type" : "int",
                                        "valueBounds" : {
                                          "minValue" : 0,
                                          "maxValue" : 3,
                                          "defaultValue" : 0
                                        },
                                        "uiHints" : {
                                          "userInterfaceType" : 2,
                                          "unitType" : 0
                                        },
                                        "keyframes" : [
                                          {
                                            "endTime" : 0,
                                            "time" : 0,
                                            "value" : 2,
                                            "duration" : 0
                                          }
                                        ]
                                      }
                                    }
                                  
                                  },
                                  "center" : {
                                    "attributes" : {
                                      "name" : "none",
                                      "type" : 1,
                                      "characterOrder" : 6,
                                      "offsetBetweenCharacters" : 0,
                                      "secondsPerLoop" : 1,
                                      "numberOfLoops" : -1,
                                      "delayBetweenLoops" : 0,
                                      "offsetBetweenCharacters" : 0
                                    }
                                  
                                  },
                                  "out" : {
                                    "attributes" : {
                                      "name" : "none",
                                      "type" : 1,
                                      "characterOrder" : 6,
                                      "offsetBetweenCharacters" : 0,
                                      "suggestedDurationPerCharacter" : 0,
                                      "overlapProportion" : 0,
                                      "movement" : -1,
                                      "springDamping" : 5.0,
                                      "springStiffness" : 50.0,
                                      "bounceBounciness" : 0.45
                                    }
                                  
                                  }
                                }
                            ],
                            "start" : 38,
                            "duration" : 142,
                            "mediaStart" : 34,
                            "mediaDuration" : 142,
                            "scalar" : 1,
                            "metadata" : {
                              "WinSubProjectDisplayName" : "",
                              "clipSpeedAttribute" : false,
                              "default-HAlign" : "center",
                              "default-LineSpace" : 0.0,
                              "default-VAlign" : "center",
                              "default-text-attributes" : "[{\"name\":\"fontName\",\"rangeEnd\":15,\"rangeStart\":0,\"value\":\"Montserrat\",\"valueType\":\"string\"},{\"name\":\"fgColor\",\"rangeEnd\":15,\"rangeStart\":0,\"value\":\"(255,255,255,255)\",\"valueType\":\"color\"},{\"name\":\"underline\",\"rangeEnd\":15,\"rangeStart\":0,\"value\":0,\"valueType\":\"int\"},{\"name\":\"strikethrough\",\"rangeEnd\":15,\"rangeStart\":0,\"value\":0,\"valueType\":\"int\"},{\"name\":\"fontSize\",\"rangeEnd\":15,\"rangeStart\":0,\"value\":128,\"valueType\":\"double\"},{\"name\":\"fontItalic\",\"rangeEnd\":15,\"rangeStart\":0,\"value\":0,\"valueType\":\"int\"},{\"name\":\"fontWeight\",\"rangeEnd\":15,\"rangeStart\":0,\"value\":100,\"valueType\":\"int\"}]",
                              "default-translation0" : 1.67704054168533
                            },
                            "animationTracks" : {
                              "visual" : [
                                {
                                  "endTime" : 108,
                                  "duration" : 14,
                                  "range" : [ 94, 14]
                                },
                                {
                                  "endTime" : 152,
                                  "duration" : 44,
                                  "range" : [ 108, 44],
                                  "interp" : "eioe"
                                }
                              ]
                            }
                          }
                        ],
                          "ident" : "",
                          "audioMuted" : false,
                          "videoHidden" : false,
                          "magnetic" : false,
                          "metadata" : {
                            "IsLocked" : "False",
                            "WinTrackHeight" : "6.39079466327898e-312"
                          }
                      },
                      {
                        "trackIndex" : 3,
                        "medias" : [
                          {
                            "id" : 274,
                            "_type" : "Callout",
                            "def" : {
                              "kind" : "remix",
                              "shape" : "text",
                              "style" : "abstract",
                              "height" : 83.6840731068824,
                              "line-spacing" : 0.0,
                              "width" : 1281.28322521409,
                              "word-wrap" : 1.0,
                              "horizontal-alignment" : "center",
                              "resize-behavior" : "resizeText",
                              "text" : "looks",
                              "vertical-alignment" : "center",
                              "font" : {
                                "color-blue" : 1.0,
                                "color-green" : 1.0,
                                "color-red" : 1.0,
                                "size" : 96.0,
                                "tracking" : 0.0,
                                "name" : "Lato",
                                "weight" : "Regular"
                              },
                              "textAttributes" : {
                                "type" : "textAttributeList",
                                "keyframes" : [
                                  {
                                    "endTime" : 0,
                                    "time" : 0,
                                    "value" : [{"name":"fontWeight","rangeEnd":5,"rangeStart":0,"value":400,"valueType":"int"},{"name":"fontItalic","rangeEnd":5,"rangeStart":0,"value":0,"valueType":"int"},{"name":"fontName","rangeEnd":5,"rangeStart":0,"value":"Montserrat","valueType":"string"},{"name":"fontSize","rangeEnd":5,"rangeStart":0,"value":60,"valueType":"double"},{"name":"kerning","rangeEnd":5,"rangeStart":0,"value":0,"valueType":"double"},{"name":"fgColor","rangeEnd":5,"rangeStart":0,"value":"(0,0,0,255)","valueType":"color"},{"name":"underline","rangeEnd":5,"rangeStart":0,"value":0,"valueType":"int"},{"name":"strikethrough","rangeEnd":5,"rangeStart":0,"value":0,"valueType":"int"}],
                                    "duration" : 0
                                  }
                                ]
                              }
                            },
                            "attributes" : {
                              "autoRotateText" : true
                            },
                            "parameters" : {
                              "translation0" : {
                                "type" : "double",
                                "defaultValue" : 0.304200155246711,
                                "keyframes" : [
                                  {
                                    "endTime" : 110,
                                    "time" : 52,
                                    "value" : -1.86383482943485,
                                    "duration" : 58
                                  }
                                ]
                              },
                              "translation1" : {
                                "type" : "double",
                                "defaultValue" : -96.1538223700724,
                                "keyframes" : [
                                  {
                                    "endTime" : 110,
                                    "time" : 52,
                                    "value" : -658.500002366703,
                                    "duration" : 58
                                  }
                                ]
                              }
                            },
                            "effects" : [
                                {
                                  "_type" : "GenericBehaviorEffect",
                                  "effectName" : "popUp",
                                  "start" : 0,
                                  "duration" : 138                                ,
                                  "in" : {
                                    "attributes" : {
                                      "name" : "reveal",
                                      "type" : 1,
                                      "characterOrder" : 7,
                                      "offsetBetweenCharacters" : 3,
                                      "suggestedDurationPerCharacter" : 44,
                                      "overlapProportion" : 0,
                                      "movement" : 16,
                                      "springDamping" : 5.0,
                                      "springStiffness" : 50.0,
                                      "bounceBounciness" : 0.45
                                    },
                                    "parameters" : {
                                      "direction" : {
                                        "type" : "int",
                                        "valueBounds" : {
                                          "minValue" : 0,
                                          "maxValue" : 3,
                                          "defaultValue" : 0
                                        },
                                        "uiHints" : {
                                          "userInterfaceType" : 2,
                                          "unitType" : 0
                                        },
                                        "keyframes" : [
                                          {
                                            "endTime" : 0,
                                            "time" : 0,
                                            "value" : 0,
                                            "duration" : 0
                                          }
                                        ]
                                      }
                                    }
                                  
                                  },
                                  "center" : {
                                    "attributes" : {
                                      "name" : "none",
                                      "type" : 1,
                                      "characterOrder" : 6,
                                      "offsetBetweenCharacters" : 0,
                                      "secondsPerLoop" : 1,
                                      "numberOfLoops" : -1,
                                      "delayBetweenLoops" : 0,
                                      "offsetBetweenCharacters" : 0
                                    }
                                  
                                  },
                                  "out" : {
                                    "attributes" : {
                                      "name" : "none",
                                      "type" : 1,
                                      "characterOrder" : 6,
                                      "offsetBetweenCharacters" : 0,
                                      "suggestedDurationPerCharacter" : 0,
                                      "overlapProportion" : 0,
                                      "movement" : -1,
                                      "springDamping" : 5.0,
                                      "springStiffness" : 50.0,
                                      "bounceBounciness" : 0.45
                                    }
                                  
                                  }
                                }
                            ],
                            "start" : 42,
                            "duration" : 138,
                            "mediaStart" : 0,
                            "mediaDuration" : 138,
                            "scalar" : 1,
                            "metadata" : {
                              "WinSubProjectDisplayName" : "",
                              "clipSpeedAttribute" : false,
                              "default-HAlign" : "center",
                              "default-LineSpace" : 0.0,
                              "default-VAlign" : "center",
                              "default-text-attributes" : "[{\"name\":\"fontName\",\"rangeEnd\":17,\"rangeStart\":0,\"value\":\"Montserrat\",\"valueType\":\"string\"},{\"name\":\"strikethrough\",\"rangeEnd\":17,\"rangeStart\":0,\"value\":0,\"valueType\":\"int\"},{\"name\":\"fontWeight\",\"rangeEnd\":17,\"rangeStart\":0,\"value\":100,\"valueType\":\"int\"},{\"name\":\"fontSize\",\"rangeEnd\":17,\"rangeStart\":0,\"value\":60,\"valueType\":\"double\"},{\"name\":\"fontItalic\",\"rangeEnd\":17,\"rangeStart\":0,\"value\":0,\"valueType\":\"int\"},{\"name\":\"fgColor\",\"rangeEnd\":17,\"rangeStart\":0,\"value\":\"(0,0,0,255)\",\"valueType\":\"color\"},{\"name\":\"underline\",\"rangeEnd\":17,\"rangeStart\":0,\"value\":0,\"valueType\":\"int\"}]",
                              "default-translation0" : 0.358387392787593
                            },
                            "animationTracks" : {
                              "visual" : [
                                {
                                  "endTime" : 110,
                                  "duration" : 58,
                                  "range" : [ 52, 58],
                                  "interp" : "eioe"
                                }
                              ]
                            }
                          }
                        ],
                          "ident" : "",
                          "audioMuted" : false,
                          "videoHidden" : false,
                          "magnetic" : false,
                          "metadata" : {
                            "IsLocked" : "False",
                            "WinTrackHeight" : "6.39079466327898e-312"
                          }
                      }
                    ],
                    "attributes" : {
                      "ident" : "Simple Bright Title 3",
                      "gain" : 1.0,
                      "mixToMono" : false,
                      "assetProperties" : [
                        {
                          "type" : 0,
                          "name" : "Title",
                          "objects" : [ 273 ],
                          "themeMappings" :  {
                            "font-color" : "foreground-1",
                            "font-family" : "font-1"
                          }
                        },
                        {
                          "type" : 0,
                          "name" : "Subtitle",
                          "objects" : [ 274 ],
                          "themeMappings" :  {
                            "font-color" : "background-1",
                            "font-family" : "font-1"
                          }
                        },
                        {
                          "type" : 1,
                          "name" : "Color 1",
                          "objects" : [ 271, 272 ],
                          "themeMappings" :  {
                            "fill" : "accent-1"
                          }
                        }
                      ]
                    },
                    "effects" : [

                    ],
                    "start" : 19988,
                    "duration" : 210,
                    "mediaStart" : -30.0,
                    "mediaDuration" : 210.0,
                    "scalar" : 1,
                    "metadata" : {
                      "AppliedThemeId" : "",
                      "IsGroupExpanded" : "False",
                      "WinSubProjectDisplayName" : "Simple Bright Title 3",
                      "clipSpeedAttribute" : false,
                      "default-translation1" : 62.3420348343093,
                      "effectApplied" : "none",
                      "isOpen" : false
                    },
                    "animationTracks" : {

                    }
                  },
                  {
                    "id" : 275,
                    "_type" : "UnifiedMedia",
                    "video" : 
                        {
                          "id" : 276,
                          "_type" : "ScreenVMFile",
                          "src" : 23,
                          "trackNumber" : 0,
                          "attributes" : {
                            "ident" : "scratch-5.1-events-when-start-is-clicked-green-flag"
                          },
                          "parameters" : {
                            "cursorScale" : {
                              "type" : "double",
                              "defaultValue" : 1.0,
                              "interp" : "linr"
                            },
                            "cursorOpacity" : {
                              "type" : "double",
                              "defaultValue" : 1.0,
                              "interp" : "linr"
                            }
                          },
                          "effects" : [

                          ],
                          "start" : 20198,
                          "duration" : 692,
                          "mediaStart" : 0,
                          "mediaDuration" : 692,
                          "scalar" : 1,
                          "animationTracks" : {

                          }
                        },
                    "audio" : 
                        {
                          "id" : 277,
                          "_type" : "AMFile",
                          "src" : 23,
                          "trackNumber" : 1,
                          "attributes" : {
                            "ident" : "",
                            "gain" : 1.0,
                            "mixToMono" : false
                          },
                            "channelNumber" : "0,1",
                          "effects" : [

                          ],
                          "start" : 20198,
                          "duration" : 692,
                          "mediaStart" : 0,
                          "mediaDuration" : 692,
                          "scalar" : 1,
                          "animationTracks" : {

                          }
                        }
,
                    "start" : 20198,
                    "duration" : 692,
                    "mediaStart" : 0,
                    "mediaDuration" : 692,
                    "scalar" : 1,
                    "metadata" : {
                      "AutoAppliedSmartFocus" : "False",
                      "clipSpeedAttribute" : false
                    }
                  },
                  {
                    "id" : 278,
                    "_type" : "Group",
                    "parameters" : {
                      "translation0" : 1.21531229524408e-10,
                      "translation1" : 62.3420348343093,
                      "volume" : 1.0
                    },
                    "tracks" : [
                      {
                        "trackIndex" : 0,
                        "medias" : [
                          {
                            "id" : 279,
                            "_type" : "Callout",
                            "def" : {
                              "kind" : "remix",
                              "shape" : "shape-rectangle",
                              "style" : "urban",
                              "fill-color-blue" : {
                                "type" : "double",
                                "defaultValue" : 1.0,
                                "keyframes" : [
                                  {
                                    "endTime" : 56,
                                    "time" : 18,
                                    "value" : 1.0,
                                    "duration" : 38
                                  },
                                  {
                                    "endTime" : 92,
                                    "time" : 56,
                                    "value" : 0.149019607843137,
                                    "duration" : 36
                                  },
                                  {
                                    "endTime" : 174,
                                    "time" : 116,
                                    "value" : 0.149019607843137,
                                    "duration" : 58
                                  }
                                ]
                              },
                              "fill-color-green" : {
                                "type" : "double",
                                "defaultValue" : 1.0,
                                "keyframes" : [
                                  {
                                    "endTime" : 56,
                                    "time" : 18,
                                    "value" : 1.0,
                                    "duration" : 38
                                  },
                                  {
                                    "endTime" : 92,
                                    "time" : 56,
                                    "value" : 0.96078431372549,
                                    "duration" : 36
                                  },
                                  {
                                    "endTime" : 174,
                                    "time" : 116,
                                    "value" : 0.96078431372549,
                                    "duration" : 58
                                  }
                                ]
                              },
                              "fill-color-opacity" : 1.0,
                              "fill-color-red" : {
                                "type" : "double",
                                "defaultValue" : 1.0,
                                "keyframes" : [
                                  {
                                    "endTime" : 56,
                                    "time" : 18,
                                    "value" : 1.0,
                                    "duration" : 38
                                  },
                                  {
                                    "endTime" : 92,
                                    "time" : 56,
                                    "value" : 0.933333333333333,
                                    "duration" : 36
                                  },
                                  {
                                    "endTime" : 174,
                                    "time" : 116,
                                    "value" : 0.933333333333333,
                                    "duration" : 58
                                  }
                                ]
                              },
                              "height" : {
                                "type" : "double",
                                "defaultValue" : 10.8510761260468,
                                "keyframes" : [
                                  {
                                    "endTime" : 56,
                                    "time" : 18,
                                    "value" : 24.9687231850678,
                                    "duration" : 38
                                  },
                                  {
                                    "endTime" : 92,
                                    "time" : 56,
                                    "value" : 1281.28323719656,
                                    "duration" : 36
                                  },
                                  {
                                    "endTime" : 174,
                                    "time" : 116,
                                    "value" : 1347.6353898526,
                                    "duration" : 58
                                  }
                                ]
                              },
                              "stroke-color-blue" : 1.0,
                              "stroke-color-green" : 1.0,
                              "stroke-color-opacity" : 1.0,
                              "stroke-color-red" : 1.0,
                              "stroke-width" : 0.0,
                              "width" : {
                                "type" : "double",
                                "defaultValue" : 6.88782755517832,
                                "keyframes" : [
                                  {
                                    "endTime" : 56,
                                    "time" : 18,
                                    "value" : 67.9394975592671,
                                    "duration" : 38
                                  },
                                  {
                                    "endTime" : 92,
                                    "time" : 56,
                                    "value" : 67.9394975592671,
                                    "duration" : 36
                                  },
                                  {
                                    "endTime" : 174,
                                    "time" : 116,
                                    "value" : 68.0763125888445,
                                    "duration" : 58
                                  }
                                ]
                              },
                              "fill-style" : "solid",
                              "horizontal-alignment" : "center",
                              "stroke-style" : "solid",
                              "vertical-alignment" : "center",
                              "textAttributes" : {
                                "type" : "textAttributeList",
                                "keyframes" : [
                                  {
                                    "endTime" : 0,
                                    "time" : 0,
                                    "value" : null,
                                    "duration" : 0
                                  }
                                ]
                              }
                            },
                            "attributes" : {
                              "autoRotateText" : true
                            },
                            "parameters" : {
                              "translation0" : {
                                "type" : "double",
                                "defaultValue" : -1.21547438780567e-10,
                                "keyframes" : [
                                  {
                                    "endTime" : 56,
                                    "time" : 18,
                                    "value" : -1.21547438780567e-10,
                                    "duration" : 38
                                  },
                                  {
                                    "endTime" : 92,
                                    "time" : 56,
                                    "value" : 0.0541990816513973,
                                    "duration" : 36
                                  },
                                  {
                                    "endTime" : 174,
                                    "time" : 116,
                                    "value" : -1.67577274979808e-14,
                                    "duration" : 58
                                  }
                                ]
                              },
                              "translation1" : {
                                "type" : "double",
                                "defaultValue" : -96.3117858166865,
                                "keyframes" : [
                                  {
                                    "endTime" : 56,
                                    "time" : 18,
                                    "value" : -96.3117858166865,
                                    "duration" : 38
                                  },
                                  {
                                    "endTime" : 92,
                                    "time" : 56,
                                    "value" : -96.3117858166865,
                                    "duration" : 36
                                  },
                                  {
                                    "endTime" : 174,
                                    "time" : 116,
                                    "value" : -658.65796581331,
                                    "duration" : 58
                                  }
                                ]
                              },
                              "rotation2" : {
                                "type" : "double",
                                "defaultValue" : 0.0,
                                "keyframes" : [
                                  {
                                    "endTime" : 56,
                                    "time" : 18,
                                    "value" : -1.5707963267949,
                                    "duration" : 38
                                  }
                                ]
                              }
                            },
                            "effects" : [

                            ],
                            "start" : -30,
                            "duration" : 210,
                            "mediaStart" : -12,
                            "mediaDuration" : 210,
                            "scalar" : 1,
                            "metadata" : {
                              "WinSubProjectDisplayName" : "",
                              "clipSpeedAttribute" : false
                            },
                            "animationTracks" : {
                              "visual" : [
                                {
                                  "endTime" : 56,
                                  "duration" : 38,
                                  "range" : [ 18, 38],
                                  "interp" : "eioe"
                                },
                                {
                                  "endTime" : 92,
                                  "duration" : 36,
                                  "range" : [ 56, 36],
                                  "interp" : "eioe"
                                },
                                {
                                  "endTime" : 174,
                                  "duration" : 58,
                                  "range" : [ 116, 58]
                                }
                              ]
                            }
                          }
                        ],
                          "ident" : "",
                          "audioMuted" : false,
                          "videoHidden" : false,
                          "magnetic" : false,
                          "metadata" : {
                            "IsLocked" : "False",
                            "WinTrackHeight" : "0"
                          }
                      },
                      {
                        "trackIndex" : 1,
                        "medias" : [
                          {
                            "id" : 280,
                            "_type" : "Callout",
                            "def" : {
                              "kind" : "remix",
                              "shape" : "shape-rectangle",
                              "style" : "urban",
                              "fill-color-blue" : {
                                "type" : "double",
                                "defaultValue" : 1.0,
                                "keyframes" : [
                                  {
                                    "endTime" : 54,
                                    "time" : 18,
                                    "value" : 0.149019607843137,
                                    "duration" : 36
                                  },
                                  {
                                    "endTime" : 136,
                                    "time" : 78,
                                    "value" : 1.0,
                                    "duration" : 58
                                  }
                                ]
                              },
                              "fill-color-green" : {
                                "type" : "double",
                                "defaultValue" : 1.0,
                                "keyframes" : [
                                  {
                                    "endTime" : 54,
                                    "time" : 18,
                                    "value" : 0.96078431372549,
                                    "duration" : 36
                                  },
                                  {
                                    "endTime" : 136,
                                    "time" : 78,
                                    "value" : 1.0,
                                    "duration" : 58
                                  }
                                ]
                              },
                              "fill-color-opacity" : 1.0,
                              "fill-color-red" : {
                                "type" : "double",
                                "defaultValue" : 1.0,
                                "keyframes" : [
                                  {
                                    "endTime" : 54,
                                    "time" : 18,
                                    "value" : 0.933333333333333,
                                    "duration" : 36
                                  },
                                  {
                                    "endTime" : 136,
                                    "time" : 78,
                                    "value" : 1.0,
                                    "duration" : 58
                                  }
                                ]
                              },
                              "height" : {
                                "type" : "double",
                                "defaultValue" : 10.8510761260468,
                                "keyframes" : [
                                  {
                                    "endTime" : 54,
                                    "time" : 18,
                                    "value" : 10.8510761260468,
                                    "duration" : 36
                                  },
                                  {
                                    "endTime" : 136,
                                    "time" : 78,
                                    "value" : 10.8510761260468,
                                    "duration" : 58
                                  }
                                ]
                              },
                              "stroke-color-blue" : 1.0,
                              "stroke-color-green" : 1.0,
                              "stroke-color-opacity" : 1.0,
                              "stroke-color-red" : 1.0,
                              "stroke-width" : 0.0,
                              "width" : {
                                "type" : "double",
                                "defaultValue" : 6.88782755517832,
                                "keyframes" : [
                                  {
                                    "endTime" : 54,
                                    "time" : 18,
                                    "value" : 1281.28316541273,
                                    "duration" : 36
                                  },
                                  {
                                    "endTime" : 136,
                                    "time" : 78,
                                    "value" : 1302.87700103543,
                                    "duration" : 58
                                  }
                                ]
                              },
                              "fill-style" : "solid",
                              "horizontal-alignment" : "center",
                              "stroke-style" : "solid",
                              "vertical-alignment" : "center",
                              "textAttributes" : {
                                "type" : "textAttributeList",
                                "keyframes" : [
                                  {
                                    "endTime" : 0,
                                    "time" : 0,
                                    "value" : null,
                                    "duration" : 0
                                  }
                                ]
                              }
                            },
                            "attributes" : {
                              "autoRotateText" : true
                            },
                            "parameters" : {
                              "translation0" : {
                                "type" : "double",
                                "defaultValue" : -1.21547438780567e-10,
                                "keyframes" : [
                                  {
                                    "endTime" : 54,
                                    "time" : 18,
                                    "value" : -0.0541988189824127,
                                    "duration" : 36
                                  },
                                  {
                                    "endTime" : 136,
                                    "time" : 78,
                                    "value" : -1.21547438780567e-10,
                                    "duration" : 58
                                  }
                                ]
                              },
                              "translation1" : {
                                "type" : "double",
                                "defaultValue" : 78.8579651656907,
                                "keyframes" : [
                                  {
                                    "endTime" : 54,
                                    "time" : 18,
                                    "value" : 78.8936575656383,
                                    "duration" : 36
                                  },
                                  {
                                    "endTime" : 136,
                                    "time" : 78,
                                    "value" : 694.705445748916,
                                    "duration" : 58
                                  }
                                ]
                              }
                            },
                            "effects" : [

                            ],
                            "start" : 38,
                            "duration" : 142,
                            "mediaStart" : 18,
                            "mediaDuration" : 142,
                            "scalar" : 1,
                            "metadata" : {
                              "WinSubProjectDisplayName" : "",
                              "clipSpeedAttribute" : false
                            },
                            "animationTracks" : {
                              "visual" : [
                                {
                                  "endTime" : 54,
                                  "duration" : 36,
                                  "range" : [ 18, 36],
                                  "interp" : "eioe"
                                },
                                {
                                  "endTime" : 136,
                                  "duration" : 58,
                                  "range" : [ 78, 58],
                                  "interp" : "eioe"
                                }
                              ]
                            }
                          }
                        ],
                          "ident" : "",
                          "audioMuted" : false,
                          "videoHidden" : false,
                          "magnetic" : false,
                          "metadata" : {
                            "IsLocked" : "False",
                            "WinTrackHeight" : "6.39079466327898e-312"
                          }
                      },
                      {
                        "trackIndex" : 2,
                        "medias" : [
                          {
                            "id" : 281,
                            "_type" : "Callout",
                            "def" : {
                              "kind" : "remix",
                              "shape" : "text",
                              "style" : "abstract",
                              "height" : 180.630981445261,
                              "line-spacing" : 0.0,
                              "width" : 1281.17482864961,
                              "word-wrap" : 1.0,
                              "horizontal-alignment" : "center",
                              "resize-behavior" : "resizeText",
                              "text" : "when a key is clicked",
                              "vertical-alignment" : "center",
                              "font" : {
                                "color-blue" : 1.0,
                                "color-green" : 1.0,
                                "color-red" : 1.0,
                                "size" : 96.0,
                                "tracking" : 0.0,
                                "name" : "Lato",
                                "weight" : "Regular"
                              },
                              "textAttributes" : {
                                "type" : "textAttributeList",
                                "keyframes" : [
                                  {
                                    "endTime" : 0,
                                    "time" : 0,
                                    "value" : [{"name":"fontName","rangeEnd":21,"rangeStart":0,"value":"Montserrat","valueType":"string"},{"name":"strikethrough","rangeEnd":21,"rangeStart":0,"value":0,"valueType":"int"},{"name":"fgColor","rangeEnd":21,"rangeStart":0,"value":"(255,255,255,255)","valueType":"color"},{"name":"fontSize","rangeEnd":21,"rangeStart":0,"value":128,"valueType":"double"},{"name":"underline","rangeEnd":21,"rangeStart":0,"value":0,"valueType":"int"},{"name":"fontWeight","rangeEnd":21,"rangeStart":0,"value":400,"valueType":"int"},{"name":"kerning","rangeEnd":21,"rangeStart":0,"value":0,"valueType":"double"},{"name":"fontItalic","rangeEnd":21,"rangeStart":0,"value":0,"valueType":"int"}],
                                    "duration" : 0
                                  }
                                ]
                              }
                            },
                            "attributes" : {
                              "autoRotateText" : true
                            },
                            "parameters" : {
                              "translation0" : {
                                "type" : "double",
                                "defaultValue" : 0.412585675275182,
                                "keyframes" : [
                                  {
                                    "endTime" : 152,
                                    "time" : 94,
                                    "value" : 11.2636728451827,
                                    "duration" : 58
                                  }
                                ]
                              },
                              "translation1" : {
                                "type" : "double",
                                "defaultValue" : -5.81178581660322,
                                "keyframes" : [
                                  {
                                    "endTime" : 152,
                                    "time" : 94,
                                    "value" : 610.000002366703,
                                    "duration" : 58
                                  }
                                ]
                              }
                            },
                            "effects" : [
                                {
                                  "_type" : "GenericBehaviorEffect",
                                  "effectName" : "popUp",
                                  "start" : 34,
                                  "duration" : 142                                ,
                                  "in" : {
                                    "attributes" : {
                                      "name" : "reveal",
                                      "type" : 1,
                                      "characterOrder" : 6,
                                      "offsetBetweenCharacters" : 3,
                                      "suggestedDurationPerCharacter" : 44,
                                      "overlapProportion" : 0,
                                      "movement" : 16,
                                      "springDamping" : 5.0,
                                      "springStiffness" : 50.0,
                                      "bounceBounciness" : 0.45
                                    },
                                    "parameters" : {
                                      "direction" : {
                                        "type" : "int",
                                        "valueBounds" : {
                                          "minValue" : 0,
                                          "maxValue" : 3,
                                          "defaultValue" : 0
                                        },
                                        "uiHints" : {
                                          "userInterfaceType" : 2,
                                          "unitType" : 0
                                        },
                                        "keyframes" : [
                                          {
                                            "endTime" : 0,
                                            "time" : 0,
                                            "value" : 2,
                                            "duration" : 0
                                          }
                                        ]
                                      }
                                    }
                                  
                                  },
                                  "center" : {
                                    "attributes" : {
                                      "name" : "none",
                                      "type" : 1,
                                      "characterOrder" : 6,
                                      "offsetBetweenCharacters" : 0,
                                      "secondsPerLoop" : 1,
                                      "numberOfLoops" : -1,
                                      "delayBetweenLoops" : 0,
                                      "offsetBetweenCharacters" : 0
                                    }
                                  
                                  },
                                  "out" : {
                                    "attributes" : {
                                      "name" : "none",
                                      "type" : 1,
                                      "characterOrder" : 6,
                                      "offsetBetweenCharacters" : 0,
                                      "suggestedDurationPerCharacter" : 0,
                                      "overlapProportion" : 0,
                                      "movement" : -1,
                                      "springDamping" : 5.0,
                                      "springStiffness" : 50.0,
                                      "bounceBounciness" : 0.45
                                    }
                                  
                                  }
                                }
                            ],
                            "start" : 38,
                            "duration" : 142,
                            "mediaStart" : 34,
                            "mediaDuration" : 142,
                            "scalar" : 1,
                            "metadata" : {
                              "WinSubProjectDisplayName" : "",
                              "clipSpeedAttribute" : false,
                              "default-HAlign" : "center",
                              "default-LineSpace" : 0.0,
                              "default-VAlign" : "center",
                              "default-text-attributes" : "[{\"name\":\"fontName\",\"rangeEnd\":15,\"rangeStart\":0,\"value\":\"Montserrat\",\"valueType\":\"string\"},{\"name\":\"fgColor\",\"rangeEnd\":15,\"rangeStart\":0,\"value\":\"(255,255,255,255)\",\"valueType\":\"color\"},{\"name\":\"underline\",\"rangeEnd\":15,\"rangeStart\":0,\"value\":0,\"valueType\":\"int\"},{\"name\":\"strikethrough\",\"rangeEnd\":15,\"rangeStart\":0,\"value\":0,\"valueType\":\"int\"},{\"name\":\"fontSize\",\"rangeEnd\":15,\"rangeStart\":0,\"value\":128,\"valueType\":\"double\"},{\"name\":\"fontItalic\",\"rangeEnd\":15,\"rangeStart\":0,\"value\":0,\"valueType\":\"int\"},{\"name\":\"fontWeight\",\"rangeEnd\":15,\"rangeStart\":0,\"value\":100,\"valueType\":\"int\"}]"
                            },
                            "animationTracks" : {
                              "visual" : [
                                {
                                  "endTime" : 152,
                                  "duration" : 58,
                                  "range" : [ 94, 58],
                                  "interp" : "eioe"
                                }
                              ]
                            }
                          }
                        ],
                          "ident" : "",
                          "audioMuted" : false,
                          "videoHidden" : false,
                          "magnetic" : false,
                          "metadata" : {
                            "IsLocked" : "False",
                            "WinTrackHeight" : "6.39079466327898e-312"
                          }
                      },
                      {
                        "trackIndex" : 3,
                        "medias" : [
                          {
                            "id" : 282,
                            "_type" : "Callout",
                            "def" : {
                              "kind" : "remix",
                              "shape" : "text",
                              "style" : "abstract",
                              "height" : 83.6840731068824,
                              "line-spacing" : 0.0,
                              "width" : 1281.28322521409,
                              "word-wrap" : 1.0,
                              "horizontal-alignment" : "center",
                              "resize-behavior" : "resizeText",
                              "text" : "looks",
                              "vertical-alignment" : "center",
                              "font" : {
                                "color-blue" : 1.0,
                                "color-green" : 1.0,
                                "color-red" : 1.0,
                                "size" : 96.0,
                                "tracking" : 0.0,
                                "name" : "Lato",
                                "weight" : "Regular"
                              },
                              "textAttributes" : {
                                "type" : "textAttributeList",
                                "keyframes" : [
                                  {
                                    "endTime" : 0,
                                    "time" : 0,
                                    "value" : [{"name":"fontWeight","rangeEnd":5,"rangeStart":0,"value":400,"valueType":"int"},{"name":"fontItalic","rangeEnd":5,"rangeStart":0,"value":0,"valueType":"int"},{"name":"fontName","rangeEnd":5,"rangeStart":0,"value":"Montserrat","valueType":"string"},{"name":"fontSize","rangeEnd":5,"rangeStart":0,"value":60,"valueType":"double"},{"name":"kerning","rangeEnd":5,"rangeStart":0,"value":0,"valueType":"double"},{"name":"fgColor","rangeEnd":5,"rangeStart":0,"value":"(0,0,0,255)","valueType":"color"},{"name":"underline","rangeEnd":5,"rangeStart":0,"value":0,"valueType":"int"},{"name":"strikethrough","rangeEnd":5,"rangeStart":0,"value":0,"valueType":"int"}],
                                    "duration" : 0
                                  }
                                ]
                              }
                            },
                            "attributes" : {
                              "autoRotateText" : true
                            },
                            "parameters" : {
                              "translation0" : {
                                "type" : "double",
                                "defaultValue" : 0.304200155246711,
                                "keyframes" : [
                                  {
                                    "endTime" : 110,
                                    "time" : 52,
                                    "value" : -1.86383482943485,
                                    "duration" : 58
                                  }
                                ]
                              },
                              "translation1" : {
                                "type" : "double",
                                "defaultValue" : -96.1538223700724,
                                "keyframes" : [
                                  {
                                    "endTime" : 110,
                                    "time" : 52,
                                    "value" : -658.500002366703,
                                    "duration" : 58
                                  }
                                ]
                              }
                            },
                            "effects" : [
                                {
                                  "_type" : "GenericBehaviorEffect",
                                  "effectName" : "popUp",
                                  "start" : 0,
                                  "duration" : 138                                ,
                                  "in" : {
                                    "attributes" : {
                                      "name" : "reveal",
                                      "type" : 1,
                                      "characterOrder" : 7,
                                      "offsetBetweenCharacters" : 3,
                                      "suggestedDurationPerCharacter" : 44,
                                      "overlapProportion" : 0,
                                      "movement" : 16,
                                      "springDamping" : 5.0,
                                      "springStiffness" : 50.0,
                                      "bounceBounciness" : 0.45
                                    },
                                    "parameters" : {
                                      "direction" : {
                                        "type" : "int",
                                        "valueBounds" : {
                                          "minValue" : 0,
                                          "maxValue" : 3,
                                          "defaultValue" : 0
                                        },
                                        "uiHints" : {
                                          "userInterfaceType" : 2,
                                          "unitType" : 0
                                        },
                                        "keyframes" : [
                                          {
                                            "endTime" : 0,
                                            "time" : 0,
                                            "value" : 0,
                                            "duration" : 0
                                          }
                                        ]
                                      }
                                    }
                                  
                                  },
                                  "center" : {
                                    "attributes" : {
                                      "name" : "none",
                                      "type" : 1,
                                      "characterOrder" : 6,
                                      "offsetBetweenCharacters" : 0,
                                      "secondsPerLoop" : 1,
                                      "numberOfLoops" : -1,
                                      "delayBetweenLoops" : 0,
                                      "offsetBetweenCharacters" : 0
                                    }
                                  
                                  },
                                  "out" : {
                                    "attributes" : {
                                      "name" : "none",
                                      "type" : 1,
                                      "characterOrder" : 6,
                                      "offsetBetweenCharacters" : 0,
                                      "suggestedDurationPerCharacter" : 0,
                                      "overlapProportion" : 0,
                                      "movement" : -1,
                                      "springDamping" : 5.0,
                                      "springStiffness" : 50.0,
                                      "bounceBounciness" : 0.45
                                    }
                                  
                                  }
                                }
                            ],
                            "start" : 42,
                            "duration" : 138,
                            "mediaStart" : 0,
                            "mediaDuration" : 138,
                            "scalar" : 1,
                            "metadata" : {
                              "WinSubProjectDisplayName" : "",
                              "clipSpeedAttribute" : false,
                              "default-HAlign" : "center",
                              "default-LineSpace" : 0.0,
                              "default-VAlign" : "center",
                              "default-text-attributes" : "[{\"name\":\"fontName\",\"rangeEnd\":17,\"rangeStart\":0,\"value\":\"Montserrat\",\"valueType\":\"string\"},{\"name\":\"strikethrough\",\"rangeEnd\":17,\"rangeStart\":0,\"value\":0,\"valueType\":\"int\"},{\"name\":\"fontWeight\",\"rangeEnd\":17,\"rangeStart\":0,\"value\":100,\"valueType\":\"int\"},{\"name\":\"fontSize\",\"rangeEnd\":17,\"rangeStart\":0,\"value\":60,\"valueType\":\"double\"},{\"name\":\"fontItalic\",\"rangeEnd\":17,\"rangeStart\":0,\"value\":0,\"valueType\":\"int\"},{\"name\":\"fgColor\",\"rangeEnd\":17,\"rangeStart\":0,\"value\":\"(0,0,0,255)\",\"valueType\":\"color\"},{\"name\":\"underline\",\"rangeEnd\":17,\"rangeStart\":0,\"value\":0,\"valueType\":\"int\"}]",
                              "default-translation0" : 0.358387392787593
                            },
                            "animationTracks" : {
                              "visual" : [
                                {
                                  "endTime" : 110,
                                  "duration" : 58,
                                  "range" : [ 52, 58],
                                  "interp" : "eioe"
                                }
                              ]
                            }
                          }
                        ],
                          "ident" : "",
                          "audioMuted" : false,
                          "videoHidden" : false,
                          "magnetic" : false,
                          "metadata" : {
                            "IsLocked" : "False",
                            "WinTrackHeight" : "6.39079466327898e-312"
                          }
                      }
                    ],
                    "attributes" : {
                      "ident" : "Simple Bright Title 3",
                      "gain" : 1.0,
                      "mixToMono" : false,
                      "assetProperties" : [
                        {
                          "type" : 0,
                          "name" : "Title",
                          "objects" : [ 281 ],
                          "themeMappings" :  {
                            "font-color" : "foreground-1",
                            "font-family" : "font-1"
                          }
                        },
                        {
                          "type" : 0,
                          "name" : "Subtitle",
                          "objects" : [ 282 ],
                          "themeMappings" :  {
                            "font-color" : "background-1",
                            "font-family" : "font-1"
                          }
                        },
                        {
                          "type" : 1,
                          "name" : "Color 1",
                          "objects" : [ 279, 280 ],
                          "themeMappings" :  {
                            "fill" : "accent-1"
                          }
                        }
                      ]
                    },
                    "effects" : [

                    ],
                    "start" : 20890,
                    "duration" : 210,
                    "mediaStart" : -30.0,
                    "mediaDuration" : 210.0,
                    "scalar" : 1,
                    "metadata" : {
                      "AppliedThemeId" : "",
                      "IsGroupExpanded" : "False",
                      "WinSubProjectDisplayName" : "Simple Bright Title 3",
                      "clipSpeedAttribute" : false,
                      "effectApplied" : "none",
                      "isOpen" : false
                    },
                    "animationTracks" : {

                    }
                  },
                  {
                    "id" : 283,
                    "_type" : "UnifiedMedia",
                    "video" : 
                        {
                          "id" : 284,
                          "_type" : "ScreenVMFile",
                          "src" : 24,
                          "trackNumber" : 0,
                          "attributes" : {
                            "ident" : "scratch-5.2-events-when-a-key-is-clicked"
                          },
                          "parameters" : {
                            "cursorScale" : {
                              "type" : "double",
                              "defaultValue" : 1.0,
                              "interp" : "linr"
                            },
                            "cursorOpacity" : {
                              "type" : "double",
                              "defaultValue" : 1.0,
                              "interp" : "linr"
                            }
                          },
                          "effects" : [

                          ],
                          "start" : 21100,
                          "duration" : 680,
                          "mediaStart" : 0,
                          "mediaDuration" : 680,
                          "scalar" : 1,
                          "animationTracks" : {

                          }
                        },
                    "audio" : 
                        {
                          "id" : 285,
                          "_type" : "AMFile",
                          "src" : 24,
                          "trackNumber" : 1,
                          "attributes" : {
                            "ident" : "",
                            "gain" : 1.0,
                            "mixToMono" : false
                          },
                            "channelNumber" : "0,1",
                          "effects" : [

                          ],
                          "start" : 21100,
                          "duration" : 680,
                          "mediaStart" : 0,
                          "mediaDuration" : 680,
                          "scalar" : 1,
                          "animationTracks" : {

                          }
                        }
,
                    "start" : 21100,
                    "duration" : 680,
                    "mediaStart" : 0,
                    "mediaDuration" : 680,
                    "scalar" : 1,
                    "metadata" : {
                      "AutoAppliedSmartFocus" : "False",
                      "clipSpeedAttribute" : false,
                      "default-translation0" : 0.0
                    }
                  },
                  {
                    "id" : 286,
                    "_type" : "Group",
                    "parameters" : {
                      "translation0" : 1.21531229524408e-10,
                      "translation1" : 62.3420348343093,
                      "volume" : 1.0
                    },
                    "tracks" : [
                      {
                        "trackIndex" : 0,
                        "medias" : [
                          {
                            "id" : 287,
                            "_type" : "Callout",
                            "def" : {
                              "kind" : "remix",
                              "shape" : "shape-rectangle",
                              "style" : "urban",
                              "fill-color-blue" : {
                                "type" : "double",
                                "defaultValue" : 1.0,
                                "keyframes" : [
                                  {
                                    "endTime" : 56,
                                    "time" : 18,
                                    "value" : 1.0,
                                    "duration" : 38
                                  },
                                  {
                                    "endTime" : 92,
                                    "time" : 56,
                                    "value" : 0.149019607843137,
                                    "duration" : 36
                                  },
                                  {
                                    "endTime" : 174,
                                    "time" : 116,
                                    "value" : 0.149019607843137,
                                    "duration" : 58
                                  }
                                ]
                              },
                              "fill-color-green" : {
                                "type" : "double",
                                "defaultValue" : 1.0,
                                "keyframes" : [
                                  {
                                    "endTime" : 56,
                                    "time" : 18,
                                    "value" : 1.0,
                                    "duration" : 38
                                  },
                                  {
                                    "endTime" : 92,
                                    "time" : 56,
                                    "value" : 0.96078431372549,
                                    "duration" : 36
                                  },
                                  {
                                    "endTime" : 174,
                                    "time" : 116,
                                    "value" : 0.96078431372549,
                                    "duration" : 58
                                  }
                                ]
                              },
                              "fill-color-opacity" : 1.0,
                              "fill-color-red" : {
                                "type" : "double",
                                "defaultValue" : 1.0,
                                "keyframes" : [
                                  {
                                    "endTime" : 56,
                                    "time" : 18,
                                    "value" : 1.0,
                                    "duration" : 38
                                  },
                                  {
                                    "endTime" : 92,
                                    "time" : 56,
                                    "value" : 0.933333333333333,
                                    "duration" : 36
                                  },
                                  {
                                    "endTime" : 174,
                                    "time" : 116,
                                    "value" : 0.933333333333333,
                                    "duration" : 58
                                  }
                                ]
                              },
                              "height" : {
                                "type" : "double",
                                "defaultValue" : 10.8510761260468,
                                "keyframes" : [
                                  {
                                    "endTime" : 56,
                                    "time" : 18,
                                    "value" : 24.9687231850678,
                                    "duration" : 38
                                  },
                                  {
                                    "endTime" : 92,
                                    "time" : 56,
                                    "value" : 1281.28323719656,
                                    "duration" : 36
                                  },
                                  {
                                    "endTime" : 174,
                                    "time" : 116,
                                    "value" : 1347.6353898526,
                                    "duration" : 58
                                  }
                                ]
                              },
                              "stroke-color-blue" : 1.0,
                              "stroke-color-green" : 1.0,
                              "stroke-color-opacity" : 1.0,
                              "stroke-color-red" : 1.0,
                              "stroke-width" : 0.0,
                              "width" : {
                                "type" : "double",
                                "defaultValue" : 6.88782755517832,
                                "keyframes" : [
                                  {
                                    "endTime" : 56,
                                    "time" : 18,
                                    "value" : 67.9394975592671,
                                    "duration" : 38
                                  },
                                  {
                                    "endTime" : 92,
                                    "time" : 56,
                                    "value" : 67.9394975592671,
                                    "duration" : 36
                                  },
                                  {
                                    "endTime" : 174,
                                    "time" : 116,
                                    "value" : 68.0763125888445,
                                    "duration" : 58
                                  }
                                ]
                              },
                              "fill-style" : "solid",
                              "horizontal-alignment" : "center",
                              "stroke-style" : "solid",
                              "vertical-alignment" : "center",
                              "textAttributes" : {
                                "type" : "textAttributeList",
                                "keyframes" : [
                                  {
                                    "endTime" : 0,
                                    "time" : 0,
                                    "value" : null,
                                    "duration" : 0
                                  }
                                ]
                              }
                            },
                            "attributes" : {
                              "autoRotateText" : true
                            },
                            "parameters" : {
                              "translation0" : {
                                "type" : "double",
                                "defaultValue" : -1.21547438780567e-10,
                                "keyframes" : [
                                  {
                                    "endTime" : 56,
                                    "time" : 18,
                                    "value" : -1.21547438780567e-10,
                                    "duration" : 38
                                  },
                                  {
                                    "endTime" : 92,
                                    "time" : 56,
                                    "value" : 0.0541990816513973,
                                    "duration" : 36
                                  },
                                  {
                                    "endTime" : 174,
                                    "time" : 116,
                                    "value" : -1.67577274979808e-14,
                                    "duration" : 58
                                  }
                                ]
                              },
                              "translation1" : {
                                "type" : "double",
                                "defaultValue" : -96.3117858166865,
                                "keyframes" : [
                                  {
                                    "endTime" : 56,
                                    "time" : 18,
                                    "value" : -96.3117858166865,
                                    "duration" : 38
                                  },
                                  {
                                    "endTime" : 92,
                                    "time" : 56,
                                    "value" : -96.3117858166865,
                                    "duration" : 36
                                  },
                                  {
                                    "endTime" : 174,
                                    "time" : 116,
                                    "value" : -658.65796581331,
                                    "duration" : 58
                                  }
                                ]
                              },
                              "rotation2" : {
                                "type" : "double",
                                "defaultValue" : 0.0,
                                "keyframes" : [
                                  {
                                    "endTime" : 56,
                                    "time" : 18,
                                    "value" : -1.5707963267949,
                                    "duration" : 38
                                  }
                                ]
                              }
                            },
                            "effects" : [

                            ],
                            "start" : -30,
                            "duration" : 210,
                            "mediaStart" : -12,
                            "mediaDuration" : 210,
                            "scalar" : 1,
                            "metadata" : {
                              "WinSubProjectDisplayName" : "",
                              "clipSpeedAttribute" : false
                            },
                            "animationTracks" : {
                              "visual" : [
                                {
                                  "endTime" : 56,
                                  "duration" : 38,
                                  "range" : [ 18, 38],
                                  "interp" : "eioe"
                                },
                                {
                                  "endTime" : 92,
                                  "duration" : 36,
                                  "range" : [ 56, 36],
                                  "interp" : "eioe"
                                },
                                {
                                  "endTime" : 174,
                                  "duration" : 58,
                                  "range" : [ 116, 58]
                                }
                              ]
                            }
                          }
                        ],
                          "ident" : "",
                          "audioMuted" : false,
                          "videoHidden" : false,
                          "magnetic" : false,
                          "metadata" : {
                            "IsLocked" : "False",
                            "WinTrackHeight" : "0"
                          }
                      },
                      {
                        "trackIndex" : 1,
                        "medias" : [
                          {
                            "id" : 288,
                            "_type" : "Callout",
                            "def" : {
                              "kind" : "remix",
                              "shape" : "shape-rectangle",
                              "style" : "urban",
                              "fill-color-blue" : {
                                "type" : "double",
                                "defaultValue" : 1.0,
                                "keyframes" : [
                                  {
                                    "endTime" : 54,
                                    "time" : 18,
                                    "value" : 0.149019607843137,
                                    "duration" : 36
                                  },
                                  {
                                    "endTime" : 136,
                                    "time" : 78,
                                    "value" : 1.0,
                                    "duration" : 58
                                  }
                                ]
                              },
                              "fill-color-green" : {
                                "type" : "double",
                                "defaultValue" : 1.0,
                                "keyframes" : [
                                  {
                                    "endTime" : 54,
                                    "time" : 18,
                                    "value" : 0.96078431372549,
                                    "duration" : 36
                                  },
                                  {
                                    "endTime" : 136,
                                    "time" : 78,
                                    "value" : 1.0,
                                    "duration" : 58
                                  }
                                ]
                              },
                              "fill-color-opacity" : 1.0,
                              "fill-color-red" : {
                                "type" : "double",
                                "defaultValue" : 1.0,
                                "keyframes" : [
                                  {
                                    "endTime" : 54,
                                    "time" : 18,
                                    "value" : 0.933333333333333,
                                    "duration" : 36
                                  },
                                  {
                                    "endTime" : 136,
                                    "time" : 78,
                                    "value" : 1.0,
                                    "duration" : 58
                                  }
                                ]
                              },
                              "height" : {
                                "type" : "double",
                                "defaultValue" : 10.8510761260468,
                                "keyframes" : [
                                  {
                                    "endTime" : 54,
                                    "time" : 18,
                                    "value" : 10.8510761260468,
                                    "duration" : 36
                                  },
                                  {
                                    "endTime" : 136,
                                    "time" : 78,
                                    "value" : 10.8510761260468,
                                    "duration" : 58
                                  }
                                ]
                              },
                              "stroke-color-blue" : 1.0,
                              "stroke-color-green" : 1.0,
                              "stroke-color-opacity" : 1.0,
                              "stroke-color-red" : 1.0,
                              "stroke-width" : 0.0,
                              "width" : {
                                "type" : "double",
                                "defaultValue" : 6.88782755517832,
                                "keyframes" : [
                                  {
                                    "endTime" : 54,
                                    "time" : 18,
                                    "value" : 1281.28316541273,
                                    "duration" : 36
                                  },
                                  {
                                    "endTime" : 136,
                                    "time" : 78,
                                    "value" : 1302.87700103543,
                                    "duration" : 58
                                  }
                                ]
                              },
                              "fill-style" : "solid",
                              "horizontal-alignment" : "center",
                              "stroke-style" : "solid",
                              "vertical-alignment" : "center",
                              "textAttributes" : {
                                "type" : "textAttributeList",
                                "keyframes" : [
                                  {
                                    "endTime" : 0,
                                    "time" : 0,
                                    "value" : null,
                                    "duration" : 0
                                  }
                                ]
                              }
                            },
                            "attributes" : {
                              "autoRotateText" : true
                            },
                            "parameters" : {
                              "translation0" : {
                                "type" : "double",
                                "defaultValue" : -1.21547438780567e-10,
                                "keyframes" : [
                                  {
                                    "endTime" : 54,
                                    "time" : 18,
                                    "value" : -0.0541988189824127,
                                    "duration" : 36
                                  },
                                  {
                                    "endTime" : 136,
                                    "time" : 78,
                                    "value" : -1.21547438780567e-10,
                                    "duration" : 58
                                  }
                                ]
                              },
                              "translation1" : {
                                "type" : "double",
                                "defaultValue" : 78.8579651656907,
                                "keyframes" : [
                                  {
                                    "endTime" : 54,
                                    "time" : 18,
                                    "value" : 78.8936575656383,
                                    "duration" : 36
                                  },
                                  {
                                    "endTime" : 136,
                                    "time" : 78,
                                    "value" : 694.705445748916,
                                    "duration" : 58
                                  }
                                ]
                              }
                            },
                            "effects" : [

                            ],
                            "start" : 38,
                            "duration" : 142,
                            "mediaStart" : 18,
                            "mediaDuration" : 142,
                            "scalar" : 1,
                            "metadata" : {
                              "WinSubProjectDisplayName" : "",
                              "clipSpeedAttribute" : false
                            },
                            "animationTracks" : {
                              "visual" : [
                                {
                                  "endTime" : 54,
                                  "duration" : 36,
                                  "range" : [ 18, 36],
                                  "interp" : "eioe"
                                },
                                {
                                  "endTime" : 136,
                                  "duration" : 58,
                                  "range" : [ 78, 58],
                                  "interp" : "eioe"
                                }
                              ]
                            }
                          }
                        ],
                          "ident" : "",
                          "audioMuted" : false,
                          "videoHidden" : false,
                          "magnetic" : false,
                          "metadata" : {
                            "IsLocked" : "False",
                            "WinTrackHeight" : "6.39079466327898e-312"
                          }
                      },
                      {
                        "trackIndex" : 2,
                        "medias" : [
                          {
                            "id" : 289,
                            "_type" : "Callout",
                            "def" : {
                              "kind" : "remix",
                              "shape" : "text",
                              "style" : "abstract",
                              "height" : 180.630981445261,
                              "line-spacing" : 0.0,
                              "width" : 1281.17482864961,
                              "word-wrap" : 1.0,
                              "horizontal-alignment" : "center",
                              "resize-behavior" : "resizeText",
                              "text" : "when sprite is clicked",
                              "vertical-alignment" : "center",
                              "font" : {
                                "color-blue" : 1.0,
                                "color-green" : 1.0,
                                "color-red" : 1.0,
                                "size" : 96.0,
                                "tracking" : 0.0,
                                "name" : "Lato",
                                "weight" : "Regular"
                              },
                              "textAttributes" : {
                                "type" : "textAttributeList",
                                "keyframes" : [
                                  {
                                    "endTime" : 0,
                                    "time" : 0,
                                    "value" : [{"name":"fgColor","rangeEnd":22,"rangeStart":0,"value":"(255,255,255,255)","valueType":"color"},{"name":"kerning","rangeEnd":22,"rangeStart":0,"value":0,"valueType":"double"},{"name":"fontSize","rangeEnd":22,"rangeStart":0,"value":128,"valueType":"double"},{"name":"fontName","rangeEnd":22,"rangeStart":0,"value":"Montserrat","valueType":"string"},{"name":"fontItalic","rangeEnd":22,"rangeStart":0,"value":0,"valueType":"int"},{"name":"underline","rangeEnd":22,"rangeStart":0,"value":0,"valueType":"int"},{"name":"strikethrough","rangeEnd":22,"rangeStart":0,"value":0,"valueType":"int"},{"name":"fontWeight","rangeEnd":22,"rangeStart":0,"value":400,"valueType":"int"}],
                                    "duration" : 0
                                  }
                                ]
                              }
                            },
                            "attributes" : {
                              "autoRotateText" : true
                            },
                            "parameters" : {
                              "translation0" : {
                                "type" : "double",
                                "defaultValue" : 0.412585675275182,
                                "keyframes" : [
                                  {
                                    "endTime" : 152,
                                    "time" : 94,
                                    "value" : 11.2636728451827,
                                    "duration" : 58
                                  }
                                ]
                              },
                              "translation1" : {
                                "type" : "double",
                                "defaultValue" : -5.81178581660322,
                                "keyframes" : [
                                  {
                                    "endTime" : 152,
                                    "time" : 94,
                                    "value" : 610.000002366703,
                                    "duration" : 58
                                  }
                                ]
                              }
                            },
                            "effects" : [
                                {
                                  "_type" : "GenericBehaviorEffect",
                                  "effectName" : "popUp",
                                  "start" : 34,
                                  "duration" : 142                                ,
                                  "in" : {
                                    "attributes" : {
                                      "name" : "reveal",
                                      "type" : 1,
                                      "characterOrder" : 6,
                                      "offsetBetweenCharacters" : 3,
                                      "suggestedDurationPerCharacter" : 44,
                                      "overlapProportion" : 0,
                                      "movement" : 16,
                                      "springDamping" : 5.0,
                                      "springStiffness" : 50.0,
                                      "bounceBounciness" : 0.45
                                    },
                                    "parameters" : {
                                      "direction" : {
                                        "type" : "int",
                                        "valueBounds" : {
                                          "minValue" : 0,
                                          "maxValue" : 3,
                                          "defaultValue" : 0
                                        },
                                        "uiHints" : {
                                          "userInterfaceType" : 2,
                                          "unitType" : 0
                                        },
                                        "keyframes" : [
                                          {
                                            "endTime" : 0,
                                            "time" : 0,
                                            "value" : 2,
                                            "duration" : 0
                                          }
                                        ]
                                      }
                                    }
                                  
                                  },
                                  "center" : {
                                    "attributes" : {
                                      "name" : "none",
                                      "type" : 1,
                                      "characterOrder" : 6,
                                      "offsetBetweenCharacters" : 0,
                                      "secondsPerLoop" : 1,
                                      "numberOfLoops" : -1,
                                      "delayBetweenLoops" : 0,
                                      "offsetBetweenCharacters" : 0
                                    }
                                  
                                  },
                                  "out" : {
                                    "attributes" : {
                                      "name" : "none",
                                      "type" : 1,
                                      "characterOrder" : 6,
                                      "offsetBetweenCharacters" : 0,
                                      "suggestedDurationPerCharacter" : 0,
                                      "overlapProportion" : 0,
                                      "movement" : -1,
                                      "springDamping" : 5.0,
                                      "springStiffness" : 50.0,
                                      "bounceBounciness" : 0.45
                                    }
                                  
                                  }
                                }
                            ],
                            "start" : 38,
                            "duration" : 142,
                            "mediaStart" : 34,
                            "mediaDuration" : 142,
                            "scalar" : 1,
                            "metadata" : {
                              "WinSubProjectDisplayName" : "",
                              "clipSpeedAttribute" : false,
                              "default-HAlign" : "center",
                              "default-LineSpace" : 0.0,
                              "default-VAlign" : "center",
                              "default-text-attributes" : "[{\"name\":\"fontName\",\"rangeEnd\":15,\"rangeStart\":0,\"value\":\"Montserrat\",\"valueType\":\"string\"},{\"name\":\"fgColor\",\"rangeEnd\":15,\"rangeStart\":0,\"value\":\"(255,255,255,255)\",\"valueType\":\"color\"},{\"name\":\"underline\",\"rangeEnd\":15,\"rangeStart\":0,\"value\":0,\"valueType\":\"int\"},{\"name\":\"strikethrough\",\"rangeEnd\":15,\"rangeStart\":0,\"value\":0,\"valueType\":\"int\"},{\"name\":\"fontSize\",\"rangeEnd\":15,\"rangeStart\":0,\"value\":128,\"valueType\":\"double\"},{\"name\":\"fontItalic\",\"rangeEnd\":15,\"rangeStart\":0,\"value\":0,\"valueType\":\"int\"},{\"name\":\"fontWeight\",\"rangeEnd\":15,\"rangeStart\":0,\"value\":100,\"valueType\":\"int\"}]"
                            },
                            "animationTracks" : {
                              "visual" : [
                                {
                                  "endTime" : 152,
                                  "duration" : 58,
                                  "range" : [ 94, 58],
                                  "interp" : "eioe"
                                }
                              ]
                            }
                          }
                        ],
                          "ident" : "",
                          "audioMuted" : false,
                          "videoHidden" : false,
                          "magnetic" : false,
                          "metadata" : {
                            "IsLocked" : "False",
                            "WinTrackHeight" : "6.39079466327898e-312"
                          }
                      },
                      {
                        "trackIndex" : 3,
                        "medias" : [
                          {
                            "id" : 290,
                            "_type" : "Callout",
                            "def" : {
                              "kind" : "remix",
                              "shape" : "text",
                              "style" : "abstract",
                              "height" : 83.6840731068824,
                              "line-spacing" : 0.0,
                              "width" : 1281.28322521409,
                              "word-wrap" : 1.0,
                              "horizontal-alignment" : "center",
                              "resize-behavior" : "resizeText",
                              "text" : "looks",
                              "vertical-alignment" : "center",
                              "font" : {
                                "color-blue" : 1.0,
                                "color-green" : 1.0,
                                "color-red" : 1.0,
                                "size" : 96.0,
                                "tracking" : 0.0,
                                "name" : "Lato",
                                "weight" : "Regular"
                              },
                              "textAttributes" : {
                                "type" : "textAttributeList",
                                "keyframes" : [
                                  {
                                    "endTime" : 0,
                                    "time" : 0,
                                    "value" : [{"name":"fontWeight","rangeEnd":5,"rangeStart":0,"value":400,"valueType":"int"},{"name":"fontItalic","rangeEnd":5,"rangeStart":0,"value":0,"valueType":"int"},{"name":"fontName","rangeEnd":5,"rangeStart":0,"value":"Montserrat","valueType":"string"},{"name":"fontSize","rangeEnd":5,"rangeStart":0,"value":60,"valueType":"double"},{"name":"kerning","rangeEnd":5,"rangeStart":0,"value":0,"valueType":"double"},{"name":"fgColor","rangeEnd":5,"rangeStart":0,"value":"(0,0,0,255)","valueType":"color"},{"name":"underline","rangeEnd":5,"rangeStart":0,"value":0,"valueType":"int"},{"name":"strikethrough","rangeEnd":5,"rangeStart":0,"value":0,"valueType":"int"}],
                                    "duration" : 0
                                  }
                                ]
                              }
                            },
                            "attributes" : {
                              "autoRotateText" : true
                            },
                            "parameters" : {
                              "translation0" : {
                                "type" : "double",
                                "defaultValue" : 0.304200155246711,
                                "keyframes" : [
                                  {
                                    "endTime" : 110,
                                    "time" : 52,
                                    "value" : -1.86383482943485,
                                    "duration" : 58
                                  }
                                ]
                              },
                              "translation1" : {
                                "type" : "double",
                                "defaultValue" : -96.1538223700724,
                                "keyframes" : [
                                  {
                                    "endTime" : 110,
                                    "time" : 52,
                                    "value" : -658.500002366703,
                                    "duration" : 58
                                  }
                                ]
                              }
                            },
                            "effects" : [
                                {
                                  "_type" : "GenericBehaviorEffect",
                                  "effectName" : "popUp",
                                  "start" : 0,
                                  "duration" : 138                                ,
                                  "in" : {
                                    "attributes" : {
                                      "name" : "reveal",
                                      "type" : 1,
                                      "characterOrder" : 7,
                                      "offsetBetweenCharacters" : 3,
                                      "suggestedDurationPerCharacter" : 44,
                                      "overlapProportion" : 0,
                                      "movement" : 16,
                                      "springDamping" : 5.0,
                                      "springStiffness" : 50.0,
                                      "bounceBounciness" : 0.45
                                    },
                                    "parameters" : {
                                      "direction" : {
                                        "type" : "int",
                                        "valueBounds" : {
                                          "minValue" : 0,
                                          "maxValue" : 3,
                                          "defaultValue" : 0
                                        },
                                        "uiHints" : {
                                          "userInterfaceType" : 2,
                                          "unitType" : 0
                                        },
                                        "keyframes" : [
                                          {
                                            "endTime" : 0,
                                            "time" : 0,
                                            "value" : 0,
                                            "duration" : 0
                                          }
                                        ]
                                      }
                                    }
                                  
                                  },
                                  "center" : {
                                    "attributes" : {
                                      "name" : "none",
                                      "type" : 1,
                                      "characterOrder" : 6,
                                      "offsetBetweenCharacters" : 0,
                                      "secondsPerLoop" : 1,
                                      "numberOfLoops" : -1,
                                      "delayBetweenLoops" : 0,
                                      "offsetBetweenCharacters" : 0
                                    }
                                  
                                  },
                                  "out" : {
                                    "attributes" : {
                                      "name" : "none",
                                      "type" : 1,
                                      "characterOrder" : 6,
                                      "offsetBetweenCharacters" : 0,
                                      "suggestedDurationPerCharacter" : 0,
                                      "overlapProportion" : 0,
                                      "movement" : -1,
                                      "springDamping" : 5.0,
                                      "springStiffness" : 50.0,
                                      "bounceBounciness" : 0.45
                                    }
                                  
                                  }
                                }
                            ],
                            "start" : 42,
                            "duration" : 138,
                            "mediaStart" : 0,
                            "mediaDuration" : 138,
                            "scalar" : 1,
                            "metadata" : {
                              "WinSubProjectDisplayName" : "",
                              "clipSpeedAttribute" : false,
                              "default-HAlign" : "center",
                              "default-LineSpace" : 0.0,
                              "default-VAlign" : "center",
                              "default-text-attributes" : "[{\"name\":\"fontName\",\"rangeEnd\":17,\"rangeStart\":0,\"value\":\"Montserrat\",\"valueType\":\"string\"},{\"name\":\"strikethrough\",\"rangeEnd\":17,\"rangeStart\":0,\"value\":0,\"valueType\":\"int\"},{\"name\":\"fontWeight\",\"rangeEnd\":17,\"rangeStart\":0,\"value\":100,\"valueType\":\"int\"},{\"name\":\"fontSize\",\"rangeEnd\":17,\"rangeStart\":0,\"value\":60,\"valueType\":\"double\"},{\"name\":\"fontItalic\",\"rangeEnd\":17,\"rangeStart\":0,\"value\":0,\"valueType\":\"int\"},{\"name\":\"fgColor\",\"rangeEnd\":17,\"rangeStart\":0,\"value\":\"(0,0,0,255)\",\"valueType\":\"color\"},{\"name\":\"underline\",\"rangeEnd\":17,\"rangeStart\":0,\"value\":0,\"valueType\":\"int\"}]",
                              "default-translation0" : 0.358387392787593
                            },
                            "animationTracks" : {
                              "visual" : [
                                {
                                  "endTime" : 110,
                                  "duration" : 58,
                                  "range" : [ 52, 58],
                                  "interp" : "eioe"
                                }
                              ]
                            }
                          }
                        ],
                          "ident" : "",
                          "audioMuted" : false,
                          "videoHidden" : false,
                          "magnetic" : false,
                          "metadata" : {
                            "IsLocked" : "False",
                            "WinTrackHeight" : "6.39079466327898e-312"
                          }
                      }
                    ],
                    "attributes" : {
                      "ident" : "Simple Bright Title 3",
                      "gain" : 1.0,
                      "mixToMono" : false,
                      "assetProperties" : [
                        {
                          "type" : 0,
                          "name" : "Title",
                          "objects" : [ 289 ],
                          "themeMappings" :  {
                            "font-color" : "foreground-1",
                            "font-family" : "font-1"
                          }
                        },
                        {
                          "type" : 0,
                          "name" : "Subtitle",
                          "objects" : [ 290 ],
                          "themeMappings" :  {
                            "font-color" : "background-1",
                            "font-family" : "font-1"
                          }
                        },
                        {
                          "type" : 1,
                          "name" : "Color 1",
                          "objects" : [ 287, 288 ],
                          "themeMappings" :  {
                            "fill" : "accent-1"
                          }
                        }
                      ]
                    },
                    "effects" : [

                    ],
                    "start" : 21780,
                    "duration" : 210,
                    "mediaStart" : -30.0,
                    "mediaDuration" : 210.0,
                    "scalar" : 1,
                    "metadata" : {
                      "AppliedThemeId" : "",
                      "IsGroupExpanded" : "False",
                      "WinSubProjectDisplayName" : "Simple Bright Title 3",
                      "clipSpeedAttribute" : false,
                      "effectApplied" : "none",
                      "isOpen" : false
                    },
                    "animationTracks" : {

                    }
                  },
                  {
                    "id" : 291,
                    "_type" : "UnifiedMedia",
                    "video" : 
                        {
                          "id" : 292,
                          "_type" : "ScreenVMFile",
                          "src" : 25,
                          "trackNumber" : 0,
                          "attributes" : {
                            "ident" : "scratch-5.3-when-sprite-is-clicked"
                          },
                          "parameters" : {
                            "cursorScale" : {
                              "type" : "double",
                              "defaultValue" : 1.0,
                              "interp" : "linr"
                            },
                            "cursorOpacity" : {
                              "type" : "double",
                              "defaultValue" : 1.0,
                              "interp" : "linr"
                            }
                          },
                          "effects" : [

                          ],
                          "start" : 21990,
                          "duration" : 356,
                          "mediaStart" : 0,
                          "mediaDuration" : 356,
                          "scalar" : 1,
                          "animationTracks" : {

                          }
                        },
                    "audio" : 
                        {
                          "id" : 293,
                          "_type" : "AMFile",
                          "src" : 25,
                          "trackNumber" : 1,
                          "attributes" : {
                            "ident" : "",
                            "gain" : 1.0,
                            "mixToMono" : false
                          },
                            "channelNumber" : "0,1",
                          "effects" : [

                          ],
                          "start" : 21990,
                          "duration" : 356,
                          "mediaStart" : 0,
                          "mediaDuration" : 356,
                          "scalar" : 1,
                          "animationTracks" : {

                          }
                        }
,
                    "start" : 21990,
                    "duration" : 356,
                    "mediaStart" : 0,
                    "mediaDuration" : 356,
                    "scalar" : 1,
                    "metadata" : {
                      "AutoAppliedSmartFocus" : "False",
                      "clipSpeedAttribute" : false
                    }
                  },
                  {
                    "id" : 294,
                    "_type" : "Group",
                    "parameters" : {
                      "translation0" : 1.21531229524408e-10,
                      "translation1" : 62.3420348343093,
                      "volume" : 1.0
                    },
                    "tracks" : [
                      {
                        "trackIndex" : 0,
                        "medias" : [
                          {
                            "id" : 295,
                            "_type" : "Callout",
                            "def" : {
                              "kind" : "remix",
                              "shape" : "shape-rectangle",
                              "style" : "urban",
                              "fill-color-blue" : {
                                "type" : "double",
                                "defaultValue" : 1.0,
                                "keyframes" : [
                                  {
                                    "endTime" : 56,
                                    "time" : 18,
                                    "value" : 1.0,
                                    "duration" : 38
                                  },
                                  {
                                    "endTime" : 92,
                                    "time" : 56,
                                    "value" : 0.149019607843137,
                                    "duration" : 36
                                  },
                                  {
                                    "endTime" : 174,
                                    "time" : 116,
                                    "value" : 0.149019607843137,
                                    "duration" : 58
                                  }
                                ]
                              },
                              "fill-color-green" : {
                                "type" : "double",
                                "defaultValue" : 1.0,
                                "keyframes" : [
                                  {
                                    "endTime" : 56,
                                    "time" : 18,
                                    "value" : 1.0,
                                    "duration" : 38
                                  },
                                  {
                                    "endTime" : 92,
                                    "time" : 56,
                                    "value" : 0.96078431372549,
                                    "duration" : 36
                                  },
                                  {
                                    "endTime" : 174,
                                    "time" : 116,
                                    "value" : 0.96078431372549,
                                    "duration" : 58
                                  }
                                ]
                              },
                              "fill-color-opacity" : 1.0,
                              "fill-color-red" : {
                                "type" : "double",
                                "defaultValue" : 1.0,
                                "keyframes" : [
                                  {
                                    "endTime" : 56,
                                    "time" : 18,
                                    "value" : 1.0,
                                    "duration" : 38
                                  },
                                  {
                                    "endTime" : 92,
                                    "time" : 56,
                                    "value" : 0.933333333333333,
                                    "duration" : 36
                                  },
                                  {
                                    "endTime" : 174,
                                    "time" : 116,
                                    "value" : 0.933333333333333,
                                    "duration" : 58
                                  }
                                ]
                              },
                              "height" : {
                                "type" : "double",
                                "defaultValue" : 10.8510761260468,
                                "keyframes" : [
                                  {
                                    "endTime" : 56,
                                    "time" : 18,
                                    "value" : 24.9687231850678,
                                    "duration" : 38
                                  },
                                  {
                                    "endTime" : 92,
                                    "time" : 56,
                                    "value" : 1281.28323719656,
                                    "duration" : 36
                                  },
                                  {
                                    "endTime" : 174,
                                    "time" : 116,
                                    "value" : 1347.6353898526,
                                    "duration" : 58
                                  }
                                ]
                              },
                              "stroke-color-blue" : 1.0,
                              "stroke-color-green" : 1.0,
                              "stroke-color-opacity" : 1.0,
                              "stroke-color-red" : 1.0,
                              "stroke-width" : 0.0,
                              "width" : {
                                "type" : "double",
                                "defaultValue" : 6.88782755517832,
                                "keyframes" : [
                                  {
                                    "endTime" : 56,
                                    "time" : 18,
                                    "value" : 67.9394975592671,
                                    "duration" : 38
                                  },
                                  {
                                    "endTime" : 92,
                                    "time" : 56,
                                    "value" : 67.9394975592671,
                                    "duration" : 36
                                  },
                                  {
                                    "endTime" : 174,
                                    "time" : 116,
                                    "value" : 68.0763125888445,
                                    "duration" : 58
                                  }
                                ]
                              },
                              "fill-style" : "solid",
                              "horizontal-alignment" : "center",
                              "stroke-style" : "solid",
                              "vertical-alignment" : "center",
                              "textAttributes" : {
                                "type" : "textAttributeList",
                                "keyframes" : [
                                  {
                                    "endTime" : 0,
                                    "time" : 0,
                                    "value" : null,
                                    "duration" : 0
                                  }
                                ]
                              }
                            },
                            "attributes" : {
                              "autoRotateText" : true
                            },
                            "parameters" : {
                              "translation0" : {
                                "type" : "double",
                                "defaultValue" : -1.21547438780567e-10,
                                "keyframes" : [
                                  {
                                    "endTime" : 56,
                                    "time" : 18,
                                    "value" : -1.21547438780567e-10,
                                    "duration" : 38
                                  },
                                  {
                                    "endTime" : 92,
                                    "time" : 56,
                                    "value" : 0.0541990816513973,
                                    "duration" : 36
                                  },
                                  {
                                    "endTime" : 174,
                                    "time" : 116,
                                    "value" : -1.67577274979808e-14,
                                    "duration" : 58
                                  }
                                ]
                              },
                              "translation1" : {
                                "type" : "double",
                                "defaultValue" : -96.3117858166865,
                                "keyframes" : [
                                  {
                                    "endTime" : 56,
                                    "time" : 18,
                                    "value" : -96.3117858166865,
                                    "duration" : 38
                                  },
                                  {
                                    "endTime" : 92,
                                    "time" : 56,
                                    "value" : -96.3117858166865,
                                    "duration" : 36
                                  },
                                  {
                                    "endTime" : 174,
                                    "time" : 116,
                                    "value" : -658.65796581331,
                                    "duration" : 58
                                  }
                                ]
                              },
                              "rotation2" : {
                                "type" : "double",
                                "defaultValue" : 0.0,
                                "keyframes" : [
                                  {
                                    "endTime" : 56,
                                    "time" : 18,
                                    "value" : -1.5707963267949,
                                    "duration" : 38
                                  }
                                ]
                              }
                            },
                            "effects" : [

                            ],
                            "start" : -30,
                            "duration" : 210,
                            "mediaStart" : -12,
                            "mediaDuration" : 210,
                            "scalar" : 1,
                            "metadata" : {
                              "WinSubProjectDisplayName" : "",
                              "clipSpeedAttribute" : false
                            },
                            "animationTracks" : {
                              "visual" : [
                                {
                                  "endTime" : 56,
                                  "duration" : 38,
                                  "range" : [ 18, 38],
                                  "interp" : "eioe"
                                },
                                {
                                  "endTime" : 92,
                                  "duration" : 36,
                                  "range" : [ 56, 36],
                                  "interp" : "eioe"
                                },
                                {
                                  "endTime" : 174,
                                  "duration" : 58,
                                  "range" : [ 116, 58]
                                }
                              ]
                            }
                          }
                        ],
                          "ident" : "",
                          "audioMuted" : false,
                          "videoHidden" : false,
                          "magnetic" : false,
                          "metadata" : {
                            "IsLocked" : "False",
                            "WinTrackHeight" : "0"
                          }
                      },
                      {
                        "trackIndex" : 1,
                        "medias" : [
                          {
                            "id" : 296,
                            "_type" : "Callout",
                            "def" : {
                              "kind" : "remix",
                              "shape" : "shape-rectangle",
                              "style" : "urban",
                              "fill-color-blue" : {
                                "type" : "double",
                                "defaultValue" : 1.0,
                                "keyframes" : [
                                  {
                                    "endTime" : 54,
                                    "time" : 18,
                                    "value" : 0.149019607843137,
                                    "duration" : 36
                                  },
                                  {
                                    "endTime" : 136,
                                    "time" : 78,
                                    "value" : 1.0,
                                    "duration" : 58
                                  }
                                ]
                              },
                              "fill-color-green" : {
                                "type" : "double",
                                "defaultValue" : 1.0,
                                "keyframes" : [
                                  {
                                    "endTime" : 54,
                                    "time" : 18,
                                    "value" : 0.96078431372549,
                                    "duration" : 36
                                  },
                                  {
                                    "endTime" : 136,
                                    "time" : 78,
                                    "value" : 1.0,
                                    "duration" : 58
                                  }
                                ]
                              },
                              "fill-color-opacity" : 1.0,
                              "fill-color-red" : {
                                "type" : "double",
                                "defaultValue" : 1.0,
                                "keyframes" : [
                                  {
                                    "endTime" : 54,
                                    "time" : 18,
                                    "value" : 0.933333333333333,
                                    "duration" : 36
                                  },
                                  {
                                    "endTime" : 136,
                                    "time" : 78,
                                    "value" : 1.0,
                                    "duration" : 58
                                  }
                                ]
                              },
                              "height" : {
                                "type" : "double",
                                "defaultValue" : 10.8510761260468,
                                "keyframes" : [
                                  {
                                    "endTime" : 54,
                                    "time" : 18,
                                    "value" : 10.8510761260468,
                                    "duration" : 36
                                  },
                                  {
                                    "endTime" : 136,
                                    "time" : 78,
                                    "value" : 10.8510761260468,
                                    "duration" : 58
                                  }
                                ]
                              },
                              "stroke-color-blue" : 1.0,
                              "stroke-color-green" : 1.0,
                              "stroke-color-opacity" : 1.0,
                              "stroke-color-red" : 1.0,
                              "stroke-width" : 0.0,
                              "width" : {
                                "type" : "double",
                                "defaultValue" : 6.88782755517832,
                                "keyframes" : [
                                  {
                                    "endTime" : 54,
                                    "time" : 18,
                                    "value" : 1281.28316541273,
                                    "duration" : 36
                                  },
                                  {
                                    "endTime" : 136,
                                    "time" : 78,
                                    "value" : 1302.87700103543,
                                    "duration" : 58
                                  }
                                ]
                              },
                              "fill-style" : "solid",
                              "horizontal-alignment" : "center",
                              "stroke-style" : "solid",
                              "vertical-alignment" : "center",
                              "textAttributes" : {
                                "type" : "textAttributeList",
                                "keyframes" : [
                                  {
                                    "endTime" : 0,
                                    "time" : 0,
                                    "value" : null,
                                    "duration" : 0
                                  }
                                ]
                              }
                            },
                            "attributes" : {
                              "autoRotateText" : true
                            },
                            "parameters" : {
                              "translation0" : {
                                "type" : "double",
                                "defaultValue" : -1.21547438780567e-10,
                                "keyframes" : [
                                  {
                                    "endTime" : 54,
                                    "time" : 18,
                                    "value" : -0.0541988189824127,
                                    "duration" : 36
                                  },
                                  {
                                    "endTime" : 136,
                                    "time" : 78,
                                    "value" : -1.21547438780567e-10,
                                    "duration" : 58
                                  }
                                ]
                              },
                              "translation1" : {
                                "type" : "double",
                                "defaultValue" : 78.8579651656907,
                                "keyframes" : [
                                  {
                                    "endTime" : 54,
                                    "time" : 18,
                                    "value" : 78.8936575656383,
                                    "duration" : 36
                                  },
                                  {
                                    "endTime" : 136,
                                    "time" : 78,
                                    "value" : 694.705445748916,
                                    "duration" : 58
                                  }
                                ]
                              }
                            },
                            "effects" : [

                            ],
                            "start" : 38,
                            "duration" : 142,
                            "mediaStart" : 18,
                            "mediaDuration" : 142,
                            "scalar" : 1,
                            "metadata" : {
                              "WinSubProjectDisplayName" : "",
                              "clipSpeedAttribute" : false
                            },
                            "animationTracks" : {
                              "visual" : [
                                {
                                  "endTime" : 54,
                                  "duration" : 36,
                                  "range" : [ 18, 36],
                                  "interp" : "eioe"
                                },
                                {
                                  "endTime" : 136,
                                  "duration" : 58,
                                  "range" : [ 78, 58],
                                  "interp" : "eioe"
                                }
                              ]
                            }
                          }
                        ],
                          "ident" : "",
                          "audioMuted" : false,
                          "videoHidden" : false,
                          "magnetic" : false,
                          "metadata" : {
                            "IsLocked" : "False",
                            "WinTrackHeight" : "6.39079466327898e-312"
                          }
                      },
                      {
                        "trackIndex" : 2,
                        "medias" : [
                          {
                            "id" : 297,
                            "_type" : "Callout",
                            "def" : {
                              "kind" : "remix",
                              "shape" : "text",
                              "style" : "abstract",
                              "height" : 180.630981445261,
                              "line-spacing" : 0.0,
                              "width" : 1281.17482864961,
                              "word-wrap" : 1.0,
                              "horizontal-alignment" : "center",
                              "resize-behavior" : "resizeText",
                              "text" : "when backdrop switches",
                              "vertical-alignment" : "center",
                              "font" : {
                                "color-blue" : 1.0,
                                "color-green" : 1.0,
                                "color-red" : 1.0,
                                "size" : 96.0,
                                "tracking" : 0.0,
                                "name" : "Lato",
                                "weight" : "Regular"
                              },
                              "textAttributes" : {
                                "type" : "textAttributeList",
                                "keyframes" : [
                                  {
                                    "endTime" : 0,
                                    "time" : 0,
                                    "value" : [{"name":"underline","rangeEnd":22,"rangeStart":0,"value":0,"valueType":"int"},{"name":"fontItalic","rangeEnd":22,"rangeStart":0,"value":0,"valueType":"int"},{"name":"fontSize","rangeEnd":22,"rangeStart":0,"value":128,"valueType":"double"},{"name":"fgColor","rangeEnd":22,"rangeStart":0,"value":"(255,255,255,255)","valueType":"color"},{"name":"kerning","rangeEnd":22,"rangeStart":0,"value":0,"valueType":"double"},{"name":"fontWeight","rangeEnd":22,"rangeStart":0,"value":400,"valueType":"int"},{"name":"strikethrough","rangeEnd":22,"rangeStart":0,"value":0,"valueType":"int"},{"name":"fontName","rangeEnd":22,"rangeStart":0,"value":"Montserrat","valueType":"string"}],
                                    "duration" : 0
                                  }
                                ]
                              }
                            },
                            "attributes" : {
                              "autoRotateText" : true
                            },
                            "parameters" : {
                              "translation0" : {
                                "type" : "double",
                                "defaultValue" : 0.412585675275182,
                                "keyframes" : [
                                  {
                                    "endTime" : 152,
                                    "time" : 94,
                                    "value" : 11.2636728451827,
                                    "duration" : 58
                                  }
                                ]
                              },
                              "translation1" : {
                                "type" : "double",
                                "defaultValue" : -5.81178581660322,
                                "keyframes" : [
                                  {
                                    "endTime" : 152,
                                    "time" : 94,
                                    "value" : 610.000002366703,
                                    "duration" : 58
                                  }
                                ]
                              }
                            },
                            "effects" : [
                                {
                                  "_type" : "GenericBehaviorEffect",
                                  "effectName" : "popUp",
                                  "start" : 34,
                                  "duration" : 142                                ,
                                  "in" : {
                                    "attributes" : {
                                      "name" : "reveal",
                                      "type" : 1,
                                      "characterOrder" : 6,
                                      "offsetBetweenCharacters" : 3,
                                      "suggestedDurationPerCharacter" : 44,
                                      "overlapProportion" : 0,
                                      "movement" : 16,
                                      "springDamping" : 5.0,
                                      "springStiffness" : 50.0,
                                      "bounceBounciness" : 0.45
                                    },
                                    "parameters" : {
                                      "direction" : {
                                        "type" : "int",
                                        "valueBounds" : {
                                          "minValue" : 0,
                                          "maxValue" : 3,
                                          "defaultValue" : 0
                                        },
                                        "uiHints" : {
                                          "userInterfaceType" : 2,
                                          "unitType" : 0
                                        },
                                        "keyframes" : [
                                          {
                                            "endTime" : 0,
                                            "time" : 0,
                                            "value" : 2,
                                            "duration" : 0
                                          }
                                        ]
                                      }
                                    }
                                  
                                  },
                                  "center" : {
                                    "attributes" : {
                                      "name" : "none",
                                      "type" : 1,
                                      "characterOrder" : 6,
                                      "offsetBetweenCharacters" : 0,
                                      "secondsPerLoop" : 1,
                                      "numberOfLoops" : -1,
                                      "delayBetweenLoops" : 0,
                                      "offsetBetweenCharacters" : 0
                                    }
                                  
                                  },
                                  "out" : {
                                    "attributes" : {
                                      "name" : "none",
                                      "type" : 1,
                                      "characterOrder" : 6,
                                      "offsetBetweenCharacters" : 0,
                                      "suggestedDurationPerCharacter" : 0,
                                      "overlapProportion" : 0,
                                      "movement" : -1,
                                      "springDamping" : 5.0,
                                      "springStiffness" : 50.0,
                                      "bounceBounciness" : 0.45
                                    }
                                  
                                  }
                                }
                            ],
                            "start" : 38,
                            "duration" : 142,
                            "mediaStart" : 34,
                            "mediaDuration" : 142,
                            "scalar" : 1,
                            "metadata" : {
                              "WinSubProjectDisplayName" : "",
                              "clipSpeedAttribute" : false,
                              "default-HAlign" : "center",
                              "default-LineSpace" : 0.0,
                              "default-VAlign" : "center",
                              "default-text-attributes" : "[{\"name\":\"fontName\",\"rangeEnd\":15,\"rangeStart\":0,\"value\":\"Montserrat\",\"valueType\":\"string\"},{\"name\":\"fgColor\",\"rangeEnd\":15,\"rangeStart\":0,\"value\":\"(255,255,255,255)\",\"valueType\":\"color\"},{\"name\":\"underline\",\"rangeEnd\":15,\"rangeStart\":0,\"value\":0,\"valueType\":\"int\"},{\"name\":\"strikethrough\",\"rangeEnd\":15,\"rangeStart\":0,\"value\":0,\"valueType\":\"int\"},{\"name\":\"fontSize\",\"rangeEnd\":15,\"rangeStart\":0,\"value\":128,\"valueType\":\"double\"},{\"name\":\"fontItalic\",\"rangeEnd\":15,\"rangeStart\":0,\"value\":0,\"valueType\":\"int\"},{\"name\":\"fontWeight\",\"rangeEnd\":15,\"rangeStart\":0,\"value\":100,\"valueType\":\"int\"}]"
                            },
                            "animationTracks" : {
                              "visual" : [
                                {
                                  "endTime" : 152,
                                  "duration" : 58,
                                  "range" : [ 94, 58],
                                  "interp" : "eioe"
                                }
                              ]
                            }
                          }
                        ],
                          "ident" : "",
                          "audioMuted" : false,
                          "videoHidden" : false,
                          "magnetic" : false,
                          "metadata" : {
                            "IsLocked" : "False",
                            "WinTrackHeight" : "6.39079466327898e-312"
                          }
                      },
                      {
                        "trackIndex" : 3,
                        "medias" : [
                          {
                            "id" : 298,
                            "_type" : "Callout",
                            "def" : {
                              "kind" : "remix",
                              "shape" : "text",
                              "style" : "abstract",
                              "height" : 83.6840731068824,
                              "line-spacing" : 0.0,
                              "width" : 1281.28322521409,
                              "word-wrap" : 1.0,
                              "horizontal-alignment" : "center",
                              "resize-behavior" : "resizeText",
                              "text" : "looks",
                              "vertical-alignment" : "center",
                              "font" : {
                                "color-blue" : 1.0,
                                "color-green" : 1.0,
                                "color-red" : 1.0,
                                "size" : 96.0,
                                "tracking" : 0.0,
                                "name" : "Lato",
                                "weight" : "Regular"
                              },
                              "textAttributes" : {
                                "type" : "textAttributeList",
                                "keyframes" : [
                                  {
                                    "endTime" : 0,
                                    "time" : 0,
                                    "value" : [{"name":"fontWeight","rangeEnd":5,"rangeStart":0,"value":400,"valueType":"int"},{"name":"fontItalic","rangeEnd":5,"rangeStart":0,"value":0,"valueType":"int"},{"name":"fontName","rangeEnd":5,"rangeStart":0,"value":"Montserrat","valueType":"string"},{"name":"fontSize","rangeEnd":5,"rangeStart":0,"value":60,"valueType":"double"},{"name":"kerning","rangeEnd":5,"rangeStart":0,"value":0,"valueType":"double"},{"name":"fgColor","rangeEnd":5,"rangeStart":0,"value":"(0,0,0,255)","valueType":"color"},{"name":"underline","rangeEnd":5,"rangeStart":0,"value":0,"valueType":"int"},{"name":"strikethrough","rangeEnd":5,"rangeStart":0,"value":0,"valueType":"int"}],
                                    "duration" : 0
                                  }
                                ]
                              }
                            },
                            "attributes" : {
                              "autoRotateText" : true
                            },
                            "parameters" : {
                              "translation0" : {
                                "type" : "double",
                                "defaultValue" : 0.304200155246711,
                                "keyframes" : [
                                  {
                                    "endTime" : 110,
                                    "time" : 52,
                                    "value" : -1.86383482943485,
                                    "duration" : 58
                                  }
                                ]
                              },
                              "translation1" : {
                                "type" : "double",
                                "defaultValue" : -96.1538223700724,
                                "keyframes" : [
                                  {
                                    "endTime" : 110,
                                    "time" : 52,
                                    "value" : -658.500002366703,
                                    "duration" : 58
                                  }
                                ]
                              }
                            },
                            "effects" : [
                                {
                                  "_type" : "GenericBehaviorEffect",
                                  "effectName" : "popUp",
                                  "start" : 0,
                                  "duration" : 138                                ,
                                  "in" : {
                                    "attributes" : {
                                      "name" : "reveal",
                                      "type" : 1,
                                      "characterOrder" : 7,
                                      "offsetBetweenCharacters" : 3,
                                      "suggestedDurationPerCharacter" : 44,
                                      "overlapProportion" : 0,
                                      "movement" : 16,
                                      "springDamping" : 5.0,
                                      "springStiffness" : 50.0,
                                      "bounceBounciness" : 0.45
                                    },
                                    "parameters" : {
                                      "direction" : {
                                        "type" : "int",
                                        "valueBounds" : {
                                          "minValue" : 0,
                                          "maxValue" : 3,
                                          "defaultValue" : 0
                                        },
                                        "uiHints" : {
                                          "userInterfaceType" : 2,
                                          "unitType" : 0
                                        },
                                        "keyframes" : [
                                          {
                                            "endTime" : 0,
                                            "time" : 0,
                                            "value" : 0,
                                            "duration" : 0
                                          }
                                        ]
                                      }
                                    }
                                  
                                  },
                                  "center" : {
                                    "attributes" : {
                                      "name" : "none",
                                      "type" : 1,
                                      "characterOrder" : 6,
                                      "offsetBetweenCharacters" : 0,
                                      "secondsPerLoop" : 1,
                                      "numberOfLoops" : -1,
                                      "delayBetweenLoops" : 0,
                                      "offsetBetweenCharacters" : 0
                                    }
                                  
                                  },
                                  "out" : {
                                    "attributes" : {
                                      "name" : "none",
                                      "type" : 1,
                                      "characterOrder" : 6,
                                      "offsetBetweenCharacters" : 0,
                                      "suggestedDurationPerCharacter" : 0,
                                      "overlapProportion" : 0,
                                      "movement" : -1,
                                      "springDamping" : 5.0,
                                      "springStiffness" : 50.0,
                                      "bounceBounciness" : 0.45
                                    }
                                  
                                  }
                                }
                            ],
                            "start" : 42,
                            "duration" : 138,
                            "mediaStart" : 0,
                            "mediaDuration" : 138,
                            "scalar" : 1,
                            "metadata" : {
                              "WinSubProjectDisplayName" : "",
                              "clipSpeedAttribute" : false,
                              "default-HAlign" : "center",
                              "default-LineSpace" : 0.0,
                              "default-VAlign" : "center",
                              "default-text-attributes" : "[{\"name\":\"fontName\",\"rangeEnd\":17,\"rangeStart\":0,\"value\":\"Montserrat\",\"valueType\":\"string\"},{\"name\":\"strikethrough\",\"rangeEnd\":17,\"rangeStart\":0,\"value\":0,\"valueType\":\"int\"},{\"name\":\"fontWeight\",\"rangeEnd\":17,\"rangeStart\":0,\"value\":100,\"valueType\":\"int\"},{\"name\":\"fontSize\",\"rangeEnd\":17,\"rangeStart\":0,\"value\":60,\"valueType\":\"double\"},{\"name\":\"fontItalic\",\"rangeEnd\":17,\"rangeStart\":0,\"value\":0,\"valueType\":\"int\"},{\"name\":\"fgColor\",\"rangeEnd\":17,\"rangeStart\":0,\"value\":\"(0,0,0,255)\",\"valueType\":\"color\"},{\"name\":\"underline\",\"rangeEnd\":17,\"rangeStart\":0,\"value\":0,\"valueType\":\"int\"}]",
                              "default-translation0" : 0.358387392787593
                            },
                            "animationTracks" : {
                              "visual" : [
                                {
                                  "endTime" : 110,
                                  "duration" : 58,
                                  "range" : [ 52, 58],
                                  "interp" : "eioe"
                                }
                              ]
                            }
                          }
                        ],
                          "ident" : "",
                          "audioMuted" : false,
                          "videoHidden" : false,
                          "magnetic" : false,
                          "metadata" : {
                            "IsLocked" : "False",
                            "WinTrackHeight" : "6.39079466327898e-312"
                          }
                      }
                    ],
                    "attributes" : {
                      "ident" : "Simple Bright Title 3",
                      "gain" : 1.0,
                      "mixToMono" : false,
                      "assetProperties" : [
                        {
                          "type" : 0,
                          "name" : "Title",
                          "objects" : [ 297 ],
                          "themeMappings" :  {
                            "font-color" : "foreground-1",
                            "font-family" : "font-1"
                          }
                        },
                        {
                          "type" : 0,
                          "name" : "Subtitle",
                          "objects" : [ 298 ],
                          "themeMappings" :  {
                            "font-color" : "background-1",
                            "font-family" : "font-1"
                          }
                        },
                        {
                          "type" : 1,
                          "name" : "Color 1",
                          "objects" : [ 295, 296 ],
                          "themeMappings" :  {
                            "fill" : "accent-1"
                          }
                        }
                      ]
                    },
                    "effects" : [

                    ],
                    "start" : 22346,
                    "duration" : 210,
                    "mediaStart" : -30.0,
                    "mediaDuration" : 210.0,
                    "scalar" : 1,
                    "metadata" : {
                      "AppliedThemeId" : "",
                      "IsGroupExpanded" : "False",
                      "WinSubProjectDisplayName" : "Simple Bright Title 3",
                      "clipSpeedAttribute" : false,
                      "effectApplied" : "none",
                      "isOpen" : false
                    },
                    "animationTracks" : {

                    }
                  },
                  {
                    "id" : 299,
                    "_type" : "UnifiedMedia",
                    "video" : 
                        {
                          "id" : 300,
                          "_type" : "ScreenVMFile",
                          "src" : 26,
                          "trackNumber" : 0,
                          "attributes" : {
                            "ident" : "scratch-5.4-events-when-backdrop-switches"
                          },
                          "parameters" : {
                            "cursorScale" : {
                              "type" : "double",
                              "defaultValue" : 1.0,
                              "interp" : "linr"
                            },
                            "cursorOpacity" : {
                              "type" : "double",
                              "defaultValue" : 1.0,
                              "interp" : "linr"
                            }
                          },
                          "effects" : [

                          ],
                          "start" : 22556,
                          "duration" : 432,
                          "mediaStart" : 0,
                          "mediaDuration" : 432,
                          "scalar" : 1,
                          "animationTracks" : {

                          }
                        },
                    "audio" : 
                        {
                          "id" : 301,
                          "_type" : "AMFile",
                          "src" : 26,
                          "trackNumber" : 1,
                          "attributes" : {
                            "ident" : "",
                            "gain" : 1.0,
                            "mixToMono" : false
                          },
                            "channelNumber" : "0,1",
                          "effects" : [

                          ],
                          "start" : 22556,
                          "duration" : 432,
                          "mediaStart" : 0,
                          "mediaDuration" : 432,
                          "scalar" : 1,
                          "animationTracks" : {

                          }
                        }
,
                    "start" : 22556,
                    "duration" : 432,
                    "mediaStart" : 0,
                    "mediaDuration" : 432,
                    "scalar" : 1,
                    "metadata" : {
                      "AutoAppliedSmartFocus" : "False",
                      "clipSpeedAttribute" : false
                    }
                  },
                  {
                    "id" : 302,
                    "_type" : "Group",
                    "parameters" : {
                      "translation0" : 1.21531229524408e-10,
                      "translation1" : 62.3420348343093,
                      "volume" : 1.0
                    },
                    "tracks" : [
                      {
                        "trackIndex" : 0,
                        "medias" : [
                          {
                            "id" : 303,
                            "_type" : "Callout",
                            "def" : {
                              "kind" : "remix",
                              "shape" : "shape-rectangle",
                              "style" : "urban",
                              "fill-color-blue" : {
                                "type" : "double",
                                "defaultValue" : 1.0,
                                "keyframes" : [
                                  {
                                    "endTime" : 56,
                                    "time" : 18,
                                    "value" : 1.0,
                                    "duration" : 38
                                  },
                                  {
                                    "endTime" : 92,
                                    "time" : 56,
                                    "value" : 0.149019607843137,
                                    "duration" : 36
                                  },
                                  {
                                    "endTime" : 174,
                                    "time" : 116,
                                    "value" : 0.149019607843137,
                                    "duration" : 58
                                  }
                                ]
                              },
                              "fill-color-green" : {
                                "type" : "double",
                                "defaultValue" : 1.0,
                                "keyframes" : [
                                  {
                                    "endTime" : 56,
                                    "time" : 18,
                                    "value" : 1.0,
                                    "duration" : 38
                                  },
                                  {
                                    "endTime" : 92,
                                    "time" : 56,
                                    "value" : 0.96078431372549,
                                    "duration" : 36
                                  },
                                  {
                                    "endTime" : 174,
                                    "time" : 116,
                                    "value" : 0.96078431372549,
                                    "duration" : 58
                                  }
                                ]
                              },
                              "fill-color-opacity" : 1.0,
                              "fill-color-red" : {
                                "type" : "double",
                                "defaultValue" : 1.0,
                                "keyframes" : [
                                  {
                                    "endTime" : 56,
                                    "time" : 18,
                                    "value" : 1.0,
                                    "duration" : 38
                                  },
                                  {
                                    "endTime" : 92,
                                    "time" : 56,
                                    "value" : 0.933333333333333,
                                    "duration" : 36
                                  },
                                  {
                                    "endTime" : 174,
                                    "time" : 116,
                                    "value" : 0.933333333333333,
                                    "duration" : 58
                                  }
                                ]
                              },
                              "height" : {
                                "type" : "double",
                                "defaultValue" : 10.8510761260468,
                                "keyframes" : [
                                  {
                                    "endTime" : 56,
                                    "time" : 18,
                                    "value" : 24.9687231850678,
                                    "duration" : 38
                                  },
                                  {
                                    "endTime" : 92,
                                    "time" : 56,
                                    "value" : 1281.28323719656,
                                    "duration" : 36
                                  },
                                  {
                                    "endTime" : 174,
                                    "time" : 116,
                                    "value" : 1347.6353898526,
                                    "duration" : 58
                                  }
                                ]
                              },
                              "stroke-color-blue" : 1.0,
                              "stroke-color-green" : 1.0,
                              "stroke-color-opacity" : 1.0,
                              "stroke-color-red" : 1.0,
                              "stroke-width" : 0.0,
                              "width" : {
                                "type" : "double",
                                "defaultValue" : 6.88782755517832,
                                "keyframes" : [
                                  {
                                    "endTime" : 56,
                                    "time" : 18,
                                    "value" : 67.9394975592671,
                                    "duration" : 38
                                  },
                                  {
                                    "endTime" : 92,
                                    "time" : 56,
                                    "value" : 67.9394975592671,
                                    "duration" : 36
                                  },
                                  {
                                    "endTime" : 174,
                                    "time" : 116,
                                    "value" : 68.0763125888445,
                                    "duration" : 58
                                  }
                                ]
                              },
                              "fill-style" : "solid",
                              "horizontal-alignment" : "center",
                              "stroke-style" : "solid",
                              "vertical-alignment" : "center",
                              "textAttributes" : {
                                "type" : "textAttributeList",
                                "keyframes" : [
                                  {
                                    "endTime" : 0,
                                    "time" : 0,
                                    "value" : null,
                                    "duration" : 0
                                  }
                                ]
                              }
                            },
                            "attributes" : {
                              "autoRotateText" : true
                            },
                            "parameters" : {
                              "translation0" : {
                                "type" : "double",
                                "defaultValue" : -1.21547438780567e-10,
                                "keyframes" : [
                                  {
                                    "endTime" : 56,
                                    "time" : 18,
                                    "value" : -1.21547438780567e-10,
                                    "duration" : 38
                                  },
                                  {
                                    "endTime" : 92,
                                    "time" : 56,
                                    "value" : 0.0541990816513973,
                                    "duration" : 36
                                  },
                                  {
                                    "endTime" : 174,
                                    "time" : 116,
                                    "value" : -1.67577274979808e-14,
                                    "duration" : 58
                                  }
                                ]
                              },
                              "translation1" : {
                                "type" : "double",
                                "defaultValue" : -96.3117858166865,
                                "keyframes" : [
                                  {
                                    "endTime" : 56,
                                    "time" : 18,
                                    "value" : -96.3117858166865,
                                    "duration" : 38
                                  },
                                  {
                                    "endTime" : 92,
                                    "time" : 56,
                                    "value" : -96.3117858166865,
                                    "duration" : 36
                                  },
                                  {
                                    "endTime" : 174,
                                    "time" : 116,
                                    "value" : -658.65796581331,
                                    "duration" : 58
                                  }
                                ]
                              },
                              "rotation2" : {
                                "type" : "double",
                                "defaultValue" : 0.0,
                                "keyframes" : [
                                  {
                                    "endTime" : 56,
                                    "time" : 18,
                                    "value" : -1.5707963267949,
                                    "duration" : 38
                                  }
                                ]
                              }
                            },
                            "effects" : [

                            ],
                            "start" : -30,
                            "duration" : 210,
                            "mediaStart" : -12,
                            "mediaDuration" : 210,
                            "scalar" : 1,
                            "metadata" : {
                              "WinSubProjectDisplayName" : "",
                              "clipSpeedAttribute" : false
                            },
                            "animationTracks" : {
                              "visual" : [
                                {
                                  "endTime" : 56,
                                  "duration" : 38,
                                  "range" : [ 18, 38],
                                  "interp" : "eioe"
                                },
                                {
                                  "endTime" : 92,
                                  "duration" : 36,
                                  "range" : [ 56, 36],
                                  "interp" : "eioe"
                                },
                                {
                                  "endTime" : 174,
                                  "duration" : 58,
                                  "range" : [ 116, 58]
                                }
                              ]
                            }
                          }
                        ],
                          "ident" : "",
                          "audioMuted" : false,
                          "videoHidden" : false,
                          "magnetic" : false,
                          "metadata" : {
                            "IsLocked" : "False",
                            "WinTrackHeight" : "0"
                          }
                      },
                      {
                        "trackIndex" : 1,
                        "medias" : [
                          {
                            "id" : 304,
                            "_type" : "Callout",
                            "def" : {
                              "kind" : "remix",
                              "shape" : "shape-rectangle",
                              "style" : "urban",
                              "fill-color-blue" : {
                                "type" : "double",
                                "defaultValue" : 1.0,
                                "keyframes" : [
                                  {
                                    "endTime" : 54,
                                    "time" : 18,
                                    "value" : 0.149019607843137,
                                    "duration" : 36
                                  },
                                  {
                                    "endTime" : 136,
                                    "time" : 78,
                                    "value" : 1.0,
                                    "duration" : 58
                                  }
                                ]
                              },
                              "fill-color-green" : {
                                "type" : "double",
                                "defaultValue" : 1.0,
                                "keyframes" : [
                                  {
                                    "endTime" : 54,
                                    "time" : 18,
                                    "value" : 0.96078431372549,
                                    "duration" : 36
                                  },
                                  {
                                    "endTime" : 136,
                                    "time" : 78,
                                    "value" : 1.0,
                                    "duration" : 58
                                  }
                                ]
                              },
                              "fill-color-opacity" : 1.0,
                              "fill-color-red" : {
                                "type" : "double",
                                "defaultValue" : 1.0,
                                "keyframes" : [
                                  {
                                    "endTime" : 54,
                                    "time" : 18,
                                    "value" : 0.933333333333333,
                                    "duration" : 36
                                  },
                                  {
                                    "endTime" : 136,
                                    "time" : 78,
                                    "value" : 1.0,
                                    "duration" : 58
                                  }
                                ]
                              },
                              "height" : {
                                "type" : "double",
                                "defaultValue" : 10.8510761260468,
                                "keyframes" : [
                                  {
                                    "endTime" : 54,
                                    "time" : 18,
                                    "value" : 10.8510761260468,
                                    "duration" : 36
                                  },
                                  {
                                    "endTime" : 136,
                                    "time" : 78,
                                    "value" : 10.8510761260468,
                                    "duration" : 58
                                  }
                                ]
                              },
                              "stroke-color-blue" : 1.0,
                              "stroke-color-green" : 1.0,
                              "stroke-color-opacity" : 1.0,
                              "stroke-color-red" : 1.0,
                              "stroke-width" : 0.0,
                              "width" : {
                                "type" : "double",
                                "defaultValue" : 6.88782755517832,
                                "keyframes" : [
                                  {
                                    "endTime" : 54,
                                    "time" : 18,
                                    "value" : 1281.28316541273,
                                    "duration" : 36
                                  },
                                  {
                                    "endTime" : 136,
                                    "time" : 78,
                                    "value" : 1302.87700103543,
                                    "duration" : 58
                                  }
                                ]
                              },
                              "fill-style" : "solid",
                              "horizontal-alignment" : "center",
                              "stroke-style" : "solid",
                              "vertical-alignment" : "center",
                              "textAttributes" : {
                                "type" : "textAttributeList",
                                "keyframes" : [
                                  {
                                    "endTime" : 0,
                                    "time" : 0,
                                    "value" : null,
                                    "duration" : 0
                                  }
                                ]
                              }
                            },
                            "attributes" : {
                              "autoRotateText" : true
                            },
                            "parameters" : {
                              "translation0" : {
                                "type" : "double",
                                "defaultValue" : -1.21547438780567e-10,
                                "keyframes" : [
                                  {
                                    "endTime" : 54,
                                    "time" : 18,
                                    "value" : -0.0541988189824127,
                                    "duration" : 36
                                  },
                                  {
                                    "endTime" : 136,
                                    "time" : 78,
                                    "value" : -1.21547438780567e-10,
                                    "duration" : 58
                                  }
                                ]
                              },
                              "translation1" : {
                                "type" : "double",
                                "defaultValue" : 78.8579651656907,
                                "keyframes" : [
                                  {
                                    "endTime" : 54,
                                    "time" : 18,
                                    "value" : 78.8936575656383,
                                    "duration" : 36
                                  },
                                  {
                                    "endTime" : 136,
                                    "time" : 78,
                                    "value" : 694.705445748916,
                                    "duration" : 58
                                  }
                                ]
                              }
                            },
                            "effects" : [

                            ],
                            "start" : 38,
                            "duration" : 142,
                            "mediaStart" : 18,
                            "mediaDuration" : 142,
                            "scalar" : 1,
                            "metadata" : {
                              "WinSubProjectDisplayName" : "",
                              "clipSpeedAttribute" : false
                            },
                            "animationTracks" : {
                              "visual" : [
                                {
                                  "endTime" : 54,
                                  "duration" : 36,
                                  "range" : [ 18, 36],
                                  "interp" : "eioe"
                                },
                                {
                                  "endTime" : 136,
                                  "duration" : 58,
                                  "range" : [ 78, 58],
                                  "interp" : "eioe"
                                }
                              ]
                            }
                          }
                        ],
                          "ident" : "",
                          "audioMuted" : false,
                          "videoHidden" : false,
                          "magnetic" : false,
                          "metadata" : {
                            "IsLocked" : "False",
                            "WinTrackHeight" : "6.39079466327898e-312"
                          }
                      },
                      {
                        "trackIndex" : 2,
                        "medias" : [
                          {
                            "id" : 305,
                            "_type" : "Callout",
                            "def" : {
                              "kind" : "remix",
                              "shape" : "text",
                              "style" : "abstract",
                              "height" : 180.630981445261,
                              "line-spacing" : 0.0,
                              "width" : 1281.17482864961,
                              "word-wrap" : 1.0,
                              "horizontal-alignment" : "center",
                              "resize-behavior" : "resizeText",
                              "text" : "when loudness exceeds",
                              "vertical-alignment" : "center",
                              "font" : {
                                "color-blue" : 1.0,
                                "color-green" : 1.0,
                                "color-red" : 1.0,
                                "size" : 96.0,
                                "tracking" : 0.0,
                                "name" : "Lato",
                                "weight" : "Regular"
                              },
                              "textAttributes" : {
                                "type" : "textAttributeList",
                                "keyframes" : [
                                  {
                                    "endTime" : 0,
                                    "time" : 0,
                                    "value" : [{"name":"kerning","rangeEnd":21,"rangeStart":0,"value":0,"valueType":"double"},{"name":"fgColor","rangeEnd":21,"rangeStart":0,"value":"(255,255,255,255)","valueType":"color"},{"name":"fontName","rangeEnd":21,"rangeStart":0,"value":"Montserrat","valueType":"string"},{"name":"fontWeight","rangeEnd":21,"rangeStart":0,"value":400,"valueType":"int"},{"name":"fontSize","rangeEnd":21,"rangeStart":0,"value":128,"valueType":"double"},{"name":"underline","rangeEnd":21,"rangeStart":0,"value":0,"valueType":"int"},{"name":"fontItalic","rangeEnd":21,"rangeStart":0,"value":0,"valueType":"int"},{"name":"strikethrough","rangeEnd":21,"rangeStart":0,"value":0,"valueType":"int"}],
                                    "duration" : 0
                                  }
                                ]
                              }
                            },
                            "attributes" : {
                              "autoRotateText" : true
                            },
                            "parameters" : {
                              "translation0" : {
                                "type" : "double",
                                "defaultValue" : 0.412585675275182,
                                "keyframes" : [
                                  {
                                    "endTime" : 152,
                                    "time" : 94,
                                    "value" : 11.2636728451827,
                                    "duration" : 58
                                  }
                                ]
                              },
                              "translation1" : {
                                "type" : "double",
                                "defaultValue" : -5.81178581660322,
                                "keyframes" : [
                                  {
                                    "endTime" : 152,
                                    "time" : 94,
                                    "value" : 610.000002366703,
                                    "duration" : 58
                                  }
                                ]
                              }
                            },
                            "effects" : [
                                {
                                  "_type" : "GenericBehaviorEffect",
                                  "effectName" : "popUp",
                                  "start" : 34,
                                  "duration" : 142                                ,
                                  "in" : {
                                    "attributes" : {
                                      "name" : "reveal",
                                      "type" : 1,
                                      "characterOrder" : 6,
                                      "offsetBetweenCharacters" : 3,
                                      "suggestedDurationPerCharacter" : 44,
                                      "overlapProportion" : 0,
                                      "movement" : 16,
                                      "springDamping" : 5.0,
                                      "springStiffness" : 50.0,
                                      "bounceBounciness" : 0.45
                                    },
                                    "parameters" : {
                                      "direction" : {
                                        "type" : "int",
                                        "valueBounds" : {
                                          "minValue" : 0,
                                          "maxValue" : 3,
                                          "defaultValue" : 0
                                        },
                                        "uiHints" : {
                                          "userInterfaceType" : 2,
                                          "unitType" : 0
                                        },
                                        "keyframes" : [
                                          {
                                            "endTime" : 0,
                                            "time" : 0,
                                            "value" : 2,
                                            "duration" : 0
                                          }
                                        ]
                                      }
                                    }
                                  
                                  },
                                  "center" : {
                                    "attributes" : {
                                      "name" : "none",
                                      "type" : 1,
                                      "characterOrder" : 6,
                                      "offsetBetweenCharacters" : 0,
                                      "secondsPerLoop" : 1,
                                      "numberOfLoops" : -1,
                                      "delayBetweenLoops" : 0,
                                      "offsetBetweenCharacters" : 0
                                    }
                                  
                                  },
                                  "out" : {
                                    "attributes" : {
                                      "name" : "none",
                                      "type" : 1,
                                      "characterOrder" : 6,
                                      "offsetBetweenCharacters" : 0,
                                      "suggestedDurationPerCharacter" : 0,
                                      "overlapProportion" : 0,
                                      "movement" : -1,
                                      "springDamping" : 5.0,
                                      "springStiffness" : 50.0,
                                      "bounceBounciness" : 0.45
                                    }
                                  
                                  }
                                }
                            ],
                            "start" : 38,
                            "duration" : 142,
                            "mediaStart" : 34,
                            "mediaDuration" : 142,
                            "scalar" : 1,
                            "metadata" : {
                              "WinSubProjectDisplayName" : "",
                              "clipSpeedAttribute" : false,
                              "default-HAlign" : "center",
                              "default-LineSpace" : 0.0,
                              "default-VAlign" : "center",
                              "default-text-attributes" : "[{\"name\":\"fontName\",\"rangeEnd\":15,\"rangeStart\":0,\"value\":\"Montserrat\",\"valueType\":\"string\"},{\"name\":\"fgColor\",\"rangeEnd\":15,\"rangeStart\":0,\"value\":\"(255,255,255,255)\",\"valueType\":\"color\"},{\"name\":\"underline\",\"rangeEnd\":15,\"rangeStart\":0,\"value\":0,\"valueType\":\"int\"},{\"name\":\"strikethrough\",\"rangeEnd\":15,\"rangeStart\":0,\"value\":0,\"valueType\":\"int\"},{\"name\":\"fontSize\",\"rangeEnd\":15,\"rangeStart\":0,\"value\":128,\"valueType\":\"double\"},{\"name\":\"fontItalic\",\"rangeEnd\":15,\"rangeStart\":0,\"value\":0,\"valueType\":\"int\"},{\"name\":\"fontWeight\",\"rangeEnd\":15,\"rangeStart\":0,\"value\":100,\"valueType\":\"int\"}]"
                            },
                            "animationTracks" : {
                              "visual" : [
                                {
                                  "endTime" : 152,
                                  "duration" : 58,
                                  "range" : [ 94, 58],
                                  "interp" : "eioe"
                                }
                              ]
                            }
                          }
                        ],
                          "ident" : "",
                          "audioMuted" : false,
                          "videoHidden" : false,
                          "magnetic" : false,
                          "metadata" : {
                            "IsLocked" : "False",
                            "WinTrackHeight" : "6.39079466327898e-312"
                          }
                      },
                      {
                        "trackIndex" : 3,
                        "medias" : [
                          {
                            "id" : 306,
                            "_type" : "Callout",
                            "def" : {
                              "kind" : "remix",
                              "shape" : "text",
                              "style" : "abstract",
                              "height" : 83.6840731068824,
                              "line-spacing" : 0.0,
                              "width" : 1281.28322521409,
                              "word-wrap" : 1.0,
                              "horizontal-alignment" : "center",
                              "resize-behavior" : "resizeText",
                              "text" : "looks",
                              "vertical-alignment" : "center",
                              "font" : {
                                "color-blue" : 1.0,
                                "color-green" : 1.0,
                                "color-red" : 1.0,
                                "size" : 96.0,
                                "tracking" : 0.0,
                                "name" : "Lato",
                                "weight" : "Regular"
                              },
                              "textAttributes" : {
                                "type" : "textAttributeList",
                                "keyframes" : [
                                  {
                                    "endTime" : 0,
                                    "time" : 0,
                                    "value" : [{"name":"fontWeight","rangeEnd":5,"rangeStart":0,"value":400,"valueType":"int"},{"name":"fontItalic","rangeEnd":5,"rangeStart":0,"value":0,"valueType":"int"},{"name":"fontName","rangeEnd":5,"rangeStart":0,"value":"Montserrat","valueType":"string"},{"name":"fontSize","rangeEnd":5,"rangeStart":0,"value":60,"valueType":"double"},{"name":"kerning","rangeEnd":5,"rangeStart":0,"value":0,"valueType":"double"},{"name":"fgColor","rangeEnd":5,"rangeStart":0,"value":"(0,0,0,255)","valueType":"color"},{"name":"underline","rangeEnd":5,"rangeStart":0,"value":0,"valueType":"int"},{"name":"strikethrough","rangeEnd":5,"rangeStart":0,"value":0,"valueType":"int"}],
                                    "duration" : 0
                                  }
                                ]
                              }
                            },
                            "attributes" : {
                              "autoRotateText" : true
                            },
                            "parameters" : {
                              "translation0" : {
                                "type" : "double",
                                "defaultValue" : 0.304200155246711,
                                "keyframes" : [
                                  {
                                    "endTime" : 110,
                                    "time" : 52,
                                    "value" : -1.86383482943485,
                                    "duration" : 58
                                  }
                                ]
                              },
                              "translation1" : {
                                "type" : "double",
                                "defaultValue" : -96.1538223700724,
                                "keyframes" : [
                                  {
                                    "endTime" : 110,
                                    "time" : 52,
                                    "value" : -658.500002366703,
                                    "duration" : 58
                                  }
                                ]
                              }
                            },
                            "effects" : [
                                {
                                  "_type" : "GenericBehaviorEffect",
                                  "effectName" : "popUp",
                                  "start" : 0,
                                  "duration" : 138                                ,
                                  "in" : {
                                    "attributes" : {
                                      "name" : "reveal",
                                      "type" : 1,
                                      "characterOrder" : 7,
                                      "offsetBetweenCharacters" : 3,
                                      "suggestedDurationPerCharacter" : 44,
                                      "overlapProportion" : 0,
                                      "movement" : 16,
                                      "springDamping" : 5.0,
                                      "springStiffness" : 50.0,
                                      "bounceBounciness" : 0.45
                                    },
                                    "parameters" : {
                                      "direction" : {
                                        "type" : "int",
                                        "valueBounds" : {
                                          "minValue" : 0,
                                          "maxValue" : 3,
                                          "defaultValue" : 0
                                        },
                                        "uiHints" : {
                                          "userInterfaceType" : 2,
                                          "unitType" : 0
                                        },
                                        "keyframes" : [
                                          {
                                            "endTime" : 0,
                                            "time" : 0,
                                            "value" : 0,
                                            "duration" : 0
                                          }
                                        ]
                                      }
                                    }
                                  
                                  },
                                  "center" : {
                                    "attributes" : {
                                      "name" : "none",
                                      "type" : 1,
                                      "characterOrder" : 6,
                                      "offsetBetweenCharacters" : 0,
                                      "secondsPerLoop" : 1,
                                      "numberOfLoops" : -1,
                                      "delayBetweenLoops" : 0,
                                      "offsetBetweenCharacters" : 0
                                    }
                                  
                                  },
                                  "out" : {
                                    "attributes" : {
                                      "name" : "none",
                                      "type" : 1,
                                      "characterOrder" : 6,
                                      "offsetBetweenCharacters" : 0,
                                      "suggestedDurationPerCharacter" : 0,
                                      "overlapProportion" : 0,
                                      "movement" : -1,
                                      "springDamping" : 5.0,
                                      "springStiffness" : 50.0,
                                      "bounceBounciness" : 0.45
                                    }
                                  
                                  }
                                }
                            ],
                            "start" : 42,
                            "duration" : 138,
                            "mediaStart" : 0,
                            "mediaDuration" : 138,
                            "scalar" : 1,
                            "metadata" : {
                              "WinSubProjectDisplayName" : "",
                              "clipSpeedAttribute" : false,
                              "default-HAlign" : "center",
                              "default-LineSpace" : 0.0,
                              "default-VAlign" : "center",
                              "default-text-attributes" : "[{\"name\":\"fontName\",\"rangeEnd\":17,\"rangeStart\":0,\"value\":\"Montserrat\",\"valueType\":\"string\"},{\"name\":\"strikethrough\",\"rangeEnd\":17,\"rangeStart\":0,\"value\":0,\"valueType\":\"int\"},{\"name\":\"fontWeight\",\"rangeEnd\":17,\"rangeStart\":0,\"value\":100,\"valueType\":\"int\"},{\"name\":\"fontSize\",\"rangeEnd\":17,\"rangeStart\":0,\"value\":60,\"valueType\":\"double\"},{\"name\":\"fontItalic\",\"rangeEnd\":17,\"rangeStart\":0,\"value\":0,\"valueType\":\"int\"},{\"name\":\"fgColor\",\"rangeEnd\":17,\"rangeStart\":0,\"value\":\"(0,0,0,255)\",\"valueType\":\"color\"},{\"name\":\"underline\",\"rangeEnd\":17,\"rangeStart\":0,\"value\":0,\"valueType\":\"int\"}]",
                              "default-translation0" : 0.358387392787593
                            },
                            "animationTracks" : {
                              "visual" : [
                                {
                                  "endTime" : 110,
                                  "duration" : 58,
                                  "range" : [ 52, 58],
                                  "interp" : "eioe"
                                }
                              ]
                            }
                          }
                        ],
                          "ident" : "",
                          "audioMuted" : false,
                          "videoHidden" : false,
                          "magnetic" : false,
                          "metadata" : {
                            "IsLocked" : "False",
                            "WinTrackHeight" : "6.39079466327898e-312"
                          }
                      }
                    ],
                    "attributes" : {
                      "ident" : "Simple Bright Title 3",
                      "gain" : 1.0,
                      "mixToMono" : false,
                      "assetProperties" : [
                        {
                          "type" : 0,
                          "name" : "Title",
                          "objects" : [ 305 ],
                          "themeMappings" :  {
                            "font-color" : "foreground-1",
                            "font-family" : "font-1"
                          }
                        },
                        {
                          "type" : 0,
                          "name" : "Subtitle",
                          "objects" : [ 306 ],
                          "themeMappings" :  {
                            "font-color" : "background-1",
                            "font-family" : "font-1"
                          }
                        },
                        {
                          "type" : 1,
                          "name" : "Color 1",
                          "objects" : [ 303, 304 ],
                          "themeMappings" :  {
                            "fill" : "accent-1"
                          }
                        }
                      ]
                    },
                    "effects" : [

                    ],
                    "start" : 22988,
                    "duration" : 210,
                    "mediaStart" : -30.0,
                    "mediaDuration" : 210.0,
                    "scalar" : 1,
                    "metadata" : {
                      "AppliedThemeId" : "",
                      "IsGroupExpanded" : "False",
                      "WinSubProjectDisplayName" : "Simple Bright Title 3",
                      "clipSpeedAttribute" : false,
                      "effectApplied" : "none",
                      "isOpen" : false
                    },
                    "animationTracks" : {

                    }
                  },
                  {
                    "id" : 307,
                    "_type" : "UnifiedMedia",
                    "video" : 
                        {
                          "id" : 308,
                          "_type" : "ScreenVMFile",
                          "src" : 27,
                          "trackNumber" : 0,
                          "attributes" : {
                            "ident" : "scratch-5.5-events-when-loudness-exceeds"
                          },
                          "parameters" : {
                            "cursorScale" : {
                              "type" : "double",
                              "defaultValue" : 1.0,
                              "interp" : "linr"
                            },
                            "cursorOpacity" : {
                              "type" : "double",
                              "defaultValue" : 1.0,
                              "interp" : "linr"
                            }
                          },
                          "effects" : [

                          ],
                          "start" : 23198,
                          "duration" : 564,
                          "mediaStart" : 0,
                          "mediaDuration" : 564,
                          "scalar" : 1,
                          "animationTracks" : {

                          }
                        },
                    "audio" : 
                        {
                          "id" : 309,
                          "_type" : "AMFile",
                          "src" : 27,
                          "trackNumber" : 1,
                          "attributes" : {
                            "ident" : "",
                            "gain" : 1.0,
                            "mixToMono" : false
                          },
                            "channelNumber" : "0,1",
                          "effects" : [

                          ],
                          "start" : 23198,
                          "duration" : 564,
                          "mediaStart" : 0,
                          "mediaDuration" : 564,
                          "scalar" : 1,
                          "animationTracks" : {

                          }
                        }
,
                    "start" : 23198,
                    "duration" : 564,
                    "mediaStart" : 0,
                    "mediaDuration" : 564,
                    "scalar" : 1,
                    "metadata" : {
                      "AutoAppliedSmartFocus" : "False",
                      "clipSpeedAttribute" : false
                    }
                  },
                  {
                    "id" : 310,
                    "_type" : "Group",
                    "parameters" : {
                      "translation0" : 1.21531229524408e-10,
                      "translation1" : 62.3420348343093,
                      "volume" : 1.0
                    },
                    "tracks" : [
                      {
                        "trackIndex" : 0,
                        "medias" : [
                          {
                            "id" : 311,
                            "_type" : "Callout",
                            "def" : {
                              "kind" : "remix",
                              "shape" : "shape-rectangle",
                              "style" : "urban",
                              "fill-color-blue" : {
                                "type" : "double",
                                "defaultValue" : 1.0,
                                "keyframes" : [
                                  {
                                    "endTime" : 56,
                                    "time" : 18,
                                    "value" : 1.0,
                                    "duration" : 38
                                  },
                                  {
                                    "endTime" : 92,
                                    "time" : 56,
                                    "value" : 0.149019607843137,
                                    "duration" : 36
                                  },
                                  {
                                    "endTime" : 174,
                                    "time" : 116,
                                    "value" : 0.149019607843137,
                                    "duration" : 58
                                  }
                                ]
                              },
                              "fill-color-green" : {
                                "type" : "double",
                                "defaultValue" : 1.0,
                                "keyframes" : [
                                  {
                                    "endTime" : 56,
                                    "time" : 18,
                                    "value" : 1.0,
                                    "duration" : 38
                                  },
                                  {
                                    "endTime" : 92,
                                    "time" : 56,
                                    "value" : 0.96078431372549,
                                    "duration" : 36
                                  },
                                  {
                                    "endTime" : 174,
                                    "time" : 116,
                                    "value" : 0.96078431372549,
                                    "duration" : 58
                                  }
                                ]
                              },
                              "fill-color-opacity" : 1.0,
                              "fill-color-red" : {
                                "type" : "double",
                                "defaultValue" : 1.0,
                                "keyframes" : [
                                  {
                                    "endTime" : 56,
                                    "time" : 18,
                                    "value" : 1.0,
                                    "duration" : 38
                                  },
                                  {
                                    "endTime" : 92,
                                    "time" : 56,
                                    "value" : 0.933333333333333,
                                    "duration" : 36
                                  },
                                  {
                                    "endTime" : 174,
                                    "time" : 116,
                                    "value" : 0.933333333333333,
                                    "duration" : 58
                                  }
                                ]
                              },
                              "height" : {
                                "type" : "double",
                                "defaultValue" : 10.8510761260468,
                                "keyframes" : [
                                  {
                                    "endTime" : 56,
                                    "time" : 18,
                                    "value" : 24.9687231850678,
                                    "duration" : 38
                                  },
                                  {
                                    "endTime" : 92,
                                    "time" : 56,
                                    "value" : 1281.28323719656,
                                    "duration" : 36
                                  },
                                  {
                                    "endTime" : 174,
                                    "time" : 116,
                                    "value" : 1347.6353898526,
                                    "duration" : 58
                                  }
                                ]
                              },
                              "stroke-color-blue" : 1.0,
                              "stroke-color-green" : 1.0,
                              "stroke-color-opacity" : 1.0,
                              "stroke-color-red" : 1.0,
                              "stroke-width" : 0.0,
                              "width" : {
                                "type" : "double",
                                "defaultValue" : 6.88782755517832,
                                "keyframes" : [
                                  {
                                    "endTime" : 56,
                                    "time" : 18,
                                    "value" : 67.9394975592671,
                                    "duration" : 38
                                  },
                                  {
                                    "endTime" : 92,
                                    "time" : 56,
                                    "value" : 67.9394975592671,
                                    "duration" : 36
                                  },
                                  {
                                    "endTime" : 174,
                                    "time" : 116,
                                    "value" : 68.0763125888445,
                                    "duration" : 58
                                  }
                                ]
                              },
                              "fill-style" : "solid",
                              "horizontal-alignment" : "center",
                              "stroke-style" : "solid",
                              "vertical-alignment" : "center",
                              "textAttributes" : {
                                "type" : "textAttributeList",
                                "keyframes" : [
                                  {
                                    "endTime" : 0,
                                    "time" : 0,
                                    "value" : null,
                                    "duration" : 0
                                  }
                                ]
                              }
                            },
                            "attributes" : {
                              "autoRotateText" : true
                            },
                            "parameters" : {
                              "translation0" : {
                                "type" : "double",
                                "defaultValue" : -1.21547438780567e-10,
                                "keyframes" : [
                                  {
                                    "endTime" : 56,
                                    "time" : 18,
                                    "value" : -1.21547438780567e-10,
                                    "duration" : 38
                                  },
                                  {
                                    "endTime" : 92,
                                    "time" : 56,
                                    "value" : 0.0541990816513973,
                                    "duration" : 36
                                  },
                                  {
                                    "endTime" : 174,
                                    "time" : 116,
                                    "value" : -1.67577274979808e-14,
                                    "duration" : 58
                                  }
                                ]
                              },
                              "translation1" : {
                                "type" : "double",
                                "defaultValue" : -96.3117858166865,
                                "keyframes" : [
                                  {
                                    "endTime" : 56,
                                    "time" : 18,
                                    "value" : -96.3117858166865,
                                    "duration" : 38
                                  },
                                  {
                                    "endTime" : 92,
                                    "time" : 56,
                                    "value" : -96.3117858166865,
                                    "duration" : 36
                                  },
                                  {
                                    "endTime" : 174,
                                    "time" : 116,
                                    "value" : -658.65796581331,
                                    "duration" : 58
                                  }
                                ]
                              },
                              "rotation2" : {
                                "type" : "double",
                                "defaultValue" : 0.0,
                                "keyframes" : [
                                  {
                                    "endTime" : 56,
                                    "time" : 18,
                                    "value" : -1.5707963267949,
                                    "duration" : 38
                                  }
                                ]
                              }
                            },
                            "effects" : [

                            ],
                            "start" : -30,
                            "duration" : 210,
                            "mediaStart" : -12,
                            "mediaDuration" : 210,
                            "scalar" : 1,
                            "metadata" : {
                              "WinSubProjectDisplayName" : "",
                              "clipSpeedAttribute" : false
                            },
                            "animationTracks" : {
                              "visual" : [
                                {
                                  "endTime" : 56,
                                  "duration" : 38,
                                  "range" : [ 18, 38],
                                  "interp" : "eioe"
                                },
                                {
                                  "endTime" : 92,
                                  "duration" : 36,
                                  "range" : [ 56, 36],
                                  "interp" : "eioe"
                                },
                                {
                                  "endTime" : 174,
                                  "duration" : 58,
                                  "range" : [ 116, 58]
                                }
                              ]
                            }
                          }
                        ],
                          "ident" : "",
                          "audioMuted" : false,
                          "videoHidden" : false,
                          "magnetic" : false,
                          "metadata" : {
                            "IsLocked" : "False",
                            "WinTrackHeight" : "0"
                          }
                      },
                      {
                        "trackIndex" : 1,
                        "medias" : [
                          {
                            "id" : 312,
                            "_type" : "Callout",
                            "def" : {
                              "kind" : "remix",
                              "shape" : "shape-rectangle",
                              "style" : "urban",
                              "fill-color-blue" : {
                                "type" : "double",
                                "defaultValue" : 1.0,
                                "keyframes" : [
                                  {
                                    "endTime" : 54,
                                    "time" : 18,
                                    "value" : 0.149019607843137,
                                    "duration" : 36
                                  },
                                  {
                                    "endTime" : 136,
                                    "time" : 78,
                                    "value" : 1.0,
                                    "duration" : 58
                                  }
                                ]
                              },
                              "fill-color-green" : {
                                "type" : "double",
                                "defaultValue" : 1.0,
                                "keyframes" : [
                                  {
                                    "endTime" : 54,
                                    "time" : 18,
                                    "value" : 0.96078431372549,
                                    "duration" : 36
                                  },
                                  {
                                    "endTime" : 136,
                                    "time" : 78,
                                    "value" : 1.0,
                                    "duration" : 58
                                  }
                                ]
                              },
                              "fill-color-opacity" : 1.0,
                              "fill-color-red" : {
                                "type" : "double",
                                "defaultValue" : 1.0,
                                "keyframes" : [
                                  {
                                    "endTime" : 54,
                                    "time" : 18,
                                    "value" : 0.933333333333333,
                                    "duration" : 36
                                  },
                                  {
                                    "endTime" : 136,
                                    "time" : 78,
                                    "value" : 1.0,
                                    "duration" : 58
                                  }
                                ]
                              },
                              "height" : {
                                "type" : "double",
                                "defaultValue" : 10.8510761260468,
                                "keyframes" : [
                                  {
                                    "endTime" : 54,
                                    "time" : 18,
                                    "value" : 10.8510761260468,
                                    "duration" : 36
                                  },
                                  {
                                    "endTime" : 136,
                                    "time" : 78,
                                    "value" : 10.8510761260468,
                                    "duration" : 58
                                  }
                                ]
                              },
                              "stroke-color-blue" : 1.0,
                              "stroke-color-green" : 1.0,
                              "stroke-color-opacity" : 1.0,
                              "stroke-color-red" : 1.0,
                              "stroke-width" : 0.0,
                              "width" : {
                                "type" : "double",
                                "defaultValue" : 6.88782755517832,
                                "keyframes" : [
                                  {
                                    "endTime" : 54,
                                    "time" : 18,
                                    "value" : 1281.28316541273,
                                    "duration" : 36
                                  },
                                  {
                                    "endTime" : 136,
                                    "time" : 78,
                                    "value" : 1302.87700103543,
                                    "duration" : 58
                                  }
                                ]
                              },
                              "fill-style" : "solid",
                              "horizontal-alignment" : "center",
                              "stroke-style" : "solid",
                              "vertical-alignment" : "center",
                              "textAttributes" : {
                                "type" : "textAttributeList",
                                "keyframes" : [
                                  {
                                    "endTime" : 0,
                                    "time" : 0,
                                    "value" : null,
                                    "duration" : 0
                                  }
                                ]
                              }
                            },
                            "attributes" : {
                              "autoRotateText" : true
                            },
                            "parameters" : {
                              "translation0" : {
                                "type" : "double",
                                "defaultValue" : -1.21547438780567e-10,
                                "keyframes" : [
                                  {
                                    "endTime" : 54,
                                    "time" : 18,
                                    "value" : -0.0541988189824127,
                                    "duration" : 36
                                  },
                                  {
                                    "endTime" : 136,
                                    "time" : 78,
                                    "value" : -1.21547438780567e-10,
                                    "duration" : 58
                                  }
                                ]
                              },
                              "translation1" : {
                                "type" : "double",
                                "defaultValue" : 78.8579651656907,
                                "keyframes" : [
                                  {
                                    "endTime" : 54,
                                    "time" : 18,
                                    "value" : 78.8936575656383,
                                    "duration" : 36
                                  },
                                  {
                                    "endTime" : 136,
                                    "time" : 78,
                                    "value" : 694.705445748916,
                                    "duration" : 58
                                  }
                                ]
                              }
                            },
                            "effects" : [

                            ],
                            "start" : 38,
                            "duration" : 142,
                            "mediaStart" : 18,
                            "mediaDuration" : 142,
                            "scalar" : 1,
                            "metadata" : {
                              "WinSubProjectDisplayName" : "",
                              "clipSpeedAttribute" : false
                            },
                            "animationTracks" : {
                              "visual" : [
                                {
                                  "endTime" : 54,
                                  "duration" : 36,
                                  "range" : [ 18, 36],
                                  "interp" : "eioe"
                                },
                                {
                                  "endTime" : 136,
                                  "duration" : 58,
                                  "range" : [ 78, 58],
                                  "interp" : "eioe"
                                }
                              ]
                            }
                          }
                        ],
                          "ident" : "",
                          "audioMuted" : false,
                          "videoHidden" : false,
                          "magnetic" : false,
                          "metadata" : {
                            "IsLocked" : "False",
                            "WinTrackHeight" : "6.39079466327898e-312"
                          }
                      },
                      {
                        "trackIndex" : 2,
                        "medias" : [
                          {
                            "id" : 313,
                            "_type" : "Callout",
                            "def" : {
                              "kind" : "remix",
                              "shape" : "text",
                              "style" : "abstract",
                              "height" : 180.630981445261,
                              "line-spacing" : 0.0,
                              "width" : 1281.17482864961,
                              "word-wrap" : 1.0,
                              "horizontal-alignment" : "center",
                              "resize-behavior" : "resizeText",
                              "text" : "when timer exceeds",
                              "vertical-alignment" : "center",
                              "font" : {
                                "color-blue" : 1.0,
                                "color-green" : 1.0,
                                "color-red" : 1.0,
                                "size" : 96.0,
                                "tracking" : 0.0,
                                "name" : "Lato",
                                "weight" : "Regular"
                              },
                              "textAttributes" : {
                                "type" : "textAttributeList",
                                "keyframes" : [
                                  {
                                    "endTime" : 0,
                                    "time" : 0,
                                    "value" : [{"name":"fontItalic","rangeEnd":18,"rangeStart":0,"value":0,"valueType":"int"},{"name":"fontName","rangeEnd":18,"rangeStart":0,"value":"Montserrat","valueType":"string"},{"name":"fontSize","rangeEnd":18,"rangeStart":0,"value":128,"valueType":"double"},{"name":"strikethrough","rangeEnd":18,"rangeStart":0,"value":0,"valueType":"int"},{"name":"fgColor","rangeEnd":18,"rangeStart":0,"value":"(255,255,255,255)","valueType":"color"},{"name":"kerning","rangeEnd":18,"rangeStart":0,"value":0,"valueType":"double"},{"name":"fontWeight","rangeEnd":18,"rangeStart":0,"value":400,"valueType":"int"},{"name":"underline","rangeEnd":18,"rangeStart":0,"value":0,"valueType":"int"}],
                                    "duration" : 0
                                  }
                                ]
                              }
                            },
                            "attributes" : {
                              "autoRotateText" : true
                            },
                            "parameters" : {
                              "translation0" : {
                                "type" : "double",
                                "defaultValue" : 0.412585675275182,
                                "keyframes" : [
                                  {
                                    "endTime" : 152,
                                    "time" : 94,
                                    "value" : 11.2636728451827,
                                    "duration" : 58
                                  }
                                ]
                              },
                              "translation1" : {
                                "type" : "double",
                                "defaultValue" : -5.81178581660322,
                                "keyframes" : [
                                  {
                                    "endTime" : 152,
                                    "time" : 94,
                                    "value" : 610.000002366703,
                                    "duration" : 58
                                  }
                                ]
                              }
                            },
                            "effects" : [
                                {
                                  "_type" : "GenericBehaviorEffect",
                                  "effectName" : "popUp",
                                  "start" : 34,
                                  "duration" : 142                                ,
                                  "in" : {
                                    "attributes" : {
                                      "name" : "reveal",
                                      "type" : 1,
                                      "characterOrder" : 6,
                                      "offsetBetweenCharacters" : 3,
                                      "suggestedDurationPerCharacter" : 44,
                                      "overlapProportion" : 0,
                                      "movement" : 16,
                                      "springDamping" : 5.0,
                                      "springStiffness" : 50.0,
                                      "bounceBounciness" : 0.45
                                    },
                                    "parameters" : {
                                      "direction" : {
                                        "type" : "int",
                                        "valueBounds" : {
                                          "minValue" : 0,
                                          "maxValue" : 3,
                                          "defaultValue" : 0
                                        },
                                        "uiHints" : {
                                          "userInterfaceType" : 2,
                                          "unitType" : 0
                                        },
                                        "keyframes" : [
                                          {
                                            "endTime" : 0,
                                            "time" : 0,
                                            "value" : 2,
                                            "duration" : 0
                                          }
                                        ]
                                      }
                                    }
                                  
                                  },
                                  "center" : {
                                    "attributes" : {
                                      "name" : "none",
                                      "type" : 1,
                                      "characterOrder" : 6,
                                      "offsetBetweenCharacters" : 0,
                                      "secondsPerLoop" : 1,
                                      "numberOfLoops" : -1,
                                      "delayBetweenLoops" : 0,
                                      "offsetBetweenCharacters" : 0
                                    }
                                  
                                  },
                                  "out" : {
                                    "attributes" : {
                                      "name" : "none",
                                      "type" : 1,
                                      "characterOrder" : 6,
                                      "offsetBetweenCharacters" : 0,
                                      "suggestedDurationPerCharacter" : 0,
                                      "overlapProportion" : 0,
                                      "movement" : -1,
                                      "springDamping" : 5.0,
                                      "springStiffness" : 50.0,
                                      "bounceBounciness" : 0.45
                                    }
                                  
                                  }
                                }
                            ],
                            "start" : 38,
                            "duration" : 142,
                            "mediaStart" : 34,
                            "mediaDuration" : 142,
                            "scalar" : 1,
                            "metadata" : {
                              "WinSubProjectDisplayName" : "",
                              "clipSpeedAttribute" : false,
                              "default-HAlign" : "center",
                              "default-LineSpace" : 0.0,
                              "default-VAlign" : "center",
                              "default-text-attributes" : "[{\"name\":\"fontName\",\"rangeEnd\":15,\"rangeStart\":0,\"value\":\"Montserrat\",\"valueType\":\"string\"},{\"name\":\"fgColor\",\"rangeEnd\":15,\"rangeStart\":0,\"value\":\"(255,255,255,255)\",\"valueType\":\"color\"},{\"name\":\"underline\",\"rangeEnd\":15,\"rangeStart\":0,\"value\":0,\"valueType\":\"int\"},{\"name\":\"strikethrough\",\"rangeEnd\":15,\"rangeStart\":0,\"value\":0,\"valueType\":\"int\"},{\"name\":\"fontSize\",\"rangeEnd\":15,\"rangeStart\":0,\"value\":128,\"valueType\":\"double\"},{\"name\":\"fontItalic\",\"rangeEnd\":15,\"rangeStart\":0,\"value\":0,\"valueType\":\"int\"},{\"name\":\"fontWeight\",\"rangeEnd\":15,\"rangeStart\":0,\"value\":100,\"valueType\":\"int\"}]"
                            },
                            "animationTracks" : {
                              "visual" : [
                                {
                                  "endTime" : 152,
                                  "duration" : 58,
                                  "range" : [ 94, 58],
                                  "interp" : "eioe"
                                }
                              ]
                            }
                          }
                        ],
                          "ident" : "",
                          "audioMuted" : false,
                          "videoHidden" : false,
                          "magnetic" : false,
                          "metadata" : {
                            "IsLocked" : "False",
                            "WinTrackHeight" : "6.39079466327898e-312"
                          }
                      },
                      {
                        "trackIndex" : 3,
                        "medias" : [
                          {
                            "id" : 314,
                            "_type" : "Callout",
                            "def" : {
                              "kind" : "remix",
                              "shape" : "text",
                              "style" : "abstract",
                              "height" : 83.6840731068824,
                              "line-spacing" : 0.0,
                              "width" : 1281.28322521409,
                              "word-wrap" : 1.0,
                              "horizontal-alignment" : "center",
                              "resize-behavior" : "resizeText",
                              "text" : "looks",
                              "vertical-alignment" : "center",
                              "font" : {
                                "color-blue" : 1.0,
                                "color-green" : 1.0,
                                "color-red" : 1.0,
                                "size" : 96.0,
                                "tracking" : 0.0,
                                "name" : "Lato",
                                "weight" : "Regular"
                              },
                              "textAttributes" : {
                                "type" : "textAttributeList",
                                "keyframes" : [
                                  {
                                    "endTime" : 0,
                                    "time" : 0,
                                    "value" : [{"name":"fontWeight","rangeEnd":5,"rangeStart":0,"value":400,"valueType":"int"},{"name":"fontItalic","rangeEnd":5,"rangeStart":0,"value":0,"valueType":"int"},{"name":"fontName","rangeEnd":5,"rangeStart":0,"value":"Montserrat","valueType":"string"},{"name":"fontSize","rangeEnd":5,"rangeStart":0,"value":60,"valueType":"double"},{"name":"kerning","rangeEnd":5,"rangeStart":0,"value":0,"valueType":"double"},{"name":"fgColor","rangeEnd":5,"rangeStart":0,"value":"(0,0,0,255)","valueType":"color"},{"name":"underline","rangeEnd":5,"rangeStart":0,"value":0,"valueType":"int"},{"name":"strikethrough","rangeEnd":5,"rangeStart":0,"value":0,"valueType":"int"}],
                                    "duration" : 0
                                  }
                                ]
                              }
                            },
                            "attributes" : {
                              "autoRotateText" : true
                            },
                            "parameters" : {
                              "translation0" : {
                                "type" : "double",
                                "defaultValue" : 0.304200155246711,
                                "keyframes" : [
                                  {
                                    "endTime" : 110,
                                    "time" : 52,
                                    "value" : -1.86383482943485,
                                    "duration" : 58
                                  }
                                ]
                              },
                              "translation1" : {
                                "type" : "double",
                                "defaultValue" : -96.1538223700724,
                                "keyframes" : [
                                  {
                                    "endTime" : 110,
                                    "time" : 52,
                                    "value" : -658.500002366703,
                                    "duration" : 58
                                  }
                                ]
                              }
                            },
                            "effects" : [
                                {
                                  "_type" : "GenericBehaviorEffect",
                                  "effectName" : "popUp",
                                  "start" : 0,
                                  "duration" : 138                                ,
                                  "in" : {
                                    "attributes" : {
                                      "name" : "reveal",
                                      "type" : 1,
                                      "characterOrder" : 7,
                                      "offsetBetweenCharacters" : 3,
                                      "suggestedDurationPerCharacter" : 44,
                                      "overlapProportion" : 0,
                                      "movement" : 16,
                                      "springDamping" : 5.0,
                                      "springStiffness" : 50.0,
                                      "bounceBounciness" : 0.45
                                    },
                                    "parameters" : {
                                      "direction" : {
                                        "type" : "int",
                                        "valueBounds" : {
                                          "minValue" : 0,
                                          "maxValue" : 3,
                                          "defaultValue" : 0
                                        },
                                        "uiHints" : {
                                          "userInterfaceType" : 2,
                                          "unitType" : 0
                                        },
                                        "keyframes" : [
                                          {
                                            "endTime" : 0,
                                            "time" : 0,
                                            "value" : 0,
                                            "duration" : 0
                                          }
                                        ]
                                      }
                                    }
                                  
                                  },
                                  "center" : {
                                    "attributes" : {
                                      "name" : "none",
                                      "type" : 1,
                                      "characterOrder" : 6,
                                      "offsetBetweenCharacters" : 0,
                                      "secondsPerLoop" : 1,
                                      "numberOfLoops" : -1,
                                      "delayBetweenLoops" : 0,
                                      "offsetBetweenCharacters" : 0
                                    }
                                  
                                  },
                                  "out" : {
                                    "attributes" : {
                                      "name" : "none",
                                      "type" : 1,
                                      "characterOrder" : 6,
                                      "offsetBetweenCharacters" : 0,
                                      "suggestedDurationPerCharacter" : 0,
                                      "overlapProportion" : 0,
                                      "movement" : -1,
                                      "springDamping" : 5.0,
                                      "springStiffness" : 50.0,
                                      "bounceBounciness" : 0.45
                                    }
                                  
                                  }
                                }
                            ],
                            "start" : 42,
                            "duration" : 138,
                            "mediaStart" : 0,
                            "mediaDuration" : 138,
                            "scalar" : 1,
                            "metadata" : {
                              "WinSubProjectDisplayName" : "",
                              "clipSpeedAttribute" : false,
                              "default-HAlign" : "center",
                              "default-LineSpace" : 0.0,
                              "default-VAlign" : "center",
                              "default-text-attributes" : "[{\"name\":\"fontName\",\"rangeEnd\":17,\"rangeStart\":0,\"value\":\"Montserrat\",\"valueType\":\"string\"},{\"name\":\"strikethrough\",\"rangeEnd\":17,\"rangeStart\":0,\"value\":0,\"valueType\":\"int\"},{\"name\":\"fontWeight\",\"rangeEnd\":17,\"rangeStart\":0,\"value\":100,\"valueType\":\"int\"},{\"name\":\"fontSize\",\"rangeEnd\":17,\"rangeStart\":0,\"value\":60,\"valueType\":\"double\"},{\"name\":\"fontItalic\",\"rangeEnd\":17,\"rangeStart\":0,\"value\":0,\"valueType\":\"int\"},{\"name\":\"fgColor\",\"rangeEnd\":17,\"rangeStart\":0,\"value\":\"(0,0,0,255)\",\"valueType\":\"color\"},{\"name\":\"underline\",\"rangeEnd\":17,\"rangeStart\":0,\"value\":0,\"valueType\":\"int\"}]",
                              "default-translation0" : 0.358387392787593
                            },
                            "animationTracks" : {
                              "visual" : [
                                {
                                  "endTime" : 110,
                                  "duration" : 58,
                                  "range" : [ 52, 58],
                                  "interp" : "eioe"
                                }
                              ]
                            }
                          }
                        ],
                          "ident" : "",
                          "audioMuted" : false,
                          "videoHidden" : false,
                          "magnetic" : false,
                          "metadata" : {
                            "IsLocked" : "False",
                            "WinTrackHeight" : "6.39079466327898e-312"
                          }
                      }
                    ],
                    "attributes" : {
                      "ident" : "Simple Bright Title 3",
                      "gain" : 1.0,
                      "mixToMono" : false,
                      "assetProperties" : [
                        {
                          "type" : 0,
                          "name" : "Title",
                          "objects" : [ 313 ],
                          "themeMappings" :  {
                            "font-color" : "foreground-1",
                            "font-family" : "font-1"
                          }
                        },
                        {
                          "type" : 0,
                          "name" : "Subtitle",
                          "objects" : [ 314 ],
                          "themeMappings" :  {
                            "font-color" : "background-1",
                            "font-family" : "font-1"
                          }
                        },
                        {
                          "type" : 1,
                          "name" : "Color 1",
                          "objects" : [ 311, 312 ],
                          "themeMappings" :  {
                            "fill" : "accent-1"
                          }
                        }
                      ]
                    },
                    "effects" : [

                    ],
                    "start" : 23762,
                    "duration" : 210,
                    "mediaStart" : -30.0,
                    "mediaDuration" : 210.0,
                    "scalar" : 1,
                    "metadata" : {
                      "AppliedThemeId" : "",
                      "IsGroupExpanded" : "False",
                      "WinSubProjectDisplayName" : "Simple Bright Title 3",
                      "clipSpeedAttribute" : false,
                      "effectApplied" : "none",
                      "isOpen" : false
                    },
                    "animationTracks" : {

                    }
                  },
                  {
                    "id" : 315,
                    "_type" : "UnifiedMedia",
                    "video" : 
                        {
                          "id" : 316,
                          "_type" : "ScreenVMFile",
                          "src" : 28,
                          "trackNumber" : 0,
                          "attributes" : {
                            "ident" : "scratch-5.6-events-when-timer-exceeds"
                          },
                          "parameters" : {
                            "cursorScale" : {
                              "type" : "double",
                              "defaultValue" : 1.0,
                              "interp" : "linr"
                            },
                            "cursorOpacity" : {
                              "type" : "double",
                              "defaultValue" : 1.0,
                              "interp" : "linr"
                            }
                          },
                          "effects" : [

                          ],
                          "start" : 23972,
                          "duration" : 940,
                          "mediaStart" : 0,
                          "mediaDuration" : 940,
                          "scalar" : 1,
                          "animationTracks" : {

                          }
                        },
                    "audio" : 
                        {
                          "id" : 317,
                          "_type" : "AMFile",
                          "src" : 28,
                          "trackNumber" : 1,
                          "attributes" : {
                            "ident" : "",
                            "gain" : 1.0,
                            "mixToMono" : false
                          },
                            "channelNumber" : "0,1",
                          "effects" : [

                          ],
                          "start" : 23972,
                          "duration" : 940,
                          "mediaStart" : 0,
                          "mediaDuration" : 940,
                          "scalar" : 1,
                          "animationTracks" : {

                          }
                        }
,
                    "start" : 23972,
                    "duration" : 940,
                    "mediaStart" : 0,
                    "mediaDuration" : 940,
                    "scalar" : 1,
                    "metadata" : {
                      "AutoAppliedSmartFocus" : "False",
                      "clipSpeedAttribute" : false
                    }
                  },
                  {
                    "id" : 318,
                    "_type" : "Group",
                    "parameters" : {
                      "translation0" : 1.21531229524408e-10,
                      "translation1" : 62.3420348343093,
                      "volume" : 1.0
                    },
                    "tracks" : [
                      {
                        "trackIndex" : 0,
                        "medias" : [
                          {
                            "id" : 319,
                            "_type" : "Callout",
                            "def" : {
                              "kind" : "remix",
                              "shape" : "shape-rectangle",
                              "style" : "urban",
                              "fill-color-blue" : {
                                "type" : "double",
                                "defaultValue" : 1.0,
                                "keyframes" : [
                                  {
                                    "endTime" : 56,
                                    "time" : 18,
                                    "value" : 1.0,
                                    "duration" : 38
                                  },
                                  {
                                    "endTime" : 92,
                                    "time" : 56,
                                    "value" : 0.149019607843137,
                                    "duration" : 36
                                  },
                                  {
                                    "endTime" : 174,
                                    "time" : 116,
                                    "value" : 0.149019607843137,
                                    "duration" : 58
                                  }
                                ]
                              },
                              "fill-color-green" : {
                                "type" : "double",
                                "defaultValue" : 1.0,
                                "keyframes" : [
                                  {
                                    "endTime" : 56,
                                    "time" : 18,
                                    "value" : 1.0,
                                    "duration" : 38
                                  },
                                  {
                                    "endTime" : 92,
                                    "time" : 56,
                                    "value" : 0.96078431372549,
                                    "duration" : 36
                                  },
                                  {
                                    "endTime" : 174,
                                    "time" : 116,
                                    "value" : 0.96078431372549,
                                    "duration" : 58
                                  }
                                ]
                              },
                              "fill-color-opacity" : 1.0,
                              "fill-color-red" : {
                                "type" : "double",
                                "defaultValue" : 1.0,
                                "keyframes" : [
                                  {
                                    "endTime" : 56,
                                    "time" : 18,
                                    "value" : 1.0,
                                    "duration" : 38
                                  },
                                  {
                                    "endTime" : 92,
                                    "time" : 56,
                                    "value" : 0.933333333333333,
                                    "duration" : 36
                                  },
                                  {
                                    "endTime" : 174,
                                    "time" : 116,
                                    "value" : 0.933333333333333,
                                    "duration" : 58
                                  }
                                ]
                              },
                              "height" : {
                                "type" : "double",
                                "defaultValue" : 10.8510761260468,
                                "keyframes" : [
                                  {
                                    "endTime" : 56,
                                    "time" : 18,
                                    "value" : 24.9687231850678,
                                    "duration" : 38
                                  },
                                  {
                                    "endTime" : 92,
                                    "time" : 56,
                                    "value" : 1281.28323719656,
                                    "duration" : 36
                                  },
                                  {
                                    "endTime" : 174,
                                    "time" : 116,
                                    "value" : 1347.6353898526,
                                    "duration" : 58
                                  }
                                ]
                              },
                              "stroke-color-blue" : 1.0,
                              "stroke-color-green" : 1.0,
                              "stroke-color-opacity" : 1.0,
                              "stroke-color-red" : 1.0,
                              "stroke-width" : 0.0,
                              "width" : {
                                "type" : "double",
                                "defaultValue" : 6.88782755517832,
                                "keyframes" : [
                                  {
                                    "endTime" : 56,
                                    "time" : 18,
                                    "value" : 67.9394975592671,
                                    "duration" : 38
                                  },
                                  {
                                    "endTime" : 92,
                                    "time" : 56,
                                    "value" : 67.9394975592671,
                                    "duration" : 36
                                  },
                                  {
                                    "endTime" : 174,
                                    "time" : 116,
                                    "value" : 68.0763125888445,
                                    "duration" : 58
                                  }
                                ]
                              },
                              "fill-style" : "solid",
                              "horizontal-alignment" : "center",
                              "stroke-style" : "solid",
                              "vertical-alignment" : "center",
                              "textAttributes" : {
                                "type" : "textAttributeList",
                                "keyframes" : [
                                  {
                                    "endTime" : 0,
                                    "time" : 0,
                                    "value" : null,
                                    "duration" : 0
                                  }
                                ]
                              }
                            },
                            "attributes" : {
                              "autoRotateText" : true
                            },
                            "parameters" : {
                              "translation0" : {
                                "type" : "double",
                                "defaultValue" : -1.21547438780567e-10,
                                "keyframes" : [
                                  {
                                    "endTime" : 56,
                                    "time" : 18,
                                    "value" : -1.21547438780567e-10,
                                    "duration" : 38
                                  },
                                  {
                                    "endTime" : 92,
                                    "time" : 56,
                                    "value" : 0.0541990816513973,
                                    "duration" : 36
                                  },
                                  {
                                    "endTime" : 174,
                                    "time" : 116,
                                    "value" : -1.67577274979808e-14,
                                    "duration" : 58
                                  }
                                ]
                              },
                              "translation1" : {
                                "type" : "double",
                                "defaultValue" : -96.3117858166865,
                                "keyframes" : [
                                  {
                                    "endTime" : 56,
                                    "time" : 18,
                                    "value" : -96.3117858166865,
                                    "duration" : 38
                                  },
                                  {
                                    "endTime" : 92,
                                    "time" : 56,
                                    "value" : -96.3117858166865,
                                    "duration" : 36
                                  },
                                  {
                                    "endTime" : 174,
                                    "time" : 116,
                                    "value" : -658.65796581331,
                                    "duration" : 58
                                  }
                                ]
                              },
                              "rotation2" : {
                                "type" : "double",
                                "defaultValue" : 0.0,
                                "keyframes" : [
                                  {
                                    "endTime" : 56,
                                    "time" : 18,
                                    "value" : -1.5707963267949,
                                    "duration" : 38
                                  }
                                ]
                              }
                            },
                            "effects" : [

                            ],
                            "start" : -30,
                            "duration" : 210,
                            "mediaStart" : -12,
                            "mediaDuration" : 210,
                            "scalar" : 1,
                            "metadata" : {
                              "WinSubProjectDisplayName" : "",
                              "clipSpeedAttribute" : false
                            },
                            "animationTracks" : {
                              "visual" : [
                                {
                                  "endTime" : 56,
                                  "duration" : 38,
                                  "range" : [ 18, 38],
                                  "interp" : "eioe"
                                },
                                {
                                  "endTime" : 92,
                                  "duration" : 36,
                                  "range" : [ 56, 36],
                                  "interp" : "eioe"
                                },
                                {
                                  "endTime" : 174,
                                  "duration" : 58,
                                  "range" : [ 116, 58]
                                }
                              ]
                            }
                          }
                        ],
                          "ident" : "",
                          "audioMuted" : false,
                          "videoHidden" : false,
                          "magnetic" : false,
                          "metadata" : {
                            "IsLocked" : "False",
                            "WinTrackHeight" : "0"
                          }
                      },
                      {
                        "trackIndex" : 1,
                        "medias" : [
                          {
                            "id" : 320,
                            "_type" : "Callout",
                            "def" : {
                              "kind" : "remix",
                              "shape" : "shape-rectangle",
                              "style" : "urban",
                              "fill-color-blue" : {
                                "type" : "double",
                                "defaultValue" : 1.0,
                                "keyframes" : [
                                  {
                                    "endTime" : 54,
                                    "time" : 18,
                                    "value" : 0.149019607843137,
                                    "duration" : 36
                                  },
                                  {
                                    "endTime" : 136,
                                    "time" : 78,
                                    "value" : 1.0,
                                    "duration" : 58
                                  }
                                ]
                              },
                              "fill-color-green" : {
                                "type" : "double",
                                "defaultValue" : 1.0,
                                "keyframes" : [
                                  {
                                    "endTime" : 54,
                                    "time" : 18,
                                    "value" : 0.96078431372549,
                                    "duration" : 36
                                  },
                                  {
                                    "endTime" : 136,
                                    "time" : 78,
                                    "value" : 1.0,
                                    "duration" : 58
                                  }
                                ]
                              },
                              "fill-color-opacity" : 1.0,
                              "fill-color-red" : {
                                "type" : "double",
                                "defaultValue" : 1.0,
                                "keyframes" : [
                                  {
                                    "endTime" : 54,
                                    "time" : 18,
                                    "value" : 0.933333333333333,
                                    "duration" : 36
                                  },
                                  {
                                    "endTime" : 136,
                                    "time" : 78,
                                    "value" : 1.0,
                                    "duration" : 58
                                  }
                                ]
                              },
                              "height" : {
                                "type" : "double",
                                "defaultValue" : 10.8510761260468,
                                "keyframes" : [
                                  {
                                    "endTime" : 54,
                                    "time" : 18,
                                    "value" : 10.8510761260468,
                                    "duration" : 36
                                  },
                                  {
                                    "endTime" : 136,
                                    "time" : 78,
                                    "value" : 10.8510761260468,
                                    "duration" : 58
                                  }
                                ]
                              },
                              "stroke-color-blue" : 1.0,
                              "stroke-color-green" : 1.0,
                              "stroke-color-opacity" : 1.0,
                              "stroke-color-red" : 1.0,
                              "stroke-width" : 0.0,
                              "width" : {
                                "type" : "double",
                                "defaultValue" : 6.88782755517832,
                                "keyframes" : [
                                  {
                                    "endTime" : 54,
                                    "time" : 18,
                                    "value" : 1281.28316541273,
                                    "duration" : 36
                                  },
                                  {
                                    "endTime" : 136,
                                    "time" : 78,
                                    "value" : 1302.87700103543,
                                    "duration" : 58
                                  }
                                ]
                              },
                              "fill-style" : "solid",
                              "horizontal-alignment" : "center",
                              "stroke-style" : "solid",
                              "vertical-alignment" : "center",
                              "textAttributes" : {
                                "type" : "textAttributeList",
                                "keyframes" : [
                                  {
                                    "endTime" : 0,
                                    "time" : 0,
                                    "value" : null,
                                    "duration" : 0
                                  }
                                ]
                              }
                            },
                            "attributes" : {
                              "autoRotateText" : true
                            },
                            "parameters" : {
                              "translation0" : {
                                "type" : "double",
                                "defaultValue" : -1.21547438780567e-10,
                                "keyframes" : [
                                  {
                                    "endTime" : 54,
                                    "time" : 18,
                                    "value" : -0.0541988189824127,
                                    "duration" : 36
                                  },
                                  {
                                    "endTime" : 136,
                                    "time" : 78,
                                    "value" : -1.21547438780567e-10,
                                    "duration" : 58
                                  }
                                ]
                              },
                              "translation1" : {
                                "type" : "double",
                                "defaultValue" : 78.8579651656907,
                                "keyframes" : [
                                  {
                                    "endTime" : 54,
                                    "time" : 18,
                                    "value" : 78.8936575656383,
                                    "duration" : 36
                                  },
                                  {
                                    "endTime" : 136,
                                    "time" : 78,
                                    "value" : 694.705445748916,
                                    "duration" : 58
                                  }
                                ]
                              }
                            },
                            "effects" : [

                            ],
                            "start" : 38,
                            "duration" : 142,
                            "mediaStart" : 18,
                            "mediaDuration" : 142,
                            "scalar" : 1,
                            "metadata" : {
                              "WinSubProjectDisplayName" : "",
                              "clipSpeedAttribute" : false
                            },
                            "animationTracks" : {
                              "visual" : [
                                {
                                  "endTime" : 54,
                                  "duration" : 36,
                                  "range" : [ 18, 36],
                                  "interp" : "eioe"
                                },
                                {
                                  "endTime" : 136,
                                  "duration" : 58,
                                  "range" : [ 78, 58],
                                  "interp" : "eioe"
                                }
                              ]
                            }
                          }
                        ],
                          "ident" : "",
                          "audioMuted" : false,
                          "videoHidden" : false,
                          "magnetic" : false,
                          "metadata" : {
                            "IsLocked" : "False",
                            "WinTrackHeight" : "6.39079466327898e-312"
                          }
                      },
                      {
                        "trackIndex" : 2,
                        "medias" : [
                          {
                            "id" : 321,
                            "_type" : "Callout",
                            "def" : {
                              "kind" : "remix",
                              "shape" : "text",
                              "style" : "abstract",
                              "height" : 180.630981445261,
                              "line-spacing" : 0.0,
                              "width" : 1281.17482864961,
                              "word-wrap" : 1.0,
                              "horizontal-alignment" : "center",
                              "resize-behavior" : "resizeText",
                              "text" : "when message received",
                              "vertical-alignment" : "center",
                              "font" : {
                                "color-blue" : 1.0,
                                "color-green" : 1.0,
                                "color-red" : 1.0,
                                "size" : 96.0,
                                "tracking" : 0.0,
                                "name" : "Lato",
                                "weight" : "Regular"
                              },
                              "textAttributes" : {
                                "type" : "textAttributeList",
                                "keyframes" : [
                                  {
                                    "endTime" : 0,
                                    "time" : 0,
                                    "value" : [{"name":"strikethrough","rangeEnd":21,"rangeStart":0,"value":0,"valueType":"int"},{"name":"fontName","rangeEnd":21,"rangeStart":0,"value":"Montserrat","valueType":"string"},{"name":"fontSize","rangeEnd":21,"rangeStart":0,"value":128,"valueType":"double"},{"name":"fontWeight","rangeEnd":21,"rangeStart":0,"value":400,"valueType":"int"},{"name":"underline","rangeEnd":21,"rangeStart":0,"value":0,"valueType":"int"},{"name":"fgColor","rangeEnd":21,"rangeStart":0,"value":"(255,255,255,255)","valueType":"color"},{"name":"fontItalic","rangeEnd":21,"rangeStart":0,"value":0,"valueType":"int"},{"name":"kerning","rangeEnd":21,"rangeStart":0,"value":0,"valueType":"double"}],
                                    "duration" : 0
                                  }
                                ]
                              }
                            },
                            "attributes" : {
                              "autoRotateText" : true
                            },
                            "parameters" : {
                              "translation0" : {
                                "type" : "double",
                                "defaultValue" : 0.412585675275182,
                                "keyframes" : [
                                  {
                                    "endTime" : 152,
                                    "time" : 94,
                                    "value" : 11.2636728451827,
                                    "duration" : 58
                                  }
                                ]
                              },
                              "translation1" : {
                                "type" : "double",
                                "defaultValue" : -5.81178581660322,
                                "keyframes" : [
                                  {
                                    "endTime" : 152,
                                    "time" : 94,
                                    "value" : 610.000002366703,
                                    "duration" : 58
                                  }
                                ]
                              }
                            },
                            "effects" : [
                                {
                                  "_type" : "GenericBehaviorEffect",
                                  "effectName" : "popUp",
                                  "start" : 34,
                                  "duration" : 142                                ,
                                  "in" : {
                                    "attributes" : {
                                      "name" : "reveal",
                                      "type" : 1,
                                      "characterOrder" : 6,
                                      "offsetBetweenCharacters" : 3,
                                      "suggestedDurationPerCharacter" : 44,
                                      "overlapProportion" : 0,
                                      "movement" : 16,
                                      "springDamping" : 5.0,
                                      "springStiffness" : 50.0,
                                      "bounceBounciness" : 0.45
                                    },
                                    "parameters" : {
                                      "direction" : {
                                        "type" : "int",
                                        "valueBounds" : {
                                          "minValue" : 0,
                                          "maxValue" : 3,
                                          "defaultValue" : 0
                                        },
                                        "uiHints" : {
                                          "userInterfaceType" : 2,
                                          "unitType" : 0
                                        },
                                        "keyframes" : [
                                          {
                                            "endTime" : 0,
                                            "time" : 0,
                                            "value" : 2,
                                            "duration" : 0
                                          }
                                        ]
                                      }
                                    }
                                  
                                  },
                                  "center" : {
                                    "attributes" : {
                                      "name" : "none",
                                      "type" : 1,
                                      "characterOrder" : 6,
                                      "offsetBetweenCharacters" : 0,
                                      "secondsPerLoop" : 1,
                                      "numberOfLoops" : -1,
                                      "delayBetweenLoops" : 0,
                                      "offsetBetweenCharacters" : 0
                                    }
                                  
                                  },
                                  "out" : {
                                    "attributes" : {
                                      "name" : "none",
                                      "type" : 1,
                                      "characterOrder" : 6,
                                      "offsetBetweenCharacters" : 0,
                                      "suggestedDurationPerCharacter" : 0,
                                      "overlapProportion" : 0,
                                      "movement" : -1,
                                      "springDamping" : 5.0,
                                      "springStiffness" : 50.0,
                                      "bounceBounciness" : 0.45
                                    }
                                  
                                  }
                                }
                            ],
                            "start" : 38,
                            "duration" : 142,
                            "mediaStart" : 34,
                            "mediaDuration" : 142,
                            "scalar" : 1,
                            "metadata" : {
                              "WinSubProjectDisplayName" : "",
                              "clipSpeedAttribute" : false,
                              "default-HAlign" : "center",
                              "default-LineSpace" : 0.0,
                              "default-VAlign" : "center",
                              "default-text-attributes" : "[{\"name\":\"fontName\",\"rangeEnd\":15,\"rangeStart\":0,\"value\":\"Montserrat\",\"valueType\":\"string\"},{\"name\":\"fgColor\",\"rangeEnd\":15,\"rangeStart\":0,\"value\":\"(255,255,255,255)\",\"valueType\":\"color\"},{\"name\":\"underline\",\"rangeEnd\":15,\"rangeStart\":0,\"value\":0,\"valueType\":\"int\"},{\"name\":\"strikethrough\",\"rangeEnd\":15,\"rangeStart\":0,\"value\":0,\"valueType\":\"int\"},{\"name\":\"fontSize\",\"rangeEnd\":15,\"rangeStart\":0,\"value\":128,\"valueType\":\"double\"},{\"name\":\"fontItalic\",\"rangeEnd\":15,\"rangeStart\":0,\"value\":0,\"valueType\":\"int\"},{\"name\":\"fontWeight\",\"rangeEnd\":15,\"rangeStart\":0,\"value\":100,\"valueType\":\"int\"}]"
                            },
                            "animationTracks" : {
                              "visual" : [
                                {
                                  "endTime" : 152,
                                  "duration" : 58,
                                  "range" : [ 94, 58],
                                  "interp" : "eioe"
                                }
                              ]
                            }
                          }
                        ],
                          "ident" : "",
                          "audioMuted" : false,
                          "videoHidden" : false,
                          "magnetic" : false,
                          "metadata" : {
                            "IsLocked" : "False",
                            "WinTrackHeight" : "6.39079466327898e-312"
                          }
                      },
                      {
                        "trackIndex" : 3,
                        "medias" : [
                          {
                            "id" : 322,
                            "_type" : "Callout",
                            "def" : {
                              "kind" : "remix",
                              "shape" : "text",
                              "style" : "abstract",
                              "height" : 83.6840731068824,
                              "line-spacing" : 0.0,
                              "width" : 1281.28322521409,
                              "word-wrap" : 1.0,
                              "horizontal-alignment" : "center",
                              "resize-behavior" : "resizeText",
                              "text" : "looks",
                              "vertical-alignment" : "center",
                              "font" : {
                                "color-blue" : 1.0,
                                "color-green" : 1.0,
                                "color-red" : 1.0,
                                "size" : 96.0,
                                "tracking" : 0.0,
                                "name" : "Lato",
                                "weight" : "Regular"
                              },
                              "textAttributes" : {
                                "type" : "textAttributeList",
                                "keyframes" : [
                                  {
                                    "endTime" : 0,
                                    "time" : 0,
                                    "value" : [{"name":"fontWeight","rangeEnd":5,"rangeStart":0,"value":400,"valueType":"int"},{"name":"fontItalic","rangeEnd":5,"rangeStart":0,"value":0,"valueType":"int"},{"name":"fontName","rangeEnd":5,"rangeStart":0,"value":"Montserrat","valueType":"string"},{"name":"fontSize","rangeEnd":5,"rangeStart":0,"value":60,"valueType":"double"},{"name":"kerning","rangeEnd":5,"rangeStart":0,"value":0,"valueType":"double"},{"name":"fgColor","rangeEnd":5,"rangeStart":0,"value":"(0,0,0,255)","valueType":"color"},{"name":"underline","rangeEnd":5,"rangeStart":0,"value":0,"valueType":"int"},{"name":"strikethrough","rangeEnd":5,"rangeStart":0,"value":0,"valueType":"int"}],
                                    "duration" : 0
                                  }
                                ]
                              }
                            },
                            "attributes" : {
                              "autoRotateText" : true
                            },
                            "parameters" : {
                              "translation0" : {
                                "type" : "double",
                                "defaultValue" : 0.304200155246711,
                                "keyframes" : [
                                  {
                                    "endTime" : 110,
                                    "time" : 52,
                                    "value" : -1.86383482943485,
                                    "duration" : 58
                                  }
                                ]
                              },
                              "translation1" : {
                                "type" : "double",
                                "defaultValue" : -96.1538223700724,
                                "keyframes" : [
                                  {
                                    "endTime" : 110,
                                    "time" : 52,
                                    "value" : -658.500002366703,
                                    "duration" : 58
                                  }
                                ]
                              }
                            },
                            "effects" : [
                                {
                                  "_type" : "GenericBehaviorEffect",
                                  "effectName" : "popUp",
                                  "start" : 0,
                                  "duration" : 138                                ,
                                  "in" : {
                                    "attributes" : {
                                      "name" : "reveal",
                                      "type" : 1,
                                      "characterOrder" : 7,
                                      "offsetBetweenCharacters" : 3,
                                      "suggestedDurationPerCharacter" : 44,
                                      "overlapProportion" : 0,
                                      "movement" : 16,
                                      "springDamping" : 5.0,
                                      "springStiffness" : 50.0,
                                      "bounceBounciness" : 0.45
                                    },
                                    "parameters" : {
                                      "direction" : {
                                        "type" : "int",
                                        "valueBounds" : {
                                          "minValue" : 0,
                                          "maxValue" : 3,
                                          "defaultValue" : 0
                                        },
                                        "uiHints" : {
                                          "userInterfaceType" : 2,
                                          "unitType" : 0
                                        },
                                        "keyframes" : [
                                          {
                                            "endTime" : 0,
                                            "time" : 0,
                                            "value" : 0,
                                            "duration" : 0
                                          }
                                        ]
                                      }
                                    }
                                  
                                  },
                                  "center" : {
                                    "attributes" : {
                                      "name" : "none",
                                      "type" : 1,
                                      "characterOrder" : 6,
                                      "offsetBetweenCharacters" : 0,
                                      "secondsPerLoop" : 1,
                                      "numberOfLoops" : -1,
                                      "delayBetweenLoops" : 0,
                                      "offsetBetweenCharacters" : 0
                                    }
                                  
                                  },
                                  "out" : {
                                    "attributes" : {
                                      "name" : "none",
                                      "type" : 1,
                                      "characterOrder" : 6,
                                      "offsetBetweenCharacters" : 0,
                                      "suggestedDurationPerCharacter" : 0,
                                      "overlapProportion" : 0,
                                      "movement" : -1,
                                      "springDamping" : 5.0,
                                      "springStiffness" : 50.0,
                                      "bounceBounciness" : 0.45
                                    }
                                  
                                  }
                                }
                            ],
                            "start" : 42,
                            "duration" : 138,
                            "mediaStart" : 0,
                            "mediaDuration" : 138,
                            "scalar" : 1,
                            "metadata" : {
                              "WinSubProjectDisplayName" : "",
                              "clipSpeedAttribute" : false,
                              "default-HAlign" : "center",
                              "default-LineSpace" : 0.0,
                              "default-VAlign" : "center",
                              "default-text-attributes" : "[{\"name\":\"fontName\",\"rangeEnd\":17,\"rangeStart\":0,\"value\":\"Montserrat\",\"valueType\":\"string\"},{\"name\":\"strikethrough\",\"rangeEnd\":17,\"rangeStart\":0,\"value\":0,\"valueType\":\"int\"},{\"name\":\"fontWeight\",\"rangeEnd\":17,\"rangeStart\":0,\"value\":100,\"valueType\":\"int\"},{\"name\":\"fontSize\",\"rangeEnd\":17,\"rangeStart\":0,\"value\":60,\"valueType\":\"double\"},{\"name\":\"fontItalic\",\"rangeEnd\":17,\"rangeStart\":0,\"value\":0,\"valueType\":\"int\"},{\"name\":\"fgColor\",\"rangeEnd\":17,\"rangeStart\":0,\"value\":\"(0,0,0,255)\",\"valueType\":\"color\"},{\"name\":\"underline\",\"rangeEnd\":17,\"rangeStart\":0,\"value\":0,\"valueType\":\"int\"}]",
                              "default-translation0" : 0.358387392787593
                            },
                            "animationTracks" : {
                              "visual" : [
                                {
                                  "endTime" : 110,
                                  "duration" : 58,
                                  "range" : [ 52, 58],
                                  "interp" : "eioe"
                                }
                              ]
                            }
                          }
                        ],
                          "ident" : "",
                          "audioMuted" : false,
                          "videoHidden" : false,
                          "magnetic" : false,
                          "metadata" : {
                            "IsLocked" : "False",
                            "WinTrackHeight" : "6.39079466327898e-312"
                          }
                      }
                    ],
                    "attributes" : {
                      "ident" : "Simple Bright Title 3",
                      "gain" : 1.0,
                      "mixToMono" : false,
                      "assetProperties" : [
                        {
                          "type" : 0,
                          "name" : "Title",
                          "objects" : [ 321 ],
                          "themeMappings" :  {
                            "font-color" : "foreground-1",
                            "font-family" : "font-1"
                          }
                        },
                        {
                          "type" : 0,
                          "name" : "Subtitle",
                          "objects" : [ 322 ],
                          "themeMappings" :  {
                            "font-color" : "background-1",
                            "font-family" : "font-1"
                          }
                        },
                        {
                          "type" : 1,
                          "name" : "Color 1",
                          "objects" : [ 319, 320 ],
                          "themeMappings" :  {
                            "fill" : "accent-1"
                          }
                        }
                      ]
                    },
                    "effects" : [

                    ],
                    "start" : 24912,
                    "duration" : 210,
                    "mediaStart" : -30.0,
                    "mediaDuration" : 210.0,
                    "scalar" : 1,
                    "metadata" : {
                      "AppliedThemeId" : "",
                      "IsGroupExpanded" : "False",
                      "WinSubProjectDisplayName" : "Simple Bright Title 3",
                      "clipSpeedAttribute" : false,
                      "effectApplied" : "none",
                      "isOpen" : false
                    },
                    "animationTracks" : {

                    }
                  },
                  {
                    "id" : 323,
                    "_type" : "UnifiedMedia",
                    "video" : 
                        {
                          "id" : 324,
                          "_type" : "ScreenVMFile",
                          "src" : 29,
                          "trackNumber" : 0,
                          "attributes" : {
                            "ident" : "scratch-5.7-events-when-message-received"
                          },
                          "parameters" : {
                            "cursorScale" : {
                              "type" : "double",
                              "defaultValue" : 1.0,
                              "interp" : "linr"
                            },
                            "cursorOpacity" : {
                              "type" : "double",
                              "defaultValue" : 1.0,
                              "interp" : "linr"
                            }
                          },
                          "effects" : [

                          ],
                          "start" : 25122,
                          "duration" : 494,
                          "mediaStart" : 0,
                          "mediaDuration" : 494,
                          "scalar" : 1,
                          "animationTracks" : {

                          }
                        },
                    "audio" : 
                        {
                          "id" : 325,
                          "_type" : "AMFile",
                          "src" : 29,
                          "trackNumber" : 1,
                          "attributes" : {
                            "ident" : "",
                            "gain" : 1.0,
                            "mixToMono" : false
                          },
                            "channelNumber" : "0,1",
                          "effects" : [

                          ],
                          "start" : 25122,
                          "duration" : 494,
                          "mediaStart" : 0,
                          "mediaDuration" : 494,
                          "scalar" : 1,
                          "animationTracks" : {

                          }
                        }
,
                    "start" : 25122,
                    "duration" : 494,
                    "mediaStart" : 0,
                    "mediaDuration" : 494,
                    "scalar" : 1,
                    "metadata" : {
                      "AutoAppliedSmartFocus" : "False",
                      "clipSpeedAttribute" : false
                    }
                  },
                  {
                    "id" : 326,
                    "_type" : "Group",
                    "parameters" : {
                      "volume" : 1.0
                    },
                    "tracks" : [
                      {
                        "trackIndex" : 0,
                        "medias" : [
                          {
                            "id" : 327,
                            "_type" : "UnifiedMedia",
                            "video" : 
                                {
                                  "id" : 328,
                                  "_type" : "VMFile",
                                  "src" : 51,
                                  "trackNumber" : 0,
                                  "attributes" : {
                                    "ident" : "Movie"
                                  },
                                  "effects" : [

                                  ],
                                  "start" : 114,
                                  "duration" : 176,
                                  "mediaStart" : 114,
                                  "mediaDuration" : 176,
                                  "scalar" : 1,
                                  "animationTracks" : {

                                  }
                                },
                            "audio" : 
                                {
                                  "id" : 329,
                                  "_type" : "AMFile",
                                  "src" : 51,
                                  "trackNumber" : 1,
                                  "attributes" : {
                                    "ident" : "",
                                    "gain" : 1.0,
                                    "mixToMono" : false
                                  },
                                    "channelNumber" : "0,1",
                                  "effects" : [

                                  ],
                                  "start" : 114,
                                  "duration" : 176,
                                  "mediaStart" : 114,
                                  "mediaDuration" : 176,
                                  "scalar" : 1,
                                  "animationTracks" : {

                                  }
                                }
,
                            "start" : 114,
                            "duration" : 176,
                            "mediaStart" : 0,
                            "mediaDuration" : 438,
                            "scalar" : 1,
                            "metadata" : {
                              "WinSubProjectDisplayName" : "",
                              "clipSpeedAttribute" : false,
                              "effectApplied" : "none"
                            }
                          }
                        ],
                          "ident" : "",
                          "audioMuted" : false,
                          "videoHidden" : false,
                          "magnetic" : false,
                          "metadata" : {
                            "IsLocked" : "False",
                            "WinTrackHeight" : "0",
                            "trackHeight" : "48"
                          }
                      },
                      {
                        "trackIndex" : 1,
                        "medias" : [
                          {
                            "id" : 330,
                            "_type" : "Callout",
                            "def" : {
                              "kind" : "remix",
                              "shape" : "text",
                              "style" : "basic",
                              "height" : 78.4795300319492,
                              "line-spacing" : 0.0,
                              "width" : 583.0,
                              "word-wrap" : 1.0,
                              "horizontal-alignment" : "center",
                              "resize-behavior" : "resizeText",
                              "text" : "motion",
                              "vertical-alignment" : "center",
                              "font" : {
                                "color-blue" : 1.0,
                                "color-green" : 1.0,
                                "color-red" : 1.0,
                                "size" : 96.0,
                                "tracking" : 0.0,
                                "name" : "Montserrat",
                                "weight" : "Regular"
                              },
                              "textAttributes" : {
                                "type" : "textAttributeList",
                                "keyframes" : [
                                  {
                                    "endTime" : 0,
                                    "time" : 0,
                                    "value" : [{"name":"fontWeight","rangeEnd":6,"rangeStart":0,"value":400,"valueType":"int"},{"name":"fontItalic","rangeEnd":6,"rangeStart":0,"value":0,"valueType":"int"},{"name":"fontName","rangeEnd":6,"rangeStart":0,"value":"Montserrat","valueType":"string"},{"name":"fontSize","rangeEnd":6,"rangeStart":0,"value":55,"valueType":"double"},{"name":"fgColor","rangeEnd":6,"rangeStart":0,"value":"(239,231,195,255)","valueType":"color"},{"name":"strikethrough","rangeEnd":6,"rangeStart":0,"value":0,"valueType":"int"},{"name":"underline","rangeEnd":6,"rangeStart":0,"value":0,"valueType":"int"},{"name":"kerning","rangeEnd":6,"rangeStart":0,"value":0,"valueType":"double"}],
                                    "duration" : 0
                                  }
                                ]
                              }
                            },
                            "attributes" : {
                              "autoRotateText" : true
                            },
                            "parameters" : {
                              "translation0" : -1.77887982122371e-11,
                              "translation1" : -100.336673040374
                            },
                            "effects" : [
                                {
                                  "_type" : "GenericBehaviorEffect",
                                  "effectName" : "sliding",
                                  "start" : -18,
                                  "duration" : 80                                ,
                                  "in" : {
                                    "attributes" : {
                                      "name" : "sliding",
                                      "type" : 1,
                                      "characterOrder" : 0,
                                      "offsetBetweenCharacters" : 3,
                                      "suggestedDurationPerCharacter" : "999/50",
                                      "overlapProportion" : "11/20",
                                      "movement" : 16,
                                      "springDamping" : 5.0,
                                      "springStiffness" : 50.0,
                                      "bounceBounciness" : 0.45
                                    },
                                    "parameters" : {
                                      "direction" : {
                                        "type" : "int",
                                        "valueBounds" : {
                                          "minValue" : 0,
                                          "maxValue" : 3,
                                          "defaultValue" : 0
                                        },
                                        "uiHints" : {
                                          "userInterfaceType" : 2,
                                          "unitType" : 0
                                        },
                                        "keyframes" : [
                                          {
                                            "endTime" : 0,
                                            "time" : 0,
                                            "value" : 3,
                                            "duration" : 0
                                          }
                                        ]
                                      }
                                    }
                                  
                                  },
                                  "center" : {
                                    "attributes" : {
                                      "name" : "none",
                                      "type" : 1,
                                      "characterOrder" : 6,
                                      "offsetBetweenCharacters" : 0,
                                      "secondsPerLoop" : 1,
                                      "numberOfLoops" : -1,
                                      "delayBetweenLoops" : 0,
                                      "offsetBetweenCharacters" : 0
                                    }
                                  
                                  },
                                  "out" : {
                                    "attributes" : {
                                      "name" : "none",
                                      "type" : 1,
                                      "characterOrder" : 6,
                                      "offsetBetweenCharacters" : 0,
                                      "suggestedDurationPerCharacter" : 0,
                                      "overlapProportion" : 0,
                                      "movement" : -1,
                                      "springDamping" : 5.0,
                                      "springStiffness" : 50.0,
                                      "bounceBounciness" : 0.45
                                    }
                                  
                                  }
                                }
                            ],
                            "start" : 210,
                            "duration" : 80,
                            "mediaStart" : -18,
                            "mediaDuration" : 80,
                            "scalar" : 1,
                            "metadata" : {
                              "WinSubProjectDisplayName" : "",
                              "clipSpeedAttribute" : false,
                              "default-HAlign" : "center",
                              "default-LineSpace" : 0.0,
                              "default-VAlign" : "center",
                              "default-text-attributes" : "[{\"name\":\"strikethrough\",\"rangeEnd\":13,\"rangeStart\":0,\"value\":0,\"valueType\":\"int\"},{\"name\":\"fontWeight\",\"rangeEnd\":13,\"rangeStart\":0,\"value\":100,\"valueType\":\"int\"},{\"name\":\"fontSize\",\"rangeEnd\":13,\"rangeStart\":0,\"value\":55,\"valueType\":\"double\"},{\"name\":\"underline\",\"rangeEnd\":13,\"rangeStart\":0,\"value\":0,\"valueType\":\"int\"},{\"name\":\"fgColor\",\"rangeEnd\":13,\"rangeStart\":0,\"value\":\"(239,231,195,255)\",\"valueType\":\"color\"},{\"name\":\"fontItalic\",\"rangeEnd\":13,\"rangeStart\":0,\"value\":0,\"valueType\":\"int\"},{\"name\":\"fontName\",\"rangeEnd\":13,\"rangeStart\":0,\"value\":\"Montserrat\",\"valueType\":\"string\"}]",
                              "effectApplied" : "none"
                            },
                            "animationTracks" : {

                            }
                          }
                        ],
                          "ident" : "",
                          "audioMuted" : false,
                          "videoHidden" : false,
                          "magnetic" : false,
                          "metadata" : {
                            "IsLocked" : "False",
                            "WinTrackHeight" : "1.18064664215163e-311",
                            "trackHeight" : "48"
                          }
                      },
                      {
                        "trackIndex" : 2,
                        "medias" : [
                          {
                            "id" : 331,
                            "_type" : "Callout",
                            "def" : {
                              "kind" : "remix",
                              "shape" : "text",
                              "style" : "basic",
                              "height" : 177.714285714305,
                              "line-spacing" : 0.0,
                              "width" : 904.358937127979,
                              "word-wrap" : 1.0,
                              "horizontal-alignment" : "center",
                              "resize-behavior" : "resizeText",
                              "text" : "waiting",
                              "vertical-alignment" : "center",
                              "font" : {
                                "color-blue" : 1.0,
                                "color-green" : 1.0,
                                "color-red" : 1.0,
                                "size" : 96.0,
                                "tracking" : 0.0,
                                "name" : "Montserrat",
                                "weight" : "Regular"
                              },
                              "textAttributes" : {
                                "type" : "textAttributeList",
                                "keyframes" : [
                                  {
                                    "endTime" : 0,
                                    "time" : 0,
                                    "value" : [{"name":"fontName","rangeEnd":7,"rangeStart":0,"value":"Montserrat","valueType":"string"},{"name":"fgColor","rangeEnd":7,"rangeStart":0,"value":"(241,230,195,255)","valueType":"color"},{"name":"kerning","rangeEnd":7,"rangeStart":0,"value":0,"valueType":"double"},{"name":"fontSize","rangeEnd":7,"rangeStart":0,"value":96,"valueType":"double"},{"name":"underline","rangeEnd":7,"rangeStart":0,"value":0,"valueType":"int"},{"name":"strikethrough","rangeEnd":7,"rangeStart":0,"value":0,"valueType":"int"},{"name":"fontWeight","rangeEnd":7,"rangeStart":0,"value":400,"valueType":"int"},{"name":"fontItalic","rangeEnd":7,"rangeStart":0,"value":0,"valueType":"int"}],
                                    "duration" : 0
                                  }
                                ]
                              }
                            },
                            "attributes" : {
                              "autoRotateText" : true
                            },
                            "parameters" : {
                              "translation0" : 0.320531435861056,
                              "translation1" : 27.642853721879
                            },
                            "effects" : [
                                {
                                  "_type" : "GenericBehaviorEffect",
                                  "effectName" : "scale",
                                  "start" : -52,
                                  "duration" : 176                                ,
                                  "in" : {
                                    "attributes" : {
                                      "name" : "grow",
                                      "type" : 1,
                                      "characterOrder" : 6,
                                      "offsetBetweenCharacters" : 2,
                                      "suggestedDurationPerCharacter" : "2333/25",
                                      "overlapProportion" : "3/4",
                                      "movement" : 30,
                                      "springDamping" : 5.0,
                                      "springStiffness" : 50.0,
                                      "bounceBounciness" : 0.45
                                    }
                                  
                                  },
                                  "center" : {
                                    "attributes" : {
                                      "name" : "none",
                                      "type" : 1,
                                      "characterOrder" : 6,
                                      "offsetBetweenCharacters" : 0,
                                      "secondsPerLoop" : 1,
                                      "numberOfLoops" : -1,
                                      "delayBetweenLoops" : 0,
                                      "offsetBetweenCharacters" : 0
                                    }
                                  
                                  },
                                  "out" : {
                                    "attributes" : {
                                      "name" : "none",
                                      "type" : 1,
                                      "characterOrder" : 6,
                                      "offsetBetweenCharacters" : 0,
                                      "suggestedDurationPerCharacter" : 0,
                                      "overlapProportion" : 0,
                                      "movement" : -1,
                                      "springDamping" : 5.0,
                                      "springStiffness" : 50.0,
                                      "bounceBounciness" : 0.45
                                    }
                                  
                                  }
                                },
                                {
                                  "effectName" : "DropShadow",
                                  "category" : "categoryVisualEffects",
                                  "parameters" : {
                                    "angle" : {
                                      "type" : "double",
                                      "defaultValue" : 4.71238898038469,
                                      "valueBounds" : {
                                        "minValue" : 0.0,
                                        "maxValue" : 0.0,
                                        "defaultValue" : 5.49778714378214
                                      },
                                      "uiHints" : {
                                        "userInterfaceType" : 0,
                                        "unitType" : 0
                                      }
                                    },
                                    "blur" : {
                                      "type" : "double",
                                      "defaultValue" : 3.33066907387547e-16,
                                      "valueBounds" : {
                                        "minValue" : 0.0,
                                        "maxValue" : 50.0,
                                        "defaultValue" : 10.0
                                      },
                                      "uiHints" : {
                                        "userInterfaceType" : 0,
                                        "unitType" : 0
                                      }
                                    },
                                    "color-alpha" : {
                                      "type" : "double",
                                      "defaultValue" : 1.0,
                                      "valueBounds" : {
                                        "minValue" : 0.0,
                                        "maxValue" : 1.0,
                                        "defaultValue" : 1.0
                                      },
                                      "uiHints" : {
                                        "userInterfaceType" : 0,
                                        "unitType" : 0
                                      }
                                    },
                                    "color-blue" : {
                                      "type" : "double",
                                      "defaultValue" : 0.1216,
                                      "valueBounds" : {
                                        "minValue" : 0.0,
                                        "maxValue" : 1.0,
                                        "defaultValue" : 0.1216
                                      },
                                      "uiHints" : {
                                        "userInterfaceType" : 0,
                                        "unitType" : 0
                                      }
                                    },
                                    "color-green" : {
                                      "type" : "double",
                                      "defaultValue" : 0.1216,
                                      "valueBounds" : {
                                        "minValue" : 0.0,
                                        "maxValue" : 1.0,
                                        "defaultValue" : 0.1216
                                      },
                                      "uiHints" : {
                                        "userInterfaceType" : 0,
                                        "unitType" : 0
                                      }
                                    },
                                    "color-red" : {
                                      "type" : "double",
                                      "defaultValue" : 0.1216,
                                      "valueBounds" : {
                                        "minValue" : 0.0,
                                        "maxValue" : 1.0,
                                        "defaultValue" : 0.1216
                                      },
                                      "uiHints" : {
                                        "userInterfaceType" : 0,
                                        "unitType" : 0
                                      }
                                    },
                                    "enabled" : {
                                      "type" : "int",
                                      "valueBounds" : {
                                        "minValue" : 0,
                                        "maxValue" : 1,
                                        "defaultValue" : 1
                                      },
                                      "uiHints" : {
                                        "userInterfaceType" : 0,
                                        "unitType" : 0
                                      },
                                      "keyframes" : [
                                        {
                                          "endTime" : 0,
                                          "time" : 0,
                                          "value" : 1,
                                          "duration" : 0
                                        }
                                      ]
                                    },
                                    "offset" : {
                                      "type" : "double",
                                      "defaultValue" : 10.0,
                                      "valueBounds" : {
                                        "minValue" : 0.0,
                                        "maxValue" : 250.0,
                                        "defaultValue" : 10.0
                                      },
                                      "uiHints" : {
                                        "userInterfaceType" : 0,
                                        "unitType" : 0
                                      }
                                    },
                                    "opacity" : {
                                      "type" : "double",
                                      "defaultValue" : 0.741666666666667,
                                      "valueBounds" : {
                                        "minValue" : 0.0,
                                        "maxValue" : 1.0,
                                        "defaultValue" : 0.4
                                      },
                                      "uiHints" : {
                                        "userInterfaceType" : 0,
                                        "unitType" : 0
                                      }
                                    }
                                  }
                                }
                            ],
                            "start" : 114,
                            "duration" : 176,
                            "mediaStart" : -52,
                            "mediaDuration" : 176,
                            "scalar" : 1,
                            "metadata" : {
                              "WinSubProjectDisplayName" : "",
                              "clipSpeedAttribute" : false,
                              "default-HAlign" : "center",
                              "default-LineSpace" : 0.0,
                              "default-VAlign" : "center",
                              "default-text-attributes" : "[{\"name\":\"fontItalic\",\"rangeEnd\":9,\"rangeStart\":0,\"value\":0,\"valueType\":\"int\"},{\"name\":\"fontSize\",\"rangeEnd\":9,\"rangeStart\":0,\"value\":96,\"valueType\":\"double\"},{\"name\":\"fontName\",\"rangeEnd\":9,\"rangeStart\":0,\"value\":\"Montserrat\",\"valueType\":\"string\"},{\"name\":\"underline\",\"rangeEnd\":9,\"rangeStart\":0,\"value\":0,\"valueType\":\"int\"},{\"name\":\"fontWeight\",\"rangeEnd\":9,\"rangeStart\":0,\"value\":100,\"valueType\":\"int\"},{\"name\":\"strikethrough\",\"rangeEnd\":9,\"rangeStart\":0,\"value\":0,\"valueType\":\"int\"},{\"name\":\"fgColor\",\"rangeEnd\":9,\"rangeStart\":0,\"value\":\"(241,230,195,255)\",\"valueType\":\"color\"}]",
                              "default-translation0" : -66.0174967329584,
                              "default-translation1" : 46.64285714285,
                              "effectApplied" : "none"
                            },
                            "animationTracks" : {

                            }
                          }
                        ],
                          "ident" : "",
                          "audioMuted" : false,
                          "videoHidden" : false,
                          "magnetic" : false,
                          "metadata" : {
                            "IsLocked" : "False",
                            "WinTrackHeight" : "1.18064664215163e-311",
                            "trackHeight" : "48"
                          }
                      }
                    ],
                    "attributes" : {
                      "ident" : "squarepegs",
                      "gain" : 1.0,
                      "mixToMono" : false,
                      "assetProperties" : [
                        {
                          "type" : 0,
                          "name" : "Title",
                          "objects" : [ 331 ],
                          "themeMappings" :  {
                            "font-color" : "foreground-1",
                            "font-family" : "font-1"
                          }
                        },
                        {
                          "type" : 0,
                          "name" : "Subtitle",
                          "objects" : [ 330 ],
                          "themeMappings" :  {
                            "font-color" : "foreground-1",
                            "font-family" : "font-1"
                          }
                        }
                      ]
                    },
                    "effects" : [

                    ],
                    "start" : 25616,
                    "duration" : 176,
                    "mediaStart" : 114.0,
                    "mediaDuration" : 176.0,
                    "scalar" : 1,
                    "metadata" : {
                      "IsGroupExpanded" : "False",
                      "WinSubProjectDisplayName" : "",
                      "clipSpeedAttribute" : false,
                      "effectApplied" : "none",
                      "isOpen" : false
                    },
                    "animationTracks" : {

                    }
                  },
                  {
                    "id" : 332,
                    "_type" : "UnifiedMedia",
                    "video" : 
                        {
                          "id" : 333,
                          "_type" : "ScreenVMFile",
                          "src" : 30,
                          "trackNumber" : 0,
                          "attributes" : {
                            "ident" : "scratch-6.1-control-waiting"
                          },
                          "parameters" : {
                            "cursorScale" : {
                              "type" : "double",
                              "defaultValue" : 1.0,
                              "interp" : "linr"
                            },
                            "cursorOpacity" : {
                              "type" : "double",
                              "defaultValue" : 1.0,
                              "interp" : "linr"
                            }
                          },
                          "effects" : [

                          ],
                          "start" : 25792,
                          "duration" : 646,
                          "mediaStart" : 0,
                          "mediaDuration" : 646,
                          "scalar" : 1,
                          "animationTracks" : {

                          }
                        },
                    "audio" : 
                        {
                          "id" : 334,
                          "_type" : "AMFile",
                          "src" : 30,
                          "trackNumber" : 1,
                          "attributes" : {
                            "ident" : "",
                            "gain" : 1.0,
                            "mixToMono" : false
                          },
                            "channelNumber" : "0,1",
                          "effects" : [

                          ],
                          "start" : 25792,
                          "duration" : 646,
                          "mediaStart" : 0,
                          "mediaDuration" : 646,
                          "scalar" : 1,
                          "animationTracks" : {

                          }
                        }
,
                    "start" : 25792,
                    "duration" : 646,
                    "mediaStart" : 0,
                    "mediaDuration" : 646,
                    "scalar" : 1,
                    "metadata" : {
                      "AutoAppliedSmartFocus" : "False",
                      "clipSpeedAttribute" : false
                    }
                  },
                  {
                    "id" : 335,
                    "_type" : "Group",
                    "parameters" : {
                      "volume" : 1.0
                    },
                    "tracks" : [
                      {
                        "trackIndex" : 0,
                        "medias" : [
                          {
                            "id" : 336,
                            "_type" : "UnifiedMedia",
                            "video" : 
                                {
                                  "id" : 337,
                                  "_type" : "VMFile",
                                  "src" : 51,
                                  "trackNumber" : 0,
                                  "attributes" : {
                                    "ident" : "Movie"
                                  },
                                  "effects" : [

                                  ],
                                  "start" : 114,
                                  "duration" : 176,
                                  "mediaStart" : 114,
                                  "mediaDuration" : 176,
                                  "scalar" : 1,
                                  "animationTracks" : {

                                  }
                                },
                            "audio" : 
                                {
                                  "id" : 338,
                                  "_type" : "AMFile",
                                  "src" : 51,
                                  "trackNumber" : 1,
                                  "attributes" : {
                                    "ident" : "",
                                    "gain" : 1.0,
                                    "mixToMono" : false
                                  },
                                    "channelNumber" : "0,1",
                                  "effects" : [

                                  ],
                                  "start" : 114,
                                  "duration" : 176,
                                  "mediaStart" : 114,
                                  "mediaDuration" : 176,
                                  "scalar" : 1,
                                  "animationTracks" : {

                                  }
                                }
,
                            "start" : 114,
                            "duration" : 176,
                            "mediaStart" : 0,
                            "mediaDuration" : 438,
                            "scalar" : 1,
                            "metadata" : {
                              "WinSubProjectDisplayName" : "",
                              "clipSpeedAttribute" : false,
                              "effectApplied" : "none"
                            }
                          }
                        ],
                          "ident" : "",
                          "audioMuted" : false,
                          "videoHidden" : false,
                          "magnetic" : false,
                          "metadata" : {
                            "IsLocked" : "False",
                            "WinTrackHeight" : "0",
                            "trackHeight" : "48"
                          }
                      },
                      {
                        "trackIndex" : 1,
                        "medias" : [
                          {
                            "id" : 339,
                            "_type" : "Callout",
                            "def" : {
                              "kind" : "remix",
                              "shape" : "text",
                              "style" : "basic",
                              "height" : 78.4795300319492,
                              "line-spacing" : 0.0,
                              "width" : 583.0,
                              "word-wrap" : 1.0,
                              "horizontal-alignment" : "center",
                              "resize-behavior" : "resizeText",
                              "text" : "motion",
                              "vertical-alignment" : "center",
                              "font" : {
                                "color-blue" : 1.0,
                                "color-green" : 1.0,
                                "color-red" : 1.0,
                                "size" : 96.0,
                                "tracking" : 0.0,
                                "name" : "Montserrat",
                                "weight" : "Regular"
                              },
                              "textAttributes" : {
                                "type" : "textAttributeList",
                                "keyframes" : [
                                  {
                                    "endTime" : 0,
                                    "time" : 0,
                                    "value" : [{"name":"fontWeight","rangeEnd":6,"rangeStart":0,"value":400,"valueType":"int"},{"name":"fontItalic","rangeEnd":6,"rangeStart":0,"value":0,"valueType":"int"},{"name":"fontName","rangeEnd":6,"rangeStart":0,"value":"Montserrat","valueType":"string"},{"name":"fontSize","rangeEnd":6,"rangeStart":0,"value":55,"valueType":"double"},{"name":"fgColor","rangeEnd":6,"rangeStart":0,"value":"(239,231,195,255)","valueType":"color"},{"name":"strikethrough","rangeEnd":6,"rangeStart":0,"value":0,"valueType":"int"},{"name":"underline","rangeEnd":6,"rangeStart":0,"value":0,"valueType":"int"},{"name":"kerning","rangeEnd":6,"rangeStart":0,"value":0,"valueType":"double"}],
                                    "duration" : 0
                                  }
                                ]
                              }
                            },
                            "attributes" : {
                              "autoRotateText" : true
                            },
                            "parameters" : {
                              "translation0" : -1.77887982122371e-11,
                              "translation1" : -100.336673040374
                            },
                            "effects" : [
                                {
                                  "_type" : "GenericBehaviorEffect",
                                  "effectName" : "sliding",
                                  "start" : -18,
                                  "duration" : 80                                ,
                                  "in" : {
                                    "attributes" : {
                                      "name" : "sliding",
                                      "type" : 1,
                                      "characterOrder" : 0,
                                      "offsetBetweenCharacters" : 3,
                                      "suggestedDurationPerCharacter" : "999/50",
                                      "overlapProportion" : "11/20",
                                      "movement" : 16,
                                      "springDamping" : 5.0,
                                      "springStiffness" : 50.0,
                                      "bounceBounciness" : 0.45
                                    },
                                    "parameters" : {
                                      "direction" : {
                                        "type" : "int",
                                        "valueBounds" : {
                                          "minValue" : 0,
                                          "maxValue" : 3,
                                          "defaultValue" : 0
                                        },
                                        "uiHints" : {
                                          "userInterfaceType" : 2,
                                          "unitType" : 0
                                        },
                                        "keyframes" : [
                                          {
                                            "endTime" : 0,
                                            "time" : 0,
                                            "value" : 3,
                                            "duration" : 0
                                          }
                                        ]
                                      }
                                    }
                                  
                                  },
                                  "center" : {
                                    "attributes" : {
                                      "name" : "none",
                                      "type" : 1,
                                      "characterOrder" : 6,
                                      "offsetBetweenCharacters" : 0,
                                      "secondsPerLoop" : 1,
                                      "numberOfLoops" : -1,
                                      "delayBetweenLoops" : 0,
                                      "offsetBetweenCharacters" : 0
                                    }
                                  
                                  },
                                  "out" : {
                                    "attributes" : {
                                      "name" : "none",
                                      "type" : 1,
                                      "characterOrder" : 6,
                                      "offsetBetweenCharacters" : 0,
                                      "suggestedDurationPerCharacter" : 0,
                                      "overlapProportion" : 0,
                                      "movement" : -1,
                                      "springDamping" : 5.0,
                                      "springStiffness" : 50.0,
                                      "bounceBounciness" : 0.45
                                    }
                                  
                                  }
                                }
                            ],
                            "start" : 210,
                            "duration" : 80,
                            "mediaStart" : -18,
                            "mediaDuration" : 80,
                            "scalar" : 1,
                            "metadata" : {
                              "WinSubProjectDisplayName" : "",
                              "clipSpeedAttribute" : false,
                              "default-HAlign" : "center",
                              "default-LineSpace" : 0.0,
                              "default-VAlign" : "center",
                              "default-text-attributes" : "[{\"name\":\"strikethrough\",\"rangeEnd\":13,\"rangeStart\":0,\"value\":0,\"valueType\":\"int\"},{\"name\":\"fontWeight\",\"rangeEnd\":13,\"rangeStart\":0,\"value\":100,\"valueType\":\"int\"},{\"name\":\"fontSize\",\"rangeEnd\":13,\"rangeStart\":0,\"value\":55,\"valueType\":\"double\"},{\"name\":\"underline\",\"rangeEnd\":13,\"rangeStart\":0,\"value\":0,\"valueType\":\"int\"},{\"name\":\"fgColor\",\"rangeEnd\":13,\"rangeStart\":0,\"value\":\"(239,231,195,255)\",\"valueType\":\"color\"},{\"name\":\"fontItalic\",\"rangeEnd\":13,\"rangeStart\":0,\"value\":0,\"valueType\":\"int\"},{\"name\":\"fontName\",\"rangeEnd\":13,\"rangeStart\":0,\"value\":\"Montserrat\",\"valueType\":\"string\"}]",
                              "effectApplied" : "none"
                            },
                            "animationTracks" : {

                            }
                          }
                        ],
                          "ident" : "",
                          "audioMuted" : false,
                          "videoHidden" : false,
                          "magnetic" : false,
                          "metadata" : {
                            "IsLocked" : "False",
                            "WinTrackHeight" : "1.18064664215163e-311",
                            "trackHeight" : "48"
                          }
                      },
                      {
                        "trackIndex" : 2,
                        "medias" : [
                          {
                            "id" : 340,
                            "_type" : "Callout",
                            "def" : {
                              "kind" : "remix",
                              "shape" : "text",
                              "style" : "basic",
                              "height" : 177.714285714305,
                              "line-spacing" : 0.0,
                              "width" : 904.358937127979,
                              "word-wrap" : 1.0,
                              "horizontal-alignment" : "center",
                              "resize-behavior" : "resizeText",
                              "text" : "loops",
                              "vertical-alignment" : "center",
                              "font" : {
                                "color-blue" : 1.0,
                                "color-green" : 1.0,
                                "color-red" : 1.0,
                                "size" : 96.0,
                                "tracking" : 0.0,
                                "name" : "Montserrat",
                                "weight" : "Regular"
                              },
                              "textAttributes" : {
                                "type" : "textAttributeList",
                                "keyframes" : [
                                  {
                                    "endTime" : 0,
                                    "time" : 0,
                                    "value" : [{"name":"underline","rangeEnd":5,"rangeStart":0,"value":0,"valueType":"int"},{"name":"kerning","rangeEnd":5,"rangeStart":0,"value":0,"valueType":"double"},{"name":"fontName","rangeEnd":5,"rangeStart":0,"value":"Montserrat","valueType":"string"},{"name":"fgColor","rangeEnd":5,"rangeStart":0,"value":"(241,230,195,255)","valueType":"color"},{"name":"strikethrough","rangeEnd":5,"rangeStart":0,"value":0,"valueType":"int"},{"name":"fontItalic","rangeEnd":5,"rangeStart":0,"value":0,"valueType":"int"},{"name":"fontSize","rangeEnd":5,"rangeStart":0,"value":96,"valueType":"double"},{"name":"fontWeight","rangeEnd":5,"rangeStart":0,"value":400,"valueType":"int"}],
                                    "duration" : 0
                                  }
                                ]
                              }
                            },
                            "attributes" : {
                              "autoRotateText" : true
                            },
                            "parameters" : {
                              "translation0" : 0.320531435861056,
                              "translation1" : 27.642853721879
                            },
                            "effects" : [
                                {
                                  "_type" : "GenericBehaviorEffect",
                                  "effectName" : "scale",
                                  "start" : -52,
                                  "duration" : 176                                ,
                                  "in" : {
                                    "attributes" : {
                                      "name" : "grow",
                                      "type" : 1,
                                      "characterOrder" : 6,
                                      "offsetBetweenCharacters" : 2,
                                      "suggestedDurationPerCharacter" : "2333/25",
                                      "overlapProportion" : "3/4",
                                      "movement" : 30,
                                      "springDamping" : 5.0,
                                      "springStiffness" : 50.0,
                                      "bounceBounciness" : 0.45
                                    }
                                  
                                  },
                                  "center" : {
                                    "attributes" : {
                                      "name" : "none",
                                      "type" : 1,
                                      "characterOrder" : 6,
                                      "offsetBetweenCharacters" : 0,
                                      "secondsPerLoop" : 1,
                                      "numberOfLoops" : -1,
                                      "delayBetweenLoops" : 0,
                                      "offsetBetweenCharacters" : 0
                                    }
                                  
                                  },
                                  "out" : {
                                    "attributes" : {
                                      "name" : "none",
                                      "type" : 1,
                                      "characterOrder" : 6,
                                      "offsetBetweenCharacters" : 0,
                                      "suggestedDurationPerCharacter" : 0,
                                      "overlapProportion" : 0,
                                      "movement" : -1,
                                      "springDamping" : 5.0,
                                      "springStiffness" : 50.0,
                                      "bounceBounciness" : 0.45
                                    }
                                  
                                  }
                                },
                                {
                                  "effectName" : "DropShadow",
                                  "category" : "categoryVisualEffects",
                                  "parameters" : {
                                    "angle" : {
                                      "type" : "double",
                                      "defaultValue" : 4.71238898038469,
                                      "valueBounds" : {
                                        "minValue" : 0.0,
                                        "maxValue" : 0.0,
                                        "defaultValue" : 5.49778714378214
                                      },
                                      "uiHints" : {
                                        "userInterfaceType" : 0,
                                        "unitType" : 0
                                      }
                                    },
                                    "blur" : {
                                      "type" : "double",
                                      "defaultValue" : 3.33066907387547e-16,
                                      "valueBounds" : {
                                        "minValue" : 0.0,
                                        "maxValue" : 50.0,
                                        "defaultValue" : 10.0
                                      },
                                      "uiHints" : {
                                        "userInterfaceType" : 0,
                                        "unitType" : 0
                                      }
                                    },
                                    "color-alpha" : {
                                      "type" : "double",
                                      "defaultValue" : 1.0,
                                      "valueBounds" : {
                                        "minValue" : 0.0,
                                        "maxValue" : 1.0,
                                        "defaultValue" : 1.0
                                      },
                                      "uiHints" : {
                                        "userInterfaceType" : 0,
                                        "unitType" : 0
                                      }
                                    },
                                    "color-blue" : {
                                      "type" : "double",
                                      "defaultValue" : 0.1216,
                                      "valueBounds" : {
                                        "minValue" : 0.0,
                                        "maxValue" : 1.0,
                                        "defaultValue" : 0.1216
                                      },
                                      "uiHints" : {
                                        "userInterfaceType" : 0,
                                        "unitType" : 0
                                      }
                                    },
                                    "color-green" : {
                                      "type" : "double",
                                      "defaultValue" : 0.1216,
                                      "valueBounds" : {
                                        "minValue" : 0.0,
                                        "maxValue" : 1.0,
                                        "defaultValue" : 0.1216
                                      },
                                      "uiHints" : {
                                        "userInterfaceType" : 0,
                                        "unitType" : 0
                                      }
                                    },
                                    "color-red" : {
                                      "type" : "double",
                                      "defaultValue" : 0.1216,
                                      "valueBounds" : {
                                        "minValue" : 0.0,
                                        "maxValue" : 1.0,
                                        "defaultValue" : 0.1216
                                      },
                                      "uiHints" : {
                                        "userInterfaceType" : 0,
                                        "unitType" : 0
                                      }
                                    },
                                    "enabled" : {
                                      "type" : "int",
                                      "valueBounds" : {
                                        "minValue" : 0,
                                        "maxValue" : 1,
                                        "defaultValue" : 1
                                      },
                                      "uiHints" : {
                                        "userInterfaceType" : 0,
                                        "unitType" : 0
                                      },
                                      "keyframes" : [
                                        {
                                          "endTime" : 0,
                                          "time" : 0,
                                          "value" : 1,
                                          "duration" : 0
                                        }
                                      ]
                                    },
                                    "offset" : {
                                      "type" : "double",
                                      "defaultValue" : 10.0,
                                      "valueBounds" : {
                                        "minValue" : 0.0,
                                        "maxValue" : 250.0,
                                        "defaultValue" : 10.0
                                      },
                                      "uiHints" : {
                                        "userInterfaceType" : 0,
                                        "unitType" : 0
                                      }
                                    },
                                    "opacity" : {
                                      "type" : "double",
                                      "defaultValue" : 0.741666666666667,
                                      "valueBounds" : {
                                        "minValue" : 0.0,
                                        "maxValue" : 1.0,
                                        "defaultValue" : 0.4
                                      },
                                      "uiHints" : {
                                        "userInterfaceType" : 0,
                                        "unitType" : 0
                                      }
                                    }
                                  }
                                }
                            ],
                            "start" : 114,
                            "duration" : 176,
                            "mediaStart" : -52,
                            "mediaDuration" : 176,
                            "scalar" : 1,
                            "metadata" : {
                              "WinSubProjectDisplayName" : "",
                              "clipSpeedAttribute" : false,
                              "default-HAlign" : "center",
                              "default-LineSpace" : 0.0,
                              "default-VAlign" : "center",
                              "default-text-attributes" : "[{\"name\":\"fontItalic\",\"rangeEnd\":9,\"rangeStart\":0,\"value\":0,\"valueType\":\"int\"},{\"name\":\"fontSize\",\"rangeEnd\":9,\"rangeStart\":0,\"value\":96,\"valueType\":\"double\"},{\"name\":\"fontName\",\"rangeEnd\":9,\"rangeStart\":0,\"value\":\"Montserrat\",\"valueType\":\"string\"},{\"name\":\"underline\",\"rangeEnd\":9,\"rangeStart\":0,\"value\":0,\"valueType\":\"int\"},{\"name\":\"fontWeight\",\"rangeEnd\":9,\"rangeStart\":0,\"value\":100,\"valueType\":\"int\"},{\"name\":\"strikethrough\",\"rangeEnd\":9,\"rangeStart\":0,\"value\":0,\"valueType\":\"int\"},{\"name\":\"fgColor\",\"rangeEnd\":9,\"rangeStart\":0,\"value\":\"(241,230,195,255)\",\"valueType\":\"color\"}]",
                              "default-translation0" : -66.0174967329584,
                              "default-translation1" : 46.64285714285,
                              "effectApplied" : "none"
                            },
                            "animationTracks" : {

                            }
                          }
                        ],
                          "ident" : "",
                          "audioMuted" : false,
                          "videoHidden" : false,
                          "magnetic" : false,
                          "metadata" : {
                            "IsLocked" : "False",
                            "WinTrackHeight" : "1.18064664215163e-311",
                            "trackHeight" : "48"
                          }
                      }
                    ],
                    "attributes" : {
                      "ident" : "squarepegs",
                      "gain" : 1.0,
                      "mixToMono" : false,
                      "assetProperties" : [
                        {
                          "type" : 0,
                          "name" : "Title",
                          "objects" : [ 340 ],
                          "themeMappings" :  {
                            "font-color" : "foreground-1",
                            "font-family" : "font-1"
                          }
                        },
                        {
                          "type" : 0,
                          "name" : "Subtitle",
                          "objects" : [ 339 ],
                          "themeMappings" :  {
                            "font-color" : "foreground-1",
                            "font-family" : "font-1"
                          }
                        }
                      ]
                    },
                    "effects" : [

                    ],
                    "start" : 26438,
                    "duration" : 176,
                    "mediaStart" : 114.0,
                    "mediaDuration" : 176.0,
                    "scalar" : 1,
                    "metadata" : {
                      "IsGroupExpanded" : "False",
                      "WinSubProjectDisplayName" : "",
                      "clipSpeedAttribute" : false,
                      "effectApplied" : "none",
                      "isOpen" : false
                    },
                    "animationTracks" : {

                    }
                  },
                  {
                    "id" : 341,
                    "_type" : "UnifiedMedia",
                    "video" : 
                        {
                          "id" : 342,
                          "_type" : "ScreenVMFile",
                          "src" : 31,
                          "trackNumber" : 0,
                          "attributes" : {
                            "ident" : "scratch-6.2-control-loops"
                          },
                          "parameters" : {
                            "cursorScale" : {
                              "type" : "double",
                              "defaultValue" : 1.0,
                              "interp" : "linr"
                            },
                            "cursorOpacity" : {
                              "type" : "double",
                              "defaultValue" : 1.0,
                              "interp" : "linr"
                            }
                          },
                          "effects" : [

                          ],
                          "start" : 26614,
                          "duration" : 1446,
                          "mediaStart" : 0,
                          "mediaDuration" : 1446,
                          "scalar" : 1,
                          "animationTracks" : {

                          }
                        },
                    "audio" : 
                        {
                          "id" : 343,
                          "_type" : "AMFile",
                          "src" : 31,
                          "trackNumber" : 1,
                          "attributes" : {
                            "ident" : "",
                            "gain" : 1.0,
                            "mixToMono" : false
                          },
                            "channelNumber" : "0,1",
                          "effects" : [

                          ],
                          "start" : 26614,
                          "duration" : 1446,
                          "mediaStart" : 0,
                          "mediaDuration" : 1446,
                          "scalar" : 1,
                          "animationTracks" : {

                          }
                        }
,
                    "start" : 26614,
                    "duration" : 1446,
                    "mediaStart" : 0,
                    "mediaDuration" : 1446,
                    "scalar" : 1,
                    "metadata" : {
                      "AutoAppliedSmartFocus" : "False",
                      "clipSpeedAttribute" : false
                    }
                  },
                  {
                    "id" : 344,
                    "_type" : "Group",
                    "parameters" : {
                      "volume" : 1.0
                    },
                    "tracks" : [
                      {
                        "trackIndex" : 0,
                        "medias" : [
                          {
                            "id" : 345,
                            "_type" : "UnifiedMedia",
                            "video" : 
                                {
                                  "id" : 346,
                                  "_type" : "VMFile",
                                  "src" : 51,
                                  "trackNumber" : 0,
                                  "attributes" : {
                                    "ident" : "Movie"
                                  },
                                  "effects" : [

                                  ],
                                  "start" : 114,
                                  "duration" : 176,
                                  "mediaStart" : 114,
                                  "mediaDuration" : 176,
                                  "scalar" : 1,
                                  "animationTracks" : {

                                  }
                                },
                            "audio" : 
                                {
                                  "id" : 347,
                                  "_type" : "AMFile",
                                  "src" : 51,
                                  "trackNumber" : 1,
                                  "attributes" : {
                                    "ident" : "",
                                    "gain" : 1.0,
                                    "mixToMono" : false
                                  },
                                    "channelNumber" : "0,1",
                                  "effects" : [

                                  ],
                                  "start" : 114,
                                  "duration" : 176,
                                  "mediaStart" : 114,
                                  "mediaDuration" : 176,
                                  "scalar" : 1,
                                  "animationTracks" : {

                                  }
                                }
,
                            "start" : 114,
                            "duration" : 176,
                            "mediaStart" : 0,
                            "mediaDuration" : 438,
                            "scalar" : 1,
                            "metadata" : {
                              "WinSubProjectDisplayName" : "",
                              "clipSpeedAttribute" : false,
                              "effectApplied" : "none"
                            }
                          }
                        ],
                          "ident" : "",
                          "audioMuted" : false,
                          "videoHidden" : false,
                          "magnetic" : false,
                          "metadata" : {
                            "IsLocked" : "False",
                            "WinTrackHeight" : "0",
                            "trackHeight" : "48"
                          }
                      },
                      {
                        "trackIndex" : 1,
                        "medias" : [
                          {
                            "id" : 348,
                            "_type" : "Callout",
                            "def" : {
                              "kind" : "remix",
                              "shape" : "text",
                              "style" : "basic",
                              "height" : 78.4795300319492,
                              "line-spacing" : 0.0,
                              "width" : 583.0,
                              "word-wrap" : 1.0,
                              "horizontal-alignment" : "center",
                              "resize-behavior" : "resizeText",
                              "text" : "motion",
                              "vertical-alignment" : "center",
                              "font" : {
                                "color-blue" : 1.0,
                                "color-green" : 1.0,
                                "color-red" : 1.0,
                                "size" : 96.0,
                                "tracking" : 0.0,
                                "name" : "Montserrat",
                                "weight" : "Regular"
                              },
                              "textAttributes" : {
                                "type" : "textAttributeList",
                                "keyframes" : [
                                  {
                                    "endTime" : 0,
                                    "time" : 0,
                                    "value" : [{"name":"fontWeight","rangeEnd":6,"rangeStart":0,"value":400,"valueType":"int"},{"name":"fontItalic","rangeEnd":6,"rangeStart":0,"value":0,"valueType":"int"},{"name":"fontName","rangeEnd":6,"rangeStart":0,"value":"Montserrat","valueType":"string"},{"name":"fontSize","rangeEnd":6,"rangeStart":0,"value":55,"valueType":"double"},{"name":"fgColor","rangeEnd":6,"rangeStart":0,"value":"(239,231,195,255)","valueType":"color"},{"name":"strikethrough","rangeEnd":6,"rangeStart":0,"value":0,"valueType":"int"},{"name":"underline","rangeEnd":6,"rangeStart":0,"value":0,"valueType":"int"},{"name":"kerning","rangeEnd":6,"rangeStart":0,"value":0,"valueType":"double"}],
                                    "duration" : 0
                                  }
                                ]
                              }
                            },
                            "attributes" : {
                              "autoRotateText" : true
                            },
                            "parameters" : {
                              "translation0" : -1.77887982122371e-11,
                              "translation1" : -100.336673040374
                            },
                            "effects" : [
                                {
                                  "_type" : "GenericBehaviorEffect",
                                  "effectName" : "sliding",
                                  "start" : -18,
                                  "duration" : 80                                ,
                                  "in" : {
                                    "attributes" : {
                                      "name" : "sliding",
                                      "type" : 1,
                                      "characterOrder" : 0,
                                      "offsetBetweenCharacters" : 3,
                                      "suggestedDurationPerCharacter" : "999/50",
                                      "overlapProportion" : "11/20",
                                      "movement" : 16,
                                      "springDamping" : 5.0,
                                      "springStiffness" : 50.0,
                                      "bounceBounciness" : 0.45
                                    },
                                    "parameters" : {
                                      "direction" : {
                                        "type" : "int",
                                        "valueBounds" : {
                                          "minValue" : 0,
                                          "maxValue" : 3,
                                          "defaultValue" : 0
                                        },
                                        "uiHints" : {
                                          "userInterfaceType" : 2,
                                          "unitType" : 0
                                        },
                                        "keyframes" : [
                                          {
                                            "endTime" : 0,
                                            "time" : 0,
                                            "value" : 3,
                                            "duration" : 0
                                          }
                                        ]
                                      }
                                    }
                                  
                                  },
                                  "center" : {
                                    "attributes" : {
                                      "name" : "none",
                                      "type" : 1,
                                      "characterOrder" : 6,
                                      "offsetBetweenCharacters" : 0,
                                      "secondsPerLoop" : 1,
                                      "numberOfLoops" : -1,
                                      "delayBetweenLoops" : 0,
                                      "offsetBetweenCharacters" : 0
                                    }
                                  
                                  },
                                  "out" : {
                                    "attributes" : {
                                      "name" : "none",
                                      "type" : 1,
                                      "characterOrder" : 6,
                                      "offsetBetweenCharacters" : 0,
                                      "suggestedDurationPerCharacter" : 0,
                                      "overlapProportion" : 0,
                                      "movement" : -1,
                                      "springDamping" : 5.0,
                                      "springStiffness" : 50.0,
                                      "bounceBounciness" : 0.45
                                    }
                                  
                                  }
                                }
                            ],
                            "start" : 210,
                            "duration" : 80,
                            "mediaStart" : -18,
                            "mediaDuration" : 80,
                            "scalar" : 1,
                            "metadata" : {
                              "WinSubProjectDisplayName" : "",
                              "clipSpeedAttribute" : false,
                              "default-HAlign" : "center",
                              "default-LineSpace" : 0.0,
                              "default-VAlign" : "center",
                              "default-text-attributes" : "[{\"name\":\"strikethrough\",\"rangeEnd\":13,\"rangeStart\":0,\"value\":0,\"valueType\":\"int\"},{\"name\":\"fontWeight\",\"rangeEnd\":13,\"rangeStart\":0,\"value\":100,\"valueType\":\"int\"},{\"name\":\"fontSize\",\"rangeEnd\":13,\"rangeStart\":0,\"value\":55,\"valueType\":\"double\"},{\"name\":\"underline\",\"rangeEnd\":13,\"rangeStart\":0,\"value\":0,\"valueType\":\"int\"},{\"name\":\"fgColor\",\"rangeEnd\":13,\"rangeStart\":0,\"value\":\"(239,231,195,255)\",\"valueType\":\"color\"},{\"name\":\"fontItalic\",\"rangeEnd\":13,\"rangeStart\":0,\"value\":0,\"valueType\":\"int\"},{\"name\":\"fontName\",\"rangeEnd\":13,\"rangeStart\":0,\"value\":\"Montserrat\",\"valueType\":\"string\"}]",
                              "effectApplied" : "none"
                            },
                            "animationTracks" : {

                            }
                          }
                        ],
                          "ident" : "",
                          "audioMuted" : false,
                          "videoHidden" : false,
                          "magnetic" : false,
                          "metadata" : {
                            "IsLocked" : "False",
                            "WinTrackHeight" : "1.18064664215163e-311",
                            "trackHeight" : "48"
                          }
                      },
                      {
                        "trackIndex" : 2,
                        "medias" : [
                          {
                            "id" : 349,
                            "_type" : "Callout",
                            "def" : {
                              "kind" : "remix",
                              "shape" : "text",
                              "style" : "basic",
                              "height" : 177.714285714305,
                              "line-spacing" : 0.0,
                              "width" : 904.358937127979,
                              "word-wrap" : 1.0,
                              "horizontal-alignment" : "center",
                              "resize-behavior" : "resizeText",
                              "text" : "conditionals",
                              "vertical-alignment" : "center",
                              "font" : {
                                "color-blue" : 1.0,
                                "color-green" : 1.0,
                                "color-red" : 1.0,
                                "size" : 96.0,
                                "tracking" : 0.0,
                                "name" : "Montserrat",
                                "weight" : "Regular"
                              },
                              "textAttributes" : {
                                "type" : "textAttributeList",
                                "keyframes" : [
                                  {
                                    "endTime" : 0,
                                    "time" : 0,
                                    "value" : [{"name":"kerning","rangeEnd":12,"rangeStart":0,"value":0,"valueType":"double"},{"name":"fgColor","rangeEnd":12,"rangeStart":0,"value":"(241,230,195,255)","valueType":"color"},{"name":"underline","rangeEnd":12,"rangeStart":0,"value":0,"valueType":"int"},{"name":"fontName","rangeEnd":12,"rangeStart":0,"value":"Montserrat","valueType":"string"},{"name":"fontSize","rangeEnd":12,"rangeStart":0,"value":96,"valueType":"double"},{"name":"fontItalic","rangeEnd":12,"rangeStart":0,"value":0,"valueType":"int"},{"name":"fontWeight","rangeEnd":12,"rangeStart":0,"value":400,"valueType":"int"},{"name":"strikethrough","rangeEnd":12,"rangeStart":0,"value":0,"valueType":"int"}],
                                    "duration" : 0
                                  }
                                ]
                              }
                            },
                            "attributes" : {
                              "autoRotateText" : true
                            },
                            "parameters" : {
                              "translation0" : 0.320531435861056,
                              "translation1" : 27.642853721879
                            },
                            "effects" : [
                                {
                                  "_type" : "GenericBehaviorEffect",
                                  "effectName" : "scale",
                                  "start" : -52,
                                  "duration" : 176                                ,
                                  "in" : {
                                    "attributes" : {
                                      "name" : "grow",
                                      "type" : 1,
                                      "characterOrder" : 6,
                                      "offsetBetweenCharacters" : 2,
                                      "suggestedDurationPerCharacter" : "2333/25",
                                      "overlapProportion" : "3/4",
                                      "movement" : 30,
                                      "springDamping" : 5.0,
                                      "springStiffness" : 50.0,
                                      "bounceBounciness" : 0.45
                                    }
                                  
                                  },
                                  "center" : {
                                    "attributes" : {
                                      "name" : "none",
                                      "type" : 1,
                                      "characterOrder" : 6,
                                      "offsetBetweenCharacters" : 0,
                                      "secondsPerLoop" : 1,
                                      "numberOfLoops" : -1,
                                      "delayBetweenLoops" : 0,
                                      "offsetBetweenCharacters" : 0
                                    }
                                  
                                  },
                                  "out" : {
                                    "attributes" : {
                                      "name" : "none",
                                      "type" : 1,
                                      "characterOrder" : 6,
                                      "offsetBetweenCharacters" : 0,
                                      "suggestedDurationPerCharacter" : 0,
                                      "overlapProportion" : 0,
                                      "movement" : -1,
                                      "springDamping" : 5.0,
                                      "springStiffness" : 50.0,
                                      "bounceBounciness" : 0.45
                                    }
                                  
                                  }
                                },
                                {
                                  "effectName" : "DropShadow",
                                  "category" : "categoryVisualEffects",
                                  "parameters" : {
                                    "angle" : {
                                      "type" : "double",
                                      "defaultValue" : 4.71238898038469,
                                      "valueBounds" : {
                                        "minValue" : 0.0,
                                        "maxValue" : 0.0,
                                        "defaultValue" : 5.49778714378214
                                      },
                                      "uiHints" : {
                                        "userInterfaceType" : 0,
                                        "unitType" : 0
                                      }
                                    },
                                    "blur" : {
                                      "type" : "double",
                                      "defaultValue" : 3.33066907387547e-16,
                                      "valueBounds" : {
                                        "minValue" : 0.0,
                                        "maxValue" : 50.0,
                                        "defaultValue" : 10.0
                                      },
                                      "uiHints" : {
                                        "userInterfaceType" : 0,
                                        "unitType" : 0
                                      }
                                    },
                                    "color-alpha" : {
                                      "type" : "double",
                                      "defaultValue" : 1.0,
                                      "valueBounds" : {
                                        "minValue" : 0.0,
                                        "maxValue" : 1.0,
                                        "defaultValue" : 1.0
                                      },
                                      "uiHints" : {
                                        "userInterfaceType" : 0,
                                        "unitType" : 0
                                      }
                                    },
                                    "color-blue" : {
                                      "type" : "double",
                                      "defaultValue" : 0.1216,
                                      "valueBounds" : {
                                        "minValue" : 0.0,
                                        "maxValue" : 1.0,
                                        "defaultValue" : 0.1216
                                      },
                                      "uiHints" : {
                                        "userInterfaceType" : 0,
                                        "unitType" : 0
                                      }
                                    },
                                    "color-green" : {
                                      "type" : "double",
                                      "defaultValue" : 0.1216,
                                      "valueBounds" : {
                                        "minValue" : 0.0,
                                        "maxValue" : 1.0,
                                        "defaultValue" : 0.1216
                                      },
                                      "uiHints" : {
                                        "userInterfaceType" : 0,
                                        "unitType" : 0
                                      }
                                    },
                                    "color-red" : {
                                      "type" : "double",
                                      "defaultValue" : 0.1216,
                                      "valueBounds" : {
                                        "minValue" : 0.0,
                                        "maxValue" : 1.0,
                                        "defaultValue" : 0.1216
                                      },
                                      "uiHints" : {
                                        "userInterfaceType" : 0,
                                        "unitType" : 0
                                      }
                                    },
                                    "enabled" : {
                                      "type" : "int",
                                      "valueBounds" : {
                                        "minValue" : 0,
                                        "maxValue" : 1,
                                        "defaultValue" : 1
                                      },
                                      "uiHints" : {
                                        "userInterfaceType" : 0,
                                        "unitType" : 0
                                      },
                                      "keyframes" : [
                                        {
                                          "endTime" : 0,
                                          "time" : 0,
                                          "value" : 1,
                                          "duration" : 0
                                        }
                                      ]
                                    },
                                    "offset" : {
                                      "type" : "double",
                                      "defaultValue" : 10.0,
                                      "valueBounds" : {
                                        "minValue" : 0.0,
                                        "maxValue" : 250.0,
                                        "defaultValue" : 10.0
                                      },
                                      "uiHints" : {
                                        "userInterfaceType" : 0,
                                        "unitType" : 0
                                      }
                                    },
                                    "opacity" : {
                                      "type" : "double",
                                      "defaultValue" : 0.741666666666667,
                                      "valueBounds" : {
                                        "minValue" : 0.0,
                                        "maxValue" : 1.0,
                                        "defaultValue" : 0.4
                                      },
                                      "uiHints" : {
                                        "userInterfaceType" : 0,
                                        "unitType" : 0
                                      }
                                    }
                                  }
                                }
                            ],
                            "start" : 114,
                            "duration" : 176,
                            "mediaStart" : -52,
                            "mediaDuration" : 176,
                            "scalar" : 1,
                            "metadata" : {
                              "WinSubProjectDisplayName" : "",
                              "clipSpeedAttribute" : false,
                              "default-HAlign" : "center",
                              "default-LineSpace" : 0.0,
                              "default-VAlign" : "center",
                              "default-text-attributes" : "[{\"name\":\"fontItalic\",\"rangeEnd\":9,\"rangeStart\":0,\"value\":0,\"valueType\":\"int\"},{\"name\":\"fontSize\",\"rangeEnd\":9,\"rangeStart\":0,\"value\":96,\"valueType\":\"double\"},{\"name\":\"fontName\",\"rangeEnd\":9,\"rangeStart\":0,\"value\":\"Montserrat\",\"valueType\":\"string\"},{\"name\":\"underline\",\"rangeEnd\":9,\"rangeStart\":0,\"value\":0,\"valueType\":\"int\"},{\"name\":\"fontWeight\",\"rangeEnd\":9,\"rangeStart\":0,\"value\":100,\"valueType\":\"int\"},{\"name\":\"strikethrough\",\"rangeEnd\":9,\"rangeStart\":0,\"value\":0,\"valueType\":\"int\"},{\"name\":\"fgColor\",\"rangeEnd\":9,\"rangeStart\":0,\"value\":\"(241,230,195,255)\",\"valueType\":\"color\"}]",
                              "default-translation0" : -66.0174967329584,
                              "default-translation1" : 46.64285714285,
                              "effectApplied" : "none"
                            },
                            "animationTracks" : {

                            }
                          }
                        ],
                          "ident" : "",
                          "audioMuted" : false,
                          "videoHidden" : false,
                          "magnetic" : false,
                          "metadata" : {
                            "IsLocked" : "False",
                            "WinTrackHeight" : "1.18064664215163e-311",
                            "trackHeight" : "48"
                          }
                      }
                    ],
                    "attributes" : {
                      "ident" : "squarepegs",
                      "gain" : 1.0,
                      "mixToMono" : false,
                      "assetProperties" : [
                        {
                          "type" : 0,
                          "name" : "Title",
                          "objects" : [ 349 ],
                          "themeMappings" :  {
                            "font-color" : "foreground-1",
                            "font-family" : "font-1"
                          }
                        },
                        {
                          "type" : 0,
                          "name" : "Subtitle",
                          "objects" : [ 348 ],
                          "themeMappings" :  {
                            "font-color" : "foreground-1",
                            "font-family" : "font-1"
                          }
                        }
                      ]
                    },
                    "effects" : [

                    ],
                    "start" : 28060,
                    "duration" : 176,
                    "mediaStart" : 114.0,
                    "mediaDuration" : 176.0,
                    "scalar" : 1,
                    "metadata" : {
                      "IsGroupExpanded" : "False",
                      "WinSubProjectDisplayName" : "",
                      "clipSpeedAttribute" : false,
                      "effectApplied" : "none",
                      "isOpen" : false
                    },
                    "animationTracks" : {

                    }
                  },
                  {
                    "id" : 350,
                    "_type" : "UnifiedMedia",
                    "video" : 
                        {
                          "id" : 351,
                          "_type" : "ScreenVMFile",
                          "src" : 32,
                          "trackNumber" : 0,
                          "attributes" : {
                            "ident" : "scratch-6.3-control-conditionals"
                          },
                          "parameters" : {
                            "cursorScale" : {
                              "type" : "double",
                              "defaultValue" : 1.0,
                              "interp" : "linr"
                            },
                            "cursorOpacity" : {
                              "type" : "double",
                              "defaultValue" : 1.0,
                              "interp" : "linr"
                            }
                          },
                          "effects" : [

                          ],
                          "start" : 28236,
                          "duration" : 1550,
                          "mediaStart" : 0,
                          "mediaDuration" : 1550,
                          "scalar" : 1,
                          "animationTracks" : {

                          }
                        },
                    "audio" : 
                        {
                          "id" : 352,
                          "_type" : "AMFile",
                          "src" : 32,
                          "trackNumber" : 1,
                          "attributes" : {
                            "ident" : "",
                            "gain" : 1.0,
                            "mixToMono" : false
                          },
                            "channelNumber" : "0,1",
                          "effects" : [

                          ],
                          "start" : 28236,
                          "duration" : 1550,
                          "mediaStart" : 0,
                          "mediaDuration" : 1550,
                          "scalar" : 1,
                          "animationTracks" : {

                          }
                        }
,
                    "start" : 28236,
                    "duration" : 1550,
                    "mediaStart" : 0,
                    "mediaDuration" : 1550,
                    "scalar" : 1,
                    "metadata" : {
                      "AutoAppliedSmartFocus" : "False",
                      "clipSpeedAttribute" : false
                    }
                  },
                  {
                    "id" : 353,
                    "_type" : "Group",
                    "parameters" : {
                      "translation0" : 1.21531229524408e-10,
                      "translation1" : 62.3420348343093,
                      "volume" : 1.0
                    },
                    "tracks" : [
                      {
                        "trackIndex" : 0,
                        "medias" : [
                          {
                            "id" : 354,
                            "_type" : "Callout",
                            "def" : {
                              "kind" : "remix",
                              "shape" : "shape-rectangle",
                              "style" : "urban",
                              "fill-color-blue" : {
                                "type" : "double",
                                "defaultValue" : 1.0,
                                "keyframes" : [
                                  {
                                    "endTime" : 56,
                                    "time" : 18,
                                    "value" : 1.0,
                                    "duration" : 38
                                  },
                                  {
                                    "endTime" : 92,
                                    "time" : 56,
                                    "value" : 0.149019607843137,
                                    "duration" : 36
                                  },
                                  {
                                    "endTime" : 174,
                                    "time" : 116,
                                    "value" : 0.149019607843137,
                                    "duration" : 58
                                  }
                                ]
                              },
                              "fill-color-green" : {
                                "type" : "double",
                                "defaultValue" : 1.0,
                                "keyframes" : [
                                  {
                                    "endTime" : 56,
                                    "time" : 18,
                                    "value" : 1.0,
                                    "duration" : 38
                                  },
                                  {
                                    "endTime" : 92,
                                    "time" : 56,
                                    "value" : 0.96078431372549,
                                    "duration" : 36
                                  },
                                  {
                                    "endTime" : 174,
                                    "time" : 116,
                                    "value" : 0.96078431372549,
                                    "duration" : 58
                                  }
                                ]
                              },
                              "fill-color-opacity" : 1.0,
                              "fill-color-red" : {
                                "type" : "double",
                                "defaultValue" : 1.0,
                                "keyframes" : [
                                  {
                                    "endTime" : 56,
                                    "time" : 18,
                                    "value" : 1.0,
                                    "duration" : 38
                                  },
                                  {
                                    "endTime" : 92,
                                    "time" : 56,
                                    "value" : 0.933333333333333,
                                    "duration" : 36
                                  },
                                  {
                                    "endTime" : 174,
                                    "time" : 116,
                                    "value" : 0.933333333333333,
                                    "duration" : 58
                                  }
                                ]
                              },
                              "height" : {
                                "type" : "double",
                                "defaultValue" : 10.8510761260468,
                                "keyframes" : [
                                  {
                                    "endTime" : 56,
                                    "time" : 18,
                                    "value" : 24.9687231850678,
                                    "duration" : 38
                                  },
                                  {
                                    "endTime" : 92,
                                    "time" : 56,
                                    "value" : 1281.28323719656,
                                    "duration" : 36
                                  },
                                  {
                                    "endTime" : 174,
                                    "time" : 116,
                                    "value" : 1347.6353898526,
                                    "duration" : 58
                                  }
                                ]
                              },
                              "stroke-color-blue" : 1.0,
                              "stroke-color-green" : 1.0,
                              "stroke-color-opacity" : 1.0,
                              "stroke-color-red" : 1.0,
                              "stroke-width" : 0.0,
                              "width" : {
                                "type" : "double",
                                "defaultValue" : 6.88782755517832,
                                "keyframes" : [
                                  {
                                    "endTime" : 56,
                                    "time" : 18,
                                    "value" : 67.9394975592671,
                                    "duration" : 38
                                  },
                                  {
                                    "endTime" : 92,
                                    "time" : 56,
                                    "value" : 67.9394975592671,
                                    "duration" : 36
                                  },
                                  {
                                    "endTime" : 174,
                                    "time" : 116,
                                    "value" : 68.0763125888445,
                                    "duration" : 58
                                  }
                                ]
                              },
                              "fill-style" : "solid",
                              "horizontal-alignment" : "center",
                              "stroke-style" : "solid",
                              "vertical-alignment" : "center",
                              "textAttributes" : {
                                "type" : "textAttributeList",
                                "keyframes" : [
                                  {
                                    "endTime" : 0,
                                    "time" : 0,
                                    "value" : null,
                                    "duration" : 0
                                  }
                                ]
                              }
                            },
                            "attributes" : {
                              "autoRotateText" : true
                            },
                            "parameters" : {
                              "translation0" : {
                                "type" : "double",
                                "defaultValue" : -1.21547438780567e-10,
                                "keyframes" : [
                                  {
                                    "endTime" : 56,
                                    "time" : 18,
                                    "value" : -1.21547438780567e-10,
                                    "duration" : 38
                                  },
                                  {
                                    "endTime" : 92,
                                    "time" : 56,
                                    "value" : 0.0541990816513973,
                                    "duration" : 36
                                  },
                                  {
                                    "endTime" : 174,
                                    "time" : 116,
                                    "value" : -1.67577274979808e-14,
                                    "duration" : 58
                                  }
                                ]
                              },
                              "translation1" : {
                                "type" : "double",
                                "defaultValue" : -96.3117858166865,
                                "keyframes" : [
                                  {
                                    "endTime" : 56,
                                    "time" : 18,
                                    "value" : -96.3117858166865,
                                    "duration" : 38
                                  },
                                  {
                                    "endTime" : 92,
                                    "time" : 56,
                                    "value" : -96.3117858166865,
                                    "duration" : 36
                                  },
                                  {
                                    "endTime" : 174,
                                    "time" : 116,
                                    "value" : -658.65796581331,
                                    "duration" : 58
                                  }
                                ]
                              },
                              "rotation2" : {
                                "type" : "double",
                                "defaultValue" : 0.0,
                                "keyframes" : [
                                  {
                                    "endTime" : 56,
                                    "time" : 18,
                                    "value" : -1.5707963267949,
                                    "duration" : 38
                                  }
                                ]
                              }
                            },
                            "effects" : [

                            ],
                            "start" : -30,
                            "duration" : 210,
                            "mediaStart" : -12,
                            "mediaDuration" : 210,
                            "scalar" : 1,
                            "metadata" : {
                              "WinSubProjectDisplayName" : "",
                              "clipSpeedAttribute" : false
                            },
                            "animationTracks" : {
                              "visual" : [
                                {
                                  "endTime" : 56,
                                  "duration" : 38,
                                  "range" : [ 18, 38],
                                  "interp" : "eioe"
                                },
                                {
                                  "endTime" : 92,
                                  "duration" : 36,
                                  "range" : [ 56, 36],
                                  "interp" : "eioe"
                                },
                                {
                                  "endTime" : 174,
                                  "duration" : 58,
                                  "range" : [ 116, 58]
                                }
                              ]
                            }
                          }
                        ],
                          "ident" : "",
                          "audioMuted" : false,
                          "videoHidden" : false,
                          "magnetic" : false,
                          "metadata" : {
                            "IsLocked" : "False",
                            "WinTrackHeight" : "0"
                          }
                      },
                      {
                        "trackIndex" : 1,
                        "medias" : [
                          {
                            "id" : 355,
                            "_type" : "Callout",
                            "def" : {
                              "kind" : "remix",
                              "shape" : "shape-rectangle",
                              "style" : "urban",
                              "fill-color-blue" : {
                                "type" : "double",
                                "defaultValue" : 1.0,
                                "keyframes" : [
                                  {
                                    "endTime" : 54,
                                    "time" : 18,
                                    "value" : 0.149019607843137,
                                    "duration" : 36
                                  },
                                  {
                                    "endTime" : 136,
                                    "time" : 78,
                                    "value" : 1.0,
                                    "duration" : 58
                                  }
                                ]
                              },
                              "fill-color-green" : {
                                "type" : "double",
                                "defaultValue" : 1.0,
                                "keyframes" : [
                                  {
                                    "endTime" : 54,
                                    "time" : 18,
                                    "value" : 0.96078431372549,
                                    "duration" : 36
                                  },
                                  {
                                    "endTime" : 136,
                                    "time" : 78,
                                    "value" : 1.0,
                                    "duration" : 58
                                  }
                                ]
                              },
                              "fill-color-opacity" : 1.0,
                              "fill-color-red" : {
                                "type" : "double",
                                "defaultValue" : 1.0,
                                "keyframes" : [
                                  {
                                    "endTime" : 54,
                                    "time" : 18,
                                    "value" : 0.933333333333333,
                                    "duration" : 36
                                  },
                                  {
                                    "endTime" : 136,
                                    "time" : 78,
                                    "value" : 1.0,
                                    "duration" : 58
                                  }
                                ]
                              },
                              "height" : {
                                "type" : "double",
                                "defaultValue" : 10.8510761260468,
                                "keyframes" : [
                                  {
                                    "endTime" : 54,
                                    "time" : 18,
                                    "value" : 10.8510761260468,
                                    "duration" : 36
                                  },
                                  {
                                    "endTime" : 136,
                                    "time" : 78,
                                    "value" : 10.8510761260468,
                                    "duration" : 58
                                  }
                                ]
                              },
                              "stroke-color-blue" : 1.0,
                              "stroke-color-green" : 1.0,
                              "stroke-color-opacity" : 1.0,
                              "stroke-color-red" : 1.0,
                              "stroke-width" : 0.0,
                              "width" : {
                                "type" : "double",
                                "defaultValue" : 6.88782755517832,
                                "keyframes" : [
                                  {
                                    "endTime" : 54,
                                    "time" : 18,
                                    "value" : 1281.28316541273,
                                    "duration" : 36
                                  },
                                  {
                                    "endTime" : 136,
                                    "time" : 78,
                                    "value" : 1302.87700103543,
                                    "duration" : 58
                                  }
                                ]
                              },
                              "fill-style" : "solid",
                              "horizontal-alignment" : "center",
                              "stroke-style" : "solid",
                              "vertical-alignment" : "center",
                              "textAttributes" : {
                                "type" : "textAttributeList",
                                "keyframes" : [
                                  {
                                    "endTime" : 0,
                                    "time" : 0,
                                    "value" : null,
                                    "duration" : 0
                                  }
                                ]
                              }
                            },
                            "attributes" : {
                              "autoRotateText" : true
                            },
                            "parameters" : {
                              "translation0" : {
                                "type" : "double",
                                "defaultValue" : -1.21547438780567e-10,
                                "keyframes" : [
                                  {
                                    "endTime" : 54,
                                    "time" : 18,
                                    "value" : -0.0541988189824127,
                                    "duration" : 36
                                  },
                                  {
                                    "endTime" : 136,
                                    "time" : 78,
                                    "value" : -1.21547438780567e-10,
                                    "duration" : 58
                                  }
                                ]
                              },
                              "translation1" : {
                                "type" : "double",
                                "defaultValue" : 78.8579651656907,
                                "keyframes" : [
                                  {
                                    "endTime" : 54,
                                    "time" : 18,
                                    "value" : 78.8936575656383,
                                    "duration" : 36
                                  },
                                  {
                                    "endTime" : 136,
                                    "time" : 78,
                                    "value" : 694.705445748916,
                                    "duration" : 58
                                  }
                                ]
                              }
                            },
                            "effects" : [

                            ],
                            "start" : 38,
                            "duration" : 142,
                            "mediaStart" : 18,
                            "mediaDuration" : 142,
                            "scalar" : 1,
                            "metadata" : {
                              "WinSubProjectDisplayName" : "",
                              "clipSpeedAttribute" : false
                            },
                            "animationTracks" : {
                              "visual" : [
                                {
                                  "endTime" : 54,
                                  "duration" : 36,
                                  "range" : [ 18, 36],
                                  "interp" : "eioe"
                                },
                                {
                                  "endTime" : 136,
                                  "duration" : 58,
                                  "range" : [ 78, 58],
                                  "interp" : "eioe"
                                }
                              ]
                            }
                          }
                        ],
                          "ident" : "",
                          "audioMuted" : false,
                          "videoHidden" : false,
                          "magnetic" : false,
                          "metadata" : {
                            "IsLocked" : "False",
                            "WinTrackHeight" : "6.39079466327898e-312"
                          }
                      },
                      {
                        "trackIndex" : 2,
                        "medias" : [
                          {
                            "id" : 356,
                            "_type" : "Callout",
                            "def" : {
                              "kind" : "remix",
                              "shape" : "text",
                              "style" : "abstract",
                              "height" : 180.630981445261,
                              "line-spacing" : 0.0,
                              "width" : 1281.17482864961,
                              "word-wrap" : 1.0,
                              "horizontal-alignment" : "center",
                              "resize-behavior" : "resizeText",
                              "text" : "touching",
                              "vertical-alignment" : "center",
                              "font" : {
                                "color-blue" : 1.0,
                                "color-green" : 1.0,
                                "color-red" : 1.0,
                                "size" : 96.0,
                                "tracking" : 0.0,
                                "name" : "Lato",
                                "weight" : "Regular"
                              },
                              "textAttributes" : {
                                "type" : "textAttributeList",
                                "keyframes" : [
                                  {
                                    "endTime" : 0,
                                    "time" : 0,
                                    "value" : [{"name":"kerning","rangeEnd":8,"rangeStart":0,"value":0,"valueType":"double"},{"name":"fgColor","rangeEnd":8,"rangeStart":0,"value":"(255,255,255,255)","valueType":"color"},{"name":"underline","rangeEnd":8,"rangeStart":0,"value":0,"valueType":"int"},{"name":"fontWeight","rangeEnd":8,"rangeStart":0,"value":400,"valueType":"int"},{"name":"fontItalic","rangeEnd":8,"rangeStart":0,"value":0,"valueType":"int"},{"name":"fontName","rangeEnd":8,"rangeStart":0,"value":"Montserrat","valueType":"string"},{"name":"fontSize","rangeEnd":8,"rangeStart":0,"value":128,"valueType":"double"},{"name":"strikethrough","rangeEnd":8,"rangeStart":0,"value":0,"valueType":"int"}],
                                    "duration" : 0
                                  }
                                ]
                              }
                            },
                            "attributes" : {
                              "autoRotateText" : true
                            },
                            "parameters" : {
                              "translation0" : {
                                "type" : "double",
                                "defaultValue" : 0.412585675275182,
                                "keyframes" : [
                                  {
                                    "endTime" : 152,
                                    "time" : 94,
                                    "value" : 11.2636728451827,
                                    "duration" : 58
                                  }
                                ]
                              },
                              "translation1" : {
                                "type" : "double",
                                "defaultValue" : -5.81178581660322,
                                "keyframes" : [
                                  {
                                    "endTime" : 152,
                                    "time" : 94,
                                    "value" : 610.000002366703,
                                    "duration" : 58
                                  }
                                ]
                              }
                            },
                            "effects" : [
                                {
                                  "_type" : "GenericBehaviorEffect",
                                  "effectName" : "popUp",
                                  "start" : 34,
                                  "duration" : 142                                ,
                                  "in" : {
                                    "attributes" : {
                                      "name" : "reveal",
                                      "type" : 1,
                                      "characterOrder" : 6,
                                      "offsetBetweenCharacters" : 3,
                                      "suggestedDurationPerCharacter" : 44,
                                      "overlapProportion" : 0,
                                      "movement" : 16,
                                      "springDamping" : 5.0,
                                      "springStiffness" : 50.0,
                                      "bounceBounciness" : 0.45
                                    },
                                    "parameters" : {
                                      "direction" : {
                                        "type" : "int",
                                        "valueBounds" : {
                                          "minValue" : 0,
                                          "maxValue" : 3,
                                          "defaultValue" : 0
                                        },
                                        "uiHints" : {
                                          "userInterfaceType" : 2,
                                          "unitType" : 0
                                        },
                                        "keyframes" : [
                                          {
                                            "endTime" : 0,
                                            "time" : 0,
                                            "value" : 2,
                                            "duration" : 0
                                          }
                                        ]
                                      }
                                    }
                                  
                                  },
                                  "center" : {
                                    "attributes" : {
                                      "name" : "none",
                                      "type" : 1,
                                      "characterOrder" : 6,
                                      "offsetBetweenCharacters" : 0,
                                      "secondsPerLoop" : 1,
                                      "numberOfLoops" : -1,
                                      "delayBetweenLoops" : 0,
                                      "offsetBetweenCharacters" : 0
                                    }
                                  
                                  },
                                  "out" : {
                                    "attributes" : {
                                      "name" : "none",
                                      "type" : 1,
                                      "characterOrder" : 6,
                                      "offsetBetweenCharacters" : 0,
                                      "suggestedDurationPerCharacter" : 0,
                                      "overlapProportion" : 0,
                                      "movement" : -1,
                                      "springDamping" : 5.0,
                                      "springStiffness" : 50.0,
                                      "bounceBounciness" : 0.45
                                    }
                                  
                                  }
                                }
                            ],
                            "start" : 38,
                            "duration" : 142,
                            "mediaStart" : 34,
                            "mediaDuration" : 142,
                            "scalar" : 1,
                            "metadata" : {
                              "WinSubProjectDisplayName" : "",
                              "clipSpeedAttribute" : false,
                              "default-HAlign" : "center",
                              "default-LineSpace" : 0.0,
                              "default-VAlign" : "center",
                              "default-text-attributes" : "[{\"name\":\"fontName\",\"rangeEnd\":15,\"rangeStart\":0,\"value\":\"Montserrat\",\"valueType\":\"string\"},{\"name\":\"fgColor\",\"rangeEnd\":15,\"rangeStart\":0,\"value\":\"(255,255,255,255)\",\"valueType\":\"color\"},{\"name\":\"underline\",\"rangeEnd\":15,\"rangeStart\":0,\"value\":0,\"valueType\":\"int\"},{\"name\":\"strikethrough\",\"rangeEnd\":15,\"rangeStart\":0,\"value\":0,\"valueType\":\"int\"},{\"name\":\"fontSize\",\"rangeEnd\":15,\"rangeStart\":0,\"value\":128,\"valueType\":\"double\"},{\"name\":\"fontItalic\",\"rangeEnd\":15,\"rangeStart\":0,\"value\":0,\"valueType\":\"int\"},{\"name\":\"fontWeight\",\"rangeEnd\":15,\"rangeStart\":0,\"value\":100,\"valueType\":\"int\"}]"
                            },
                            "animationTracks" : {
                              "visual" : [
                                {
                                  "endTime" : 152,
                                  "duration" : 58,
                                  "range" : [ 94, 58],
                                  "interp" : "eioe"
                                }
                              ]
                            }
                          }
                        ],
                          "ident" : "",
                          "audioMuted" : false,
                          "videoHidden" : false,
                          "magnetic" : false,
                          "metadata" : {
                            "IsLocked" : "False",
                            "WinTrackHeight" : "6.39079466327898e-312"
                          }
                      },
                      {
                        "trackIndex" : 3,
                        "medias" : [
                          {
                            "id" : 357,
                            "_type" : "Callout",
                            "def" : {
                              "kind" : "remix",
                              "shape" : "text",
                              "style" : "abstract",
                              "height" : 83.6840731068824,
                              "line-spacing" : 0.0,
                              "width" : 1281.28322521409,
                              "word-wrap" : 1.0,
                              "horizontal-alignment" : "center",
                              "resize-behavior" : "resizeText",
                              "text" : "looks",
                              "vertical-alignment" : "center",
                              "font" : {
                                "color-blue" : 1.0,
                                "color-green" : 1.0,
                                "color-red" : 1.0,
                                "size" : 96.0,
                                "tracking" : 0.0,
                                "name" : "Lato",
                                "weight" : "Regular"
                              },
                              "textAttributes" : {
                                "type" : "textAttributeList",
                                "keyframes" : [
                                  {
                                    "endTime" : 0,
                                    "time" : 0,
                                    "value" : [{"name":"fontWeight","rangeEnd":5,"rangeStart":0,"value":400,"valueType":"int"},{"name":"fontItalic","rangeEnd":5,"rangeStart":0,"value":0,"valueType":"int"},{"name":"fontName","rangeEnd":5,"rangeStart":0,"value":"Montserrat","valueType":"string"},{"name":"fontSize","rangeEnd":5,"rangeStart":0,"value":60,"valueType":"double"},{"name":"kerning","rangeEnd":5,"rangeStart":0,"value":0,"valueType":"double"},{"name":"fgColor","rangeEnd":5,"rangeStart":0,"value":"(0,0,0,255)","valueType":"color"},{"name":"underline","rangeEnd":5,"rangeStart":0,"value":0,"valueType":"int"},{"name":"strikethrough","rangeEnd":5,"rangeStart":0,"value":0,"valueType":"int"}],
                                    "duration" : 0
                                  }
                                ]
                              }
                            },
                            "attributes" : {
                              "autoRotateText" : true
                            },
                            "parameters" : {
                              "translation0" : {
                                "type" : "double",
                                "defaultValue" : 0.304200155246711,
                                "keyframes" : [
                                  {
                                    "endTime" : 110,
                                    "time" : 52,
                                    "value" : -1.86383482943485,
                                    "duration" : 58
                                  }
                                ]
                              },
                              "translation1" : {
                                "type" : "double",
                                "defaultValue" : -96.1538223700724,
                                "keyframes" : [
                                  {
                                    "endTime" : 110,
                                    "time" : 52,
                                    "value" : -658.500002366703,
                                    "duration" : 58
                                  }
                                ]
                              }
                            },
                            "effects" : [
                                {
                                  "_type" : "GenericBehaviorEffect",
                                  "effectName" : "popUp",
                                  "start" : 0,
                                  "duration" : 138                                ,
                                  "in" : {
                                    "attributes" : {
                                      "name" : "reveal",
                                      "type" : 1,
                                      "characterOrder" : 7,
                                      "offsetBetweenCharacters" : 3,
                                      "suggestedDurationPerCharacter" : 44,
                                      "overlapProportion" : 0,
                                      "movement" : 16,
                                      "springDamping" : 5.0,
                                      "springStiffness" : 50.0,
                                      "bounceBounciness" : 0.45
                                    },
                                    "parameters" : {
                                      "direction" : {
                                        "type" : "int",
                                        "valueBounds" : {
                                          "minValue" : 0,
                                          "maxValue" : 3,
                                          "defaultValue" : 0
                                        },
                                        "uiHints" : {
                                          "userInterfaceType" : 2,
                                          "unitType" : 0
                                        },
                                        "keyframes" : [
                                          {
                                            "endTime" : 0,
                                            "time" : 0,
                                            "value" : 0,
                                            "duration" : 0
                                          }
                                        ]
                                      }
                                    }
                                  
                                  },
                                  "center" : {
                                    "attributes" : {
                                      "name" : "none",
                                      "type" : 1,
                                      "characterOrder" : 6,
                                      "offsetBetweenCharacters" : 0,
                                      "secondsPerLoop" : 1,
                                      "numberOfLoops" : -1,
                                      "delayBetweenLoops" : 0,
                                      "offsetBetweenCharacters" : 0
                                    }
                                  
                                  },
                                  "out" : {
                                    "attributes" : {
                                      "name" : "none",
                                      "type" : 1,
                                      "characterOrder" : 6,
                                      "offsetBetweenCharacters" : 0,
                                      "suggestedDurationPerCharacter" : 0,
                                      "overlapProportion" : 0,
                                      "movement" : -1,
                                      "springDamping" : 5.0,
                                      "springStiffness" : 50.0,
                                      "bounceBounciness" : 0.45
                                    }
                                  
                                  }
                                }
                            ],
                            "start" : 42,
                            "duration" : 138,
                            "mediaStart" : 0,
                            "mediaDuration" : 138,
                            "scalar" : 1,
                            "metadata" : {
                              "WinSubProjectDisplayName" : "",
                              "clipSpeedAttribute" : false,
                              "default-HAlign" : "center",
                              "default-LineSpace" : 0.0,
                              "default-VAlign" : "center",
                              "default-text-attributes" : "[{\"name\":\"fontName\",\"rangeEnd\":17,\"rangeStart\":0,\"value\":\"Montserrat\",\"valueType\":\"string\"},{\"name\":\"strikethrough\",\"rangeEnd\":17,\"rangeStart\":0,\"value\":0,\"valueType\":\"int\"},{\"name\":\"fontWeight\",\"rangeEnd\":17,\"rangeStart\":0,\"value\":100,\"valueType\":\"int\"},{\"name\":\"fontSize\",\"rangeEnd\":17,\"rangeStart\":0,\"value\":60,\"valueType\":\"double\"},{\"name\":\"fontItalic\",\"rangeEnd\":17,\"rangeStart\":0,\"value\":0,\"valueType\":\"int\"},{\"name\":\"fgColor\",\"rangeEnd\":17,\"rangeStart\":0,\"value\":\"(0,0,0,255)\",\"valueType\":\"color\"},{\"name\":\"underline\",\"rangeEnd\":17,\"rangeStart\":0,\"value\":0,\"valueType\":\"int\"}]",
                              "default-translation0" : 0.358387392787593
                            },
                            "animationTracks" : {
                              "visual" : [
                                {
                                  "endTime" : 110,
                                  "duration" : 58,
                                  "range" : [ 52, 58],
                                  "interp" : "eioe"
                                }
                              ]
                            }
                          }
                        ],
                          "ident" : "",
                          "audioMuted" : false,
                          "videoHidden" : false,
                          "magnetic" : false,
                          "metadata" : {
                            "IsLocked" : "False",
                            "WinTrackHeight" : "6.39079466327898e-312"
                          }
                      }
                    ],
                    "attributes" : {
                      "ident" : "Simple Bright Title 3",
                      "gain" : 1.0,
                      "mixToMono" : false,
                      "assetProperties" : [
                        {
                          "type" : 0,
                          "name" : "Title",
                          "objects" : [ 356 ],
                          "themeMappings" :  {
                            "font-color" : "foreground-1",
                            "font-family" : "font-1"
                          }
                        },
                        {
                          "type" : 0,
                          "name" : "Subtitle",
                          "objects" : [ 357 ],
                          "themeMappings" :  {
                            "font-color" : "background-1",
                            "font-family" : "font-1"
                          }
                        },
                        {
                          "type" : 1,
                          "name" : "Color 1",
                          "objects" : [ 354, 355 ],
                          "themeMappings" :  {
                            "fill" : "accent-1"
                          }
                        }
                      ]
                    },
                    "effects" : [

                    ],
                    "start" : 29786,
                    "duration" : 210,
                    "mediaStart" : -30.0,
                    "mediaDuration" : 210.0,
                    "scalar" : 1,
                    "metadata" : {
                      "AppliedThemeId" : "",
                      "IsGroupExpanded" : "False",
                      "WinSubProjectDisplayName" : "Simple Bright Title 3",
                      "clipSpeedAttribute" : false,
                      "effectApplied" : "none",
                      "isOpen" : false
                    },
                    "animationTracks" : {

                    }
                  },
                  {
                    "id" : 358,
                    "_type" : "UnifiedMedia",
                    "video" : 
                        {
                          "id" : 359,
                          "_type" : "ScreenVMFile",
                          "src" : 33,
                          "trackNumber" : 0,
                          "attributes" : {
                            "ident" : "scratch-7.1-sensing-touching"
                          },
                          "parameters" : {
                            "cursorScale" : {
                              "type" : "double",
                              "defaultValue" : 1.0,
                              "interp" : "linr"
                            },
                            "cursorOpacity" : {
                              "type" : "double",
                              "defaultValue" : 1.0,
                              "interp" : "linr"
                            }
                          },
                          "effects" : [

                          ],
                          "start" : 29996,
                          "duration" : 812,
                          "mediaStart" : 0,
                          "mediaDuration" : 812,
                          "scalar" : 1,
                          "animationTracks" : {

                          }
                        },
                    "audio" : 
                        {
                          "id" : 360,
                          "_type" : "AMFile",
                          "src" : 33,
                          "trackNumber" : 1,
                          "attributes" : {
                            "ident" : "",
                            "gain" : 1.0,
                            "mixToMono" : false
                          },
                            "channelNumber" : "0,1",
                          "effects" : [

                          ],
                          "start" : 29996,
                          "duration" : 812,
                          "mediaStart" : 0,
                          "mediaDuration" : 812,
                          "scalar" : 1,
                          "animationTracks" : {

                          }
                        }
,
                    "start" : 29996,
                    "duration" : 812,
                    "mediaStart" : 0,
                    "mediaDuration" : 812,
                    "scalar" : 1,
                    "metadata" : {
                      "AutoAppliedSmartFocus" : "False",
                      "clipSpeedAttribute" : false
                    }
                  },
                  {
                    "id" : 361,
                    "_type" : "Group",
                    "parameters" : {
                      "translation0" : 1.21531229524408e-10,
                      "translation1" : 62.3420348343093,
                      "volume" : 1.0
                    },
                    "tracks" : [
                      {
                        "trackIndex" : 0,
                        "medias" : [
                          {
                            "id" : 362,
                            "_type" : "Callout",
                            "def" : {
                              "kind" : "remix",
                              "shape" : "shape-rectangle",
                              "style" : "urban",
                              "fill-color-blue" : {
                                "type" : "double",
                                "defaultValue" : 1.0,
                                "keyframes" : [
                                  {
                                    "endTime" : 56,
                                    "time" : 18,
                                    "value" : 1.0,
                                    "duration" : 38
                                  },
                                  {
                                    "endTime" : 92,
                                    "time" : 56,
                                    "value" : 0.149019607843137,
                                    "duration" : 36
                                  },
                                  {
                                    "endTime" : 174,
                                    "time" : 116,
                                    "value" : 0.149019607843137,
                                    "duration" : 58
                                  }
                                ]
                              },
                              "fill-color-green" : {
                                "type" : "double",
                                "defaultValue" : 1.0,
                                "keyframes" : [
                                  {
                                    "endTime" : 56,
                                    "time" : 18,
                                    "value" : 1.0,
                                    "duration" : 38
                                  },
                                  {
                                    "endTime" : 92,
                                    "time" : 56,
                                    "value" : 0.96078431372549,
                                    "duration" : 36
                                  },
                                  {
                                    "endTime" : 174,
                                    "time" : 116,
                                    "value" : 0.96078431372549,
                                    "duration" : 58
                                  }
                                ]
                              },
                              "fill-color-opacity" : 1.0,
                              "fill-color-red" : {
                                "type" : "double",
                                "defaultValue" : 1.0,
                                "keyframes" : [
                                  {
                                    "endTime" : 56,
                                    "time" : 18,
                                    "value" : 1.0,
                                    "duration" : 38
                                  },
                                  {
                                    "endTime" : 92,
                                    "time" : 56,
                                    "value" : 0.933333333333333,
                                    "duration" : 36
                                  },
                                  {
                                    "endTime" : 174,
                                    "time" : 116,
                                    "value" : 0.933333333333333,
                                    "duration" : 58
                                  }
                                ]
                              },
                              "height" : {
                                "type" : "double",
                                "defaultValue" : 10.8510761260468,
                                "keyframes" : [
                                  {
                                    "endTime" : 56,
                                    "time" : 18,
                                    "value" : 24.9687231850678,
                                    "duration" : 38
                                  },
                                  {
                                    "endTime" : 92,
                                    "time" : 56,
                                    "value" : 1281.28323719656,
                                    "duration" : 36
                                  },
                                  {
                                    "endTime" : 174,
                                    "time" : 116,
                                    "value" : 1347.6353898526,
                                    "duration" : 58
                                  }
                                ]
                              },
                              "stroke-color-blue" : 1.0,
                              "stroke-color-green" : 1.0,
                              "stroke-color-opacity" : 1.0,
                              "stroke-color-red" : 1.0,
                              "stroke-width" : 0.0,
                              "width" : {
                                "type" : "double",
                                "defaultValue" : 6.88782755517832,
                                "keyframes" : [
                                  {
                                    "endTime" : 56,
                                    "time" : 18,
                                    "value" : 67.9394975592671,
                                    "duration" : 38
                                  },
                                  {
                                    "endTime" : 92,
                                    "time" : 56,
                                    "value" : 67.9394975592671,
                                    "duration" : 36
                                  },
                                  {
                                    "endTime" : 174,
                                    "time" : 116,
                                    "value" : 68.0763125888445,
                                    "duration" : 58
                                  }
                                ]
                              },
                              "fill-style" : "solid",
                              "horizontal-alignment" : "center",
                              "stroke-style" : "solid",
                              "vertical-alignment" : "center",
                              "textAttributes" : {
                                "type" : "textAttributeList",
                                "keyframes" : [
                                  {
                                    "endTime" : 0,
                                    "time" : 0,
                                    "value" : null,
                                    "duration" : 0
                                  }
                                ]
                              }
                            },
                            "attributes" : {
                              "autoRotateText" : true
                            },
                            "parameters" : {
                              "translation0" : {
                                "type" : "double",
                                "defaultValue" : -1.21547438780567e-10,
                                "keyframes" : [
                                  {
                                    "endTime" : 56,
                                    "time" : 18,
                                    "value" : -1.21547438780567e-10,
                                    "duration" : 38
                                  },
                                  {
                                    "endTime" : 92,
                                    "time" : 56,
                                    "value" : 0.0541990816513973,
                                    "duration" : 36
                                  },
                                  {
                                    "endTime" : 174,
                                    "time" : 116,
                                    "value" : -1.67577274979808e-14,
                                    "duration" : 58
                                  }
                                ]
                              },
                              "translation1" : {
                                "type" : "double",
                                "defaultValue" : -96.3117858166865,
                                "keyframes" : [
                                  {
                                    "endTime" : 56,
                                    "time" : 18,
                                    "value" : -96.3117858166865,
                                    "duration" : 38
                                  },
                                  {
                                    "endTime" : 92,
                                    "time" : 56,
                                    "value" : -96.3117858166865,
                                    "duration" : 36
                                  },
                                  {
                                    "endTime" : 174,
                                    "time" : 116,
                                    "value" : -658.65796581331,
                                    "duration" : 58
                                  }
                                ]
                              },
                              "rotation2" : {
                                "type" : "double",
                                "defaultValue" : 0.0,
                                "keyframes" : [
                                  {
                                    "endTime" : 56,
                                    "time" : 18,
                                    "value" : -1.5707963267949,
                                    "duration" : 38
                                  }
                                ]
                              }
                            },
                            "effects" : [

                            ],
                            "start" : -30,
                            "duration" : 210,
                            "mediaStart" : -12,
                            "mediaDuration" : 210,
                            "scalar" : 1,
                            "metadata" : {
                              "WinSubProjectDisplayName" : "",
                              "clipSpeedAttribute" : false
                            },
                            "animationTracks" : {
                              "visual" : [
                                {
                                  "endTime" : 56,
                                  "duration" : 38,
                                  "range" : [ 18, 38],
                                  "interp" : "eioe"
                                },
                                {
                                  "endTime" : 92,
                                  "duration" : 36,
                                  "range" : [ 56, 36],
                                  "interp" : "eioe"
                                },
                                {
                                  "endTime" : 174,
                                  "duration" : 58,
                                  "range" : [ 116, 58]
                                }
                              ]
                            }
                          }
                        ],
                          "ident" : "",
                          "audioMuted" : false,
                          "videoHidden" : false,
                          "magnetic" : false,
                          "metadata" : {
                            "IsLocked" : "False",
                            "WinTrackHeight" : "0"
                          }
                      },
                      {
                        "trackIndex" : 1,
                        "medias" : [
                          {
                            "id" : 363,
                            "_type" : "Callout",
                            "def" : {
                              "kind" : "remix",
                              "shape" : "shape-rectangle",
                              "style" : "urban",
                              "fill-color-blue" : {
                                "type" : "double",
                                "defaultValue" : 1.0,
                                "keyframes" : [
                                  {
                                    "endTime" : 54,
                                    "time" : 18,
                                    "value" : 0.149019607843137,
                                    "duration" : 36
                                  },
                                  {
                                    "endTime" : 136,
                                    "time" : 78,
                                    "value" : 1.0,
                                    "duration" : 58
                                  }
                                ]
                              },
                              "fill-color-green" : {
                                "type" : "double",
                                "defaultValue" : 1.0,
                                "keyframes" : [
                                  {
                                    "endTime" : 54,
                                    "time" : 18,
                                    "value" : 0.96078431372549,
                                    "duration" : 36
                                  },
                                  {
                                    "endTime" : 136,
                                    "time" : 78,
                                    "value" : 1.0,
                                    "duration" : 58
                                  }
                                ]
                              },
                              "fill-color-opacity" : 1.0,
                              "fill-color-red" : {
                                "type" : "double",
                                "defaultValue" : 1.0,
                                "keyframes" : [
                                  {
                                    "endTime" : 54,
                                    "time" : 18,
                                    "value" : 0.933333333333333,
                                    "duration" : 36
                                  },
                                  {
                                    "endTime" : 136,
                                    "time" : 78,
                                    "value" : 1.0,
                                    "duration" : 58
                                  }
                                ]
                              },
                              "height" : {
                                "type" : "double",
                                "defaultValue" : 10.8510761260468,
                                "keyframes" : [
                                  {
                                    "endTime" : 54,
                                    "time" : 18,
                                    "value" : 10.8510761260468,
                                    "duration" : 36
                                  },
                                  {
                                    "endTime" : 136,
                                    "time" : 78,
                                    "value" : 10.8510761260468,
                                    "duration" : 58
                                  }
                                ]
                              },
                              "stroke-color-blue" : 1.0,
                              "stroke-color-green" : 1.0,
                              "stroke-color-opacity" : 1.0,
                              "stroke-color-red" : 1.0,
                              "stroke-width" : 0.0,
                              "width" : {
                                "type" : "double",
                                "defaultValue" : 6.88782755517832,
                                "keyframes" : [
                                  {
                                    "endTime" : 54,
                                    "time" : 18,
                                    "value" : 1281.28316541273,
                                    "duration" : 36
                                  },
                                  {
                                    "endTime" : 136,
                                    "time" : 78,
                                    "value" : 1302.87700103543,
                                    "duration" : 58
                                  }
                                ]
                              },
                              "fill-style" : "solid",
                              "horizontal-alignment" : "center",
                              "stroke-style" : "solid",
                              "vertical-alignment" : "center",
                              "textAttributes" : {
                                "type" : "textAttributeList",
                                "keyframes" : [
                                  {
                                    "endTime" : 0,
                                    "time" : 0,
                                    "value" : null,
                                    "duration" : 0
                                  }
                                ]
                              }
                            },
                            "attributes" : {
                              "autoRotateText" : true
                            },
                            "parameters" : {
                              "translation0" : {
                                "type" : "double",
                                "defaultValue" : -1.21547438780567e-10,
                                "keyframes" : [
                                  {
                                    "endTime" : 54,
                                    "time" : 18,
                                    "value" : -0.0541988189824127,
                                    "duration" : 36
                                  },
                                  {
                                    "endTime" : 136,
                                    "time" : 78,
                                    "value" : -1.21547438780567e-10,
                                    "duration" : 58
                                  }
                                ]
                              },
                              "translation1" : {
                                "type" : "double",
                                "defaultValue" : 78.8579651656907,
                                "keyframes" : [
                                  {
                                    "endTime" : 54,
                                    "time" : 18,
                                    "value" : 78.8936575656383,
                                    "duration" : 36
                                  },
                                  {
                                    "endTime" : 136,
                                    "time" : 78,
                                    "value" : 694.705445748916,
                                    "duration" : 58
                                  }
                                ]
                              }
                            },
                            "effects" : [

                            ],
                            "start" : 38,
                            "duration" : 142,
                            "mediaStart" : 18,
                            "mediaDuration" : 142,
                            "scalar" : 1,
                            "metadata" : {
                              "WinSubProjectDisplayName" : "",
                              "clipSpeedAttribute" : false
                            },
                            "animationTracks" : {
                              "visual" : [
                                {
                                  "endTime" : 54,
                                  "duration" : 36,
                                  "range" : [ 18, 36],
                                  "interp" : "eioe"
                                },
                                {
                                  "endTime" : 136,
                                  "duration" : 58,
                                  "range" : [ 78, 58],
                                  "interp" : "eioe"
                                }
                              ]
                            }
                          }
                        ],
                          "ident" : "",
                          "audioMuted" : false,
                          "videoHidden" : false,
                          "magnetic" : false,
                          "metadata" : {
                            "IsLocked" : "False",
                            "WinTrackHeight" : "6.39079466327898e-312"
                          }
                      },
                      {
                        "trackIndex" : 2,
                        "medias" : [
                          {
                            "id" : 364,
                            "_type" : "Callout",
                            "def" : {
                              "kind" : "remix",
                              "shape" : "text",
                              "style" : "abstract",
                              "height" : 180.630981445261,
                              "line-spacing" : 0.0,
                              "width" : 1281.17482864961,
                              "word-wrap" : 1.0,
                              "horizontal-alignment" : "center",
                              "resize-behavior" : "resizeText",
                              "text" : "distance",
                              "vertical-alignment" : "center",
                              "font" : {
                                "color-blue" : 1.0,
                                "color-green" : 1.0,
                                "color-red" : 1.0,
                                "size" : 96.0,
                                "tracking" : 0.0,
                                "name" : "Lato",
                                "weight" : "Regular"
                              },
                              "textAttributes" : {
                                "type" : "textAttributeList",
                                "keyframes" : [
                                  {
                                    "endTime" : 0,
                                    "time" : 0,
                                    "value" : [{"name":"strikethrough","rangeEnd":8,"rangeStart":0,"value":0,"valueType":"int"},{"name":"fgColor","rangeEnd":8,"rangeStart":0,"value":"(255,255,255,255)","valueType":"color"},{"name":"kerning","rangeEnd":8,"rangeStart":0,"value":0,"valueType":"double"},{"name":"underline","rangeEnd":8,"rangeStart":0,"value":0,"valueType":"int"},{"name":"fontWeight","rangeEnd":8,"rangeStart":0,"value":400,"valueType":"int"},{"name":"fontName","rangeEnd":8,"rangeStart":0,"value":"Montserrat","valueType":"string"},{"name":"fontItalic","rangeEnd":8,"rangeStart":0,"value":0,"valueType":"int"},{"name":"fontSize","rangeEnd":8,"rangeStart":0,"value":128,"valueType":"double"}],
                                    "duration" : 0
                                  }
                                ]
                              }
                            },
                            "attributes" : {
                              "autoRotateText" : true
                            },
                            "parameters" : {
                              "translation0" : {
                                "type" : "double",
                                "defaultValue" : 0.412585675275182,
                                "keyframes" : [
                                  {
                                    "endTime" : 152,
                                    "time" : 94,
                                    "value" : 11.2636728451827,
                                    "duration" : 58
                                  }
                                ]
                              },
                              "translation1" : {
                                "type" : "double",
                                "defaultValue" : -5.81178581660322,
                                "keyframes" : [
                                  {
                                    "endTime" : 152,
                                    "time" : 94,
                                    "value" : 610.000002366703,
                                    "duration" : 58
                                  }
                                ]
                              }
                            },
                            "effects" : [
                                {
                                  "_type" : "GenericBehaviorEffect",
                                  "effectName" : "popUp",
                                  "start" : 34,
                                  "duration" : 142                                ,
                                  "in" : {
                                    "attributes" : {
                                      "name" : "reveal",
                                      "type" : 1,
                                      "characterOrder" : 6,
                                      "offsetBetweenCharacters" : 3,
                                      "suggestedDurationPerCharacter" : 44,
                                      "overlapProportion" : 0,
                                      "movement" : 16,
                                      "springDamping" : 5.0,
                                      "springStiffness" : 50.0,
                                      "bounceBounciness" : 0.45
                                    },
                                    "parameters" : {
                                      "direction" : {
                                        "type" : "int",
                                        "valueBounds" : {
                                          "minValue" : 0,
                                          "maxValue" : 3,
                                          "defaultValue" : 0
                                        },
                                        "uiHints" : {
                                          "userInterfaceType" : 2,
                                          "unitType" : 0
                                        },
                                        "keyframes" : [
                                          {
                                            "endTime" : 0,
                                            "time" : 0,
                                            "value" : 2,
                                            "duration" : 0
                                          }
                                        ]
                                      }
                                    }
                                  
                                  },
                                  "center" : {
                                    "attributes" : {
                                      "name" : "none",
                                      "type" : 1,
                                      "characterOrder" : 6,
                                      "offsetBetweenCharacters" : 0,
                                      "secondsPerLoop" : 1,
                                      "numberOfLoops" : -1,
                                      "delayBetweenLoops" : 0,
                                      "offsetBetweenCharacters" : 0
                                    }
                                  
                                  },
                                  "out" : {
                                    "attributes" : {
                                      "name" : "none",
                                      "type" : 1,
                                      "characterOrder" : 6,
                                      "offsetBetweenCharacters" : 0,
                                      "suggestedDurationPerCharacter" : 0,
                                      "overlapProportion" : 0,
                                      "movement" : -1,
                                      "springDamping" : 5.0,
                                      "springStiffness" : 50.0,
                                      "bounceBounciness" : 0.45
                                    }
                                  
                                  }
                                }
                            ],
                            "start" : 38,
                            "duration" : 142,
                            "mediaStart" : 34,
                            "mediaDuration" : 142,
                            "scalar" : 1,
                            "metadata" : {
                              "WinSubProjectDisplayName" : "",
                              "clipSpeedAttribute" : false,
                              "default-HAlign" : "center",
                              "default-LineSpace" : 0.0,
                              "default-VAlign" : "center",
                              "default-text-attributes" : "[{\"name\":\"fontName\",\"rangeEnd\":15,\"rangeStart\":0,\"value\":\"Montserrat\",\"valueType\":\"string\"},{\"name\":\"fgColor\",\"rangeEnd\":15,\"rangeStart\":0,\"value\":\"(255,255,255,255)\",\"valueType\":\"color\"},{\"name\":\"underline\",\"rangeEnd\":15,\"rangeStart\":0,\"value\":0,\"valueType\":\"int\"},{\"name\":\"strikethrough\",\"rangeEnd\":15,\"rangeStart\":0,\"value\":0,\"valueType\":\"int\"},{\"name\":\"fontSize\",\"rangeEnd\":15,\"rangeStart\":0,\"value\":128,\"valueType\":\"double\"},{\"name\":\"fontItalic\",\"rangeEnd\":15,\"rangeStart\":0,\"value\":0,\"valueType\":\"int\"},{\"name\":\"fontWeight\",\"rangeEnd\":15,\"rangeStart\":0,\"value\":100,\"valueType\":\"int\"}]"
                            },
                            "animationTracks" : {
                              "visual" : [
                                {
                                  "endTime" : 152,
                                  "duration" : 58,
                                  "range" : [ 94, 58],
                                  "interp" : "eioe"
                                }
                              ]
                            }
                          }
                        ],
                          "ident" : "",
                          "audioMuted" : false,
                          "videoHidden" : false,
                          "magnetic" : false,
                          "metadata" : {
                            "IsLocked" : "False",
                            "WinTrackHeight" : "6.39079466327898e-312"
                          }
                      },
                      {
                        "trackIndex" : 3,
                        "medias" : [
                          {
                            "id" : 365,
                            "_type" : "Callout",
                            "def" : {
                              "kind" : "remix",
                              "shape" : "text",
                              "style" : "abstract",
                              "height" : 83.6840731068824,
                              "line-spacing" : 0.0,
                              "width" : 1281.28322521409,
                              "word-wrap" : 1.0,
                              "horizontal-alignment" : "center",
                              "resize-behavior" : "resizeText",
                              "text" : "looks",
                              "vertical-alignment" : "center",
                              "font" : {
                                "color-blue" : 1.0,
                                "color-green" : 1.0,
                                "color-red" : 1.0,
                                "size" : 96.0,
                                "tracking" : 0.0,
                                "name" : "Lato",
                                "weight" : "Regular"
                              },
                              "textAttributes" : {
                                "type" : "textAttributeList",
                                "keyframes" : [
                                  {
                                    "endTime" : 0,
                                    "time" : 0,
                                    "value" : [{"name":"fontWeight","rangeEnd":5,"rangeStart":0,"value":400,"valueType":"int"},{"name":"fontItalic","rangeEnd":5,"rangeStart":0,"value":0,"valueType":"int"},{"name":"fontName","rangeEnd":5,"rangeStart":0,"value":"Montserrat","valueType":"string"},{"name":"fontSize","rangeEnd":5,"rangeStart":0,"value":60,"valueType":"double"},{"name":"kerning","rangeEnd":5,"rangeStart":0,"value":0,"valueType":"double"},{"name":"fgColor","rangeEnd":5,"rangeStart":0,"value":"(0,0,0,255)","valueType":"color"},{"name":"underline","rangeEnd":5,"rangeStart":0,"value":0,"valueType":"int"},{"name":"strikethrough","rangeEnd":5,"rangeStart":0,"value":0,"valueType":"int"}],
                                    "duration" : 0
                                  }
                                ]
                              }
                            },
                            "attributes" : {
                              "autoRotateText" : true
                            },
                            "parameters" : {
                              "translation0" : {
                                "type" : "double",
                                "defaultValue" : 0.304200155246711,
                                "keyframes" : [
                                  {
                                    "endTime" : 110,
                                    "time" : 52,
                                    "value" : -1.86383482943485,
                                    "duration" : 58
                                  }
                                ]
                              },
                              "translation1" : {
                                "type" : "double",
                                "defaultValue" : -96.1538223700724,
                                "keyframes" : [
                                  {
                                    "endTime" : 110,
                                    "time" : 52,
                                    "value" : -658.500002366703,
                                    "duration" : 58
                                  }
                                ]
                              }
                            },
                            "effects" : [
                                {
                                  "_type" : "GenericBehaviorEffect",
                                  "effectName" : "popUp",
                                  "start" : 0,
                                  "duration" : 138                                ,
                                  "in" : {
                                    "attributes" : {
                                      "name" : "reveal",
                                      "type" : 1,
                                      "characterOrder" : 7,
                                      "offsetBetweenCharacters" : 3,
                                      "suggestedDurationPerCharacter" : 44,
                                      "overlapProportion" : 0,
                                      "movement" : 16,
                                      "springDamping" : 5.0,
                                      "springStiffness" : 50.0,
                                      "bounceBounciness" : 0.45
                                    },
                                    "parameters" : {
                                      "direction" : {
                                        "type" : "int",
                                        "valueBounds" : {
                                          "minValue" : 0,
                                          "maxValue" : 3,
                                          "defaultValue" : 0
                                        },
                                        "uiHints" : {
                                          "userInterfaceType" : 2,
                                          "unitType" : 0
                                        },
                                        "keyframes" : [
                                          {
                                            "endTime" : 0,
                                            "time" : 0,
                                            "value" : 0,
                                            "duration" : 0
                                          }
                                        ]
                                      }
                                    }
                                  
                                  },
                                  "center" : {
                                    "attributes" : {
                                      "name" : "none",
                                      "type" : 1,
                                      "characterOrder" : 6,
                                      "offsetBetweenCharacters" : 0,
                                      "secondsPerLoop" : 1,
                                      "numberOfLoops" : -1,
                                      "delayBetweenLoops" : 0,
                                      "offsetBetweenCharacters" : 0
                                    }
                                  
                                  },
                                  "out" : {
                                    "attributes" : {
                                      "name" : "none",
                                      "type" : 1,
                                      "characterOrder" : 6,
                                      "offsetBetweenCharacters" : 0,
                                      "suggestedDurationPerCharacter" : 0,
                                      "overlapProportion" : 0,
                                      "movement" : -1,
                                      "springDamping" : 5.0,
                                      "springStiffness" : 50.0,
                                      "bounceBounciness" : 0.45
                                    }
                                  
                                  }
                                }
                            ],
                            "start" : 42,
                            "duration" : 138,
                            "mediaStart" : 0,
                            "mediaDuration" : 138,
                            "scalar" : 1,
                            "metadata" : {
                              "WinSubProjectDisplayName" : "",
                              "clipSpeedAttribute" : false,
                              "default-HAlign" : "center",
                              "default-LineSpace" : 0.0,
                              "default-VAlign" : "center",
                              "default-text-attributes" : "[{\"name\":\"fontName\",\"rangeEnd\":17,\"rangeStart\":0,\"value\":\"Montserrat\",\"valueType\":\"string\"},{\"name\":\"strikethrough\",\"rangeEnd\":17,\"rangeStart\":0,\"value\":0,\"valueType\":\"int\"},{\"name\":\"fontWeight\",\"rangeEnd\":17,\"rangeStart\":0,\"value\":100,\"valueType\":\"int\"},{\"name\":\"fontSize\",\"rangeEnd\":17,\"rangeStart\":0,\"value\":60,\"valueType\":\"double\"},{\"name\":\"fontItalic\",\"rangeEnd\":17,\"rangeStart\":0,\"value\":0,\"valueType\":\"int\"},{\"name\":\"fgColor\",\"rangeEnd\":17,\"rangeStart\":0,\"value\":\"(0,0,0,255)\",\"valueType\":\"color\"},{\"name\":\"underline\",\"rangeEnd\":17,\"rangeStart\":0,\"value\":0,\"valueType\":\"int\"}]",
                              "default-translation0" : 0.358387392787593
                            },
                            "animationTracks" : {
                              "visual" : [
                                {
                                  "endTime" : 110,
                                  "duration" : 58,
                                  "range" : [ 52, 58],
                                  "interp" : "eioe"
                                }
                              ]
                            }
                          }
                        ],
                          "ident" : "",
                          "audioMuted" : false,
                          "videoHidden" : false,
                          "magnetic" : false,
                          "metadata" : {
                            "IsLocked" : "False",
                            "WinTrackHeight" : "6.39079466327898e-312"
                          }
                      }
                    ],
                    "attributes" : {
                      "ident" : "Simple Bright Title 3",
                      "gain" : 1.0,
                      "mixToMono" : false,
                      "assetProperties" : [
                        {
                          "type" : 0,
                          "name" : "Title",
                          "objects" : [ 364 ],
                          "themeMappings" :  {
                            "font-color" : "foreground-1",
                            "font-family" : "font-1"
                          }
                        },
                        {
                          "type" : 0,
                          "name" : "Subtitle",
                          "objects" : [ 365 ],
                          "themeMappings" :  {
                            "font-color" : "background-1",
                            "font-family" : "font-1"
                          }
                        },
                        {
                          "type" : 1,
                          "name" : "Color 1",
                          "objects" : [ 362, 363 ],
                          "themeMappings" :  {
                            "fill" : "accent-1"
                          }
                        }
                      ]
                    },
                    "effects" : [

                    ],
                    "start" : 30808,
                    "duration" : 210,
                    "mediaStart" : -30.0,
                    "mediaDuration" : 210.0,
                    "scalar" : 1,
                    "metadata" : {
                      "AppliedThemeId" : "",
                      "IsGroupExpanded" : "False",
                      "WinSubProjectDisplayName" : "Simple Bright Title 3",
                      "clipSpeedAttribute" : false,
                      "effectApplied" : "none",
                      "isOpen" : false
                    },
                    "animationTracks" : {

                    }
                  },
                  {
                    "id" : 366,
                    "_type" : "UnifiedMedia",
                    "video" : 
                        {
                          "id" : 367,
                          "_type" : "ScreenVMFile",
                          "src" : 34,
                          "trackNumber" : 0,
                          "attributes" : {
                            "ident" : "scratch-7.2-sensing-distance"
                          },
                          "parameters" : {
                            "cursorScale" : {
                              "type" : "double",
                              "defaultValue" : 1.0,
                              "interp" : "linr"
                            },
                            "cursorOpacity" : {
                              "type" : "double",
                              "defaultValue" : 1.0,
                              "interp" : "linr"
                            }
                          },
                          "effects" : [

                          ],
                          "start" : 31018,
                          "duration" : 1262,
                          "mediaStart" : 0,
                          "mediaDuration" : 1262,
                          "scalar" : 1,
                          "animationTracks" : {

                          }
                        },
                    "audio" : 
                        {
                          "id" : 368,
                          "_type" : "AMFile",
                          "src" : 34,
                          "trackNumber" : 1,
                          "attributes" : {
                            "ident" : "",
                            "gain" : 1.0,
                            "mixToMono" : false
                          },
                            "channelNumber" : "0,1",
                          "effects" : [

                          ],
                          "start" : 31018,
                          "duration" : 1262,
                          "mediaStart" : 0,
                          "mediaDuration" : 1262,
                          "scalar" : 1,
                          "animationTracks" : {

                          }
                        }
,
                    "start" : 31018,
                    "duration" : 1262,
                    "mediaStart" : 0,
                    "mediaDuration" : 1262,
                    "scalar" : 1,
                    "metadata" : {
                      "AutoAppliedSmartFocus" : "False",
                      "clipSpeedAttribute" : false
                    }
                  },
                  {
                    "id" : 369,
                    "_type" : "Group",
                    "parameters" : {
                      "translation0" : 1.21531229524408e-10,
                      "translation1" : 62.3420348343093,
                      "volume" : 1.0
                    },
                    "tracks" : [
                      {
                        "trackIndex" : 0,
                        "medias" : [
                          {
                            "id" : 370,
                            "_type" : "Callout",
                            "def" : {
                              "kind" : "remix",
                              "shape" : "shape-rectangle",
                              "style" : "urban",
                              "fill-color-blue" : {
                                "type" : "double",
                                "defaultValue" : 1.0,
                                "keyframes" : [
                                  {
                                    "endTime" : 56,
                                    "time" : 18,
                                    "value" : 1.0,
                                    "duration" : 38
                                  },
                                  {
                                    "endTime" : 92,
                                    "time" : 56,
                                    "value" : 0.149019607843137,
                                    "duration" : 36
                                  },
                                  {
                                    "endTime" : 174,
                                    "time" : 116,
                                    "value" : 0.149019607843137,
                                    "duration" : 58
                                  }
                                ]
                              },
                              "fill-color-green" : {
                                "type" : "double",
                                "defaultValue" : 1.0,
                                "keyframes" : [
                                  {
                                    "endTime" : 56,
                                    "time" : 18,
                                    "value" : 1.0,
                                    "duration" : 38
                                  },
                                  {
                                    "endTime" : 92,
                                    "time" : 56,
                                    "value" : 0.96078431372549,
                                    "duration" : 36
                                  },
                                  {
                                    "endTime" : 174,
                                    "time" : 116,
                                    "value" : 0.96078431372549,
                                    "duration" : 58
                                  }
                                ]
                              },
                              "fill-color-opacity" : 1.0,
                              "fill-color-red" : {
                                "type" : "double",
                                "defaultValue" : 1.0,
                                "keyframes" : [
                                  {
                                    "endTime" : 56,
                                    "time" : 18,
                                    "value" : 1.0,
                                    "duration" : 38
                                  },
                                  {
                                    "endTime" : 92,
                                    "time" : 56,
                                    "value" : 0.933333333333333,
                                    "duration" : 36
                                  },
                                  {
                                    "endTime" : 174,
                                    "time" : 116,
                                    "value" : 0.933333333333333,
                                    "duration" : 58
                                  }
                                ]
                              },
                              "height" : {
                                "type" : "double",
                                "defaultValue" : 10.8510761260468,
                                "keyframes" : [
                                  {
                                    "endTime" : 56,
                                    "time" : 18,
                                    "value" : 24.9687231850678,
                                    "duration" : 38
                                  },
                                  {
                                    "endTime" : 92,
                                    "time" : 56,
                                    "value" : 1281.28323719656,
                                    "duration" : 36
                                  },
                                  {
                                    "endTime" : 174,
                                    "time" : 116,
                                    "value" : 1347.6353898526,
                                    "duration" : 58
                                  }
                                ]
                              },
                              "stroke-color-blue" : 1.0,
                              "stroke-color-green" : 1.0,
                              "stroke-color-opacity" : 1.0,
                              "stroke-color-red" : 1.0,
                              "stroke-width" : 0.0,
                              "width" : {
                                "type" : "double",
                                "defaultValue" : 6.88782755517832,
                                "keyframes" : [
                                  {
                                    "endTime" : 56,
                                    "time" : 18,
                                    "value" : 67.9394975592671,
                                    "duration" : 38
                                  },
                                  {
                                    "endTime" : 92,
                                    "time" : 56,
                                    "value" : 67.9394975592671,
                                    "duration" : 36
                                  },
                                  {
                                    "endTime" : 174,
                                    "time" : 116,
                                    "value" : 68.0763125888445,
                                    "duration" : 58
                                  }
                                ]
                              },
                              "fill-style" : "solid",
                              "horizontal-alignment" : "center",
                              "stroke-style" : "solid",
                              "vertical-alignment" : "center",
                              "textAttributes" : {
                                "type" : "textAttributeList",
                                "keyframes" : [
                                  {
                                    "endTime" : 0,
                                    "time" : 0,
                                    "value" : null,
                                    "duration" : 0
                                  }
                                ]
                              }
                            },
                            "attributes" : {
                              "autoRotateText" : true
                            },
                            "parameters" : {
                              "translation0" : {
                                "type" : "double",
                                "defaultValue" : -1.21547438780567e-10,
                                "keyframes" : [
                                  {
                                    "endTime" : 56,
                                    "time" : 18,
                                    "value" : -1.21547438780567e-10,
                                    "duration" : 38
                                  },
                                  {
                                    "endTime" : 92,
                                    "time" : 56,
                                    "value" : 0.0541990816513973,
                                    "duration" : 36
                                  },
                                  {
                                    "endTime" : 174,
                                    "time" : 116,
                                    "value" : -1.67577274979808e-14,
                                    "duration" : 58
                                  }
                                ]
                              },
                              "translation1" : {
                                "type" : "double",
                                "defaultValue" : -96.3117858166865,
                                "keyframes" : [
                                  {
                                    "endTime" : 56,
                                    "time" : 18,
                                    "value" : -96.3117858166865,
                                    "duration" : 38
                                  },
                                  {
                                    "endTime" : 92,
                                    "time" : 56,
                                    "value" : -96.3117858166865,
                                    "duration" : 36
                                  },
                                  {
                                    "endTime" : 174,
                                    "time" : 116,
                                    "value" : -658.65796581331,
                                    "duration" : 58
                                  }
                                ]
                              },
                              "rotation2" : {
                                "type" : "double",
                                "defaultValue" : 0.0,
                                "keyframes" : [
                                  {
                                    "endTime" : 56,
                                    "time" : 18,
                                    "value" : -1.5707963267949,
                                    "duration" : 38
                                  }
                                ]
                              }
                            },
                            "effects" : [

                            ],
                            "start" : -30,
                            "duration" : 210,
                            "mediaStart" : -12,
                            "mediaDuration" : 210,
                            "scalar" : 1,
                            "metadata" : {
                              "WinSubProjectDisplayName" : "",
                              "clipSpeedAttribute" : false
                            },
                            "animationTracks" : {
                              "visual" : [
                                {
                                  "endTime" : 56,
                                  "duration" : 38,
                                  "range" : [ 18, 38],
                                  "interp" : "eioe"
                                },
                                {
                                  "endTime" : 92,
                                  "duration" : 36,
                                  "range" : [ 56, 36],
                                  "interp" : "eioe"
                                },
                                {
                                  "endTime" : 174,
                                  "duration" : 58,
                                  "range" : [ 116, 58]
                                }
                              ]
                            }
                          }
                        ],
                          "ident" : "",
                          "audioMuted" : false,
                          "videoHidden" : false,
                          "magnetic" : false,
                          "metadata" : {
                            "IsLocked" : "False",
                            "WinTrackHeight" : "0"
                          }
                      },
                      {
                        "trackIndex" : 1,
                        "medias" : [
                          {
                            "id" : 371,
                            "_type" : "Callout",
                            "def" : {
                              "kind" : "remix",
                              "shape" : "shape-rectangle",
                              "style" : "urban",
                              "fill-color-blue" : {
                                "type" : "double",
                                "defaultValue" : 1.0,
                                "keyframes" : [
                                  {
                                    "endTime" : 54,
                                    "time" : 18,
                                    "value" : 0.149019607843137,
                                    "duration" : 36
                                  },
                                  {
                                    "endTime" : 136,
                                    "time" : 78,
                                    "value" : 1.0,
                                    "duration" : 58
                                  }
                                ]
                              },
                              "fill-color-green" : {
                                "type" : "double",
                                "defaultValue" : 1.0,
                                "keyframes" : [
                                  {
                                    "endTime" : 54,
                                    "time" : 18,
                                    "value" : 0.96078431372549,
                                    "duration" : 36
                                  },
                                  {
                                    "endTime" : 136,
                                    "time" : 78,
                                    "value" : 1.0,
                                    "duration" : 58
                                  }
                                ]
                              },
                              "fill-color-opacity" : 1.0,
                              "fill-color-red" : {
                                "type" : "double",
                                "defaultValue" : 1.0,
                                "keyframes" : [
                                  {
                                    "endTime" : 54,
                                    "time" : 18,
                                    "value" : 0.933333333333333,
                                    "duration" : 36
                                  },
                                  {
                                    "endTime" : 136,
                                    "time" : 78,
                                    "value" : 1.0,
                                    "duration" : 58
                                  }
                                ]
                              },
                              "height" : {
                                "type" : "double",
                                "defaultValue" : 10.8510761260468,
                                "keyframes" : [
                                  {
                                    "endTime" : 54,
                                    "time" : 18,
                                    "value" : 10.8510761260468,
                                    "duration" : 36
                                  },
                                  {
                                    "endTime" : 136,
                                    "time" : 78,
                                    "value" : 10.8510761260468,
                                    "duration" : 58
                                  }
                                ]
                              },
                              "stroke-color-blue" : 1.0,
                              "stroke-color-green" : 1.0,
                              "stroke-color-opacity" : 1.0,
                              "stroke-color-red" : 1.0,
                              "stroke-width" : 0.0,
                              "width" : {
                                "type" : "double",
                                "defaultValue" : 6.88782755517832,
                                "keyframes" : [
                                  {
                                    "endTime" : 54,
                                    "time" : 18,
                                    "value" : 1281.28316541273,
                                    "duration" : 36
                                  },
                                  {
                                    "endTime" : 136,
                                    "time" : 78,
                                    "value" : 1302.87700103543,
                                    "duration" : 58
                                  }
                                ]
                              },
                              "fill-style" : "solid",
                              "horizontal-alignment" : "center",
                              "stroke-style" : "solid",
                              "vertical-alignment" : "center",
                              "textAttributes" : {
                                "type" : "textAttributeList",
                                "keyframes" : [
                                  {
                                    "endTime" : 0,
                                    "time" : 0,
                                    "value" : null,
                                    "duration" : 0
                                  }
                                ]
                              }
                            },
                            "attributes" : {
                              "autoRotateText" : true
                            },
                            "parameters" : {
                              "translation0" : {
                                "type" : "double",
                                "defaultValue" : -1.21547438780567e-10,
                                "keyframes" : [
                                  {
                                    "endTime" : 54,
                                    "time" : 18,
                                    "value" : -0.0541988189824127,
                                    "duration" : 36
                                  },
                                  {
                                    "endTime" : 136,
                                    "time" : 78,
                                    "value" : -1.21547438780567e-10,
                                    "duration" : 58
                                  }
                                ]
                              },
                              "translation1" : {
                                "type" : "double",
                                "defaultValue" : 78.8579651656907,
                                "keyframes" : [
                                  {
                                    "endTime" : 54,
                                    "time" : 18,
                                    "value" : 78.8936575656383,
                                    "duration" : 36
                                  },
                                  {
                                    "endTime" : 136,
                                    "time" : 78,
                                    "value" : 694.705445748916,
                                    "duration" : 58
                                  }
                                ]
                              }
                            },
                            "effects" : [

                            ],
                            "start" : 38,
                            "duration" : 142,
                            "mediaStart" : 18,
                            "mediaDuration" : 142,
                            "scalar" : 1,
                            "metadata" : {
                              "WinSubProjectDisplayName" : "",
                              "clipSpeedAttribute" : false
                            },
                            "animationTracks" : {
                              "visual" : [
                                {
                                  "endTime" : 54,
                                  "duration" : 36,
                                  "range" : [ 18, 36],
                                  "interp" : "eioe"
                                },
                                {
                                  "endTime" : 136,
                                  "duration" : 58,
                                  "range" : [ 78, 58],
                                  "interp" : "eioe"
                                }
                              ]
                            }
                          }
                        ],
                          "ident" : "",
                          "audioMuted" : false,
                          "videoHidden" : false,
                          "magnetic" : false,
                          "metadata" : {
                            "IsLocked" : "False",
                            "WinTrackHeight" : "6.39079466327898e-312"
                          }
                      },
                      {
                        "trackIndex" : 2,
                        "medias" : [
                          {
                            "id" : 372,
                            "_type" : "Callout",
                            "def" : {
                              "kind" : "remix",
                              "shape" : "text",
                              "style" : "abstract",
                              "height" : 180.630981445261,
                              "line-spacing" : 0.0,
                              "width" : 1281.17482864961,
                              "word-wrap" : 1.0,
                              "horizontal-alignment" : "center",
                              "resize-behavior" : "resizeText",
                              "text" : "asking",
                              "vertical-alignment" : "center",
                              "font" : {
                                "color-blue" : 1.0,
                                "color-green" : 1.0,
                                "color-red" : 1.0,
                                "size" : 96.0,
                                "tracking" : 0.0,
                                "name" : "Lato",
                                "weight" : "Regular"
                              },
                              "textAttributes" : {
                                "type" : "textAttributeList",
                                "keyframes" : [
                                  {
                                    "endTime" : 0,
                                    "time" : 0,
                                    "value" : [{"name":"kerning","rangeEnd":6,"rangeStart":0,"value":0,"valueType":"double"},{"name":"fontSize","rangeEnd":6,"rangeStart":0,"value":128,"valueType":"double"},{"name":"fontItalic","rangeEnd":6,"rangeStart":0,"value":0,"valueType":"int"},{"name":"fontWeight","rangeEnd":6,"rangeStart":0,"value":400,"valueType":"int"},{"name":"strikethrough","rangeEnd":6,"rangeStart":0,"value":0,"valueType":"int"},{"name":"fontName","rangeEnd":6,"rangeStart":0,"value":"Montserrat","valueType":"string"},{"name":"fgColor","rangeEnd":6,"rangeStart":0,"value":"(255,255,255,255)","valueType":"color"},{"name":"underline","rangeEnd":6,"rangeStart":0,"value":0,"valueType":"int"}],
                                    "duration" : 0
                                  }
                                ]
                              }
                            },
                            "attributes" : {
                              "autoRotateText" : true
                            },
                            "parameters" : {
                              "translation0" : {
                                "type" : "double",
                                "defaultValue" : 0.412585675275182,
                                "keyframes" : [
                                  {
                                    "endTime" : 152,
                                    "time" : 94,
                                    "value" : 11.2636728451827,
                                    "duration" : 58
                                  }
                                ]
                              },
                              "translation1" : {
                                "type" : "double",
                                "defaultValue" : -5.81178581660322,
                                "keyframes" : [
                                  {
                                    "endTime" : 152,
                                    "time" : 94,
                                    "value" : 610.000002366703,
                                    "duration" : 58
                                  }
                                ]
                              }
                            },
                            "effects" : [
                                {
                                  "_type" : "GenericBehaviorEffect",
                                  "effectName" : "popUp",
                                  "start" : 34,
                                  "duration" : 142                                ,
                                  "in" : {
                                    "attributes" : {
                                      "name" : "reveal",
                                      "type" : 1,
                                      "characterOrder" : 6,
                                      "offsetBetweenCharacters" : 3,
                                      "suggestedDurationPerCharacter" : 44,
                                      "overlapProportion" : 0,
                                      "movement" : 16,
                                      "springDamping" : 5.0,
                                      "springStiffness" : 50.0,
                                      "bounceBounciness" : 0.45
                                    },
                                    "parameters" : {
                                      "direction" : {
                                        "type" : "int",
                                        "valueBounds" : {
                                          "minValue" : 0,
                                          "maxValue" : 3,
                                          "defaultValue" : 0
                                        },
                                        "uiHints" : {
                                          "userInterfaceType" : 2,
                                          "unitType" : 0
                                        },
                                        "keyframes" : [
                                          {
                                            "endTime" : 0,
                                            "time" : 0,
                                            "value" : 2,
                                            "duration" : 0
                                          }
                                        ]
                                      }
                                    }
                                  
                                  },
                                  "center" : {
                                    "attributes" : {
                                      "name" : "none",
                                      "type" : 1,
                                      "characterOrder" : 6,
                                      "offsetBetweenCharacters" : 0,
                                      "secondsPerLoop" : 1,
                                      "numberOfLoops" : -1,
                                      "delayBetweenLoops" : 0,
                                      "offsetBetweenCharacters" : 0
                                    }
                                  
                                  },
                                  "out" : {
                                    "attributes" : {
                                      "name" : "none",
                                      "type" : 1,
                                      "characterOrder" : 6,
                                      "offsetBetweenCharacters" : 0,
                                      "suggestedDurationPerCharacter" : 0,
                                      "overlapProportion" : 0,
                                      "movement" : -1,
                                      "springDamping" : 5.0,
                                      "springStiffness" : 50.0,
                                      "bounceBounciness" : 0.45
                                    }
                                  
                                  }
                                }
                            ],
                            "start" : 38,
                            "duration" : 142,
                            "mediaStart" : 34,
                            "mediaDuration" : 142,
                            "scalar" : 1,
                            "metadata" : {
                              "WinSubProjectDisplayName" : "",
                              "clipSpeedAttribute" : false,
                              "default-HAlign" : "center",
                              "default-LineSpace" : 0.0,
                              "default-VAlign" : "center",
                              "default-text-attributes" : "[{\"name\":\"fontName\",\"rangeEnd\":15,\"rangeStart\":0,\"value\":\"Montserrat\",\"valueType\":\"string\"},{\"name\":\"fgColor\",\"rangeEnd\":15,\"rangeStart\":0,\"value\":\"(255,255,255,255)\",\"valueType\":\"color\"},{\"name\":\"underline\",\"rangeEnd\":15,\"rangeStart\":0,\"value\":0,\"valueType\":\"int\"},{\"name\":\"strikethrough\",\"rangeEnd\":15,\"rangeStart\":0,\"value\":0,\"valueType\":\"int\"},{\"name\":\"fontSize\",\"rangeEnd\":15,\"rangeStart\":0,\"value\":128,\"valueType\":\"double\"},{\"name\":\"fontItalic\",\"rangeEnd\":15,\"rangeStart\":0,\"value\":0,\"valueType\":\"int\"},{\"name\":\"fontWeight\",\"rangeEnd\":15,\"rangeStart\":0,\"value\":100,\"valueType\":\"int\"}]"
                            },
                            "animationTracks" : {
                              "visual" : [
                                {
                                  "endTime" : 152,
                                  "duration" : 58,
                                  "range" : [ 94, 58],
                                  "interp" : "eioe"
                                }
                              ]
                            }
                          }
                        ],
                          "ident" : "",
                          "audioMuted" : false,
                          "videoHidden" : false,
                          "magnetic" : false,
                          "metadata" : {
                            "IsLocked" : "False",
                            "WinTrackHeight" : "6.39079466327898e-312"
                          }
                      },
                      {
                        "trackIndex" : 3,
                        "medias" : [
                          {
                            "id" : 373,
                            "_type" : "Callout",
                            "def" : {
                              "kind" : "remix",
                              "shape" : "text",
                              "style" : "abstract",
                              "height" : 83.6840731068824,
                              "line-spacing" : 0.0,
                              "width" : 1281.28322521409,
                              "word-wrap" : 1.0,
                              "horizontal-alignment" : "center",
                              "resize-behavior" : "resizeText",
                              "text" : "looks",
                              "vertical-alignment" : "center",
                              "font" : {
                                "color-blue" : 1.0,
                                "color-green" : 1.0,
                                "color-red" : 1.0,
                                "size" : 96.0,
                                "tracking" : 0.0,
                                "name" : "Lato",
                                "weight" : "Regular"
                              },
                              "textAttributes" : {
                                "type" : "textAttributeList",
                                "keyframes" : [
                                  {
                                    "endTime" : 0,
                                    "time" : 0,
                                    "value" : [{"name":"fontWeight","rangeEnd":5,"rangeStart":0,"value":400,"valueType":"int"},{"name":"fontItalic","rangeEnd":5,"rangeStart":0,"value":0,"valueType":"int"},{"name":"fontName","rangeEnd":5,"rangeStart":0,"value":"Montserrat","valueType":"string"},{"name":"fontSize","rangeEnd":5,"rangeStart":0,"value":60,"valueType":"double"},{"name":"kerning","rangeEnd":5,"rangeStart":0,"value":0,"valueType":"double"},{"name":"fgColor","rangeEnd":5,"rangeStart":0,"value":"(0,0,0,255)","valueType":"color"},{"name":"underline","rangeEnd":5,"rangeStart":0,"value":0,"valueType":"int"},{"name":"strikethrough","rangeEnd":5,"rangeStart":0,"value":0,"valueType":"int"}],
                                    "duration" : 0
                                  }
                                ]
                              }
                            },
                            "attributes" : {
                              "autoRotateText" : true
                            },
                            "parameters" : {
                              "translation0" : {
                                "type" : "double",
                                "defaultValue" : 0.304200155246711,
                                "keyframes" : [
                                  {
                                    "endTime" : 110,
                                    "time" : 52,
                                    "value" : -1.86383482943485,
                                    "duration" : 58
                                  }
                                ]
                              },
                              "translation1" : {
                                "type" : "double",
                                "defaultValue" : -96.1538223700724,
                                "keyframes" : [
                                  {
                                    "endTime" : 110,
                                    "time" : 52,
                                    "value" : -658.500002366703,
                                    "duration" : 58
                                  }
                                ]
                              }
                            },
                            "effects" : [
                                {
                                  "_type" : "GenericBehaviorEffect",
                                  "effectName" : "popUp",
                                  "start" : 0,
                                  "duration" : 138                                ,
                                  "in" : {
                                    "attributes" : {
                                      "name" : "reveal",
                                      "type" : 1,
                                      "characterOrder" : 7,
                                      "offsetBetweenCharacters" : 3,
                                      "suggestedDurationPerCharacter" : 44,
                                      "overlapProportion" : 0,
                                      "movement" : 16,
                                      "springDamping" : 5.0,
                                      "springStiffness" : 50.0,
                                      "bounceBounciness" : 0.45
                                    },
                                    "parameters" : {
                                      "direction" : {
                                        "type" : "int",
                                        "valueBounds" : {
                                          "minValue" : 0,
                                          "maxValue" : 3,
                                          "defaultValue" : 0
                                        },
                                        "uiHints" : {
                                          "userInterfaceType" : 2,
                                          "unitType" : 0
                                        },
                                        "keyframes" : [
                                          {
                                            "endTime" : 0,
                                            "time" : 0,
                                            "value" : 0,
                                            "duration" : 0
                                          }
                                        ]
                                      }
                                    }
                                  
                                  },
                                  "center" : {
                                    "attributes" : {
                                      "name" : "none",
                                      "type" : 1,
                                      "characterOrder" : 6,
                                      "offsetBetweenCharacters" : 0,
                                      "secondsPerLoop" : 1,
                                      "numberOfLoops" : -1,
                                      "delayBetweenLoops" : 0,
                                      "offsetBetweenCharacters" : 0
                                    }
                                  
                                  },
                                  "out" : {
                                    "attributes" : {
                                      "name" : "none",
                                      "type" : 1,
                                      "characterOrder" : 6,
                                      "offsetBetweenCharacters" : 0,
                                      "suggestedDurationPerCharacter" : 0,
                                      "overlapProportion" : 0,
                                      "movement" : -1,
                                      "springDamping" : 5.0,
                                      "springStiffness" : 50.0,
                                      "bounceBounciness" : 0.45
                                    }
                                  
                                  }
                                }
                            ],
                            "start" : 42,
                            "duration" : 138,
                            "mediaStart" : 0,
                            "mediaDuration" : 138,
                            "scalar" : 1,
                            "metadata" : {
                              "WinSubProjectDisplayName" : "",
                              "clipSpeedAttribute" : false,
                              "default-HAlign" : "center",
                              "default-LineSpace" : 0.0,
                              "default-VAlign" : "center",
                              "default-text-attributes" : "[{\"name\":\"fontName\",\"rangeEnd\":17,\"rangeStart\":0,\"value\":\"Montserrat\",\"valueType\":\"string\"},{\"name\":\"strikethrough\",\"rangeEnd\":17,\"rangeStart\":0,\"value\":0,\"valueType\":\"int\"},{\"name\":\"fontWeight\",\"rangeEnd\":17,\"rangeStart\":0,\"value\":100,\"valueType\":\"int\"},{\"name\":\"fontSize\",\"rangeEnd\":17,\"rangeStart\":0,\"value\":60,\"valueType\":\"double\"},{\"name\":\"fontItalic\",\"rangeEnd\":17,\"rangeStart\":0,\"value\":0,\"valueType\":\"int\"},{\"name\":\"fgColor\",\"rangeEnd\":17,\"rangeStart\":0,\"value\":\"(0,0,0,255)\",\"valueType\":\"color\"},{\"name\":\"underline\",\"rangeEnd\":17,\"rangeStart\":0,\"value\":0,\"valueType\":\"int\"}]",
                              "default-translation0" : 0.358387392787593
                            },
                            "animationTracks" : {
                              "visual" : [
                                {
                                  "endTime" : 110,
                                  "duration" : 58,
                                  "range" : [ 52, 58],
                                  "interp" : "eioe"
                                }
                              ]
                            }
                          }
                        ],
                          "ident" : "",
                          "audioMuted" : false,
                          "videoHidden" : false,
                          "magnetic" : false,
                          "metadata" : {
                            "IsLocked" : "False",
                            "WinTrackHeight" : "6.39079466327898e-312"
                          }
                      }
                    ],
                    "attributes" : {
                      "ident" : "Simple Bright Title 3",
                      "gain" : 1.0,
                      "mixToMono" : false,
                      "assetProperties" : [
                        {
                          "type" : 0,
                          "name" : "Title",
                          "objects" : [ 372 ],
                          "themeMappings" :  {
                            "font-color" : "foreground-1",
                            "font-family" : "font-1"
                          }
                        },
                        {
                          "type" : 0,
                          "name" : "Subtitle",
                          "objects" : [ 373 ],
                          "themeMappings" :  {
                            "font-color" : "background-1",
                            "font-family" : "font-1"
                          }
                        },
                        {
                          "type" : 1,
                          "name" : "Color 1",
                          "objects" : [ 370, 371 ],
                          "themeMappings" :  {
                            "fill" : "accent-1"
                          }
                        }
                      ]
                    },
                    "effects" : [

                    ],
                    "start" : 32280,
                    "duration" : 210,
                    "mediaStart" : -30.0,
                    "mediaDuration" : 210.0,
                    "scalar" : 1,
                    "metadata" : {
                      "AppliedThemeId" : "",
                      "IsGroupExpanded" : "False",
                      "WinSubProjectDisplayName" : "Simple Bright Title 3",
                      "clipSpeedAttribute" : false,
                      "effectApplied" : "none",
                      "isOpen" : false
                    },
                    "animationTracks" : {

                    }
                  },
                  {
                    "id" : 374,
                    "_type" : "UnifiedMedia",
                    "video" : 
                        {
                          "id" : 375,
                          "_type" : "ScreenVMFile",
                          "src" : 35,
                          "trackNumber" : 0,
                          "attributes" : {
                            "ident" : "scratch-7.3-sensing-asking"
                          },
                          "parameters" : {
                            "cursorScale" : {
                              "type" : "double",
                              "defaultValue" : 1.0,
                              "interp" : "linr"
                            },
                            "cursorOpacity" : {
                              "type" : "double",
                              "defaultValue" : 1.0,
                              "interp" : "linr"
                            }
                          },
                          "effects" : [

                          ],
                          "start" : 32490,
                          "duration" : 162,
                          "mediaStart" : 0,
                          "mediaDuration" : 162,
                          "scalar" : 1,
                          "animationTracks" : {

                          }
                        },
                    "audio" : 
                        {
                          "id" : 376,
                          "_type" : "AMFile",
                          "src" : 35,
                          "trackNumber" : 1,
                          "attributes" : {
                            "ident" : "",
                            "gain" : 1.0,
                            "mixToMono" : false
                          },
                            "channelNumber" : "0,1",
                          "effects" : [

                          ],
                          "start" : 32490,
                          "duration" : 162,
                          "mediaStart" : 0,
                          "mediaDuration" : 162,
                          "scalar" : 1,
                          "animationTracks" : {

                          }
                        }
,
                    "start" : 32490,
                    "duration" : 162,
                    "mediaStart" : 0,
                    "mediaDuration" : 162,
                    "scalar" : 1,
                    "metadata" : {
                      "AutoAppliedSmartFocus" : "False",
                      "clipSpeedAttribute" : false
                    }
                  },
                  {
                    "id" : 377,
                    "_type" : "Group",
                    "parameters" : {
                      "translation0" : 1.21531229524408e-10,
                      "translation1" : 62.3420348343093,
                      "volume" : 1.0
                    },
                    "tracks" : [
                      {
                        "trackIndex" : 0,
                        "medias" : [
                          {
                            "id" : 378,
                            "_type" : "Callout",
                            "def" : {
                              "kind" : "remix",
                              "shape" : "shape-rectangle",
                              "style" : "urban",
                              "fill-color-blue" : {
                                "type" : "double",
                                "defaultValue" : 1.0,
                                "keyframes" : [
                                  {
                                    "endTime" : 56,
                                    "time" : 18,
                                    "value" : 1.0,
                                    "duration" : 38
                                  },
                                  {
                                    "endTime" : 92,
                                    "time" : 56,
                                    "value" : 0.149019607843137,
                                    "duration" : 36
                                  },
                                  {
                                    "endTime" : 174,
                                    "time" : 116,
                                    "value" : 0.149019607843137,
                                    "duration" : 58
                                  }
                                ]
                              },
                              "fill-color-green" : {
                                "type" : "double",
                                "defaultValue" : 1.0,
                                "keyframes" : [
                                  {
                                    "endTime" : 56,
                                    "time" : 18,
                                    "value" : 1.0,
                                    "duration" : 38
                                  },
                                  {
                                    "endTime" : 92,
                                    "time" : 56,
                                    "value" : 0.96078431372549,
                                    "duration" : 36
                                  },
                                  {
                                    "endTime" : 174,
                                    "time" : 116,
                                    "value" : 0.96078431372549,
                                    "duration" : 58
                                  }
                                ]
                              },
                              "fill-color-opacity" : 1.0,
                              "fill-color-red" : {
                                "type" : "double",
                                "defaultValue" : 1.0,
                                "keyframes" : [
                                  {
                                    "endTime" : 56,
                                    "time" : 18,
                                    "value" : 1.0,
                                    "duration" : 38
                                  },
                                  {
                                    "endTime" : 92,
                                    "time" : 56,
                                    "value" : 0.933333333333333,
                                    "duration" : 36
                                  },
                                  {
                                    "endTime" : 174,
                                    "time" : 116,
                                    "value" : 0.933333333333333,
                                    "duration" : 58
                                  }
                                ]
                              },
                              "height" : {
                                "type" : "double",
                                "defaultValue" : 10.8510761260468,
                                "keyframes" : [
                                  {
                                    "endTime" : 56,
                                    "time" : 18,
                                    "value" : 24.9687231850678,
                                    "duration" : 38
                                  },
                                  {
                                    "endTime" : 92,
                                    "time" : 56,
                                    "value" : 1281.28323719656,
                                    "duration" : 36
                                  },
                                  {
                                    "endTime" : 174,
                                    "time" : 116,
                                    "value" : 1347.6353898526,
                                    "duration" : 58
                                  }
                                ]
                              },
                              "stroke-color-blue" : 1.0,
                              "stroke-color-green" : 1.0,
                              "stroke-color-opacity" : 1.0,
                              "stroke-color-red" : 1.0,
                              "stroke-width" : 0.0,
                              "width" : {
                                "type" : "double",
                                "defaultValue" : 6.88782755517832,
                                "keyframes" : [
                                  {
                                    "endTime" : 56,
                                    "time" : 18,
                                    "value" : 67.9394975592671,
                                    "duration" : 38
                                  },
                                  {
                                    "endTime" : 92,
                                    "time" : 56,
                                    "value" : 67.9394975592671,
                                    "duration" : 36
                                  },
                                  {
                                    "endTime" : 174,
                                    "time" : 116,
                                    "value" : 68.0763125888445,
                                    "duration" : 58
                                  }
                                ]
                              },
                              "fill-style" : "solid",
                              "horizontal-alignment" : "center",
                              "stroke-style" : "solid",
                              "vertical-alignment" : "center",
                              "textAttributes" : {
                                "type" : "textAttributeList",
                                "keyframes" : [
                                  {
                                    "endTime" : 0,
                                    "time" : 0,
                                    "value" : null,
                                    "duration" : 0
                                  }
                                ]
                              }
                            },
                            "attributes" : {
                              "autoRotateText" : true
                            },
                            "parameters" : {
                              "translation0" : {
                                "type" : "double",
                                "defaultValue" : -1.21547438780567e-10,
                                "keyframes" : [
                                  {
                                    "endTime" : 56,
                                    "time" : 18,
                                    "value" : -1.21547438780567e-10,
                                    "duration" : 38
                                  },
                                  {
                                    "endTime" : 92,
                                    "time" : 56,
                                    "value" : 0.0541990816513973,
                                    "duration" : 36
                                  },
                                  {
                                    "endTime" : 174,
                                    "time" : 116,
                                    "value" : -1.67577274979808e-14,
                                    "duration" : 58
                                  }
                                ]
                              },
                              "translation1" : {
                                "type" : "double",
                                "defaultValue" : -96.3117858166865,
                                "keyframes" : [
                                  {
                                    "endTime" : 56,
                                    "time" : 18,
                                    "value" : -96.3117858166865,
                                    "duration" : 38
                                  },
                                  {
                                    "endTime" : 92,
                                    "time" : 56,
                                    "value" : -96.3117858166865,
                                    "duration" : 36
                                  },
                                  {
                                    "endTime" : 174,
                                    "time" : 116,
                                    "value" : -658.65796581331,
                                    "duration" : 58
                                  }
                                ]
                              },
                              "rotation2" : {
                                "type" : "double",
                                "defaultValue" : 0.0,
                                "keyframes" : [
                                  {
                                    "endTime" : 56,
                                    "time" : 18,
                                    "value" : -1.5707963267949,
                                    "duration" : 38
                                  }
                                ]
                              }
                            },
                            "effects" : [

                            ],
                            "start" : -30,
                            "duration" : 210,
                            "mediaStart" : -12,
                            "mediaDuration" : 210,
                            "scalar" : 1,
                            "metadata" : {
                              "WinSubProjectDisplayName" : "",
                              "clipSpeedAttribute" : false
                            },
                            "animationTracks" : {
                              "visual" : [
                                {
                                  "endTime" : 56,
                                  "duration" : 38,
                                  "range" : [ 18, 38],
                                  "interp" : "eioe"
                                },
                                {
                                  "endTime" : 92,
                                  "duration" : 36,
                                  "range" : [ 56, 36],
                                  "interp" : "eioe"
                                },
                                {
                                  "endTime" : 174,
                                  "duration" : 58,
                                  "range" : [ 116, 58]
                                }
                              ]
                            }
                          }
                        ],
                          "ident" : "",
                          "audioMuted" : false,
                          "videoHidden" : false,
                          "magnetic" : false,
                          "metadata" : {
                            "IsLocked" : "False",
                            "WinTrackHeight" : "0"
                          }
                      },
                      {
                        "trackIndex" : 1,
                        "medias" : [
                          {
                            "id" : 379,
                            "_type" : "Callout",
                            "def" : {
                              "kind" : "remix",
                              "shape" : "shape-rectangle",
                              "style" : "urban",
                              "fill-color-blue" : {
                                "type" : "double",
                                "defaultValue" : 1.0,
                                "keyframes" : [
                                  {
                                    "endTime" : 54,
                                    "time" : 18,
                                    "value" : 0.149019607843137,
                                    "duration" : 36
                                  },
                                  {
                                    "endTime" : 136,
                                    "time" : 78,
                                    "value" : 1.0,
                                    "duration" : 58
                                  }
                                ]
                              },
                              "fill-color-green" : {
                                "type" : "double",
                                "defaultValue" : 1.0,
                                "keyframes" : [
                                  {
                                    "endTime" : 54,
                                    "time" : 18,
                                    "value" : 0.96078431372549,
                                    "duration" : 36
                                  },
                                  {
                                    "endTime" : 136,
                                    "time" : 78,
                                    "value" : 1.0,
                                    "duration" : 58
                                  }
                                ]
                              },
                              "fill-color-opacity" : 1.0,
                              "fill-color-red" : {
                                "type" : "double",
                                "defaultValue" : 1.0,
                                "keyframes" : [
                                  {
                                    "endTime" : 54,
                                    "time" : 18,
                                    "value" : 0.933333333333333,
                                    "duration" : 36
                                  },
                                  {
                                    "endTime" : 136,
                                    "time" : 78,
                                    "value" : 1.0,
                                    "duration" : 58
                                  }
                                ]
                              },
                              "height" : {
                                "type" : "double",
                                "defaultValue" : 10.8510761260468,
                                "keyframes" : [
                                  {
                                    "endTime" : 54,
                                    "time" : 18,
                                    "value" : 10.8510761260468,
                                    "duration" : 36
                                  },
                                  {
                                    "endTime" : 136,
                                    "time" : 78,
                                    "value" : 10.8510761260468,
                                    "duration" : 58
                                  }
                                ]
                              },
                              "stroke-color-blue" : 1.0,
                              "stroke-color-green" : 1.0,
                              "stroke-color-opacity" : 1.0,
                              "stroke-color-red" : 1.0,
                              "stroke-width" : 0.0,
                              "width" : {
                                "type" : "double",
                                "defaultValue" : 6.88782755517832,
                                "keyframes" : [
                                  {
                                    "endTime" : 54,
                                    "time" : 18,
                                    "value" : 1281.28316541273,
                                    "duration" : 36
                                  },
                                  {
                                    "endTime" : 136,
                                    "time" : 78,
                                    "value" : 1302.87700103543,
                                    "duration" : 58
                                  }
                                ]
                              },
                              "fill-style" : "solid",
                              "horizontal-alignment" : "center",
                              "stroke-style" : "solid",
                              "vertical-alignment" : "center",
                              "textAttributes" : {
                                "type" : "textAttributeList",
                                "keyframes" : [
                                  {
                                    "endTime" : 0,
                                    "time" : 0,
                                    "value" : null,
                                    "duration" : 0
                                  }
                                ]
                              }
                            },
                            "attributes" : {
                              "autoRotateText" : true
                            },
                            "parameters" : {
                              "translation0" : {
                                "type" : "double",
                                "defaultValue" : -1.21547438780567e-10,
                                "keyframes" : [
                                  {
                                    "endTime" : 54,
                                    "time" : 18,
                                    "value" : -0.0541988189824127,
                                    "duration" : 36
                                  },
                                  {
                                    "endTime" : 136,
                                    "time" : 78,
                                    "value" : -1.21547438780567e-10,
                                    "duration" : 58
                                  }
                                ]
                              },
                              "translation1" : {
                                "type" : "double",
                                "defaultValue" : 78.8579651656907,
                                "keyframes" : [
                                  {
                                    "endTime" : 54,
                                    "time" : 18,
                                    "value" : 78.8936575656383,
                                    "duration" : 36
                                  },
                                  {
                                    "endTime" : 136,
                                    "time" : 78,
                                    "value" : 694.705445748916,
                                    "duration" : 58
                                  }
                                ]
                              }
                            },
                            "effects" : [

                            ],
                            "start" : 38,
                            "duration" : 142,
                            "mediaStart" : 18,
                            "mediaDuration" : 142,
                            "scalar" : 1,
                            "metadata" : {
                              "WinSubProjectDisplayName" : "",
                              "clipSpeedAttribute" : false
                            },
                            "animationTracks" : {
                              "visual" : [
                                {
                                  "endTime" : 54,
                                  "duration" : 36,
                                  "range" : [ 18, 36],
                                  "interp" : "eioe"
                                },
                                {
                                  "endTime" : 136,
                                  "duration" : 58,
                                  "range" : [ 78, 58],
                                  "interp" : "eioe"
                                }
                              ]
                            }
                          }
                        ],
                          "ident" : "",
                          "audioMuted" : false,
                          "videoHidden" : false,
                          "magnetic" : false,
                          "metadata" : {
                            "IsLocked" : "False",
                            "WinTrackHeight" : "6.39079466327898e-312"
                          }
                      },
                      {
                        "trackIndex" : 2,
                        "medias" : [
                          {
                            "id" : 380,
                            "_type" : "Callout",
                            "def" : {
                              "kind" : "remix",
                              "shape" : "text",
                              "style" : "abstract",
                              "height" : 180.630981445261,
                              "line-spacing" : 0.0,
                              "width" : 1281.17482864961,
                              "word-wrap" : 1.0,
                              "horizontal-alignment" : "center",
                              "resize-behavior" : "resizeText",
                              "text" : "keys",
                              "vertical-alignment" : "center",
                              "font" : {
                                "color-blue" : 1.0,
                                "color-green" : 1.0,
                                "color-red" : 1.0,
                                "size" : 96.0,
                                "tracking" : 0.0,
                                "name" : "Lato",
                                "weight" : "Regular"
                              },
                              "textAttributes" : {
                                "type" : "textAttributeList",
                                "keyframes" : [
                                  {
                                    "endTime" : 0,
                                    "time" : 0,
                                    "value" : [{"name":"fgColor","rangeEnd":4,"rangeStart":0,"value":"(255,255,255,255)","valueType":"color"},{"name":"kerning","rangeEnd":4,"rangeStart":0,"value":0,"valueType":"double"},{"name":"fontItalic","rangeEnd":4,"rangeStart":0,"value":0,"valueType":"int"},{"name":"fontName","rangeEnd":4,"rangeStart":0,"value":"Montserrat","valueType":"string"},{"name":"fontSize","rangeEnd":4,"rangeStart":0,"value":128,"valueType":"double"},{"name":"fontWeight","rangeEnd":4,"rangeStart":0,"value":400,"valueType":"int"},{"name":"strikethrough","rangeEnd":4,"rangeStart":0,"value":0,"valueType":"int"},{"name":"underline","rangeEnd":4,"rangeStart":0,"value":0,"valueType":"int"}],
                                    "duration" : 0
                                  }
                                ]
                              }
                            },
                            "attributes" : {
                              "autoRotateText" : true
                            },
                            "parameters" : {
                              "translation0" : {
                                "type" : "double",
                                "defaultValue" : 0.412585675275182,
                                "keyframes" : [
                                  {
                                    "endTime" : 152,
                                    "time" : 94,
                                    "value" : 11.2636728451827,
                                    "duration" : 58
                                  }
                                ]
                              },
                              "translation1" : {
                                "type" : "double",
                                "defaultValue" : -5.81178581660322,
                                "keyframes" : [
                                  {
                                    "endTime" : 152,
                                    "time" : 94,
                                    "value" : 610.000002366703,
                                    "duration" : 58
                                  }
                                ]
                              }
                            },
                            "effects" : [
                                {
                                  "_type" : "GenericBehaviorEffect",
                                  "effectName" : "popUp",
                                  "start" : 34,
                                  "duration" : 142                                ,
                                  "in" : {
                                    "attributes" : {
                                      "name" : "reveal",
                                      "type" : 1,
                                      "characterOrder" : 6,
                                      "offsetBetweenCharacters" : 3,
                                      "suggestedDurationPerCharacter" : 44,
                                      "overlapProportion" : 0,
                                      "movement" : 16,
                                      "springDamping" : 5.0,
                                      "springStiffness" : 50.0,
                                      "bounceBounciness" : 0.45
                                    },
                                    "parameters" : {
                                      "direction" : {
                                        "type" : "int",
                                        "valueBounds" : {
                                          "minValue" : 0,
                                          "maxValue" : 3,
                                          "defaultValue" : 0
                                        },
                                        "uiHints" : {
                                          "userInterfaceType" : 2,
                                          "unitType" : 0
                                        },
                                        "keyframes" : [
                                          {
                                            "endTime" : 0,
                                            "time" : 0,
                                            "value" : 2,
                                            "duration" : 0
                                          }
                                        ]
                                      }
                                    }
                                  
                                  },
                                  "center" : {
                                    "attributes" : {
                                      "name" : "none",
                                      "type" : 1,
                                      "characterOrder" : 6,
                                      "offsetBetweenCharacters" : 0,
                                      "secondsPerLoop" : 1,
                                      "numberOfLoops" : -1,
                                      "delayBetweenLoops" : 0,
                                      "offsetBetweenCharacters" : 0
                                    }
                                  
                                  },
                                  "out" : {
                                    "attributes" : {
                                      "name" : "none",
                                      "type" : 1,
                                      "characterOrder" : 6,
                                      "offsetBetweenCharacters" : 0,
                                      "suggestedDurationPerCharacter" : 0,
                                      "overlapProportion" : 0,
                                      "movement" : -1,
                                      "springDamping" : 5.0,
                                      "springStiffness" : 50.0,
                                      "bounceBounciness" : 0.45
                                    }
                                  
                                  }
                                }
                            ],
                            "start" : 38,
                            "duration" : 142,
                            "mediaStart" : 34,
                            "mediaDuration" : 142,
                            "scalar" : 1,
                            "metadata" : {
                              "WinSubProjectDisplayName" : "",
                              "clipSpeedAttribute" : false,
                              "default-HAlign" : "center",
                              "default-LineSpace" : 0.0,
                              "default-VAlign" : "center",
                              "default-text-attributes" : "[{\"name\":\"fontName\",\"rangeEnd\":15,\"rangeStart\":0,\"value\":\"Montserrat\",\"valueType\":\"string\"},{\"name\":\"fgColor\",\"rangeEnd\":15,\"rangeStart\":0,\"value\":\"(255,255,255,255)\",\"valueType\":\"color\"},{\"name\":\"underline\",\"rangeEnd\":15,\"rangeStart\":0,\"value\":0,\"valueType\":\"int\"},{\"name\":\"strikethrough\",\"rangeEnd\":15,\"rangeStart\":0,\"value\":0,\"valueType\":\"int\"},{\"name\":\"fontSize\",\"rangeEnd\":15,\"rangeStart\":0,\"value\":128,\"valueType\":\"double\"},{\"name\":\"fontItalic\",\"rangeEnd\":15,\"rangeStart\":0,\"value\":0,\"valueType\":\"int\"},{\"name\":\"fontWeight\",\"rangeEnd\":15,\"rangeStart\":0,\"value\":100,\"valueType\":\"int\"}]"
                            },
                            "animationTracks" : {
                              "visual" : [
                                {
                                  "endTime" : 152,
                                  "duration" : 58,
                                  "range" : [ 94, 58],
                                  "interp" : "eioe"
                                }
                              ]
                            }
                          }
                        ],
                          "ident" : "",
                          "audioMuted" : false,
                          "videoHidden" : false,
                          "magnetic" : false,
                          "metadata" : {
                            "IsLocked" : "False",
                            "WinTrackHeight" : "6.39079466327898e-312"
                          }
                      },
                      {
                        "trackIndex" : 3,
                        "medias" : [
                          {
                            "id" : 381,
                            "_type" : "Callout",
                            "def" : {
                              "kind" : "remix",
                              "shape" : "text",
                              "style" : "abstract",
                              "height" : 83.6840731068824,
                              "line-spacing" : 0.0,
                              "width" : 1281.28322521409,
                              "word-wrap" : 1.0,
                              "horizontal-alignment" : "center",
                              "resize-behavior" : "resizeText",
                              "text" : "looks",
                              "vertical-alignment" : "center",
                              "font" : {
                                "color-blue" : 1.0,
                                "color-green" : 1.0,
                                "color-red" : 1.0,
                                "size" : 96.0,
                                "tracking" : 0.0,
                                "name" : "Lato",
                                "weight" : "Regular"
                              },
                              "textAttributes" : {
                                "type" : "textAttributeList",
                                "keyframes" : [
                                  {
                                    "endTime" : 0,
                                    "time" : 0,
                                    "value" : [{"name":"fontWeight","rangeEnd":5,"rangeStart":0,"value":400,"valueType":"int"},{"name":"fontItalic","rangeEnd":5,"rangeStart":0,"value":0,"valueType":"int"},{"name":"fontName","rangeEnd":5,"rangeStart":0,"value":"Montserrat","valueType":"string"},{"name":"fontSize","rangeEnd":5,"rangeStart":0,"value":60,"valueType":"double"},{"name":"kerning","rangeEnd":5,"rangeStart":0,"value":0,"valueType":"double"},{"name":"fgColor","rangeEnd":5,"rangeStart":0,"value":"(0,0,0,255)","valueType":"color"},{"name":"underline","rangeEnd":5,"rangeStart":0,"value":0,"valueType":"int"},{"name":"strikethrough","rangeEnd":5,"rangeStart":0,"value":0,"valueType":"int"}],
                                    "duration" : 0
                                  }
                                ]
                              }
                            },
                            "attributes" : {
                              "autoRotateText" : true
                            },
                            "parameters" : {
                              "translation0" : {
                                "type" : "double",
                                "defaultValue" : 0.304200155246711,
                                "keyframes" : [
                                  {
                                    "endTime" : 110,
                                    "time" : 52,
                                    "value" : -1.86383482943485,
                                    "duration" : 58
                                  }
                                ]
                              },
                              "translation1" : {
                                "type" : "double",
                                "defaultValue" : -96.1538223700724,
                                "keyframes" : [
                                  {
                                    "endTime" : 110,
                                    "time" : 52,
                                    "value" : -658.500002366703,
                                    "duration" : 58
                                  }
                                ]
                              }
                            },
                            "effects" : [
                                {
                                  "_type" : "GenericBehaviorEffect",
                                  "effectName" : "popUp",
                                  "start" : 0,
                                  "duration" : 138                                ,
                                  "in" : {
                                    "attributes" : {
                                      "name" : "reveal",
                                      "type" : 1,
                                      "characterOrder" : 7,
                                      "offsetBetweenCharacters" : 3,
                                      "suggestedDurationPerCharacter" : 44,
                                      "overlapProportion" : 0,
                                      "movement" : 16,
                                      "springDamping" : 5.0,
                                      "springStiffness" : 50.0,
                                      "bounceBounciness" : 0.45
                                    },
                                    "parameters" : {
                                      "direction" : {
                                        "type" : "int",
                                        "valueBounds" : {
                                          "minValue" : 0,
                                          "maxValue" : 3,
                                          "defaultValue" : 0
                                        },
                                        "uiHints" : {
                                          "userInterfaceType" : 2,
                                          "unitType" : 0
                                        },
                                        "keyframes" : [
                                          {
                                            "endTime" : 0,
                                            "time" : 0,
                                            "value" : 0,
                                            "duration" : 0
                                          }
                                        ]
                                      }
                                    }
                                  
                                  },
                                  "center" : {
                                    "attributes" : {
                                      "name" : "none",
                                      "type" : 1,
                                      "characterOrder" : 6,
                                      "offsetBetweenCharacters" : 0,
                                      "secondsPerLoop" : 1,
                                      "numberOfLoops" : -1,
                                      "delayBetweenLoops" : 0,
                                      "offsetBetweenCharacters" : 0
                                    }
                                  
                                  },
                                  "out" : {
                                    "attributes" : {
                                      "name" : "none",
                                      "type" : 1,
                                      "characterOrder" : 6,
                                      "offsetBetweenCharacters" : 0,
                                      "suggestedDurationPerCharacter" : 0,
                                      "overlapProportion" : 0,
                                      "movement" : -1,
                                      "springDamping" : 5.0,
                                      "springStiffness" : 50.0,
                                      "bounceBounciness" : 0.45
                                    }
                                  
                                  }
                                }
                            ],
                            "start" : 42,
                            "duration" : 138,
                            "mediaStart" : 0,
                            "mediaDuration" : 138,
                            "scalar" : 1,
                            "metadata" : {
                              "WinSubProjectDisplayName" : "",
                              "clipSpeedAttribute" : false,
                              "default-HAlign" : "center",
                              "default-LineSpace" : 0.0,
                              "default-VAlign" : "center",
                              "default-text-attributes" : "[{\"name\":\"fontName\",\"rangeEnd\":17,\"rangeStart\":0,\"value\":\"Montserrat\",\"valueType\":\"string\"},{\"name\":\"strikethrough\",\"rangeEnd\":17,\"rangeStart\":0,\"value\":0,\"valueType\":\"int\"},{\"name\":\"fontWeight\",\"rangeEnd\":17,\"rangeStart\":0,\"value\":100,\"valueType\":\"int\"},{\"name\":\"fontSize\",\"rangeEnd\":17,\"rangeStart\":0,\"value\":60,\"valueType\":\"double\"},{\"name\":\"fontItalic\",\"rangeEnd\":17,\"rangeStart\":0,\"value\":0,\"valueType\":\"int\"},{\"name\":\"fgColor\",\"rangeEnd\":17,\"rangeStart\":0,\"value\":\"(0,0,0,255)\",\"valueType\":\"color\"},{\"name\":\"underline\",\"rangeEnd\":17,\"rangeStart\":0,\"value\":0,\"valueType\":\"int\"}]",
                              "default-translation0" : 0.358387392787593
                            },
                            "animationTracks" : {
                              "visual" : [
                                {
                                  "endTime" : 110,
                                  "duration" : 58,
                                  "range" : [ 52, 58],
                                  "interp" : "eioe"
                                }
                              ]
                            }
                          }
                        ],
                          "ident" : "",
                          "audioMuted" : false,
                          "videoHidden" : false,
                          "magnetic" : false,
                          "metadata" : {
                            "IsLocked" : "False",
                            "WinTrackHeight" : "6.39079466327898e-312"
                          }
                      }
                    ],
                    "attributes" : {
                      "ident" : "Simple Bright Title 3",
                      "gain" : 1.0,
                      "mixToMono" : false,
                      "assetProperties" : [
                        {
                          "type" : 0,
                          "name" : "Title",
                          "objects" : [ 380 ],
                          "themeMappings" :  {
                            "font-color" : "foreground-1",
                            "font-family" : "font-1"
                          }
                        },
                        {
                          "type" : 0,
                          "name" : "Subtitle",
                          "objects" : [ 381 ],
                          "themeMappings" :  {
                            "font-color" : "background-1",
                            "font-family" : "font-1"
                          }
                        },
                        {
                          "type" : 1,
                          "name" : "Color 1",
                          "objects" : [ 378, 379 ],
                          "themeMappings" :  {
                            "fill" : "accent-1"
                          }
                        }
                      ]
                    },
                    "effects" : [

                    ],
                    "start" : 32652,
                    "duration" : 210,
                    "mediaStart" : -30.0,
                    "mediaDuration" : 210.0,
                    "scalar" : 1,
                    "metadata" : {
                      "AppliedThemeId" : "",
                      "IsGroupExpanded" : "False",
                      "WinSubProjectDisplayName" : "Simple Bright Title 3",
                      "clipSpeedAttribute" : false,
                      "effectApplied" : "none",
                      "isOpen" : false
                    },
                    "animationTracks" : {

                    }
                  },
                  {
                    "id" : 382,
                    "_type" : "UnifiedMedia",
                    "video" : 
                        {
                          "id" : 383,
                          "_type" : "ScreenVMFile",
                          "src" : 36,
                          "trackNumber" : 0,
                          "attributes" : {
                            "ident" : "scratch-7.4-sensing-keys"
                          },
                          "parameters" : {
                            "cursorScale" : {
                              "type" : "double",
                              "defaultValue" : 1.0,
                              "interp" : "linr"
                            },
                            "cursorOpacity" : {
                              "type" : "double",
                              "defaultValue" : 1.0,
                              "interp" : "linr"
                            }
                          },
                          "effects" : [

                          ],
                          "start" : 32862,
                          "duration" : 790,
                          "mediaStart" : 0,
                          "mediaDuration" : 790,
                          "scalar" : 1,
                          "animationTracks" : {

                          }
                        },
                    "audio" : 
                        {
                          "id" : 384,
                          "_type" : "AMFile",
                          "src" : 36,
                          "trackNumber" : 1,
                          "attributes" : {
                            "ident" : "",
                            "gain" : 1.0,
                            "mixToMono" : false
                          },
                            "channelNumber" : "0,1",
                          "effects" : [

                          ],
                          "start" : 32862,
                          "duration" : 790,
                          "mediaStart" : 0,
                          "mediaDuration" : 790,
                          "scalar" : 1,
                          "animationTracks" : {

                          }
                        }
,
                    "start" : 32862,
                    "duration" : 790,
                    "mediaStart" : 0,
                    "mediaDuration" : 790,
                    "scalar" : 1,
                    "metadata" : {
                      "AutoAppliedSmartFocus" : "False",
                      "clipSpeedAttribute" : false
                    }
                  },
                  {
                    "id" : 385,
                    "_type" : "Group",
                    "parameters" : {
                      "translation0" : 1.21531229524408e-10,
                      "translation1" : 62.3420348343093,
                      "volume" : 1.0
                    },
                    "tracks" : [
                      {
                        "trackIndex" : 0,
                        "medias" : [
                          {
                            "id" : 386,
                            "_type" : "Callout",
                            "def" : {
                              "kind" : "remix",
                              "shape" : "shape-rectangle",
                              "style" : "urban",
                              "fill-color-blue" : {
                                "type" : "double",
                                "defaultValue" : 1.0,
                                "keyframes" : [
                                  {
                                    "endTime" : 56,
                                    "time" : 18,
                                    "value" : 1.0,
                                    "duration" : 38
                                  },
                                  {
                                    "endTime" : 92,
                                    "time" : 56,
                                    "value" : 0.149019607843137,
                                    "duration" : 36
                                  },
                                  {
                                    "endTime" : 174,
                                    "time" : 116,
                                    "value" : 0.149019607843137,
                                    "duration" : 58
                                  }
                                ]
                              },
                              "fill-color-green" : {
                                "type" : "double",
                                "defaultValue" : 1.0,
                                "keyframes" : [
                                  {
                                    "endTime" : 56,
                                    "time" : 18,
                                    "value" : 1.0,
                                    "duration" : 38
                                  },
                                  {
                                    "endTime" : 92,
                                    "time" : 56,
                                    "value" : 0.96078431372549,
                                    "duration" : 36
                                  },
                                  {
                                    "endTime" : 174,
                                    "time" : 116,
                                    "value" : 0.96078431372549,
                                    "duration" : 58
                                  }
                                ]
                              },
                              "fill-color-opacity" : 1.0,
                              "fill-color-red" : {
                                "type" : "double",
                                "defaultValue" : 1.0,
                                "keyframes" : [
                                  {
                                    "endTime" : 56,
                                    "time" : 18,
                                    "value" : 1.0,
                                    "duration" : 38
                                  },
                                  {
                                    "endTime" : 92,
                                    "time" : 56,
                                    "value" : 0.933333333333333,
                                    "duration" : 36
                                  },
                                  {
                                    "endTime" : 174,
                                    "time" : 116,
                                    "value" : 0.933333333333333,
                                    "duration" : 58
                                  }
                                ]
                              },
                              "height" : {
                                "type" : "double",
                                "defaultValue" : 10.8510761260468,
                                "keyframes" : [
                                  {
                                    "endTime" : 56,
                                    "time" : 18,
                                    "value" : 24.9687231850678,
                                    "duration" : 38
                                  },
                                  {
                                    "endTime" : 92,
                                    "time" : 56,
                                    "value" : 1281.28323719656,
                                    "duration" : 36
                                  },
                                  {
                                    "endTime" : 174,
                                    "time" : 116,
                                    "value" : 1347.6353898526,
                                    "duration" : 58
                                  }
                                ]
                              },
                              "stroke-color-blue" : 1.0,
                              "stroke-color-green" : 1.0,
                              "stroke-color-opacity" : 1.0,
                              "stroke-color-red" : 1.0,
                              "stroke-width" : 0.0,
                              "width" : {
                                "type" : "double",
                                "defaultValue" : 6.88782755517832,
                                "keyframes" : [
                                  {
                                    "endTime" : 56,
                                    "time" : 18,
                                    "value" : 67.9394975592671,
                                    "duration" : 38
                                  },
                                  {
                                    "endTime" : 92,
                                    "time" : 56,
                                    "value" : 67.9394975592671,
                                    "duration" : 36
                                  },
                                  {
                                    "endTime" : 174,
                                    "time" : 116,
                                    "value" : 68.0763125888445,
                                    "duration" : 58
                                  }
                                ]
                              },
                              "fill-style" : "solid",
                              "horizontal-alignment" : "center",
                              "stroke-style" : "solid",
                              "vertical-alignment" : "center",
                              "textAttributes" : {
                                "type" : "textAttributeList",
                                "keyframes" : [
                                  {
                                    "endTime" : 0,
                                    "time" : 0,
                                    "value" : null,
                                    "duration" : 0
                                  }
                                ]
                              }
                            },
                            "attributes" : {
                              "autoRotateText" : true
                            },
                            "parameters" : {
                              "translation0" : {
                                "type" : "double",
                                "defaultValue" : -1.21547438780567e-10,
                                "keyframes" : [
                                  {
                                    "endTime" : 56,
                                    "time" : 18,
                                    "value" : -1.21547438780567e-10,
                                    "duration" : 38
                                  },
                                  {
                                    "endTime" : 92,
                                    "time" : 56,
                                    "value" : 0.0541990816513973,
                                    "duration" : 36
                                  },
                                  {
                                    "endTime" : 174,
                                    "time" : 116,
                                    "value" : -1.67577274979808e-14,
                                    "duration" : 58
                                  }
                                ]
                              },
                              "translation1" : {
                                "type" : "double",
                                "defaultValue" : -96.3117858166865,
                                "keyframes" : [
                                  {
                                    "endTime" : 56,
                                    "time" : 18,
                                    "value" : -96.3117858166865,
                                    "duration" : 38
                                  },
                                  {
                                    "endTime" : 92,
                                    "time" : 56,
                                    "value" : -96.3117858166865,
                                    "duration" : 36
                                  },
                                  {
                                    "endTime" : 174,
                                    "time" : 116,
                                    "value" : -658.65796581331,
                                    "duration" : 58
                                  }
                                ]
                              },
                              "rotation2" : {
                                "type" : "double",
                                "defaultValue" : 0.0,
                                "keyframes" : [
                                  {
                                    "endTime" : 56,
                                    "time" : 18,
                                    "value" : -1.5707963267949,
                                    "duration" : 38
                                  }
                                ]
                              }
                            },
                            "effects" : [

                            ],
                            "start" : -30,
                            "duration" : 210,
                            "mediaStart" : -12,
                            "mediaDuration" : 210,
                            "scalar" : 1,
                            "metadata" : {
                              "WinSubProjectDisplayName" : "",
                              "clipSpeedAttribute" : false
                            },
                            "animationTracks" : {
                              "visual" : [
                                {
                                  "endTime" : 56,
                                  "duration" : 38,
                                  "range" : [ 18, 38],
                                  "interp" : "eioe"
                                },
                                {
                                  "endTime" : 92,
                                  "duration" : 36,
                                  "range" : [ 56, 36],
                                  "interp" : "eioe"
                                },
                                {
                                  "endTime" : 174,
                                  "duration" : 58,
                                  "range" : [ 116, 58]
                                }
                              ]
                            }
                          }
                        ],
                          "ident" : "",
                          "audioMuted" : false,
                          "videoHidden" : false,
                          "magnetic" : false,
                          "metadata" : {
                            "IsLocked" : "False",
                            "WinTrackHeight" : "0"
                          }
                      },
                      {
                        "trackIndex" : 1,
                        "medias" : [
                          {
                            "id" : 387,
                            "_type" : "Callout",
                            "def" : {
                              "kind" : "remix",
                              "shape" : "shape-rectangle",
                              "style" : "urban",
                              "fill-color-blue" : {
                                "type" : "double",
                                "defaultValue" : 1.0,
                                "keyframes" : [
                                  {
                                    "endTime" : 54,
                                    "time" : 18,
                                    "value" : 0.149019607843137,
                                    "duration" : 36
                                  },
                                  {
                                    "endTime" : 136,
                                    "time" : 78,
                                    "value" : 1.0,
                                    "duration" : 58
                                  }
                                ]
                              },
                              "fill-color-green" : {
                                "type" : "double",
                                "defaultValue" : 1.0,
                                "keyframes" : [
                                  {
                                    "endTime" : 54,
                                    "time" : 18,
                                    "value" : 0.96078431372549,
                                    "duration" : 36
                                  },
                                  {
                                    "endTime" : 136,
                                    "time" : 78,
                                    "value" : 1.0,
                                    "duration" : 58
                                  }
                                ]
                              },
                              "fill-color-opacity" : 1.0,
                              "fill-color-red" : {
                                "type" : "double",
                                "defaultValue" : 1.0,
                                "keyframes" : [
                                  {
                                    "endTime" : 54,
                                    "time" : 18,
                                    "value" : 0.933333333333333,
                                    "duration" : 36
                                  },
                                  {
                                    "endTime" : 136,
                                    "time" : 78,
                                    "value" : 1.0,
                                    "duration" : 58
                                  }
                                ]
                              },
                              "height" : {
                                "type" : "double",
                                "defaultValue" : 10.8510761260468,
                                "keyframes" : [
                                  {
                                    "endTime" : 54,
                                    "time" : 18,
                                    "value" : 10.8510761260468,
                                    "duration" : 36
                                  },
                                  {
                                    "endTime" : 136,
                                    "time" : 78,
                                    "value" : 10.8510761260468,
                                    "duration" : 58
                                  }
                                ]
                              },
                              "stroke-color-blue" : 1.0,
                              "stroke-color-green" : 1.0,
                              "stroke-color-opacity" : 1.0,
                              "stroke-color-red" : 1.0,
                              "stroke-width" : 0.0,
                              "width" : {
                                "type" : "double",
                                "defaultValue" : 6.88782755517832,
                                "keyframes" : [
                                  {
                                    "endTime" : 54,
                                    "time" : 18,
                                    "value" : 1281.28316541273,
                                    "duration" : 36
                                  },
                                  {
                                    "endTime" : 136,
                                    "time" : 78,
                                    "value" : 1302.87700103543,
                                    "duration" : 58
                                  }
                                ]
                              },
                              "fill-style" : "solid",
                              "horizontal-alignment" : "center",
                              "stroke-style" : "solid",
                              "vertical-alignment" : "center",
                              "textAttributes" : {
                                "type" : "textAttributeList",
                                "keyframes" : [
                                  {
                                    "endTime" : 0,
                                    "time" : 0,
                                    "value" : null,
                                    "duration" : 0
                                  }
                                ]
                              }
                            },
                            "attributes" : {
                              "autoRotateText" : true
                            },
                            "parameters" : {
                              "translation0" : {
                                "type" : "double",
                                "defaultValue" : -1.21547438780567e-10,
                                "keyframes" : [
                                  {
                                    "endTime" : 54,
                                    "time" : 18,
                                    "value" : -0.0541988189824127,
                                    "duration" : 36
                                  },
                                  {
                                    "endTime" : 136,
                                    "time" : 78,
                                    "value" : -1.21547438780567e-10,
                                    "duration" : 58
                                  }
                                ]
                              },
                              "translation1" : {
                                "type" : "double",
                                "defaultValue" : 78.8579651656907,
                                "keyframes" : [
                                  {
                                    "endTime" : 54,
                                    "time" : 18,
                                    "value" : 78.8936575656383,
                                    "duration" : 36
                                  },
                                  {
                                    "endTime" : 136,
                                    "time" : 78,
                                    "value" : 694.705445748916,
                                    "duration" : 58
                                  }
                                ]
                              }
                            },
                            "effects" : [

                            ],
                            "start" : 38,
                            "duration" : 142,
                            "mediaStart" : 18,
                            "mediaDuration" : 142,
                            "scalar" : 1,
                            "metadata" : {
                              "WinSubProjectDisplayName" : "",
                              "clipSpeedAttribute" : false
                            },
                            "animationTracks" : {
                              "visual" : [
                                {
                                  "endTime" : 54,
                                  "duration" : 36,
                                  "range" : [ 18, 36],
                                  "interp" : "eioe"
                                },
                                {
                                  "endTime" : 136,
                                  "duration" : 58,
                                  "range" : [ 78, 58],
                                  "interp" : "eioe"
                                }
                              ]
                            }
                          }
                        ],
                          "ident" : "",
                          "audioMuted" : false,
                          "videoHidden" : false,
                          "magnetic" : false,
                          "metadata" : {
                            "IsLocked" : "False",
                            "WinTrackHeight" : "6.39079466327898e-312"
                          }
                      },
                      {
                        "trackIndex" : 2,
                        "medias" : [
                          {
                            "id" : 388,
                            "_type" : "Callout",
                            "def" : {
                              "kind" : "remix",
                              "shape" : "text",
                              "style" : "abstract",
                              "height" : 180.630981445261,
                              "line-spacing" : 0.0,
                              "width" : 1281.17482864961,
                              "word-wrap" : 1.0,
                              "horizontal-alignment" : "center",
                              "resize-behavior" : "resizeText",
                              "text" : "mouse",
                              "vertical-alignment" : "center",
                              "font" : {
                                "color-blue" : 1.0,
                                "color-green" : 1.0,
                                "color-red" : 1.0,
                                "size" : 96.0,
                                "tracking" : 0.0,
                                "name" : "Lato",
                                "weight" : "Regular"
                              },
                              "textAttributes" : {
                                "type" : "textAttributeList",
                                "keyframes" : [
                                  {
                                    "endTime" : 0,
                                    "time" : 0,
                                    "value" : [{"name":"kerning","rangeEnd":5,"rangeStart":0,"value":0,"valueType":"double"},{"name":"fontWeight","rangeEnd":5,"rangeStart":0,"value":400,"valueType":"int"},{"name":"fontName","rangeEnd":5,"rangeStart":0,"value":"Montserrat","valueType":"string"},{"name":"strikethrough","rangeEnd":5,"rangeStart":0,"value":0,"valueType":"int"},{"name":"fontItalic","rangeEnd":5,"rangeStart":0,"value":0,"valueType":"int"},{"name":"fontSize","rangeEnd":5,"rangeStart":0,"value":128,"valueType":"double"},{"name":"underline","rangeEnd":5,"rangeStart":0,"value":0,"valueType":"int"},{"name":"fgColor","rangeEnd":5,"rangeStart":0,"value":"(255,255,255,255)","valueType":"color"}],
                                    "duration" : 0
                                  }
                                ]
                              }
                            },
                            "attributes" : {
                              "autoRotateText" : true
                            },
                            "parameters" : {
                              "translation0" : {
                                "type" : "double",
                                "defaultValue" : 0.412585675275182,
                                "keyframes" : [
                                  {
                                    "endTime" : 98,
                                    "time" : 94,
                                    "value" : 0.515762773057694,
                                    "duration" : 4
                                  },
                                  {
                                    "endTime" : 152,
                                    "time" : 98,
                                    "value" : 11.2636728451827,
                                    "duration" : 54
                                  }
                                ]
                              },
                              "translation1" : {
                                "type" : "double",
                                "defaultValue" : -5.81178581660322,
                                "keyframes" : [
                                  {
                                    "endTime" : 98,
                                    "time" : 94,
                                    "value" : 0.0461146655209772,
                                    "duration" : 4
                                  },
                                  {
                                    "endTime" : 152,
                                    "time" : 98,
                                    "value" : 610.000002366703,
                                    "duration" : 54
                                  }
                                ]
                              }
                            },
                            "effects" : [
                                {
                                  "_type" : "GenericBehaviorEffect",
                                  "effectName" : "popUp",
                                  "start" : 34,
                                  "duration" : 142                                ,
                                  "in" : {
                                    "attributes" : {
                                      "name" : "reveal",
                                      "type" : 1,
                                      "characterOrder" : 6,
                                      "offsetBetweenCharacters" : 3,
                                      "suggestedDurationPerCharacter" : 44,
                                      "overlapProportion" : 0,
                                      "movement" : 16,
                                      "springDamping" : 5.0,
                                      "springStiffness" : 50.0,
                                      "bounceBounciness" : 0.45
                                    },
                                    "parameters" : {
                                      "direction" : {
                                        "type" : "int",
                                        "valueBounds" : {
                                          "minValue" : 0,
                                          "maxValue" : 3,
                                          "defaultValue" : 0
                                        },
                                        "uiHints" : {
                                          "userInterfaceType" : 2,
                                          "unitType" : 0
                                        },
                                        "keyframes" : [
                                          {
                                            "endTime" : 0,
                                            "time" : 0,
                                            "value" : 2,
                                            "duration" : 0
                                          }
                                        ]
                                      }
                                    }
                                  
                                  },
                                  "center" : {
                                    "attributes" : {
                                      "name" : "none",
                                      "type" : 1,
                                      "characterOrder" : 6,
                                      "offsetBetweenCharacters" : 0,
                                      "secondsPerLoop" : 1,
                                      "numberOfLoops" : -1,
                                      "delayBetweenLoops" : 0,
                                      "offsetBetweenCharacters" : 0
                                    }
                                  
                                  },
                                  "out" : {
                                    "attributes" : {
                                      "name" : "none",
                                      "type" : 1,
                                      "characterOrder" : 6,
                                      "offsetBetweenCharacters" : 0,
                                      "suggestedDurationPerCharacter" : 0,
                                      "overlapProportion" : 0,
                                      "movement" : -1,
                                      "springDamping" : 5.0,
                                      "springStiffness" : 50.0,
                                      "bounceBounciness" : 0.45
                                    }
                                  
                                  }
                                }
                            ],
                            "start" : 38,
                            "duration" : 142,
                            "mediaStart" : 34,
                            "mediaDuration" : 142,
                            "scalar" : 1,
                            "metadata" : {
                              "WinSubProjectDisplayName" : "",
                              "clipSpeedAttribute" : false,
                              "default-HAlign" : "center",
                              "default-LineSpace" : 0.0,
                              "default-VAlign" : "center",
                              "default-text-attributes" : "[{\"name\":\"fontName\",\"rangeEnd\":15,\"rangeStart\":0,\"value\":\"Montserrat\",\"valueType\":\"string\"},{\"name\":\"fgColor\",\"rangeEnd\":15,\"rangeStart\":0,\"value\":\"(255,255,255,255)\",\"valueType\":\"color\"},{\"name\":\"underline\",\"rangeEnd\":15,\"rangeStart\":0,\"value\":0,\"valueType\":\"int\"},{\"name\":\"strikethrough\",\"rangeEnd\":15,\"rangeStart\":0,\"value\":0,\"valueType\":\"int\"},{\"name\":\"fontSize\",\"rangeEnd\":15,\"rangeStart\":0,\"value\":128,\"valueType\":\"double\"},{\"name\":\"fontItalic\",\"rangeEnd\":15,\"rangeStart\":0,\"value\":0,\"valueType\":\"int\"},{\"name\":\"fontWeight\",\"rangeEnd\":15,\"rangeStart\":0,\"value\":100,\"valueType\":\"int\"}]",
                              "default-translation0" : 0.515806480696419
                            },
                            "animationTracks" : {
                              "visual" : [
                                {
                                  "endTime" : 98,
                                  "duration" : 4,
                                  "range" : [ 94, 4]
                                },
                                {
                                  "endTime" : 152,
                                  "duration" : 54,
                                  "range" : [ 98, 54],
                                  "interp" : "eioe"
                                }
                              ]
                            }
                          }
                        ],
                          "ident" : "",
                          "audioMuted" : false,
                          "videoHidden" : false,
                          "magnetic" : false,
                          "metadata" : {
                            "IsLocked" : "False",
                            "WinTrackHeight" : "6.39079466327898e-312"
                          }
                      },
                      {
                        "trackIndex" : 3,
                        "medias" : [
                          {
                            "id" : 389,
                            "_type" : "Callout",
                            "def" : {
                              "kind" : "remix",
                              "shape" : "text",
                              "style" : "abstract",
                              "height" : 83.6840731068824,
                              "line-spacing" : 0.0,
                              "width" : 1281.28322521409,
                              "word-wrap" : 1.0,
                              "horizontal-alignment" : "center",
                              "resize-behavior" : "resizeText",
                              "text" : "looks",
                              "vertical-alignment" : "center",
                              "font" : {
                                "color-blue" : 1.0,
                                "color-green" : 1.0,
                                "color-red" : 1.0,
                                "size" : 96.0,
                                "tracking" : 0.0,
                                "name" : "Lato",
                                "weight" : "Regular"
                              },
                              "textAttributes" : {
                                "type" : "textAttributeList",
                                "keyframes" : [
                                  {
                                    "endTime" : 0,
                                    "time" : 0,
                                    "value" : [{"name":"fontWeight","rangeEnd":5,"rangeStart":0,"value":400,"valueType":"int"},{"name":"fontItalic","rangeEnd":5,"rangeStart":0,"value":0,"valueType":"int"},{"name":"fontName","rangeEnd":5,"rangeStart":0,"value":"Montserrat","valueType":"string"},{"name":"fontSize","rangeEnd":5,"rangeStart":0,"value":60,"valueType":"double"},{"name":"kerning","rangeEnd":5,"rangeStart":0,"value":0,"valueType":"double"},{"name":"fgColor","rangeEnd":5,"rangeStart":0,"value":"(0,0,0,255)","valueType":"color"},{"name":"underline","rangeEnd":5,"rangeStart":0,"value":0,"valueType":"int"},{"name":"strikethrough","rangeEnd":5,"rangeStart":0,"value":0,"valueType":"int"}],
                                    "duration" : 0
                                  }
                                ]
                              }
                            },
                            "attributes" : {
                              "autoRotateText" : true
                            },
                            "parameters" : {
                              "translation0" : {
                                "type" : "double",
                                "defaultValue" : 0.304200155246711,
                                "keyframes" : [
                                  {
                                    "endTime" : 110,
                                    "time" : 52,
                                    "value" : -1.86383482943485,
                                    "duration" : 58
                                  }
                                ]
                              },
                              "translation1" : {
                                "type" : "double",
                                "defaultValue" : -96.1538223700724,
                                "keyframes" : [
                                  {
                                    "endTime" : 110,
                                    "time" : 52,
                                    "value" : -658.500002366703,
                                    "duration" : 58
                                  }
                                ]
                              }
                            },
                            "effects" : [
                                {
                                  "_type" : "GenericBehaviorEffect",
                                  "effectName" : "popUp",
                                  "start" : 0,
                                  "duration" : 138                                ,
                                  "in" : {
                                    "attributes" : {
                                      "name" : "reveal",
                                      "type" : 1,
                                      "characterOrder" : 7,
                                      "offsetBetweenCharacters" : 3,
                                      "suggestedDurationPerCharacter" : 44,
                                      "overlapProportion" : 0,
                                      "movement" : 16,
                                      "springDamping" : 5.0,
                                      "springStiffness" : 50.0,
                                      "bounceBounciness" : 0.45
                                    },
                                    "parameters" : {
                                      "direction" : {
                                        "type" : "int",
                                        "valueBounds" : {
                                          "minValue" : 0,
                                          "maxValue" : 3,
                                          "defaultValue" : 0
                                        },
                                        "uiHints" : {
                                          "userInterfaceType" : 2,
                                          "unitType" : 0
                                        },
                                        "keyframes" : [
                                          {
                                            "endTime" : 0,
                                            "time" : 0,
                                            "value" : 0,
                                            "duration" : 0
                                          }
                                        ]
                                      }
                                    }
                                  
                                  },
                                  "center" : {
                                    "attributes" : {
                                      "name" : "none",
                                      "type" : 1,
                                      "characterOrder" : 6,
                                      "offsetBetweenCharacters" : 0,
                                      "secondsPerLoop" : 1,
                                      "numberOfLoops" : -1,
                                      "delayBetweenLoops" : 0,
                                      "offsetBetweenCharacters" : 0
                                    }
                                  
                                  },
                                  "out" : {
                                    "attributes" : {
                                      "name" : "none",
                                      "type" : 1,
                                      "characterOrder" : 6,
                                      "offsetBetweenCharacters" : 0,
                                      "suggestedDurationPerCharacter" : 0,
                                      "overlapProportion" : 0,
                                      "movement" : -1,
                                      "springDamping" : 5.0,
                                      "springStiffness" : 50.0,
                                      "bounceBounciness" : 0.45
                                    }
                                  
                                  }
                                }
                            ],
                            "start" : 42,
                            "duration" : 138,
                            "mediaStart" : 0,
                            "mediaDuration" : 138,
                            "scalar" : 1,
                            "metadata" : {
                              "WinSubProjectDisplayName" : "",
                              "clipSpeedAttribute" : false,
                              "default-HAlign" : "center",
                              "default-LineSpace" : 0.0,
                              "default-VAlign" : "center",
                              "default-text-attributes" : "[{\"name\":\"fontName\",\"rangeEnd\":17,\"rangeStart\":0,\"value\":\"Montserrat\",\"valueType\":\"string\"},{\"name\":\"strikethrough\",\"rangeEnd\":17,\"rangeStart\":0,\"value\":0,\"valueType\":\"int\"},{\"name\":\"fontWeight\",\"rangeEnd\":17,\"rangeStart\":0,\"value\":100,\"valueType\":\"int\"},{\"name\":\"fontSize\",\"rangeEnd\":17,\"rangeStart\":0,\"value\":60,\"valueType\":\"double\"},{\"name\":\"fontItalic\",\"rangeEnd\":17,\"rangeStart\":0,\"value\":0,\"valueType\":\"int\"},{\"name\":\"fgColor\",\"rangeEnd\":17,\"rangeStart\":0,\"value\":\"(0,0,0,255)\",\"valueType\":\"color\"},{\"name\":\"underline\",\"rangeEnd\":17,\"rangeStart\":0,\"value\":0,\"valueType\":\"int\"}]",
                              "default-translation0" : 0.358387392787593
                            },
                            "animationTracks" : {
                              "visual" : [
                                {
                                  "endTime" : 110,
                                  "duration" : 58,
                                  "range" : [ 52, 58],
                                  "interp" : "eioe"
                                }
                              ]
                            }
                          }
                        ],
                          "ident" : "",
                          "audioMuted" : false,
                          "videoHidden" : false,
                          "magnetic" : false,
                          "metadata" : {
                            "IsLocked" : "False",
                            "WinTrackHeight" : "6.39079466327898e-312"
                          }
                      }
                    ],
                    "attributes" : {
                      "ident" : "Simple Bright Title 3",
                      "gain" : 1.0,
                      "mixToMono" : false,
                      "assetProperties" : [
                        {
                          "type" : 0,
                          "name" : "Title",
                          "objects" : [ 388 ],
                          "themeMappings" :  {
                            "font-color" : "foreground-1",
                            "font-family" : "font-1"
                          }
                        },
                        {
                          "type" : 0,
                          "name" : "Subtitle",
                          "objects" : [ 389 ],
                          "themeMappings" :  {
                            "font-color" : "background-1",
                            "font-family" : "font-1"
                          }
                        },
                        {
                          "type" : 1,
                          "name" : "Color 1",
                          "objects" : [ 386, 387 ],
                          "themeMappings" :  {
                            "fill" : "accent-1"
                          }
                        }
                      ]
                    },
                    "effects" : [

                    ],
                    "start" : 33652,
                    "duration" : 210,
                    "mediaStart" : -30.0,
                    "mediaDuration" : 210.0,
                    "scalar" : 1,
                    "metadata" : {
                      "AppliedThemeId" : "",
                      "IsGroupExpanded" : "False",
                      "WinSubProjectDisplayName" : "Simple Bright Title 3",
                      "clipSpeedAttribute" : false,
                      "effectApplied" : "none",
                      "isOpen" : false
                    },
                    "animationTracks" : {

                    }
                  },
                  {
                    "id" : 390,
                    "_type" : "UnifiedMedia",
                    "video" : 
                        {
                          "id" : 391,
                          "_type" : "ScreenVMFile",
                          "src" : 37,
                          "trackNumber" : 0,
                          "attributes" : {
                            "ident" : "scratch-7.5-sensing-mouse"
                          },
                          "parameters" : {
                            "cursorScale" : {
                              "type" : "double",
                              "defaultValue" : 1.0,
                              "interp" : "linr"
                            },
                            "cursorOpacity" : {
                              "type" : "double",
                              "defaultValue" : 1.0,
                              "interp" : "linr"
                            }
                          },
                          "effects" : [

                          ],
                          "start" : 33862,
                          "duration" : 1076,
                          "mediaStart" : 0,
                          "mediaDuration" : 1076,
                          "scalar" : 1,
                          "animationTracks" : {

                          }
                        },
                    "audio" : 
                        {
                          "id" : 392,
                          "_type" : "AMFile",
                          "src" : 37,
                          "trackNumber" : 1,
                          "attributes" : {
                            "ident" : "",
                            "gain" : 1.0,
                            "mixToMono" : false
                          },
                            "channelNumber" : "0,1",
                          "effects" : [

                          ],
                          "start" : 33862,
                          "duration" : 1076,
                          "mediaStart" : 0,
                          "mediaDuration" : 1076,
                          "scalar" : 1,
                          "animationTracks" : {

                          }
                        }
,
                    "start" : 33862,
                    "duration" : 1076,
                    "mediaStart" : 0,
                    "mediaDuration" : 1076,
                    "scalar" : 1,
                    "metadata" : {
                      "AutoAppliedSmartFocus" : "False",
                      "clipSpeedAttribute" : false
                    }
                  },
                  {
                    "id" : 393,
                    "_type" : "Group",
                    "parameters" : {
                      "translation0" : 1.21531229524408e-10,
                      "translation1" : 64.0087015010489,
                      "volume" : 1.0
                    },
                    "tracks" : [
                      {
                        "trackIndex" : 0,
                        "medias" : [
                          {
                            "id" : 394,
                            "_type" : "Callout",
                            "def" : {
                              "kind" : "remix",
                              "shape" : "shape-rectangle",
                              "style" : "urban",
                              "fill-color-blue" : {
                                "type" : "double",
                                "defaultValue" : 1.0,
                                "keyframes" : [
                                  {
                                    "endTime" : 56,
                                    "time" : 18,
                                    "value" : 1.0,
                                    "duration" : 38
                                  },
                                  {
                                    "endTime" : 92,
                                    "time" : 56,
                                    "value" : 0.149019607843137,
                                    "duration" : 36
                                  },
                                  {
                                    "endTime" : 174,
                                    "time" : 116,
                                    "value" : 0.149019607843137,
                                    "duration" : 58
                                  }
                                ]
                              },
                              "fill-color-green" : {
                                "type" : "double",
                                "defaultValue" : 1.0,
                                "keyframes" : [
                                  {
                                    "endTime" : 56,
                                    "time" : 18,
                                    "value" : 1.0,
                                    "duration" : 38
                                  },
                                  {
                                    "endTime" : 92,
                                    "time" : 56,
                                    "value" : 0.96078431372549,
                                    "duration" : 36
                                  },
                                  {
                                    "endTime" : 174,
                                    "time" : 116,
                                    "value" : 0.96078431372549,
                                    "duration" : 58
                                  }
                                ]
                              },
                              "fill-color-opacity" : 1.0,
                              "fill-color-red" : {
                                "type" : "double",
                                "defaultValue" : 1.0,
                                "keyframes" : [
                                  {
                                    "endTime" : 56,
                                    "time" : 18,
                                    "value" : 1.0,
                                    "duration" : 38
                                  },
                                  {
                                    "endTime" : 92,
                                    "time" : 56,
                                    "value" : 0.933333333333333,
                                    "duration" : 36
                                  },
                                  {
                                    "endTime" : 174,
                                    "time" : 116,
                                    "value" : 0.933333333333333,
                                    "duration" : 58
                                  }
                                ]
                              },
                              "height" : {
                                "type" : "double",
                                "defaultValue" : 10.8510761260468,
                                "keyframes" : [
                                  {
                                    "endTime" : 56,
                                    "time" : 18,
                                    "value" : 24.9687231850678,
                                    "duration" : 38
                                  },
                                  {
                                    "endTime" : 92,
                                    "time" : 56,
                                    "value" : 1281.28323719656,
                                    "duration" : 36
                                  },
                                  {
                                    "endTime" : 174,
                                    "time" : 116,
                                    "value" : 1347.6353898526,
                                    "duration" : 58
                                  }
                                ]
                              },
                              "stroke-color-blue" : 1.0,
                              "stroke-color-green" : 1.0,
                              "stroke-color-opacity" : 1.0,
                              "stroke-color-red" : 1.0,
                              "stroke-width" : 0.0,
                              "width" : {
                                "type" : "double",
                                "defaultValue" : 6.88782755517832,
                                "keyframes" : [
                                  {
                                    "endTime" : 56,
                                    "time" : 18,
                                    "value" : 67.9394975592671,
                                    "duration" : 38
                                  },
                                  {
                                    "endTime" : 92,
                                    "time" : 56,
                                    "value" : 67.9394975592671,
                                    "duration" : 36
                                  },
                                  {
                                    "endTime" : 174,
                                    "time" : 116,
                                    "value" : 68.0763125888445,
                                    "duration" : 58
                                  }
                                ]
                              },
                              "fill-style" : "solid",
                              "horizontal-alignment" : "center",
                              "stroke-style" : "solid",
                              "vertical-alignment" : "center",
                              "textAttributes" : {
                                "type" : "textAttributeList",
                                "keyframes" : [
                                  {
                                    "endTime" : 0,
                                    "time" : 0,
                                    "value" : null,
                                    "duration" : 0
                                  }
                                ]
                              }
                            },
                            "attributes" : {
                              "autoRotateText" : true
                            },
                            "parameters" : {
                              "translation0" : {
                                "type" : "double",
                                "defaultValue" : -1.21547438780567e-10,
                                "keyframes" : [
                                  {
                                    "endTime" : 56,
                                    "time" : 18,
                                    "value" : -1.21547438780567e-10,
                                    "duration" : 38
                                  },
                                  {
                                    "endTime" : 92,
                                    "time" : 56,
                                    "value" : 0.0541990816513973,
                                    "duration" : 36
                                  },
                                  {
                                    "endTime" : 174,
                                    "time" : 116,
                                    "value" : -1.67577274979808e-14,
                                    "duration" : 58
                                  }
                                ]
                              },
                              "translation1" : {
                                "type" : "double",
                                "defaultValue" : -96.3117858166865,
                                "keyframes" : [
                                  {
                                    "endTime" : 56,
                                    "time" : 18,
                                    "value" : -96.3117858166865,
                                    "duration" : 38
                                  },
                                  {
                                    "endTime" : 92,
                                    "time" : 56,
                                    "value" : -96.3117858166865,
                                    "duration" : 36
                                  },
                                  {
                                    "endTime" : 174,
                                    "time" : 116,
                                    "value" : -658.65796581331,
                                    "duration" : 58
                                  }
                                ]
                              },
                              "rotation2" : {
                                "type" : "double",
                                "defaultValue" : 0.0,
                                "keyframes" : [
                                  {
                                    "endTime" : 56,
                                    "time" : 18,
                                    "value" : -1.5707963267949,
                                    "duration" : 38
                                  }
                                ]
                              }
                            },
                            "effects" : [

                            ],
                            "start" : -30,
                            "duration" : 210,
                            "mediaStart" : -12,
                            "mediaDuration" : 210,
                            "scalar" : 1,
                            "metadata" : {
                              "WinSubProjectDisplayName" : "",
                              "clipSpeedAttribute" : false
                            },
                            "animationTracks" : {
                              "visual" : [
                                {
                                  "endTime" : 56,
                                  "duration" : 38,
                                  "range" : [ 18, 38],
                                  "interp" : "eioe"
                                },
                                {
                                  "endTime" : 92,
                                  "duration" : 36,
                                  "range" : [ 56, 36],
                                  "interp" : "eioe"
                                },
                                {
                                  "endTime" : 174,
                                  "duration" : 58,
                                  "range" : [ 116, 58]
                                }
                              ]
                            }
                          }
                        ],
                          "ident" : "",
                          "audioMuted" : false,
                          "videoHidden" : false,
                          "magnetic" : false,
                          "metadata" : {
                            "IsLocked" : "False",
                            "WinTrackHeight" : "0"
                          }
                      },
                      {
                        "trackIndex" : 1,
                        "medias" : [
                          {
                            "id" : 395,
                            "_type" : "Callout",
                            "def" : {
                              "kind" : "remix",
                              "shape" : "shape-rectangle",
                              "style" : "urban",
                              "fill-color-blue" : {
                                "type" : "double",
                                "defaultValue" : 1.0,
                                "keyframes" : [
                                  {
                                    "endTime" : 54,
                                    "time" : 18,
                                    "value" : 0.149019607843137,
                                    "duration" : 36
                                  },
                                  {
                                    "endTime" : 136,
                                    "time" : 78,
                                    "value" : 1.0,
                                    "duration" : 58
                                  }
                                ]
                              },
                              "fill-color-green" : {
                                "type" : "double",
                                "defaultValue" : 1.0,
                                "keyframes" : [
                                  {
                                    "endTime" : 54,
                                    "time" : 18,
                                    "value" : 0.96078431372549,
                                    "duration" : 36
                                  },
                                  {
                                    "endTime" : 136,
                                    "time" : 78,
                                    "value" : 1.0,
                                    "duration" : 58
                                  }
                                ]
                              },
                              "fill-color-opacity" : 1.0,
                              "fill-color-red" : {
                                "type" : "double",
                                "defaultValue" : 1.0,
                                "keyframes" : [
                                  {
                                    "endTime" : 54,
                                    "time" : 18,
                                    "value" : 0.933333333333333,
                                    "duration" : 36
                                  },
                                  {
                                    "endTime" : 136,
                                    "time" : 78,
                                    "value" : 1.0,
                                    "duration" : 58
                                  }
                                ]
                              },
                              "height" : {
                                "type" : "double",
                                "defaultValue" : 10.8510761260468,
                                "keyframes" : [
                                  {
                                    "endTime" : 54,
                                    "time" : 18,
                                    "value" : 10.8510761260468,
                                    "duration" : 36
                                  },
                                  {
                                    "endTime" : 136,
                                    "time" : 78,
                                    "value" : 10.8510761260468,
                                    "duration" : 58
                                  }
                                ]
                              },
                              "stroke-color-blue" : 1.0,
                              "stroke-color-green" : 1.0,
                              "stroke-color-opacity" : 1.0,
                              "stroke-color-red" : 1.0,
                              "stroke-width" : 0.0,
                              "width" : {
                                "type" : "double",
                                "defaultValue" : 6.88782755517832,
                                "keyframes" : [
                                  {
                                    "endTime" : 54,
                                    "time" : 18,
                                    "value" : 1281.28316541273,
                                    "duration" : 36
                                  },
                                  {
                                    "endTime" : 136,
                                    "time" : 78,
                                    "value" : 1302.87700103543,
                                    "duration" : 58
                                  }
                                ]
                              },
                              "fill-style" : "solid",
                              "horizontal-alignment" : "center",
                              "stroke-style" : "solid",
                              "vertical-alignment" : "center",
                              "textAttributes" : {
                                "type" : "textAttributeList",
                                "keyframes" : [
                                  {
                                    "endTime" : 0,
                                    "time" : 0,
                                    "value" : null,
                                    "duration" : 0
                                  }
                                ]
                              }
                            },
                            "attributes" : {
                              "autoRotateText" : true
                            },
                            "parameters" : {
                              "translation0" : {
                                "type" : "double",
                                "defaultValue" : -1.21547438780567e-10,
                                "keyframes" : [
                                  {
                                    "endTime" : 54,
                                    "time" : 18,
                                    "value" : -0.0541988189824127,
                                    "duration" : 36
                                  },
                                  {
                                    "endTime" : 136,
                                    "time" : 78,
                                    "value" : -1.21547438780567e-10,
                                    "duration" : 58
                                  }
                                ]
                              },
                              "translation1" : {
                                "type" : "double",
                                "defaultValue" : 78.8579651656907,
                                "keyframes" : [
                                  {
                                    "endTime" : 54,
                                    "time" : 18,
                                    "value" : 78.8936575656383,
                                    "duration" : 36
                                  },
                                  {
                                    "endTime" : 136,
                                    "time" : 78,
                                    "value" : 694.705445748916,
                                    "duration" : 58
                                  }
                                ]
                              }
                            },
                            "effects" : [

                            ],
                            "start" : 38,
                            "duration" : 142,
                            "mediaStart" : 18,
                            "mediaDuration" : 142,
                            "scalar" : 1,
                            "metadata" : {
                              "WinSubProjectDisplayName" : "",
                              "clipSpeedAttribute" : false
                            },
                            "animationTracks" : {
                              "visual" : [
                                {
                                  "endTime" : 54,
                                  "duration" : 36,
                                  "range" : [ 18, 36],
                                  "interp" : "eioe"
                                },
                                {
                                  "endTime" : 136,
                                  "duration" : 58,
                                  "range" : [ 78, 58],
                                  "interp" : "eioe"
                                }
                              ]
                            }
                          }
                        ],
                          "ident" : "",
                          "audioMuted" : false,
                          "videoHidden" : false,
                          "magnetic" : false,
                          "metadata" : {
                            "IsLocked" : "False",
                            "WinTrackHeight" : "6.39079466327898e-312"
                          }
                      },
                      {
                        "trackIndex" : 2,
                        "medias" : [
                          {
                            "id" : 396,
                            "_type" : "Callout",
                            "def" : {
                              "kind" : "remix",
                              "shape" : "text",
                              "style" : "abstract",
                              "height" : 180.630981445261,
                              "line-spacing" : 0.0,
                              "width" : 1281.17482864961,
                              "word-wrap" : 1.0,
                              "horizontal-alignment" : "center",
                              "resize-behavior" : "resizeText",
                              "text" : "timer",
                              "vertical-alignment" : "center",
                              "font" : {
                                "color-blue" : 1.0,
                                "color-green" : 1.0,
                                "color-red" : 1.0,
                                "size" : 96.0,
                                "tracking" : 0.0,
                                "name" : "Lato",
                                "weight" : "Regular"
                              },
                              "textAttributes" : {
                                "type" : "textAttributeList",
                                "keyframes" : [
                                  {
                                    "endTime" : 0,
                                    "time" : 0,
                                    "value" : [{"name":"fgColor","rangeEnd":5,"rangeStart":0,"value":"(255,255,255,255)","valueType":"color"},{"name":"fontSize","rangeEnd":5,"rangeStart":0,"value":128,"valueType":"double"},{"name":"underline","rangeEnd":5,"rangeStart":0,"value":0,"valueType":"int"},{"name":"strikethrough","rangeEnd":5,"rangeStart":0,"value":0,"valueType":"int"},{"name":"fontName","rangeEnd":5,"rangeStart":0,"value":"Montserrat","valueType":"string"},{"name":"kerning","rangeEnd":5,"rangeStart":0,"value":0,"valueType":"double"},{"name":"fontItalic","rangeEnd":5,"rangeStart":0,"value":0,"valueType":"int"},{"name":"fontWeight","rangeEnd":5,"rangeStart":0,"value":400,"valueType":"int"}],
                                    "duration" : 0
                                  }
                                ]
                              }
                            },
                            "attributes" : {
                              "autoRotateText" : true
                            },
                            "parameters" : {
                              "translation0" : {
                                "type" : "double",
                                "defaultValue" : 0.412585675275182,
                                "keyframes" : [
                                  {
                                    "endTime" : 152,
                                    "time" : 94,
                                    "value" : 11.2636728451827,
                                    "duration" : 58
                                  }
                                ]
                              },
                              "translation1" : {
                                "type" : "double",
                                "defaultValue" : -5.81178581660322,
                                "keyframes" : [
                                  {
                                    "endTime" : 152,
                                    "time" : 94,
                                    "value" : 610.000002366703,
                                    "duration" : 58
                                  }
                                ]
                              }
                            },
                            "effects" : [
                                {
                                  "_type" : "GenericBehaviorEffect",
                                  "effectName" : "popUp",
                                  "start" : 34,
                                  "duration" : 142                                ,
                                  "in" : {
                                    "attributes" : {
                                      "name" : "reveal",
                                      "type" : 1,
                                      "characterOrder" : 6,
                                      "offsetBetweenCharacters" : 3,
                                      "suggestedDurationPerCharacter" : 44,
                                      "overlapProportion" : 0,
                                      "movement" : 16,
                                      "springDamping" : 5.0,
                                      "springStiffness" : 50.0,
                                      "bounceBounciness" : 0.45
                                    },
                                    "parameters" : {
                                      "direction" : {
                                        "type" : "int",
                                        "valueBounds" : {
                                          "minValue" : 0,
                                          "maxValue" : 3,
                                          "defaultValue" : 0
                                        },
                                        "uiHints" : {
                                          "userInterfaceType" : 2,
                                          "unitType" : 0
                                        },
                                        "keyframes" : [
                                          {
                                            "endTime" : 0,
                                            "time" : 0,
                                            "value" : 2,
                                            "duration" : 0
                                          }
                                        ]
                                      }
                                    }
                                  
                                  },
                                  "center" : {
                                    "attributes" : {
                                      "name" : "none",
                                      "type" : 1,
                                      "characterOrder" : 6,
                                      "offsetBetweenCharacters" : 0,
                                      "secondsPerLoop" : 1,
                                      "numberOfLoops" : -1,
                                      "delayBetweenLoops" : 0,
                                      "offsetBetweenCharacters" : 0
                                    }
                                  
                                  },
                                  "out" : {
                                    "attributes" : {
                                      "name" : "none",
                                      "type" : 1,
                                      "characterOrder" : 6,
                                      "offsetBetweenCharacters" : 0,
                                      "suggestedDurationPerCharacter" : 0,
                                      "overlapProportion" : 0,
                                      "movement" : -1,
                                      "springDamping" : 5.0,
                                      "springStiffness" : 50.0,
                                      "bounceBounciness" : 0.45
                                    }
                                  
                                  }
                                }
                            ],
                            "start" : 38,
                            "duration" : 142,
                            "mediaStart" : 34,
                            "mediaDuration" : 142,
                            "scalar" : 1,
                            "metadata" : {
                              "WinSubProjectDisplayName" : "",
                              "clipSpeedAttribute" : false,
                              "default-HAlign" : "center",
                              "default-LineSpace" : 0.0,
                              "default-VAlign" : "center",
                              "default-text-attributes" : "[{\"name\":\"fontName\",\"rangeEnd\":15,\"rangeStart\":0,\"value\":\"Montserrat\",\"valueType\":\"string\"},{\"name\":\"fgColor\",\"rangeEnd\":15,\"rangeStart\":0,\"value\":\"(255,255,255,255)\",\"valueType\":\"color\"},{\"name\":\"underline\",\"rangeEnd\":15,\"rangeStart\":0,\"value\":0,\"valueType\":\"int\"},{\"name\":\"strikethrough\",\"rangeEnd\":15,\"rangeStart\":0,\"value\":0,\"valueType\":\"int\"},{\"name\":\"fontSize\",\"rangeEnd\":15,\"rangeStart\":0,\"value\":128,\"valueType\":\"double\"},{\"name\":\"fontItalic\",\"rangeEnd\":15,\"rangeStart\":0,\"value\":0,\"valueType\":\"int\"},{\"name\":\"fontWeight\",\"rangeEnd\":15,\"rangeStart\":0,\"value\":100,\"valueType\":\"int\"}]"
                            },
                            "animationTracks" : {
                              "visual" : [
                                {
                                  "endTime" : 152,
                                  "duration" : 58,
                                  "range" : [ 94, 58],
                                  "interp" : "eioe"
                                }
                              ]
                            }
                          }
                        ],
                          "ident" : "",
                          "audioMuted" : false,
                          "videoHidden" : false,
                          "magnetic" : false,
                          "metadata" : {
                            "IsLocked" : "False",
                            "WinTrackHeight" : "6.39079466327898e-312"
                          }
                      },
                      {
                        "trackIndex" : 3,
                        "medias" : [
                          {
                            "id" : 397,
                            "_type" : "Callout",
                            "def" : {
                              "kind" : "remix",
                              "shape" : "text",
                              "style" : "abstract",
                              "height" : 83.6840731068824,
                              "line-spacing" : 0.0,
                              "width" : 1281.28322521409,
                              "word-wrap" : 1.0,
                              "horizontal-alignment" : "center",
                              "resize-behavior" : "resizeText",
                              "text" : "looks",
                              "vertical-alignment" : "center",
                              "font" : {
                                "color-blue" : 1.0,
                                "color-green" : 1.0,
                                "color-red" : 1.0,
                                "size" : 96.0,
                                "tracking" : 0.0,
                                "name" : "Lato",
                                "weight" : "Regular"
                              },
                              "textAttributes" : {
                                "type" : "textAttributeList",
                                "keyframes" : [
                                  {
                                    "endTime" : 0,
                                    "time" : 0,
                                    "value" : [{"name":"fontWeight","rangeEnd":5,"rangeStart":0,"value":400,"valueType":"int"},{"name":"fontItalic","rangeEnd":5,"rangeStart":0,"value":0,"valueType":"int"},{"name":"fontName","rangeEnd":5,"rangeStart":0,"value":"Montserrat","valueType":"string"},{"name":"fontSize","rangeEnd":5,"rangeStart":0,"value":60,"valueType":"double"},{"name":"kerning","rangeEnd":5,"rangeStart":0,"value":0,"valueType":"double"},{"name":"fgColor","rangeEnd":5,"rangeStart":0,"value":"(0,0,0,255)","valueType":"color"},{"name":"underline","rangeEnd":5,"rangeStart":0,"value":0,"valueType":"int"},{"name":"strikethrough","rangeEnd":5,"rangeStart":0,"value":0,"valueType":"int"}],
                                    "duration" : 0
                                  }
                                ]
                              }
                            },
                            "attributes" : {
                              "autoRotateText" : true
                            },
                            "parameters" : {
                              "translation0" : {
                                "type" : "double",
                                "defaultValue" : 0.304200155246711,
                                "keyframes" : [
                                  {
                                    "endTime" : 110,
                                    "time" : 52,
                                    "value" : -1.86383482943485,
                                    "duration" : 58
                                  }
                                ]
                              },
                              "translation1" : {
                                "type" : "double",
                                "defaultValue" : -96.1538223700724,
                                "keyframes" : [
                                  {
                                    "endTime" : 110,
                                    "time" : 52,
                                    "value" : -658.500002366703,
                                    "duration" : 58
                                  }
                                ]
                              }
                            },
                            "effects" : [
                                {
                                  "_type" : "GenericBehaviorEffect",
                                  "effectName" : "popUp",
                                  "start" : 0,
                                  "duration" : 138                                ,
                                  "in" : {
                                    "attributes" : {
                                      "name" : "reveal",
                                      "type" : 1,
                                      "characterOrder" : 7,
                                      "offsetBetweenCharacters" : 3,
                                      "suggestedDurationPerCharacter" : 44,
                                      "overlapProportion" : 0,
                                      "movement" : 16,
                                      "springDamping" : 5.0,
                                      "springStiffness" : 50.0,
                                      "bounceBounciness" : 0.45
                                    },
                                    "parameters" : {
                                      "direction" : {
                                        "type" : "int",
                                        "valueBounds" : {
                                          "minValue" : 0,
                                          "maxValue" : 3,
                                          "defaultValue" : 0
                                        },
                                        "uiHints" : {
                                          "userInterfaceType" : 2,
                                          "unitType" : 0
                                        },
                                        "keyframes" : [
                                          {
                                            "endTime" : 0,
                                            "time" : 0,
                                            "value" : 0,
                                            "duration" : 0
                                          }
                                        ]
                                      }
                                    }
                                  
                                  },
                                  "center" : {
                                    "attributes" : {
                                      "name" : "none",
                                      "type" : 1,
                                      "characterOrder" : 6,
                                      "offsetBetweenCharacters" : 0,
                                      "secondsPerLoop" : 1,
                                      "numberOfLoops" : -1,
                                      "delayBetweenLoops" : 0,
                                      "offsetBetweenCharacters" : 0
                                    }
                                  
                                  },
                                  "out" : {
                                    "attributes" : {
                                      "name" : "none",
                                      "type" : 1,
                                      "characterOrder" : 6,
                                      "offsetBetweenCharacters" : 0,
                                      "suggestedDurationPerCharacter" : 0,
                                      "overlapProportion" : 0,
                                      "movement" : -1,
                                      "springDamping" : 5.0,
                                      "springStiffness" : 50.0,
                                      "bounceBounciness" : 0.45
                                    }
                                  
                                  }
                                }
                            ],
                            "start" : 42,
                            "duration" : 138,
                            "mediaStart" : 0,
                            "mediaDuration" : 138,
                            "scalar" : 1,
                            "metadata" : {
                              "WinSubProjectDisplayName" : "",
                              "clipSpeedAttribute" : false,
                              "default-HAlign" : "center",
                              "default-LineSpace" : 0.0,
                              "default-VAlign" : "center",
                              "default-text-attributes" : "[{\"name\":\"fontName\",\"rangeEnd\":17,\"rangeStart\":0,\"value\":\"Montserrat\",\"valueType\":\"string\"},{\"name\":\"strikethrough\",\"rangeEnd\":17,\"rangeStart\":0,\"value\":0,\"valueType\":\"int\"},{\"name\":\"fontWeight\",\"rangeEnd\":17,\"rangeStart\":0,\"value\":100,\"valueType\":\"int\"},{\"name\":\"fontSize\",\"rangeEnd\":17,\"rangeStart\":0,\"value\":60,\"valueType\":\"double\"},{\"name\":\"fontItalic\",\"rangeEnd\":17,\"rangeStart\":0,\"value\":0,\"valueType\":\"int\"},{\"name\":\"fgColor\",\"rangeEnd\":17,\"rangeStart\":0,\"value\":\"(0,0,0,255)\",\"valueType\":\"color\"},{\"name\":\"underline\",\"rangeEnd\":17,\"rangeStart\":0,\"value\":0,\"valueType\":\"int\"}]",
                              "default-translation0" : 0.358387392787593
                            },
                            "animationTracks" : {
                              "visual" : [
                                {
                                  "endTime" : 110,
                                  "duration" : 58,
                                  "range" : [ 52, 58],
                                  "interp" : "eioe"
                                }
                              ]
                            }
                          }
                        ],
                          "ident" : "",
                          "audioMuted" : false,
                          "videoHidden" : false,
                          "magnetic" : false,
                          "metadata" : {
                            "IsLocked" : "False",
                            "WinTrackHeight" : "6.39079466327898e-312"
                          }
                      }
                    ],
                    "attributes" : {
                      "ident" : "Simple Bright Title 3",
                      "gain" : 1.0,
                      "mixToMono" : false,
                      "assetProperties" : [
                        {
                          "type" : 0,
                          "name" : "Title",
                          "objects" : [ 396 ],
                          "themeMappings" :  {
                            "font-color" : "foreground-1",
                            "font-family" : "font-1"
                          }
                        },
                        {
                          "type" : 0,
                          "name" : "Subtitle",
                          "objects" : [ 397 ],
                          "themeMappings" :  {
                            "font-color" : "background-1",
                            "font-family" : "font-1"
                          }
                        },
                        {
                          "type" : 1,
                          "name" : "Color 1",
                          "objects" : [ 394, 395 ],
                          "themeMappings" :  {
                            "fill" : "accent-1"
                          }
                        }
                      ]
                    },
                    "effects" : [

                    ],
                    "start" : 34938,
                    "duration" : 210,
                    "mediaStart" : -30.0,
                    "mediaDuration" : 210.0,
                    "scalar" : 1,
                    "metadata" : {
                      "AppliedThemeId" : "",
                      "IsGroupExpanded" : "False",
                      "WinSubProjectDisplayName" : "Simple Bright Title 3",
                      "clipSpeedAttribute" : false,
                      "default-translation1" : 62.3420348343093,
                      "effectApplied" : "none",
                      "isOpen" : false
                    },
                    "animationTracks" : {

                    }
                  },
                  {
                    "id" : 398,
                    "_type" : "UnifiedMedia",
                    "video" : 
                        {
                          "id" : 399,
                          "_type" : "ScreenVMFile",
                          "src" : 38,
                          "trackNumber" : 0,
                          "attributes" : {
                            "ident" : "scratch-7.7-sensing-timer"
                          },
                          "parameters" : {
                            "cursorScale" : {
                              "type" : "double",
                              "defaultValue" : 1.0,
                              "interp" : "linr"
                            },
                            "cursorOpacity" : {
                              "type" : "double",
                              "defaultValue" : 1.0,
                              "interp" : "linr"
                            }
                          },
                          "effects" : [

                          ],
                          "start" : 35148,
                          "duration" : 868,
                          "mediaStart" : 0,
                          "mediaDuration" : 868,
                          "scalar" : 1,
                          "animationTracks" : {

                          }
                        },
                    "audio" : 
                        {
                          "id" : 400,
                          "_type" : "AMFile",
                          "src" : 38,
                          "trackNumber" : 1,
                          "attributes" : {
                            "ident" : "",
                            "gain" : 1.0,
                            "mixToMono" : false
                          },
                            "channelNumber" : "0,1",
                          "effects" : [

                          ],
                          "start" : 35148,
                          "duration" : 868,
                          "mediaStart" : 0,
                          "mediaDuration" : 868,
                          "scalar" : 1,
                          "animationTracks" : {

                          }
                        }
,
                    "start" : 35148,
                    "duration" : 868,
                    "mediaStart" : 0,
                    "mediaDuration" : 868,
                    "scalar" : 1,
                    "metadata" : {
                      "AutoAppliedSmartFocus" : "False",
                      "clipSpeedAttribute" : false
                    }
                  },
                  {
                    "id" : 401,
                    "_type" : "Group",
                    "parameters" : {
                      "translation0" : 1.21531229524408e-10,
                      "translation1" : 60.6753681676919,
                      "volume" : 1.0
                    },
                    "tracks" : [
                      {
                        "trackIndex" : 0,
                        "medias" : [
                          {
                            "id" : 402,
                            "_type" : "Callout",
                            "def" : {
                              "kind" : "remix",
                              "shape" : "shape-rectangle",
                              "style" : "urban",
                              "fill-color-blue" : {
                                "type" : "double",
                                "defaultValue" : 1.0,
                                "keyframes" : [
                                  {
                                    "endTime" : 56,
                                    "time" : 18,
                                    "value" : 1.0,
                                    "duration" : 38
                                  },
                                  {
                                    "endTime" : 92,
                                    "time" : 56,
                                    "value" : 0.149019607843137,
                                    "duration" : 36
                                  },
                                  {
                                    "endTime" : 174,
                                    "time" : 116,
                                    "value" : 0.149019607843137,
                                    "duration" : 58
                                  }
                                ]
                              },
                              "fill-color-green" : {
                                "type" : "double",
                                "defaultValue" : 1.0,
                                "keyframes" : [
                                  {
                                    "endTime" : 56,
                                    "time" : 18,
                                    "value" : 1.0,
                                    "duration" : 38
                                  },
                                  {
                                    "endTime" : 92,
                                    "time" : 56,
                                    "value" : 0.96078431372549,
                                    "duration" : 36
                                  },
                                  {
                                    "endTime" : 174,
                                    "time" : 116,
                                    "value" : 0.96078431372549,
                                    "duration" : 58
                                  }
                                ]
                              },
                              "fill-color-opacity" : 1.0,
                              "fill-color-red" : {
                                "type" : "double",
                                "defaultValue" : 1.0,
                                "keyframes" : [
                                  {
                                    "endTime" : 56,
                                    "time" : 18,
                                    "value" : 1.0,
                                    "duration" : 38
                                  },
                                  {
                                    "endTime" : 92,
                                    "time" : 56,
                                    "value" : 0.933333333333333,
                                    "duration" : 36
                                  },
                                  {
                                    "endTime" : 174,
                                    "time" : 116,
                                    "value" : 0.933333333333333,
                                    "duration" : 58
                                  }
                                ]
                              },
                              "height" : {
                                "type" : "double",
                                "defaultValue" : 10.8510761260468,
                                "keyframes" : [
                                  {
                                    "endTime" : 56,
                                    "time" : 18,
                                    "value" : 24.9687231850678,
                                    "duration" : 38
                                  },
                                  {
                                    "endTime" : 92,
                                    "time" : 56,
                                    "value" : 1281.28323719656,
                                    "duration" : 36
                                  },
                                  {
                                    "endTime" : 174,
                                    "time" : 116,
                                    "value" : 1347.6353898526,
                                    "duration" : 58
                                  }
                                ]
                              },
                              "stroke-color-blue" : 1.0,
                              "stroke-color-green" : 1.0,
                              "stroke-color-opacity" : 1.0,
                              "stroke-color-red" : 1.0,
                              "stroke-width" : 0.0,
                              "width" : {
                                "type" : "double",
                                "defaultValue" : 6.88782755517832,
                                "keyframes" : [
                                  {
                                    "endTime" : 56,
                                    "time" : 18,
                                    "value" : 67.9394975592671,
                                    "duration" : 38
                                  },
                                  {
                                    "endTime" : 92,
                                    "time" : 56,
                                    "value" : 67.9394975592671,
                                    "duration" : 36
                                  },
                                  {
                                    "endTime" : 174,
                                    "time" : 116,
                                    "value" : 68.0763125888445,
                                    "duration" : 58
                                  }
                                ]
                              },
                              "fill-style" : "solid",
                              "horizontal-alignment" : "center",
                              "stroke-style" : "solid",
                              "vertical-alignment" : "center",
                              "textAttributes" : {
                                "type" : "textAttributeList",
                                "keyframes" : [
                                  {
                                    "endTime" : 0,
                                    "time" : 0,
                                    "value" : null,
                                    "duration" : 0
                                  }
                                ]
                              }
                            },
                            "attributes" : {
                              "autoRotateText" : true
                            },
                            "parameters" : {
                              "translation0" : {
                                "type" : "double",
                                "defaultValue" : -1.21547438780567e-10,
                                "keyframes" : [
                                  {
                                    "endTime" : 56,
                                    "time" : 18,
                                    "value" : -1.21547438780567e-10,
                                    "duration" : 38
                                  },
                                  {
                                    "endTime" : 92,
                                    "time" : 56,
                                    "value" : 0.0541990816513973,
                                    "duration" : 36
                                  },
                                  {
                                    "endTime" : 174,
                                    "time" : 116,
                                    "value" : -1.67577274979808e-14,
                                    "duration" : 58
                                  }
                                ]
                              },
                              "translation1" : {
                                "type" : "double",
                                "defaultValue" : -96.3117858166865,
                                "keyframes" : [
                                  {
                                    "endTime" : 56,
                                    "time" : 18,
                                    "value" : -96.3117858166865,
                                    "duration" : 38
                                  },
                                  {
                                    "endTime" : 92,
                                    "time" : 56,
                                    "value" : -96.3117858166865,
                                    "duration" : 36
                                  },
                                  {
                                    "endTime" : 174,
                                    "time" : 116,
                                    "value" : -658.65796581331,
                                    "duration" : 58
                                  }
                                ]
                              },
                              "rotation2" : {
                                "type" : "double",
                                "defaultValue" : 0.0,
                                "keyframes" : [
                                  {
                                    "endTime" : 56,
                                    "time" : 18,
                                    "value" : -1.5707963267949,
                                    "duration" : 38
                                  }
                                ]
                              }
                            },
                            "effects" : [

                            ],
                            "start" : -30,
                            "duration" : 210,
                            "mediaStart" : -12,
                            "mediaDuration" : 210,
                            "scalar" : 1,
                            "metadata" : {
                              "WinSubProjectDisplayName" : "",
                              "clipSpeedAttribute" : false
                            },
                            "animationTracks" : {
                              "visual" : [
                                {
                                  "endTime" : 56,
                                  "duration" : 38,
                                  "range" : [ 18, 38],
                                  "interp" : "eioe"
                                },
                                {
                                  "endTime" : 92,
                                  "duration" : 36,
                                  "range" : [ 56, 36],
                                  "interp" : "eioe"
                                },
                                {
                                  "endTime" : 174,
                                  "duration" : 58,
                                  "range" : [ 116, 58]
                                }
                              ]
                            }
                          }
                        ],
                          "ident" : "",
                          "audioMuted" : false,
                          "videoHidden" : false,
                          "magnetic" : false,
                          "metadata" : {
                            "IsLocked" : "False",
                            "WinTrackHeight" : "0"
                          }
                      },
                      {
                        "trackIndex" : 1,
                        "medias" : [
                          {
                            "id" : 403,
                            "_type" : "Callout",
                            "def" : {
                              "kind" : "remix",
                              "shape" : "shape-rectangle",
                              "style" : "urban",
                              "fill-color-blue" : {
                                "type" : "double",
                                "defaultValue" : 1.0,
                                "keyframes" : [
                                  {
                                    "endTime" : 54,
                                    "time" : 18,
                                    "value" : 0.149019607843137,
                                    "duration" : 36
                                  },
                                  {
                                    "endTime" : 136,
                                    "time" : 78,
                                    "value" : 1.0,
                                    "duration" : 58
                                  }
                                ]
                              },
                              "fill-color-green" : {
                                "type" : "double",
                                "defaultValue" : 1.0,
                                "keyframes" : [
                                  {
                                    "endTime" : 54,
                                    "time" : 18,
                                    "value" : 0.96078431372549,
                                    "duration" : 36
                                  },
                                  {
                                    "endTime" : 136,
                                    "time" : 78,
                                    "value" : 1.0,
                                    "duration" : 58
                                  }
                                ]
                              },
                              "fill-color-opacity" : 1.0,
                              "fill-color-red" : {
                                "type" : "double",
                                "defaultValue" : 1.0,
                                "keyframes" : [
                                  {
                                    "endTime" : 54,
                                    "time" : 18,
                                    "value" : 0.933333333333333,
                                    "duration" : 36
                                  },
                                  {
                                    "endTime" : 136,
                                    "time" : 78,
                                    "value" : 1.0,
                                    "duration" : 58
                                  }
                                ]
                              },
                              "height" : {
                                "type" : "double",
                                "defaultValue" : 10.8510761260468,
                                "keyframes" : [
                                  {
                                    "endTime" : 54,
                                    "time" : 18,
                                    "value" : 10.8510761260468,
                                    "duration" : 36
                                  },
                                  {
                                    "endTime" : 136,
                                    "time" : 78,
                                    "value" : 10.8510761260468,
                                    "duration" : 58
                                  }
                                ]
                              },
                              "stroke-color-blue" : 1.0,
                              "stroke-color-green" : 1.0,
                              "stroke-color-opacity" : 1.0,
                              "stroke-color-red" : 1.0,
                              "stroke-width" : 0.0,
                              "width" : {
                                "type" : "double",
                                "defaultValue" : 6.88782755517832,
                                "keyframes" : [
                                  {
                                    "endTime" : 54,
                                    "time" : 18,
                                    "value" : 1281.28316541273,
                                    "duration" : 36
                                  },
                                  {
                                    "endTime" : 136,
                                    "time" : 78,
                                    "value" : 1302.87700103543,
                                    "duration" : 58
                                  }
                                ]
                              },
                              "fill-style" : "solid",
                              "horizontal-alignment" : "center",
                              "stroke-style" : "solid",
                              "vertical-alignment" : "center",
                              "textAttributes" : {
                                "type" : "textAttributeList",
                                "keyframes" : [
                                  {
                                    "endTime" : 0,
                                    "time" : 0,
                                    "value" : null,
                                    "duration" : 0
                                  }
                                ]
                              }
                            },
                            "attributes" : {
                              "autoRotateText" : true
                            },
                            "parameters" : {
                              "translation0" : {
                                "type" : "double",
                                "defaultValue" : -1.21547438780567e-10,
                                "keyframes" : [
                                  {
                                    "endTime" : 54,
                                    "time" : 18,
                                    "value" : -0.0541988189824127,
                                    "duration" : 36
                                  },
                                  {
                                    "endTime" : 136,
                                    "time" : 78,
                                    "value" : -1.21547438780567e-10,
                                    "duration" : 58
                                  }
                                ]
                              },
                              "translation1" : {
                                "type" : "double",
                                "defaultValue" : 78.8579651656907,
                                "keyframes" : [
                                  {
                                    "endTime" : 54,
                                    "time" : 18,
                                    "value" : 78.8936575656383,
                                    "duration" : 36
                                  },
                                  {
                                    "endTime" : 136,
                                    "time" : 78,
                                    "value" : 694.705445748916,
                                    "duration" : 58
                                  }
                                ]
                              }
                            },
                            "effects" : [

                            ],
                            "start" : 38,
                            "duration" : 142,
                            "mediaStart" : 18,
                            "mediaDuration" : 142,
                            "scalar" : 1,
                            "metadata" : {
                              "WinSubProjectDisplayName" : "",
                              "clipSpeedAttribute" : false
                            },
                            "animationTracks" : {
                              "visual" : [
                                {
                                  "endTime" : 54,
                                  "duration" : 36,
                                  "range" : [ 18, 36],
                                  "interp" : "eioe"
                                },
                                {
                                  "endTime" : 136,
                                  "duration" : 58,
                                  "range" : [ 78, 58],
                                  "interp" : "eioe"
                                }
                              ]
                            }
                          }
                        ],
                          "ident" : "",
                          "audioMuted" : false,
                          "videoHidden" : false,
                          "magnetic" : false,
                          "metadata" : {
                            "IsLocked" : "False",
                            "WinTrackHeight" : "6.39079466327898e-312"
                          }
                      },
                      {
                        "trackIndex" : 2,
                        "medias" : [
                          {
                            "id" : 404,
                            "_type" : "Callout",
                            "def" : {
                              "kind" : "remix",
                              "shape" : "text",
                              "style" : "abstract",
                              "height" : 180.630981445261,
                              "line-spacing" : 0.0,
                              "width" : 1281.17482864961,
                              "word-wrap" : 1.0,
                              "horizontal-alignment" : "center",
                              "resize-behavior" : "resizeText",
                              "text" : "stage",
                              "vertical-alignment" : "center",
                              "font" : {
                                "color-blue" : 1.0,
                                "color-green" : 1.0,
                                "color-red" : 1.0,
                                "size" : 96.0,
                                "tracking" : 0.0,
                                "name" : "Lato",
                                "weight" : "Regular"
                              },
                              "textAttributes" : {
                                "type" : "textAttributeList",
                                "keyframes" : [
                                  {
                                    "endTime" : 0,
                                    "time" : 0,
                                    "value" : [{"name":"fontItalic","rangeEnd":5,"rangeStart":0,"value":0,"valueType":"int"},{"name":"kerning","rangeEnd":5,"rangeStart":0,"value":0,"valueType":"double"},{"name":"fontWeight","rangeEnd":5,"rangeStart":0,"value":400,"valueType":"int"},{"name":"underline","rangeEnd":5,"rangeStart":0,"value":0,"valueType":"int"},{"name":"fontName","rangeEnd":5,"rangeStart":0,"value":"Montserrat","valueType":"string"},{"name":"fontSize","rangeEnd":5,"rangeStart":0,"value":128,"valueType":"double"},{"name":"strikethrough","rangeEnd":5,"rangeStart":0,"value":0,"valueType":"int"},{"name":"fgColor","rangeEnd":5,"rangeStart":0,"value":"(255,255,255,255)","valueType":"color"}],
                                    "duration" : 0
                                  }
                                ]
                              }
                            },
                            "attributes" : {
                              "autoRotateText" : true
                            },
                            "parameters" : {
                              "translation0" : {
                                "type" : "double",
                                "defaultValue" : 0.412585675275182,
                                "keyframes" : [
                                  {
                                    "endTime" : 152,
                                    "time" : 94,
                                    "value" : 11.2636728451827,
                                    "duration" : 58
                                  }
                                ]
                              },
                              "translation1" : {
                                "type" : "double",
                                "defaultValue" : -5.81178581660322,
                                "keyframes" : [
                                  {
                                    "endTime" : 152,
                                    "time" : 94,
                                    "value" : 610.000002366703,
                                    "duration" : 58
                                  }
                                ]
                              }
                            },
                            "effects" : [
                                {
                                  "_type" : "GenericBehaviorEffect",
                                  "effectName" : "popUp",
                                  "start" : 34,
                                  "duration" : 142                                ,
                                  "in" : {
                                    "attributes" : {
                                      "name" : "reveal",
                                      "type" : 1,
                                      "characterOrder" : 6,
                                      "offsetBetweenCharacters" : 3,
                                      "suggestedDurationPerCharacter" : 44,
                                      "overlapProportion" : 0,
                                      "movement" : 16,
                                      "springDamping" : 5.0,
                                      "springStiffness" : 50.0,
                                      "bounceBounciness" : 0.45
                                    },
                                    "parameters" : {
                                      "direction" : {
                                        "type" : "int",
                                        "valueBounds" : {
                                          "minValue" : 0,
                                          "maxValue" : 3,
                                          "defaultValue" : 0
                                        },
                                        "uiHints" : {
                                          "userInterfaceType" : 2,
                                          "unitType" : 0
                                        },
                                        "keyframes" : [
                                          {
                                            "endTime" : 0,
                                            "time" : 0,
                                            "value" : 2,
                                            "duration" : 0
                                          }
                                        ]
                                      }
                                    }
                                  
                                  },
                                  "center" : {
                                    "attributes" : {
                                      "name" : "none",
                                      "type" : 1,
                                      "characterOrder" : 6,
                                      "offsetBetweenCharacters" : 0,
                                      "secondsPerLoop" : 1,
                                      "numberOfLoops" : -1,
                                      "delayBetweenLoops" : 0,
                                      "offsetBetweenCharacters" : 0
                                    }
                                  
                                  },
                                  "out" : {
                                    "attributes" : {
                                      "name" : "none",
                                      "type" : 1,
                                      "characterOrder" : 6,
                                      "offsetBetweenCharacters" : 0,
                                      "suggestedDurationPerCharacter" : 0,
                                      "overlapProportion" : 0,
                                      "movement" : -1,
                                      "springDamping" : 5.0,
                                      "springStiffness" : 50.0,
                                      "bounceBounciness" : 0.45
                                    }
                                  
                                  }
                                }
                            ],
                            "start" : 38,
                            "duration" : 142,
                            "mediaStart" : 34,
                            "mediaDuration" : 142,
                            "scalar" : 1,
                            "metadata" : {
                              "WinSubProjectDisplayName" : "",
                              "clipSpeedAttribute" : false,
                              "default-HAlign" : "center",
                              "default-LineSpace" : 0.0,
                              "default-VAlign" : "center",
                              "default-text-attributes" : "[{\"name\":\"fontName\",\"rangeEnd\":15,\"rangeStart\":0,\"value\":\"Montserrat\",\"valueType\":\"string\"},{\"name\":\"fgColor\",\"rangeEnd\":15,\"rangeStart\":0,\"value\":\"(255,255,255,255)\",\"valueType\":\"color\"},{\"name\":\"underline\",\"rangeEnd\":15,\"rangeStart\":0,\"value\":0,\"valueType\":\"int\"},{\"name\":\"strikethrough\",\"rangeEnd\":15,\"rangeStart\":0,\"value\":0,\"valueType\":\"int\"},{\"name\":\"fontSize\",\"rangeEnd\":15,\"rangeStart\":0,\"value\":128,\"valueType\":\"double\"},{\"name\":\"fontItalic\",\"rangeEnd\":15,\"rangeStart\":0,\"value\":0,\"valueType\":\"int\"},{\"name\":\"fontWeight\",\"rangeEnd\":15,\"rangeStart\":0,\"value\":100,\"valueType\":\"int\"}]"
                            },
                            "animationTracks" : {
                              "visual" : [
                                {
                                  "endTime" : 152,
                                  "duration" : 58,
                                  "range" : [ 94, 58],
                                  "interp" : "eioe"
                                }
                              ]
                            }
                          }
                        ],
                          "ident" : "",
                          "audioMuted" : false,
                          "videoHidden" : false,
                          "magnetic" : false,
                          "metadata" : {
                            "IsLocked" : "False",
                            "WinTrackHeight" : "6.39079466327898e-312"
                          }
                      },
                      {
                        "trackIndex" : 3,
                        "medias" : [
                          {
                            "id" : 405,
                            "_type" : "Callout",
                            "def" : {
                              "kind" : "remix",
                              "shape" : "text",
                              "style" : "abstract",
                              "height" : 83.6840731068824,
                              "line-spacing" : 0.0,
                              "width" : 1281.28322521409,
                              "word-wrap" : 1.0,
                              "horizontal-alignment" : "center",
                              "resize-behavior" : "resizeText",
                              "text" : "looks",
                              "vertical-alignment" : "center",
                              "font" : {
                                "color-blue" : 1.0,
                                "color-green" : 1.0,
                                "color-red" : 1.0,
                                "size" : 96.0,
                                "tracking" : 0.0,
                                "name" : "Lato",
                                "weight" : "Regular"
                              },
                              "textAttributes" : {
                                "type" : "textAttributeList",
                                "keyframes" : [
                                  {
                                    "endTime" : 0,
                                    "time" : 0,
                                    "value" : [{"name":"fontWeight","rangeEnd":5,"rangeStart":0,"value":400,"valueType":"int"},{"name":"fontItalic","rangeEnd":5,"rangeStart":0,"value":0,"valueType":"int"},{"name":"fontName","rangeEnd":5,"rangeStart":0,"value":"Montserrat","valueType":"string"},{"name":"fontSize","rangeEnd":5,"rangeStart":0,"value":60,"valueType":"double"},{"name":"kerning","rangeEnd":5,"rangeStart":0,"value":0,"valueType":"double"},{"name":"fgColor","rangeEnd":5,"rangeStart":0,"value":"(0,0,0,255)","valueType":"color"},{"name":"underline","rangeEnd":5,"rangeStart":0,"value":0,"valueType":"int"},{"name":"strikethrough","rangeEnd":5,"rangeStart":0,"value":0,"valueType":"int"}],
                                    "duration" : 0
                                  }
                                ]
                              }
                            },
                            "attributes" : {
                              "autoRotateText" : true
                            },
                            "parameters" : {
                              "translation0" : {
                                "type" : "double",
                                "defaultValue" : 0.304200155246711,
                                "keyframes" : [
                                  {
                                    "endTime" : 110,
                                    "time" : 52,
                                    "value" : -1.86383482943485,
                                    "duration" : 58
                                  }
                                ]
                              },
                              "translation1" : {
                                "type" : "double",
                                "defaultValue" : -96.1538223700724,
                                "keyframes" : [
                                  {
                                    "endTime" : 110,
                                    "time" : 52,
                                    "value" : -658.500002366703,
                                    "duration" : 58
                                  }
                                ]
                              }
                            },
                            "effects" : [
                                {
                                  "_type" : "GenericBehaviorEffect",
                                  "effectName" : "popUp",
                                  "start" : 0,
                                  "duration" : 138                                ,
                                  "in" : {
                                    "attributes" : {
                                      "name" : "reveal",
                                      "type" : 1,
                                      "characterOrder" : 7,
                                      "offsetBetweenCharacters" : 3,
                                      "suggestedDurationPerCharacter" : 44,
                                      "overlapProportion" : 0,
                                      "movement" : 16,
                                      "springDamping" : 5.0,
                                      "springStiffness" : 50.0,
                                      "bounceBounciness" : 0.45
                                    },
                                    "parameters" : {
                                      "direction" : {
                                        "type" : "int",
                                        "valueBounds" : {
                                          "minValue" : 0,
                                          "maxValue" : 3,
                                          "defaultValue" : 0
                                        },
                                        "uiHints" : {
                                          "userInterfaceType" : 2,
                                          "unitType" : 0
                                        },
                                        "keyframes" : [
                                          {
                                            "endTime" : 0,
                                            "time" : 0,
                                            "value" : 0,
                                            "duration" : 0
                                          }
                                        ]
                                      }
                                    }
                                  
                                  },
                                  "center" : {
                                    "attributes" : {
                                      "name" : "none",
                                      "type" : 1,
                                      "characterOrder" : 6,
                                      "offsetBetweenCharacters" : 0,
                                      "secondsPerLoop" : 1,
                                      "numberOfLoops" : -1,
                                      "delayBetweenLoops" : 0,
                                      "offsetBetweenCharacters" : 0
                                    }
                                  
                                  },
                                  "out" : {
                                    "attributes" : {
                                      "name" : "none",
                                      "type" : 1,
                                      "characterOrder" : 6,
                                      "offsetBetweenCharacters" : 0,
                                      "suggestedDurationPerCharacter" : 0,
                                      "overlapProportion" : 0,
                                      "movement" : -1,
                                      "springDamping" : 5.0,
                                      "springStiffness" : 50.0,
                                      "bounceBounciness" : 0.45
                                    }
                                  
                                  }
                                }
                            ],
                            "start" : 42,
                            "duration" : 138,
                            "mediaStart" : 0,
                            "mediaDuration" : 138,
                            "scalar" : 1,
                            "metadata" : {
                              "WinSubProjectDisplayName" : "",
                              "clipSpeedAttribute" : false,
                              "default-HAlign" : "center",
                              "default-LineSpace" : 0.0,
                              "default-VAlign" : "center",
                              "default-text-attributes" : "[{\"name\":\"fontName\",\"rangeEnd\":17,\"rangeStart\":0,\"value\":\"Montserrat\",\"valueType\":\"string\"},{\"name\":\"strikethrough\",\"rangeEnd\":17,\"rangeStart\":0,\"value\":0,\"valueType\":\"int\"},{\"name\":\"fontWeight\",\"rangeEnd\":17,\"rangeStart\":0,\"value\":100,\"valueType\":\"int\"},{\"name\":\"fontSize\",\"rangeEnd\":17,\"rangeStart\":0,\"value\":60,\"valueType\":\"double\"},{\"name\":\"fontItalic\",\"rangeEnd\":17,\"rangeStart\":0,\"value\":0,\"valueType\":\"int\"},{\"name\":\"fgColor\",\"rangeEnd\":17,\"rangeStart\":0,\"value\":\"(0,0,0,255)\",\"valueType\":\"color\"},{\"name\":\"underline\",\"rangeEnd\":17,\"rangeStart\":0,\"value\":0,\"valueType\":\"int\"}]",
                              "default-translation0" : 0.358387392787593
                            },
                            "animationTracks" : {
                              "visual" : [
                                {
                                  "endTime" : 110,
                                  "duration" : 58,
                                  "range" : [ 52, 58],
                                  "interp" : "eioe"
                                }
                              ]
                            }
                          }
                        ],
                          "ident" : "",
                          "audioMuted" : false,
                          "videoHidden" : false,
                          "magnetic" : false,
                          "metadata" : {
                            "IsLocked" : "False",
                            "WinTrackHeight" : "6.39079466327898e-312"
                          }
                      }
                    ],
                    "attributes" : {
                      "ident" : "Simple Bright Title 3",
                      "gain" : 1.0,
                      "mixToMono" : false,
                      "assetProperties" : [
                        {
                          "type" : 0,
                          "name" : "Title",
                          "objects" : [ 404 ],
                          "themeMappings" :  {
                            "font-color" : "foreground-1",
                            "font-family" : "font-1"
                          }
                        },
                        {
                          "type" : 0,
                          "name" : "Subtitle",
                          "objects" : [ 405 ],
                          "themeMappings" :  {
                            "font-color" : "background-1",
                            "font-family" : "font-1"
                          }
                        },
                        {
                          "type" : 1,
                          "name" : "Color 1",
                          "objects" : [ 402, 403 ],
                          "themeMappings" :  {
                            "fill" : "accent-1"
                          }
                        }
                      ]
                    },
                    "effects" : [

                    ],
                    "start" : 36016,
                    "duration" : 210,
                    "mediaStart" : -30.0,
                    "mediaDuration" : 210.0,
                    "scalar" : 1,
                    "metadata" : {
                      "AppliedThemeId" : "",
                      "IsGroupExpanded" : "False",
                      "WinSubProjectDisplayName" : "Simple Bright Title 3",
                      "clipSpeedAttribute" : false,
                      "default-translation1" : 62.3420348343093,
                      "effectApplied" : "none",
                      "isOpen" : false
                    },
                    "animationTracks" : {

                    }
                  },
                  {
                    "id" : 406,
                    "_type" : "UnifiedMedia",
                    "video" : 
                        {
                          "id" : 407,
                          "_type" : "ScreenVMFile",
                          "src" : 39,
                          "trackNumber" : 0,
                          "attributes" : {
                            "ident" : "scratch-7.8-sensing-stage"
                          },
                          "parameters" : {
                            "cursorScale" : {
                              "type" : "double",
                              "defaultValue" : 1.0,
                              "interp" : "linr"
                            },
                            "cursorOpacity" : {
                              "type" : "double",
                              "defaultValue" : 1.0,
                              "interp" : "linr"
                            }
                          },
                          "effects" : [

                          ],
                          "start" : 36226,
                          "duration" : 656,
                          "mediaStart" : 0,
                          "mediaDuration" : 656,
                          "scalar" : 1,
                          "animationTracks" : {

                          }
                        },
                    "audio" : 
                        {
                          "id" : 408,
                          "_type" : "AMFile",
                          "src" : 39,
                          "trackNumber" : 1,
                          "attributes" : {
                            "ident" : "",
                            "gain" : 1.0,
                            "mixToMono" : false
                          },
                            "channelNumber" : "0,1",
                          "effects" : [

                          ],
                          "start" : 36226,
                          "duration" : 656,
                          "mediaStart" : 0,
                          "mediaDuration" : 656,
                          "scalar" : 1,
                          "animationTracks" : {

                          }
                        }
,
                    "start" : 36226,
                    "duration" : 656,
                    "mediaStart" : 0,
                    "mediaDuration" : 656,
                    "scalar" : 1,
                    "metadata" : {
                      "AutoAppliedSmartFocus" : "False",
                      "clipSpeedAttribute" : false
                    }
                  },
                  {
                    "id" : 409,
                    "_type" : "Group",
                    "parameters" : {
                      "volume" : 1.0
                    },
                    "tracks" : [
                      {
                        "trackIndex" : 0,
                        "medias" : [
                          {
                            "id" : 410,
                            "_type" : "UnifiedMedia",
                            "video" : 
                                {
                                  "id" : 411,
                                  "_type" : "VMFile",
                                  "src" : 51,
                                  "trackNumber" : 0,
                                  "attributes" : {
                                    "ident" : "Movie"
                                  },
                                  "effects" : [

                                  ],
                                  "start" : 114,
                                  "duration" : 176,
                                  "mediaStart" : 114,
                                  "mediaDuration" : 176,
                                  "scalar" : 1,
                                  "animationTracks" : {

                                  }
                                },
                            "audio" : 
                                {
                                  "id" : 412,
                                  "_type" : "AMFile",
                                  "src" : 51,
                                  "trackNumber" : 1,
                                  "attributes" : {
                                    "ident" : "",
                                    "gain" : 1.0,
                                    "mixToMono" : false
                                  },
                                    "channelNumber" : "0,1",
                                  "effects" : [

                                  ],
                                  "start" : 114,
                                  "duration" : 176,
                                  "mediaStart" : 114,
                                  "mediaDuration" : 176,
                                  "scalar" : 1,
                                  "animationTracks" : {

                                  }
                                }
,
                            "start" : 114,
                            "duration" : 176,
                            "mediaStart" : 0,
                            "mediaDuration" : 438,
                            "scalar" : 1,
                            "metadata" : {
                              "WinSubProjectDisplayName" : "",
                              "clipSpeedAttribute" : false,
                              "effectApplied" : "none"
                            }
                          }
                        ],
                          "ident" : "",
                          "audioMuted" : false,
                          "videoHidden" : false,
                          "magnetic" : false,
                          "metadata" : {
                            "IsLocked" : "False",
                            "WinTrackHeight" : "0",
                            "trackHeight" : "48"
                          }
                      },
                      {
                        "trackIndex" : 1,
                        "medias" : [
                          {
                            "id" : 413,
                            "_type" : "Callout",
                            "def" : {
                              "kind" : "remix",
                              "shape" : "text",
                              "style" : "basic",
                              "height" : 78.4795300319492,
                              "line-spacing" : 0.0,
                              "width" : 583.0,
                              "word-wrap" : 1.0,
                              "horizontal-alignment" : "center",
                              "resize-behavior" : "resizeText",
                              "text" : "motion",
                              "vertical-alignment" : "center",
                              "font" : {
                                "color-blue" : 1.0,
                                "color-green" : 1.0,
                                "color-red" : 1.0,
                                "size" : 96.0,
                                "tracking" : 0.0,
                                "name" : "Montserrat",
                                "weight" : "Regular"
                              },
                              "textAttributes" : {
                                "type" : "textAttributeList",
                                "keyframes" : [
                                  {
                                    "endTime" : 0,
                                    "time" : 0,
                                    "value" : [{"name":"fontWeight","rangeEnd":6,"rangeStart":0,"value":400,"valueType":"int"},{"name":"fontItalic","rangeEnd":6,"rangeStart":0,"value":0,"valueType":"int"},{"name":"fontName","rangeEnd":6,"rangeStart":0,"value":"Montserrat","valueType":"string"},{"name":"fontSize","rangeEnd":6,"rangeStart":0,"value":55,"valueType":"double"},{"name":"fgColor","rangeEnd":6,"rangeStart":0,"value":"(239,231,195,255)","valueType":"color"},{"name":"strikethrough","rangeEnd":6,"rangeStart":0,"value":0,"valueType":"int"},{"name":"underline","rangeEnd":6,"rangeStart":0,"value":0,"valueType":"int"},{"name":"kerning","rangeEnd":6,"rangeStart":0,"value":0,"valueType":"double"}],
                                    "duration" : 0
                                  }
                                ]
                              }
                            },
                            "attributes" : {
                              "autoRotateText" : true
                            },
                            "parameters" : {
                              "translation0" : -1.77887982122371e-11,
                              "translation1" : -100.336673040374
                            },
                            "effects" : [
                                {
                                  "_type" : "GenericBehaviorEffect",
                                  "effectName" : "sliding",
                                  "start" : -18,
                                  "duration" : 80                                ,
                                  "in" : {
                                    "attributes" : {
                                      "name" : "sliding",
                                      "type" : 1,
                                      "characterOrder" : 0,
                                      "offsetBetweenCharacters" : 3,
                                      "suggestedDurationPerCharacter" : "999/50",
                                      "overlapProportion" : "11/20",
                                      "movement" : 16,
                                      "springDamping" : 5.0,
                                      "springStiffness" : 50.0,
                                      "bounceBounciness" : 0.45
                                    },
                                    "parameters" : {
                                      "direction" : {
                                        "type" : "int",
                                        "valueBounds" : {
                                          "minValue" : 0,
                                          "maxValue" : 3,
                                          "defaultValue" : 0
                                        },
                                        "uiHints" : {
                                          "userInterfaceType" : 2,
                                          "unitType" : 0
                                        },
                                        "keyframes" : [
                                          {
                                            "endTime" : 0,
                                            "time" : 0,
                                            "value" : 3,
                                            "duration" : 0
                                          }
                                        ]
                                      }
                                    }
                                  
                                  },
                                  "center" : {
                                    "attributes" : {
                                      "name" : "none",
                                      "type" : 1,
                                      "characterOrder" : 6,
                                      "offsetBetweenCharacters" : 0,
                                      "secondsPerLoop" : 1,
                                      "numberOfLoops" : -1,
                                      "delayBetweenLoops" : 0,
                                      "offsetBetweenCharacters" : 0
                                    }
                                  
                                  },
                                  "out" : {
                                    "attributes" : {
                                      "name" : "none",
                                      "type" : 1,
                                      "characterOrder" : 6,
                                      "offsetBetweenCharacters" : 0,
                                      "suggestedDurationPerCharacter" : 0,
                                      "overlapProportion" : 0,
                                      "movement" : -1,
                                      "springDamping" : 5.0,
                                      "springStiffness" : 50.0,
                                      "bounceBounciness" : 0.45
                                    }
                                  
                                  }
                                }
                            ],
                            "start" : 210,
                            "duration" : 80,
                            "mediaStart" : -18,
                            "mediaDuration" : 80,
                            "scalar" : 1,
                            "metadata" : {
                              "WinSubProjectDisplayName" : "",
                              "clipSpeedAttribute" : false,
                              "default-HAlign" : "center",
                              "default-LineSpace" : 0.0,
                              "default-VAlign" : "center",
                              "default-text-attributes" : "[{\"name\":\"strikethrough\",\"rangeEnd\":13,\"rangeStart\":0,\"value\":0,\"valueType\":\"int\"},{\"name\":\"fontWeight\",\"rangeEnd\":13,\"rangeStart\":0,\"value\":100,\"valueType\":\"int\"},{\"name\":\"fontSize\",\"rangeEnd\":13,\"rangeStart\":0,\"value\":55,\"valueType\":\"double\"},{\"name\":\"underline\",\"rangeEnd\":13,\"rangeStart\":0,\"value\":0,\"valueType\":\"int\"},{\"name\":\"fgColor\",\"rangeEnd\":13,\"rangeStart\":0,\"value\":\"(239,231,195,255)\",\"valueType\":\"color\"},{\"name\":\"fontItalic\",\"rangeEnd\":13,\"rangeStart\":0,\"value\":0,\"valueType\":\"int\"},{\"name\":\"fontName\",\"rangeEnd\":13,\"rangeStart\":0,\"value\":\"Montserrat\",\"valueType\":\"string\"}]",
                              "effectApplied" : "none"
                            },
                            "animationTracks" : {

                            }
                          }
                        ],
                          "ident" : "",
                          "audioMuted" : false,
                          "videoHidden" : false,
                          "magnetic" : false,
                          "metadata" : {
                            "IsLocked" : "False",
                            "WinTrackHeight" : "1.18064664215163e-311",
                            "trackHeight" : "48"
                          }
                      },
                      {
                        "trackIndex" : 2,
                        "medias" : [
                          {
                            "id" : 414,
                            "_type" : "Callout",
                            "def" : {
                              "kind" : "remix",
                              "shape" : "text",
                              "style" : "basic",
                              "height" : 177.714285714305,
                              "line-spacing" : 0.0,
                              "width" : 904.358937127979,
                              "word-wrap" : 1.0,
                              "horizontal-alignment" : "center",
                              "resize-behavior" : "resizeText",
                              "text" : "math",
                              "vertical-alignment" : "center",
                              "font" : {
                                "color-blue" : 1.0,
                                "color-green" : 1.0,
                                "color-red" : 1.0,
                                "size" : 96.0,
                                "tracking" : 0.0,
                                "name" : "Montserrat",
                                "weight" : "Regular"
                              },
                              "textAttributes" : {
                                "type" : "textAttributeList",
                                "keyframes" : [
                                  {
                                    "endTime" : 0,
                                    "time" : 0,
                                    "value" : [{"name":"kerning","rangeEnd":4,"rangeStart":0,"value":0,"valueType":"double"},{"name":"strikethrough","rangeEnd":4,"rangeStart":0,"value":0,"valueType":"int"},{"name":"fontItalic","rangeEnd":4,"rangeStart":0,"value":0,"valueType":"int"},{"name":"fontName","rangeEnd":4,"rangeStart":0,"value":"Montserrat","valueType":"string"},{"name":"fgColor","rangeEnd":4,"rangeStart":0,"value":"(241,230,195,255)","valueType":"color"},{"name":"fontWeight","rangeEnd":4,"rangeStart":0,"value":400,"valueType":"int"},{"name":"fontSize","rangeEnd":4,"rangeStart":0,"value":96,"valueType":"double"},{"name":"underline","rangeEnd":4,"rangeStart":0,"value":0,"valueType":"int"}],
                                    "duration" : 0
                                  }
                                ]
                              }
                            },
                            "attributes" : {
                              "autoRotateText" : true
                            },
                            "parameters" : {
                              "translation0" : 0.320531435861056,
                              "translation1" : 27.642853721879
                            },
                            "effects" : [
                                {
                                  "_type" : "GenericBehaviorEffect",
                                  "effectName" : "scale",
                                  "start" : -52,
                                  "duration" : 176                                ,
                                  "in" : {
                                    "attributes" : {
                                      "name" : "grow",
                                      "type" : 1,
                                      "characterOrder" : 6,
                                      "offsetBetweenCharacters" : 2,
                                      "suggestedDurationPerCharacter" : "2333/25",
                                      "overlapProportion" : "3/4",
                                      "movement" : 30,
                                      "springDamping" : 5.0,
                                      "springStiffness" : 50.0,
                                      "bounceBounciness" : 0.45
                                    }
                                  
                                  },
                                  "center" : {
                                    "attributes" : {
                                      "name" : "none",
                                      "type" : 1,
                                      "characterOrder" : 6,
                                      "offsetBetweenCharacters" : 0,
                                      "secondsPerLoop" : 1,
                                      "numberOfLoops" : -1,
                                      "delayBetweenLoops" : 0,
                                      "offsetBetweenCharacters" : 0
                                    }
                                  
                                  },
                                  "out" : {
                                    "attributes" : {
                                      "name" : "none",
                                      "type" : 1,
                                      "characterOrder" : 6,
                                      "offsetBetweenCharacters" : 0,
                                      "suggestedDurationPerCharacter" : 0,
                                      "overlapProportion" : 0,
                                      "movement" : -1,
                                      "springDamping" : 5.0,
                                      "springStiffness" : 50.0,
                                      "bounceBounciness" : 0.45
                                    }
                                  
                                  }
                                },
                                {
                                  "effectName" : "DropShadow",
                                  "category" : "categoryVisualEffects",
                                  "parameters" : {
                                    "angle" : {
                                      "type" : "double",
                                      "defaultValue" : 4.71238898038469,
                                      "valueBounds" : {
                                        "minValue" : 0.0,
                                        "maxValue" : 0.0,
                                        "defaultValue" : 5.49778714378214
                                      },
                                      "uiHints" : {
                                        "userInterfaceType" : 0,
                                        "unitType" : 0
                                      }
                                    },
                                    "blur" : {
                                      "type" : "double",
                                      "defaultValue" : 3.33066907387547e-16,
                                      "valueBounds" : {
                                        "minValue" : 0.0,
                                        "maxValue" : 50.0,
                                        "defaultValue" : 10.0
                                      },
                                      "uiHints" : {
                                        "userInterfaceType" : 0,
                                        "unitType" : 0
                                      }
                                    },
                                    "color-alpha" : {
                                      "type" : "double",
                                      "defaultValue" : 1.0,
                                      "valueBounds" : {
                                        "minValue" : 0.0,
                                        "maxValue" : 1.0,
                                        "defaultValue" : 1.0
                                      },
                                      "uiHints" : {
                                        "userInterfaceType" : 0,
                                        "unitType" : 0
                                      }
                                    },
                                    "color-blue" : {
                                      "type" : "double",
                                      "defaultValue" : 0.1216,
                                      "valueBounds" : {
                                        "minValue" : 0.0,
                                        "maxValue" : 1.0,
                                        "defaultValue" : 0.1216
                                      },
                                      "uiHints" : {
                                        "userInterfaceType" : 0,
                                        "unitType" : 0
                                      }
                                    },
                                    "color-green" : {
                                      "type" : "double",
                                      "defaultValue" : 0.1216,
                                      "valueBounds" : {
                                        "minValue" : 0.0,
                                        "maxValue" : 1.0,
                                        "defaultValue" : 0.1216
                                      },
                                      "uiHints" : {
                                        "userInterfaceType" : 0,
                                        "unitType" : 0
                                      }
                                    },
                                    "color-red" : {
                                      "type" : "double",
                                      "defaultValue" : 0.1216,
                                      "valueBounds" : {
                                        "minValue" : 0.0,
                                        "maxValue" : 1.0,
                                        "defaultValue" : 0.1216
                                      },
                                      "uiHints" : {
                                        "userInterfaceType" : 0,
                                        "unitType" : 0
                                      }
                                    },
                                    "enabled" : {
                                      "type" : "int",
                                      "valueBounds" : {
                                        "minValue" : 0,
                                        "maxValue" : 1,
                                        "defaultValue" : 1
                                      },
                                      "uiHints" : {
                                        "userInterfaceType" : 0,
                                        "unitType" : 0
                                      },
                                      "keyframes" : [
                                        {
                                          "endTime" : 0,
                                          "time" : 0,
                                          "value" : 1,
                                          "duration" : 0
                                        }
                                      ]
                                    },
                                    "offset" : {
                                      "type" : "double",
                                      "defaultValue" : 10.0,
                                      "valueBounds" : {
                                        "minValue" : 0.0,
                                        "maxValue" : 250.0,
                                        "defaultValue" : 10.0
                                      },
                                      "uiHints" : {
                                        "userInterfaceType" : 0,
                                        "unitType" : 0
                                      }
                                    },
                                    "opacity" : {
                                      "type" : "double",
                                      "defaultValue" : 0.741666666666667,
                                      "valueBounds" : {
                                        "minValue" : 0.0,
                                        "maxValue" : 1.0,
                                        "defaultValue" : 0.4
                                      },
                                      "uiHints" : {
                                        "userInterfaceType" : 0,
                                        "unitType" : 0
                                      }
                                    }
                                  }
                                }
                            ],
                            "start" : 114,
                            "duration" : 176,
                            "mediaStart" : -52,
                            "mediaDuration" : 176,
                            "scalar" : 1,
                            "metadata" : {
                              "WinSubProjectDisplayName" : "",
                              "clipSpeedAttribute" : false,
                              "default-HAlign" : "center",
                              "default-LineSpace" : 0.0,
                              "default-VAlign" : "center",
                              "default-text-attributes" : "[{\"name\":\"fontItalic\",\"rangeEnd\":9,\"rangeStart\":0,\"value\":0,\"valueType\":\"int\"},{\"name\":\"fontSize\",\"rangeEnd\":9,\"rangeStart\":0,\"value\":96,\"valueType\":\"double\"},{\"name\":\"fontName\",\"rangeEnd\":9,\"rangeStart\":0,\"value\":\"Montserrat\",\"valueType\":\"string\"},{\"name\":\"underline\",\"rangeEnd\":9,\"rangeStart\":0,\"value\":0,\"valueType\":\"int\"},{\"name\":\"fontWeight\",\"rangeEnd\":9,\"rangeStart\":0,\"value\":100,\"valueType\":\"int\"},{\"name\":\"strikethrough\",\"rangeEnd\":9,\"rangeStart\":0,\"value\":0,\"valueType\":\"int\"},{\"name\":\"fgColor\",\"rangeEnd\":9,\"rangeStart\":0,\"value\":\"(241,230,195,255)\",\"valueType\":\"color\"}]",
                              "default-translation0" : -66.0174967329584,
                              "default-translation1" : 46.64285714285,
                              "effectApplied" : "none"
                            },
                            "animationTracks" : {

                            }
                          }
                        ],
                          "ident" : "",
                          "audioMuted" : false,
                          "videoHidden" : false,
                          "magnetic" : false,
                          "metadata" : {
                            "IsLocked" : "False",
                            "WinTrackHeight" : "1.18064664215163e-311",
                            "trackHeight" : "48"
                          }
                      }
                    ],
                    "attributes" : {
                      "ident" : "squarepegs",
                      "gain" : 1.0,
                      "mixToMono" : false,
                      "assetProperties" : [
                        {
                          "type" : 0,
                          "name" : "Title",
                          "objects" : [ 414 ],
                          "themeMappings" :  {
                            "font-color" : "foreground-1",
                            "font-family" : "font-1"
                          }
                        },
                        {
                          "type" : 0,
                          "name" : "Subtitle",
                          "objects" : [ 413 ],
                          "themeMappings" :  {
                            "font-color" : "foreground-1",
                            "font-family" : "font-1"
                          }
                        }
                      ]
                    },
                    "effects" : [

                    ],
                    "start" : 36882,
                    "duration" : 176,
                    "mediaStart" : 114.0,
                    "mediaDuration" : 176.0,
                    "scalar" : 1,
                    "metadata" : {
                      "IsGroupExpanded" : "False",
                      "WinSubProjectDisplayName" : "",
                      "clipSpeedAttribute" : false,
                      "effectApplied" : "none",
                      "isOpen" : false
                    },
                    "animationTracks" : {

                    }
                  },
                  {
                    "id" : 415,
                    "_type" : "UnifiedMedia",
                    "video" : 
                        {
                          "id" : 416,
                          "_type" : "ScreenVMFile",
                          "src" : 40,
                          "trackNumber" : 0,
                          "attributes" : {
                            "ident" : "scratch-8.1-operators-math"
                          },
                          "parameters" : {
                            "cursorScale" : {
                              "type" : "double",
                              "defaultValue" : 1.0,
                              "interp" : "linr"
                            },
                            "cursorOpacity" : {
                              "type" : "double",
                              "defaultValue" : 1.0,
                              "interp" : "linr"
                            }
                          },
                          "effects" : [

                          ],
                          "start" : 37058,
                          "duration" : 564,
                          "mediaStart" : 0,
                          "mediaDuration" : 564,
                          "scalar" : 1,
                          "animationTracks" : {

                          }
                        },
                    "audio" : 
                        {
                          "id" : 417,
                          "_type" : "AMFile",
                          "src" : 40,
                          "trackNumber" : 1,
                          "attributes" : {
                            "ident" : "",
                            "gain" : 1.0,
                            "mixToMono" : false
                          },
                            "channelNumber" : "0,1",
                          "effects" : [

                          ],
                          "start" : 37058,
                          "duration" : 564,
                          "mediaStart" : 0,
                          "mediaDuration" : 564,
                          "scalar" : 1,
                          "animationTracks" : {

                          }
                        }
,
                    "start" : 37058,
                    "duration" : 564,
                    "mediaStart" : 0,
                    "mediaDuration" : 564,
                    "scalar" : 1,
                    "metadata" : {
                      "AutoAppliedSmartFocus" : "False",
                      "clipSpeedAttribute" : false
                    }
                  },
                  {
                    "id" : 418,
                    "_type" : "Group",
                    "parameters" : {
                      "volume" : 1.0
                    },
                    "tracks" : [
                      {
                        "trackIndex" : 0,
                        "medias" : [
                          {
                            "id" : 419,
                            "_type" : "UnifiedMedia",
                            "video" : 
                                {
                                  "id" : 420,
                                  "_type" : "VMFile",
                                  "src" : 51,
                                  "trackNumber" : 0,
                                  "attributes" : {
                                    "ident" : "Movie"
                                  },
                                  "effects" : [

                                  ],
                                  "start" : 114,
                                  "duration" : 176,
                                  "mediaStart" : 114,
                                  "mediaDuration" : 176,
                                  "scalar" : 1,
                                  "animationTracks" : {

                                  }
                                },
                            "audio" : 
                                {
                                  "id" : 421,
                                  "_type" : "AMFile",
                                  "src" : 51,
                                  "trackNumber" : 1,
                                  "attributes" : {
                                    "ident" : "",
                                    "gain" : 1.0,
                                    "mixToMono" : false
                                  },
                                    "channelNumber" : "0,1",
                                  "effects" : [

                                  ],
                                  "start" : 114,
                                  "duration" : 176,
                                  "mediaStart" : 114,
                                  "mediaDuration" : 176,
                                  "scalar" : 1,
                                  "animationTracks" : {

                                  }
                                }
,
                            "start" : 114,
                            "duration" : 176,
                            "mediaStart" : 0,
                            "mediaDuration" : 438,
                            "scalar" : 1,
                            "metadata" : {
                              "WinSubProjectDisplayName" : "",
                              "clipSpeedAttribute" : false,
                              "effectApplied" : "none"
                            }
                          }
                        ],
                          "ident" : "",
                          "audioMuted" : false,
                          "videoHidden" : false,
                          "magnetic" : false,
                          "metadata" : {
                            "IsLocked" : "False",
                            "WinTrackHeight" : "0",
                            "trackHeight" : "48"
                          }
                      },
                      {
                        "trackIndex" : 1,
                        "medias" : [
                          {
                            "id" : 422,
                            "_type" : "Callout",
                            "def" : {
                              "kind" : "remix",
                              "shape" : "text",
                              "style" : "basic",
                              "height" : 78.4795300319492,
                              "line-spacing" : 0.0,
                              "width" : 583.0,
                              "word-wrap" : 1.0,
                              "horizontal-alignment" : "center",
                              "resize-behavior" : "resizeText",
                              "text" : "motion",
                              "vertical-alignment" : "center",
                              "font" : {
                                "color-blue" : 1.0,
                                "color-green" : 1.0,
                                "color-red" : 1.0,
                                "size" : 96.0,
                                "tracking" : 0.0,
                                "name" : "Montserrat",
                                "weight" : "Regular"
                              },
                              "textAttributes" : {
                                "type" : "textAttributeList",
                                "keyframes" : [
                                  {
                                    "endTime" : 0,
                                    "time" : 0,
                                    "value" : [{"name":"fontWeight","rangeEnd":6,"rangeStart":0,"value":400,"valueType":"int"},{"name":"fontItalic","rangeEnd":6,"rangeStart":0,"value":0,"valueType":"int"},{"name":"fontName","rangeEnd":6,"rangeStart":0,"value":"Montserrat","valueType":"string"},{"name":"fontSize","rangeEnd":6,"rangeStart":0,"value":55,"valueType":"double"},{"name":"fgColor","rangeEnd":6,"rangeStart":0,"value":"(239,231,195,255)","valueType":"color"},{"name":"strikethrough","rangeEnd":6,"rangeStart":0,"value":0,"valueType":"int"},{"name":"underline","rangeEnd":6,"rangeStart":0,"value":0,"valueType":"int"},{"name":"kerning","rangeEnd":6,"rangeStart":0,"value":0,"valueType":"double"}],
                                    "duration" : 0
                                  }
                                ]
                              }
                            },
                            "attributes" : {
                              "autoRotateText" : true
                            },
                            "parameters" : {
                              "translation0" : -1.77887982122371e-11,
                              "translation1" : -100.336673040374
                            },
                            "effects" : [
                                {
                                  "_type" : "GenericBehaviorEffect",
                                  "effectName" : "sliding",
                                  "start" : -18,
                                  "duration" : 80                                ,
                                  "in" : {
                                    "attributes" : {
                                      "name" : "sliding",
                                      "type" : 1,
                                      "characterOrder" : 0,
                                      "offsetBetweenCharacters" : 3,
                                      "suggestedDurationPerCharacter" : "999/50",
                                      "overlapProportion" : "11/20",
                                      "movement" : 16,
                                      "springDamping" : 5.0,
                                      "springStiffness" : 50.0,
                                      "bounceBounciness" : 0.45
                                    },
                                    "parameters" : {
                                      "direction" : {
                                        "type" : "int",
                                        "valueBounds" : {
                                          "minValue" : 0,
                                          "maxValue" : 3,
                                          "defaultValue" : 0
                                        },
                                        "uiHints" : {
                                          "userInterfaceType" : 2,
                                          "unitType" : 0
                                        },
                                        "keyframes" : [
                                          {
                                            "endTime" : 0,
                                            "time" : 0,
                                            "value" : 3,
                                            "duration" : 0
                                          }
                                        ]
                                      }
                                    }
                                  
                                  },
                                  "center" : {
                                    "attributes" : {
                                      "name" : "none",
                                      "type" : 1,
                                      "characterOrder" : 6,
                                      "offsetBetweenCharacters" : 0,
                                      "secondsPerLoop" : 1,
                                      "numberOfLoops" : -1,
                                      "delayBetweenLoops" : 0,
                                      "offsetBetweenCharacters" : 0
                                    }
                                  
                                  },
                                  "out" : {
                                    "attributes" : {
                                      "name" : "none",
                                      "type" : 1,
                                      "characterOrder" : 6,
                                      "offsetBetweenCharacters" : 0,
                                      "suggestedDurationPerCharacter" : 0,
                                      "overlapProportion" : 0,
                                      "movement" : -1,
                                      "springDamping" : 5.0,
                                      "springStiffness" : 50.0,
                                      "bounceBounciness" : 0.45
                                    }
                                  
                                  }
                                }
                            ],
                            "start" : 210,
                            "duration" : 80,
                            "mediaStart" : -18,
                            "mediaDuration" : 80,
                            "scalar" : 1,
                            "metadata" : {
                              "WinSubProjectDisplayName" : "",
                              "clipSpeedAttribute" : false,
                              "default-HAlign" : "center",
                              "default-LineSpace" : 0.0,
                              "default-VAlign" : "center",
                              "default-text-attributes" : "[{\"name\":\"strikethrough\",\"rangeEnd\":13,\"rangeStart\":0,\"value\":0,\"valueType\":\"int\"},{\"name\":\"fontWeight\",\"rangeEnd\":13,\"rangeStart\":0,\"value\":100,\"valueType\":\"int\"},{\"name\":\"fontSize\",\"rangeEnd\":13,\"rangeStart\":0,\"value\":55,\"valueType\":\"double\"},{\"name\":\"underline\",\"rangeEnd\":13,\"rangeStart\":0,\"value\":0,\"valueType\":\"int\"},{\"name\":\"fgColor\",\"rangeEnd\":13,\"rangeStart\":0,\"value\":\"(239,231,195,255)\",\"valueType\":\"color\"},{\"name\":\"fontItalic\",\"rangeEnd\":13,\"rangeStart\":0,\"value\":0,\"valueType\":\"int\"},{\"name\":\"fontName\",\"rangeEnd\":13,\"rangeStart\":0,\"value\":\"Montserrat\",\"valueType\":\"string\"}]",
                              "effectApplied" : "none"
                            },
                            "animationTracks" : {

                            }
                          }
                        ],
                          "ident" : "",
                          "audioMuted" : false,
                          "videoHidden" : false,
                          "magnetic" : false,
                          "metadata" : {
                            "IsLocked" : "False",
                            "WinTrackHeight" : "1.18064664215163e-311",
                            "trackHeight" : "48"
                          }
                      },
                      {
                        "trackIndex" : 2,
                        "medias" : [
                          {
                            "id" : 423,
                            "_type" : "Callout",
                            "def" : {
                              "kind" : "remix",
                              "shape" : "text",
                              "style" : "basic",
                              "height" : 177.714285714305,
                              "line-spacing" : 0.0,
                              "width" : 904.358937127979,
                              "word-wrap" : 1.0,
                              "horizontal-alignment" : "center",
                              "resize-behavior" : "resizeText",
                              "text" : "random",
                              "vertical-alignment" : "center",
                              "font" : {
                                "color-blue" : 1.0,
                                "color-green" : 1.0,
                                "color-red" : 1.0,
                                "size" : 96.0,
                                "tracking" : 0.0,
                                "name" : "Montserrat",
                                "weight" : "Regular"
                              },
                              "textAttributes" : {
                                "type" : "textAttributeList",
                                "keyframes" : [
                                  {
                                    "endTime" : 0,
                                    "time" : 0,
                                    "value" : [{"name":"fontSize","rangeEnd":6,"rangeStart":0,"value":96,"valueType":"double"},{"name":"fontName","rangeEnd":6,"rangeStart":0,"value":"Montserrat","valueType":"string"},{"name":"fontItalic","rangeEnd":6,"rangeStart":0,"value":0,"valueType":"int"},{"name":"fontWeight","rangeEnd":6,"rangeStart":0,"value":400,"valueType":"int"},{"name":"strikethrough","rangeEnd":6,"rangeStart":0,"value":0,"valueType":"int"},{"name":"underline","rangeEnd":6,"rangeStart":0,"value":0,"valueType":"int"},{"name":"kerning","rangeEnd":6,"rangeStart":0,"value":0,"valueType":"double"},{"name":"fgColor","rangeEnd":6,"rangeStart":0,"value":"(241,230,195,255)","valueType":"color"}],
                                    "duration" : 0
                                  }
                                ]
                              }
                            },
                            "attributes" : {
                              "autoRotateText" : true
                            },
                            "parameters" : {
                              "translation0" : 0.320531435861056,
                              "translation1" : 27.642853721879
                            },
                            "effects" : [
                                {
                                  "_type" : "GenericBehaviorEffect",
                                  "effectName" : "scale",
                                  "start" : -52,
                                  "duration" : 176                                ,
                                  "in" : {
                                    "attributes" : {
                                      "name" : "grow",
                                      "type" : 1,
                                      "characterOrder" : 6,
                                      "offsetBetweenCharacters" : 2,
                                      "suggestedDurationPerCharacter" : "2333/25",
                                      "overlapProportion" : "3/4",
                                      "movement" : 30,
                                      "springDamping" : 5.0,
                                      "springStiffness" : 50.0,
                                      "bounceBounciness" : 0.45
                                    }
                                  
                                  },
                                  "center" : {
                                    "attributes" : {
                                      "name" : "none",
                                      "type" : 1,
                                      "characterOrder" : 6,
                                      "offsetBetweenCharacters" : 0,
                                      "secondsPerLoop" : 1,
                                      "numberOfLoops" : -1,
                                      "delayBetweenLoops" : 0,
                                      "offsetBetweenCharacters" : 0
                                    }
                                  
                                  },
                                  "out" : {
                                    "attributes" : {
                                      "name" : "none",
                                      "type" : 1,
                                      "characterOrder" : 6,
                                      "offsetBetweenCharacters" : 0,
                                      "suggestedDurationPerCharacter" : 0,
                                      "overlapProportion" : 0,
                                      "movement" : -1,
                                      "springDamping" : 5.0,
                                      "springStiffness" : 50.0,
                                      "bounceBounciness" : 0.45
                                    }
                                  
                                  }
                                },
                                {
                                  "effectName" : "DropShadow",
                                  "category" : "categoryVisualEffects",
                                  "parameters" : {
                                    "angle" : {
                                      "type" : "double",
                                      "defaultValue" : 4.71238898038469,
                                      "valueBounds" : {
                                        "minValue" : 0.0,
                                        "maxValue" : 0.0,
                                        "defaultValue" : 5.49778714378214
                                      },
                                      "uiHints" : {
                                        "userInterfaceType" : 0,
                                        "unitType" : 0
                                      }
                                    },
                                    "blur" : {
                                      "type" : "double",
                                      "defaultValue" : 3.33066907387547e-16,
                                      "valueBounds" : {
                                        "minValue" : 0.0,
                                        "maxValue" : 50.0,
                                        "defaultValue" : 10.0
                                      },
                                      "uiHints" : {
                                        "userInterfaceType" : 0,
                                        "unitType" : 0
                                      }
                                    },
                                    "color-alpha" : {
                                      "type" : "double",
                                      "defaultValue" : 1.0,
                                      "valueBounds" : {
                                        "minValue" : 0.0,
                                        "maxValue" : 1.0,
                                        "defaultValue" : 1.0
                                      },
                                      "uiHints" : {
                                        "userInterfaceType" : 0,
                                        "unitType" : 0
                                      }
                                    },
                                    "color-blue" : {
                                      "type" : "double",
                                      "defaultValue" : 0.1216,
                                      "valueBounds" : {
                                        "minValue" : 0.0,
                                        "maxValue" : 1.0,
                                        "defaultValue" : 0.1216
                                      },
                                      "uiHints" : {
                                        "userInterfaceType" : 0,
                                        "unitType" : 0
                                      }
                                    },
                                    "color-green" : {
                                      "type" : "double",
                                      "defaultValue" : 0.1216,
                                      "valueBounds" : {
                                        "minValue" : 0.0,
                                        "maxValue" : 1.0,
                                        "defaultValue" : 0.1216
                                      },
                                      "uiHints" : {
                                        "userInterfaceType" : 0,
                                        "unitType" : 0
                                      }
                                    },
                                    "color-red" : {
                                      "type" : "double",
                                      "defaultValue" : 0.1216,
                                      "valueBounds" : {
                                        "minValue" : 0.0,
                                        "maxValue" : 1.0,
                                        "defaultValue" : 0.1216
                                      },
                                      "uiHints" : {
                                        "userInterfaceType" : 0,
                                        "unitType" : 0
                                      }
                                    },
                                    "enabled" : {
                                      "type" : "int",
                                      "valueBounds" : {
                                        "minValue" : 0,
                                        "maxValue" : 1,
                                        "defaultValue" : 1
                                      },
                                      "uiHints" : {
                                        "userInterfaceType" : 0,
                                        "unitType" : 0
                                      },
                                      "keyframes" : [
                                        {
                                          "endTime" : 0,
                                          "time" : 0,
                                          "value" : 1,
                                          "duration" : 0
                                        }
                                      ]
                                    },
                                    "offset" : {
                                      "type" : "double",
                                      "defaultValue" : 10.0,
                                      "valueBounds" : {
                                        "minValue" : 0.0,
                                        "maxValue" : 250.0,
                                        "defaultValue" : 10.0
                                      },
                                      "uiHints" : {
                                        "userInterfaceType" : 0,
                                        "unitType" : 0
                                      }
                                    },
                                    "opacity" : {
                                      "type" : "double",
                                      "defaultValue" : 0.741666666666667,
                                      "valueBounds" : {
                                        "minValue" : 0.0,
                                        "maxValue" : 1.0,
                                        "defaultValue" : 0.4
                                      },
                                      "uiHints" : {
                                        "userInterfaceType" : 0,
                                        "unitType" : 0
                                      }
                                    }
                                  }
                                }
                            ],
                            "start" : 114,
                            "duration" : 176,
                            "mediaStart" : -52,
                            "mediaDuration" : 176,
                            "scalar" : 1,
                            "metadata" : {
                              "WinSubProjectDisplayName" : "",
                              "clipSpeedAttribute" : false,
                              "default-HAlign" : "center",
                              "default-LineSpace" : 0.0,
                              "default-VAlign" : "center",
                              "default-text-attributes" : "[{\"name\":\"fontItalic\",\"rangeEnd\":9,\"rangeStart\":0,\"value\":0,\"valueType\":\"int\"},{\"name\":\"fontSize\",\"rangeEnd\":9,\"rangeStart\":0,\"value\":96,\"valueType\":\"double\"},{\"name\":\"fontName\",\"rangeEnd\":9,\"rangeStart\":0,\"value\":\"Montserrat\",\"valueType\":\"string\"},{\"name\":\"underline\",\"rangeEnd\":9,\"rangeStart\":0,\"value\":0,\"valueType\":\"int\"},{\"name\":\"fontWeight\",\"rangeEnd\":9,\"rangeStart\":0,\"value\":100,\"valueType\":\"int\"},{\"name\":\"strikethrough\",\"rangeEnd\":9,\"rangeStart\":0,\"value\":0,\"valueType\":\"int\"},{\"name\":\"fgColor\",\"rangeEnd\":9,\"rangeStart\":0,\"value\":\"(241,230,195,255)\",\"valueType\":\"color\"}]",
                              "default-translation0" : -66.0174967329584,
                              "default-translation1" : 46.64285714285,
                              "effectApplied" : "none"
                            },
                            "animationTracks" : {

                            }
                          }
                        ],
                          "ident" : "",
                          "audioMuted" : false,
                          "videoHidden" : false,
                          "magnetic" : false,
                          "metadata" : {
                            "IsLocked" : "False",
                            "WinTrackHeight" : "1.18064664215163e-311",
                            "trackHeight" : "48"
                          }
                      }
                    ],
                    "attributes" : {
                      "ident" : "squarepegs",
                      "gain" : 1.0,
                      "mixToMono" : false,
                      "assetProperties" : [
                        {
                          "type" : 0,
                          "name" : "Title",
                          "objects" : [ 423 ],
                          "themeMappings" :  {
                            "font-color" : "foreground-1",
                            "font-family" : "font-1"
                          }
                        },
                        {
                          "type" : 0,
                          "name" : "Subtitle",
                          "objects" : [ 422 ],
                          "themeMappings" :  {
                            "font-color" : "foreground-1",
                            "font-family" : "font-1"
                          }
                        }
                      ]
                    },
                    "effects" : [

                    ],
                    "start" : 37622,
                    "duration" : 176,
                    "mediaStart" : 114.0,
                    "mediaDuration" : 176.0,
                    "scalar" : 1,
                    "metadata" : {
                      "IsGroupExpanded" : "False",
                      "WinSubProjectDisplayName" : "",
                      "clipSpeedAttribute" : false,
                      "effectApplied" : "none",
                      "isOpen" : false
                    },
                    "animationTracks" : {

                    }
                  },
                  {
                    "id" : 424,
                    "_type" : "UnifiedMedia",
                    "video" : 
                        {
                          "id" : 425,
                          "_type" : "ScreenVMFile",
                          "src" : 41,
                          "trackNumber" : 0,
                          "attributes" : {
                            "ident" : "scratch-8.2-operators-random"
                          },
                          "parameters" : {
                            "cursorScale" : {
                              "type" : "double",
                              "defaultValue" : 1.0,
                              "interp" : "linr"
                            },
                            "cursorOpacity" : {
                              "type" : "double",
                              "defaultValue" : 1.0,
                              "interp" : "linr"
                            }
                          },
                          "effects" : [

                          ],
                          "start" : 37798,
                          "duration" : 548,
                          "mediaStart" : 0,
                          "mediaDuration" : 548,
                          "scalar" : 1,
                          "animationTracks" : {

                          }
                        },
                    "audio" : 
                        {
                          "id" : 426,
                          "_type" : "AMFile",
                          "src" : 41,
                          "trackNumber" : 1,
                          "attributes" : {
                            "ident" : "",
                            "gain" : 1.0,
                            "mixToMono" : false
                          },
                            "channelNumber" : "0,1",
                          "effects" : [

                          ],
                          "start" : 37798,
                          "duration" : 548,
                          "mediaStart" : 0,
                          "mediaDuration" : 548,
                          "scalar" : 1,
                          "animationTracks" : {

                          }
                        }
,
                    "start" : 37798,
                    "duration" : 548,
                    "mediaStart" : 0,
                    "mediaDuration" : 548,
                    "scalar" : 1,
                    "metadata" : {
                      "AutoAppliedSmartFocus" : "False",
                      "clipSpeedAttribute" : false
                    }
                  },
                  {
                    "id" : 427,
                    "_type" : "Group",
                    "parameters" : {
                      "volume" : 1.0
                    },
                    "tracks" : [
                      {
                        "trackIndex" : 0,
                        "medias" : [
                          {
                            "id" : 428,
                            "_type" : "UnifiedMedia",
                            "video" : 
                                {
                                  "id" : 429,
                                  "_type" : "VMFile",
                                  "src" : 51,
                                  "trackNumber" : 0,
                                  "attributes" : {
                                    "ident" : "Movie"
                                  },
                                  "effects" : [

                                  ],
                                  "start" : 114,
                                  "duration" : 176,
                                  "mediaStart" : 114,
                                  "mediaDuration" : 176,
                                  "scalar" : 1,
                                  "animationTracks" : {

                                  }
                                },
                            "audio" : 
                                {
                                  "id" : 430,
                                  "_type" : "AMFile",
                                  "src" : 51,
                                  "trackNumber" : 1,
                                  "attributes" : {
                                    "ident" : "",
                                    "gain" : 1.0,
                                    "mixToMono" : false
                                  },
                                    "channelNumber" : "0,1",
                                  "effects" : [

                                  ],
                                  "start" : 114,
                                  "duration" : 176,
                                  "mediaStart" : 114,
                                  "mediaDuration" : 176,
                                  "scalar" : 1,
                                  "animationTracks" : {

                                  }
                                }
,
                            "start" : 114,
                            "duration" : 176,
                            "mediaStart" : 0,
                            "mediaDuration" : 438,
                            "scalar" : 1,
                            "metadata" : {
                              "WinSubProjectDisplayName" : "",
                              "clipSpeedAttribute" : false,
                              "effectApplied" : "none"
                            }
                          }
                        ],
                          "ident" : "",
                          "audioMuted" : false,
                          "videoHidden" : false,
                          "magnetic" : false,
                          "metadata" : {
                            "IsLocked" : "False",
                            "WinTrackHeight" : "0",
                            "trackHeight" : "48"
                          }
                      },
                      {
                        "trackIndex" : 1,
                        "medias" : [
                          {
                            "id" : 431,
                            "_type" : "Callout",
                            "def" : {
                              "kind" : "remix",
                              "shape" : "text",
                              "style" : "basic",
                              "height" : 78.4795300319492,
                              "line-spacing" : 0.0,
                              "width" : 583.0,
                              "word-wrap" : 1.0,
                              "horizontal-alignment" : "center",
                              "resize-behavior" : "resizeText",
                              "text" : "motion",
                              "vertical-alignment" : "center",
                              "font" : {
                                "color-blue" : 1.0,
                                "color-green" : 1.0,
                                "color-red" : 1.0,
                                "size" : 96.0,
                                "tracking" : 0.0,
                                "name" : "Montserrat",
                                "weight" : "Regular"
                              },
                              "textAttributes" : {
                                "type" : "textAttributeList",
                                "keyframes" : [
                                  {
                                    "endTime" : 0,
                                    "time" : 0,
                                    "value" : [{"name":"fontWeight","rangeEnd":6,"rangeStart":0,"value":400,"valueType":"int"},{"name":"fontItalic","rangeEnd":6,"rangeStart":0,"value":0,"valueType":"int"},{"name":"fontName","rangeEnd":6,"rangeStart":0,"value":"Montserrat","valueType":"string"},{"name":"fontSize","rangeEnd":6,"rangeStart":0,"value":55,"valueType":"double"},{"name":"fgColor","rangeEnd":6,"rangeStart":0,"value":"(239,231,195,255)","valueType":"color"},{"name":"strikethrough","rangeEnd":6,"rangeStart":0,"value":0,"valueType":"int"},{"name":"underline","rangeEnd":6,"rangeStart":0,"value":0,"valueType":"int"},{"name":"kerning","rangeEnd":6,"rangeStart":0,"value":0,"valueType":"double"}],
                                    "duration" : 0
                                  }
                                ]
                              }
                            },
                            "attributes" : {
                              "autoRotateText" : true
                            },
                            "parameters" : {
                              "translation0" : -1.77887982122371e-11,
                              "translation1" : -100.336673040374
                            },
                            "effects" : [
                                {
                                  "_type" : "GenericBehaviorEffect",
                                  "effectName" : "sliding",
                                  "start" : -18,
                                  "duration" : 80                                ,
                                  "in" : {
                                    "attributes" : {
                                      "name" : "sliding",
                                      "type" : 1,
                                      "characterOrder" : 0,
                                      "offsetBetweenCharacters" : 3,
                                      "suggestedDurationPerCharacter" : "999/50",
                                      "overlapProportion" : "11/20",
                                      "movement" : 16,
                                      "springDamping" : 5.0,
                                      "springStiffness" : 50.0,
                                      "bounceBounciness" : 0.45
                                    },
                                    "parameters" : {
                                      "direction" : {
                                        "type" : "int",
                                        "valueBounds" : {
                                          "minValue" : 0,
                                          "maxValue" : 3,
                                          "defaultValue" : 0
                                        },
                                        "uiHints" : {
                                          "userInterfaceType" : 2,
                                          "unitType" : 0
                                        },
                                        "keyframes" : [
                                          {
                                            "endTime" : 0,
                                            "time" : 0,
                                            "value" : 3,
                                            "duration" : 0
                                          }
                                        ]
                                      }
                                    }
                                  
                                  },
                                  "center" : {
                                    "attributes" : {
                                      "name" : "none",
                                      "type" : 1,
                                      "characterOrder" : 6,
                                      "offsetBetweenCharacters" : 0,
                                      "secondsPerLoop" : 1,
                                      "numberOfLoops" : -1,
                                      "delayBetweenLoops" : 0,
                                      "offsetBetweenCharacters" : 0
                                    }
                                  
                                  },
                                  "out" : {
                                    "attributes" : {
                                      "name" : "none",
                                      "type" : 1,
                                      "characterOrder" : 6,
                                      "offsetBetweenCharacters" : 0,
                                      "suggestedDurationPerCharacter" : 0,
                                      "overlapProportion" : 0,
                                      "movement" : -1,
                                      "springDamping" : 5.0,
                                      "springStiffness" : 50.0,
                                      "bounceBounciness" : 0.45
                                    }
                                  
                                  }
                                }
                            ],
                            "start" : 210,
                            "duration" : 80,
                            "mediaStart" : -18,
                            "mediaDuration" : 80,
                            "scalar" : 1,
                            "metadata" : {
                              "WinSubProjectDisplayName" : "",
                              "clipSpeedAttribute" : false,
                              "default-HAlign" : "center",
                              "default-LineSpace" : 0.0,
                              "default-VAlign" : "center",
                              "default-text-attributes" : "[{\"name\":\"strikethrough\",\"rangeEnd\":13,\"rangeStart\":0,\"value\":0,\"valueType\":\"int\"},{\"name\":\"fontWeight\",\"rangeEnd\":13,\"rangeStart\":0,\"value\":100,\"valueType\":\"int\"},{\"name\":\"fontSize\",\"rangeEnd\":13,\"rangeStart\":0,\"value\":55,\"valueType\":\"double\"},{\"name\":\"underline\",\"rangeEnd\":13,\"rangeStart\":0,\"value\":0,\"valueType\":\"int\"},{\"name\":\"fgColor\",\"rangeEnd\":13,\"rangeStart\":0,\"value\":\"(239,231,195,255)\",\"valueType\":\"color\"},{\"name\":\"fontItalic\",\"rangeEnd\":13,\"rangeStart\":0,\"value\":0,\"valueType\":\"int\"},{\"name\":\"fontName\",\"rangeEnd\":13,\"rangeStart\":0,\"value\":\"Montserrat\",\"valueType\":\"string\"}]",
                              "effectApplied" : "none"
                            },
                            "animationTracks" : {

                            }
                          }
                        ],
                          "ident" : "",
                          "audioMuted" : false,
                          "videoHidden" : false,
                          "magnetic" : false,
                          "metadata" : {
                            "IsLocked" : "False",
                            "WinTrackHeight" : "1.18064664215163e-311",
                            "trackHeight" : "48"
                          }
                      },
                      {
                        "trackIndex" : 2,
                        "medias" : [
                          {
                            "id" : 432,
                            "_type" : "Callout",
                            "def" : {
                              "kind" : "remix",
                              "shape" : "text",
                              "style" : "basic",
                              "height" : 177.714285714305,
                              "line-spacing" : 0.0,
                              "width" : 904.358937127979,
                              "word-wrap" : 1.0,
                              "horizontal-alignment" : "center",
                              "resize-behavior" : "resizeText",
                              "text" : "comparison",
                              "vertical-alignment" : "center",
                              "font" : {
                                "color-blue" : 1.0,
                                "color-green" : 1.0,
                                "color-red" : 1.0,
                                "size" : 96.0,
                                "tracking" : 0.0,
                                "name" : "Montserrat",
                                "weight" : "Regular"
                              },
                              "textAttributes" : {
                                "type" : "textAttributeList",
                                "keyframes" : [
                                  {
                                    "endTime" : 0,
                                    "time" : 0,
                                    "value" : [{"name":"kerning","rangeEnd":10,"rangeStart":0,"value":0,"valueType":"double"},{"name":"fgColor","rangeEnd":10,"rangeStart":0,"value":"(241,230,195,255)","valueType":"color"},{"name":"strikethrough","rangeEnd":10,"rangeStart":0,"value":0,"valueType":"int"},{"name":"fontName","rangeEnd":10,"rangeStart":0,"value":"Montserrat","valueType":"string"},{"name":"fontSize","rangeEnd":10,"rangeStart":0,"value":96,"valueType":"double"},{"name":"fontItalic","rangeEnd":10,"rangeStart":0,"value":0,"valueType":"int"},{"name":"fontWeight","rangeEnd":10,"rangeStart":0,"value":400,"valueType":"int"},{"name":"underline","rangeEnd":10,"rangeStart":0,"value":0,"valueType":"int"}],
                                    "duration" : 0
                                  }
                                ]
                              }
                            },
                            "attributes" : {
                              "autoRotateText" : true
                            },
                            "parameters" : {
                              "translation0" : 0.320531435861056,
                              "translation1" : 27.642853721879
                            },
                            "effects" : [
                                {
                                  "_type" : "GenericBehaviorEffect",
                                  "effectName" : "scale",
                                  "start" : -52,
                                  "duration" : 176                                ,
                                  "in" : {
                                    "attributes" : {
                                      "name" : "grow",
                                      "type" : 1,
                                      "characterOrder" : 6,
                                      "offsetBetweenCharacters" : 2,
                                      "suggestedDurationPerCharacter" : "2333/25",
                                      "overlapProportion" : "3/4",
                                      "movement" : 30,
                                      "springDamping" : 5.0,
                                      "springStiffness" : 50.0,
                                      "bounceBounciness" : 0.45
                                    }
                                  
                                  },
                                  "center" : {
                                    "attributes" : {
                                      "name" : "none",
                                      "type" : 1,
                                      "characterOrder" : 6,
                                      "offsetBetweenCharacters" : 0,
                                      "secondsPerLoop" : 1,
                                      "numberOfLoops" : -1,
                                      "delayBetweenLoops" : 0,
                                      "offsetBetweenCharacters" : 0
                                    }
                                  
                                  },
                                  "out" : {
                                    "attributes" : {
                                      "name" : "none",
                                      "type" : 1,
                                      "characterOrder" : 6,
                                      "offsetBetweenCharacters" : 0,
                                      "suggestedDurationPerCharacter" : 0,
                                      "overlapProportion" : 0,
                                      "movement" : -1,
                                      "springDamping" : 5.0,
                                      "springStiffness" : 50.0,
                                      "bounceBounciness" : 0.45
                                    }
                                  
                                  }
                                },
                                {
                                  "effectName" : "DropShadow",
                                  "category" : "categoryVisualEffects",
                                  "parameters" : {
                                    "angle" : {
                                      "type" : "double",
                                      "defaultValue" : 4.71238898038469,
                                      "valueBounds" : {
                                        "minValue" : 0.0,
                                        "maxValue" : 0.0,
                                        "defaultValue" : 5.49778714378214
                                      },
                                      "uiHints" : {
                                        "userInterfaceType" : 0,
                                        "unitType" : 0
                                      }
                                    },
                                    "blur" : {
                                      "type" : "double",
                                      "defaultValue" : 3.33066907387547e-16,
                                      "valueBounds" : {
                                        "minValue" : 0.0,
                                        "maxValue" : 50.0,
                                        "defaultValue" : 10.0
                                      },
                                      "uiHints" : {
                                        "userInterfaceType" : 0,
                                        "unitType" : 0
                                      }
                                    },
                                    "color-alpha" : {
                                      "type" : "double",
                                      "defaultValue" : 1.0,
                                      "valueBounds" : {
                                        "minValue" : 0.0,
                                        "maxValue" : 1.0,
                                        "defaultValue" : 1.0
                                      },
                                      "uiHints" : {
                                        "userInterfaceType" : 0,
                                        "unitType" : 0
                                      }
                                    },
                                    "color-blue" : {
                                      "type" : "double",
                                      "defaultValue" : 0.1216,
                                      "valueBounds" : {
                                        "minValue" : 0.0,
                                        "maxValue" : 1.0,
                                        "defaultValue" : 0.1216
                                      },
                                      "uiHints" : {
                                        "userInterfaceType" : 0,
                                        "unitType" : 0
                                      }
                                    },
                                    "color-green" : {
                                      "type" : "double",
                                      "defaultValue" : 0.1216,
                                      "valueBounds" : {
                                        "minValue" : 0.0,
                                        "maxValue" : 1.0,
                                        "defaultValue" : 0.1216
                                      },
                                      "uiHints" : {
                                        "userInterfaceType" : 0,
                                        "unitType" : 0
                                      }
                                    },
                                    "color-red" : {
                                      "type" : "double",
                                      "defaultValue" : 0.1216,
                                      "valueBounds" : {
                                        "minValue" : 0.0,
                                        "maxValue" : 1.0,
                                        "defaultValue" : 0.1216
                                      },
                                      "uiHints" : {
                                        "userInterfaceType" : 0,
                                        "unitType" : 0
                                      }
                                    },
                                    "enabled" : {
                                      "type" : "int",
                                      "valueBounds" : {
                                        "minValue" : 0,
                                        "maxValue" : 1,
                                        "defaultValue" : 1
                                      },
                                      "uiHints" : {
                                        "userInterfaceType" : 0,
                                        "unitType" : 0
                                      },
                                      "keyframes" : [
                                        {
                                          "endTime" : 0,
                                          "time" : 0,
                                          "value" : 1,
                                          "duration" : 0
                                        }
                                      ]
                                    },
                                    "offset" : {
                                      "type" : "double",
                                      "defaultValue" : 10.0,
                                      "valueBounds" : {
                                        "minValue" : 0.0,
                                        "maxValue" : 250.0,
                                        "defaultValue" : 10.0
                                      },
                                      "uiHints" : {
                                        "userInterfaceType" : 0,
                                        "unitType" : 0
                                      }
                                    },
                                    "opacity" : {
                                      "type" : "double",
                                      "defaultValue" : 0.741666666666667,
                                      "valueBounds" : {
                                        "minValue" : 0.0,
                                        "maxValue" : 1.0,
                                        "defaultValue" : 0.4
                                      },
                                      "uiHints" : {
                                        "userInterfaceType" : 0,
                                        "unitType" : 0
                                      }
                                    }
                                  }
                                }
                            ],
                            "start" : 114,
                            "duration" : 176,
                            "mediaStart" : -52,
                            "mediaDuration" : 176,
                            "scalar" : 1,
                            "metadata" : {
                              "WinSubProjectDisplayName" : "",
                              "clipSpeedAttribute" : false,
                              "default-HAlign" : "center",
                              "default-LineSpace" : 0.0,
                              "default-VAlign" : "center",
                              "default-text-attributes" : "[{\"name\":\"fontItalic\",\"rangeEnd\":9,\"rangeStart\":0,\"value\":0,\"valueType\":\"int\"},{\"name\":\"fontSize\",\"rangeEnd\":9,\"rangeStart\":0,\"value\":96,\"valueType\":\"double\"},{\"name\":\"fontName\",\"rangeEnd\":9,\"rangeStart\":0,\"value\":\"Montserrat\",\"valueType\":\"string\"},{\"name\":\"underline\",\"rangeEnd\":9,\"rangeStart\":0,\"value\":0,\"valueType\":\"int\"},{\"name\":\"fontWeight\",\"rangeEnd\":9,\"rangeStart\":0,\"value\":100,\"valueType\":\"int\"},{\"name\":\"strikethrough\",\"rangeEnd\":9,\"rangeStart\":0,\"value\":0,\"valueType\":\"int\"},{\"name\":\"fgColor\",\"rangeEnd\":9,\"rangeStart\":0,\"value\":\"(241,230,195,255)\",\"valueType\":\"color\"}]",
                              "default-translation0" : -66.0174967329584,
                              "default-translation1" : 46.64285714285,
                              "effectApplied" : "none"
                            },
                            "animationTracks" : {

                            }
                          }
                        ],
                          "ident" : "",
                          "audioMuted" : false,
                          "videoHidden" : false,
                          "magnetic" : false,
                          "metadata" : {
                            "IsLocked" : "False",
                            "WinTrackHeight" : "1.18064664215163e-311",
                            "trackHeight" : "48"
                          }
                      }
                    ],
                    "attributes" : {
                      "ident" : "squarepegs",
                      "gain" : 1.0,
                      "mixToMono" : false,
                      "assetProperties" : [
                        {
                          "type" : 0,
                          "name" : "Title",
                          "objects" : [ 432 ],
                          "themeMappings" :  {
                            "font-color" : "foreground-1",
                            "font-family" : "font-1"
                          }
                        },
                        {
                          "type" : 0,
                          "name" : "Subtitle",
                          "objects" : [ 431 ],
                          "themeMappings" :  {
                            "font-color" : "foreground-1",
                            "font-family" : "font-1"
                          }
                        }
                      ]
                    },
                    "effects" : [

                    ],
                    "start" : 38346,
                    "duration" : 176,
                    "mediaStart" : 114.0,
                    "mediaDuration" : 176.0,
                    "scalar" : 1,
                    "metadata" : {
                      "IsGroupExpanded" : "False",
                      "WinSubProjectDisplayName" : "",
                      "clipSpeedAttribute" : false,
                      "effectApplied" : "none",
                      "isOpen" : false
                    },
                    "animationTracks" : {

                    }
                  },
                  {
                    "id" : 433,
                    "_type" : "UnifiedMedia",
                    "video" : 
                        {
                          "id" : 434,
                          "_type" : "ScreenVMFile",
                          "src" : 42,
                          "trackNumber" : 0,
                          "attributes" : {
                            "ident" : "scratch-8.3-operators-comparison"
                          },
                          "parameters" : {
                            "cursorScale" : {
                              "type" : "double",
                              "defaultValue" : 1.0,
                              "interp" : "linr"
                            },
                            "cursorOpacity" : {
                              "type" : "double",
                              "defaultValue" : 1.0,
                              "interp" : "linr"
                            }
                          },
                          "effects" : [

                          ],
                          "start" : 38522,
                          "duration" : 910,
                          "mediaStart" : 0,
                          "mediaDuration" : 910,
                          "scalar" : 1,
                          "animationTracks" : {

                          }
                        },
                    "audio" : 
                        {
                          "id" : 435,
                          "_type" : "AMFile",
                          "src" : 42,
                          "trackNumber" : 1,
                          "attributes" : {
                            "ident" : "",
                            "gain" : 1.0,
                            "mixToMono" : false
                          },
                            "channelNumber" : "0,1",
                          "effects" : [

                          ],
                          "start" : 38522,
                          "duration" : 910,
                          "mediaStart" : 0,
                          "mediaDuration" : 910,
                          "scalar" : 1,
                          "animationTracks" : {

                          }
                        }
,
                    "start" : 38522,
                    "duration" : 910,
                    "mediaStart" : 0,
                    "mediaDuration" : 910,
                    "scalar" : 1,
                    "metadata" : {
                      "AutoAppliedSmartFocus" : "False",
                      "clipSpeedAttribute" : false
                    }
                  },
                  {
                    "id" : 436,
                    "_type" : "Group",
                    "parameters" : {
                      "volume" : 1.0
                    },
                    "tracks" : [
                      {
                        "trackIndex" : 0,
                        "medias" : [
                          {
                            "id" : 437,
                            "_type" : "UnifiedMedia",
                            "video" : 
                                {
                                  "id" : 438,
                                  "_type" : "VMFile",
                                  "src" : 51,
                                  "trackNumber" : 0,
                                  "attributes" : {
                                    "ident" : "Movie"
                                  },
                                  "effects" : [

                                  ],
                                  "start" : 114,
                                  "duration" : 176,
                                  "mediaStart" : 114,
                                  "mediaDuration" : 176,
                                  "scalar" : 1,
                                  "animationTracks" : {

                                  }
                                },
                            "audio" : 
                                {
                                  "id" : 439,
                                  "_type" : "AMFile",
                                  "src" : 51,
                                  "trackNumber" : 1,
                                  "attributes" : {
                                    "ident" : "",
                                    "gain" : 1.0,
                                    "mixToMono" : false
                                  },
                                    "channelNumber" : "0,1",
                                  "effects" : [

                                  ],
                                  "start" : 114,
                                  "duration" : 176,
                                  "mediaStart" : 114,
                                  "mediaDuration" : 176,
                                  "scalar" : 1,
                                  "animationTracks" : {

                                  }
                                }
,
                            "start" : 114,
                            "duration" : 176,
                            "mediaStart" : 0,
                            "mediaDuration" : 438,
                            "scalar" : 1,
                            "metadata" : {
                              "WinSubProjectDisplayName" : "",
                              "clipSpeedAttribute" : false,
                              "effectApplied" : "none"
                            }
                          }
                        ],
                          "ident" : "",
                          "audioMuted" : false,
                          "videoHidden" : false,
                          "magnetic" : false,
                          "metadata" : {
                            "IsLocked" : "False",
                            "WinTrackHeight" : "0",
                            "trackHeight" : "48"
                          }
                      },
                      {
                        "trackIndex" : 1,
                        "medias" : [
                          {
                            "id" : 440,
                            "_type" : "Callout",
                            "def" : {
                              "kind" : "remix",
                              "shape" : "text",
                              "style" : "basic",
                              "height" : 78.4795300319492,
                              "line-spacing" : 0.0,
                              "width" : 583.0,
                              "word-wrap" : 1.0,
                              "horizontal-alignment" : "center",
                              "resize-behavior" : "resizeText",
                              "text" : "motion",
                              "vertical-alignment" : "center",
                              "font" : {
                                "color-blue" : 1.0,
                                "color-green" : 1.0,
                                "color-red" : 1.0,
                                "size" : 96.0,
                                "tracking" : 0.0,
                                "name" : "Montserrat",
                                "weight" : "Regular"
                              },
                              "textAttributes" : {
                                "type" : "textAttributeList",
                                "keyframes" : [
                                  {
                                    "endTime" : 0,
                                    "time" : 0,
                                    "value" : [{"name":"fontWeight","rangeEnd":6,"rangeStart":0,"value":400,"valueType":"int"},{"name":"fontItalic","rangeEnd":6,"rangeStart":0,"value":0,"valueType":"int"},{"name":"fontName","rangeEnd":6,"rangeStart":0,"value":"Montserrat","valueType":"string"},{"name":"fontSize","rangeEnd":6,"rangeStart":0,"value":55,"valueType":"double"},{"name":"fgColor","rangeEnd":6,"rangeStart":0,"value":"(239,231,195,255)","valueType":"color"},{"name":"strikethrough","rangeEnd":6,"rangeStart":0,"value":0,"valueType":"int"},{"name":"underline","rangeEnd":6,"rangeStart":0,"value":0,"valueType":"int"},{"name":"kerning","rangeEnd":6,"rangeStart":0,"value":0,"valueType":"double"}],
                                    "duration" : 0
                                  }
                                ]
                              }
                            },
                            "attributes" : {
                              "autoRotateText" : true
                            },
                            "parameters" : {
                              "translation0" : -1.77887982122371e-11,
                              "translation1" : -100.336673040374
                            },
                            "effects" : [
                                {
                                  "_type" : "GenericBehaviorEffect",
                                  "effectName" : "sliding",
                                  "start" : -18,
                                  "duration" : 80                                ,
                                  "in" : {
                                    "attributes" : {
                                      "name" : "sliding",
                                      "type" : 1,
                                      "characterOrder" : 0,
                                      "offsetBetweenCharacters" : 3,
                                      "suggestedDurationPerCharacter" : "999/50",
                                      "overlapProportion" : "11/20",
                                      "movement" : 16,
                                      "springDamping" : 5.0,
                                      "springStiffness" : 50.0,
                                      "bounceBounciness" : 0.45
                                    },
                                    "parameters" : {
                                      "direction" : {
                                        "type" : "int",
                                        "valueBounds" : {
                                          "minValue" : 0,
                                          "maxValue" : 3,
                                          "defaultValue" : 0
                                        },
                                        "uiHints" : {
                                          "userInterfaceType" : 2,
                                          "unitType" : 0
                                        },
                                        "keyframes" : [
                                          {
                                            "endTime" : 0,
                                            "time" : 0,
                                            "value" : 3,
                                            "duration" : 0
                                          }
                                        ]
                                      }
                                    }
                                  
                                  },
                                  "center" : {
                                    "attributes" : {
                                      "name" : "none",
                                      "type" : 1,
                                      "characterOrder" : 6,
                                      "offsetBetweenCharacters" : 0,
                                      "secondsPerLoop" : 1,
                                      "numberOfLoops" : -1,
                                      "delayBetweenLoops" : 0,
                                      "offsetBetweenCharacters" : 0
                                    }
                                  
                                  },
                                  "out" : {
                                    "attributes" : {
                                      "name" : "none",
                                      "type" : 1,
                                      "characterOrder" : 6,
                                      "offsetBetweenCharacters" : 0,
                                      "suggestedDurationPerCharacter" : 0,
                                      "overlapProportion" : 0,
                                      "movement" : -1,
                                      "springDamping" : 5.0,
                                      "springStiffness" : 50.0,
                                      "bounceBounciness" : 0.45
                                    }
                                  
                                  }
                                }
                            ],
                            "start" : 210,
                            "duration" : 80,
                            "mediaStart" : -18,
                            "mediaDuration" : 80,
                            "scalar" : 1,
                            "metadata" : {
                              "WinSubProjectDisplayName" : "",
                              "clipSpeedAttribute" : false,
                              "default-HAlign" : "center",
                              "default-LineSpace" : 0.0,
                              "default-VAlign" : "center",
                              "default-text-attributes" : "[{\"name\":\"strikethrough\",\"rangeEnd\":13,\"rangeStart\":0,\"value\":0,\"valueType\":\"int\"},{\"name\":\"fontWeight\",\"rangeEnd\":13,\"rangeStart\":0,\"value\":100,\"valueType\":\"int\"},{\"name\":\"fontSize\",\"rangeEnd\":13,\"rangeStart\":0,\"value\":55,\"valueType\":\"double\"},{\"name\":\"underline\",\"rangeEnd\":13,\"rangeStart\":0,\"value\":0,\"valueType\":\"int\"},{\"name\":\"fgColor\",\"rangeEnd\":13,\"rangeStart\":0,\"value\":\"(239,231,195,255)\",\"valueType\":\"color\"},{\"name\":\"fontItalic\",\"rangeEnd\":13,\"rangeStart\":0,\"value\":0,\"valueType\":\"int\"},{\"name\":\"fontName\",\"rangeEnd\":13,\"rangeStart\":0,\"value\":\"Montserrat\",\"valueType\":\"string\"}]",
                              "effectApplied" : "none"
                            },
                            "animationTracks" : {

                            }
                          }
                        ],
                          "ident" : "",
                          "audioMuted" : false,
                          "videoHidden" : false,
                          "magnetic" : false,
                          "metadata" : {
                            "IsLocked" : "False",
                            "WinTrackHeight" : "1.18064664215163e-311",
                            "trackHeight" : "48"
                          }
                      },
                      {
                        "trackIndex" : 2,
                        "medias" : [
                          {
                            "id" : 441,
                            "_type" : "Callout",
                            "def" : {
                              "kind" : "remix",
                              "shape" : "text",
                              "style" : "basic",
                              "height" : 177.714285714305,
                              "line-spacing" : 0.0,
                              "width" : 904.358937127979,
                              "word-wrap" : 1.0,
                              "horizontal-alignment" : "center",
                              "resize-behavior" : "resizeText",
                              "text" : "boolean",
                              "vertical-alignment" : "center",
                              "font" : {
                                "color-blue" : 1.0,
                                "color-green" : 1.0,
                                "color-red" : 1.0,
                                "size" : 96.0,
                                "tracking" : 0.0,
                                "name" : "Montserrat",
                                "weight" : "Regular"
                              },
                              "textAttributes" : {
                                "type" : "textAttributeList",
                                "keyframes" : [
                                  {
                                    "endTime" : 0,
                                    "time" : 0,
                                    "value" : [{"name":"strikethrough","rangeEnd":7,"rangeStart":0,"value":0,"valueType":"int"},{"name":"underline","rangeEnd":7,"rangeStart":0,"value":0,"valueType":"int"},{"name":"fontWeight","rangeEnd":7,"rangeStart":0,"value":400,"valueType":"int"},{"name":"fontSize","rangeEnd":7,"rangeStart":0,"value":96,"valueType":"double"},{"name":"fontItalic","rangeEnd":7,"rangeStart":0,"value":0,"valueType":"int"},{"name":"fgColor","rangeEnd":7,"rangeStart":0,"value":"(241,230,195,255)","valueType":"color"},{"name":"fontName","rangeEnd":7,"rangeStart":0,"value":"Montserrat","valueType":"string"},{"name":"kerning","rangeEnd":7,"rangeStart":0,"value":0,"valueType":"double"}],
                                    "duration" : 0
                                  }
                                ]
                              }
                            },
                            "attributes" : {
                              "autoRotateText" : true
                            },
                            "parameters" : {
                              "translation0" : 0.320531435861056,
                              "translation1" : 27.642853721879
                            },
                            "effects" : [
                                {
                                  "_type" : "GenericBehaviorEffect",
                                  "effectName" : "scale",
                                  "start" : -52,
                                  "duration" : 176                                ,
                                  "in" : {
                                    "attributes" : {
                                      "name" : "grow",
                                      "type" : 1,
                                      "characterOrder" : 6,
                                      "offsetBetweenCharacters" : 2,
                                      "suggestedDurationPerCharacter" : "2333/25",
                                      "overlapProportion" : "3/4",
                                      "movement" : 30,
                                      "springDamping" : 5.0,
                                      "springStiffness" : 50.0,
                                      "bounceBounciness" : 0.45
                                    }
                                  
                                  },
                                  "center" : {
                                    "attributes" : {
                                      "name" : "none",
                                      "type" : 1,
                                      "characterOrder" : 6,
                                      "offsetBetweenCharacters" : 0,
                                      "secondsPerLoop" : 1,
                                      "numberOfLoops" : -1,
                                      "delayBetweenLoops" : 0,
                                      "offsetBetweenCharacters" : 0
                                    }
                                  
                                  },
                                  "out" : {
                                    "attributes" : {
                                      "name" : "none",
                                      "type" : 1,
                                      "characterOrder" : 6,
                                      "offsetBetweenCharacters" : 0,
                                      "suggestedDurationPerCharacter" : 0,
                                      "overlapProportion" : 0,
                                      "movement" : -1,
                                      "springDamping" : 5.0,
                                      "springStiffness" : 50.0,
                                      "bounceBounciness" : 0.45
                                    }
                                  
                                  }
                                },
                                {
                                  "effectName" : "DropShadow",
                                  "category" : "categoryVisualEffects",
                                  "parameters" : {
                                    "angle" : {
                                      "type" : "double",
                                      "defaultValue" : 4.71238898038469,
                                      "valueBounds" : {
                                        "minValue" : 0.0,
                                        "maxValue" : 0.0,
                                        "defaultValue" : 5.49778714378214
                                      },
                                      "uiHints" : {
                                        "userInterfaceType" : 0,
                                        "unitType" : 0
                                      }
                                    },
                                    "blur" : {
                                      "type" : "double",
                                      "defaultValue" : 3.33066907387547e-16,
                                      "valueBounds" : {
                                        "minValue" : 0.0,
                                        "maxValue" : 50.0,
                                        "defaultValue" : 10.0
                                      },
                                      "uiHints" : {
                                        "userInterfaceType" : 0,
                                        "unitType" : 0
                                      }
                                    },
                                    "color-alpha" : {
                                      "type" : "double",
                                      "defaultValue" : 1.0,
                                      "valueBounds" : {
                                        "minValue" : 0.0,
                                        "maxValue" : 1.0,
                                        "defaultValue" : 1.0
                                      },
                                      "uiHints" : {
                                        "userInterfaceType" : 0,
                                        "unitType" : 0
                                      }
                                    },
                                    "color-blue" : {
                                      "type" : "double",
                                      "defaultValue" : 0.1216,
                                      "valueBounds" : {
                                        "minValue" : 0.0,
                                        "maxValue" : 1.0,
                                        "defaultValue" : 0.1216
                                      },
                                      "uiHints" : {
                                        "userInterfaceType" : 0,
                                        "unitType" : 0
                                      }
                                    },
                                    "color-green" : {
                                      "type" : "double",
                                      "defaultValue" : 0.1216,
                                      "valueBounds" : {
                                        "minValue" : 0.0,
                                        "maxValue" : 1.0,
                                        "defaultValue" : 0.1216
                                      },
                                      "uiHints" : {
                                        "userInterfaceType" : 0,
                                        "unitType" : 0
                                      }
                                    },
                                    "color-red" : {
                                      "type" : "double",
                                      "defaultValue" : 0.1216,
                                      "valueBounds" : {
                                        "minValue" : 0.0,
                                        "maxValue" : 1.0,
                                        "defaultValue" : 0.1216
                                      },
                                      "uiHints" : {
                                        "userInterfaceType" : 0,
                                        "unitType" : 0
                                      }
                                    },
                                    "enabled" : {
                                      "type" : "int",
                                      "valueBounds" : {
                                        "minValue" : 0,
                                        "maxValue" : 1,
                                        "defaultValue" : 1
                                      },
                                      "uiHints" : {
                                        "userInterfaceType" : 0,
                                        "unitType" : 0
                                      },
                                      "keyframes" : [
                                        {
                                          "endTime" : 0,
                                          "time" : 0,
                                          "value" : 1,
                                          "duration" : 0
                                        }
                                      ]
                                    },
                                    "offset" : {
                                      "type" : "double",
                                      "defaultValue" : 10.0,
                                      "valueBounds" : {
                                        "minValue" : 0.0,
                                        "maxValue" : 250.0,
                                        "defaultValue" : 10.0
                                      },
                                      "uiHints" : {
                                        "userInterfaceType" : 0,
                                        "unitType" : 0
                                      }
                                    },
                                    "opacity" : {
                                      "type" : "double",
                                      "defaultValue" : 0.741666666666667,
                                      "valueBounds" : {
                                        "minValue" : 0.0,
                                        "maxValue" : 1.0,
                                        "defaultValue" : 0.4
                                      },
                                      "uiHints" : {
                                        "userInterfaceType" : 0,
                                        "unitType" : 0
                                      }
                                    }
                                  }
                                }
                            ],
                            "start" : 114,
                            "duration" : 176,
                            "mediaStart" : -52,
                            "mediaDuration" : 176,
                            "scalar" : 1,
                            "metadata" : {
                              "WinSubProjectDisplayName" : "",
                              "clipSpeedAttribute" : false,
                              "default-HAlign" : "center",
                              "default-LineSpace" : 0.0,
                              "default-VAlign" : "center",
                              "default-text-attributes" : "[{\"name\":\"fontItalic\",\"rangeEnd\":9,\"rangeStart\":0,\"value\":0,\"valueType\":\"int\"},{\"name\":\"fontSize\",\"rangeEnd\":9,\"rangeStart\":0,\"value\":96,\"valueType\":\"double\"},{\"name\":\"fontName\",\"rangeEnd\":9,\"rangeStart\":0,\"value\":\"Montserrat\",\"valueType\":\"string\"},{\"name\":\"underline\",\"rangeEnd\":9,\"rangeStart\":0,\"value\":0,\"valueType\":\"int\"},{\"name\":\"fontWeight\",\"rangeEnd\":9,\"rangeStart\":0,\"value\":100,\"valueType\":\"int\"},{\"name\":\"strikethrough\",\"rangeEnd\":9,\"rangeStart\":0,\"value\":0,\"valueType\":\"int\"},{\"name\":\"fgColor\",\"rangeEnd\":9,\"rangeStart\":0,\"value\":\"(241,230,195,255)\",\"valueType\":\"color\"}]",
                              "default-translation0" : -66.0174967329584,
                              "default-translation1" : 46.64285714285,
                              "effectApplied" : "none"
                            },
                            "animationTracks" : {

                            }
                          }
                        ],
                          "ident" : "",
                          "audioMuted" : false,
                          "videoHidden" : false,
                          "magnetic" : false,
                          "metadata" : {
                            "IsLocked" : "False",
                            "WinTrackHeight" : "1.18064664215163e-311",
                            "trackHeight" : "48"
                          }
                      }
                    ],
                    "attributes" : {
                      "ident" : "squarepegs",
                      "gain" : 1.0,
                      "mixToMono" : false,
                      "assetProperties" : [
                        {
                          "type" : 0,
                          "name" : "Title",
                          "objects" : [ 441 ],
                          "themeMappings" :  {
                            "font-color" : "foreground-1",
                            "font-family" : "font-1"
                          }
                        },
                        {
                          "type" : 0,
                          "name" : "Subtitle",
                          "objects" : [ 440 ],
                          "themeMappings" :  {
                            "font-color" : "foreground-1",
                            "font-family" : "font-1"
                          }
                        }
                      ]
                    },
                    "effects" : [

                    ],
                    "start" : 39432,
                    "duration" : 176,
                    "mediaStart" : 114.0,
                    "mediaDuration" : 176.0,
                    "scalar" : 1,
                    "metadata" : {
                      "IsGroupExpanded" : "False",
                      "WinSubProjectDisplayName" : "",
                      "clipSpeedAttribute" : false,
                      "effectApplied" : "none",
                      "isOpen" : false
                    },
                    "animationTracks" : {

                    }
                  },
                  {
                    "id" : 442,
                    "_type" : "UnifiedMedia",
                    "video" : 
                        {
                          "id" : 443,
                          "_type" : "ScreenVMFile",
                          "src" : 43,
                          "trackNumber" : 0,
                          "attributes" : {
                            "ident" : "scratch-8.4-operators-boolean"
                          },
                          "parameters" : {
                            "cursorScale" : {
                              "type" : "double",
                              "defaultValue" : 1.0,
                              "interp" : "linr"
                            },
                            "cursorOpacity" : {
                              "type" : "double",
                              "defaultValue" : 1.0,
                              "interp" : "linr"
                            }
                          },
                          "effects" : [

                          ],
                          "start" : 39608,
                          "duration" : 1600,
                          "mediaStart" : 0,
                          "mediaDuration" : 1600,
                          "scalar" : 1,
                          "animationTracks" : {

                          }
                        },
                    "audio" : 
                        {
                          "id" : 444,
                          "_type" : "AMFile",
                          "src" : 43,
                          "trackNumber" : 1,
                          "attributes" : {
                            "ident" : "",
                            "gain" : 1.0,
                            "mixToMono" : false
                          },
                            "channelNumber" : "0,1",
                          "effects" : [

                          ],
                          "start" : 39608,
                          "duration" : 1600,
                          "mediaStart" : 0,
                          "mediaDuration" : 1600,
                          "scalar" : 1,
                          "animationTracks" : {

                          }
                        }
,
                    "start" : 39608,
                    "duration" : 1600,
                    "mediaStart" : 0,
                    "mediaDuration" : 1600,
                    "scalar" : 1,
                    "metadata" : {
                      "AutoAppliedSmartFocus" : "False",
                      "clipSpeedAttribute" : false
                    }
                  },
                  {
                    "id" : 445,
                    "_type" : "Group",
                    "parameters" : {
                      "volume" : 1.0
                    },
                    "tracks" : [
                      {
                        "trackIndex" : 0,
                        "medias" : [
                          {
                            "id" : 446,
                            "_type" : "UnifiedMedia",
                            "video" : 
                                {
                                  "id" : 447,
                                  "_type" : "VMFile",
                                  "src" : 51,
                                  "trackNumber" : 0,
                                  "attributes" : {
                                    "ident" : "Movie"
                                  },
                                  "effects" : [

                                  ],
                                  "start" : 114,
                                  "duration" : 176,
                                  "mediaStart" : 114,
                                  "mediaDuration" : 176,
                                  "scalar" : 1,
                                  "animationTracks" : {

                                  }
                                },
                            "audio" : 
                                {
                                  "id" : 448,
                                  "_type" : "AMFile",
                                  "src" : 51,
                                  "trackNumber" : 1,
                                  "attributes" : {
                                    "ident" : "",
                                    "gain" : 1.0,
                                    "mixToMono" : false
                                  },
                                    "channelNumber" : "0,1",
                                  "effects" : [

                                  ],
                                  "start" : 114,
                                  "duration" : 176,
                                  "mediaStart" : 114,
                                  "mediaDuration" : 176,
                                  "scalar" : 1,
                                  "animationTracks" : {

                                  }
                                }
,
                            "start" : 114,
                            "duration" : 176,
                            "mediaStart" : 0,
                            "mediaDuration" : 438,
                            "scalar" : 1,
                            "metadata" : {
                              "WinSubProjectDisplayName" : "",
                              "clipSpeedAttribute" : false,
                              "effectApplied" : "none"
                            }
                          }
                        ],
                          "ident" : "",
                          "audioMuted" : false,
                          "videoHidden" : false,
                          "magnetic" : false,
                          "metadata" : {
                            "IsLocked" : "False",
                            "WinTrackHeight" : "0",
                            "trackHeight" : "48"
                          }
                      },
                      {
                        "trackIndex" : 1,
                        "medias" : [
                          {
                            "id" : 449,
                            "_type" : "Callout",
                            "def" : {
                              "kind" : "remix",
                              "shape" : "text",
                              "style" : "basic",
                              "height" : 78.4795300319492,
                              "line-spacing" : 0.0,
                              "width" : 583.0,
                              "word-wrap" : 1.0,
                              "horizontal-alignment" : "center",
                              "resize-behavior" : "resizeText",
                              "text" : "motion",
                              "vertical-alignment" : "center",
                              "font" : {
                                "color-blue" : 1.0,
                                "color-green" : 1.0,
                                "color-red" : 1.0,
                                "size" : 96.0,
                                "tracking" : 0.0,
                                "name" : "Montserrat",
                                "weight" : "Regular"
                              },
                              "textAttributes" : {
                                "type" : "textAttributeList",
                                "keyframes" : [
                                  {
                                    "endTime" : 0,
                                    "time" : 0,
                                    "value" : [{"name":"fontWeight","rangeEnd":6,"rangeStart":0,"value":400,"valueType":"int"},{"name":"fontItalic","rangeEnd":6,"rangeStart":0,"value":0,"valueType":"int"},{"name":"fontName","rangeEnd":6,"rangeStart":0,"value":"Montserrat","valueType":"string"},{"name":"fontSize","rangeEnd":6,"rangeStart":0,"value":55,"valueType":"double"},{"name":"fgColor","rangeEnd":6,"rangeStart":0,"value":"(239,231,195,255)","valueType":"color"},{"name":"strikethrough","rangeEnd":6,"rangeStart":0,"value":0,"valueType":"int"},{"name":"underline","rangeEnd":6,"rangeStart":0,"value":0,"valueType":"int"},{"name":"kerning","rangeEnd":6,"rangeStart":0,"value":0,"valueType":"double"}],
                                    "duration" : 0
                                  }
                                ]
                              }
                            },
                            "attributes" : {
                              "autoRotateText" : true
                            },
                            "parameters" : {
                              "translation0" : -1.77887982122371e-11,
                              "translation1" : -100.336673040374
                            },
                            "effects" : [
                                {
                                  "_type" : "GenericBehaviorEffect",
                                  "effectName" : "sliding",
                                  "start" : -18,
                                  "duration" : 80                                ,
                                  "in" : {
                                    "attributes" : {
                                      "name" : "sliding",
                                      "type" : 1,
                                      "characterOrder" : 0,
                                      "offsetBetweenCharacters" : 3,
                                      "suggestedDurationPerCharacter" : "999/50",
                                      "overlapProportion" : "11/20",
                                      "movement" : 16,
                                      "springDamping" : 5.0,
                                      "springStiffness" : 50.0,
                                      "bounceBounciness" : 0.45
                                    },
                                    "parameters" : {
                                      "direction" : {
                                        "type" : "int",
                                        "valueBounds" : {
                                          "minValue" : 0,
                                          "maxValue" : 3,
                                          "defaultValue" : 0
                                        },
                                        "uiHints" : {
                                          "userInterfaceType" : 2,
                                          "unitType" : 0
                                        },
                                        "keyframes" : [
                                          {
                                            "endTime" : 0,
                                            "time" : 0,
                                            "value" : 3,
                                            "duration" : 0
                                          }
                                        ]
                                      }
                                    }
                                  
                                  },
                                  "center" : {
                                    "attributes" : {
                                      "name" : "none",
                                      "type" : 1,
                                      "characterOrder" : 6,
                                      "offsetBetweenCharacters" : 0,
                                      "secondsPerLoop" : 1,
                                      "numberOfLoops" : -1,
                                      "delayBetweenLoops" : 0,
                                      "offsetBetweenCharacters" : 0
                                    }
                                  
                                  },
                                  "out" : {
                                    "attributes" : {
                                      "name" : "none",
                                      "type" : 1,
                                      "characterOrder" : 6,
                                      "offsetBetweenCharacters" : 0,
                                      "suggestedDurationPerCharacter" : 0,
                                      "overlapProportion" : 0,
                                      "movement" : -1,
                                      "springDamping" : 5.0,
                                      "springStiffness" : 50.0,
                                      "bounceBounciness" : 0.45
                                    }
                                  
                                  }
                                }
                            ],
                            "start" : 210,
                            "duration" : 80,
                            "mediaStart" : -18,
                            "mediaDuration" : 80,
                            "scalar" : 1,
                            "metadata" : {
                              "WinSubProjectDisplayName" : "",
                              "clipSpeedAttribute" : false,
                              "default-HAlign" : "center",
                              "default-LineSpace" : 0.0,
                              "default-VAlign" : "center",
                              "default-text-attributes" : "[{\"name\":\"strikethrough\",\"rangeEnd\":13,\"rangeStart\":0,\"value\":0,\"valueType\":\"int\"},{\"name\":\"fontWeight\",\"rangeEnd\":13,\"rangeStart\":0,\"value\":100,\"valueType\":\"int\"},{\"name\":\"fontSize\",\"rangeEnd\":13,\"rangeStart\":0,\"value\":55,\"valueType\":\"double\"},{\"name\":\"underline\",\"rangeEnd\":13,\"rangeStart\":0,\"value\":0,\"valueType\":\"int\"},{\"name\":\"fgColor\",\"rangeEnd\":13,\"rangeStart\":0,\"value\":\"(239,231,195,255)\",\"valueType\":\"color\"},{\"name\":\"fontItalic\",\"rangeEnd\":13,\"rangeStart\":0,\"value\":0,\"valueType\":\"int\"},{\"name\":\"fontName\",\"rangeEnd\":13,\"rangeStart\":0,\"value\":\"Montserrat\",\"valueType\":\"string\"}]",
                              "effectApplied" : "none"
                            },
                            "animationTracks" : {

                            }
                          }
                        ],
                          "ident" : "",
                          "audioMuted" : false,
                          "videoHidden" : false,
                          "magnetic" : false,
                          "metadata" : {
                            "IsLocked" : "False",
                            "WinTrackHeight" : "1.18064664215163e-311",
                            "trackHeight" : "48"
                          }
                      },
                      {
                        "trackIndex" : 2,
                        "medias" : [
                          {
                            "id" : 450,
                            "_type" : "Callout",
                            "def" : {
                              "kind" : "remix",
                              "shape" : "text",
                              "style" : "basic",
                              "height" : 177.714285714305,
                              "line-spacing" : 0.0,
                              "width" : 904.358937127979,
                              "word-wrap" : 1.0,
                              "horizontal-alignment" : "center",
                              "resize-behavior" : "resizeText",
                              "text" : "string",
                              "vertical-alignment" : "center",
                              "font" : {
                                "color-blue" : 1.0,
                                "color-green" : 1.0,
                                "color-red" : 1.0,
                                "size" : 96.0,
                                "tracking" : 0.0,
                                "name" : "Montserrat",
                                "weight" : "Regular"
                              },
                              "textAttributes" : {
                                "type" : "textAttributeList",
                                "keyframes" : [
                                  {
                                    "endTime" : 0,
                                    "time" : 0,
                                    "value" : [{"name":"strikethrough","rangeEnd":6,"rangeStart":0,"value":0,"valueType":"int"},{"name":"kerning","rangeEnd":6,"rangeStart":0,"value":0,"valueType":"double"},{"name":"fontWeight","rangeEnd":6,"rangeStart":0,"value":400,"valueType":"int"},{"name":"fgColor","rangeEnd":6,"rangeStart":0,"value":"(241,230,195,255)","valueType":"color"},{"name":"fontName","rangeEnd":6,"rangeStart":0,"value":"Montserrat","valueType":"string"},{"name":"fontSize","rangeEnd":6,"rangeStart":0,"value":96,"valueType":"double"},{"name":"fontItalic","rangeEnd":6,"rangeStart":0,"value":0,"valueType":"int"},{"name":"underline","rangeEnd":6,"rangeStart":0,"value":0,"valueType":"int"}],
                                    "duration" : 0
                                  }
                                ]
                              }
                            },
                            "attributes" : {
                              "autoRotateText" : true
                            },
                            "parameters" : {
                              "translation0" : 0.320531435861056,
                              "translation1" : 27.642853721879
                            },
                            "effects" : [
                                {
                                  "_type" : "GenericBehaviorEffect",
                                  "effectName" : "scale",
                                  "start" : -52,
                                  "duration" : 176                                ,
                                  "in" : {
                                    "attributes" : {
                                      "name" : "grow",
                                      "type" : 1,
                                      "characterOrder" : 6,
                                      "offsetBetweenCharacters" : 2,
                                      "suggestedDurationPerCharacter" : "2333/25",
                                      "overlapProportion" : "3/4",
                                      "movement" : 30,
                                      "springDamping" : 5.0,
                                      "springStiffness" : 50.0,
                                      "bounceBounciness" : 0.45
                                    }
                                  
                                  },
                                  "center" : {
                                    "attributes" : {
                                      "name" : "none",
                                      "type" : 1,
                                      "characterOrder" : 6,
                                      "offsetBetweenCharacters" : 0,
                                      "secondsPerLoop" : 1,
                                      "numberOfLoops" : -1,
                                      "delayBetweenLoops" : 0,
                                      "offsetBetweenCharacters" : 0
                                    }
                                  
                                  },
                                  "out" : {
                                    "attributes" : {
                                      "name" : "none",
                                      "type" : 1,
                                      "characterOrder" : 6,
                                      "offsetBetweenCharacters" : 0,
                                      "suggestedDurationPerCharacter" : 0,
                                      "overlapProportion" : 0,
                                      "movement" : -1,
                                      "springDamping" : 5.0,
                                      "springStiffness" : 50.0,
                                      "bounceBounciness" : 0.45
                                    }
                                  
                                  }
                                },
                                {
                                  "effectName" : "DropShadow",
                                  "category" : "categoryVisualEffects",
                                  "parameters" : {
                                    "angle" : {
                                      "type" : "double",
                                      "defaultValue" : 4.71238898038469,
                                      "valueBounds" : {
                                        "minValue" : 0.0,
                                        "maxValue" : 0.0,
                                        "defaultValue" : 5.49778714378214
                                      },
                                      "uiHints" : {
                                        "userInterfaceType" : 0,
                                        "unitType" : 0
                                      }
                                    },
                                    "blur" : {
                                      "type" : "double",
                                      "defaultValue" : 3.33066907387547e-16,
                                      "valueBounds" : {
                                        "minValue" : 0.0,
                                        "maxValue" : 50.0,
                                        "defaultValue" : 10.0
                                      },
                                      "uiHints" : {
                                        "userInterfaceType" : 0,
                                        "unitType" : 0
                                      }
                                    },
                                    "color-alpha" : {
                                      "type" : "double",
                                      "defaultValue" : 1.0,
                                      "valueBounds" : {
                                        "minValue" : 0.0,
                                        "maxValue" : 1.0,
                                        "defaultValue" : 1.0
                                      },
                                      "uiHints" : {
                                        "userInterfaceType" : 0,
                                        "unitType" : 0
                                      }
                                    },
                                    "color-blue" : {
                                      "type" : "double",
                                      "defaultValue" : 0.1216,
                                      "valueBounds" : {
                                        "minValue" : 0.0,
                                        "maxValue" : 1.0,
                                        "defaultValue" : 0.1216
                                      },
                                      "uiHints" : {
                                        "userInterfaceType" : 0,
                                        "unitType" : 0
                                      }
                                    },
                                    "color-green" : {
                                      "type" : "double",
                                      "defaultValue" : 0.1216,
                                      "valueBounds" : {
                                        "minValue" : 0.0,
                                        "maxValue" : 1.0,
                                        "defaultValue" : 0.1216
                                      },
                                      "uiHints" : {
                                        "userInterfaceType" : 0,
                                        "unitType" : 0
                                      }
                                    },
                                    "color-red" : {
                                      "type" : "double",
                                      "defaultValue" : 0.1216,
                                      "valueBounds" : {
                                        "minValue" : 0.0,
                                        "maxValue" : 1.0,
                                        "defaultValue" : 0.1216
                                      },
                                      "uiHints" : {
                                        "userInterfaceType" : 0,
                                        "unitType" : 0
                                      }
                                    },
                                    "enabled" : {
                                      "type" : "int",
                                      "valueBounds" : {
                                        "minValue" : 0,
                                        "maxValue" : 1,
                                        "defaultValue" : 1
                                      },
                                      "uiHints" : {
                                        "userInterfaceType" : 0,
                                        "unitType" : 0
                                      },
                                      "keyframes" : [
                                        {
                                          "endTime" : 0,
                                          "time" : 0,
                                          "value" : 1,
                                          "duration" : 0
                                        }
                                      ]
                                    },
                                    "offset" : {
                                      "type" : "double",
                                      "defaultValue" : 10.0,
                                      "valueBounds" : {
                                        "minValue" : 0.0,
                                        "maxValue" : 250.0,
                                        "defaultValue" : 10.0
                                      },
                                      "uiHints" : {
                                        "userInterfaceType" : 0,
                                        "unitType" : 0
                                      }
                                    },
                                    "opacity" : {
                                      "type" : "double",
                                      "defaultValue" : 0.741666666666667,
                                      "valueBounds" : {
                                        "minValue" : 0.0,
                                        "maxValue" : 1.0,
                                        "defaultValue" : 0.4
                                      },
                                      "uiHints" : {
                                        "userInterfaceType" : 0,
                                        "unitType" : 0
                                      }
                                    }
                                  }
                                }
                            ],
                            "start" : 114,
                            "duration" : 176,
                            "mediaStart" : -52,
                            "mediaDuration" : 176,
                            "scalar" : 1,
                            "metadata" : {
                              "WinSubProjectDisplayName" : "",
                              "clipSpeedAttribute" : false,
                              "default-HAlign" : "center",
                              "default-LineSpace" : 0.0,
                              "default-VAlign" : "center",
                              "default-text-attributes" : "[{\"name\":\"fontItalic\",\"rangeEnd\":9,\"rangeStart\":0,\"value\":0,\"valueType\":\"int\"},{\"name\":\"fontSize\",\"rangeEnd\":9,\"rangeStart\":0,\"value\":96,\"valueType\":\"double\"},{\"name\":\"fontName\",\"rangeEnd\":9,\"rangeStart\":0,\"value\":\"Montserrat\",\"valueType\":\"string\"},{\"name\":\"underline\",\"rangeEnd\":9,\"rangeStart\":0,\"value\":0,\"valueType\":\"int\"},{\"name\":\"fontWeight\",\"rangeEnd\":9,\"rangeStart\":0,\"value\":100,\"valueType\":\"int\"},{\"name\":\"strikethrough\",\"rangeEnd\":9,\"rangeStart\":0,\"value\":0,\"valueType\":\"int\"},{\"name\":\"fgColor\",\"rangeEnd\":9,\"rangeStart\":0,\"value\":\"(241,230,195,255)\",\"valueType\":\"color\"}]",
                              "default-translation0" : -66.0174967329584,
                              "default-translation1" : 46.64285714285,
                              "effectApplied" : "none"
                            },
                            "animationTracks" : {

                            }
                          }
                        ],
                          "ident" : "",
                          "audioMuted" : false,
                          "videoHidden" : false,
                          "magnetic" : false,
                          "metadata" : {
                            "IsLocked" : "False",
                            "WinTrackHeight" : "1.18064664215163e-311",
                            "trackHeight" : "48"
                          }
                      }
                    ],
                    "attributes" : {
                      "ident" : "squarepegs",
                      "gain" : 1.0,
                      "mixToMono" : false,
                      "assetProperties" : [
                        {
                          "type" : 0,
                          "name" : "Title",
                          "objects" : [ 450 ],
                          "themeMappings" :  {
                            "font-color" : "foreground-1",
                            "font-family" : "font-1"
                          }
                        },
                        {
                          "type" : 0,
                          "name" : "Subtitle",
                          "objects" : [ 449 ],
                          "themeMappings" :  {
                            "font-color" : "foreground-1",
                            "font-family" : "font-1"
                          }
                        }
                      ]
                    },
                    "effects" : [

                    ],
                    "start" : 41208,
                    "duration" : 176,
                    "mediaStart" : 114.0,
                    "mediaDuration" : 176.0,
                    "scalar" : 1,
                    "metadata" : {
                      "IsGroupExpanded" : "False",
                      "WinSubProjectDisplayName" : "",
                      "clipSpeedAttribute" : false,
                      "effectApplied" : "none",
                      "isOpen" : false
                    },
                    "animationTracks" : {

                    }
                  },
                  {
                    "id" : 451,
                    "_type" : "UnifiedMedia",
                    "video" : 
                        {
                          "id" : 452,
                          "_type" : "ScreenVMFile",
                          "src" : 44,
                          "trackNumber" : 0,
                          "attributes" : {
                            "ident" : "scratch-8.5-operators-string"
                          },
                          "parameters" : {
                            "cursorScale" : {
                              "type" : "double",
                              "defaultValue" : 1.0,
                              "interp" : "linr"
                            },
                            "cursorOpacity" : {
                              "type" : "double",
                              "defaultValue" : 1.0,
                              "interp" : "linr"
                            }
                          },
                          "effects" : [

                          ],
                          "start" : 41384,
                          "duration" : 598,
                          "mediaStart" : 0,
                          "mediaDuration" : 598,
                          "scalar" : 1,
                          "animationTracks" : {

                          }
                        },
                    "audio" : 
                        {
                          "id" : 453,
                          "_type" : "AMFile",
                          "src" : 44,
                          "trackNumber" : 1,
                          "attributes" : {
                            "ident" : "",
                            "gain" : 1.0,
                            "mixToMono" : false
                          },
                            "channelNumber" : "0,1",
                          "effects" : [

                          ],
                          "start" : 41384,
                          "duration" : 598,
                          "mediaStart" : 0,
                          "mediaDuration" : 598,
                          "scalar" : 1,
                          "animationTracks" : {

                          }
                        }
,
                    "start" : 41384,
                    "duration" : 598,
                    "mediaStart" : 0,
                    "mediaDuration" : 598,
                    "scalar" : 1,
                    "metadata" : {
                      "AutoAppliedSmartFocus" : "False",
                      "clipSpeedAttribute" : false
                    }
                  },
                  {
                    "id" : 454,
                    "_type" : "Group",
                    "parameters" : {
                      "translation0" : 1.21531229524408e-10,
                      "translation1" : 62.3420348343093,
                      "volume" : 1.0
                    },
                    "tracks" : [
                      {
                        "trackIndex" : 0,
                        "medias" : [
                          {
                            "id" : 455,
                            "_type" : "Callout",
                            "def" : {
                              "kind" : "remix",
                              "shape" : "shape-rectangle",
                              "style" : "urban",
                              "fill-color-blue" : {
                                "type" : "double",
                                "defaultValue" : 1.0,
                                "keyframes" : [
                                  {
                                    "endTime" : 56,
                                    "time" : 18,
                                    "value" : 1.0,
                                    "duration" : 38
                                  },
                                  {
                                    "endTime" : 92,
                                    "time" : 56,
                                    "value" : 0.149019607843137,
                                    "duration" : 36
                                  },
                                  {
                                    "endTime" : 174,
                                    "time" : 116,
                                    "value" : 0.149019607843137,
                                    "duration" : 58
                                  }
                                ]
                              },
                              "fill-color-green" : {
                                "type" : "double",
                                "defaultValue" : 1.0,
                                "keyframes" : [
                                  {
                                    "endTime" : 56,
                                    "time" : 18,
                                    "value" : 1.0,
                                    "duration" : 38
                                  },
                                  {
                                    "endTime" : 92,
                                    "time" : 56,
                                    "value" : 0.96078431372549,
                                    "duration" : 36
                                  },
                                  {
                                    "endTime" : 174,
                                    "time" : 116,
                                    "value" : 0.96078431372549,
                                    "duration" : 58
                                  }
                                ]
                              },
                              "fill-color-opacity" : 1.0,
                              "fill-color-red" : {
                                "type" : "double",
                                "defaultValue" : 1.0,
                                "keyframes" : [
                                  {
                                    "endTime" : 56,
                                    "time" : 18,
                                    "value" : 1.0,
                                    "duration" : 38
                                  },
                                  {
                                    "endTime" : 92,
                                    "time" : 56,
                                    "value" : 0.933333333333333,
                                    "duration" : 36
                                  },
                                  {
                                    "endTime" : 174,
                                    "time" : 116,
                                    "value" : 0.933333333333333,
                                    "duration" : 58
                                  }
                                ]
                              },
                              "height" : {
                                "type" : "double",
                                "defaultValue" : 10.8510761260468,
                                "keyframes" : [
                                  {
                                    "endTime" : 56,
                                    "time" : 18,
                                    "value" : 24.9687231850678,
                                    "duration" : 38
                                  },
                                  {
                                    "endTime" : 92,
                                    "time" : 56,
                                    "value" : 1281.28323719656,
                                    "duration" : 36
                                  },
                                  {
                                    "endTime" : 174,
                                    "time" : 116,
                                    "value" : 1347.6353898526,
                                    "duration" : 58
                                  }
                                ]
                              },
                              "stroke-color-blue" : 1.0,
                              "stroke-color-green" : 1.0,
                              "stroke-color-opacity" : 1.0,
                              "stroke-color-red" : 1.0,
                              "stroke-width" : 0.0,
                              "width" : {
                                "type" : "double",
                                "defaultValue" : 6.88782755517832,
                                "keyframes" : [
                                  {
                                    "endTime" : 56,
                                    "time" : 18,
                                    "value" : 67.9394975592671,
                                    "duration" : 38
                                  },
                                  {
                                    "endTime" : 92,
                                    "time" : 56,
                                    "value" : 67.9394975592671,
                                    "duration" : 36
                                  },
                                  {
                                    "endTime" : 174,
                                    "time" : 116,
                                    "value" : 68.0763125888445,
                                    "duration" : 58
                                  }
                                ]
                              },
                              "fill-style" : "solid",
                              "horizontal-alignment" : "center",
                              "stroke-style" : "solid",
                              "vertical-alignment" : "center",
                              "textAttributes" : {
                                "type" : "textAttributeList",
                                "keyframes" : [
                                  {
                                    "endTime" : 0,
                                    "time" : 0,
                                    "value" : null,
                                    "duration" : 0
                                  }
                                ]
                              }
                            },
                            "attributes" : {
                              "autoRotateText" : true
                            },
                            "parameters" : {
                              "translation0" : {
                                "type" : "double",
                                "defaultValue" : -1.21547438780567e-10,
                                "keyframes" : [
                                  {
                                    "endTime" : 56,
                                    "time" : 18,
                                    "value" : -1.21547438780567e-10,
                                    "duration" : 38
                                  },
                                  {
                                    "endTime" : 92,
                                    "time" : 56,
                                    "value" : 0.0541990816513973,
                                    "duration" : 36
                                  },
                                  {
                                    "endTime" : 174,
                                    "time" : 116,
                                    "value" : -1.67577274979808e-14,
                                    "duration" : 58
                                  }
                                ]
                              },
                              "translation1" : {
                                "type" : "double",
                                "defaultValue" : -96.3117858166865,
                                "keyframes" : [
                                  {
                                    "endTime" : 56,
                                    "time" : 18,
                                    "value" : -96.3117858166865,
                                    "duration" : 38
                                  },
                                  {
                                    "endTime" : 92,
                                    "time" : 56,
                                    "value" : -96.3117858166865,
                                    "duration" : 36
                                  },
                                  {
                                    "endTime" : 174,
                                    "time" : 116,
                                    "value" : -658.65796581331,
                                    "duration" : 58
                                  }
                                ]
                              },
                              "rotation2" : {
                                "type" : "double",
                                "defaultValue" : 0.0,
                                "keyframes" : [
                                  {
                                    "endTime" : 56,
                                    "time" : 18,
                                    "value" : -1.5707963267949,
                                    "duration" : 38
                                  }
                                ]
                              }
                            },
                            "effects" : [

                            ],
                            "start" : -30,
                            "duration" : 210,
                            "mediaStart" : -12,
                            "mediaDuration" : 210,
                            "scalar" : 1,
                            "metadata" : {
                              "WinSubProjectDisplayName" : "",
                              "clipSpeedAttribute" : false
                            },
                            "animationTracks" : {
                              "visual" : [
                                {
                                  "endTime" : 56,
                                  "duration" : 38,
                                  "range" : [ 18, 38],
                                  "interp" : "eioe"
                                },
                                {
                                  "endTime" : 92,
                                  "duration" : 36,
                                  "range" : [ 56, 36],
                                  "interp" : "eioe"
                                },
                                {
                                  "endTime" : 174,
                                  "duration" : 58,
                                  "range" : [ 116, 58]
                                }
                              ]
                            }
                          }
                        ],
                          "ident" : "",
                          "audioMuted" : false,
                          "videoHidden" : false,
                          "magnetic" : false,
                          "metadata" : {
                            "IsLocked" : "False",
                            "WinTrackHeight" : "0"
                          }
                      },
                      {
                        "trackIndex" : 1,
                        "medias" : [
                          {
                            "id" : 456,
                            "_type" : "Callout",
                            "def" : {
                              "kind" : "remix",
                              "shape" : "shape-rectangle",
                              "style" : "urban",
                              "fill-color-blue" : {
                                "type" : "double",
                                "defaultValue" : 1.0,
                                "keyframes" : [
                                  {
                                    "endTime" : 54,
                                    "time" : 18,
                                    "value" : 0.149019607843137,
                                    "duration" : 36
                                  },
                                  {
                                    "endTime" : 136,
                                    "time" : 78,
                                    "value" : 1.0,
                                    "duration" : 58
                                  }
                                ]
                              },
                              "fill-color-green" : {
                                "type" : "double",
                                "defaultValue" : 1.0,
                                "keyframes" : [
                                  {
                                    "endTime" : 54,
                                    "time" : 18,
                                    "value" : 0.96078431372549,
                                    "duration" : 36
                                  },
                                  {
                                    "endTime" : 136,
                                    "time" : 78,
                                    "value" : 1.0,
                                    "duration" : 58
                                  }
                                ]
                              },
                              "fill-color-opacity" : 1.0,
                              "fill-color-red" : {
                                "type" : "double",
                                "defaultValue" : 1.0,
                                "keyframes" : [
                                  {
                                    "endTime" : 54,
                                    "time" : 18,
                                    "value" : 0.933333333333333,
                                    "duration" : 36
                                  },
                                  {
                                    "endTime" : 136,
                                    "time" : 78,
                                    "value" : 1.0,
                                    "duration" : 58
                                  }
                                ]
                              },
                              "height" : {
                                "type" : "double",
                                "defaultValue" : 10.8510761260468,
                                "keyframes" : [
                                  {
                                    "endTime" : 54,
                                    "time" : 18,
                                    "value" : 10.8510761260468,
                                    "duration" : 36
                                  },
                                  {
                                    "endTime" : 136,
                                    "time" : 78,
                                    "value" : 10.8510761260468,
                                    "duration" : 58
                                  }
                                ]
                              },
                              "stroke-color-blue" : 1.0,
                              "stroke-color-green" : 1.0,
                              "stroke-color-opacity" : 1.0,
                              "stroke-color-red" : 1.0,
                              "stroke-width" : 0.0,
                              "width" : {
                                "type" : "double",
                                "defaultValue" : 6.88782755517832,
                                "keyframes" : [
                                  {
                                    "endTime" : 54,
                                    "time" : 18,
                                    "value" : 1281.28316541273,
                                    "duration" : 36
                                  },
                                  {
                                    "endTime" : 136,
                                    "time" : 78,
                                    "value" : 1302.87700103543,
                                    "duration" : 58
                                  }
                                ]
                              },
                              "fill-style" : "solid",
                              "horizontal-alignment" : "center",
                              "stroke-style" : "solid",
                              "vertical-alignment" : "center",
                              "textAttributes" : {
                                "type" : "textAttributeList",
                                "keyframes" : [
                                  {
                                    "endTime" : 0,
                                    "time" : 0,
                                    "value" : null,
                                    "duration" : 0
                                  }
                                ]
                              }
                            },
                            "attributes" : {
                              "autoRotateText" : true
                            },
                            "parameters" : {
                              "translation0" : {
                                "type" : "double",
                                "defaultValue" : -1.21547438780567e-10,
                                "keyframes" : [
                                  {
                                    "endTime" : 54,
                                    "time" : 18,
                                    "value" : -0.0541988189824127,
                                    "duration" : 36
                                  },
                                  {
                                    "endTime" : 136,
                                    "time" : 78,
                                    "value" : -1.21547438780567e-10,
                                    "duration" : 58
                                  }
                                ]
                              },
                              "translation1" : {
                                "type" : "double",
                                "defaultValue" : 78.8579651656907,
                                "keyframes" : [
                                  {
                                    "endTime" : 54,
                                    "time" : 18,
                                    "value" : 78.8936575656383,
                                    "duration" : 36
                                  },
                                  {
                                    "endTime" : 136,
                                    "time" : 78,
                                    "value" : 694.705445748916,
                                    "duration" : 58
                                  }
                                ]
                              }
                            },
                            "effects" : [

                            ],
                            "start" : 38,
                            "duration" : 142,
                            "mediaStart" : 18,
                            "mediaDuration" : 142,
                            "scalar" : 1,
                            "metadata" : {
                              "WinSubProjectDisplayName" : "",
                              "clipSpeedAttribute" : false
                            },
                            "animationTracks" : {
                              "visual" : [
                                {
                                  "endTime" : 54,
                                  "duration" : 36,
                                  "range" : [ 18, 36],
                                  "interp" : "eioe"
                                },
                                {
                                  "endTime" : 136,
                                  "duration" : 58,
                                  "range" : [ 78, 58],
                                  "interp" : "eioe"
                                }
                              ]
                            }
                          }
                        ],
                          "ident" : "",
                          "audioMuted" : false,
                          "videoHidden" : false,
                          "magnetic" : false,
                          "metadata" : {
                            "IsLocked" : "False",
                            "WinTrackHeight" : "6.39079466327898e-312"
                          }
                      },
                      {
                        "trackIndex" : 2,
                        "medias" : [
                          {
                            "id" : 457,
                            "_type" : "Callout",
                            "def" : {
                              "kind" : "remix",
                              "shape" : "text",
                              "style" : "abstract",
                              "height" : 180.630981445261,
                              "line-spacing" : 0.0,
                              "width" : 1281.17482864961,
                              "word-wrap" : 1.0,
                              "horizontal-alignment" : "center",
                              "resize-behavior" : "resizeText",
                              "text" : "custom blocks",
                              "vertical-alignment" : "center",
                              "font" : {
                                "color-blue" : 1.0,
                                "color-green" : 1.0,
                                "color-red" : 1.0,
                                "size" : 96.0,
                                "tracking" : 0.0,
                                "name" : "Lato",
                                "weight" : "Regular"
                              },
                              "textAttributes" : {
                                "type" : "textAttributeList",
                                "keyframes" : [
                                  {
                                    "endTime" : 0,
                                    "time" : 0,
                                    "value" : [{"name":"fgColor","rangeEnd":13,"rangeStart":0,"value":"(255,255,255,255)","valueType":"color"},{"name":"fontSize","rangeEnd":13,"rangeStart":0,"value":128,"valueType":"double"},{"name":"strikethrough","rangeEnd":13,"rangeStart":0,"value":0,"valueType":"int"},{"name":"fontItalic","rangeEnd":13,"rangeStart":0,"value":0,"valueType":"int"},{"name":"underline","rangeEnd":13,"rangeStart":0,"value":0,"valueType":"int"},{"name":"fontName","rangeEnd":13,"rangeStart":0,"value":"Montserrat","valueType":"string"},{"name":"kerning","rangeEnd":13,"rangeStart":0,"value":0,"valueType":"double"},{"name":"fontWeight","rangeEnd":13,"rangeStart":0,"value":400,"valueType":"int"}],
                                    "duration" : 0
                                  }
                                ]
                              }
                            },
                            "attributes" : {
                              "autoRotateText" : true
                            },
                            "parameters" : {
                              "translation0" : {
                                "type" : "double",
                                "defaultValue" : 0.412585675275182,
                                "keyframes" : [
                                  {
                                    "endTime" : 152,
                                    "time" : 94,
                                    "value" : 11.2636728451827,
                                    "duration" : 58
                                  }
                                ]
                              },
                              "translation1" : {
                                "type" : "double",
                                "defaultValue" : -5.81178581660322,
                                "keyframes" : [
                                  {
                                    "endTime" : 152,
                                    "time" : 94,
                                    "value" : 610.000002366703,
                                    "duration" : 58
                                  }
                                ]
                              }
                            },
                            "effects" : [
                                {
                                  "_type" : "GenericBehaviorEffect",
                                  "effectName" : "popUp",
                                  "start" : 34,
                                  "duration" : 142                                ,
                                  "in" : {
                                    "attributes" : {
                                      "name" : "reveal",
                                      "type" : 1,
                                      "characterOrder" : 6,
                                      "offsetBetweenCharacters" : 3,
                                      "suggestedDurationPerCharacter" : 44,
                                      "overlapProportion" : 0,
                                      "movement" : 16,
                                      "springDamping" : 5.0,
                                      "springStiffness" : 50.0,
                                      "bounceBounciness" : 0.45
                                    },
                                    "parameters" : {
                                      "direction" : {
                                        "type" : "int",
                                        "valueBounds" : {
                                          "minValue" : 0,
                                          "maxValue" : 3,
                                          "defaultValue" : 0
                                        },
                                        "uiHints" : {
                                          "userInterfaceType" : 2,
                                          "unitType" : 0
                                        },
                                        "keyframes" : [
                                          {
                                            "endTime" : 0,
                                            "time" : 0,
                                            "value" : 2,
                                            "duration" : 0
                                          }
                                        ]
                                      }
                                    }
                                  
                                  },
                                  "center" : {
                                    "attributes" : {
                                      "name" : "none",
                                      "type" : 1,
                                      "characterOrder" : 6,
                                      "offsetBetweenCharacters" : 0,
                                      "secondsPerLoop" : 1,
                                      "numberOfLoops" : -1,
                                      "delayBetweenLoops" : 0,
                                      "offsetBetweenCharacters" : 0
                                    }
                                  
                                  },
                                  "out" : {
                                    "attributes" : {
                                      "name" : "none",
                                      "type" : 1,
                                      "characterOrder" : 6,
                                      "offsetBetweenCharacters" : 0,
                                      "suggestedDurationPerCharacter" : 0,
                                      "overlapProportion" : 0,
                                      "movement" : -1,
                                      "springDamping" : 5.0,
                                      "springStiffness" : 50.0,
                                      "bounceBounciness" : 0.45
                                    }
                                  
                                  }
                                }
                            ],
                            "start" : 38,
                            "duration" : 142,
                            "mediaStart" : 34,
                            "mediaDuration" : 142,
                            "scalar" : 1,
                            "metadata" : {
                              "WinSubProjectDisplayName" : "",
                              "clipSpeedAttribute" : false,
                              "default-HAlign" : "center",
                              "default-LineSpace" : 0.0,
                              "default-VAlign" : "center",
                              "default-text-attributes" : "[{\"name\":\"fontName\",\"rangeEnd\":15,\"rangeStart\":0,\"value\":\"Montserrat\",\"valueType\":\"string\"},{\"name\":\"fgColor\",\"rangeEnd\":15,\"rangeStart\":0,\"value\":\"(255,255,255,255)\",\"valueType\":\"color\"},{\"name\":\"underline\",\"rangeEnd\":15,\"rangeStart\":0,\"value\":0,\"valueType\":\"int\"},{\"name\":\"strikethrough\",\"rangeEnd\":15,\"rangeStart\":0,\"value\":0,\"valueType\":\"int\"},{\"name\":\"fontSize\",\"rangeEnd\":15,\"rangeStart\":0,\"value\":128,\"valueType\":\"double\"},{\"name\":\"fontItalic\",\"rangeEnd\":15,\"rangeStart\":0,\"value\":0,\"valueType\":\"int\"},{\"name\":\"fontWeight\",\"rangeEnd\":15,\"rangeStart\":0,\"value\":100,\"valueType\":\"int\"}]"
                            },
                            "animationTracks" : {
                              "visual" : [
                                {
                                  "endTime" : 152,
                                  "duration" : 58,
                                  "range" : [ 94, 58],
                                  "interp" : "eioe"
                                }
                              ]
                            }
                          }
                        ],
                          "ident" : "",
                          "audioMuted" : false,
                          "videoHidden" : false,
                          "magnetic" : false,
                          "metadata" : {
                            "IsLocked" : "False",
                            "WinTrackHeight" : "6.39079466327898e-312"
                          }
                      },
                      {
                        "trackIndex" : 3,
                        "medias" : [
                          {
                            "id" : 458,
                            "_type" : "Callout",
                            "def" : {
                              "kind" : "remix",
                              "shape" : "text",
                              "style" : "abstract",
                              "height" : 83.6840731068824,
                              "line-spacing" : 0.0,
                              "width" : 1281.28322521409,
                              "word-wrap" : 1.0,
                              "horizontal-alignment" : "center",
                              "resize-behavior" : "resizeText",
                              "text" : "looks",
                              "vertical-alignment" : "center",
                              "font" : {
                                "color-blue" : 1.0,
                                "color-green" : 1.0,
                                "color-red" : 1.0,
                                "size" : 96.0,
                                "tracking" : 0.0,
                                "name" : "Lato",
                                "weight" : "Regular"
                              },
                              "textAttributes" : {
                                "type" : "textAttributeList",
                                "keyframes" : [
                                  {
                                    "endTime" : 0,
                                    "time" : 0,
                                    "value" : [{"name":"fontWeight","rangeEnd":5,"rangeStart":0,"value":400,"valueType":"int"},{"name":"fontItalic","rangeEnd":5,"rangeStart":0,"value":0,"valueType":"int"},{"name":"fontName","rangeEnd":5,"rangeStart":0,"value":"Montserrat","valueType":"string"},{"name":"fontSize","rangeEnd":5,"rangeStart":0,"value":60,"valueType":"double"},{"name":"kerning","rangeEnd":5,"rangeStart":0,"value":0,"valueType":"double"},{"name":"fgColor","rangeEnd":5,"rangeStart":0,"value":"(0,0,0,255)","valueType":"color"},{"name":"underline","rangeEnd":5,"rangeStart":0,"value":0,"valueType":"int"},{"name":"strikethrough","rangeEnd":5,"rangeStart":0,"value":0,"valueType":"int"}],
                                    "duration" : 0
                                  }
                                ]
                              }
                            },
                            "attributes" : {
                              "autoRotateText" : true
                            },
                            "parameters" : {
                              "translation0" : {
                                "type" : "double",
                                "defaultValue" : 0.304200155246711,
                                "keyframes" : [
                                  {
                                    "endTime" : 110,
                                    "time" : 52,
                                    "value" : -1.86383482943485,
                                    "duration" : 58
                                  }
                                ]
                              },
                              "translation1" : {
                                "type" : "double",
                                "defaultValue" : -96.1538223700724,
                                "keyframes" : [
                                  {
                                    "endTime" : 110,
                                    "time" : 52,
                                    "value" : -658.500002366703,
                                    "duration" : 58
                                  }
                                ]
                              }
                            },
                            "effects" : [
                                {
                                  "_type" : "GenericBehaviorEffect",
                                  "effectName" : "popUp",
                                  "start" : 0,
                                  "duration" : 138                                ,
                                  "in" : {
                                    "attributes" : {
                                      "name" : "reveal",
                                      "type" : 1,
                                      "characterOrder" : 7,
                                      "offsetBetweenCharacters" : 3,
                                      "suggestedDurationPerCharacter" : 44,
                                      "overlapProportion" : 0,
                                      "movement" : 16,
                                      "springDamping" : 5.0,
                                      "springStiffness" : 50.0,
                                      "bounceBounciness" : 0.45
                                    },
                                    "parameters" : {
                                      "direction" : {
                                        "type" : "int",
                                        "valueBounds" : {
                                          "minValue" : 0,
                                          "maxValue" : 3,
                                          "defaultValue" : 0
                                        },
                                        "uiHints" : {
                                          "userInterfaceType" : 2,
                                          "unitType" : 0
                                        },
                                        "keyframes" : [
                                          {
                                            "endTime" : 0,
                                            "time" : 0,
                                            "value" : 0,
                                            "duration" : 0
                                          }
                                        ]
                                      }
                                    }
                                  
                                  },
                                  "center" : {
                                    "attributes" : {
                                      "name" : "none",
                                      "type" : 1,
                                      "characterOrder" : 6,
                                      "offsetBetweenCharacters" : 0,
                                      "secondsPerLoop" : 1,
                                      "numberOfLoops" : -1,
                                      "delayBetweenLoops" : 0,
                                      "offsetBetweenCharacters" : 0
                                    }
                                  
                                  },
                                  "out" : {
                                    "attributes" : {
                                      "name" : "none",
                                      "type" : 1,
                                      "characterOrder" : 6,
                                      "offsetBetweenCharacters" : 0,
                                      "suggestedDurationPerCharacter" : 0,
                                      "overlapProportion" : 0,
                                      "movement" : -1,
                                      "springDamping" : 5.0,
                                      "springStiffness" : 50.0,
                                      "bounceBounciness" : 0.45
                                    }
                                  
                                  }
                                }
                            ],
                            "start" : 42,
                            "duration" : 138,
                            "mediaStart" : 0,
                            "mediaDuration" : 138,
                            "scalar" : 1,
                            "metadata" : {
                              "WinSubProjectDisplayName" : "",
                              "clipSpeedAttribute" : false,
                              "default-HAlign" : "center",
                              "default-LineSpace" : 0.0,
                              "default-VAlign" : "center",
                              "default-text-attributes" : "[{\"name\":\"fontName\",\"rangeEnd\":17,\"rangeStart\":0,\"value\":\"Montserrat\",\"valueType\":\"string\"},{\"name\":\"strikethrough\",\"rangeEnd\":17,\"rangeStart\":0,\"value\":0,\"valueType\":\"int\"},{\"name\":\"fontWeight\",\"rangeEnd\":17,\"rangeStart\":0,\"value\":100,\"valueType\":\"int\"},{\"name\":\"fontSize\",\"rangeEnd\":17,\"rangeStart\":0,\"value\":60,\"valueType\":\"double\"},{\"name\":\"fontItalic\",\"rangeEnd\":17,\"rangeStart\":0,\"value\":0,\"valueType\":\"int\"},{\"name\":\"fgColor\",\"rangeEnd\":17,\"rangeStart\":0,\"value\":\"(0,0,0,255)\",\"valueType\":\"color\"},{\"name\":\"underline\",\"rangeEnd\":17,\"rangeStart\":0,\"value\":0,\"valueType\":\"int\"}]",
                              "default-translation0" : 0.358387392787593
                            },
                            "animationTracks" : {
                              "visual" : [
                                {
                                  "endTime" : 110,
                                  "duration" : 58,
                                  "range" : [ 52, 58],
                                  "interp" : "eioe"
                                }
                              ]
                            }
                          }
                        ],
                          "ident" : "",
                          "audioMuted" : false,
                          "videoHidden" : false,
                          "magnetic" : false,
                          "metadata" : {
                            "IsLocked" : "False",
                            "WinTrackHeight" : "6.39079466327898e-312"
                          }
                      }
                    ],
                    "attributes" : {
                      "ident" : "Simple Bright Title 3",
                      "gain" : 1.0,
                      "mixToMono" : false,
                      "assetProperties" : [
                        {
                          "type" : 0,
                          "name" : "Title",
                          "objects" : [ 457 ],
                          "themeMappings" :  {
                            "font-color" : "foreground-1",
                            "font-family" : "font-1"
                          }
                        },
                        {
                          "type" : 0,
                          "name" : "Subtitle",
                          "objects" : [ 458 ],
                          "themeMappings" :  {
                            "font-color" : "background-1",
                            "font-family" : "font-1"
                          }
                        },
                        {
                          "type" : 1,
                          "name" : "Color 1",
                          "objects" : [ 455, 456 ],
                          "themeMappings" :  {
                            "fill" : "accent-1"
                          }
                        }
                      ]
                    },
                    "effects" : [

                    ],
                    "start" : 41982,
                    "duration" : 210,
                    "mediaStart" : -30.0,
                    "mediaDuration" : 210.0,
                    "scalar" : 1,
                    "metadata" : {
                      "AppliedThemeId" : "",
                      "IsGroupExpanded" : "False",
                      "WinSubProjectDisplayName" : "Simple Bright Title 3",
                      "clipSpeedAttribute" : false,
                      "effectApplied" : "none",
                      "isOpen" : false
                    },
                    "animationTracks" : {

                    }
                  },
                  {
                    "id" : 459,
                    "_type" : "UnifiedMedia",
                    "video" : 
                        {
                          "id" : 460,
                          "_type" : "ScreenVMFile",
                          "src" : 45,
                          "trackNumber" : 0,
                          "attributes" : {
                            "ident" : "scratch-10-custom-blocks"
                          },
                          "parameters" : {
                            "cursorScale" : {
                              "type" : "double",
                              "defaultValue" : 1.0,
                              "interp" : "linr"
                            },
                            "cursorOpacity" : {
                              "type" : "double",
                              "defaultValue" : 1.0,
                              "interp" : "linr"
                            }
                          },
                          "effects" : [

                          ],
                          "start" : 42192,
                          "duration" : 1192,
                          "mediaStart" : 0,
                          "mediaDuration" : 1192,
                          "scalar" : 1,
                          "animationTracks" : {

                          }
                        },
                    "audio" : 
                        {
                          "id" : 461,
                          "_type" : "AMFile",
                          "src" : 45,
                          "trackNumber" : 1,
                          "attributes" : {
                            "ident" : "",
                            "gain" : 1.0,
                            "mixToMono" : false
                          },
                            "channelNumber" : "0,1",
                          "effects" : [

                          ],
                          "start" : 42192,
                          "duration" : 1192,
                          "mediaStart" : 0,
                          "mediaDuration" : 1192,
                          "scalar" : 1,
                          "animationTracks" : {

                          }
                        }
,
                    "start" : 42192,
                    "duration" : 1192,
                    "mediaStart" : 0,
                    "mediaDuration" : 1192,
                    "scalar" : 1,
                    "metadata" : {
                      "AutoAppliedSmartFocus" : "False",
                      "clipSpeedAttribute" : false
                    }
                  },
                  {
                    "id" : 462,
                    "_type" : "Group",
                    "parameters" : {
                      "volume" : 1.0
                    },
                    "tracks" : [
                      {
                        "trackIndex" : 0,
                        "medias" : [
                          {
                            "id" : 463,
                            "_type" : "UnifiedMedia",
                            "video" : 
                                {
                                  "id" : 464,
                                  "_type" : "VMFile",
                                  "src" : 51,
                                  "trackNumber" : 0,
                                  "attributes" : {
                                    "ident" : "Movie"
                                  },
                                  "effects" : [

                                  ],
                                  "start" : 114,
                                  "duration" : 176,
                                  "mediaStart" : 114,
                                  "mediaDuration" : 176,
                                  "scalar" : 1,
                                  "animationTracks" : {

                                  }
                                },
                            "audio" : 
                                {
                                  "id" : 465,
                                  "_type" : "AMFile",
                                  "src" : 51,
                                  "trackNumber" : 1,
                                  "attributes" : {
                                    "ident" : "",
                                    "gain" : 1.0,
                                    "mixToMono" : false
                                  },
                                    "channelNumber" : "0,1",
                                  "effects" : [

                                  ],
                                  "start" : 114,
                                  "duration" : 176,
                                  "mediaStart" : 114,
                                  "mediaDuration" : 176,
                                  "scalar" : 1,
                                  "animationTracks" : {

                                  }
                                }
,
                            "start" : 114,
                            "duration" : 176,
                            "mediaStart" : 0,
                            "mediaDuration" : 438,
                            "scalar" : 1,
                            "metadata" : {
                              "WinSubProjectDisplayName" : "",
                              "clipSpeedAttribute" : false,
                              "effectApplied" : "none"
                            }
                          }
                        ],
                          "ident" : "",
                          "audioMuted" : false,
                          "videoHidden" : false,
                          "magnetic" : false,
                          "metadata" : {
                            "IsLocked" : "False",
                            "WinTrackHeight" : "0",
                            "trackHeight" : "48"
                          }
                      },
                      {
                        "trackIndex" : 1,
                        "medias" : [
                          {
                            "id" : 466,
                            "_type" : "Callout",
                            "def" : {
                              "kind" : "remix",
                              "shape" : "text",
                              "style" : "basic",
                              "height" : 78.4795300319492,
                              "line-spacing" : 0.0,
                              "width" : 583.0,
                              "word-wrap" : 1.0,
                              "horizontal-alignment" : "center",
                              "resize-behavior" : "resizeText",
                              "text" : "motion",
                              "vertical-alignment" : "center",
                              "font" : {
                                "color-blue" : 1.0,
                                "color-green" : 1.0,
                                "color-red" : 1.0,
                                "size" : 96.0,
                                "tracking" : 0.0,
                                "name" : "Montserrat",
                                "weight" : "Regular"
                              },
                              "textAttributes" : {
                                "type" : "textAttributeList",
                                "keyframes" : [
                                  {
                                    "endTime" : 0,
                                    "time" : 0,
                                    "value" : [{"name":"fontWeight","rangeEnd":6,"rangeStart":0,"value":400,"valueType":"int"},{"name":"fontItalic","rangeEnd":6,"rangeStart":0,"value":0,"valueType":"int"},{"name":"fontName","rangeEnd":6,"rangeStart":0,"value":"Montserrat","valueType":"string"},{"name":"fontSize","rangeEnd":6,"rangeStart":0,"value":55,"valueType":"double"},{"name":"fgColor","rangeEnd":6,"rangeStart":0,"value":"(239,231,195,255)","valueType":"color"},{"name":"strikethrough","rangeEnd":6,"rangeStart":0,"value":0,"valueType":"int"},{"name":"underline","rangeEnd":6,"rangeStart":0,"value":0,"valueType":"int"},{"name":"kerning","rangeEnd":6,"rangeStart":0,"value":0,"valueType":"double"}],
                                    "duration" : 0
                                  }
                                ]
                              }
                            },
                            "attributes" : {
                              "autoRotateText" : true
                            },
                            "parameters" : {
                              "translation0" : -1.77887982122371e-11,
                              "translation1" : -100.336673040374
                            },
                            "effects" : [
                                {
                                  "_type" : "GenericBehaviorEffect",
                                  "effectName" : "sliding",
                                  "start" : -18,
                                  "duration" : 80                                ,
                                  "in" : {
                                    "attributes" : {
                                      "name" : "sliding",
                                      "type" : 1,
                                      "characterOrder" : 0,
                                      "offsetBetweenCharacters" : 3,
                                      "suggestedDurationPerCharacter" : "999/50",
                                      "overlapProportion" : "11/20",
                                      "movement" : 16,
                                      "springDamping" : 5.0,
                                      "springStiffness" : 50.0,
                                      "bounceBounciness" : 0.45
                                    },
                                    "parameters" : {
                                      "direction" : {
                                        "type" : "int",
                                        "valueBounds" : {
                                          "minValue" : 0,
                                          "maxValue" : 3,
                                          "defaultValue" : 0
                                        },
                                        "uiHints" : {
                                          "userInterfaceType" : 2,
                                          "unitType" : 0
                                        },
                                        "keyframes" : [
                                          {
                                            "endTime" : 0,
                                            "time" : 0,
                                            "value" : 3,
                                            "duration" : 0
                                          }
                                        ]
                                      }
                                    }
                                  
                                  },
                                  "center" : {
                                    "attributes" : {
                                      "name" : "none",
                                      "type" : 1,
                                      "characterOrder" : 6,
                                      "offsetBetweenCharacters" : 0,
                                      "secondsPerLoop" : 1,
                                      "numberOfLoops" : -1,
                                      "delayBetweenLoops" : 0,
                                      "offsetBetweenCharacters" : 0
                                    }
                                  
                                  },
                                  "out" : {
                                    "attributes" : {
                                      "name" : "none",
                                      "type" : 1,
                                      "characterOrder" : 6,
                                      "offsetBetweenCharacters" : 0,
                                      "suggestedDurationPerCharacter" : 0,
                                      "overlapProportion" : 0,
                                      "movement" : -1,
                                      "springDamping" : 5.0,
                                      "springStiffness" : 50.0,
                                      "bounceBounciness" : 0.45
                                    }
                                  
                                  }
                                }
                            ],
                            "start" : 210,
                            "duration" : 80,
                            "mediaStart" : -18,
                            "mediaDuration" : 80,
                            "scalar" : 1,
                            "metadata" : {
                              "WinSubProjectDisplayName" : "",
                              "clipSpeedAttribute" : false,
                              "default-HAlign" : "center",
                              "default-LineSpace" : 0.0,
                              "default-VAlign" : "center",
                              "default-text-attributes" : "[{\"name\":\"strikethrough\",\"rangeEnd\":13,\"rangeStart\":0,\"value\":0,\"valueType\":\"int\"},{\"name\":\"fontWeight\",\"rangeEnd\":13,\"rangeStart\":0,\"value\":100,\"valueType\":\"int\"},{\"name\":\"fontSize\",\"rangeEnd\":13,\"rangeStart\":0,\"value\":55,\"valueType\":\"double\"},{\"name\":\"underline\",\"rangeEnd\":13,\"rangeStart\":0,\"value\":0,\"valueType\":\"int\"},{\"name\":\"fgColor\",\"rangeEnd\":13,\"rangeStart\":0,\"value\":\"(239,231,195,255)\",\"valueType\":\"color\"},{\"name\":\"fontItalic\",\"rangeEnd\":13,\"rangeStart\":0,\"value\":0,\"valueType\":\"int\"},{\"name\":\"fontName\",\"rangeEnd\":13,\"rangeStart\":0,\"value\":\"Montserrat\",\"valueType\":\"string\"}]",
                              "effectApplied" : "none"
                            },
                            "animationTracks" : {

                            }
                          }
                        ],
                          "ident" : "",
                          "audioMuted" : false,
                          "videoHidden" : false,
                          "magnetic" : false,
                          "metadata" : {
                            "IsLocked" : "False",
                            "WinTrackHeight" : "1.18064664215163e-311",
                            "trackHeight" : "48"
                          }
                      },
                      {
                        "trackIndex" : 2,
                        "medias" : [
                          {
                            "id" : 467,
                            "_type" : "Callout",
                            "def" : {
                              "kind" : "remix",
                              "shape" : "text",
                              "style" : "basic",
                              "height" : 177.714285714305,
                              "line-spacing" : 0.0,
                              "width" : 904.358937127979,
                              "word-wrap" : 1.0,
                              "horizontal-alignment" : "center",
                              "resize-behavior" : "resizeText",
                              "text" : "costumes",
                              "vertical-alignment" : "center",
                              "font" : {
                                "color-blue" : 1.0,
                                "color-green" : 1.0,
                                "color-red" : 1.0,
                                "size" : 96.0,
                                "tracking" : 0.0,
                                "name" : "Montserrat",
                                "weight" : "Regular"
                              },
                              "textAttributes" : {
                                "type" : "textAttributeList",
                                "keyframes" : [
                                  {
                                    "endTime" : 0,
                                    "time" : 0,
                                    "value" : [{"name":"fontSize","rangeEnd":8,"rangeStart":0,"value":96,"valueType":"double"},{"name":"fontItalic","rangeEnd":8,"rangeStart":0,"value":0,"valueType":"int"},{"name":"kerning","rangeEnd":8,"rangeStart":0,"value":0,"valueType":"double"},{"name":"fgColor","rangeEnd":8,"rangeStart":0,"value":"(241,230,195,255)","valueType":"color"},{"name":"underline","rangeEnd":8,"rangeStart":0,"value":0,"valueType":"int"},{"name":"fontWeight","rangeEnd":8,"rangeStart":0,"value":400,"valueType":"int"},{"name":"strikethrough","rangeEnd":8,"rangeStart":0,"value":0,"valueType":"int"},{"name":"fontName","rangeEnd":8,"rangeStart":0,"value":"Montserrat","valueType":"string"}],
                                    "duration" : 0
                                  }
                                ]
                              }
                            },
                            "attributes" : {
                              "autoRotateText" : true
                            },
                            "parameters" : {
                              "translation0" : 0.320531435861056,
                              "translation1" : 27.642853721879
                            },
                            "effects" : [
                                {
                                  "_type" : "GenericBehaviorEffect",
                                  "effectName" : "scale",
                                  "start" : -52,
                                  "duration" : 176                                ,
                                  "in" : {
                                    "attributes" : {
                                      "name" : "grow",
                                      "type" : 1,
                                      "characterOrder" : 6,
                                      "offsetBetweenCharacters" : 2,
                                      "suggestedDurationPerCharacter" : "2333/25",
                                      "overlapProportion" : "3/4",
                                      "movement" : 30,
                                      "springDamping" : 5.0,
                                      "springStiffness" : 50.0,
                                      "bounceBounciness" : 0.45
                                    }
                                  
                                  },
                                  "center" : {
                                    "attributes" : {
                                      "name" : "none",
                                      "type" : 1,
                                      "characterOrder" : 6,
                                      "offsetBetweenCharacters" : 0,
                                      "secondsPerLoop" : 1,
                                      "numberOfLoops" : -1,
                                      "delayBetweenLoops" : 0,
                                      "offsetBetweenCharacters" : 0
                                    }
                                  
                                  },
                                  "out" : {
                                    "attributes" : {
                                      "name" : "none",
                                      "type" : 1,
                                      "characterOrder" : 6,
                                      "offsetBetweenCharacters" : 0,
                                      "suggestedDurationPerCharacter" : 0,
                                      "overlapProportion" : 0,
                                      "movement" : -1,
                                      "springDamping" : 5.0,
                                      "springStiffness" : 50.0,
                                      "bounceBounciness" : 0.45
                                    }
                                  
                                  }
                                },
                                {
                                  "effectName" : "DropShadow",
                                  "category" : "categoryVisualEffects",
                                  "parameters" : {
                                    "angle" : {
                                      "type" : "double",
                                      "defaultValue" : 4.71238898038469,
                                      "valueBounds" : {
                                        "minValue" : 0.0,
                                        "maxValue" : 0.0,
                                        "defaultValue" : 5.49778714378214
                                      },
                                      "uiHints" : {
                                        "userInterfaceType" : 0,
                                        "unitType" : 0
                                      }
                                    },
                                    "blur" : {
                                      "type" : "double",
                                      "defaultValue" : 3.33066907387547e-16,
                                      "valueBounds" : {
                                        "minValue" : 0.0,
                                        "maxValue" : 50.0,
                                        "defaultValue" : 10.0
                                      },
                                      "uiHints" : {
                                        "userInterfaceType" : 0,
                                        "unitType" : 0
                                      }
                                    },
                                    "color-alpha" : {
                                      "type" : "double",
                                      "defaultValue" : 1.0,
                                      "valueBounds" : {
                                        "minValue" : 0.0,
                                        "maxValue" : 1.0,
                                        "defaultValue" : 1.0
                                      },
                                      "uiHints" : {
                                        "userInterfaceType" : 0,
                                        "unitType" : 0
                                      }
                                    },
                                    "color-blue" : {
                                      "type" : "double",
                                      "defaultValue" : 0.1216,
                                      "valueBounds" : {
                                        "minValue" : 0.0,
                                        "maxValue" : 1.0,
                                        "defaultValue" : 0.1216
                                      },
                                      "uiHints" : {
                                        "userInterfaceType" : 0,
                                        "unitType" : 0
                                      }
                                    },
                                    "color-green" : {
                                      "type" : "double",
                                      "defaultValue" : 0.1216,
                                      "valueBounds" : {
                                        "minValue" : 0.0,
                                        "maxValue" : 1.0,
                                        "defaultValue" : 0.1216
                                      },
                                      "uiHints" : {
                                        "userInterfaceType" : 0,
                                        "unitType" : 0
                                      }
                                    },
                                    "color-red" : {
                                      "type" : "double",
                                      "defaultValue" : 0.1216,
                                      "valueBounds" : {
                                        "minValue" : 0.0,
                                        "maxValue" : 1.0,
                                        "defaultValue" : 0.1216
                                      },
                                      "uiHints" : {
                                        "userInterfaceType" : 0,
                                        "unitType" : 0
                                      }
                                    },
                                    "enabled" : {
                                      "type" : "int",
                                      "valueBounds" : {
                                        "minValue" : 0,
                                        "maxValue" : 1,
                                        "defaultValue" : 1
                                      },
                                      "uiHints" : {
                                        "userInterfaceType" : 0,
                                        "unitType" : 0
                                      },
                                      "keyframes" : [
                                        {
                                          "endTime" : 0,
                                          "time" : 0,
                                          "value" : 1,
                                          "duration" : 0
                                        }
                                      ]
                                    },
                                    "offset" : {
                                      "type" : "double",
                                      "defaultValue" : 10.0,
                                      "valueBounds" : {
                                        "minValue" : 0.0,
                                        "maxValue" : 250.0,
                                        "defaultValue" : 10.0
                                      },
                                      "uiHints" : {
                                        "userInterfaceType" : 0,
                                        "unitType" : 0
                                      }
                                    },
                                    "opacity" : {
                                      "type" : "double",
                                      "defaultValue" : 0.741666666666667,
                                      "valueBounds" : {
                                        "minValue" : 0.0,
                                        "maxValue" : 1.0,
                                        "defaultValue" : 0.4
                                      },
                                      "uiHints" : {
                                        "userInterfaceType" : 0,
                                        "unitType" : 0
                                      }
                                    }
                                  }
                                }
                            ],
                            "start" : 114,
                            "duration" : 176,
                            "mediaStart" : -52,
                            "mediaDuration" : 176,
                            "scalar" : 1,
                            "metadata" : {
                              "WinSubProjectDisplayName" : "",
                              "clipSpeedAttribute" : false,
                              "default-HAlign" : "center",
                              "default-LineSpace" : 0.0,
                              "default-VAlign" : "center",
                              "default-text-attributes" : "[{\"name\":\"fontItalic\",\"rangeEnd\":9,\"rangeStart\":0,\"value\":0,\"valueType\":\"int\"},{\"name\":\"fontSize\",\"rangeEnd\":9,\"rangeStart\":0,\"value\":96,\"valueType\":\"double\"},{\"name\":\"fontName\",\"rangeEnd\":9,\"rangeStart\":0,\"value\":\"Montserrat\",\"valueType\":\"string\"},{\"name\":\"underline\",\"rangeEnd\":9,\"rangeStart\":0,\"value\":0,\"valueType\":\"int\"},{\"name\":\"fontWeight\",\"rangeEnd\":9,\"rangeStart\":0,\"value\":100,\"valueType\":\"int\"},{\"name\":\"strikethrough\",\"rangeEnd\":9,\"rangeStart\":0,\"value\":0,\"valueType\":\"int\"},{\"name\":\"fgColor\",\"rangeEnd\":9,\"rangeStart\":0,\"value\":\"(241,230,195,255)\",\"valueType\":\"color\"}]",
                              "default-translation0" : -66.0174967329584,
                              "default-translation1" : 46.64285714285,
                              "effectApplied" : "none"
                            },
                            "animationTracks" : {

                            }
                          }
                        ],
                          "ident" : "",
                          "audioMuted" : false,
                          "videoHidden" : false,
                          "magnetic" : false,
                          "metadata" : {
                            "IsLocked" : "False",
                            "WinTrackHeight" : "1.18064664215163e-311",
                            "trackHeight" : "48"
                          }
                      }
                    ],
                    "attributes" : {
                      "ident" : "squarepegs",
                      "gain" : 1.0,
                      "mixToMono" : false,
                      "assetProperties" : [
                        {
                          "type" : 0,
                          "name" : "Title",
                          "objects" : [ 467 ],
                          "themeMappings" :  {
                            "font-color" : "foreground-1",
                            "font-family" : "font-1"
                          }
                        },
                        {
                          "type" : 0,
                          "name" : "Subtitle",
                          "objects" : [ 466 ],
                          "themeMappings" :  {
                            "font-color" : "foreground-1",
                            "font-family" : "font-1"
                          }
                        }
                      ]
                    },
                    "effects" : [

                    ],
                    "start" : 43384,
                    "duration" : 176,
                    "mediaStart" : 114.0,
                    "mediaDuration" : 176.0,
                    "scalar" : 1,
                    "metadata" : {
                      "IsGroupExpanded" : "False",
                      "WinSubProjectDisplayName" : "",
                      "clipSpeedAttribute" : false,
                      "effectApplied" : "none",
                      "isOpen" : false
                    },
                    "animationTracks" : {

                    }
                  },
                  {
                    "id" : 468,
                    "_type" : "UnifiedMedia",
                    "video" : 
                        {
                          "id" : 469,
                          "_type" : "ScreenVMFile",
                          "src" : 46,
                          "trackNumber" : 0,
                          "attributes" : {
                            "ident" : "scratch-11-costumes"
                          },
                          "parameters" : {
                            "cursorScale" : {
                              "type" : "double",
                              "defaultValue" : 1.0,
                              "interp" : "linr"
                            },
                            "cursorOpacity" : {
                              "type" : "double",
                              "defaultValue" : 1.0,
                              "interp" : "linr"
                            }
                          },
                          "effects" : [

                          ],
                          "start" : 43560,
                          "duration" : 4618,
                          "mediaStart" : 0,
                          "mediaDuration" : 4618,
                          "scalar" : 1,
                          "animationTracks" : {

                          }
                        },
                    "audio" : 
                        {
                          "id" : 470,
                          "_type" : "AMFile",
                          "src" : 46,
                          "trackNumber" : 1,
                          "attributes" : {
                            "ident" : "",
                            "gain" : 1.0,
                            "mixToMono" : false
                          },
                            "channelNumber" : "0,1",
                          "effects" : [

                          ],
                          "start" : 43560,
                          "duration" : 4618,
                          "mediaStart" : 0,
                          "mediaDuration" : 4618,
                          "scalar" : 1,
                          "animationTracks" : {

                          }
                        }
,
                    "start" : 43560,
                    "duration" : 4618,
                    "mediaStart" : 0,
                    "mediaDuration" : 4618,
                    "scalar" : 1,
                    "metadata" : {
                      "AutoAppliedSmartFocus" : "False",
                      "clipSpeedAttribute" : false
                    }
                  },
                  {
                    "id" : 471,
                    "_type" : "Group",
                    "parameters" : {
                      "translation0" : 1.21531229524408e-10,
                      "translation1" : 62.3420348343093,
                      "volume" : 1.0
                    },
                    "tracks" : [
                      {
                        "trackIndex" : 0,
                        "medias" : [
                          {
                            "id" : 472,
                            "_type" : "Callout",
                            "def" : {
                              "kind" : "remix",
                              "shape" : "shape-rectangle",
                              "style" : "urban",
                              "fill-color-blue" : {
                                "type" : "double",
                                "defaultValue" : 1.0,
                                "keyframes" : [
                                  {
                                    "endTime" : 56,
                                    "time" : 18,
                                    "value" : 1.0,
                                    "duration" : 38
                                  },
                                  {
                                    "endTime" : 92,
                                    "time" : 56,
                                    "value" : 0.149019607843137,
                                    "duration" : 36
                                  },
                                  {
                                    "endTime" : 174,
                                    "time" : 116,
                                    "value" : 0.149019607843137,
                                    "duration" : 58
                                  }
                                ]
                              },
                              "fill-color-green" : {
                                "type" : "double",
                                "defaultValue" : 1.0,
                                "keyframes" : [
                                  {
                                    "endTime" : 56,
                                    "time" : 18,
                                    "value" : 1.0,
                                    "duration" : 38
                                  },
                                  {
                                    "endTime" : 92,
                                    "time" : 56,
                                    "value" : 0.96078431372549,
                                    "duration" : 36
                                  },
                                  {
                                    "endTime" : 174,
                                    "time" : 116,
                                    "value" : 0.96078431372549,
                                    "duration" : 58
                                  }
                                ]
                              },
                              "fill-color-opacity" : 1.0,
                              "fill-color-red" : {
                                "type" : "double",
                                "defaultValue" : 1.0,
                                "keyframes" : [
                                  {
                                    "endTime" : 56,
                                    "time" : 18,
                                    "value" : 1.0,
                                    "duration" : 38
                                  },
                                  {
                                    "endTime" : 92,
                                    "time" : 56,
                                    "value" : 0.933333333333333,
                                    "duration" : 36
                                  },
                                  {
                                    "endTime" : 174,
                                    "time" : 116,
                                    "value" : 0.933333333333333,
                                    "duration" : 58
                                  }
                                ]
                              },
                              "height" : {
                                "type" : "double",
                                "defaultValue" : 10.8510761260468,
                                "keyframes" : [
                                  {
                                    "endTime" : 56,
                                    "time" : 18,
                                    "value" : 24.9687231850678,
                                    "duration" : 38
                                  },
                                  {
                                    "endTime" : 92,
                                    "time" : 56,
                                    "value" : 1281.28323719656,
                                    "duration" : 36
                                  },
                                  {
                                    "endTime" : 174,
                                    "time" : 116,
                                    "value" : 1347.6353898526,
                                    "duration" : 58
                                  }
                                ]
                              },
                              "stroke-color-blue" : 1.0,
                              "stroke-color-green" : 1.0,
                              "stroke-color-opacity" : 1.0,
                              "stroke-color-red" : 1.0,
                              "stroke-width" : 0.0,
                              "width" : {
                                "type" : "double",
                                "defaultValue" : 6.88782755517832,
                                "keyframes" : [
                                  {
                                    "endTime" : 56,
                                    "time" : 18,
                                    "value" : 67.9394975592671,
                                    "duration" : 38
                                  },
                                  {
                                    "endTime" : 92,
                                    "time" : 56,
                                    "value" : 67.9394975592671,
                                    "duration" : 36
                                  },
                                  {
                                    "endTime" : 174,
                                    "time" : 116,
                                    "value" : 68.0763125888445,
                                    "duration" : 58
                                  }
                                ]
                              },
                              "fill-style" : "solid",
                              "horizontal-alignment" : "center",
                              "stroke-style" : "solid",
                              "vertical-alignment" : "center",
                              "textAttributes" : {
                                "type" : "textAttributeList",
                                "keyframes" : [
                                  {
                                    "endTime" : 0,
                                    "time" : 0,
                                    "value" : null,
                                    "duration" : 0
                                  }
                                ]
                              }
                            },
                            "attributes" : {
                              "autoRotateText" : true
                            },
                            "parameters" : {
                              "translation0" : {
                                "type" : "double",
                                "defaultValue" : -1.21547438780567e-10,
                                "keyframes" : [
                                  {
                                    "endTime" : 56,
                                    "time" : 18,
                                    "value" : -1.21547438780567e-10,
                                    "duration" : 38
                                  },
                                  {
                                    "endTime" : 92,
                                    "time" : 56,
                                    "value" : 0.0541990816513973,
                                    "duration" : 36
                                  },
                                  {
                                    "endTime" : 174,
                                    "time" : 116,
                                    "value" : -1.67577274979808e-14,
                                    "duration" : 58
                                  }
                                ]
                              },
                              "translation1" : {
                                "type" : "double",
                                "defaultValue" : -96.3117858166865,
                                "keyframes" : [
                                  {
                                    "endTime" : 56,
                                    "time" : 18,
                                    "value" : -96.3117858166865,
                                    "duration" : 38
                                  },
                                  {
                                    "endTime" : 92,
                                    "time" : 56,
                                    "value" : -96.3117858166865,
                                    "duration" : 36
                                  },
                                  {
                                    "endTime" : 174,
                                    "time" : 116,
                                    "value" : -658.65796581331,
                                    "duration" : 58
                                  }
                                ]
                              },
                              "rotation2" : {
                                "type" : "double",
                                "defaultValue" : 0.0,
                                "keyframes" : [
                                  {
                                    "endTime" : 56,
                                    "time" : 18,
                                    "value" : -1.5707963267949,
                                    "duration" : 38
                                  }
                                ]
                              }
                            },
                            "effects" : [

                            ],
                            "start" : -30,
                            "duration" : 210,
                            "mediaStart" : -12,
                            "mediaDuration" : 210,
                            "scalar" : 1,
                            "metadata" : {
                              "WinSubProjectDisplayName" : "",
                              "clipSpeedAttribute" : false
                            },
                            "animationTracks" : {
                              "visual" : [
                                {
                                  "endTime" : 56,
                                  "duration" : 38,
                                  "range" : [ 18, 38],
                                  "interp" : "eioe"
                                },
                                {
                                  "endTime" : 92,
                                  "duration" : 36,
                                  "range" : [ 56, 36],
                                  "interp" : "eioe"
                                },
                                {
                                  "endTime" : 174,
                                  "duration" : 58,
                                  "range" : [ 116, 58]
                                }
                              ]
                            }
                          }
                        ],
                          "ident" : "",
                          "audioMuted" : false,
                          "videoHidden" : false,
                          "magnetic" : false,
                          "metadata" : {
                            "IsLocked" : "False",
                            "WinTrackHeight" : "0"
                          }
                      },
                      {
                        "trackIndex" : 1,
                        "medias" : [
                          {
                            "id" : 473,
                            "_type" : "Callout",
                            "def" : {
                              "kind" : "remix",
                              "shape" : "shape-rectangle",
                              "style" : "urban",
                              "fill-color-blue" : {
                                "type" : "double",
                                "defaultValue" : 1.0,
                                "keyframes" : [
                                  {
                                    "endTime" : 54,
                                    "time" : 18,
                                    "value" : 0.149019607843137,
                                    "duration" : 36
                                  },
                                  {
                                    "endTime" : 136,
                                    "time" : 78,
                                    "value" : 1.0,
                                    "duration" : 58
                                  }
                                ]
                              },
                              "fill-color-green" : {
                                "type" : "double",
                                "defaultValue" : 1.0,
                                "keyframes" : [
                                  {
                                    "endTime" : 54,
                                    "time" : 18,
                                    "value" : 0.96078431372549,
                                    "duration" : 36
                                  },
                                  {
                                    "endTime" : 136,
                                    "time" : 78,
                                    "value" : 1.0,
                                    "duration" : 58
                                  }
                                ]
                              },
                              "fill-color-opacity" : 1.0,
                              "fill-color-red" : {
                                "type" : "double",
                                "defaultValue" : 1.0,
                                "keyframes" : [
                                  {
                                    "endTime" : 54,
                                    "time" : 18,
                                    "value" : 0.933333333333333,
                                    "duration" : 36
                                  },
                                  {
                                    "endTime" : 136,
                                    "time" : 78,
                                    "value" : 1.0,
                                    "duration" : 58
                                  }
                                ]
                              },
                              "height" : {
                                "type" : "double",
                                "defaultValue" : 10.8510761260468,
                                "keyframes" : [
                                  {
                                    "endTime" : 54,
                                    "time" : 18,
                                    "value" : 10.8510761260468,
                                    "duration" : 36
                                  },
                                  {
                                    "endTime" : 136,
                                    "time" : 78,
                                    "value" : 10.8510761260468,
                                    "duration" : 58
                                  }
                                ]
                              },
                              "stroke-color-blue" : 1.0,
                              "stroke-color-green" : 1.0,
                              "stroke-color-opacity" : 1.0,
                              "stroke-color-red" : 1.0,
                              "stroke-width" : 0.0,
                              "width" : {
                                "type" : "double",
                                "defaultValue" : 6.88782755517832,
                                "keyframes" : [
                                  {
                                    "endTime" : 54,
                                    "time" : 18,
                                    "value" : 1281.28316541273,
                                    "duration" : 36
                                  },
                                  {
                                    "endTime" : 136,
                                    "time" : 78,
                                    "value" : 1302.87700103543,
                                    "duration" : 58
                                  }
                                ]
                              },
                              "fill-style" : "solid",
                              "horizontal-alignment" : "center",
                              "stroke-style" : "solid",
                              "vertical-alignment" : "center",
                              "textAttributes" : {
                                "type" : "textAttributeList",
                                "keyframes" : [
                                  {
                                    "endTime" : 0,
                                    "time" : 0,
                                    "value" : null,
                                    "duration" : 0
                                  }
                                ]
                              }
                            },
                            "attributes" : {
                              "autoRotateText" : true
                            },
                            "parameters" : {
                              "translation0" : {
                                "type" : "double",
                                "defaultValue" : -1.21547438780567e-10,
                                "keyframes" : [
                                  {
                                    "endTime" : 54,
                                    "time" : 18,
                                    "value" : -0.0541988189824127,
                                    "duration" : 36
                                  },
                                  {
                                    "endTime" : 136,
                                    "time" : 78,
                                    "value" : -1.21547438780567e-10,
                                    "duration" : 58
                                  }
                                ]
                              },
                              "translation1" : {
                                "type" : "double",
                                "defaultValue" : 78.8579651656907,
                                "keyframes" : [
                                  {
                                    "endTime" : 54,
                                    "time" : 18,
                                    "value" : 78.8936575656383,
                                    "duration" : 36
                                  },
                                  {
                                    "endTime" : 136,
                                    "time" : 78,
                                    "value" : 694.705445748916,
                                    "duration" : 58
                                  }
                                ]
                              }
                            },
                            "effects" : [

                            ],
                            "start" : 38,
                            "duration" : 142,
                            "mediaStart" : 18,
                            "mediaDuration" : 142,
                            "scalar" : 1,
                            "metadata" : {
                              "WinSubProjectDisplayName" : "",
                              "clipSpeedAttribute" : false
                            },
                            "animationTracks" : {
                              "visual" : [
                                {
                                  "endTime" : 54,
                                  "duration" : 36,
                                  "range" : [ 18, 36],
                                  "interp" : "eioe"
                                },
                                {
                                  "endTime" : 136,
                                  "duration" : 58,
                                  "range" : [ 78, 58],
                                  "interp" : "eioe"
                                }
                              ]
                            }
                          }
                        ],
                          "ident" : "",
                          "audioMuted" : false,
                          "videoHidden" : false,
                          "magnetic" : false,
                          "metadata" : {
                            "IsLocked" : "False",
                            "WinTrackHeight" : "6.39079466327898e-312"
                          }
                      },
                      {
                        "trackIndex" : 2,
                        "medias" : [
                          {
                            "id" : 474,
                            "_type" : "Callout",
                            "def" : {
                              "kind" : "remix",
                              "shape" : "text",
                              "style" : "abstract",
                              "height" : 180.630981445261,
                              "line-spacing" : 0.0,
                              "width" : 1281.17482864961,
                              "word-wrap" : 1.0,
                              "horizontal-alignment" : "center",
                              "resize-behavior" : "resizeText",
                              "text" : "sounds",
                              "vertical-alignment" : "center",
                              "font" : {
                                "color-blue" : 1.0,
                                "color-green" : 1.0,
                                "color-red" : 1.0,
                                "size" : 96.0,
                                "tracking" : 0.0,
                                "name" : "Lato",
                                "weight" : "Regular"
                              },
                              "textAttributes" : {
                                "type" : "textAttributeList",
                                "keyframes" : [
                                  {
                                    "endTime" : 0,
                                    "time" : 0,
                                    "value" : [{"name":"fontWeight","rangeEnd":6,"rangeStart":0,"value":400,"valueType":"int"},{"name":"strikethrough","rangeEnd":6,"rangeStart":0,"value":0,"valueType":"int"},{"name":"fontSize","rangeEnd":6,"rangeStart":0,"value":128,"valueType":"double"},{"name":"fontItalic","rangeEnd":6,"rangeStart":0,"value":0,"valueType":"int"},{"name":"underline","rangeEnd":6,"rangeStart":0,"value":0,"valueType":"int"},{"name":"kerning","rangeEnd":6,"rangeStart":0,"value":0,"valueType":"double"},{"name":"fontName","rangeEnd":6,"rangeStart":0,"value":"Montserrat","valueType":"string"},{"name":"fgColor","rangeEnd":6,"rangeStart":0,"value":"(255,255,255,255)","valueType":"color"}],
                                    "duration" : 0
                                  }
                                ]
                              }
                            },
                            "attributes" : {
                              "autoRotateText" : true
                            },
                            "parameters" : {
                              "translation0" : {
                                "type" : "double",
                                "defaultValue" : 0.412585675275182,
                                "keyframes" : [
                                  {
                                    "endTime" : 152,
                                    "time" : 94,
                                    "value" : 11.2636728451827,
                                    "duration" : 58
                                  }
                                ]
                              },
                              "translation1" : {
                                "type" : "double",
                                "defaultValue" : -5.81178581660322,
                                "keyframes" : [
                                  {
                                    "endTime" : 152,
                                    "time" : 94,
                                    "value" : 610.000002366703,
                                    "duration" : 58
                                  }
                                ]
                              }
                            },
                            "effects" : [
                                {
                                  "_type" : "GenericBehaviorEffect",
                                  "effectName" : "popUp",
                                  "start" : 34,
                                  "duration" : 142                                ,
                                  "in" : {
                                    "attributes" : {
                                      "name" : "reveal",
                                      "type" : 1,
                                      "characterOrder" : 6,
                                      "offsetBetweenCharacters" : 3,
                                      "suggestedDurationPerCharacter" : 44,
                                      "overlapProportion" : 0,
                                      "movement" : 16,
                                      "springDamping" : 5.0,
                                      "springStiffness" : 50.0,
                                      "bounceBounciness" : 0.45
                                    },
                                    "parameters" : {
                                      "direction" : {
                                        "type" : "int",
                                        "valueBounds" : {
                                          "minValue" : 0,
                                          "maxValue" : 3,
                                          "defaultValue" : 0
                                        },
                                        "uiHints" : {
                                          "userInterfaceType" : 2,
                                          "unitType" : 0
                                        },
                                        "keyframes" : [
                                          {
                                            "endTime" : 0,
                                            "time" : 0,
                                            "value" : 2,
                                            "duration" : 0
                                          }
                                        ]
                                      }
                                    }
                                  
                                  },
                                  "center" : {
                                    "attributes" : {
                                      "name" : "none",
                                      "type" : 1,
                                      "characterOrder" : 6,
                                      "offsetBetweenCharacters" : 0,
                                      "secondsPerLoop" : 1,
                                      "numberOfLoops" : -1,
                                      "delayBetweenLoops" : 0,
                                      "offsetBetweenCharacters" : 0
                                    }
                                  
                                  },
                                  "out" : {
                                    "attributes" : {
                                      "name" : "none",
                                      "type" : 1,
                                      "characterOrder" : 6,
                                      "offsetBetweenCharacters" : 0,
                                      "suggestedDurationPerCharacter" : 0,
                                      "overlapProportion" : 0,
                                      "movement" : -1,
                                      "springDamping" : 5.0,
                                      "springStiffness" : 50.0,
                                      "bounceBounciness" : 0.45
                                    }
                                  
                                  }
                                }
                            ],
                            "start" : 38,
                            "duration" : 142,
                            "mediaStart" : 34,
                            "mediaDuration" : 142,
                            "scalar" : 1,
                            "metadata" : {
                              "WinSubProjectDisplayName" : "",
                              "clipSpeedAttribute" : false,
                              "default-HAlign" : "center",
                              "default-LineSpace" : 0.0,
                              "default-VAlign" : "center",
                              "default-text-attributes" : "[{\"name\":\"fontName\",\"rangeEnd\":15,\"rangeStart\":0,\"value\":\"Montserrat\",\"valueType\":\"string\"},{\"name\":\"fgColor\",\"rangeEnd\":15,\"rangeStart\":0,\"value\":\"(255,255,255,255)\",\"valueType\":\"color\"},{\"name\":\"underline\",\"rangeEnd\":15,\"rangeStart\":0,\"value\":0,\"valueType\":\"int\"},{\"name\":\"strikethrough\",\"rangeEnd\":15,\"rangeStart\":0,\"value\":0,\"valueType\":\"int\"},{\"name\":\"fontSize\",\"rangeEnd\":15,\"rangeStart\":0,\"value\":128,\"valueType\":\"double\"},{\"name\":\"fontItalic\",\"rangeEnd\":15,\"rangeStart\":0,\"value\":0,\"valueType\":\"int\"},{\"name\":\"fontWeight\",\"rangeEnd\":15,\"rangeStart\":0,\"value\":100,\"valueType\":\"int\"}]"
                            },
                            "animationTracks" : {
                              "visual" : [
                                {
                                  "endTime" : 152,
                                  "duration" : 58,
                                  "range" : [ 94, 58],
                                  "interp" : "eioe"
                                }
                              ]
                            }
                          }
                        ],
                          "ident" : "",
                          "audioMuted" : false,
                          "videoHidden" : false,
                          "magnetic" : false,
                          "metadata" : {
                            "IsLocked" : "False",
                            "WinTrackHeight" : "6.39079466327898e-312"
                          }
                      },
                      {
                        "trackIndex" : 3,
                        "medias" : [
                          {
                            "id" : 475,
                            "_type" : "Callout",
                            "def" : {
                              "kind" : "remix",
                              "shape" : "text",
                              "style" : "abstract",
                              "height" : 83.6840731068824,
                              "line-spacing" : 0.0,
                              "width" : 1281.28322521409,
                              "word-wrap" : 1.0,
                              "horizontal-alignment" : "center",
                              "resize-behavior" : "resizeText",
                              "text" : "looks",
                              "vertical-alignment" : "center",
                              "font" : {
                                "color-blue" : 1.0,
                                "color-green" : 1.0,
                                "color-red" : 1.0,
                                "size" : 96.0,
                                "tracking" : 0.0,
                                "name" : "Lato",
                                "weight" : "Regular"
                              },
                              "textAttributes" : {
                                "type" : "textAttributeList",
                                "keyframes" : [
                                  {
                                    "endTime" : 0,
                                    "time" : 0,
                                    "value" : [{"name":"fontWeight","rangeEnd":5,"rangeStart":0,"value":400,"valueType":"int"},{"name":"fontItalic","rangeEnd":5,"rangeStart":0,"value":0,"valueType":"int"},{"name":"fontName","rangeEnd":5,"rangeStart":0,"value":"Montserrat","valueType":"string"},{"name":"fontSize","rangeEnd":5,"rangeStart":0,"value":60,"valueType":"double"},{"name":"kerning","rangeEnd":5,"rangeStart":0,"value":0,"valueType":"double"},{"name":"fgColor","rangeEnd":5,"rangeStart":0,"value":"(0,0,0,255)","valueType":"color"},{"name":"underline","rangeEnd":5,"rangeStart":0,"value":0,"valueType":"int"},{"name":"strikethrough","rangeEnd":5,"rangeStart":0,"value":0,"valueType":"int"}],
                                    "duration" : 0
                                  }
                                ]
                              }
                            },
                            "attributes" : {
                              "autoRotateText" : true
                            },
                            "parameters" : {
                              "translation0" : {
                                "type" : "double",
                                "defaultValue" : 0.304200155246711,
                                "keyframes" : [
                                  {
                                    "endTime" : 110,
                                    "time" : 52,
                                    "value" : -1.86383482943485,
                                    "duration" : 58
                                  }
                                ]
                              },
                              "translation1" : {
                                "type" : "double",
                                "defaultValue" : -96.1538223700724,
                                "keyframes" : [
                                  {
                                    "endTime" : 110,
                                    "time" : 52,
                                    "value" : -658.500002366703,
                                    "duration" : 58
                                  }
                                ]
                              }
                            },
                            "effects" : [
                                {
                                  "_type" : "GenericBehaviorEffect",
                                  "effectName" : "popUp",
                                  "start" : 0,
                                  "duration" : 138                                ,
                                  "in" : {
                                    "attributes" : {
                                      "name" : "reveal",
                                      "type" : 1,
                                      "characterOrder" : 7,
                                      "offsetBetweenCharacters" : 3,
                                      "suggestedDurationPerCharacter" : 44,
                                      "overlapProportion" : 0,
                                      "movement" : 16,
                                      "springDamping" : 5.0,
                                      "springStiffness" : 50.0,
                                      "bounceBounciness" : 0.45
                                    },
                                    "parameters" : {
                                      "direction" : {
                                        "type" : "int",
                                        "valueBounds" : {
                                          "minValue" : 0,
                                          "maxValue" : 3,
                                          "defaultValue" : 0
                                        },
                                        "uiHints" : {
                                          "userInterfaceType" : 2,
                                          "unitType" : 0
                                        },
                                        "keyframes" : [
                                          {
                                            "endTime" : 0,
                                            "time" : 0,
                                            "value" : 0,
                                            "duration" : 0
                                          }
                                        ]
                                      }
                                    }
                                  
                                  },
                                  "center" : {
                                    "attributes" : {
                                      "name" : "none",
                                      "type" : 1,
                                      "characterOrder" : 6,
                                      "offsetBetweenCharacters" : 0,
                                      "secondsPerLoop" : 1,
                                      "numberOfLoops" : -1,
                                      "delayBetweenLoops" : 0,
                                      "offsetBetweenCharacters" : 0
                                    }
                                  
                                  },
                                  "out" : {
                                    "attributes" : {
                                      "name" : "none",
                                      "type" : 1,
                                      "characterOrder" : 6,
                                      "offsetBetweenCharacters" : 0,
                                      "suggestedDurationPerCharacter" : 0,
                                      "overlapProportion" : 0,
                                      "movement" : -1,
                                      "springDamping" : 5.0,
                                      "springStiffness" : 50.0,
                                      "bounceBounciness" : 0.45
                                    }
                                  
                                  }
                                }
                            ],
                            "start" : 42,
                            "duration" : 138,
                            "mediaStart" : 0,
                            "mediaDuration" : 138,
                            "scalar" : 1,
                            "metadata" : {
                              "WinSubProjectDisplayName" : "",
                              "clipSpeedAttribute" : false,
                              "default-HAlign" : "center",
                              "default-LineSpace" : 0.0,
                              "default-VAlign" : "center",
                              "default-text-attributes" : "[{\"name\":\"fontName\",\"rangeEnd\":17,\"rangeStart\":0,\"value\":\"Montserrat\",\"valueType\":\"string\"},{\"name\":\"strikethrough\",\"rangeEnd\":17,\"rangeStart\":0,\"value\":0,\"valueType\":\"int\"},{\"name\":\"fontWeight\",\"rangeEnd\":17,\"rangeStart\":0,\"value\":100,\"valueType\":\"int\"},{\"name\":\"fontSize\",\"rangeEnd\":17,\"rangeStart\":0,\"value\":60,\"valueType\":\"double\"},{\"name\":\"fontItalic\",\"rangeEnd\":17,\"rangeStart\":0,\"value\":0,\"valueType\":\"int\"},{\"name\":\"fgColor\",\"rangeEnd\":17,\"rangeStart\":0,\"value\":\"(0,0,0,255)\",\"valueType\":\"color\"},{\"name\":\"underline\",\"rangeEnd\":17,\"rangeStart\":0,\"value\":0,\"valueType\":\"int\"}]",
                              "default-translation0" : 0.358387392787593
                            },
                            "animationTracks" : {
                              "visual" : [
                                {
                                  "endTime" : 110,
                                  "duration" : 58,
                                  "range" : [ 52, 58],
                                  "interp" : "eioe"
                                }
                              ]
                            }
                          }
                        ],
                          "ident" : "",
                          "audioMuted" : false,
                          "videoHidden" : false,
                          "magnetic" : false,
                          "metadata" : {
                            "IsLocked" : "False",
                            "WinTrackHeight" : "6.39079466327898e-312"
                          }
                      }
                    ],
                    "attributes" : {
                      "ident" : "Simple Bright Title 3",
                      "gain" : 1.0,
                      "mixToMono" : false,
                      "assetProperties" : [
                        {
                          "type" : 0,
                          "name" : "Title",
                          "objects" : [ 474 ],
                          "themeMappings" :  {
                            "font-color" : "foreground-1",
                            "font-family" : "font-1"
                          }
                        },
                        {
                          "type" : 0,
                          "name" : "Subtitle",
                          "objects" : [ 475 ],
                          "themeMappings" :  {
                            "font-color" : "background-1",
                            "font-family" : "font-1"
                          }
                        },
                        {
                          "type" : 1,
                          "name" : "Color 1",
                          "objects" : [ 472, 473 ],
                          "themeMappings" :  {
                            "fill" : "accent-1"
                          }
                        }
                      ]
                    },
                    "effects" : [

                    ],
                    "start" : 48178,
                    "duration" : 210,
                    "mediaStart" : -30.0,
                    "mediaDuration" : 210.0,
                    "scalar" : 1,
                    "metadata" : {
                      "AppliedThemeId" : "",
                      "IsGroupExpanded" : "False",
                      "WinSubProjectDisplayName" : "Simple Bright Title 3",
                      "clipSpeedAttribute" : false,
                      "effectApplied" : "none",
                      "isOpen" : false
                    },
                    "animationTracks" : {

                    }
                  },
                  {
                    "id" : 476,
                    "_type" : "UnifiedMedia",
                    "video" : 
                        {
                          "id" : 477,
                          "_type" : "ScreenVMFile",
                          "src" : 47,
                          "trackNumber" : 0,
                          "attributes" : {
                            "ident" : "scratch-12-sounds"
                          },
                          "parameters" : {
                            "cursorScale" : {
                              "type" : "double",
                              "defaultValue" : 1.0,
                              "interp" : "linr"
                            },
                            "cursorOpacity" : {
                              "type" : "double",
                              "defaultValue" : 1.0,
                              "interp" : "linr"
                            }
                          },
                          "effects" : [

                          ],
                          "start" : 48388,
                          "duration" : 3150,
                          "mediaStart" : 0,
                          "mediaDuration" : 3150,
                          "scalar" : 1,
                          "animationTracks" : {

                          }
                        },
                    "audio" : 
                        {
                          "id" : 478,
                          "_type" : "AMFile",
                          "src" : 47,
                          "trackNumber" : 1,
                          "attributes" : {
                            "ident" : "",
                            "gain" : 1.0,
                            "mixToMono" : false
                          },
                            "channelNumber" : "0,1",
                          "effects" : [

                          ],
                          "start" : 48388,
                          "duration" : 3150,
                          "mediaStart" : 0,
                          "mediaDuration" : 3150,
                          "scalar" : 1,
                          "animationTracks" : {

                          }
                        }
,
                    "start" : 48388,
                    "duration" : 3150,
                    "mediaStart" : 0,
                    "mediaDuration" : 3150,
                    "scalar" : 1,
                    "metadata" : {
                      "AutoAppliedSmartFocus" : "False",
                      "clipSpeedAttribute" : false
                    }
                  },
                  {
                    "id" : 479,
                    "_type" : "Group",
                    "parameters" : {
                      "volume" : 1.0
                    },
                    "tracks" : [
                      {
                        "trackIndex" : 0,
                        "medias" : [
                          {
                            "id" : 480,
                            "_type" : "UnifiedMedia",
                            "video" : 
                                {
                                  "id" : 481,
                                  "_type" : "VMFile",
                                  "src" : 51,
                                  "trackNumber" : 0,
                                  "attributes" : {
                                    "ident" : "Movie"
                                  },
                                  "effects" : [

                                  ],
                                  "start" : 114,
                                  "duration" : 176,
                                  "mediaStart" : 114,
                                  "mediaDuration" : 176,
                                  "scalar" : 1,
                                  "animationTracks" : {

                                  }
                                },
                            "audio" : 
                                {
                                  "id" : 482,
                                  "_type" : "AMFile",
                                  "src" : 51,
                                  "trackNumber" : 1,
                                  "attributes" : {
                                    "ident" : "",
                                    "gain" : 1.0,
                                    "mixToMono" : false
                                  },
                                    "channelNumber" : "0,1",
                                  "effects" : [

                                  ],
                                  "start" : 114,
                                  "duration" : 176,
                                  "mediaStart" : 114,
                                  "mediaDuration" : 176,
                                  "scalar" : 1,
                                  "animationTracks" : {

                                  }
                                }
,
                            "start" : 114,
                            "duration" : 176,
                            "mediaStart" : 0,
                            "mediaDuration" : 438,
                            "scalar" : 1,
                            "metadata" : {
                              "WinSubProjectDisplayName" : "",
                              "clipSpeedAttribute" : false,
                              "effectApplied" : "none"
                            }
                          }
                        ],
                          "ident" : "",
                          "audioMuted" : false,
                          "videoHidden" : false,
                          "magnetic" : false,
                          "metadata" : {
                            "IsLocked" : "False",
                            "WinTrackHeight" : "0",
                            "trackHeight" : "48"
                          }
                      },
                      {
                        "trackIndex" : 1,
                        "medias" : [
                          {
                            "id" : 483,
                            "_type" : "Callout",
                            "def" : {
                              "kind" : "remix",
                              "shape" : "text",
                              "style" : "basic",
                              "height" : 78.4795300319492,
                              "line-spacing" : 0.0,
                              "width" : 583.0,
                              "word-wrap" : 1.0,
                              "horizontal-alignment" : "center",
                              "resize-behavior" : "resizeText",
                              "text" : "motion",
                              "vertical-alignment" : "center",
                              "font" : {
                                "color-blue" : 1.0,
                                "color-green" : 1.0,
                                "color-red" : 1.0,
                                "size" : 96.0,
                                "tracking" : 0.0,
                                "name" : "Montserrat",
                                "weight" : "Regular"
                              },
                              "textAttributes" : {
                                "type" : "textAttributeList",
                                "keyframes" : [
                                  {
                                    "endTime" : 0,
                                    "time" : 0,
                                    "value" : [{"name":"fontWeight","rangeEnd":6,"rangeStart":0,"value":400,"valueType":"int"},{"name":"fontItalic","rangeEnd":6,"rangeStart":0,"value":0,"valueType":"int"},{"name":"fontName","rangeEnd":6,"rangeStart":0,"value":"Montserrat","valueType":"string"},{"name":"fontSize","rangeEnd":6,"rangeStart":0,"value":55,"valueType":"double"},{"name":"fgColor","rangeEnd":6,"rangeStart":0,"value":"(239,231,195,255)","valueType":"color"},{"name":"strikethrough","rangeEnd":6,"rangeStart":0,"value":0,"valueType":"int"},{"name":"underline","rangeEnd":6,"rangeStart":0,"value":0,"valueType":"int"},{"name":"kerning","rangeEnd":6,"rangeStart":0,"value":0,"valueType":"double"}],
                                    "duration" : 0
                                  }
                                ]
                              }
                            },
                            "attributes" : {
                              "autoRotateText" : true
                            },
                            "parameters" : {
                              "translation0" : -1.77887982122371e-11,
                              "translation1" : -100.336673040374
                            },
                            "effects" : [
                                {
                                  "_type" : "GenericBehaviorEffect",
                                  "effectName" : "sliding",
                                  "start" : -18,
                                  "duration" : 80                                ,
                                  "in" : {
                                    "attributes" : {
                                      "name" : "sliding",
                                      "type" : 1,
                                      "characterOrder" : 0,
                                      "offsetBetweenCharacters" : 3,
                                      "suggestedDurationPerCharacter" : "999/50",
                                      "overlapProportion" : "11/20",
                                      "movement" : 16,
                                      "springDamping" : 5.0,
                                      "springStiffness" : 50.0,
                                      "bounceBounciness" : 0.45
                                    },
                                    "parameters" : {
                                      "direction" : {
                                        "type" : "int",
                                        "valueBounds" : {
                                          "minValue" : 0,
                                          "maxValue" : 3,
                                          "defaultValue" : 0
                                        },
                                        "uiHints" : {
                                          "userInterfaceType" : 2,
                                          "unitType" : 0
                                        },
                                        "keyframes" : [
                                          {
                                            "endTime" : 0,
                                            "time" : 0,
                                            "value" : 3,
                                            "duration" : 0
                                          }
                                        ]
                                      }
                                    }
                                  
                                  },
                                  "center" : {
                                    "attributes" : {
                                      "name" : "none",
                                      "type" : 1,
                                      "characterOrder" : 6,
                                      "offsetBetweenCharacters" : 0,
                                      "secondsPerLoop" : 1,
                                      "numberOfLoops" : -1,
                                      "delayBetweenLoops" : 0,
                                      "offsetBetweenCharacters" : 0
                                    }
                                  
                                  },
                                  "out" : {
                                    "attributes" : {
                                      "name" : "none",
                                      "type" : 1,
                                      "characterOrder" : 6,
                                      "offsetBetweenCharacters" : 0,
                                      "suggestedDurationPerCharacter" : 0,
                                      "overlapProportion" : 0,
                                      "movement" : -1,
                                      "springDamping" : 5.0,
                                      "springStiffness" : 50.0,
                                      "bounceBounciness" : 0.45
                                    }
                                  
                                  }
                                }
                            ],
                            "start" : 210,
                            "duration" : 80,
                            "mediaStart" : -18,
                            "mediaDuration" : 80,
                            "scalar" : 1,
                            "metadata" : {
                              "WinSubProjectDisplayName" : "",
                              "clipSpeedAttribute" : false,
                              "default-HAlign" : "center",
                              "default-LineSpace" : 0.0,
                              "default-VAlign" : "center",
                              "default-text-attributes" : "[{\"name\":\"strikethrough\",\"rangeEnd\":13,\"rangeStart\":0,\"value\":0,\"valueType\":\"int\"},{\"name\":\"fontWeight\",\"rangeEnd\":13,\"rangeStart\":0,\"value\":100,\"valueType\":\"int\"},{\"name\":\"fontSize\",\"rangeEnd\":13,\"rangeStart\":0,\"value\":55,\"valueType\":\"double\"},{\"name\":\"underline\",\"rangeEnd\":13,\"rangeStart\":0,\"value\":0,\"valueType\":\"int\"},{\"name\":\"fgColor\",\"rangeEnd\":13,\"rangeStart\":0,\"value\":\"(239,231,195,255)\",\"valueType\":\"color\"},{\"name\":\"fontItalic\",\"rangeEnd\":13,\"rangeStart\":0,\"value\":0,\"valueType\":\"int\"},{\"name\":\"fontName\",\"rangeEnd\":13,\"rangeStart\":0,\"value\":\"Montserrat\",\"valueType\":\"string\"}]",
                              "effectApplied" : "none"
                            },
                            "animationTracks" : {

                            }
                          }
                        ],
                          "ident" : "",
                          "audioMuted" : false,
                          "videoHidden" : false,
                          "magnetic" : false,
                          "metadata" : {
                            "IsLocked" : "False",
                            "WinTrackHeight" : "1.18064664215163e-311",
                            "trackHeight" : "48"
                          }
                      },
                      {
                        "trackIndex" : 2,
                        "medias" : [
                          {
                            "id" : 484,
                            "_type" : "Callout",
                            "def" : {
                              "kind" : "remix",
                              "shape" : "text",
                              "style" : "basic",
                              "height" : 177.714285714305,
                              "line-spacing" : 0.0,
                              "width" : 904.358937127979,
                              "word-wrap" : 1.0,
                              "horizontal-alignment" : "center",
                              "resize-behavior" : "resizeText",
                              "text" : "sprites",
                              "vertical-alignment" : "center",
                              "font" : {
                                "color-blue" : 1.0,
                                "color-green" : 1.0,
                                "color-red" : 1.0,
                                "size" : 96.0,
                                "tracking" : 0.0,
                                "name" : "Montserrat",
                                "weight" : "Regular"
                              },
                              "textAttributes" : {
                                "type" : "textAttributeList",
                                "keyframes" : [
                                  {
                                    "endTime" : 0,
                                    "time" : 0,
                                    "value" : [{"name":"fontSize","rangeEnd":7,"rangeStart":0,"value":96,"valueType":"double"},{"name":"underline","rangeEnd":7,"rangeStart":0,"value":0,"valueType":"int"},{"name":"fgColor","rangeEnd":7,"rangeStart":0,"value":"(241,230,195,255)","valueType":"color"},{"name":"kerning","rangeEnd":7,"rangeStart":0,"value":0,"valueType":"double"},{"name":"strikethrough","rangeEnd":7,"rangeStart":0,"value":0,"valueType":"int"},{"name":"fontName","rangeEnd":7,"rangeStart":0,"value":"Montserrat","valueType":"string"},{"name":"fontItalic","rangeEnd":7,"rangeStart":0,"value":0,"valueType":"int"},{"name":"fontWeight","rangeEnd":7,"rangeStart":0,"value":400,"valueType":"int"}],
                                    "duration" : 0
                                  }
                                ]
                              }
                            },
                            "attributes" : {
                              "autoRotateText" : true
                            },
                            "parameters" : {
                              "translation0" : 0.320531435861056,
                              "translation1" : 25.9761870552744
                            },
                            "effects" : [
                                {
                                  "_type" : "GenericBehaviorEffect",
                                  "effectName" : "scale",
                                  "start" : -52,
                                  "duration" : 176                                ,
                                  "in" : {
                                    "attributes" : {
                                      "name" : "grow",
                                      "type" : 1,
                                      "characterOrder" : 6,
                                      "offsetBetweenCharacters" : 2,
                                      "suggestedDurationPerCharacter" : "2333/25",
                                      "overlapProportion" : "3/4",
                                      "movement" : 30,
                                      "springDamping" : 5.0,
                                      "springStiffness" : 50.0,
                                      "bounceBounciness" : 0.45
                                    }
                                  
                                  },
                                  "center" : {
                                    "attributes" : {
                                      "name" : "none",
                                      "type" : 1,
                                      "characterOrder" : 6,
                                      "offsetBetweenCharacters" : 0,
                                      "secondsPerLoop" : 1,
                                      "numberOfLoops" : -1,
                                      "delayBetweenLoops" : 0,
                                      "offsetBetweenCharacters" : 0
                                    }
                                  
                                  },
                                  "out" : {
                                    "attributes" : {
                                      "name" : "none",
                                      "type" : 1,
                                      "characterOrder" : 6,
                                      "offsetBetweenCharacters" : 0,
                                      "suggestedDurationPerCharacter" : 0,
                                      "overlapProportion" : 0,
                                      "movement" : -1,
                                      "springDamping" : 5.0,
                                      "springStiffness" : 50.0,
                                      "bounceBounciness" : 0.45
                                    }
                                  
                                  }
                                },
                                {
                                  "effectName" : "DropShadow",
                                  "category" : "categoryVisualEffects",
                                  "parameters" : {
                                    "angle" : {
                                      "type" : "double",
                                      "defaultValue" : 4.71238898038469,
                                      "valueBounds" : {
                                        "minValue" : 0.0,
                                        "maxValue" : 0.0,
                                        "defaultValue" : 5.49778714378214
                                      },
                                      "uiHints" : {
                                        "userInterfaceType" : 0,
                                        "unitType" : 0
                                      }
                                    },
                                    "blur" : {
                                      "type" : "double",
                                      "defaultValue" : 3.33066907387547e-16,
                                      "valueBounds" : {
                                        "minValue" : 0.0,
                                        "maxValue" : 50.0,
                                        "defaultValue" : 10.0
                                      },
                                      "uiHints" : {
                                        "userInterfaceType" : 0,
                                        "unitType" : 0
                                      }
                                    },
                                    "color-alpha" : {
                                      "type" : "double",
                                      "defaultValue" : 1.0,
                                      "valueBounds" : {
                                        "minValue" : 0.0,
                                        "maxValue" : 1.0,
                                        "defaultValue" : 1.0
                                      },
                                      "uiHints" : {
                                        "userInterfaceType" : 0,
                                        "unitType" : 0
                                      }
                                    },
                                    "color-blue" : {
                                      "type" : "double",
                                      "defaultValue" : 0.1216,
                                      "valueBounds" : {
                                        "minValue" : 0.0,
                                        "maxValue" : 1.0,
                                        "defaultValue" : 0.1216
                                      },
                                      "uiHints" : {
                                        "userInterfaceType" : 0,
                                        "unitType" : 0
                                      }
                                    },
                                    "color-green" : {
                                      "type" : "double",
                                      "defaultValue" : 0.1216,
                                      "valueBounds" : {
                                        "minValue" : 0.0,
                                        "maxValue" : 1.0,
                                        "defaultValue" : 0.1216
                                      },
                                      "uiHints" : {
                                        "userInterfaceType" : 0,
                                        "unitType" : 0
                                      }
                                    },
                                    "color-red" : {
                                      "type" : "double",
                                      "defaultValue" : 0.1216,
                                      "valueBounds" : {
                                        "minValue" : 0.0,
                                        "maxValue" : 1.0,
                                        "defaultValue" : 0.1216
                                      },
                                      "uiHints" : {
                                        "userInterfaceType" : 0,
                                        "unitType" : 0
                                      }
                                    },
                                    "enabled" : {
                                      "type" : "int",
                                      "valueBounds" : {
                                        "minValue" : 0,
                                        "maxValue" : 1,
                                        "defaultValue" : 1
                                      },
                                      "uiHints" : {
                                        "userInterfaceType" : 0,
                                        "unitType" : 0
                                      },
                                      "keyframes" : [
                                        {
                                          "endTime" : 0,
                                          "time" : 0,
                                          "value" : 1,
                                          "duration" : 0
                                        }
                                      ]
                                    },
                                    "offset" : {
                                      "type" : "double",
                                      "defaultValue" : 10.0,
                                      "valueBounds" : {
                                        "minValue" : 0.0,
                                        "maxValue" : 250.0,
                                        "defaultValue" : 10.0
                                      },
                                      "uiHints" : {
                                        "userInterfaceType" : 0,
                                        "unitType" : 0
                                      }
                                    },
                                    "opacity" : {
                                      "type" : "double",
                                      "defaultValue" : 0.741666666666667,
                                      "valueBounds" : {
                                        "minValue" : 0.0,
                                        "maxValue" : 1.0,
                                        "defaultValue" : 0.4
                                      },
                                      "uiHints" : {
                                        "userInterfaceType" : 0,
                                        "unitType" : 0
                                      }
                                    }
                                  }
                                }
                            ],
                            "start" : 114,
                            "duration" : 176,
                            "mediaStart" : -52,
                            "mediaDuration" : 176,
                            "scalar" : 1,
                            "metadata" : {
                              "WinSubProjectDisplayName" : "",
                              "clipSpeedAttribute" : false,
                              "default-HAlign" : "center",
                              "default-LineSpace" : 0.0,
                              "default-VAlign" : "center",
                              "default-text-attributes" : "[{\"name\":\"fontItalic\",\"rangeEnd\":9,\"rangeStart\":0,\"value\":0,\"valueType\":\"int\"},{\"name\":\"fontSize\",\"rangeEnd\":9,\"rangeStart\":0,\"value\":96,\"valueType\":\"double\"},{\"name\":\"fontName\",\"rangeEnd\":9,\"rangeStart\":0,\"value\":\"Montserrat\",\"valueType\":\"string\"},{\"name\":\"underline\",\"rangeEnd\":9,\"rangeStart\":0,\"value\":0,\"valueType\":\"int\"},{\"name\":\"fontWeight\",\"rangeEnd\":9,\"rangeStart\":0,\"value\":100,\"valueType\":\"int\"},{\"name\":\"strikethrough\",\"rangeEnd\":9,\"rangeStart\":0,\"value\":0,\"valueType\":\"int\"},{\"name\":\"fgColor\",\"rangeEnd\":9,\"rangeStart\":0,\"value\":\"(241,230,195,255)\",\"valueType\":\"color\"}]",
                              "default-translation0" : -66.0174967329584,
                              "default-translation1" : 46.64285714285,
                              "effectApplied" : "none"
                            },
                            "animationTracks" : {

                            }
                          }
                        ],
                          "ident" : "",
                          "audioMuted" : false,
                          "videoHidden" : false,
                          "magnetic" : false,
                          "metadata" : {
                            "IsLocked" : "False",
                            "WinTrackHeight" : "1.18064664215163e-311",
                            "trackHeight" : "48"
                          }
                      }
                    ],
                    "attributes" : {
                      "ident" : "squarepegs",
                      "gain" : 1.0,
                      "mixToMono" : false,
                      "assetProperties" : [
                        {
                          "type" : 0,
                          "name" : "Title",
                          "objects" : [ 484 ],
                          "themeMappings" :  {
                            "font-color" : "foreground-1",
                            "font-family" : "font-1"
                          }
                        },
                        {
                          "type" : 0,
                          "name" : "Subtitle",
                          "objects" : [ 483 ],
                          "themeMappings" :  {
                            "font-color" : "foreground-1",
                            "font-family" : "font-1"
                          }
                        }
                      ]
                    },
                    "effects" : [

                    ],
                    "start" : 51538,
                    "duration" : 176,
                    "mediaStart" : 114.0,
                    "mediaDuration" : 176.0,
                    "scalar" : 1,
                    "metadata" : {
                      "IsGroupExpanded" : "False",
                      "WinSubProjectDisplayName" : "",
                      "clipSpeedAttribute" : false,
                      "effectApplied" : "none",
                      "isOpen" : false
                    },
                    "animationTracks" : {

                    }
                  },
                  {
                    "id" : 485,
                    "_type" : "UnifiedMedia",
                    "video" : 
                        {
                          "id" : 486,
                          "_type" : "ScreenVMFile",
                          "src" : 48,
                          "trackNumber" : 0,
                          "attributes" : {
                            "ident" : "scratch-13-sprites"
                          },
                          "parameters" : {
                            "cursorScale" : {
                              "type" : "double",
                              "defaultValue" : 1.0,
                              "interp" : "linr"
                            },
                            "cursorOpacity" : {
                              "type" : "double",
                              "defaultValue" : 1.0,
                              "interp" : "linr"
                            }
                          },
                          "effects" : [

                          ],
                          "start" : 51714,
                          "duration" : 2808,
                          "mediaStart" : 0,
                          "mediaDuration" : 2808,
                          "scalar" : 1,
                          "animationTracks" : {

                          }
                        },
                    "audio" : 
                        {
                          "id" : 487,
                          "_type" : "AMFile",
                          "src" : 48,
                          "trackNumber" : 1,
                          "attributes" : {
                            "ident" : "",
                            "gain" : 1.0,
                            "mixToMono" : false
                          },
                            "channelNumber" : "0,1",
                          "effects" : [

                          ],
                          "start" : 51714,
                          "duration" : 2808,
                          "mediaStart" : 0,
                          "mediaDuration" : 2808,
                          "scalar" : 1,
                          "animationTracks" : {

                          }
                        }
,
                    "start" : 51714,
                    "duration" : 2808,
                    "mediaStart" : 0,
                    "mediaDuration" : 2808,
                    "scalar" : 1,
                    "metadata" : {
                      "AutoAppliedSmartFocus" : "False",
                      "clipSpeedAttribute" : false
                    }
                  },
                  {
                    "id" : 488,
                    "_type" : "Group",
                    "parameters" : {
                      "translation0" : 1.21531229524408e-10,
                      "translation1" : 62.3420348343093,
                      "volume" : 1.0
                    },
                    "tracks" : [
                      {
                        "trackIndex" : 0,
                        "medias" : [
                          {
                            "id" : 489,
                            "_type" : "Callout",
                            "def" : {
                              "kind" : "remix",
                              "shape" : "shape-rectangle",
                              "style" : "urban",
                              "fill-color-blue" : {
                                "type" : "double",
                                "defaultValue" : 1.0,
                                "keyframes" : [
                                  {
                                    "endTime" : 56,
                                    "time" : 18,
                                    "value" : 1.0,
                                    "duration" : 38
                                  },
                                  {
                                    "endTime" : 92,
                                    "time" : 56,
                                    "value" : 0.149019607843137,
                                    "duration" : 36
                                  },
                                  {
                                    "endTime" : 174,
                                    "time" : 116,
                                    "value" : 0.149019607843137,
                                    "duration" : 58
                                  }
                                ]
                              },
                              "fill-color-green" : {
                                "type" : "double",
                                "defaultValue" : 1.0,
                                "keyframes" : [
                                  {
                                    "endTime" : 56,
                                    "time" : 18,
                                    "value" : 1.0,
                                    "duration" : 38
                                  },
                                  {
                                    "endTime" : 92,
                                    "time" : 56,
                                    "value" : 0.96078431372549,
                                    "duration" : 36
                                  },
                                  {
                                    "endTime" : 174,
                                    "time" : 116,
                                    "value" : 0.96078431372549,
                                    "duration" : 58
                                  }
                                ]
                              },
                              "fill-color-opacity" : 1.0,
                              "fill-color-red" : {
                                "type" : "double",
                                "defaultValue" : 1.0,
                                "keyframes" : [
                                  {
                                    "endTime" : 56,
                                    "time" : 18,
                                    "value" : 1.0,
                                    "duration" : 38
                                  },
                                  {
                                    "endTime" : 92,
                                    "time" : 56,
                                    "value" : 0.933333333333333,
                                    "duration" : 36
                                  },
                                  {
                                    "endTime" : 174,
                                    "time" : 116,
                                    "value" : 0.933333333333333,
                                    "duration" : 58
                                  }
                                ]
                              },
                              "height" : {
                                "type" : "double",
                                "defaultValue" : 10.8510761260468,
                                "keyframes" : [
                                  {
                                    "endTime" : 56,
                                    "time" : 18,
                                    "value" : 24.9687231850678,
                                    "duration" : 38
                                  },
                                  {
                                    "endTime" : 92,
                                    "time" : 56,
                                    "value" : 1281.28323719656,
                                    "duration" : 36
                                  },
                                  {
                                    "endTime" : 174,
                                    "time" : 116,
                                    "value" : 1347.6353898526,
                                    "duration" : 58
                                  }
                                ]
                              },
                              "stroke-color-blue" : 1.0,
                              "stroke-color-green" : 1.0,
                              "stroke-color-opacity" : 1.0,
                              "stroke-color-red" : 1.0,
                              "stroke-width" : 0.0,
                              "width" : {
                                "type" : "double",
                                "defaultValue" : 6.88782755517832,
                                "keyframes" : [
                                  {
                                    "endTime" : 56,
                                    "time" : 18,
                                    "value" : 67.9394975592671,
                                    "duration" : 38
                                  },
                                  {
                                    "endTime" : 92,
                                    "time" : 56,
                                    "value" : 67.9394975592671,
                                    "duration" : 36
                                  },
                                  {
                                    "endTime" : 174,
                                    "time" : 116,
                                    "value" : 68.0763125888445,
                                    "duration" : 58
                                  }
                                ]
                              },
                              "fill-style" : "solid",
                              "horizontal-alignment" : "center",
                              "stroke-style" : "solid",
                              "vertical-alignment" : "center",
                              "textAttributes" : {
                                "type" : "textAttributeList",
                                "keyframes" : [
                                  {
                                    "endTime" : 0,
                                    "time" : 0,
                                    "value" : null,
                                    "duration" : 0
                                  }
                                ]
                              }
                            },
                            "attributes" : {
                              "autoRotateText" : true
                            },
                            "parameters" : {
                              "translation0" : {
                                "type" : "double",
                                "defaultValue" : -1.21547438780567e-10,
                                "keyframes" : [
                                  {
                                    "endTime" : 56,
                                    "time" : 18,
                                    "value" : -1.21547438780567e-10,
                                    "duration" : 38
                                  },
                                  {
                                    "endTime" : 92,
                                    "time" : 56,
                                    "value" : 0.0541990816513973,
                                    "duration" : 36
                                  },
                                  {
                                    "endTime" : 174,
                                    "time" : 116,
                                    "value" : -1.67577274979808e-14,
                                    "duration" : 58
                                  }
                                ]
                              },
                              "translation1" : {
                                "type" : "double",
                                "defaultValue" : -96.3117858166865,
                                "keyframes" : [
                                  {
                                    "endTime" : 56,
                                    "time" : 18,
                                    "value" : -96.3117858166865,
                                    "duration" : 38
                                  },
                                  {
                                    "endTime" : 92,
                                    "time" : 56,
                                    "value" : -96.3117858166865,
                                    "duration" : 36
                                  },
                                  {
                                    "endTime" : 174,
                                    "time" : 116,
                                    "value" : -658.65796581331,
                                    "duration" : 58
                                  }
                                ]
                              },
                              "rotation2" : {
                                "type" : "double",
                                "defaultValue" : 0.0,
                                "keyframes" : [
                                  {
                                    "endTime" : 56,
                                    "time" : 18,
                                    "value" : -1.5707963267949,
                                    "duration" : 38
                                  }
                                ]
                              }
                            },
                            "effects" : [

                            ],
                            "start" : -30,
                            "duration" : 210,
                            "mediaStart" : -12,
                            "mediaDuration" : 210,
                            "scalar" : 1,
                            "metadata" : {
                              "WinSubProjectDisplayName" : "",
                              "clipSpeedAttribute" : false
                            },
                            "animationTracks" : {
                              "visual" : [
                                {
                                  "endTime" : 56,
                                  "duration" : 38,
                                  "range" : [ 18, 38],
                                  "interp" : "eioe"
                                },
                                {
                                  "endTime" : 92,
                                  "duration" : 36,
                                  "range" : [ 56, 36],
                                  "interp" : "eioe"
                                },
                                {
                                  "endTime" : 174,
                                  "duration" : 58,
                                  "range" : [ 116, 58]
                                }
                              ]
                            }
                          }
                        ],
                          "ident" : "",
                          "audioMuted" : false,
                          "videoHidden" : false,
                          "magnetic" : false,
                          "metadata" : {
                            "IsLocked" : "False",
                            "WinTrackHeight" : "0"
                          }
                      },
                      {
                        "trackIndex" : 1,
                        "medias" : [
                          {
                            "id" : 490,
                            "_type" : "Callout",
                            "def" : {
                              "kind" : "remix",
                              "shape" : "shape-rectangle",
                              "style" : "urban",
                              "fill-color-blue" : {
                                "type" : "double",
                                "defaultValue" : 1.0,
                                "keyframes" : [
                                  {
                                    "endTime" : 54,
                                    "time" : 18,
                                    "value" : 0.149019607843137,
                                    "duration" : 36
                                  },
                                  {
                                    "endTime" : 136,
                                    "time" : 78,
                                    "value" : 1.0,
                                    "duration" : 58
                                  }
                                ]
                              },
                              "fill-color-green" : {
                                "type" : "double",
                                "defaultValue" : 1.0,
                                "keyframes" : [
                                  {
                                    "endTime" : 54,
                                    "time" : 18,
                                    "value" : 0.96078431372549,
                                    "duration" : 36
                                  },
                                  {
                                    "endTime" : 136,
                                    "time" : 78,
                                    "value" : 1.0,
                                    "duration" : 58
                                  }
                                ]
                              },
                              "fill-color-opacity" : 1.0,
                              "fill-color-red" : {
                                "type" : "double",
                                "defaultValue" : 1.0,
                                "keyframes" : [
                                  {
                                    "endTime" : 54,
                                    "time" : 18,
                                    "value" : 0.933333333333333,
                                    "duration" : 36
                                  },
                                  {
                                    "endTime" : 136,
                                    "time" : 78,
                                    "value" : 1.0,
                                    "duration" : 58
                                  }
                                ]
                              },
                              "height" : {
                                "type" : "double",
                                "defaultValue" : 10.8510761260468,
                                "keyframes" : [
                                  {
                                    "endTime" : 54,
                                    "time" : 18,
                                    "value" : 10.8510761260468,
                                    "duration" : 36
                                  },
                                  {
                                    "endTime" : 136,
                                    "time" : 78,
                                    "value" : 10.8510761260468,
                                    "duration" : 58
                                  }
                                ]
                              },
                              "stroke-color-blue" : 1.0,
                              "stroke-color-green" : 1.0,
                              "stroke-color-opacity" : 1.0,
                              "stroke-color-red" : 1.0,
                              "stroke-width" : 0.0,
                              "width" : {
                                "type" : "double",
                                "defaultValue" : 6.88782755517832,
                                "keyframes" : [
                                  {
                                    "endTime" : 54,
                                    "time" : 18,
                                    "value" : 1281.28316541273,
                                    "duration" : 36
                                  },
                                  {
                                    "endTime" : 136,
                                    "time" : 78,
                                    "value" : 1302.87700103543,
                                    "duration" : 58
                                  }
                                ]
                              },
                              "fill-style" : "solid",
                              "horizontal-alignment" : "center",
                              "stroke-style" : "solid",
                              "vertical-alignment" : "center",
                              "textAttributes" : {
                                "type" : "textAttributeList",
                                "keyframes" : [
                                  {
                                    "endTime" : 0,
                                    "time" : 0,
                                    "value" : null,
                                    "duration" : 0
                                  }
                                ]
                              }
                            },
                            "attributes" : {
                              "autoRotateText" : true
                            },
                            "parameters" : {
                              "translation0" : {
                                "type" : "double",
                                "defaultValue" : -1.21547438780567e-10,
                                "keyframes" : [
                                  {
                                    "endTime" : 54,
                                    "time" : 18,
                                    "value" : -0.0541988189824127,
                                    "duration" : 36
                                  },
                                  {
                                    "endTime" : 136,
                                    "time" : 78,
                                    "value" : -1.21547438780567e-10,
                                    "duration" : 58
                                  }
                                ]
                              },
                              "translation1" : {
                                "type" : "double",
                                "defaultValue" : 78.8579651656907,
                                "keyframes" : [
                                  {
                                    "endTime" : 54,
                                    "time" : 18,
                                    "value" : 78.8936575656383,
                                    "duration" : 36
                                  },
                                  {
                                    "endTime" : 136,
                                    "time" : 78,
                                    "value" : 694.705445748916,
                                    "duration" : 58
                                  }
                                ]
                              }
                            },
                            "effects" : [

                            ],
                            "start" : 38,
                            "duration" : 142,
                            "mediaStart" : 18,
                            "mediaDuration" : 142,
                            "scalar" : 1,
                            "metadata" : {
                              "WinSubProjectDisplayName" : "",
                              "clipSpeedAttribute" : false
                            },
                            "animationTracks" : {
                              "visual" : [
                                {
                                  "endTime" : 54,
                                  "duration" : 36,
                                  "range" : [ 18, 36],
                                  "interp" : "eioe"
                                },
                                {
                                  "endTime" : 136,
                                  "duration" : 58,
                                  "range" : [ 78, 58],
                                  "interp" : "eioe"
                                }
                              ]
                            }
                          }
                        ],
                          "ident" : "",
                          "audioMuted" : false,
                          "videoHidden" : false,
                          "magnetic" : false,
                          "metadata" : {
                            "IsLocked" : "False",
                            "WinTrackHeight" : "6.39079466327898e-312"
                          }
                      },
                      {
                        "trackIndex" : 2,
                        "medias" : [
                          {
                            "id" : 491,
                            "_type" : "Callout",
                            "def" : {
                              "kind" : "remix",
                              "shape" : "text",
                              "style" : "abstract",
                              "height" : 180.630981445261,
                              "line-spacing" : 0.0,
                              "width" : 1281.17482864961,
                              "word-wrap" : 1.0,
                              "horizontal-alignment" : "center",
                              "resize-behavior" : "resizeText",
                              "text" : "backdrops",
                              "vertical-alignment" : "center",
                              "font" : {
                                "color-blue" : 1.0,
                                "color-green" : 1.0,
                                "color-red" : 1.0,
                                "size" : 96.0,
                                "tracking" : 0.0,
                                "name" : "Lato",
                                "weight" : "Regular"
                              },
                              "textAttributes" : {
                                "type" : "textAttributeList",
                                "keyframes" : [
                                  {
                                    "endTime" : 0,
                                    "time" : 0,
                                    "value" : [{"name":"kerning","rangeEnd":9,"rangeStart":0,"value":0,"valueType":"double"},{"name":"strikethrough","rangeEnd":9,"rangeStart":0,"value":0,"valueType":"int"},{"name":"underline","rangeEnd":9,"rangeStart":0,"value":0,"valueType":"int"},{"name":"fontSize","rangeEnd":9,"rangeStart":0,"value":128,"valueType":"double"},{"name":"fontWeight","rangeEnd":9,"rangeStart":0,"value":400,"valueType":"int"},{"name":"fontItalic","rangeEnd":9,"rangeStart":0,"value":0,"valueType":"int"},{"name":"fontName","rangeEnd":9,"rangeStart":0,"value":"Montserrat","valueType":"string"},{"name":"fgColor","rangeEnd":9,"rangeStart":0,"value":"(255,255,255,255)","valueType":"color"}],
                                    "duration" : 0
                                  }
                                ]
                              }
                            },
                            "attributes" : {
                              "autoRotateText" : true
                            },
                            "parameters" : {
                              "translation0" : {
                                "type" : "double",
                                "defaultValue" : 0.412585675275182,
                                "keyframes" : [
                                  {
                                    "endTime" : 152,
                                    "time" : 94,
                                    "value" : 11.2636728451827,
                                    "duration" : 58
                                  }
                                ]
                              },
                              "translation1" : {
                                "type" : "double",
                                "defaultValue" : -5.81178581660322,
                                "keyframes" : [
                                  {
                                    "endTime" : 152,
                                    "time" : 94,
                                    "value" : 610.000002366703,
                                    "duration" : 58
                                  }
                                ]
                              }
                            },
                            "effects" : [
                                {
                                  "_type" : "GenericBehaviorEffect",
                                  "effectName" : "popUp",
                                  "start" : 34,
                                  "duration" : 142                                ,
                                  "in" : {
                                    "attributes" : {
                                      "name" : "reveal",
                                      "type" : 1,
                                      "characterOrder" : 6,
                                      "offsetBetweenCharacters" : 3,
                                      "suggestedDurationPerCharacter" : 44,
                                      "overlapProportion" : 0,
                                      "movement" : 16,
                                      "springDamping" : 5.0,
                                      "springStiffness" : 50.0,
                                      "bounceBounciness" : 0.45
                                    },
                                    "parameters" : {
                                      "direction" : {
                                        "type" : "int",
                                        "valueBounds" : {
                                          "minValue" : 0,
                                          "maxValue" : 3,
                                          "defaultValue" : 0
                                        },
                                        "uiHints" : {
                                          "userInterfaceType" : 2,
                                          "unitType" : 0
                                        },
                                        "keyframes" : [
                                          {
                                            "endTime" : 0,
                                            "time" : 0,
                                            "value" : 2,
                                            "duration" : 0
                                          }
                                        ]
                                      }
                                    }
                                  
                                  },
                                  "center" : {
                                    "attributes" : {
                                      "name" : "none",
                                      "type" : 1,
                                      "characterOrder" : 6,
                                      "offsetBetweenCharacters" : 0,
                                      "secondsPerLoop" : 1,
                                      "numberOfLoops" : -1,
                                      "delayBetweenLoops" : 0,
                                      "offsetBetweenCharacters" : 0
                                    }
                                  
                                  },
                                  "out" : {
                                    "attributes" : {
                                      "name" : "none",
                                      "type" : 1,
                                      "characterOrder" : 6,
                                      "offsetBetweenCharacters" : 0,
                                      "suggestedDurationPerCharacter" : 0,
                                      "overlapProportion" : 0,
                                      "movement" : -1,
                                      "springDamping" : 5.0,
                                      "springStiffness" : 50.0,
                                      "bounceBounciness" : 0.45
                                    }
                                  
                                  }
                                }
                            ],
                            "start" : 38,
                            "duration" : 142,
                            "mediaStart" : 34,
                            "mediaDuration" : 142,
                            "scalar" : 1,
                            "metadata" : {
                              "WinSubProjectDisplayName" : "",
                              "clipSpeedAttribute" : false,
                              "default-HAlign" : "center",
                              "default-LineSpace" : 0.0,
                              "default-VAlign" : "center",
                              "default-text-attributes" : "[{\"name\":\"fontName\",\"rangeEnd\":15,\"rangeStart\":0,\"value\":\"Montserrat\",\"valueType\":\"string\"},{\"name\":\"fgColor\",\"rangeEnd\":15,\"rangeStart\":0,\"value\":\"(255,255,255,255)\",\"valueType\":\"color\"},{\"name\":\"underline\",\"rangeEnd\":15,\"rangeStart\":0,\"value\":0,\"valueType\":\"int\"},{\"name\":\"strikethrough\",\"rangeEnd\":15,\"rangeStart\":0,\"value\":0,\"valueType\":\"int\"},{\"name\":\"fontSize\",\"rangeEnd\":15,\"rangeStart\":0,\"value\":128,\"valueType\":\"double\"},{\"name\":\"fontItalic\",\"rangeEnd\":15,\"rangeStart\":0,\"value\":0,\"valueType\":\"int\"},{\"name\":\"fontWeight\",\"rangeEnd\":15,\"rangeStart\":0,\"value\":100,\"valueType\":\"int\"}]"
                            },
                            "animationTracks" : {
                              "visual" : [
                                {
                                  "endTime" : 152,
                                  "duration" : 58,
                                  "range" : [ 94, 58],
                                  "interp" : "eioe"
                                }
                              ]
                            }
                          }
                        ],
                          "ident" : "",
                          "audioMuted" : false,
                          "videoHidden" : false,
                          "magnetic" : false,
                          "metadata" : {
                            "IsLocked" : "False",
                            "WinTrackHeight" : "6.39079466327898e-312"
                          }
                      },
                      {
                        "trackIndex" : 3,
                        "medias" : [
                          {
                            "id" : 492,
                            "_type" : "Callout",
                            "def" : {
                              "kind" : "remix",
                              "shape" : "text",
                              "style" : "abstract",
                              "height" : 83.6840731068824,
                              "line-spacing" : 0.0,
                              "width" : 1281.28322521409,
                              "word-wrap" : 1.0,
                              "horizontal-alignment" : "center",
                              "resize-behavior" : "resizeText",
                              "text" : "looks",
                              "vertical-alignment" : "center",
                              "font" : {
                                "color-blue" : 1.0,
                                "color-green" : 1.0,
                                "color-red" : 1.0,
                                "size" : 96.0,
                                "tracking" : 0.0,
                                "name" : "Lato",
                                "weight" : "Regular"
                              },
                              "textAttributes" : {
                                "type" : "textAttributeList",
                                "keyframes" : [
                                  {
                                    "endTime" : 0,
                                    "time" : 0,
                                    "value" : [{"name":"fontWeight","rangeEnd":5,"rangeStart":0,"value":400,"valueType":"int"},{"name":"fontItalic","rangeEnd":5,"rangeStart":0,"value":0,"valueType":"int"},{"name":"fontName","rangeEnd":5,"rangeStart":0,"value":"Montserrat","valueType":"string"},{"name":"fontSize","rangeEnd":5,"rangeStart":0,"value":60,"valueType":"double"},{"name":"kerning","rangeEnd":5,"rangeStart":0,"value":0,"valueType":"double"},{"name":"fgColor","rangeEnd":5,"rangeStart":0,"value":"(0,0,0,255)","valueType":"color"},{"name":"underline","rangeEnd":5,"rangeStart":0,"value":0,"valueType":"int"},{"name":"strikethrough","rangeEnd":5,"rangeStart":0,"value":0,"valueType":"int"}],
                                    "duration" : 0
                                  }
                                ]
                              }
                            },
                            "attributes" : {
                              "autoRotateText" : true
                            },
                            "parameters" : {
                              "translation0" : {
                                "type" : "double",
                                "defaultValue" : 0.304200155246711,
                                "keyframes" : [
                                  {
                                    "endTime" : 110,
                                    "time" : 52,
                                    "value" : -1.86383482943485,
                                    "duration" : 58
                                  }
                                ]
                              },
                              "translation1" : {
                                "type" : "double",
                                "defaultValue" : -96.1538223700724,
                                "keyframes" : [
                                  {
                                    "endTime" : 110,
                                    "time" : 52,
                                    "value" : -658.500002366703,
                                    "duration" : 58
                                  }
                                ]
                              }
                            },
                            "effects" : [
                                {
                                  "_type" : "GenericBehaviorEffect",
                                  "effectName" : "popUp",
                                  "start" : 0,
                                  "duration" : 138                                ,
                                  "in" : {
                                    "attributes" : {
                                      "name" : "reveal",
                                      "type" : 1,
                                      "characterOrder" : 7,
                                      "offsetBetweenCharacters" : 3,
                                      "suggestedDurationPerCharacter" : 44,
                                      "overlapProportion" : 0,
                                      "movement" : 16,
                                      "springDamping" : 5.0,
                                      "springStiffness" : 50.0,
                                      "bounceBounciness" : 0.45
                                    },
                                    "parameters" : {
                                      "direction" : {
                                        "type" : "int",
                                        "valueBounds" : {
                                          "minValue" : 0,
                                          "maxValue" : 3,
                                          "defaultValue" : 0
                                        },
                                        "uiHints" : {
                                          "userInterfaceType" : 2,
                                          "unitType" : 0
                                        },
                                        "keyframes" : [
                                          {
                                            "endTime" : 0,
                                            "time" : 0,
                                            "value" : 0,
                                            "duration" : 0
                                          }
                                        ]
                                      }
                                    }
                                  
                                  },
                                  "center" : {
                                    "attributes" : {
                                      "name" : "none",
                                      "type" : 1,
                                      "characterOrder" : 6,
                                      "offsetBetweenCharacters" : 0,
                                      "secondsPerLoop" : 1,
                                      "numberOfLoops" : -1,
                                      "delayBetweenLoops" : 0,
                                      "offsetBetweenCharacters" : 0
                                    }
                                  
                                  },
                                  "out" : {
                                    "attributes" : {
                                      "name" : "none",
                                      "type" : 1,
                                      "characterOrder" : 6,
                                      "offsetBetweenCharacters" : 0,
                                      "suggestedDurationPerCharacter" : 0,
                                      "overlapProportion" : 0,
                                      "movement" : -1,
                                      "springDamping" : 5.0,
                                      "springStiffness" : 50.0,
                                      "bounceBounciness" : 0.45
                                    }
                                  
                                  }
                                }
                            ],
                            "start" : 42,
                            "duration" : 138,
                            "mediaStart" : 0,
                            "mediaDuration" : 138,
                            "scalar" : 1,
                            "metadata" : {
                              "WinSubProjectDisplayName" : "",
                              "clipSpeedAttribute" : false,
                              "default-HAlign" : "center",
                              "default-LineSpace" : 0.0,
                              "default-VAlign" : "center",
                              "default-text-attributes" : "[{\"name\":\"fontName\",\"rangeEnd\":17,\"rangeStart\":0,\"value\":\"Montserrat\",\"valueType\":\"string\"},{\"name\":\"strikethrough\",\"rangeEnd\":17,\"rangeStart\":0,\"value\":0,\"valueType\":\"int\"},{\"name\":\"fontWeight\",\"rangeEnd\":17,\"rangeStart\":0,\"value\":100,\"valueType\":\"int\"},{\"name\":\"fontSize\",\"rangeEnd\":17,\"rangeStart\":0,\"value\":60,\"valueType\":\"double\"},{\"name\":\"fontItalic\",\"rangeEnd\":17,\"rangeStart\":0,\"value\":0,\"valueType\":\"int\"},{\"name\":\"fgColor\",\"rangeEnd\":17,\"rangeStart\":0,\"value\":\"(0,0,0,255)\",\"valueType\":\"color\"},{\"name\":\"underline\",\"rangeEnd\":17,\"rangeStart\":0,\"value\":0,\"valueType\":\"int\"}]",
                              "default-translation0" : 0.358387392787593
                            },
                            "animationTracks" : {
                              "visual" : [
                                {
                                  "endTime" : 110,
                                  "duration" : 58,
                                  "range" : [ 52, 58],
                                  "interp" : "eioe"
                                }
                              ]
                            }
                          }
                        ],
                          "ident" : "",
                          "audioMuted" : false,
                          "videoHidden" : false,
                          "magnetic" : false,
                          "metadata" : {
                            "IsLocked" : "False",
                            "WinTrackHeight" : "6.39079466327898e-312"
                          }
                      }
                    ],
                    "attributes" : {
                      "ident" : "Simple Bright Title 3",
                      "gain" : 1.0,
                      "mixToMono" : false,
                      "assetProperties" : [
                        {
                          "type" : 0,
                          "name" : "Title",
                          "objects" : [ 491 ],
                          "themeMappings" :  {
                            "font-color" : "foreground-1",
                            "font-family" : "font-1"
                          }
                        },
                        {
                          "type" : 0,
                          "name" : "Subtitle",
                          "objects" : [ 492 ],
                          "themeMappings" :  {
                            "font-color" : "background-1",
                            "font-family" : "font-1"
                          }
                        },
                        {
                          "type" : 1,
                          "name" : "Color 1",
                          "objects" : [ 489, 490 ],
                          "themeMappings" :  {
                            "fill" : "accent-1"
                          }
                        }
                      ]
                    },
                    "effects" : [

                    ],
                    "start" : 54522,
                    "duration" : 210,
                    "mediaStart" : -30.0,
                    "mediaDuration" : 210.0,
                    "scalar" : 1,
                    "metadata" : {
                      "AppliedThemeId" : "",
                      "IsGroupExpanded" : "False",
                      "WinSubProjectDisplayName" : "Simple Bright Title 3",
                      "clipSpeedAttribute" : false,
                      "effectApplied" : "none",
                      "isOpen" : false
                    },
                    "animationTracks" : {

                    }
                  },
                  {
                    "id" : 493,
                    "_type" : "UnifiedMedia",
                    "video" : 
                        {
                          "id" : 494,
                          "_type" : "ScreenVMFile",
                          "src" : 49,
                          "trackNumber" : 0,
                          "attributes" : {
                            "ident" : "scratch-14-backdrops"
                          },
                          "parameters" : {
                            "cursorScale" : {
                              "type" : "double",
                              "defaultValue" : 1.0,
                              "interp" : "linr"
                            },
                            "cursorOpacity" : {
                              "type" : "double",
                              "defaultValue" : 1.0,
                              "interp" : "linr"
                            }
                          },
                          "effects" : [

                          ],
                          "start" : 54732,
                          "duration" : 2216,
                          "mediaStart" : 0,
                          "mediaDuration" : 2216,
                          "scalar" : 1,
                          "animationTracks" : {

                          }
                        },
                    "audio" : 
                        {
                          "id" : 495,
                          "_type" : "AMFile",
                          "src" : 49,
                          "trackNumber" : 1,
                          "attributes" : {
                            "ident" : "",
                            "gain" : 1.0,
                            "mixToMono" : false
                          },
                            "channelNumber" : "0,1",
                          "effects" : [

                          ],
                          "start" : 54732,
                          "duration" : 2216,
                          "mediaStart" : 0,
                          "mediaDuration" : 2216,
                          "scalar" : 1,
                          "animationTracks" : {

                          }
                        }
,
                    "start" : 54732,
                    "duration" : 2216,
                    "mediaStart" : 0,
                    "mediaDuration" : 2216,
                    "scalar" : 1,
                    "metadata" : {
                      "AutoAppliedSmartFocus" : "False",
                      "clipSpeedAttribute" : false
                    }
                  },
                  {
                    "id" : 496,
                    "_type" : "Group",
                    "parameters" : {
                      "translation0" : 1.45519152283669e-10,
                      "translation1" : 1.32331479107961e-10,
                      "volume" : 1.0
                    },
                    "tracks" : [
                      {
                        "trackIndex" : 0,
                        "medias" : [
                          {
                            "id" : 497,
                            "_type" : "Group",
                            "parameters" : {
                              "translation0" : -1.45519152283669e-10,
                              "translation1" : -1.32331479107961e-10,
                              "volume" : 1.0
                            },
                            "tracks" : [
                              {
                                "trackIndex" : 0,
                                "medias" : [
                                  {
                                    "id" : 498,
                                    "_type" : "Callout",
                                    "def" : {
                                      "kind" : "remix",
                                      "shape" : "shape-rectangle",
                                      "style" : "urban",
                                      "fill-color-blue" : 0.235294117647059,
                                      "fill-color-green" : 0.298039215686275,
                                      "fill-color-opacity" : 1.0,
                                      "fill-color-red" : 0.905882352941176,
                                      "height" : 1080.0000000002,
                                      "stroke-color-blue" : 0.777079198166942,
                                      "stroke-color-green" : 0.93090625,
                                      "stroke-color-opacity" : 1.0,
                                      "stroke-color-red" : 0.113700037136884,
                                      "stroke-width" : 0.0,
                                      "width" : 1920.00000000019,
                                      "horizontal-alignment" : "center",
                                      "stroke-style" : "solid",
                                      "vertical-alignment" : "center",
                                      "textAttributes" : {
                                        "type" : "textAttributeList",
                                        "keyframes" : [
                                          {
                                            "endTime" : 0,
                                            "time" : 0,
                                            "value" : null,
                                            "duration" : 0
                                          }
                                        ]
                                      }
                                    },
                                    "attributes" : {
                                      "autoRotateText" : true
                                    },
                                    "parameters" : {
                                      "translation0" : 2.43858266912866e-11,
                                      "translation1" : 1.125499693444e-11
                                    },
                                    "effects" : [

                                    ],
                                    "start" : 0,
                                    "duration" : 200,
                                    "mediaStart" : 0,
                                    "mediaDuration" : 200,
                                    "scalar" : 1,
                                    "metadata" : {
                                      "WinSubProjectDisplayName" : "",
                                      "clipSpeedAttribute" : false
                                    },
                                    "animationTracks" : {

                                    }
                                  }
                                ],
                                  "ident" : "",
                                  "audioMuted" : false,
                                  "videoHidden" : false,
                                  "magnetic" : false,
                                  "metadata" : {
                                    "IsLocked" : "False",
                                    "WinTrackHeight" : "0"
                                  }
                              },
                              {
                                "trackIndex" : 1,
                                "medias" : [
                                  {
                                    "id" : 499,
                                    "_type" : "Callout",
                                    "def" : {
                                      "kind" : "remix",
                                      "shape" : "shape-rectangle",
                                      "style" : "abstract",
                                      "fill-color-blue" : {
                                        "type" : "double",
                                        "defaultValue" : 0.556862745098039,
                                        "keyframes" : [
                                          {
                                            "endTime" : 64,
                                            "time" : 0,
                                            "value" : 0.556862745098039,
                                            "duration" : 64
                                          }
                                        ]
                                      },
                                      "fill-color-green" : {
                                        "type" : "double",
                                        "defaultValue" : 0.454901960784314,
                                        "keyframes" : [
                                          {
                                            "endTime" : 64,
                                            "time" : 0,
                                            "value" : 0.454901960784314,
                                            "duration" : 64
                                          }
                                        ]
                                      },
                                      "fill-color-opacity" : 1.0,
                                      "fill-color-red" : {
                                        "type" : "double",
                                        "defaultValue" : 0.235294117647059,
                                        "keyframes" : [
                                          {
                                            "endTime" : 64,
                                            "time" : 0,
                                            "value" : 0.235294117647059,
                                            "duration" : 64
                                          }
                                        ]
                                      },
                                      "height" : {
                                        "type" : "double",
                                        "defaultValue" : 6.95536632864869,
                                        "keyframes" : [
                                          {
                                            "endTime" : 64,
                                            "time" : 0,
                                            "value" : 784.000000000243,
                                            "duration" : 64
                                          }
                                        ]
                                      },
                                      "stroke-color-blue" : 1.0,
                                      "stroke-color-green" : 1.0,
                                      "stroke-color-opacity" : 1.0,
                                      "stroke-color-red" : 1.0,
                                      "stroke-width" : 0.0,
                                      "width" : {
                                        "type" : "double",
                                        "defaultValue" : 7.26449372104034,
                                        "keyframes" : [
                                          {
                                            "endTime" : 64,
                                            "time" : 0,
                                            "value" : 818.844444445516,
                                            "duration" : 64
                                          }
                                        ]
                                      },
                                      "horizontal-alignment" : "center",
                                      "stroke-style" : "solid",
                                      "vertical-alignment" : "center",
                                      "textAttributes" : {
                                        "type" : "textAttributeList",
                                        "keyframes" : [
                                          {
                                            "endTime" : 0,
                                            "time" : 0,
                                            "value" : null,
                                            "duration" : 0
                                          }
                                        ]
                                      }
                                    },
                                    "attributes" : {
                                      "autoRotateText" : true
                                    },
                                    "parameters" : {
                                      "translation0" : {
                                        "type" : "double",
                                        "defaultValue" : -6.11635186942294e-11,
                                        "keyframes" : [
                                          {
                                            "endTime" : 64,
                                            "time" : 0,
                                            "value" : -6.11635186942294e-11,
                                            "duration" : 64
                                          }
                                        ]
                                      },
                                      "translation1" : {
                                        "type" : "double",
                                        "defaultValue" : -7.98650034994353e-12,
                                        "keyframes" : [
                                          {
                                            "endTime" : 64,
                                            "time" : 0,
                                            "value" : -7.98650034994353e-12,
                                            "duration" : 64
                                          }
                                        ]
                                      },
                                      "rotation2" : {
                                        "type" : "double",
                                        "defaultValue" : 0.935769591402824,
                                        "keyframes" : [
                                          {
                                            "endTime" : 64,
                                            "time" : 0,
                                            "value" : 0.0,
                                            "duration" : 64
                                          }
                                        ]
                                      }
                                    },
                                    "effects" : [

                                    ],
                                    "start" : 20,
                                    "duration" : 74,
                                    "mediaStart" : 0,
                                    "mediaDuration" : 74,
                                    "scalar" : 1,
                                    "metadata" : {
                                      "WinSubProjectDisplayName" : "",
                                      "clipSpeedAttribute" : false
                                    },
                                    "animationTracks" : {
                                      "visual" : [
                                        {
                                          "endTime" : 64,
                                          "duration" : 64,
                                          "range" : [ 0, 64]
                                        }
                                      ]
                                    }
                                  }
                                ],
                                  "ident" : "",
                                  "audioMuted" : false,
                                  "videoHidden" : false,
                                  "magnetic" : false,
                                  "metadata" : {
                                    "IsLocked" : "False",
                                    "WinTrackHeight" : "0"
                                  }
                              },
                              {
                                "trackIndex" : 2,
                                "medias" : [
                                  {
                                    "id" : 500,
                                    "_type" : "Callout",
                                    "def" : {
                                      "kind" : "remix",
                                      "shape" : "shape-rectangle",
                                      "style" : "abstract",
                                      "fill-color-blue" : {
                                        "type" : "double",
                                        "defaultValue" : 0.235294117647059,
                                        "keyframes" : [
                                          {
                                            "endTime" : 50,
                                            "time" : 0,
                                            "value" : 0.235294117647059,
                                            "duration" : 50
                                          }
                                        ]
                                      },
                                      "fill-color-green" : {
                                        "type" : "double",
                                        "defaultValue" : 0.298039215686275,
                                        "keyframes" : [
                                          {
                                            "endTime" : 50,
                                            "time" : 0,
                                            "value" : 0.298039215686275,
                                            "duration" : 50
                                          }
                                        ]
                                      },
                                      "fill-color-opacity" : 1.0,
                                      "fill-color-red" : {
                                        "type" : "double",
                                        "defaultValue" : 0.905882352941176,
                                        "keyframes" : [
                                          {
                                            "endTime" : 50,
                                            "time" : 0,
                                            "value" : 0.905882352941176,
                                            "duration" : 50
                                          }
                                        ]
                                      },
                                      "height" : {
                                        "type" : "double",
                                        "defaultValue" : 6.95536632864869,
                                        "keyframes" : [
                                          {
                                            "endTime" : 50,
                                            "time" : 0,
                                            "value" : 1051.32817372388,
                                            "duration" : 50
                                          }
                                        ]
                                      },
                                      "stroke-color-blue" : {
                                        "type" : "double",
                                        "defaultValue" : 0.777079198166942,
                                        "keyframes" : [
                                          {
                                            "endTime" : 50,
                                            "time" : 0,
                                            "value" : 0.777079198166942,
                                            "duration" : 50
                                          }
                                        ]
                                      },
                                      "stroke-color-green" : {
                                        "type" : "double",
                                        "defaultValue" : 0.93090625,
                                        "keyframes" : [
                                          {
                                            "endTime" : 50,
                                            "time" : 0,
                                            "value" : 0.93090625,
                                            "duration" : 50
                                          }
                                        ]
                                      },
                                      "stroke-color-opacity" : 1.0,
                                      "stroke-color-red" : {
                                        "type" : "double",
                                        "defaultValue" : 0.113700037136884,
                                        "keyframes" : [
                                          {
                                            "endTime" : 50,
                                            "time" : 0,
                                            "value" : 0.113700037136884,
                                            "duration" : 50
                                          }
                                        ]
                                      },
                                      "stroke-width" : 0.0,
                                      "width" : {
                                        "type" : "double",
                                        "defaultValue" : 7.26449372104034,
                                        "keyframes" : [
                                          {
                                            "endTime" : 50,
                                            "time" : 0,
                                            "value" : 1098.05387033492,
                                            "duration" : 50
                                          }
                                        ]
                                      },
                                      "horizontal-alignment" : "center",
                                      "stroke-style" : "solid",
                                      "vertical-alignment" : "center",
                                      "textAttributes" : {
                                        "type" : "textAttributeList",
                                        "keyframes" : [
                                          {
                                            "endTime" : 0,
                                            "time" : 0,
                                            "value" : null,
                                            "duration" : 0
                                          }
                                        ]
                                      }
                                    },
                                    "attributes" : {
                                      "autoRotateText" : true
                                    },
                                    "parameters" : {
                                      "translation0" : {
                                        "type" : "double",
                                        "defaultValue" : -6.11635186942294e-11,
                                        "keyframes" : [
                                          {
                                            "endTime" : 50,
                                            "time" : 0,
                                            "value" : -6.11635186942294e-11,
                                            "duration" : 50
                                          }
                                        ]
                                      },
                                      "translation1" : {
                                        "type" : "double",
                                        "defaultValue" : -7.98650034994353e-12,
                                        "keyframes" : [
                                          {
                                            "endTime" : 50,
                                            "time" : 0,
                                            "value" : -7.98650034994353e-12,
                                            "duration" : 50
                                          }
                                        ]
                                      },
                                      "rotation2" : {
                                        "type" : "double",
                                        "defaultValue" : 0.935769591402824,
                                        "keyframes" : [
                                          {
                                            "endTime" : 50,
                                            "time" : 0,
                                            "value" : -0.255182390620909,
                                            "duration" : 50
                                          }
                                        ]
                                      }
                                    },
                                    "effects" : [

                                    ],
                                    "start" : 34,
                                    "duration" : 60,
                                    "mediaStart" : 0,
                                    "mediaDuration" : 60,
                                    "scalar" : 1,
                                    "metadata" : {
                                      "WinSubProjectDisplayName" : "",
                                      "clipSpeedAttribute" : false
                                    },
                                    "animationTracks" : {
                                      "visual" : [
                                        {
                                          "endTime" : 50,
                                          "duration" : 50,
                                          "range" : [ 0, 50]
                                        }
                                      ]
                                    }
                                  }
                                ],
                                  "ident" : "",
                                  "audioMuted" : false,
                                  "videoHidden" : false,
                                  "magnetic" : false,
                                  "metadata" : {
                                    "IsLocked" : "False",
                                    "WinTrackHeight" : "0"
                                  }
                              },
                              {
                                "trackIndex" : 3,
                                "medias" : [
                                  {
                                    "id" : 501,
                                    "_type" : "Callout",
                                    "def" : {
                                      "kind" : "remix",
                                      "shape" : "shape-ellipse",
                                      "style" : "bold",
                                      "fill-color-blue" : {
                                        "type" : "double",
                                        "defaultValue" : 0.235294117647059,
                                        "keyframes" : [
                                          {
                                            "endTime" : 42,
                                            "time" : 0,
                                            "value" : 0.235294117647059,
                                            "duration" : 42
                                          },
                                          {
                                            "endTime" : 50,
                                            "time" : 42,
                                            "value" : 0.235294117647059,
                                            "duration" : 8
                                          }
                                        ]
                                      },
                                      "fill-color-green" : {
                                        "type" : "double",
                                        "defaultValue" : 0.298039215686275,
                                        "keyframes" : [
                                          {
                                            "endTime" : 42,
                                            "time" : 0,
                                            "value" : 0.298039215686275,
                                            "duration" : 42
                                          },
                                          {
                                            "endTime" : 50,
                                            "time" : 42,
                                            "value" : 0.298039215686275,
                                            "duration" : 8
                                          }
                                        ]
                                      },
                                      "fill-color-opacity" : 1.0,
                                      "fill-color-red" : {
                                        "type" : "double",
                                        "defaultValue" : 0.905882352941176,
                                        "keyframes" : [
                                          {
                                            "endTime" : 42,
                                            "time" : 0,
                                            "value" : 0.905882352941176,
                                            "duration" : 42
                                          },
                                          {
                                            "endTime" : 50,
                                            "time" : 42,
                                            "value" : 0.905882352941176,
                                            "duration" : 8
                                          }
                                        ]
                                      },
                                      "height" : {
                                        "type" : "double",
                                        "defaultValue" : 12.000000000389,
                                        "keyframes" : [
                                          {
                                            "endTime" : 42,
                                            "time" : 0,
                                            "value" : 673.920000000227,
                                            "duration" : 42
                                          },
                                          {
                                            "endTime" : 50,
                                            "time" : 42,
                                            "value" : 800.000000000197,
                                            "duration" : 8
                                          }
                                        ]
                                      },
                                      "stroke-color-blue" : {
                                        "type" : "double",
                                        "defaultValue" : 0.777079198166942,
                                        "keyframes" : [
                                          {
                                            "endTime" : 42,
                                            "time" : 0,
                                            "value" : 0.777079198166942,
                                            "duration" : 42
                                          },
                                          {
                                            "endTime" : 50,
                                            "time" : 42,
                                            "value" : 0.777079198166942,
                                            "duration" : 8
                                          }
                                        ]
                                      },
                                      "stroke-color-green" : {
                                        "type" : "double",
                                        "defaultValue" : 0.93090625,
                                        "keyframes" : [
                                          {
                                            "endTime" : 42,
                                            "time" : 0,
                                            "value" : 0.93090625,
                                            "duration" : 42
                                          },
                                          {
                                            "endTime" : 50,
                                            "time" : 42,
                                            "value" : 0.93090625,
                                            "duration" : 8
                                          }
                                        ]
                                      },
                                      "stroke-color-opacity" : {
                                        "type" : "double",
                                        "defaultValue" : 1.0,
                                        "keyframes" : [
                                          {
                                            "endTime" : 42,
                                            "time" : 0,
                                            "value" : 1.0,
                                            "duration" : 42
                                          },
                                          {
                                            "endTime" : 50,
                                            "time" : 42,
                                            "value" : 0.0,
                                            "duration" : 8
                                          }
                                        ]
                                      },
                                      "stroke-color-red" : {
                                        "type" : "double",
                                        "defaultValue" : 0.113700037136884,
                                        "keyframes" : [
                                          {
                                            "endTime" : 42,
                                            "time" : 0,
                                            "value" : 0.113700037136884,
                                            "duration" : 42
                                          },
                                          {
                                            "endTime" : 50,
                                            "time" : 42,
                                            "value" : 0.113700037136884,
                                            "duration" : 8
                                          }
                                        ]
                                      },
                                      "stroke-width" : {
                                        "type" : "double",
                                        "defaultValue" : 3.2972282606003,
                                        "keyframes" : [
                                          {
                                            "endTime" : 42,
                                            "time" : 0,
                                            "value" : 13.2523923911482,
                                            "duration" : 42
                                          },
                                          {
                                            "endTime" : 50,
                                            "time" : 42,
                                            "value" : 15.1486141303002,
                                            "duration" : 8
                                          }
                                        ]
                                      },
                                      "width" : {
                                        "type" : "double",
                                        "defaultValue" : 12.000000000389,
                                        "keyframes" : [
                                          {
                                            "endTime" : 42,
                                            "time" : 0,
                                            "value" : 673.920000000227,
                                            "duration" : 42
                                          },
                                          {
                                            "endTime" : 50,
                                            "time" : 42,
                                            "value" : 800.000000000197,
                                            "duration" : 8
                                          }
                                        ]
                                      },
                                      "horizontal-alignment" : "center",
                                      "stroke-style" : "solid",
                                      "vertical-alignment" : "center",
                                      "textAttributes" : {
                                        "type" : "textAttributeList",
                                        "keyframes" : [
                                          {
                                            "endTime" : 0,
                                            "time" : 0,
                                            "value" : null,
                                            "duration" : 0
                                          }
                                        ]
                                      }
                                    },
                                    "attributes" : {
                                      "autoRotateText" : true
                                    },
                                    "parameters" : {
                                      "translation0" : {
                                        "type" : "double",
                                        "defaultValue" : 1.59104729391402e-10,
                                        "keyframes" : [
                                          {
                                            "endTime" : 42,
                                            "time" : 0,
                                            "value" : 1.59104729391402e-10,
                                            "duration" : 42
                                          },
                                          {
                                            "endTime" : 50,
                                            "time" : 42,
                                            "value" : 1.59104729391402e-10,
                                            "duration" : 8
                                          }
                                        ]
                                      },
                                      "translation1" : {
                                        "type" : "double",
                                        "defaultValue" : -6.55546728012268e-11,
                                        "keyframes" : [
                                          {
                                            "endTime" : 42,
                                            "time" : 0,
                                            "value" : -6.55546728012268e-11,
                                            "duration" : 42
                                          },
                                          {
                                            "endTime" : 50,
                                            "time" : 42,
                                            "value" : -6.55546728012268e-11,
                                            "duration" : 8
                                          }
                                        ]
                                      }
                                    },
                                    "effects" : [

                                    ],
                                    "start" : 52,
                                    "duration" : 60,
                                    "mediaStart" : 0,
                                    "mediaDuration" : 60,
                                    "scalar" : 1,
                                    "metadata" : {
                                      "WinSubProjectDisplayName" : "",
                                      "clipSpeedAttribute" : false
                                    },
                                    "animationTracks" : {
                                      "visual" : [
                                        {
                                          "endTime" : 42,
                                          "duration" : 42,
                                          "range" : [ 0, 42]
                                        },
                                        {
                                          "endTime" : 50,
                                          "duration" : 8,
                                          "range" : [ 42, 8]
                                        }
                                      ]
                                    }
                                  },
                                  {
                                    "id" : 502,
                                    "_type" : "Callout",
                                    "def" : {
                                      "kind" : "remix",
                                      "shape" : "shape-rectangle",
                                      "style" : "abstract",
                                      "fill-color-blue" : {
                                        "type" : "double",
                                        "defaultValue" : 0.725490196078431,
                                        "keyframes" : [
                                          {
                                            "endTime" : 42,
                                            "time" : 14,
                                            "value" : 0.725490196078431,
                                            "duration" : 28
                                          }
                                        ]
                                      },
                                      "fill-color-green" : {
                                        "type" : "double",
                                        "defaultValue" : 0.501960784313725,
                                        "keyframes" : [
                                          {
                                            "endTime" : 42,
                                            "time" : 14,
                                            "value" : 0.501960784313725,
                                            "duration" : 28
                                          }
                                        ]
                                      },
                                      "fill-color-opacity" : 1.0,
                                      "fill-color-red" : {
                                        "type" : "double",
                                        "defaultValue" : 0.16078431372549,
                                        "keyframes" : [
                                          {
                                            "endTime" : 42,
                                            "time" : 14,
                                            "value" : 0.16078431372549,
                                            "duration" : 28
                                          }
                                        ]
                                      },
                                      "height" : {
                                        "type" : "double",
                                        "defaultValue" : 1970.84482462071,
                                        "keyframes" : [
                                          {
                                            "endTime" : 42,
                                            "time" : 14,
                                            "value" : 2713.03609938265,
                                            "duration" : 28
                                          }
                                        ]
                                      },
                                      "stroke-color-blue" : 1.0,
                                      "stroke-color-green" : 1.0,
                                      "stroke-color-opacity" : 1.0,
                                      "stroke-color-red" : 1.0,
                                      "stroke-width" : 0.0,
                                      "width" : {
                                        "type" : "double",
                                        "defaultValue" : 6.44547658048049,
                                        "keyframes" : [
                                          {
                                            "endTime" : 42,
                                            "time" : 14,
                                            "value" : 2256.39114786797,
                                            "duration" : 28
                                          }
                                        ]
                                      },
                                      "horizontal-alignment" : "center",
                                      "stroke-style" : "solid",
                                      "vertical-alignment" : "center",
                                      "textAttributes" : {
                                        "type" : "textAttributeList",
                                        "keyframes" : [
                                          {
                                            "endTime" : 0,
                                            "time" : 0,
                                            "value" : null,
                                            "duration" : 0
                                          }
                                        ]
                                      }
                                    },
                                    "attributes" : {
                                      "autoRotateText" : true
                                    },
                                    "parameters" : {
                                      "translation0" : {
                                        "type" : "double",
                                        "defaultValue" : 1.45519152283669e-10,
                                        "keyframes" : [
                                          {
                                            "endTime" : 42,
                                            "time" : 14,
                                            "value" : 1.45519152283669e-10,
                                            "duration" : 28
                                          }
                                        ]
                                      },
                                      "translation1" : {
                                        "type" : "double",
                                        "defaultValue" : 1.32367006244749e-10,
                                        "keyframes" : [
                                          {
                                            "endTime" : 42,
                                            "time" : 14,
                                            "value" : 1.32367006244749e-10,
                                            "duration" : 28
                                          }
                                        ]
                                      },
                                      "rotation2" : {
                                        "type" : "double",
                                        "defaultValue" : -0.518985227673131,
                                        "keyframes" : [
                                          {
                                            "endTime" : 42,
                                            "time" : 14,
                                            "value" : -0.518985227673131,
                                            "duration" : 28
                                          }
                                        ]
                                      }
                                    },
                                    "effects" : [

                                    ],
                                    "start" : 168,
                                    "duration" : 36,
                                    "mediaStart" : 14,
                                    "mediaDuration" : 36,
                                    "scalar" : 1,
                                    "metadata" : {
                                      "WinSubProjectDisplayName" : "",
                                      "clipSpeedAttribute" : false
                                    },
                                    "animationTracks" : {
                                      "visual" : [
                                        {
                                          "endTime" : 42,
                                          "duration" : 28,
                                          "range" : [ 14, 28],
                                          "interp" : "linr"
                                        }
                                      ]
                                    }
                                  },
                                  {
                                    "id" : 503,
                                    "_type" : "Callout",
                                    "def" : {
                                      "kind" : "remix",
                                      "shape" : "shape-rectangle",
                                      "style" : "urban",
                                      "fill-color-blue" : 0.725490196078431,
                                      "fill-color-green" : 0.501960784313725,
                                      "fill-color-opacity" : 1.0,
                                      "fill-color-red" : 0.16078431372549,
                                      "height" : 1080.00000000011,
                                      "stroke-color-blue" : 1.0,
                                      "stroke-color-green" : 1.0,
                                      "stroke-color-opacity" : 1.0,
                                      "stroke-color-red" : 1.0,
                                      "stroke-width" : 0.0,
                                      "width" : 1920.00002629153,
                                      "fill-style" : "solid",
                                      "horizontal-alignment" : "center",
                                      "stroke-style" : "solid",
                                      "vertical-alignment" : "center",
                                      "textAttributes" : {
                                        "type" : "textAttributeList",
                                        "keyframes" : [
                                          {
                                            "endTime" : 0,
                                            "time" : 0,
                                            "value" : null,
                                            "duration" : 0
                                          }
                                        ]
                                      }
                                    },
                                    "attributes" : {
                                      "autoRotateText" : true
                                    },
                                    "parameters" : {
                                      "translation0" : 1.31458509144977e-05,
                                      "translation1" : 4.2348347051302e-11
                                    },
                                    "effects" : [
                                        {
                                          "effectName" : "DropShadow",
                                          "category" : "categoryVisualEffects",
                                          "parameters" : {
                                            "angle" : {
                                              "type" : "double",
                                              "defaultValue" : 5.49778714378214,
                                              "valueBounds" : {
                                                "minValue" : 0.0,
                                                "maxValue" : 0.0,
                                                "defaultValue" : 5.49778714378214
                                              },
                                              "uiHints" : {
                                                "userInterfaceType" : 0,
                                                "unitType" : 0
                                              }
                                            },
                                            "blur" : {
                                              "type" : "double",
                                              "defaultValue" : 10.0,
                                              "valueBounds" : {
                                                "minValue" : 0.0,
                                                "maxValue" : 50.0,
                                                "defaultValue" : 10.0
                                              },
                                              "uiHints" : {
                                                "userInterfaceType" : 0,
                                                "unitType" : 0
                                              }
                                            },
                                            "color-alpha" : {
                                              "type" : "double",
                                              "defaultValue" : 1.0,
                                              "valueBounds" : {
                                                "minValue" : 0.0,
                                                "maxValue" : 1.0,
                                                "defaultValue" : 1.0
                                              },
                                              "uiHints" : {
                                                "userInterfaceType" : 0,
                                                "unitType" : 0
                                              }
                                            },
                                            "color-blue" : {
                                              "type" : "double",
                                              "defaultValue" : 0.1216,
                                              "valueBounds" : {
                                                "minValue" : 0.0,
                                                "maxValue" : 1.0,
                                                "defaultValue" : 0.1216
                                              },
                                              "uiHints" : {
                                                "userInterfaceType" : 0,
                                                "unitType" : 0
                                              }
                                            },
                                            "color-green" : {
                                              "type" : "double",
                                              "defaultValue" : 0.1216,
                                              "valueBounds" : {
                                                "minValue" : 0.0,
                                                "maxValue" : 1.0,
                                                "defaultValue" : 0.1216
                                              },
                                              "uiHints" : {
                                                "userInterfaceType" : 0,
                                                "unitType" : 0
                                              }
                                            },
                                            "color-red" : {
                                              "type" : "double",
                                              "defaultValue" : 0.1216,
                                              "valueBounds" : {
                                                "minValue" : 0.0,
                                                "maxValue" : 1.0,
                                                "defaultValue" : 0.1216
                                              },
                                              "uiHints" : {
                                                "userInterfaceType" : 0,
                                                "unitType" : 0
                                              }
                                            },
                                            "enabled" : {
                                              "type" : "int",
                                              "valueBounds" : {
                                                "minValue" : 0,
                                                "maxValue" : 1,
                                                "defaultValue" : 1
                                              },
                                              "uiHints" : {
                                                "userInterfaceType" : 0,
                                                "unitType" : 0
                                              },
                                              "keyframes" : [
                                                {
                                                  "endTime" : 0,
                                                  "time" : 0,
                                                  "value" : 1,
                                                  "duration" : 0
                                                }
                                              ]
                                            },
                                            "offset" : {
                                              "type" : "double",
                                              "defaultValue" : 10.0,
                                              "valueBounds" : {
                                                "minValue" : 0.0,
                                                "maxValue" : 250.0,
                                                "defaultValue" : 10.0
                                              },
                                              "uiHints" : {
                                                "userInterfaceType" : 0,
                                                "unitType" : 0
                                              }
                                            },
                                            "opacity" : {
                                              "type" : "double",
                                              "defaultValue" : 0.4,
                                              "valueBounds" : {
                                                "minValue" : 0.0,
                                                "maxValue" : 1.0,
                                                "defaultValue" : 0.4
                                              },
                                              "uiHints" : {
                                                "userInterfaceType" : 0,
                                                "unitType" : 0
                                              }
                                            }
                                          }
                                        }
                                    ],
                                    "start" : 204,
                                    "duration" : 254,
                                    "mediaStart" : 0,
                                    "mediaDuration" : 254,
                                    "scalar" : 1,
                                    "metadata" : {
                                      "WinSubProjectDisplayName" : "",
                                      "clipSpeedAttribute" : false
                                    },
                                    "animationTracks" : {

                                    }
                                  }
                                ],
                                "transitions" : [
                                  {
                                    "name" : "Fade",
                                    "duration" : 60,
                                    "trivial" : false,
                                    "reverse" : false,
                                    "useAudioPreRoll" : false,
                                    "useVisualPreRoll" : true,
                                    "leftMedia" : 503
                                  }
                                ],
                                  "ident" : "",
                                  "audioMuted" : false,
                                  "videoHidden" : false,
                                  "magnetic" : false,
                                  "metadata" : {
                                    "IsLocked" : "False",
                                    "WinTrackHeight" : "0"
                                  }
                              },
                              {
                                "trackIndex" : 4,
                                "medias" : [
                                  {
                                    "id" : 504,
                                    "_type" : "Callout",
                                    "def" : {
                                      "kind" : "remix",
                                      "shape" : "shape-ellipse",
                                      "style" : "bold",
                                      "fill-color-blue" : {
                                        "type" : "double",
                                        "defaultValue" : 0.235294117647059,
                                        "keyframes" : [
                                          {
                                            "endTime" : 42,
                                            "time" : 0,
                                            "value" : 0.235294117647059,
                                            "duration" : 42
                                          },
                                          {
                                            "endTime" : 50,
                                            "time" : 42,
                                            "value" : 0.235294117647059,
                                            "duration" : 8
                                          }
                                        ]
                                      },
                                      "fill-color-green" : {
                                        "type" : "double",
                                        "defaultValue" : 0.298039215686275,
                                        "keyframes" : [
                                          {
                                            "endTime" : 42,
                                            "time" : 0,
                                            "value" : 0.298039215686275,
                                            "duration" : 42
                                          },
                                          {
                                            "endTime" : 50,
                                            "time" : 42,
                                            "value" : 0.298039215686275,
                                            "duration" : 8
                                          }
                                        ]
                                      },
                                      "fill-color-opacity" : 1.0,
                                      "fill-color-red" : {
                                        "type" : "double",
                                        "defaultValue" : 0.905882352941176,
                                        "keyframes" : [
                                          {
                                            "endTime" : 42,
                                            "time" : 0,
                                            "value" : 0.905882352941176,
                                            "duration" : 42
                                          },
                                          {
                                            "endTime" : 50,
                                            "time" : 42,
                                            "value" : 0.905882352941176,
                                            "duration" : 8
                                          }
                                        ]
                                      },
                                      "height" : {
                                        "type" : "double",
                                        "defaultValue" : 12.000000000389,
                                        "keyframes" : [
                                          {
                                            "endTime" : 42,
                                            "time" : 0,
                                            "value" : 673.920000000227,
                                            "duration" : 42
                                          },
                                          {
                                            "endTime" : 50,
                                            "time" : 42,
                                            "value" : 800.000000000197,
                                            "duration" : 8
                                          }
                                        ]
                                      },
                                      "stroke-color-blue" : {
                                        "type" : "double",
                                        "defaultValue" : 0.777079198166942,
                                        "keyframes" : [
                                          {
                                            "endTime" : 42,
                                            "time" : 0,
                                            "value" : 0.777079198166942,
                                            "duration" : 42
                                          },
                                          {
                                            "endTime" : 50,
                                            "time" : 42,
                                            "value" : 0.777079198166942,
                                            "duration" : 8
                                          }
                                        ]
                                      },
                                      "stroke-color-green" : {
                                        "type" : "double",
                                        "defaultValue" : 0.93090625,
                                        "keyframes" : [
                                          {
                                            "endTime" : 42,
                                            "time" : 0,
                                            "value" : 0.93090625,
                                            "duration" : 42
                                          },
                                          {
                                            "endTime" : 50,
                                            "time" : 42,
                                            "value" : 0.93090625,
                                            "duration" : 8
                                          }
                                        ]
                                      },
                                      "stroke-color-opacity" : {
                                        "type" : "double",
                                        "defaultValue" : 1.0,
                                        "keyframes" : [
                                          {
                                            "endTime" : 42,
                                            "time" : 0,
                                            "value" : 1.0,
                                            "duration" : 42
                                          },
                                          {
                                            "endTime" : 50,
                                            "time" : 42,
                                            "value" : 0.0,
                                            "duration" : 8
                                          }
                                        ]
                                      },
                                      "stroke-color-red" : {
                                        "type" : "double",
                                        "defaultValue" : 0.113700037136884,
                                        "keyframes" : [
                                          {
                                            "endTime" : 42,
                                            "time" : 0,
                                            "value" : 0.113700037136884,
                                            "duration" : 42
                                          },
                                          {
                                            "endTime" : 50,
                                            "time" : 42,
                                            "value" : 0.113700037136884,
                                            "duration" : 8
                                          }
                                        ]
                                      },
                                      "stroke-width" : {
                                        "type" : "double",
                                        "defaultValue" : 3.2972282606003,
                                        "keyframes" : [
                                          {
                                            "endTime" : 42,
                                            "time" : 0,
                                            "value" : 13.2523923911482,
                                            "duration" : 42
                                          },
                                          {
                                            "endTime" : 50,
                                            "time" : 42,
                                            "value" : 15.1486141303002,
                                            "duration" : 8
                                          }
                                        ]
                                      },
                                      "width" : {
                                        "type" : "double",
                                        "defaultValue" : 12.000000000389,
                                        "keyframes" : [
                                          {
                                            "endTime" : 42,
                                            "time" : 0,
                                            "value" : 673.920000000227,
                                            "duration" : 42
                                          },
                                          {
                                            "endTime" : 50,
                                            "time" : 42,
                                            "value" : 800.000000000197,
                                            "duration" : 8
                                          }
                                        ]
                                      },
                                      "horizontal-alignment" : "center",
                                      "stroke-style" : "solid",
                                      "vertical-alignment" : "center",
                                      "textAttributes" : {
                                        "type" : "textAttributeList",
                                        "keyframes" : [
                                          {
                                            "endTime" : 0,
                                            "time" : 0,
                                            "value" : null,
                                            "duration" : 0
                                          }
                                        ]
                                      }
                                    },
                                    "attributes" : {
                                      "autoRotateText" : true
                                    },
                                    "parameters" : {
                                      "translation0" : {
                                        "type" : "double",
                                        "defaultValue" : 1.59104729391402e-10,
                                        "keyframes" : [
                                          {
                                            "endTime" : 42,
                                            "time" : 0,
                                            "value" : 1.59104729391402e-10,
                                            "duration" : 42
                                          },
                                          {
                                            "endTime" : 50,
                                            "time" : 42,
                                            "value" : 1.59104729391402e-10,
                                            "duration" : 8
                                          }
                                        ]
                                      },
                                      "translation1" : {
                                        "type" : "double",
                                        "defaultValue" : -6.55546728012268e-11,
                                        "keyframes" : [
                                          {
                                            "endTime" : 42,
                                            "time" : 0,
                                            "value" : -6.55546728012268e-11,
                                            "duration" : 42
                                          },
                                          {
                                            "endTime" : 50,
                                            "time" : 42,
                                            "value" : -6.55546728012268e-11,
                                            "duration" : 8
                                          }
                                        ]
                                      }
                                    },
                                    "effects" : [

                                    ],
                                    "start" : 70,
                                    "duration" : 60,
                                    "mediaStart" : 0,
                                    "mediaDuration" : 60,
                                    "scalar" : 1,
                                    "metadata" : {
                                      "WinSubProjectDisplayName" : "",
                                      "clipSpeedAttribute" : false
                                    },
                                    "animationTracks" : {
                                      "visual" : [
                                        {
                                          "endTime" : 42,
                                          "duration" : 42,
                                          "range" : [ 0, 42]
                                        },
                                        {
                                          "endTime" : 50,
                                          "duration" : 8,
                                          "range" : [ 42, 8]
                                        }
                                      ]
                                    }
                                  },
                                  {
                                    "id" : 505,
                                    "_type" : "Callout",
                                    "def" : {
                                      "kind" : "remix",
                                      "shape" : "shape-rectangle",
                                      "style" : "urban",
                                      "fill-color-blue" : {
                                        "type" : "double",
                                        "defaultValue" : 1.0,
                                        "keyframes" : [
                                          {
                                            "endTime" : 20,
                                            "time" : 0,
                                            "value" : 1.0,
                                            "duration" : 20
                                          }
                                        ]
                                      },
                                      "fill-color-green" : {
                                        "type" : "double",
                                        "defaultValue" : 1.0,
                                        "keyframes" : [
                                          {
                                            "endTime" : 20,
                                            "time" : 0,
                                            "value" : 1.0,
                                            "duration" : 20
                                          }
                                        ]
                                      },
                                      "fill-color-opacity" : 1.0,
                                      "fill-color-red" : {
                                        "type" : "double",
                                        "defaultValue" : 1.0,
                                        "keyframes" : [
                                          {
                                            "endTime" : 20,
                                            "time" : 0,
                                            "value" : 1.0,
                                            "duration" : 20
                                          }
                                        ]
                                      },
                                      "height" : {
                                        "type" : "double",
                                        "defaultValue" : 6.861561236135,
                                        "keyframes" : [
                                          {
                                            "endTime" : 20,
                                            "time" : 0,
                                            "value" : 1314.7048957085,
                                            "duration" : 20
                                          }
                                        ]
                                      },
                                      "stroke-color-blue" : 1.0,
                                      "stroke-color-green" : 1.0,
                                      "stroke-color-opacity" : 1.0,
                                      "stroke-color-red" : 1.0,
                                      "stroke-width" : 0.0,
                                      "width" : 7.99999999997041,
                                      "horizontal-alignment" : "center",
                                      "stroke-style" : "solid",
                                      "vertical-alignment" : "center",
                                      "textAttributes" : {
                                        "type" : "textAttributeList",
                                        "keyframes" : [
                                          {
                                            "endTime" : 0,
                                            "time" : 0,
                                            "value" : null,
                                            "duration" : 0
                                          }
                                        ]
                                      }
                                    },
                                    "attributes" : {
                                      "autoRotateText" : true
                                    },
                                    "parameters" : {
                                      "translation0" : {
                                        "type" : "double",
                                        "defaultValue" : -1.00115471468598e-11,
                                        "keyframes" : [
                                          {
                                            "endTime" : 20,
                                            "time" : 0,
                                            "value" : -1.00115471468598e-11,
                                            "duration" : 20
                                          }
                                        ]
                                      },
                                      "translation1" : {
                                        "type" : "double",
                                        "defaultValue" : -3.00737212910462e-12,
                                        "keyframes" : [
                                          {
                                            "endTime" : 20,
                                            "time" : 0,
                                            "value" : -3.00737212910462e-12,
                                            "duration" : 20
                                          }
                                        ]
                                      },
                                      "rotation2" : {
                                        "type" : "double",
                                        "defaultValue" : -0.523598775598299,
                                        "keyframes" : [
                                          {
                                            "endTime" : 20,
                                            "time" : 0,
                                            "value" : -0.523598775598299,
                                            "duration" : 20
                                          }
                                        ]
                                      }
                                    },
                                    "effects" : [

                                    ],
                                    "start" : 130,
                                    "duration" : 22,
                                    "mediaStart" : 0,
                                    "mediaDuration" : 22,
                                    "scalar" : 1,
                                    "metadata" : {
                                      "WinSubProjectDisplayName" : "",
                                      "clipSpeedAttribute" : false
                                    },
                                    "animationTracks" : {
                                      "visual" : [
                                        {
                                          "endTime" : 20,
                                          "duration" : 20,
                                          "range" : [ 0, 20]
                                        }
                                      ]
                                    }
                                  },
                                  {
                                    "id" : 506,
                                    "_type" : "Callout",
                                    "def" : {
                                      "kind" : "remix",
                                      "shape" : "shape-rectangle",
                                      "style" : "urban",
                                      "fill-color-blue" : {
                                        "type" : "double",
                                        "defaultValue" : 1.0,
                                        "keyframes" : [
                                          {
                                            "endTime" : 20,
                                            "time" : 0,
                                            "value" : 1.0,
                                            "duration" : 20
                                          },
                                          {
                                            "endTime" : 66,
                                            "time" : 38,
                                            "value" : 1.0,
                                            "duration" : 28
                                          }
                                        ]
                                      },
                                      "fill-color-green" : {
                                        "type" : "double",
                                        "defaultValue" : 1.0,
                                        "keyframes" : [
                                          {
                                            "endTime" : 20,
                                            "time" : 0,
                                            "value" : 1.0,
                                            "duration" : 20
                                          },
                                          {
                                            "endTime" : 66,
                                            "time" : 38,
                                            "value" : 1.0,
                                            "duration" : 28
                                          }
                                        ]
                                      },
                                      "fill-color-opacity" : 1.0,
                                      "fill-color-red" : {
                                        "type" : "double",
                                        "defaultValue" : 1.0,
                                        "keyframes" : [
                                          {
                                            "endTime" : 20,
                                            "time" : 0,
                                            "value" : 1.0,
                                            "duration" : 20
                                          },
                                          {
                                            "endTime" : 66,
                                            "time" : 38,
                                            "value" : 1.0,
                                            "duration" : 28
                                          }
                                        ]
                                      },
                                      "height" : {
                                        "type" : "double",
                                        "defaultValue" : 6.861561236135,
                                        "keyframes" : [
                                          {
                                            "endTime" : 20,
                                            "time" : 0,
                                            "value" : 1314.7048957085,
                                            "duration" : 20
                                          }
                                        ]
                                      },
                                      "stroke-color-blue" : 1.0,
                                      "stroke-color-green" : 1.0,
                                      "stroke-color-opacity" : 1.0,
                                      "stroke-color-red" : 1.0,
                                      "stroke-width" : 0.0,
                                      "width" : 7.99999999997041,
                                      "horizontal-alignment" : "center",
                                      "stroke-style" : "solid",
                                      "vertical-alignment" : "center",
                                      "textAttributes" : {
                                        "type" : "textAttributeList",
                                        "keyframes" : [
                                          {
                                            "endTime" : 0,
                                            "time" : 0,
                                            "value" : null,
                                            "duration" : 0
                                          }
                                        ]
                                      }
                                    },
                                    "attributes" : {
                                      "autoRotateText" : true
                                    },
                                    "parameters" : {
                                      "translation0" : {
                                        "type" : "double",
                                        "defaultValue" : -1.00115471468598e-11,
                                        "keyframes" : [
                                          {
                                            "endTime" : 66,
                                            "time" : 38,
                                            "value" : -1300.00000000008,
                                            "duration" : 28
                                          }
                                        ]
                                      },
                                      "translation1" : {
                                        "type" : "double",
                                        "defaultValue" : -3.00737212910462e-12,
                                        "keyframes" : [
                                          {
                                            "endTime" : 20,
                                            "time" : 0,
                                            "value" : -3.00737212910462e-12,
                                            "duration" : 20
                                          },
                                          {
                                            "endTime" : 66,
                                            "time" : 38,
                                            "value" : -3.00737212910462e-12,
                                            "duration" : 28
                                          }
                                        ]
                                      },
                                      "rotation2" : {
                                        "type" : "double",
                                        "defaultValue" : -0.523598775598299,
                                        "keyframes" : [
                                          {
                                            "endTime" : 20,
                                            "time" : 0,
                                            "value" : -0.523598775598299,
                                            "duration" : 20
                                          },
                                          {
                                            "endTime" : 66,
                                            "time" : 38,
                                            "value" : -0.523598775598299,
                                            "duration" : 28
                                          }
                                        ]
                                      }
                                    },
                                    "effects" : [

                                    ],
                                    "start" : 152,
                                    "duration" : 48,
                                    "mediaStart" : 22,
                                    "mediaDuration" : 48,
                                    "scalar" : 1,
                                    "metadata" : {
                                      "WinSubProjectDisplayName" : "",
                                      "clipSpeedAttribute" : false
                                    },
                                    "animationTracks" : {
                                      "visual" : [
                                        {
                                          "endTime" : 20,
                                          "duration" : 20,
                                          "range" : [ 0, 20]
                                        },
                                        {
                                          "endTime" : 66,
                                          "duration" : 28,
                                          "range" : [ 38, 28],
                                          "interp" : "linr"
                                        }
                                      ]
                                    }
                                  }
                                ],
                                  "ident" : "",
                                  "audioMuted" : false,
                                  "videoHidden" : false,
                                  "magnetic" : false,
                                  "metadata" : {
                                    "IsLocked" : "False",
                                    "WinTrackHeight" : "0"
                                  }
                              },
                              {
                                "trackIndex" : 5,
                                "medias" : [
                                  {
                                    "id" : 507,
                                    "_type" : "Callout",
                                    "def" : {
                                      "kind" : "remix",
                                      "shape" : "shape-rectangle",
                                      "style" : "urban",
                                      "fill-color-blue" : {
                                        "type" : "double",
                                        "defaultValue" : 1.0,
                                        "keyframes" : [
                                          {
                                            "endTime" : 20,
                                            "time" : 0,
                                            "value" : 1.0,
                                            "duration" : 20
                                          },
                                          {
                                            "endTime" : 66,
                                            "time" : 38,
                                            "value" : 1.0,
                                            "duration" : 28
                                          }
                                        ]
                                      },
                                      "fill-color-green" : {
                                        "type" : "double",
                                        "defaultValue" : 1.0,
                                        "keyframes" : [
                                          {
                                            "endTime" : 20,
                                            "time" : 0,
                                            "value" : 1.0,
                                            "duration" : 20
                                          },
                                          {
                                            "endTime" : 66,
                                            "time" : 38,
                                            "value" : 1.0,
                                            "duration" : 28
                                          }
                                        ]
                                      },
                                      "fill-color-opacity" : 1.0,
                                      "fill-color-red" : {
                                        "type" : "double",
                                        "defaultValue" : 1.0,
                                        "keyframes" : [
                                          {
                                            "endTime" : 20,
                                            "time" : 0,
                                            "value" : 1.0,
                                            "duration" : 20
                                          },
                                          {
                                            "endTime" : 66,
                                            "time" : 38,
                                            "value" : 1.0,
                                            "duration" : 28
                                          }
                                        ]
                                      },
                                      "height" : {
                                        "type" : "double",
                                        "defaultValue" : 6.861561236135,
                                        "keyframes" : [
                                          {
                                            "endTime" : 20,
                                            "time" : 0,
                                            "value" : 1314.7048957085,
                                            "duration" : 20
                                          }
                                        ]
                                      },
                                      "stroke-color-blue" : 1.0,
                                      "stroke-color-green" : 1.0,
                                      "stroke-color-opacity" : 1.0,
                                      "stroke-color-red" : 1.0,
                                      "stroke-width" : 0.0,
                                      "width" : 7.99999999997041,
                                      "horizontal-alignment" : "center",
                                      "stroke-style" : "solid",
                                      "vertical-alignment" : "center",
                                      "textAttributes" : {
                                        "type" : "textAttributeList",
                                        "keyframes" : [
                                          {
                                            "endTime" : 0,
                                            "time" : 0,
                                            "value" : null,
                                            "duration" : 0
                                          }
                                        ]
                                      }
                                    },
                                    "attributes" : {
                                      "autoRotateText" : true
                                    },
                                    "parameters" : {
                                      "translation0" : {
                                        "type" : "double",
                                        "defaultValue" : -1.00115471468598e-11,
                                        "keyframes" : [
                                          {
                                            "endTime" : 66,
                                            "time" : 38,
                                            "value" : 1302.00000000006,
                                            "duration" : 28
                                          }
                                        ]
                                      },
                                      "translation1" : {
                                        "type" : "double",
                                        "defaultValue" : -3.00737212910462e-12,
                                        "keyframes" : [
                                          {
                                            "endTime" : 20,
                                            "time" : 0,
                                            "value" : -3.00737212910462e-12,
                                            "duration" : 20
                                          },
                                          {
                                            "endTime" : 66,
                                            "time" : 38,
                                            "value" : -3.00737212910462e-12,
                                            "duration" : 28
                                          }
                                        ]
                                      },
                                      "rotation2" : {
                                        "type" : "double",
                                        "defaultValue" : -0.523598775598299,
                                        "keyframes" : [
                                          {
                                            "endTime" : 20,
                                            "time" : 0,
                                            "value" : -0.523598775598299,
                                            "duration" : 20
                                          },
                                          {
                                            "endTime" : 66,
                                            "time" : 38,
                                            "value" : -0.523598775598299,
                                            "duration" : 28
                                          }
                                        ]
                                      }
                                    },
                                    "effects" : [

                                    ],
                                    "start" : 152,
                                    "duration" : 48,
                                    "mediaStart" : 22,
                                    "mediaDuration" : 48,
                                    "scalar" : 1,
                                    "metadata" : {
                                      "WinSubProjectDisplayName" : "",
                                      "clipSpeedAttribute" : false
                                    },
                                    "animationTracks" : {
                                      "visual" : [
                                        {
                                          "endTime" : 20,
                                          "duration" : 20,
                                          "range" : [ 0, 20]
                                        },
                                        {
                                          "endTime" : 66,
                                          "duration" : 28,
                                          "range" : [ 38, 28],
                                          "interp" : "linr"
                                        }
                                      ]
                                    }
                                  }
                                ],
                                  "ident" : "",
                                  "audioMuted" : false,
                                  "videoHidden" : false,
                                  "magnetic" : false,
                                  "metadata" : {
                                    "IsLocked" : "False",
                                    "WinTrackHeight" : "0"
                                  }
                              },
                              {
                                "trackIndex" : 6,
                                "medias" : [
                                  {
                                    "id" : 508,
                                    "_type" : "IMFile",
                                    "src" : 55,
                                    "trackNumber" : 0,
                                    "trimStartSum" : 0,
                                    "attributes" : {
                                      "ident" : "Lens-Shadow-001"
                                    },
                                    "parameters" : {
                                      "opacity" : 0.5
                                    },
                                    "effects" : [

                                    ],
                                    "start" : 0,
                                    "duration" : 458,
                                    "mediaStart" : 0,
                                    "mediaDuration" : 458,
                                    "scalar" : 1,
                                    "metadata" : {
                                      "WinSubProjectDisplayName" : "",
                                      "clipSpeedAttribute" : false,
                                      "default-translation0" : 0.0
                                    },
                                    "animationTracks" : {

                                    }
                                  }
                                ],
                                "transitions" : [
                                  {
                                    "name" : "Fade",
                                    "duration" : 60,
                                    "trivial" : false,
                                    "reverse" : false,
                                    "useAudioPreRoll" : false,
                                    "useVisualPreRoll" : true,
                                    "leftMedia" : 508
                                  }
                                ],
                                  "ident" : "",
                                  "audioMuted" : false,
                                  "videoHidden" : false,
                                  "magnetic" : false,
                                  "metadata" : {
                                    "IsLocked" : "False",
                                    "WinTrackHeight" : "0"
                                  }
                              }
                            ],
                            "attributes" : {
                              "ident" : "Shapes",
                              "gain" : 1.0,
                              "mixToMono" : false
                            },
                            "effects" : [

                            ],
                            "start" : 0,
                            "duration" : 458,
                            "mediaStart" : 0.0,
                            "mediaDuration" : 458.0,
                            "scalar" : 1,
                            "metadata" : {
                              "IsGroupExpanded" : "False",
                              "WinSubProjectDisplayName" : "Shapes",
                              "clipSpeedAttribute" : false,
                              "default-translation0" : -1.45519152283669e-10,
                              "default-translation1" : -1.32331479107961e-10,
                              "effectApplied" : "none",
                              "isOpen" : false
                            },
                            "animationTracks" : {

                            }
                          }
                        ],
                          "ident" : "",
                          "audioMuted" : false,
                          "videoHidden" : false,
                          "magnetic" : false,
                          "metadata" : {
                            "IsLocked" : "False",
                            "WinTrackHeight" : "0"
                          }
                      },
                      {
                        "trackIndex" : 1,
                        "medias" : [
                          {
                            "id" : 509,
                            "_type" : "Callout",
                            "def" : {
                              "kind" : "remix",
                              "shape" : "text-rectangle",
                              "style" : "basic",
                              "fill-color-blue" : 0.235294117647059,
                              "fill-color-green" : 0.298039215686275,
                              "fill-color-opacity" : 1.0,
                              "fill-color-red" : 0.901960784313726,
                              "height" : 83.9999999998924,
                              "line-spacing" : 0.0,
                              "stroke-color-blue" : 0.777079198166942,
                              "stroke-color-green" : 0.93090625,
                              "stroke-color-opacity" : 1.0,
                              "stroke-color-red" : 0.113700037136884,
                              "stroke-width" : 0.0,
                              "width" : 732.000000000374,
                              "word-wrap" : 1.0,
                              "horizontal-alignment" : "center",
                              "resize-behavior" : "resizeText",
                              "stroke-style" : "solid",
                              "text" : "ONE-OFF CODER",
                              "vertical-alignment" : "center",
                              "font" : {
                                "color-blue" : 0.266666666666667,
                                "color-green" : 0.231372549019608,
                                "color-opacity" : 1.0,
                                "color-red" : 0.184313725490196,
                                "size" : 64.0,
                                "tracking" : 0.0,
                                "name" : "Montserrat",
                                "weight" : "Regular"
                              },
                              "textAttributes" : {
                                "type" : "textAttributeList",
                                "keyframes" : [
                                  {
                                    "endTime" : 0,
                                    "time" : 0,
                                    "value" : [{"name":"fontItalic","rangeEnd":13,"rangeStart":0,"value":0,"valueType":"int"},{"name":"fontName","rangeEnd":13,"rangeStart":0,"value":"Montserrat","valueType":"string"},{"name":"fgColor","rangeEnd":13,"rangeStart":0,"value":"(255,255,255,255)","valueType":"color"},{"name":"kerning","rangeEnd":13,"rangeStart":0,"value":0,"valueType":"double"},{"name":"underline","rangeEnd":13,"rangeStart":0,"value":0,"valueType":"int"},{"name":"fontWeight","rangeEnd":13,"rangeStart":0,"value":700,"valueType":"int"},{"name":"strikethrough","rangeEnd":13,"rangeStart":0,"value":0,"valueType":"int"},{"name":"fontSize","rangeEnd":13,"rangeStart":0,"value":64,"valueType":"double"}],
                                    "duration" : 0
                                  }
                                ]
                              }
                            },
                            "attributes" : {
                              "autoRotateText" : true
                            },
                            "parameters" : {
                              "translation0" : -77.6666666666611,
                              "translation1" : 274.333333333024
                            },
                            "effects" : [

                            ],
                            "start" : 182,
                            "duration" : 276,
                            "mediaStart" : 0,
                            "mediaDuration" : 276,
                            "scalar" : 1,
                            "metadata" : {
                              "WinSubProjectDisplayName" : "",
                              "clipSpeedAttribute" : false,
                              "default-HAlign" : "left",
                              "default-LineSpace" : 0.0,
                              "default-VAlign" : "center",
                              "default-text-attributes" : "[{\"name\":\"fontName\",\"rangeEnd\":8,\"rangeStart\":0,\"value\":\"Montserrat\",\"valueType\":\"string\"},{\"name\":\"underline\",\"rangeEnd\":8,\"rangeStart\":0,\"value\":0,\"valueType\":\"int\"},{\"name\":\"fontItalic\",\"rangeEnd\":8,\"rangeStart\":0,\"value\":0,\"valueType\":\"int\"},{\"name\":\"fgColor\",\"rangeEnd\":8,\"rangeStart\":0,\"value\":\"(255,255,255,255)\",\"valueType\":\"color\"},{\"name\":\"fontSize\",\"rangeEnd\":8,\"rangeStart\":0,\"value\":64,\"valueType\":\"double\"},{\"name\":\"fontWeight\",\"rangeEnd\":8,\"rangeStart\":0,\"value\":700,\"valueType\":\"int\"},{\"name\":\"strikethrough\",\"rangeEnd\":8,\"rangeStart\":0,\"value\":0,\"valueType\":\"int\"}]",
                              "default-translation0" : -80.9999999997795,
                              "default-translation1" : 145.999999999686,
                              "effectApplied" : "none"
                            },
                            "animationTracks" : {

                            }
                          }
                        ],
                        "transitions" : [
                          {
                            "name" : "Fade",
                            "duration" : 60,
                            "trivial" : false,
                            "reverse" : false,
                            "useAudioPreRoll" : false,
                            "useVisualPreRoll" : true,
                            "leftMedia" : 509
                          }
                        ],
                          "ident" : "",
                          "audioMuted" : false,
                          "videoHidden" : false,
                          "magnetic" : false,
                          "metadata" : {
                            "IsLocked" : "False",
                            "WinTrackHeight" : "6.42390648856001e-313"
                          }
                      },
                      {
                        "trackIndex" : 2,
                        "medias" : [
                          {
                            "id" : 510,
                            "_type" : "Callout",
                            "def" : {
                              "kind" : "remix",
                              "shape" : "text",
                              "style" : "basic",
                              "height" : 72.0000000001311,
                              "line-spacing" : 0.0,
                              "width" : 1153.09090909266,
                              "word-wrap" : 1.0,
                              "horizontal-alignment" : "center",
                              "resize-behavior" : "resizeText",
                              "text" : "scratch.oneoffcoder.com",
                              "vertical-alignment" : "center",
                              "font" : {
                                "color-blue" : 1.0,
                                "color-green" : 1.0,
                                "color-red" : 1.0,
                                "size" : 96.0,
                                "tracking" : 0.0,
                                "name" : "Montserrat",
                                "weight" : "Regular"
                              },
                              "textAttributes" : {
                                "type" : "textAttributeList",
                                "keyframes" : [
                                  {
                                    "endTime" : 0,
                                    "time" : 0,
                                    "value" : [{"name":"underline","rangeEnd":23,"rangeStart":0,"value":0,"valueType":"int"},{"name":"fontName","rangeEnd":23,"rangeStart":0,"value":"Montserrat","valueType":"string"},{"name":"fontItalic","rangeEnd":23,"rangeStart":0,"value":0,"valueType":"int"},{"name":"strikethrough","rangeEnd":23,"rangeStart":0,"value":0,"valueType":"int"},{"name":"fontSize","rangeEnd":23,"rangeStart":0,"value":51,"valueType":"double"},{"name":"kerning","rangeEnd":23,"rangeStart":0,"value":0,"valueType":"double"},{"name":"fgColor","rangeEnd":23,"rangeStart":0,"value":"(255,255,255,255)","valueType":"color"},{"name":"fontWeight","rangeEnd":23,"rangeStart":0,"value":400,"valueType":"int"}],
                                    "duration" : 0
                                  }
                                ]
                              }
                            },
                            "attributes" : {
                              "autoRotateText" : true
                            },
                            "parameters" : {
                              "translation0" : 0.562224614777201,
                              "translation1" : -73.0000000002082
                            },
                            "effects" : [
                                {
                                  "_type" : "GenericBehaviorEffect",
                                  "effectName" : "pulsating",
                                  "start" : 0,
                                  "duration" : 220                                ,
                                  "in" : {
                                    "attributes" : {
                                      "name" : "grow",
                                      "type" : 1,
                                      "characterOrder" : 6,
                                      "offsetBetweenCharacters" : 2,
                                      "suggestedDurationPerCharacter" : 36,
                                      "overlapProportion" : "3/4",
                                      "movement" : 30,
                                      "springDamping" : 5.0,
                                      "springStiffness" : 50.0,
                                      "bounceBounciness" : 0.45
                                    }
                                  
                                  },
                                  "center" : {
                                    "attributes" : {
                                      "name" : "none",
                                      "type" : 1,
                                      "characterOrder" : 6,
                                      "offsetBetweenCharacters" : 0,
                                      "secondsPerLoop" : 1,
                                      "numberOfLoops" : -1,
                                      "delayBetweenLoops" : 0,
                                      "offsetBetweenCharacters" : 0
                                    }
                                  
                                  },
                                  "out" : {
                                    "attributes" : {
                                      "name" : "none",
                                      "type" : 1,
                                      "characterOrder" : 6,
                                      "offsetBetweenCharacters" : 0,
                                      "suggestedDurationPerCharacter" : 0,
                                      "overlapProportion" : 0,
                                      "movement" : -1,
                                      "springDamping" : 5.0,
                                      "springStiffness" : 50.0,
                                      "bounceBounciness" : 0.45
                                    }
                                  
                                  }
                                }
                            ],
                            "start" : 238,
                            "duration" : 220,
                            "mediaStart" : 0,
                            "mediaDuration" : 220,
                            "scalar" : 1,
                            "metadata" : {
                              "WinSubProjectDisplayName" : "",
                              "clipSpeedAttribute" : false,
                              "default-HAlign" : "center",
                              "default-LineSpace" : 0.0,
                              "default-VAlign" : "center",
                              "default-text-attributes" : "[{\"name\":\"fontName\",\"rangeEnd\":17,\"rangeStart\":0,\"value\":\"Montserrat\",\"valueType\":\"string\"},{\"name\":\"strikethrough\",\"rangeEnd\":17,\"rangeStart\":0,\"value\":0,\"valueType\":\"int\"},{\"name\":\"fgColor\",\"rangeEnd\":17,\"rangeStart\":0,\"value\":\"(255,255,255,255)\",\"valueType\":\"color\"},{\"name\":\"fontItalic\",\"rangeEnd\":17,\"rangeStart\":0,\"value\":0,\"valueType\":\"int\"},{\"name\":\"fontSize\",\"rangeEnd\":17,\"rangeStart\":0,\"value\":51,\"valueType\":\"double\"},{\"name\":\"fontWeight\",\"rangeEnd\":17,\"rangeStart\":0,\"value\":100,\"valueType\":\"int\"},{\"name\":\"underline\",\"rangeEnd\":17,\"rangeStart\":0,\"value\":0,\"valueType\":\"int\"}]",
                              "default-translation0" : 0.454545453540789,
                              "default-translation1" : -123.000000000281,
                              "effectApplied" : "none"
                            },
                            "animationTracks" : {

                            }
                          }
                        ],
                        "transitions" : [
                          {
                            "name" : "Fade",
                            "duration" : 60,
                            "trivial" : false,
                            "reverse" : false,
                            "useAudioPreRoll" : false,
                            "useVisualPreRoll" : true,
                            "leftMedia" : 510
                          }
                        ],
                          "ident" : "",
                          "audioMuted" : false,
                          "videoHidden" : false,
                          "magnetic" : false,
                          "metadata" : {
                            "IsLocked" : "False",
                            "WinTrackHeight" : "1.03347310004105e-311"
                          }
                      },
                      {
                        "trackIndex" : 3,
                        "medias" : [
                          {
                            "id" : 511,
                            "_type" : "Callout",
                            "def" : {
                              "kind" : "remix",
                              "shape" : "text",
                              "style" : "basic",
                              "height" : 187.999999999995,
                              "line-spacing" : 0.0,
                              "width" : 1920.21538461358,
                              "word-wrap" : 1.0,
                              "horizontal-alignment" : "center",
                              "resize-behavior" : "resizeText",
                              "text" : "Scratch Programming",
                              "vertical-alignment" : "center",
                              "font" : {
                                "color-blue" : 1.0,
                                "color-green" : 1.0,
                                "color-red" : 1.0,
                                "size" : 96.0,
                                "tracking" : 0.0,
                                "name" : "Montserrat",
                                "weight" : "Regular"
                              },
                              "textAttributes" : {
                                "type" : "textAttributeList",
                                "keyframes" : [
                                  {
                                    "endTime" : 0,
                                    "time" : 0,
                                    "value" : [{"name":"fontWeight","rangeEnd":19,"rangeStart":0,"value":400,"valueType":"int"},{"name":"strikethrough","rangeEnd":19,"rangeStart":0,"value":0,"valueType":"int"},{"name":"kerning","rangeEnd":19,"rangeStart":0,"value":0,"valueType":"double"},{"name":"underline","rangeEnd":19,"rangeStart":0,"value":0,"valueType":"int"},{"name":"fontName","rangeEnd":19,"rangeStart":0,"value":"Montserrat","valueType":"string"},{"name":"fontSize","rangeEnd":19,"rangeStart":0,"value":151,"valueType":"double"},{"name":"fontItalic","rangeEnd":19,"rangeStart":0,"value":0,"valueType":"int"},{"name":"fgColor","rangeEnd":19,"rangeStart":0,"value":"(255,255,255,255)","valueType":"color"}],
                                    "duration" : 0
                                  }
                                ]
                              }
                            },
                            "attributes" : {
                              "autoRotateText" : true
                            },
                            "parameters" : {
                              "translation0" : 0.499986854472157,
                              "translation1" : 93.9999999999489
                            },
                            "effects" : [
                                {
                                  "_type" : "GenericBehaviorEffect",
                                  "effectName" : "popUp",
                                  "start" : 4,
                                  "duration" : 282                                ,
                                  "in" : {
                                    "attributes" : {
                                      "name" : "hinge",
                                      "type" : 1,
                                      "characterOrder" : 6,
                                      "offsetBetweenCharacters" : 3,
                                      "suggestedDurationPerCharacter" : 147,
                                      "overlapProportion" : "1/3",
                                      "movement" : 30,
                                      "springDamping" : 5.0,
                                      "springStiffness" : 50.0,
                                      "bounceBounciness" : 0.45
                                    },
                                    "parameters" : {
                                      "direction" : {
                                        "type" : "int",
                                        "valueBounds" : {
                                          "minValue" : 0,
                                          "maxValue" : 3,
                                          "defaultValue" : 3
                                        },
                                        "uiHints" : {
                                          "userInterfaceType" : 2,
                                          "unitType" : 0
                                        },
                                        "keyframes" : [
                                          {
                                            "endTime" : 0,
                                            "time" : 0,
                                            "value" : 3,
                                            "duration" : 0
                                          }
                                        ]
                                      }
                                    }
                                  
                                  },
                                  "center" : {
                                    "attributes" : {
                                      "name" : "none",
                                      "type" : 1,
                                      "characterOrder" : 6,
                                      "offsetBetweenCharacters" : 0,
                                      "secondsPerLoop" : 1,
                                      "numberOfLoops" : -1,
                                      "delayBetweenLoops" : 0,
                                      "offsetBetweenCharacters" : 0
                                    }
                                  
                                  },
                                  "out" : {
                                    "attributes" : {
                                      "name" : "none",
                                      "type" : 1,
                                      "characterOrder" : 6,
                                      "offsetBetweenCharacters" : 0,
                                      "suggestedDurationPerCharacter" : 0,
                                      "overlapProportion" : 0,
                                      "movement" : -1,
                                      "springDamping" : 5.0,
                                      "springStiffness" : 50.0,
                                      "bounceBounciness" : 0.45
                                    }
                                  
                                  }
                                }
                            ],
                            "start" : 176,
                            "duration" : 282,
                            "mediaStart" : 4,
                            "mediaDuration" : 282,
                            "scalar" : 1,
                            "metadata" : {
                              "WinSubProjectDisplayName" : "",
                              "clipSpeedAttribute" : false,
                              "default-HAlign" : "center",
                              "default-LineSpace" : 0.0,
                              "default-VAlign" : "center",
                              "default-text-attributes" : "[{\"name\":\"fontSize\",\"rangeEnd\":9,\"rangeStart\":0,\"value\":151,\"valueType\":\"double\"},{\"name\":\"underline\",\"rangeEnd\":9,\"rangeStart\":0,\"value\":0,\"valueType\":\"int\"},{\"name\":\"fontWeight\",\"rangeEnd\":9,\"rangeStart\":0,\"value\":100,\"valueType\":\"int\"},{\"name\":\"strikethrough\",\"rangeEnd\":9,\"rangeStart\":0,\"value\":0,\"valueType\":\"int\"},{\"name\":\"fontItalic\",\"rangeEnd\":9,\"rangeStart\":0,\"value\":0,\"valueType\":\"int\"},{\"name\":\"fgColor\",\"rangeEnd\":9,\"rangeStart\":0,\"value\":\"(255,255,255,255)\",\"valueType\":\"color\"},{\"name\":\"fontName\",\"rangeEnd\":9,\"rangeStart\":0,\"value\":\"Montserrat\",\"valueType\":\"string\"}]",
                              "default-translation0" : 0.284641677673506,
                              "default-translation1" : 1.70459202308849e-11,
                              "effectApplied" : "none"
                            },
                            "animationTracks" : {

                            }
                          }
                        ],
                        "transitions" : [
                          {
                            "name" : "Fade",
                            "duration" : 60,
                            "trivial" : false,
                            "reverse" : false,
                            "useAudioPreRoll" : false,
                            "useVisualPreRoll" : true,
                            "leftMedia" : 511
                          }
                        ],
                          "ident" : "",
                          "audioMuted" : false,
                          "videoHidden" : false,
                          "magnetic" : false,
                          "metadata" : {
                            "IsLocked" : "False",
                            "WinTrackHeight" : "1.03347310004105e-311"
                          }
                      },
                      {
                        "trackIndex" : 4,
                        "medias" : [
                          {
                            "id" : 512,
                            "_type" : "Callout",
                            "def" : {
                              "kind" : "remix",
                              "shape" : "text",
                              "style" : "basic",
                              "height" : 72.0000000001311,
                              "line-spacing" : 0.0,
                              "width" : 1153.09090909266,
                              "word-wrap" : 1.0,
                              "horizontal-alignment" : "center",
                              "resize-behavior" : "resizeText",
                              "text" : "Thanks for watching!",
                              "vertical-alignment" : "center",
                              "font" : {
                                "color-blue" : 1.0,
                                "color-green" : 1.0,
                                "color-red" : 1.0,
                                "size" : 96.0,
                                "tracking" : 0.0,
                                "name" : "Montserrat",
                                "weight" : "Regular"
                              },
                              "textAttributes" : {
                                "type" : "textAttributeList",
                                "keyframes" : [
                                  {
                                    "endTime" : 0,
                                    "time" : 0,
                                    "value" : [{"name":"fgColor","rangeEnd":20,"rangeStart":0,"value":"(5,5,5,255)","valueType":"color"},{"name":"strikethrough","rangeEnd":20,"rangeStart":0,"value":0,"valueType":"int"},{"name":"fontWeight","rangeEnd":20,"rangeStart":0,"value":400,"valueType":"int"},{"name":"underline","rangeEnd":20,"rangeStart":0,"value":0,"valueType":"int"},{"name":"fontSize","rangeEnd":20,"rangeStart":0,"value":51,"valueType":"double"},{"name":"fontName","rangeEnd":20,"rangeStart":0,"value":"Montserrat","valueType":"string"},{"name":"fontItalic","rangeEnd":20,"rangeStart":0,"value":0,"valueType":"int"},{"name":"kerning","rangeEnd":20,"rangeStart":0,"value":0,"valueType":"double"}],
                                    "duration" : 0
                                  }
                                ]
                              }
                            },
                            "attributes" : {
                              "autoRotateText" : true
                            },
                            "parameters" : {
                              "translation0" : 0.562241259794602,
                              "translation1" : -190.000000000057
                            },
                            "effects" : [
                                {
                                  "_type" : "GenericBehaviorEffect",
                                  "effectName" : "pulsating",
                                  "start" : 0,
                                  "duration" : 220                                ,
                                  "in" : {
                                    "attributes" : {
                                      "name" : "grow",
                                      "type" : 1,
                                      "characterOrder" : 6,
                                      "offsetBetweenCharacters" : 2,
                                      "suggestedDurationPerCharacter" : 36,
                                      "overlapProportion" : "3/4",
                                      "movement" : 30,
                                      "springDamping" : 5.0,
                                      "springStiffness" : 50.0,
                                      "bounceBounciness" : 0.45
                                    }
                                  
                                  },
                                  "center" : {
                                    "attributes" : {
                                      "name" : "none",
                                      "type" : 1,
                                      "characterOrder" : 6,
                                      "offsetBetweenCharacters" : 0,
                                      "secondsPerLoop" : 1,
                                      "numberOfLoops" : -1,
                                      "delayBetweenLoops" : 0,
                                      "offsetBetweenCharacters" : 0
                                    }
                                  
                                  },
                                  "out" : {
                                    "attributes" : {
                                      "name" : "none",
                                      "type" : 1,
                                      "characterOrder" : 6,
                                      "offsetBetweenCharacters" : 0,
                                      "suggestedDurationPerCharacter" : 0,
                                      "overlapProportion" : 0,
                                      "movement" : -1,
                                      "springDamping" : 5.0,
                                      "springStiffness" : 50.0,
                                      "bounceBounciness" : 0.45
                                    }
                                  
                                  }
                                }
                            ],
                            "start" : 238,
                            "duration" : 220,
                            "mediaStart" : 0,
                            "mediaDuration" : 220,
                            "scalar" : 1,
                            "metadata" : {
                              "WinSubProjectDisplayName" : "",
                              "clipSpeedAttribute" : false,
                              "default-HAlign" : "center",
                              "default-LineSpace" : 0.0,
                              "default-VAlign" : "center",
                              "default-text-attributes" : "[{\"name\":\"fontName\",\"rangeEnd\":17,\"rangeStart\":0,\"value\":\"Montserrat\",\"valueType\":\"string\"},{\"name\":\"strikethrough\",\"rangeEnd\":17,\"rangeStart\":0,\"value\":0,\"valueType\":\"int\"},{\"name\":\"fgColor\",\"rangeEnd\":17,\"rangeStart\":0,\"value\":\"(255,255,255,255)\",\"valueType\":\"color\"},{\"name\":\"fontItalic\",\"rangeEnd\":17,\"rangeStart\":0,\"value\":0,\"valueType\":\"int\"},{\"name\":\"fontSize\",\"rangeEnd\":17,\"rangeStart\":0,\"value\":51,\"valueType\":\"double\"},{\"name\":\"fontWeight\",\"rangeEnd\":17,\"rangeStart\":0,\"value\":100,\"valueType\":\"int\"},{\"name\":\"underline\",\"rangeEnd\":17,\"rangeStart\":0,\"value\":0,\"valueType\":\"int\"}]",
                              "default-translation0" : 0.45454545339527,
                              "default-translation1" : -123.000000000413,
                              "effectApplied" : "none"
                            },
                            "animationTracks" : {

                            }
                          }
                        ],
                        "transitions" : [
                          {
                            "name" : "Fade",
                            "duration" : 60,
                            "trivial" : false,
                            "reverse" : false,
                            "useAudioPreRoll" : false,
                            "useVisualPreRoll" : true,
                            "leftMedia" : 512
                          }
                        ],
                          "ident" : "",
                          "audioMuted" : false,
                          "videoHidden" : false,
                          "magnetic" : false,
                          "metadata" : {
                            "IsLocked" : "False",
                            "WinTrackHeight" : "1.03347310004105e-311"
                          }
                      },
                      {
                        "trackIndex" : 5,
                        "medias" : [
                          {
                            "id" : 513,
                            "_type" : "Callout",
                            "def" : {
                              "kind" : "remix",
                              "shape" : "text",
                              "style" : "basic",
                              "height" : 72.0000000001311,
                              "line-spacing" : 0.0,
                              "width" : 1153.09090909266,
                              "word-wrap" : 1.0,
                              "horizontal-alignment" : "center",
                              "resize-behavior" : "resizeText",
                              "text" : "Like, Subscribe, Share",
                              "vertical-alignment" : "center",
                              "font" : {
                                "color-blue" : 1.0,
                                "color-green" : 1.0,
                                "color-red" : 1.0,
                                "size" : 96.0,
                                "tracking" : 0.0,
                                "name" : "Montserrat",
                                "weight" : "Regular"
                              },
                              "textAttributes" : {
                                "type" : "textAttributeList",
                                "keyframes" : [
                                  {
                                    "endTime" : 0,
                                    "time" : 0,
                                    "value" : [{"name":"underline","rangeEnd":22,"rangeStart":0,"value":0,"valueType":"int"},{"name":"fontSize","rangeEnd":22,"rangeStart":0,"value":51,"valueType":"double"},{"name":"kerning","rangeEnd":22,"rangeStart":0,"value":0,"valueType":"double"},{"name":"fontWeight","rangeEnd":22,"rangeStart":0,"value":400,"valueType":"int"},{"name":"fontName","rangeEnd":22,"rangeStart":0,"value":"Montserrat","valueType":"string"},{"name":"strikethrough","rangeEnd":22,"rangeStart":0,"value":0,"valueType":"int"},{"name":"fgColor","rangeEnd":22,"rangeStart":0,"value":"(255,255,255,255)","valueType":"color"},{"name":"fontItalic","rangeEnd":22,"rangeStart":0,"value":0,"valueType":"int"}],
                                    "duration" : 0
                                  }
                                ]
                              }
                            },
                            "attributes" : {
                              "autoRotateText" : true
                            },
                            "parameters" : {
                              "translation0" : 0.454545453399113,
                              "translation1" : -311.333333333501
                            },
                            "effects" : [
                                {
                                  "_type" : "GenericBehaviorEffect",
                                  "effectName" : "pulsating",
                                  "start" : 0,
                                  "duration" : 220                                ,
                                  "in" : {
                                    "attributes" : {
                                      "name" : "grow",
                                      "type" : 1,
                                      "characterOrder" : 6,
                                      "offsetBetweenCharacters" : 2,
                                      "suggestedDurationPerCharacter" : 36,
                                      "overlapProportion" : "3/4",
                                      "movement" : 30,
                                      "springDamping" : 5.0,
                                      "springStiffness" : 50.0,
                                      "bounceBounciness" : 0.45
                                    }
                                  
                                  },
                                  "center" : {
                                    "attributes" : {
                                      "name" : "none",
                                      "type" : 1,
                                      "characterOrder" : 6,
                                      "offsetBetweenCharacters" : 0,
                                      "secondsPerLoop" : 1,
                                      "numberOfLoops" : -1,
                                      "delayBetweenLoops" : 0,
                                      "offsetBetweenCharacters" : 0
                                    }
                                  
                                  },
                                  "out" : {
                                    "attributes" : {
                                      "name" : "none",
                                      "type" : 1,
                                      "characterOrder" : 6,
                                      "offsetBetweenCharacters" : 0,
                                      "suggestedDurationPerCharacter" : 0,
                                      "overlapProportion" : 0,
                                      "movement" : -1,
                                      "springDamping" : 5.0,
                                      "springStiffness" : 50.0,
                                      "bounceBounciness" : 0.45
                                    }
                                  
                                  }
                                }
                            ],
                            "start" : 238,
                            "duration" : 220,
                            "mediaStart" : 0,
                            "mediaDuration" : 220,
                            "scalar" : 1,
                            "metadata" : {
                              "WinSubProjectDisplayName" : "",
                              "clipSpeedAttribute" : false,
                              "default-HAlign" : "center",
                              "default-LineSpace" : 0.0,
                              "default-VAlign" : "center",
                              "default-text-attributes" : "[{\"name\":\"fontName\",\"rangeEnd\":17,\"rangeStart\":0,\"value\":\"Montserrat\",\"valueType\":\"string\"},{\"name\":\"strikethrough\",\"rangeEnd\":17,\"rangeStart\":0,\"value\":0,\"valueType\":\"int\"},{\"name\":\"fgColor\",\"rangeEnd\":17,\"rangeStart\":0,\"value\":\"(255,255,255,255)\",\"valueType\":\"color\"},{\"name\":\"fontItalic\",\"rangeEnd\":17,\"rangeStart\":0,\"value\":0,\"valueType\":\"int\"},{\"name\":\"fontSize\",\"rangeEnd\":17,\"rangeStart\":0,\"value\":51,\"valueType\":\"double\"},{\"name\":\"fontWeight\",\"rangeEnd\":17,\"rangeStart\":0,\"value\":100,\"valueType\":\"int\"},{\"name\":\"underline\",\"rangeEnd\":17,\"rangeStart\":0,\"value\":0,\"valueType\":\"int\"}]",
                              "default-translation0" : 0.45454545339527,
                              "default-translation1" : -123.000000000413,
                              "effectApplied" : "none"
                            },
                            "animationTracks" : {

                            }
                          }
                        ],
                        "transitions" : [
                          {
                            "name" : "Fade",
                            "duration" : 60,
                            "trivial" : false,
                            "reverse" : false,
                            "useAudioPreRoll" : false,
                            "useVisualPreRoll" : true,
                            "leftMedia" : 513
                          }
                        ],
                          "ident" : "",
                          "audioMuted" : false,
                          "videoHidden" : false,
                          "magnetic" : false,
                          "metadata" : {
                            "IsLocked" : "False",
                            "WinTrackHeight" : "1.03347310004105e-311"
                          }
                      }
                    ],
                    "attributes" : {
                      "ident" : "linewipe",
                      "gain" : 1.0,
                      "mixToMono" : false,
                      "assetProperties" : [
                        {
                          "type" : 0,
                          "name" : "Title",
                          "objects" : [ 511 ],
                          "themeMappings" :  {
                            "font-color" : "foreground-1",
                            "font-family" : "font-1"
                          }
                        },
                        {
                          "type" : 0,
                          "name" : "Subtitle 2",
                          "objects" : [ 510 ]
                        },
                        {
                          "type" : 1,
                          "name" : "Color 1",
                          "objects" : [ 498, 500, 501, 504 ]
                        },
                        {
                          "type" : 1,
                          "name" : "Color 2",
                          "objects" : [ 499, 502, 503 ]
                        }
                      ]
                    },
                    "effects" : [

                    ],
                    "start" : 56948,
                    "duration" : 458,
                    "mediaStart" : 0.0,
                    "mediaDuration" : 458.0,
                    "scalar" : 1,
                    "metadata" : {
                      "AppliedThemeId" : "",
                      "IsGroupExpanded" : "False",
                      "WinSubProjectDisplayName" : "",
                      "clipSpeedAttribute" : false,
                      "effectApplied" : "none",
                      "isOpen" : false
                    },
                    "animationTracks" : {

                    }
                  }
                ],
                "transitions" : [
                  {
                    "name" : "SlideRight",
                    "duration" : 20,
                    "trivial" : false,
                    "reverse" : false,
                    "useAudioPreRoll" : true,
                    "useVisualPreRoll" : true,
                    "leftMedia" : 64,
                    "rightMedia" : 80
                  },
                  {
                    "name" : "SlideRight",
                    "duration" : 20,
                    "trivial" : false,
                    "reverse" : false,
                    "useAudioPreRoll" : true,
                    "useVisualPreRoll" : true,
                    "leftMedia" : 80,
                    "rightMedia" : 86
                  },
                  {
                    "name" : "SlideRight",
                    "duration" : 20,
                    "trivial" : false,
                    "reverse" : false,
                    "useAudioPreRoll" : true,
                    "useVisualPreRoll" : true,
                    "leftMedia" : 86,
                    "rightMedia" : 89
                  },
                  {
                    "name" : "SlideRight",
                    "duration" : 20,
                    "trivial" : false,
                    "reverse" : false,
                    "useAudioPreRoll" : true,
                    "useVisualPreRoll" : true,
                    "leftMedia" : 89,
                    "rightMedia" : 95
                  },
                  {
                    "name" : "SlideRight",
                    "duration" : 20,
                    "trivial" : false,
                    "reverse" : false,
                    "useAudioPreRoll" : true,
                    "useVisualPreRoll" : true,
                    "leftMedia" : 95,
                    "rightMedia" : 98
                  },
                  {
                    "name" : "SlideRight",
                    "duration" : 20,
                    "trivial" : false,
                    "reverse" : false,
                    "useAudioPreRoll" : true,
                    "useVisualPreRoll" : true,
                    "leftMedia" : 98,
                    "rightMedia" : 104
                  },
                  {
                    "name" : "SlideRight",
                    "duration" : 20,
                    "trivial" : false,
                    "reverse" : false,
                    "useAudioPreRoll" : true,
                    "useVisualPreRoll" : true,
                    "leftMedia" : 104,
                    "rightMedia" : 107
                  },
                  {
                    "name" : "SlideRight",
                    "duration" : 20,
                    "trivial" : false,
                    "reverse" : false,
                    "useAudioPreRoll" : true,
                    "useVisualPreRoll" : true,
                    "leftMedia" : 107,
                    "rightMedia" : 113
                  },
                  {
                    "name" : "SlideRight",
                    "duration" : 20,
                    "trivial" : false,
                    "reverse" : false,
                    "useAudioPreRoll" : true,
                    "useVisualPreRoll" : true,
                    "leftMedia" : 113,
                    "rightMedia" : 116
                  },
                  {
                    "name" : "SlideRight",
                    "duration" : 20,
                    "trivial" : false,
                    "reverse" : false,
                    "useAudioPreRoll" : true,
                    "useVisualPreRoll" : true,
                    "leftMedia" : 116,
                    "rightMedia" : 122
                  },
                  {
                    "name" : "SlideRight",
                    "duration" : 20,
                    "trivial" : false,
                    "reverse" : false,
                    "useAudioPreRoll" : true,
                    "useVisualPreRoll" : true,
                    "leftMedia" : 122,
                    "rightMedia" : 125
                  },
                  {
                    "name" : "SlideRight",
                    "duration" : 20,
                    "trivial" : false,
                    "reverse" : false,
                    "useAudioPreRoll" : true,
                    "useVisualPreRoll" : true,
                    "leftMedia" : 125,
                    "rightMedia" : 131
                  },
                  {
                    "name" : "SlideRight",
                    "duration" : 20,
                    "trivial" : false,
                    "reverse" : false,
                    "useAudioPreRoll" : true,
                    "useVisualPreRoll" : true,
                    "leftMedia" : 131,
                    "rightMedia" : 134
                  },
                  {
                    "name" : "SlideRight",
                    "duration" : 22,
                    "trivial" : false,
                    "reverse" : false,
                    "useAudioPreRoll" : true,
                    "useVisualPreRoll" : true,
                    "leftMedia" : 134,
                    "rightMedia" : 140
                  },
                  {
                    "name" : "SlideRight",
                    "duration" : 20,
                    "trivial" : false,
                    "reverse" : false,
                    "useAudioPreRoll" : true,
                    "useVisualPreRoll" : true,
                    "leftMedia" : 140,
                    "rightMedia" : 143
                  },
                  {
                    "name" : "SlideRight",
                    "duration" : 20,
                    "trivial" : false,
                    "reverse" : false,
                    "useAudioPreRoll" : true,
                    "useVisualPreRoll" : true,
                    "leftMedia" : 143,
                    "rightMedia" : 149
                  },
                  {
                    "name" : "SlideRight",
                    "duration" : 20,
                    "trivial" : false,
                    "reverse" : false,
                    "useAudioPreRoll" : true,
                    "useVisualPreRoll" : true,
                    "leftMedia" : 149,
                    "rightMedia" : 152
                  },
                  {
                    "name" : "SlideRight",
                    "duration" : 20,
                    "trivial" : false,
                    "reverse" : false,
                    "useAudioPreRoll" : true,
                    "useVisualPreRoll" : true,
                    "leftMedia" : 152,
                    "rightMedia" : 158
                  },
                  {
                    "name" : "SlideRight",
                    "duration" : 20,
                    "trivial" : false,
                    "reverse" : false,
                    "useAudioPreRoll" : true,
                    "useVisualPreRoll" : true,
                    "leftMedia" : 158,
                    "rightMedia" : 161
                  },
                  {
                    "name" : "SlideRight",
                    "duration" : 20,
                    "trivial" : false,
                    "reverse" : false,
                    "useAudioPreRoll" : true,
                    "useVisualPreRoll" : true,
                    "leftMedia" : 161,
                    "rightMedia" : 167
                  },
                  {
                    "name" : "SlideRight",
                    "duration" : 20,
                    "trivial" : false,
                    "reverse" : false,
                    "useAudioPreRoll" : true,
                    "useVisualPreRoll" : true,
                    "leftMedia" : 167,
                    "rightMedia" : 170
                  },
                  {
                    "name" : "SlideRight",
                    "duration" : 20,
                    "trivial" : false,
                    "reverse" : false,
                    "useAudioPreRoll" : true,
                    "useVisualPreRoll" : true,
                    "leftMedia" : 170,
                    "rightMedia" : 176
                  },
                  {
                    "name" : "SlideRight",
                    "duration" : 20,
                    "trivial" : false,
                    "reverse" : false,
                    "useAudioPreRoll" : true,
                    "useVisualPreRoll" : true,
                    "leftMedia" : 176,
                    "rightMedia" : 179
                  },
                  {
                    "name" : "SlideRight",
                    "duration" : 20,
                    "trivial" : false,
                    "reverse" : false,
                    "useAudioPreRoll" : true,
                    "useVisualPreRoll" : true,
                    "leftMedia" : 179,
                    "rightMedia" : 184
                  },
                  {
                    "name" : "SlideRight",
                    "duration" : 20,
                    "trivial" : false,
                    "reverse" : false,
                    "useAudioPreRoll" : true,
                    "useVisualPreRoll" : true,
                    "leftMedia" : 184,
                    "rightMedia" : 187
                  },
                  {
                    "name" : "SlideRight",
                    "duration" : 20,
                    "trivial" : false,
                    "reverse" : false,
                    "useAudioPreRoll" : true,
                    "useVisualPreRoll" : true,
                    "leftMedia" : 187,
                    "rightMedia" : 192
                  },
                  {
                    "name" : "SlideRight",
                    "duration" : 20,
                    "trivial" : false,
                    "reverse" : false,
                    "useAudioPreRoll" : true,
                    "useVisualPreRoll" : true,
                    "leftMedia" : 192,
                    "rightMedia" : 195
                  },
                  {
                    "name" : "SlideRight",
                    "duration" : 20,
                    "trivial" : false,
                    "reverse" : false,
                    "useAudioPreRoll" : true,
                    "useVisualPreRoll" : true,
                    "leftMedia" : 195,
                    "rightMedia" : 200
                  },
                  {
                    "name" : "SlideRight",
                    "duration" : 20,
                    "trivial" : false,
                    "reverse" : false,
                    "useAudioPreRoll" : true,
                    "useVisualPreRoll" : true,
                    "leftMedia" : 200,
                    "rightMedia" : 203
                  },
                  {
                    "name" : "SlideRight",
                    "duration" : 20,
                    "trivial" : false,
                    "reverse" : false,
                    "useAudioPreRoll" : true,
                    "useVisualPreRoll" : true,
                    "leftMedia" : 203,
                    "rightMedia" : 208
                  },
                  {
                    "name" : "SlideRight",
                    "duration" : 20,
                    "trivial" : false,
                    "reverse" : false,
                    "useAudioPreRoll" : true,
                    "useVisualPreRoll" : true,
                    "leftMedia" : 208,
                    "rightMedia" : 211
                  },
                  {
                    "name" : "SlideRight",
                    "duration" : 20,
                    "trivial" : false,
                    "reverse" : false,
                    "useAudioPreRoll" : true,
                    "useVisualPreRoll" : true,
                    "leftMedia" : 211,
                    "rightMedia" : 216
                  },
                  {
                    "name" : "SlideRight",
                    "duration" : 20,
                    "trivial" : false,
                    "reverse" : false,
                    "useAudioPreRoll" : true,
                    "useVisualPreRoll" : true,
                    "leftMedia" : 216,
                    "rightMedia" : 219
                  },
                  {
                    "name" : "SlideRight",
                    "duration" : 20,
                    "trivial" : false,
                    "reverse" : false,
                    "useAudioPreRoll" : true,
                    "useVisualPreRoll" : true,
                    "leftMedia" : 219,
                    "rightMedia" : 224
                  },
                  {
                    "name" : "SlideRight",
                    "duration" : 20,
                    "trivial" : false,
                    "reverse" : false,
                    "useAudioPreRoll" : true,
                    "useVisualPreRoll" : true,
                    "leftMedia" : 224,
                    "rightMedia" : 227
                  },
                  {
                    "name" : "SlideRight",
                    "duration" : 20,
                    "trivial" : false,
                    "reverse" : false,
                    "useAudioPreRoll" : true,
                    "useVisualPreRoll" : true,
                    "leftMedia" : 227,
                    "rightMedia" : 232
                  },
                  {
                    "name" : "SlideRight",
                    "duration" : 20,
                    "trivial" : false,
                    "reverse" : false,
                    "useAudioPreRoll" : true,
                    "useVisualPreRoll" : true,
                    "leftMedia" : 232,
                    "rightMedia" : 235
                  },
                  {
                    "name" : "SlideRight",
                    "duration" : 20,
                    "trivial" : false,
                    "reverse" : false,
                    "useAudioPreRoll" : true,
                    "useVisualPreRoll" : true,
                    "leftMedia" : 235,
                    "rightMedia" : 240
                  },
                  {
                    "name" : "SlideRight",
                    "duration" : 20,
                    "trivial" : false,
                    "reverse" : false,
                    "useAudioPreRoll" : true,
                    "useVisualPreRoll" : true,
                    "leftMedia" : 240,
                    "rightMedia" : 243
                  },
                  {
                    "name" : "SlideRight",
                    "duration" : 20,
                    "trivial" : false,
                    "reverse" : false,
                    "useAudioPreRoll" : true,
                    "useVisualPreRoll" : true,
                    "leftMedia" : 243,
                    "rightMedia" : 249
                  },
                  {
                    "name" : "SlideRight",
                    "duration" : 20,
                    "trivial" : false,
                    "reverse" : false,
                    "useAudioPreRoll" : true,
                    "useVisualPreRoll" : true,
                    "leftMedia" : 249,
                    "rightMedia" : 252
                  },
                  {
                    "name" : "SlideRight",
                    "duration" : 20,
                    "trivial" : false,
                    "reverse" : false,
                    "useAudioPreRoll" : true,
                    "useVisualPreRoll" : true,
                    "leftMedia" : 252,
                    "rightMedia" : 258
                  },
                  {
                    "name" : "SlideRight",
                    "duration" : 20,
                    "trivial" : false,
                    "reverse" : false,
                    "useAudioPreRoll" : true,
                    "useVisualPreRoll" : true,
                    "leftMedia" : 258,
                    "rightMedia" : 261
                  },
                  {
                    "name" : "SlideRight",
                    "duration" : 20,
                    "trivial" : false,
                    "reverse" : false,
                    "useAudioPreRoll" : true,
                    "useVisualPreRoll" : true,
                    "leftMedia" : 261,
                    "rightMedia" : 267
                  },
                  {
                    "name" : "SlideRight",
                    "duration" : 20,
                    "trivial" : false,
                    "reverse" : false,
                    "useAudioPreRoll" : true,
                    "useVisualPreRoll" : true,
                    "leftMedia" : 267,
                    "rightMedia" : 270
                  },
                  {
                    "name" : "SlideRight",
                    "duration" : 20,
                    "trivial" : false,
                    "reverse" : false,
                    "useAudioPreRoll" : true,
                    "useVisualPreRoll" : true,
                    "leftMedia" : 270,
                    "rightMedia" : 275
                  },
                  {
                    "name" : "SlideRight",
                    "duration" : 20,
                    "trivial" : false,
                    "reverse" : false,
                    "useAudioPreRoll" : true,
                    "useVisualPreRoll" : true,
                    "leftMedia" : 275,
                    "rightMedia" : 278
                  },
                  {
                    "name" : "SlideRight",
                    "duration" : 20,
                    "trivial" : false,
                    "reverse" : false,
                    "useAudioPreRoll" : true,
                    "useVisualPreRoll" : true,
                    "leftMedia" : 278,
                    "rightMedia" : 283
                  },
                  {
                    "name" : "SlideRight",
                    "duration" : 20,
                    "trivial" : false,
                    "reverse" : false,
                    "useAudioPreRoll" : true,
                    "useVisualPreRoll" : true,
                    "leftMedia" : 283,
                    "rightMedia" : 286
                  },
                  {
                    "name" : "SlideRight",
                    "duration" : 20,
                    "trivial" : false,
                    "reverse" : false,
                    "useAudioPreRoll" : true,
                    "useVisualPreRoll" : true,
                    "leftMedia" : 286,
                    "rightMedia" : 291
                  },
                  {
                    "name" : "SlideRight",
                    "duration" : 20,
                    "trivial" : false,
                    "reverse" : false,
                    "useAudioPreRoll" : true,
                    "useVisualPreRoll" : true,
                    "leftMedia" : 291,
                    "rightMedia" : 294
                  },
                  {
                    "name" : "SlideRight",
                    "duration" : 20,
                    "trivial" : false,
                    "reverse" : false,
                    "useAudioPreRoll" : true,
                    "useVisualPreRoll" : true,
                    "leftMedia" : 294,
                    "rightMedia" : 299
                  },
                  {
                    "name" : "SlideRight",
                    "duration" : 20,
                    "trivial" : false,
                    "reverse" : false,
                    "useAudioPreRoll" : true,
                    "useVisualPreRoll" : true,
                    "leftMedia" : 299,
                    "rightMedia" : 302
                  },
                  {
                    "name" : "SlideRight",
                    "duration" : 20,
                    "trivial" : false,
                    "reverse" : false,
                    "useAudioPreRoll" : true,
                    "useVisualPreRoll" : true,
                    "leftMedia" : 302,
                    "rightMedia" : 307
                  },
                  {
                    "name" : "SlideRight",
                    "duration" : 20,
                    "trivial" : false,
                    "reverse" : false,
                    "useAudioPreRoll" : true,
                    "useVisualPreRoll" : true,
                    "leftMedia" : 307,
                    "rightMedia" : 310
                  },
                  {
                    "name" : "SlideRight",
                    "duration" : 20,
                    "trivial" : false,
                    "reverse" : false,
                    "useAudioPreRoll" : true,
                    "useVisualPreRoll" : true,
                    "leftMedia" : 310,
                    "rightMedia" : 315
                  },
                  {
                    "name" : "SlideRight",
                    "duration" : 20,
                    "trivial" : false,
                    "reverse" : false,
                    "useAudioPreRoll" : true,
                    "useVisualPreRoll" : true,
                    "leftMedia" : 315,
                    "rightMedia" : 318
                  },
                  {
                    "name" : "SlideRight",
                    "duration" : 20,
                    "trivial" : false,
                    "reverse" : false,
                    "useAudioPreRoll" : true,
                    "useVisualPreRoll" : true,
                    "leftMedia" : 318,
                    "rightMedia" : 323
                  },
                  {
                    "name" : "SlideRight",
                    "duration" : 20,
                    "trivial" : false,
                    "reverse" : false,
                    "useAudioPreRoll" : true,
                    "useVisualPreRoll" : true,
                    "leftMedia" : 323,
                    "rightMedia" : 326
                  },
                  {
                    "name" : "SlideRight",
                    "duration" : 20,
                    "trivial" : false,
                    "reverse" : false,
                    "useAudioPreRoll" : true,
                    "useVisualPreRoll" : true,
                    "leftMedia" : 326,
                    "rightMedia" : 332
                  },
                  {
                    "name" : "SlideRight",
                    "duration" : 20,
                    "trivial" : false,
                    "reverse" : false,
                    "useAudioPreRoll" : true,
                    "useVisualPreRoll" : true,
                    "leftMedia" : 332,
                    "rightMedia" : 335
                  },
                  {
                    "name" : "SlideRight",
                    "duration" : 20,
                    "trivial" : false,
                    "reverse" : false,
                    "useAudioPreRoll" : true,
                    "useVisualPreRoll" : true,
                    "leftMedia" : 335,
                    "rightMedia" : 341
                  },
                  {
                    "name" : "SlideRight",
                    "duration" : 20,
                    "trivial" : false,
                    "reverse" : false,
                    "useAudioPreRoll" : true,
                    "useVisualPreRoll" : true,
                    "leftMedia" : 341,
                    "rightMedia" : 344
                  },
                  {
                    "name" : "SlideRight",
                    "duration" : 20,
                    "trivial" : false,
                    "reverse" : false,
                    "useAudioPreRoll" : true,
                    "useVisualPreRoll" : true,
                    "leftMedia" : 344,
                    "rightMedia" : 350
                  },
                  {
                    "name" : "SlideRight",
                    "duration" : 20,
                    "trivial" : false,
                    "reverse" : false,
                    "useAudioPreRoll" : true,
                    "useVisualPreRoll" : true,
                    "leftMedia" : 350,
                    "rightMedia" : 353
                  },
                  {
                    "name" : "SlideRight",
                    "duration" : 20,
                    "trivial" : false,
                    "reverse" : false,
                    "useAudioPreRoll" : true,
                    "useVisualPreRoll" : true,
                    "leftMedia" : 353,
                    "rightMedia" : 358
                  },
                  {
                    "name" : "SlideRight",
                    "duration" : 20,
                    "trivial" : false,
                    "reverse" : false,
                    "useAudioPreRoll" : true,
                    "useVisualPreRoll" : true,
                    "leftMedia" : 358,
                    "rightMedia" : 361
                  },
                  {
                    "name" : "SlideRight",
                    "duration" : 20,
                    "trivial" : false,
                    "reverse" : false,
                    "useAudioPreRoll" : true,
                    "useVisualPreRoll" : true,
                    "leftMedia" : 361,
                    "rightMedia" : 366
                  },
                  {
                    "name" : "SlideRight",
                    "duration" : 20,
                    "trivial" : false,
                    "reverse" : false,
                    "useAudioPreRoll" : true,
                    "useVisualPreRoll" : true,
                    "leftMedia" : 366,
                    "rightMedia" : 369
                  },
                  {
                    "name" : "SlideRight",
                    "duration" : 20,
                    "trivial" : false,
                    "reverse" : false,
                    "useAudioPreRoll" : true,
                    "useVisualPreRoll" : true,
                    "leftMedia" : 369,
                    "rightMedia" : 374
                  },
                  {
                    "name" : "SlideRight",
                    "duration" : 20,
                    "trivial" : false,
                    "reverse" : false,
                    "useAudioPreRoll" : true,
                    "useVisualPreRoll" : true,
                    "leftMedia" : 374,
                    "rightMedia" : 377
                  },
                  {
                    "name" : "SlideRight",
                    "duration" : 20,
                    "trivial" : false,
                    "reverse" : false,
                    "useAudioPreRoll" : true,
                    "useVisualPreRoll" : true,
                    "leftMedia" : 377,
                    "rightMedia" : 382
                  },
                  {
                    "name" : "SlideRight",
                    "duration" : 20,
                    "trivial" : false,
                    "reverse" : false,
                    "useAudioPreRoll" : true,
                    "useVisualPreRoll" : true,
                    "leftMedia" : 382,
                    "rightMedia" : 385
                  },
                  {
                    "name" : "SlideRight",
                    "duration" : 20,
                    "trivial" : false,
                    "reverse" : false,
                    "useAudioPreRoll" : true,
                    "useVisualPreRoll" : true,
                    "leftMedia" : 385,
                    "rightMedia" : 390
                  },
                  {
                    "name" : "SlideRight",
                    "duration" : 20,
                    "trivial" : false,
                    "reverse" : false,
                    "useAudioPreRoll" : true,
                    "useVisualPreRoll" : true,
                    "leftMedia" : 390,
                    "rightMedia" : 393
                  },
                  {
                    "name" : "SlideRight",
                    "duration" : 20,
                    "trivial" : false,
                    "reverse" : false,
                    "useAudioPreRoll" : true,
                    "useVisualPreRoll" : true,
                    "leftMedia" : 393,
                    "rightMedia" : 398
                  },
                  {
                    "name" : "SlideRight",
                    "duration" : 20,
                    "trivial" : false,
                    "reverse" : false,
                    "useAudioPreRoll" : true,
                    "useVisualPreRoll" : true,
                    "leftMedia" : 398,
                    "rightMedia" : 401
                  },
                  {
                    "name" : "SlideRight",
                    "duration" : 20,
                    "trivial" : false,
                    "reverse" : false,
                    "useAudioPreRoll" : true,
                    "useVisualPreRoll" : true,
                    "leftMedia" : 401,
                    "rightMedia" : 406
                  },
                  {
                    "name" : "SlideRight",
                    "duration" : 20,
                    "trivial" : false,
                    "reverse" : false,
                    "useAudioPreRoll" : true,
                    "useVisualPreRoll" : true,
                    "leftMedia" : 406,
                    "rightMedia" : 409
                  },
                  {
                    "name" : "SlideRight",
                    "duration" : 20,
                    "trivial" : false,
                    "reverse" : false,
                    "useAudioPreRoll" : true,
                    "useVisualPreRoll" : true,
                    "leftMedia" : 409,
                    "rightMedia" : 415
                  },
                  {
                    "name" : "SlideRight",
                    "duration" : 20,
                    "trivial" : false,
                    "reverse" : false,
                    "useAudioPreRoll" : true,
                    "useVisualPreRoll" : true,
                    "leftMedia" : 415,
                    "rightMedia" : 418
                  },
                  {
                    "name" : "SlideRight",
                    "duration" : 20,
                    "trivial" : false,
                    "reverse" : false,
                    "useAudioPreRoll" : true,
                    "useVisualPreRoll" : true,
                    "leftMedia" : 418,
                    "rightMedia" : 424
                  },
                  {
                    "name" : "SlideRight",
                    "duration" : 20,
                    "trivial" : false,
                    "reverse" : false,
                    "useAudioPreRoll" : true,
                    "useVisualPreRoll" : true,
                    "leftMedia" : 424,
                    "rightMedia" : 427
                  },
                  {
                    "name" : "SlideRight",
                    "duration" : 20,
                    "trivial" : false,
                    "reverse" : false,
                    "useAudioPreRoll" : true,
                    "useVisualPreRoll" : true,
                    "leftMedia" : 427,
                    "rightMedia" : 433
                  },
                  {
                    "name" : "SlideRight",
                    "duration" : 20,
                    "trivial" : false,
                    "reverse" : false,
                    "useAudioPreRoll" : true,
                    "useVisualPreRoll" : true,
                    "leftMedia" : 433,
                    "rightMedia" : 436
                  },
                  {
                    "name" : "SlideRight",
                    "duration" : 20,
                    "trivial" : false,
                    "reverse" : false,
                    "useAudioPreRoll" : true,
                    "useVisualPreRoll" : true,
                    "leftMedia" : 436,
                    "rightMedia" : 442
                  },
                  {
                    "name" : "SlideRight",
                    "duration" : 20,
                    "trivial" : false,
                    "reverse" : false,
                    "useAudioPreRoll" : true,
                    "useVisualPreRoll" : true,
                    "leftMedia" : 442,
                    "rightMedia" : 445
                  },
                  {
                    "name" : "SlideRight",
                    "duration" : 20,
                    "trivial" : false,
                    "reverse" : false,
                    "useAudioPreRoll" : true,
                    "useVisualPreRoll" : true,
                    "leftMedia" : 445,
                    "rightMedia" : 451
                  },
                  {
                    "name" : "SlideRight",
                    "duration" : 20,
                    "trivial" : false,
                    "reverse" : false,
                    "useAudioPreRoll" : true,
                    "useVisualPreRoll" : true,
                    "leftMedia" : 451,
                    "rightMedia" : 454
                  },
                  {
                    "name" : "SlideRight",
                    "duration" : 20,
                    "trivial" : false,
                    "reverse" : false,
                    "useAudioPreRoll" : true,
                    "useVisualPreRoll" : true,
                    "leftMedia" : 454,
                    "rightMedia" : 459
                  },
                  {
                    "name" : "SlideRight",
                    "duration" : 20,
                    "trivial" : false,
                    "reverse" : false,
                    "useAudioPreRoll" : true,
                    "useVisualPreRoll" : true,
                    "leftMedia" : 459,
                    "rightMedia" : 462
                  },
                  {
                    "name" : "SlideRight",
                    "duration" : 20,
                    "trivial" : false,
                    "reverse" : false,
                    "useAudioPreRoll" : true,
                    "useVisualPreRoll" : true,
                    "leftMedia" : 462,
                    "rightMedia" : 468
                  },
                  {
                    "name" : "SlideRight",
                    "duration" : 20,
                    "trivial" : false,
                    "reverse" : false,
                    "useAudioPreRoll" : true,
                    "useVisualPreRoll" : true,
                    "leftMedia" : 468,
                    "rightMedia" : 471
                  },
                  {
                    "name" : "SlideRight",
                    "duration" : 20,
                    "trivial" : false,
                    "reverse" : false,
                    "useAudioPreRoll" : true,
                    "useVisualPreRoll" : true,
                    "leftMedia" : 471,
                    "rightMedia" : 476
                  },
                  {
                    "name" : "SlideRight",
                    "duration" : 20,
                    "trivial" : false,
                    "reverse" : false,
                    "useAudioPreRoll" : true,
                    "useVisualPreRoll" : true,
                    "leftMedia" : 476,
                    "rightMedia" : 479
                  },
                  {
                    "name" : "SlideRight",
                    "duration" : 20,
                    "trivial" : false,
                    "reverse" : false,
                    "useAudioPreRoll" : true,
                    "useVisualPreRoll" : true,
                    "leftMedia" : 479,
                    "rightMedia" : 485
                  },
                  {
                    "name" : "SlideRight",
                    "duration" : 20,
                    "trivial" : false,
                    "reverse" : false,
                    "useAudioPreRoll" : true,
                    "useVisualPreRoll" : true,
                    "leftMedia" : 485,
                    "rightMedia" : 488
                  },
                  {
                    "name" : "SlideRight",
                    "duration" : 20,
                    "trivial" : false,
                    "reverse" : false,
                    "useAudioPreRoll" : true,
                    "useVisualPreRoll" : true,
                    "leftMedia" : 488,
                    "rightMedia" : 493
                  },
                  {
                    "name" : "SlideRight",
                    "duration" : 20,
                    "trivial" : false,
                    "reverse" : false,
                    "useAudioPreRoll" : true,
                    "useVisualPreRoll" : true,
                    "leftMedia" : 493,
                    "rightMedia" : 496
                  }
                ]
              },
              {
                "trackIndex" : 1,
                "medias" : [
                  {
                    "id" : 514,
                    "_type" : "AMFile",
                    "src" : 62,
                    "trackNumber" : 0,
                    "attributes" : {
                      "ident" : "firefly",
                      "gain" : 1.0,
                      "mixToMono" : false
                    },
                      "channelNumber" : "0,1",
                    "effects" : [

                    ],
                    "start" : 0,
                    "duration" : 8596,
                    "mediaStart" : 0,
                    "mediaDuration" : 8596,
                    "scalar" : 1,
                    "metadata" : {
                      "clipSpeedAttribute" : false
                    },
                    "animationTracks" : {

                    }
                  },
                  {
                    "id" : 515,
                    "_type" : "AMFile",
                    "src" : 62,
                    "trackNumber" : 0,
                    "attributes" : {
                      "ident" : "firefly",
                      "gain" : 1.0,
                      "mixToMono" : false
                    },
                      "channelNumber" : "0,1",
                    "parameters" : {
                      "volume" : {
                        "type" : "double",
                        "keyframes" : [
                          {
                            "endTime" : -2,
                            "time" : -2,
                            "value" : 0.945054945054946,
                            "duration" : 0
                          },
                          {
                            "endTime" : 0,
                            "time" : 0,
                            "value" : 0.0,
                            "duration" : 0
                          },
                          {
                            "endTime" : 180,
                            "time" : 180,
                            "value" : 0.945054945054946,
                            "duration" : 0
                          }
                        ]
                      }
                    },
                    "effects" : [

                    ],
                    "start" : 8596,
                    "duration" : 8598,
                    "mediaStart" : 0,
                    "mediaDuration" : 8598,
                    "scalar" : 1,
                    "metadata" : {
                      "clipSpeedAttribute" : false
                    },
                    "animationTracks" : {

                    }
                  },
                  {
                    "id" : 516,
                    "_type" : "AMFile",
                    "src" : 62,
                    "trackNumber" : 0,
                    "attributes" : {
                      "ident" : "firefly",
                      "gain" : 1.0,
                      "mixToMono" : false
                    },
                      "channelNumber" : "0,1",
                    "parameters" : {
                      "volume" : {
                        "type" : "double",
                        "keyframes" : [
                          {
                            "endTime" : -2,
                            "time" : -2,
                            "value" : 0.945054945054946,
                            "duration" : 0
                          },
                          {
                            "endTime" : 0,
                            "time" : 0,
                            "value" : 0.0,
                            "duration" : 0
                          },
                          {
                            "endTime" : 180,
                            "time" : 180,
                            "value" : 0.945054945054946,
                            "duration" : 0
                          }
                        ]
                      }
                    },
                    "effects" : [

                    ],
                    "start" : 17194,
                    "duration" : 8598,
                    "mediaStart" : 0,
                    "mediaDuration" : 8598,
                    "scalar" : 1,
                    "metadata" : {
                      "clipSpeedAttribute" : false
                    },
                    "animationTracks" : {

                    }
                  },
                  {
                    "id" : 517,
                    "_type" : "AMFile",
                    "src" : 62,
                    "trackNumber" : 0,
                    "attributes" : {
                      "ident" : "firefly",
                      "gain" : 1.0,
                      "mixToMono" : false
                    },
                      "channelNumber" : "0,1",
                    "parameters" : {
                      "volume" : {
                        "type" : "double",
                        "keyframes" : [
                          {
                            "endTime" : -2,
                            "time" : -2,
                            "value" : 0.945054945054946,
                            "duration" : 0
                          },
                          {
                            "endTime" : 0,
                            "time" : 0,
                            "value" : 0.0,
                            "duration" : 0
                          },
                          {
                            "endTime" : 180,
                            "time" : 180,
                            "value" : 0.945054945054946,
                            "duration" : 0
                          }
                        ]
                      }
                    },
                    "effects" : [

                    ],
                    "start" : 25792,
                    "duration" : 8598,
                    "mediaStart" : 0,
                    "mediaDuration" : 8598,
                    "scalar" : 1,
                    "metadata" : {
                      "clipSpeedAttribute" : false
                    },
                    "animationTracks" : {

                    }
                  },
                  {
                    "id" : 518,
                    "_type" : "AMFile",
                    "src" : 62,
                    "trackNumber" : 0,
                    "attributes" : {
                      "ident" : "firefly",
                      "gain" : 1.0,
                      "mixToMono" : false
                    },
                      "channelNumber" : "0,1",
                    "parameters" : {
                      "volume" : {
                        "type" : "double",
                        "keyframes" : [
                          {
                            "endTime" : -2,
                            "time" : -2,
                            "value" : 0.945054945054946,
                            "duration" : 0
                          },
                          {
                            "endTime" : 0,
                            "time" : 0,
                            "value" : 0.0,
                            "duration" : 0
                          },
                          {
                            "endTime" : 180,
                            "time" : 180,
                            "value" : 0.945054945054946,
                            "duration" : 0
                          }
                        ]
                      }
                    },
                    "effects" : [

                    ],
                    "start" : 34390,
                    "duration" : 8598,
                    "mediaStart" : 0,
                    "mediaDuration" : 8598,
                    "scalar" : 1,
                    "metadata" : {
                      "clipSpeedAttribute" : false
                    },
                    "animationTracks" : {

                    }
                  },
                  {
                    "id" : 519,
                    "_type" : "AMFile",
                    "src" : 62,
                    "trackNumber" : 0,
                    "attributes" : {
                      "ident" : "firefly",
                      "gain" : 1.0,
                      "mixToMono" : false
                    },
                      "channelNumber" : "0,1",
                    "parameters" : {
                      "volume" : {
                        "type" : "double",
                        "keyframes" : [
                          {
                            "endTime" : -2,
                            "time" : -2,
                            "value" : 0.945054945054946,
                            "duration" : 0
                          },
                          {
                            "endTime" : 0,
                            "time" : 0,
                            "value" : 0.0,
                            "duration" : 0
                          },
                          {
                            "endTime" : 180,
                            "time" : 180,
                            "value" : 0.945054945054946,
                            "duration" : 0
                          }
                        ]
                      }
                    },
                    "effects" : [

                    ],
                    "start" : 42988,
                    "duration" : 8598,
                    "mediaStart" : 0,
                    "mediaDuration" : 8598,
                    "scalar" : 1,
                    "metadata" : {
                      "clipSpeedAttribute" : false
                    },
                    "animationTracks" : {

                    }
                  },
                  {
                    "id" : 520,
                    "_type" : "AMFile",
                    "src" : 62,
                    "trackNumber" : 0,
                    "attributes" : {
                      "ident" : "firefly",
                      "gain" : 1.0,
                      "mixToMono" : false
                    },
                      "channelNumber" : "0,1",
                    "parameters" : {
                      "volume" : {
                        "type" : "double",
                        "keyframes" : [
                          {
                            "endTime" : -2,
                            "time" : -2,
                            "value" : 0.945054945054946,
                            "duration" : 0
                          },
                          {
                            "endTime" : 0,
                            "time" : 0,
                            "value" : 0.0,
                            "duration" : 0
                          },
                          {
                            "endTime" : 180,
                            "time" : 180,
                            "value" : 0.945054945054946,
                            "duration" : 0
                          },
                          {
                            "endTime" : 6082,
                            "time" : 6082,
                            "value" : 0.945054945054946,
                            "duration" : 0
                          },
                          {
                            "endTime" : 6592,
                            "time" : 6592,
                            "value" : 0.0,
                            "duration" : 0
                          },
                          {
                            "endTime" : 6594,
                            "time" : 6594,
                            "value" : 0.945054945054946,
                            "duration" : 0
                          }
                        ]
                      }
                    },
                    "effects" : [

                    ],
                    "start" : 51586,
                    "duration" : 6592,
                    "mediaStart" : 0,
                    "mediaDuration" : 6592,
                    "scalar" : 1,
                    "metadata" : {
                      "clipSpeedAttribute" : false
                    },
                    "animationTracks" : {

                    }
                  }
                ]
              },
              {
                "trackIndex" : 2,
                "medias" : [
                ]
              },
              {
                "trackIndex" : 3,
                "medias" : [
                ]
              },
              {
                "trackIndex" : 4,
                "medias" : [
                ]
              },
              {
                "trackIndex" : 5,
                "medias" : [
                ]
              }
            ]
          }
        }
      ]
    },
    "trackAttributes" : [
      {
        "ident" : "",
        "audioMuted" : false,
        "videoHidden" : false,
        "magnetic" : false,
        "metadata" : {
          "IsLocked" : "False",
          "WinTrackHeight" : "56"
        }
      },
      {
        "ident" : "",
        "audioMuted" : false,
        "videoHidden" : false,
        "magnetic" : false,
        "metadata" : {
          "IsLocked" : "False",
          "WinTrackHeight" : "56"
        }
      },
      {
        "ident" : "",
        "audioMuted" : false,
        "videoHidden" : false,
        "magnetic" : false,
        "metadata" : {
          "IsLocked" : "False",
          "WinTrackHeight" : "56"
        }
      },
      {
        "ident" : "",
        "audioMuted" : false,
        "videoHidden" : false,
        "magnetic" : false,
        "metadata" : {
          "IsLocked" : "False",
          "WinTrackHeight" : "56"
        }
      },
      {
        "ident" : "",
        "audioMuted" : false,
        "videoHidden" : false,
        "magnetic" : false,
        "metadata" : {
          "IsLocked" : "False",
          "WinTrackHeight" : "56"
        }
      },
      {
        "ident" : "",
        "audioMuted" : false,
        "videoHidden" : false,
        "magnetic" : false,
        "metadata" : {
          "IsLocked" : "False",
          "WinTrackHeight" : "56"
        }
      }
    ],
    "captionAttributes" : {
      "enabled" : true,
      "fontName" : "Arial",
      "fontSize" : 64,
      "backgroundColor" : [ 0, 0, 0, 191],
      "foregroundColor" : [ 255, 255, 255, 255],
      "lang" : "en",
      "alignment" : 0,
      "defaultFontSize" : true,
      "opacity" : 0.5,
      "backgroundEnabled" : true,
      "backgroundOnlyAroundText" : true
    },
    "backgroundColor" : [ 0, 0, 0, 255]
  },
  "metadata" : {
    "AutoSaveFile" : "C:\\Users\\oneoffcoder\\AppData\\Local\\TechSmith\\Camtasia Studio\\19.0\\Auto-Saves\\scratch1ae11a.autosave.tscproj",
    "CanvasZoom" : 60,
    "Date" : "2019-11-12 09:27:50 AM",
    "Fit" : 0,
    "IsAutoSave" : "0",
    "Language" : "ENU",
    "ProfileName" : "",
    "ProjectDimensionsChanged" : "1",
    "Title" : "scratch",
    "audioNarrationNotes" : "",
    "calloutStyle" : "Basic",
    "canvasDetached" : "False",
    "canvasPositionHeight" : "0",
    "canvasPositionLeft" : "0",
    "canvasPositionTop" : "0",
    "canvasPositionWidth" : "0"
  }
}
